  0
SECTION
  2
HEADER
  9
$ACADVER
  1
AC1014
  9
$HANDSEED
  5
FFFF
  9
$MEASUREMENT
 70
     1
  0
ENDSEC
  0
SECTION
  2
TABLES
  0
TABLE
  2
VPORT
  5
8
330
0
100
AcDbSymbolTable
 70
     4
  0
VPORT
  5
2E
330
8
100
AcDbSymbolTableRecord
100
AcDbViewportTableRecord
  2
*ACTIVE
 70
     0
 10
0.0
 20
0.0
 11
1.0
 21
1.0
 12
210.0
 22
148.5
 13
0.0
 23
0.0
 14
10.0
 24
10.0
 15
10.0
 25
10.0
 16
0.0
 26
0.0
 36
1.0
 17
0.0
 27
0.0
 37
0.0
 40
341.0
 41
1.24
 42
50.0
 43
0.0
 44
0.0
 50
0.0
 51
0.0
 71
     0
 72
   100
 73
     1
 74
     3
 75
     0
 76
     0
 77
     0
 78
     0
  0
ENDTAB
  0
TABLE
  2
LTYPE
  5
5
330
0
100
AcDbSymbolTable
 70
     1
  0
LTYPE
  5
14
330
5
100
AcDbSymbolTableRecord
100
AcDbLinetypeTableRecord
  2
BYBLOCK
 70
     0
  3

 72
    65
 73
     0
 40
0.0
  0
LTYPE
  5
15
330
5
100
AcDbSymbolTableRecord
100
AcDbLinetypeTableRecord
  2
BYLAYER
 70
     0
  3

 72
    65
 73
     0
 40
0.0
  0
LTYPE
  5
16
330
5
100
AcDbSymbolTableRecord
100
AcDbLinetypeTableRecord
  2
CONTINUOUS
 70
     0
  3
Solid line
 72
    65
 73
     0
 40
0.0
  0
ENDTAB
  0
TABLE
  2
LAYER
  5
2
100
AcDbSymbolTable
 70
1
  0
LAYER
  5
50
100
AcDbSymbolTableRecord
100
AcDbLayerTableRecord
  2
0
 70
0
  6
CONTINUOUS
  0
ENDTAB
  0
TABLE
  2
STYLE
  5
3
330
0
100
AcDbSymbolTable
 70
     1
  0
STYLE
  5
11
330
3
100
AcDbSymbolTableRecord
100
AcDbTextStyleTableRecord
  2
STANDARD
 70
     0
 40
0.0
 41
1.0
 50
0.0
 71
     0
 42
2.5
  3
txt
  4

  0
ENDTAB
  0
TABLE
  2
VIEW
  5
6
330
0
100
AcDbSymbolTable
 70
     0
  0
ENDTAB
  0
TABLE
  2
UCS
  5
7
330
0
100
AcDbSymbolTable
 70
     0
  0
ENDTAB
  0
TABLE
  2
APPID
  5
9
330
0
100
AcDbSymbolTable
 70
     2
  0
APPID
  5
12
330
9
100
AcDbSymbolTableRecord
100
AcDbRegAppTableRecord
  2
ACAD
 70
     0
  0
ENDTAB
  0
TABLE
  2
DIMSTYLE
  5
A
330
0
100
AcDbSymbolTable
 70
     1
  0
DIMSTYLE
105
27
330
A
100
AcDbSymbolTableRecord
100
AcDbDimStyleTableRecord
  2
ISO-25
 70
     0
  3

  4

  5

  6

  7

 40
1.0
 41
2.5
 42
0.625
 43
3.75
 44
1.25
 45
0.0
 46
0.0
 47
0.0
 48
0.0
140
2.5
141
2.5
142
0.0
143
0.03937007874016
144
1.0
145
0.0
146
1.0
147
0.625
 71
     0
 72
     0
 73
     0
 74
     0
 75
     0
 76
     0
 77
     1
 78
     8
170
     0
171
     3
172
     1
173
     0
174
     0
175
     0
176
     0
177
     0
178
     0
270
     2
271
     2
272
     2
273
     2
274
     3
340
11
275
     0
280
     0
281
     0
282
     0
283
     0
284
     8
285
     0
286
     0
287
     3
288
     0
  0
ENDTAB
  0
TABLE
  2
BLOCK_RECORD
  5
1
330
0
100
AcDbSymbolTable
 70
     1
  0
BLOCK_RECORD
  5
1F
330
1
100
AcDbSymbolTableRecord
100
AcDbBlockTableRecord
  2
*MODEL_SPACE
  0
BLOCK_RECORD
  5
1B
330
1
100
AcDbSymbolTableRecord
100
AcDbBlockTableRecord
  2
*PAPER_SPACE
  0
ENDTAB
  0
ENDSEC
  0
SECTION
  2
BLOCKS
  0
BLOCK
  5
20
330
1F
100
AcDbEntity
  8
0
100
AcDbBlockBegin
  2
*MODEL_SPACE
 70
     0
 10
0.0
 20
0.0
 30
0.0
  3
*MODEL_SPACE
  1

  0
ENDBLK
  5
21
330
1F
100
AcDbEntity
  8
0
100
AcDbBlockEnd
  0
BLOCK
  5
1C
330
1B
100
AcDbEntity
 67
     1
  8
0
100
AcDbBlockBegin
  2
*PAPER_SPACE
  1

  0
ENDBLK
  5
1D
330
1B
100
AcDbEntity
 67
     1
  8
0
100
AcDbBlockEnd
  0
ENDSEC
  0
SECTION
  2
ENTITIES
  0
SPLINE
  5
100
100
AcDbEntity
  8
0
 62
7
100
AcDbSpline
 70
8
 71
3
 72
8
 73
4
 74
0
 40
0
 40
0
 40
0
 40
0
 40
1
 40
1
 40
1
 40
1
 10
335.823297
 20
-124.589886
 30
0.0
 10
334.912852
 20
-124.589886
 30
0.0
 10
334.092056
 20
-125.138325
 30
0.0
 10
333.743644
 20
-125.979466
 30
0.0
  0
SPLINE
  5
101
100
AcDbEntity
  8
0
 62
7
100
AcDbSpline
 70
8
 71
3
 72
8
 73
4
 74
0
 40
0
 40
0
 40
0
 40
0
 40
1
 40
1
 40
1
 40
1
 10
333.743644
 20
-125.979466
 30
0.0
 10
333.395232
 20
-126.820607
 30
0.0
 10
333.587818
 20
-127.788802
 30
0.0
 10
334.231600
 20
-128.432583
 30
0.0
  0
SPLINE
  5
102
100
AcDbEntity
  8
0
 62
7
100
AcDbSpline
 70
8
 71
3
 72
8
 73
4
 74
0
 40
0
 40
0
 40
0
 40
0
 40
1
 40
1
 40
1
 40
1
 10
334.231600
 20
-128.432583
 30
0.0
 10
334.875381
 20
-129.076365
 30
0.0
 10
335.843576
 20
-129.268951
 30
0.0
 10
336.684717
 20
-128.920539
 30
0.0
  0
SPLINE
  5
103
100
AcDbEntity
  8
0
 62
7
100
AcDbSpline
 70
8
 71
3
 72
8
 73
4
 74
0
 40
0
 40
0
 40
0
 40
0
 40
1
 40
1
 40
1
 40
1
 10
336.684717
 20
-128.920539
 30
0.0
 10
337.525858
 20
-128.572127
 30
0.0
 10
338.074297
 20
-127.751331
 30
0.0
 10
338.074297
 20
-126.840886
 30
0.0
  0
SPLINE
  5
104
100
AcDbEntity
  8
0
 62
7
100
AcDbSpline
 70
8
 71
3
 72
8
 73
4
 74
0
 40
0
 40
0
 40
0
 40
0
 40
1
 40
1
 40
1
 40
1
 10
338.074297
 20
-126.840886
 30
0.0
 10
338.074297
 20
-126.243884
 30
0.0
 10
337.837139
 20
-125.671333
 30
0.0
 10
337.414994
 20
-125.249189
 30
0.0
  0
SPLINE
  5
105
100
AcDbEntity
  8
0
 62
7
100
AcDbSpline
 70
8
 71
3
 72
8
 73
4
 74
0
 40
0
 40
0
 40
0
 40
0
 40
1
 40
1
 40
1
 40
1
 10
337.414994
 20
-125.249189
 30
0.0
 10
336.992850
 20
-124.827044
 30
0.0
 10
336.420299
 20
-124.589886
 30
0.0
 10
335.823297
 20
-124.589886
 30
0.0
  0
SPLINE
  5
106
100
AcDbEntity
  8
0
 62
7
100
AcDbSpline
 70
8
 71
3
 72
8
 73
4
 74
0
 40
0
 40
0
 40
0
 40
0
 40
1
 40
1
 40
1
 40
1
 10
326.880357
 20
-31.970445
 30
0.0
 10
325.120542
 20
-31.970445
 30
0.0
 10
323.534009
 20
-33.030532
 30
0.0
 10
322.860557
 20
-34.656390
 30
0.0
  0
SPLINE
  5
107
100
AcDbEntity
  8
0
 62
7
100
AcDbSpline
 70
8
 71
3
 72
8
 73
4
 74
0
 40
0
 40
0
 40
0
 40
0
 40
1
 40
1
 40
1
 40
1
 10
322.860557
 20
-34.656390
 30
0.0
 10
322.187105
 20
-36.282247
 30
0.0
 10
322.559358
 20
-38.153689
 30
0.0
 10
323.803735
 20
-39.398067
 30
0.0
  0
SPLINE
  5
108
100
AcDbEntity
  8
0
 62
7
100
AcDbSpline
 70
8
 71
3
 72
8
 73
4
 74
0
 40
0
 40
0
 40
0
 40
0
 40
1
 40
1
 40
1
 40
1
 10
323.803735
 20
-39.398067
 30
0.0
 10
325.048113
 20
-40.642444
 30
0.0
 10
326.919555
 20
-41.014697
 30
0.0
 10
328.545413
 20
-40.341245
 30
0.0
  0
SPLINE
  5
109
100
AcDbEntity
  8
0
 62
7
100
AcDbSpline
 70
8
 71
3
 72
8
 73
4
 74
0
 40
0
 40
0
 40
0
 40
0
 40
1
 40
1
 40
1
 40
1
 10
328.545413
 20
-40.341245
 30
0.0
 10
330.171270
 20
-39.667793
 30
0.0
 10
331.231357
 20
-38.081260
 30
0.0
 10
331.231357
 20
-36.321445
 30
0.0
  0
SPLINE
  5
10a
100
AcDbEntity
  8
0
 62
7
100
AcDbSpline
 70
8
 71
3
 72
8
 73
4
 74
0
 40
0
 40
0
 40
0
 40
0
 40
1
 40
1
 40
1
 40
1
 10
331.231357
 20
-36.321445
 30
0.0
 10
331.231357
 20
-35.167488
 30
0.0
 10
330.772949
 20
-34.060794
 30
0.0
 10
329.956979
 20
-33.244824
 30
0.0
  0
SPLINE
  5
10b
100
AcDbEntity
  8
0
 62
7
100
AcDbSpline
 70
8
 71
3
 72
8
 73
4
 74
0
 40
0
 40
0
 40
0
 40
0
 40
1
 40
1
 40
1
 40
1
 10
329.956979
 20
-33.244824
 30
0.0
 10
329.141008
 20
-32.428853
 30
0.0
 10
328.034314
 20
-31.970445
 30
0.0
 10
326.880357
 20
-31.970445
 30
0.0
  0
LWPOLYLINE
  5
10c
100
AcDbEntity
  8
0
 62
7
100
AcDbPolyline
 90
1
 70
1
 10
335.823297
 20
-124.589886
 30
0.0
  0
SPLINE
  5
10d
100
AcDbEntity
  8
0
 62
7
100
AcDbSpline
 70
8
 71
3
 72
8
 73
4
 74
0
 40
0
 40
0
 40
0
 40
0
 40
1
 40
1
 40
1
 40
1
 10
35.217857
 20
-31.970445
 30
0.0
 10
33.458042
 20
-31.970445
 30
0.0
 10
31.871509
 20
-33.030532
 30
0.0
 10
31.198057
 20
-34.656390
 30
0.0
  0
SPLINE
  5
10e
100
AcDbEntity
  8
0
 62
7
100
AcDbSpline
 70
8
 71
3
 72
8
 73
4
 74
0
 40
0
 40
0
 40
0
 40
0
 40
1
 40
1
 40
1
 40
1
 10
31.198057
 20
-34.656390
 30
0.0
 10
30.524605
 20
-36.282247
 30
0.0
 10
30.896858
 20
-38.153689
 30
0.0
 10
32.141235
 20
-39.398067
 30
0.0
  0
SPLINE
  5
10f
100
AcDbEntity
  8
0
 62
7
100
AcDbSpline
 70
8
 71
3
 72
8
 73
4
 74
0
 40
0
 40
0
 40
0
 40
0
 40
1
 40
1
 40
1
 40
1
 10
32.141235
 20
-39.398067
 30
0.0
 10
33.385613
 20
-40.642444
 30
0.0
 10
35.257055
 20
-41.014697
 30
0.0
 10
36.882913
 20
-40.341245
 30
0.0
  0
SPLINE
  5
110
100
AcDbEntity
  8
0
 62
7
100
AcDbSpline
 70
8
 71
3
 72
8
 73
4
 74
0
 40
0
 40
0
 40
0
 40
0
 40
1
 40
1
 40
1
 40
1
 10
36.882913
 20
-40.341245
 30
0.0
 10
38.508770
 20
-39.667793
 30
0.0
 10
39.568857
 20
-38.081260
 30
0.0
 10
39.568857
 20
-36.321445
 30
0.0
  0
SPLINE
  5
111
100
AcDbEntity
  8
0
 62
7
100
AcDbSpline
 70
8
 71
3
 72
8
 73
4
 74
0
 40
0
 40
0
 40
0
 40
0
 40
1
 40
1
 40
1
 40
1
 10
39.568857
 20
-36.321445
 30
0.0
 10
39.568857
 20
-35.167488
 30
0.0
 10
39.110449
 20
-34.060794
 30
0.0
 10
38.294479
 20
-33.244824
 30
0.0
  0
SPLINE
  5
112
100
AcDbEntity
  8
0
 62
7
100
AcDbSpline
 70
8
 71
3
 72
8
 73
4
 74
0
 40
0
 40
0
 40
0
 40
0
 40
1
 40
1
 40
1
 40
1
 10
38.294479
 20
-33.244824
 30
0.0
 10
37.478508
 20
-32.428853
 30
0.0
 10
36.371814
 20
-31.970445
 30
0.0
 10
35.217857
 20
-31.970445
 30
0.0
  0
LWPOLYLINE
  5
113
100
AcDbEntity
  8
0
 62
7
100
AcDbPolyline
 90
1
 70
1
 10
326.880357
 20
-31.970445
 30
0.0
  0
SPLINE
  5
114
100
AcDbEntity
  8
0
 62
7
100
AcDbSpline
 70
8
 71
3
 72
8
 73
4
 74
0
 40
0
 40
0
 40
0
 40
0
 40
1
 40
1
 40
1
 40
1
 10
257.293557
 20
-20.630445
 30
0.0
 10
256.383112
 20
-20.630445
 30
0.0
 10
255.562316
 20
-21.178884
 30
0.0
 10
255.213904
 20
-22.020025
 30
0.0
  0
SPLINE
  5
115
100
AcDbEntity
  8
0
 62
7
100
AcDbSpline
 70
8
 71
3
 72
8
 73
4
 74
0
 40
0
 40
0
 40
0
 40
0
 40
1
 40
1
 40
1
 40
1
 10
255.213904
 20
-22.020025
 30
0.0
 10
254.865492
 20
-22.861166
 30
0.0
 10
255.058078
 20
-23.829361
 30
0.0
 10
255.701860
 20
-24.473142
 30
0.0
  0
SPLINE
  5
116
100
AcDbEntity
  8
0
 62
7
100
AcDbSpline
 70
8
 71
3
 72
8
 73
4
 74
0
 40
0
 40
0
 40
0
 40
0
 40
1
 40
1
 40
1
 40
1
 10
255.701860
 20
-24.473142
 30
0.0
 10
256.345641
 20
-25.116924
 30
0.0
 10
257.313836
 20
-25.309510
 30
0.0
 10
258.154977
 20
-24.961098
 30
0.0
  0
SPLINE
  5
117
100
AcDbEntity
  8
0
 62
7
100
AcDbSpline
 70
8
 71
3
 72
8
 73
4
 74
0
 40
0
 40
0
 40
0
 40
0
 40
1
 40
1
 40
1
 40
1
 10
258.154977
 20
-24.961098
 30
0.0
 10
258.996118
 20
-24.612686
 30
0.0
 10
259.544557
 20
-23.791890
 30
0.0
 10
259.544557
 20
-22.881445
 30
0.0
  0
SPLINE
  5
118
100
AcDbEntity
  8
0
 62
7
100
AcDbSpline
 70
8
 71
3
 72
8
 73
4
 74
0
 40
0
 40
0
 40
0
 40
0
 40
1
 40
1
 40
1
 40
1
 10
259.544557
 20
-22.881445
 30
0.0
 10
259.544557
 20
-22.284443
 30
0.0
 10
259.307399
 20
-21.711892
 30
0.0
 10
258.885254
 20
-21.289748
 30
0.0
  0
SPLINE
  5
119
100
AcDbEntity
  8
0
 62
7
100
AcDbSpline
 70
8
 71
3
 72
8
 73
4
 74
0
 40
0
 40
0
 40
0
 40
0
 40
1
 40
1
 40
1
 40
1
 10
258.885254
 20
-21.289748
 30
0.0
 10
258.463110
 20
-20.867603
 30
0.0
 10
257.890559
 20
-20.630445
 30
0.0
 10
257.293557
 20
-20.630445
 30
0.0
  0
LWPOLYLINE
  5
11a
100
AcDbEntity
  8
0
 62
7
100
AcDbPolyline
 90
1
 70
1
 10
35.217857
 20
-31.970445
 30
0.0
  0
SPLINE
  5
11b
100
AcDbEntity
  8
0
 62
7
100
AcDbSpline
 70
8
 71
3
 72
8
 73
4
 74
0
 40
0
 40
0
 40
0
 40
0
 40
1
 40
1
 40
1
 40
1
 10
104.804657
 20
-20.630445
 30
0.0
 10
103.894212
 20
-20.630445
 30
0.0
 10
103.073416
 20
-21.178884
 30
0.0
 10
102.725004
 20
-22.020025
 30
0.0
  0
SPLINE
  5
11c
100
AcDbEntity
  8
0
 62
7
100
AcDbSpline
 70
8
 71
3
 72
8
 73
4
 74
0
 40
0
 40
0
 40
0
 40
0
 40
1
 40
1
 40
1
 40
1
 10
102.725004
 20
-22.020025
 30
0.0
 10
102.376592
 20
-22.861166
 30
0.0
 10
102.569178
 20
-23.829361
 30
0.0
 10
103.212960
 20
-24.473142
 30
0.0
  0
SPLINE
  5
11d
100
AcDbEntity
  8
0
 62
7
100
AcDbSpline
 70
8
 71
3
 72
8
 73
4
 74
0
 40
0
 40
0
 40
0
 40
0
 40
1
 40
1
 40
1
 40
1
 10
103.212960
 20
-24.473142
 30
0.0
 10
103.856741
 20
-25.116924
 30
0.0
 10
104.824936
 20
-25.309510
 30
0.0
 10
105.666077
 20
-24.961098
 30
0.0
  0
SPLINE
  5
11e
100
AcDbEntity
  8
0
 62
7
100
AcDbSpline
 70
8
 71
3
 72
8
 73
4
 74
0
 40
0
 40
0
 40
0
 40
0
 40
1
 40
1
 40
1
 40
1
 10
105.666077
 20
-24.961098
 30
0.0
 10
106.507218
 20
-24.612686
 30
0.0
 10
107.055657
 20
-23.791890
 30
0.0
 10
107.055657
 20
-22.881445
 30
0.0
  0
SPLINE
  5
11f
100
AcDbEntity
  8
0
 62
7
100
AcDbSpline
 70
8
 71
3
 72
8
 73
4
 74
0
 40
0
 40
0
 40
0
 40
0
 40
1
 40
1
 40
1
 40
1
 10
107.055657
 20
-22.881445
 30
0.0
 10
107.055657
 20
-22.284443
 30
0.0
 10
106.818499
 20
-21.711892
 30
0.0
 10
106.396354
 20
-21.289748
 30
0.0
  0
SPLINE
  5
120
100
AcDbEntity
  8
0
 62
7
100
AcDbSpline
 70
8
 71
3
 72
8
 73
4
 74
0
 40
0
 40
0
 40
0
 40
0
 40
1
 40
1
 40
1
 40
1
 10
106.396354
 20
-21.289748
 30
0.0
 10
105.974210
 20
-20.867603
 30
0.0
 10
105.401659
 20
-20.630445
 30
0.0
 10
104.804657
 20
-20.630445
 30
0.0
  0
LWPOLYLINE
  5
121
100
AcDbEntity
  8
0
 62
7
100
AcDbPolyline
 90
1
 70
1
 10
257.293557
 20
-20.630445
 30
0.0
  0
SPLINE
  5
122
100
AcDbEntity
  8
0
 62
7
100
AcDbSpline
 70
8
 71
3
 72
8
 73
4
 74
0
 40
0
 40
0
 40
0
 40
0
 40
1
 40
1
 40
1
 40
1
 10
257.293557
 20
-1.880445
 30
0.0
 10
256.383112
 20
-1.880445
 30
0.0
 10
255.562316
 20
-2.428884
 30
0.0
 10
255.213904
 20
-3.270025
 30
0.0
  0
SPLINE
  5
123
100
AcDbEntity
  8
0
 62
7
100
AcDbSpline
 70
8
 71
3
 72
8
 73
4
 74
0
 40
0
 40
0
 40
0
 40
0
 40
1
 40
1
 40
1
 40
1
 10
255.213904
 20
-3.270025
 30
0.0
 10
254.865492
 20
-4.111166
 30
0.0
 10
255.058078
 20
-5.079361
 30
0.0
 10
255.701860
 20
-5.723142
 30
0.0
  0
SPLINE
  5
124
100
AcDbEntity
  8
0
 62
7
100
AcDbSpline
 70
8
 71
3
 72
8
 73
4
 74
0
 40
0
 40
0
 40
0
 40
0
 40
1
 40
1
 40
1
 40
1
 10
255.701860
 20
-5.723142
 30
0.0
 10
256.345641
 20
-6.366924
 30
0.0
 10
257.313836
 20
-6.559510
 30
0.0
 10
258.154977
 20
-6.211098
 30
0.0
  0
SPLINE
  5
125
100
AcDbEntity
  8
0
 62
7
100
AcDbSpline
 70
8
 71
3
 72
8
 73
4
 74
0
 40
0
 40
0
 40
0
 40
0
 40
1
 40
1
 40
1
 40
1
 10
258.154977
 20
-6.211098
 30
0.0
 10
258.996118
 20
-5.862686
 30
0.0
 10
259.544557
 20
-5.041890
 30
0.0
 10
259.544557
 20
-4.131445
 30
0.0
  0
SPLINE
  5
126
100
AcDbEntity
  8
0
 62
7
100
AcDbSpline
 70
8
 71
3
 72
8
 73
4
 74
0
 40
0
 40
0
 40
0
 40
0
 40
1
 40
1
 40
1
 40
1
 10
259.544557
 20
-4.131445
 30
0.0
 10
259.544557
 20
-3.534443
 30
0.0
 10
259.307399
 20
-2.961892
 30
0.0
 10
258.885254
 20
-2.539748
 30
0.0
  0
SPLINE
  5
127
100
AcDbEntity
  8
0
 62
7
100
AcDbSpline
 70
8
 71
3
 72
8
 73
4
 74
0
 40
0
 40
0
 40
0
 40
0
 40
1
 40
1
 40
1
 40
1
 10
258.885254
 20
-2.539748
 30
0.0
 10
258.463110
 20
-2.117603
 30
0.0
 10
257.890559
 20
-1.880445
 30
0.0
 10
257.293557
 20
-1.880445
 30
0.0
  0
LWPOLYLINE
  5
128
100
AcDbEntity
  8
0
 62
7
100
AcDbPolyline
 90
1
 70
1
 10
104.804657
 20
-20.630445
 30
0.0
  0
SPLINE
  5
129
100
AcDbEntity
  8
0
 62
7
100
AcDbSpline
 70
8
 71
3
 72
8
 73
4
 74
0
 40
0
 40
0
 40
0
 40
0
 40
1
 40
1
 40
1
 40
1
 10
11.217857
 20
-1.880445
 30
0.0
 10
10.307412
 20
-1.880445
 30
0.0
 10
9.486616
 20
-2.428884
 30
0.0
 10
9.138204
 20
-3.270025
 30
0.0
  0
SPLINE
  5
12a
100
AcDbEntity
  8
0
 62
7
100
AcDbSpline
 70
8
 71
3
 72
8
 73
4
 74
0
 40
0
 40
0
 40
0
 40
0
 40
1
 40
1
 40
1
 40
1
 10
9.138204
 20
-3.270025
 30
0.0
 10
8.789792
 20
-4.111166
 30
0.0
 10
8.982378
 20
-5.079361
 30
0.0
 10
9.626160
 20
-5.723142
 30
0.0
  0
SPLINE
  5
12b
100
AcDbEntity
  8
0
 62
7
100
AcDbSpline
 70
8
 71
3
 72
8
 73
4
 74
0
 40
0
 40
0
 40
0
 40
0
 40
1
 40
1
 40
1
 40
1
 10
9.626160
 20
-5.723142
 30
0.0
 10
10.269941
 20
-6.366924
 30
0.0
 10
11.238136
 20
-6.559510
 30
0.0
 10
12.079277
 20
-6.211098
 30
0.0
  0
SPLINE
  5
12c
100
AcDbEntity
  8
0
 62
7
100
AcDbSpline
 70
8
 71
3
 72
8
 73
4
 74
0
 40
0
 40
0
 40
0
 40
0
 40
1
 40
1
 40
1
 40
1
 10
12.079277
 20
-6.211098
 30
0.0
 10
12.920418
 20
-5.862686
 30
0.0
 10
13.468857
 20
-5.041890
 30
0.0
 10
13.468857
 20
-4.131445
 30
0.0
  0
SPLINE
  5
12d
100
AcDbEntity
  8
0
 62
7
100
AcDbSpline
 70
8
 71
3
 72
8
 73
4
 74
0
 40
0
 40
0
 40
0
 40
0
 40
1
 40
1
 40
1
 40
1
 10
13.468857
 20
-4.131445
 30
0.0
 10
13.468857
 20
-3.534443
 30
0.0
 10
13.231699
 20
-2.961892
 30
0.0
 10
12.809554
 20
-2.539748
 30
0.0
  0
SPLINE
  5
12e
100
AcDbEntity
  8
0
 62
7
100
AcDbSpline
 70
8
 71
3
 72
8
 73
4
 74
0
 40
0
 40
0
 40
0
 40
0
 40
1
 40
1
 40
1
 40
1
 10
12.809554
 20
-2.539748
 30
0.0
 10
12.387410
 20
-2.117603
 30
0.0
 10
11.814859
 20
-1.880445
 30
0.0
 10
11.217857
 20
-1.880445
 30
0.0
  0
LWPOLYLINE
  5
12f
100
AcDbEntity
  8
0
 62
7
100
AcDbPolyline
 90
1
 70
1
 10
257.293557
 20
-1.880445
 30
0.0
  0
SPLINE
  5
130
100
AcDbEntity
  8
0
 62
7
100
AcDbSpline
 70
8
 71
3
 72
8
 73
4
 74
0
 40
0
 40
0
 40
0
 40
0
 40
1
 40
1
 40
1
 40
1
 10
50.069057
 20
-124.604445
 30
0.0
 10
49.158612
 20
-124.604445
 30
0.0
 10
48.337816
 20
-125.152884
 30
0.0
 10
47.989404
 20
-125.994025
 30
0.0
  0
SPLINE
  5
131
100
AcDbEntity
  8
0
 62
7
100
AcDbSpline
 70
8
 71
3
 72
8
 73
4
 74
0
 40
0
 40
0
 40
0
 40
0
 40
1
 40
1
 40
1
 40
1
 10
47.989404
 20
-125.994025
 30
0.0
 10
47.640992
 20
-126.835166
 30
0.0
 10
47.833578
 20
-127.803361
 30
0.0
 10
48.477360
 20
-128.447142
 30
0.0
  0
SPLINE
  5
132
100
AcDbEntity
  8
0
 62
7
100
AcDbSpline
 70
8
 71
3
 72
8
 73
4
 74
0
 40
0
 40
0
 40
0
 40
0
 40
1
 40
1
 40
1
 40
1
 10
48.477360
 20
-128.447142
 30
0.0
 10
49.121141
 20
-129.090924
 30
0.0
 10
50.089336
 20
-129.283510
 30
0.0
 10
50.930477
 20
-128.935098
 30
0.0
  0
SPLINE
  5
133
100
AcDbEntity
  8
0
 62
7
100
AcDbSpline
 70
8
 71
3
 72
8
 73
4
 74
0
 40
0
 40
0
 40
0
 40
0
 40
1
 40
1
 40
1
 40
1
 10
50.930477
 20
-128.935098
 30
0.0
 10
51.771618
 20
-128.586686
 30
0.0
 10
52.320057
 20
-127.765890
 30
0.0
 10
52.320057
 20
-126.855445
 30
0.0
  0
SPLINE
  5
134
100
AcDbEntity
  8
0
 62
7
100
AcDbSpline
 70
8
 71
3
 72
8
 73
4
 74
0
 40
0
 40
0
 40
0
 40
0
 40
1
 40
1
 40
1
 40
1
 10
52.320057
 20
-126.855445
 30
0.0
 10
52.320057
 20
-126.258443
 30
0.0
 10
52.082899
 20
-125.685892
 30
0.0
 10
51.660754
 20
-125.263748
 30
0.0
  0
SPLINE
  5
135
100
AcDbEntity
  8
0
 62
7
100
AcDbSpline
 70
8
 71
3
 72
8
 73
4
 74
0
 40
0
 40
0
 40
0
 40
0
 40
1
 40
1
 40
1
 40
1
 10
51.660754
 20
-125.263748
 30
0.0
 10
51.238610
 20
-124.841603
 30
0.0
 10
50.666059
 20
-124.604445
 30
0.0
 10
50.069057
 20
-124.604445
 30
0.0
  0
LWPOLYLINE
  5
136
100
AcDbEntity
  8
0
 62
7
100
AcDbPolyline
 90
1
 70
1
 10
11.217857
 20
-1.880445
 30
0.0
  0
SPLINE
  5
137
100
AcDbEntity
  8
0
 62
7
100
AcDbSpline
 70
8
 71
3
 72
8
 73
4
 74
0
 40
0
 40
0
 40
0
 40
0
 40
1
 40
1
 40
1
 40
1
 10
56.430357
 20
-46.719645
 30
0.0
 10
55.519912
 20
-46.719645
 30
0.0
 10
54.699116
 20
-47.268084
 30
0.0
 10
54.350704
 20
-48.109225
 30
0.0
  0
SPLINE
  5
138
100
AcDbEntity
  8
0
 62
7
100
AcDbSpline
 70
8
 71
3
 72
8
 73
4
 74
0
 40
0
 40
0
 40
0
 40
0
 40
1
 40
1
 40
1
 40
1
 10
54.350704
 20
-48.109225
 30
0.0
 10
54.002292
 20
-48.950366
 30
0.0
 10
54.194878
 20
-49.918561
 30
0.0
 10
54.838660
 20
-50.562342
 30
0.0
  0
SPLINE
  5
139
100
AcDbEntity
  8
0
 62
7
100
AcDbSpline
 70
8
 71
3
 72
8
 73
4
 74
0
 40
0
 40
0
 40
0
 40
0
 40
1
 40
1
 40
1
 40
1
 10
54.838660
 20
-50.562342
 30
0.0
 10
55.482441
 20
-51.206124
 30
0.0
 10
56.450636
 20
-51.398710
 30
0.0
 10
57.291777
 20
-51.050298
 30
0.0
  0
SPLINE
  5
13a
100
AcDbEntity
  8
0
 62
7
100
AcDbSpline
 70
8
 71
3
 72
8
 73
4
 74
0
 40
0
 40
0
 40
0
 40
0
 40
1
 40
1
 40
1
 40
1
 10
57.291777
 20
-51.050298
 30
0.0
 10
58.132918
 20
-50.701886
 30
0.0
 10
58.681357
 20
-49.881090
 30
0.0
 10
58.681357
 20
-48.970645
 30
0.0
  0
SPLINE
  5
13b
100
AcDbEntity
  8
0
 62
7
100
AcDbSpline
 70
8
 71
3
 72
8
 73
4
 74
0
 40
0
 40
0
 40
0
 40
0
 40
1
 40
1
 40
1
 40
1
 10
58.681357
 20
-48.970645
 30
0.0
 10
58.681357
 20
-48.373643
 30
0.0
 10
58.444199
 20
-47.801092
 30
0.0
 10
58.022054
 20
-47.378948
 30
0.0
  0
SPLINE
  5
13c
100
AcDbEntity
  8
0
 62
7
100
AcDbSpline
 70
8
 71
3
 72
8
 73
4
 74
0
 40
0
 40
0
 40
0
 40
0
 40
1
 40
1
 40
1
 40
1
 10
58.022054
 20
-47.378948
 30
0.0
 10
57.599910
 20
-46.956803
 30
0.0
 10
57.027359
 20
-46.719645
 30
0.0
 10
56.430357
 20
-46.719645
 30
0.0
  0
LWPOLYLINE
  5
13d
100
AcDbEntity
  8
0
 62
7
100
AcDbPolyline
 90
1
 70
1
 10
50.069057
 20
-124.604445
 30
0.0
  0
SPLINE
  5
13e
100
AcDbEntity
  8
0
 62
7
100
AcDbSpline
 70
8
 71
3
 72
8
 73
4
 74
0
 40
0
 40
0
 40
0
 40
0
 40
1
 40
1
 40
1
 40
1
 10
305.667857
 20
-46.719645
 30
0.0
 10
304.757412
 20
-46.719645
 30
0.0
 10
303.936616
 20
-47.268084
 30
0.0
 10
303.588204
 20
-48.109225
 30
0.0
  0
SPLINE
  5
13f
100
AcDbEntity
  8
0
 62
7
100
AcDbSpline
 70
8
 71
3
 72
8
 73
4
 74
0
 40
0
 40
0
 40
0
 40
0
 40
1
 40
1
 40
1
 40
1
 10
303.588204
 20
-48.109225
 30
0.0
 10
303.239792
 20
-48.950366
 30
0.0
 10
303.432378
 20
-49.918561
 30
0.0
 10
304.076160
 20
-50.562342
 30
0.0
  0
SPLINE
  5
140
100
AcDbEntity
  8
0
 62
7
100
AcDbSpline
 70
8
 71
3
 72
8
 73
4
 74
0
 40
0
 40
0
 40
0
 40
0
 40
1
 40
1
 40
1
 40
1
 10
304.076160
 20
-50.562342
 30
0.0
 10
304.719941
 20
-51.206124
 30
0.0
 10
305.688136
 20
-51.398710
 30
0.0
 10
306.529277
 20
-51.050298
 30
0.0
  0
SPLINE
  5
141
100
AcDbEntity
  8
0
 62
7
100
AcDbSpline
 70
8
 71
3
 72
8
 73
4
 74
0
 40
0
 40
0
 40
0
 40
0
 40
1
 40
1
 40
1
 40
1
 10
306.529277
 20
-51.050298
 30
0.0
 10
307.370418
 20
-50.701886
 30
0.0
 10
307.918857
 20
-49.881090
 30
0.0
 10
307.918857
 20
-48.970645
 30
0.0
  0
SPLINE
  5
142
100
AcDbEntity
  8
0
 62
7
100
AcDbSpline
 70
8
 71
3
 72
8
 73
4
 74
0
 40
0
 40
0
 40
0
 40
0
 40
1
 40
1
 40
1
 40
1
 10
307.918857
 20
-48.970645
 30
0.0
 10
307.918857
 20
-48.373643
 30
0.0
 10
307.681699
 20
-47.801092
 30
0.0
 10
307.259554
 20
-47.378948
 30
0.0
  0
SPLINE
  5
143
100
AcDbEntity
  8
0
 62
7
100
AcDbSpline
 70
8
 71
3
 72
8
 73
4
 74
0
 40
0
 40
0
 40
0
 40
0
 40
1
 40
1
 40
1
 40
1
 10
307.259554
 20
-47.378948
 30
0.0
 10
306.837410
 20
-46.956803
 30
0.0
 10
306.264859
 20
-46.719645
 30
0.0
 10
305.667857
 20
-46.719645
 30
0.0
  0
LWPOLYLINE
  5
144
100
AcDbEntity
  8
0
 62
7
100
AcDbPolyline
 90
1
 70
1
 10
56.430357
 20
-46.719645
 30
0.0
  0
SPLINE
  5
145
100
AcDbEntity
  8
0
 62
7
100
AcDbSpline
 70
8
 71
3
 72
8
 73
4
 74
0
 40
0
 40
0
 40
0
 40
0
 40
1
 40
1
 40
1
 40
1
 10
181.086608
 20
-134.730645
 30
0.0
 10
180.176163
 20
-134.730645
 30
0.0
 10
179.355367
 20
-135.279084
 30
0.0
 10
179.006955
 20
-136.120225
 30
0.0
  0
SPLINE
  5
146
100
AcDbEntity
  8
0
 62
7
100
AcDbSpline
 70
8
 71
3
 72
8
 73
4
 74
0
 40
0
 40
0
 40
0
 40
0
 40
1
 40
1
 40
1
 40
1
 10
179.006955
 20
-136.120225
 30
0.0
 10
178.658543
 20
-136.961366
 30
0.0
 10
178.851129
 20
-137.929561
 30
0.0
 10
179.494911
 20
-138.573342
 30
0.0
  0
SPLINE
  5
147
100
AcDbEntity
  8
0
 62
7
100
AcDbSpline
 70
8
 71
3
 72
8
 73
4
 74
0
 40
0
 40
0
 40
0
 40
0
 40
1
 40
1
 40
1
 40
1
 10
179.494911
 20
-138.573342
 30
0.0
 10
180.138692
 20
-139.217124
 30
0.0
 10
181.106887
 20
-139.409710
 30
0.0
 10
181.948028
 20
-139.061298
 30
0.0
  0
SPLINE
  5
148
100
AcDbEntity
  8
0
 62
7
100
AcDbSpline
 70
8
 71
3
 72
8
 73
4
 74
0
 40
0
 40
0
 40
0
 40
0
 40
1
 40
1
 40
1
 40
1
 10
181.948028
 20
-139.061298
 30
0.0
 10
182.789169
 20
-138.712886
 30
0.0
 10
183.337608
 20
-137.892090
 30
0.0
 10
183.337608
 20
-136.981645
 30
0.0
  0
SPLINE
  5
149
100
AcDbEntity
  8
0
 62
7
100
AcDbSpline
 70
8
 71
3
 72
8
 73
4
 74
0
 40
0
 40
0
 40
0
 40
0
 40
1
 40
1
 40
1
 40
1
 10
183.337608
 20
-136.981645
 30
0.0
 10
183.337608
 20
-136.384643
 30
0.0
 10
183.100450
 20
-135.812092
 30
0.0
 10
182.678305
 20
-135.389948
 30
0.0
  0
SPLINE
  5
14a
100
AcDbEntity
  8
0
 62
7
100
AcDbSpline
 70
8
 71
3
 72
8
 73
4
 74
0
 40
0
 40
0
 40
0
 40
0
 40
1
 40
1
 40
1
 40
1
 10
182.678305
 20
-135.389948
 30
0.0
 10
182.256161
 20
-134.967803
 30
0.0
 10
181.683610
 20
-134.730645
 30
0.0
 10
181.086608
 20
-134.730645
 30
0.0
  0
LWPOLYLINE
  5
14b
100
AcDbEntity
  8
0
 62
7
100
AcDbPolyline
 90
1
 70
1
 10
305.667857
 20
-46.719645
 30
0.0
  0
SPLINE
  5
14c
100
AcDbEntity
  8
0
 62
7
100
AcDbSpline
 70
8
 71
3
 72
8
 73
4
 74
0
 40
0
 40
0
 40
0
 40
0
 40
1
 40
1
 40
1
 40
1
 10
181.086608
 20
-46.719645
 30
0.0
 10
180.176163
 20
-46.719645
 30
0.0
 10
179.355367
 20
-47.268084
 30
0.0
 10
179.006955
 20
-48.109225
 30
0.0
  0
SPLINE
  5
14d
100
AcDbEntity
  8
0
 62
7
100
AcDbSpline
 70
8
 71
3
 72
8
 73
4
 74
0
 40
0
 40
0
 40
0
 40
0
 40
1
 40
1
 40
1
 40
1
 10
179.006955
 20
-48.109225
 30
0.0
 10
178.658543
 20
-48.950366
 30
0.0
 10
178.851129
 20
-49.918561
 30
0.0
 10
179.494911
 20
-50.562342
 30
0.0
  0
SPLINE
  5
14e
100
AcDbEntity
  8
0
 62
7
100
AcDbSpline
 70
8
 71
3
 72
8
 73
4
 74
0
 40
0
 40
0
 40
0
 40
0
 40
1
 40
1
 40
1
 40
1
 10
179.494911
 20
-50.562342
 30
0.0
 10
180.138692
 20
-51.206124
 30
0.0
 10
181.106887
 20
-51.398710
 30
0.0
 10
181.948028
 20
-51.050298
 30
0.0
  0
SPLINE
  5
14f
100
AcDbEntity
  8
0
 62
7
100
AcDbSpline
 70
8
 71
3
 72
8
 73
4
 74
0
 40
0
 40
0
 40
0
 40
0
 40
1
 40
1
 40
1
 40
1
 10
181.948028
 20
-51.050298
 30
0.0
 10
182.789169
 20
-50.701886
 30
0.0
 10
183.337608
 20
-49.881090
 30
0.0
 10
183.337608
 20
-48.970645
 30
0.0
  0
SPLINE
  5
150
100
AcDbEntity
  8
0
 62
7
100
AcDbSpline
 70
8
 71
3
 72
8
 73
4
 74
0
 40
0
 40
0
 40
0
 40
0
 40
1
 40
1
 40
1
 40
1
 10
183.337608
 20
-48.970645
 30
0.0
 10
183.337608
 20
-48.373643
 30
0.0
 10
183.100450
 20
-47.801092
 30
0.0
 10
182.678305
 20
-47.378948
 30
0.0
  0
SPLINE
  5
151
100
AcDbEntity
  8
0
 62
7
100
AcDbSpline
 70
8
 71
3
 72
8
 73
4
 74
0
 40
0
 40
0
 40
0
 40
0
 40
1
 40
1
 40
1
 40
1
 10
182.678305
 20
-47.378948
 30
0.0
 10
182.256161
 20
-46.956803
 30
0.0
 10
181.683610
 20
-46.719645
 30
0.0
 10
181.086608
 20
-46.719645
 30
0.0
  0
LWPOLYLINE
  5
152
100
AcDbEntity
  8
0
 62
7
100
AcDbPolyline
 90
1
 70
1
 10
181.086608
 20
-134.730645
 30
0.0
  0
SPLINE
  5
153
100
AcDbEntity
  8
0
 62
7
100
AcDbSpline
 70
8
 71
3
 72
8
 73
4
 74
0
 40
0
 40
0
 40
0
 40
0
 40
1
 40
1
 40
1
 40
1
 10
104.804657
 20
-1.880445
 30
0.0
 10
103.894212
 20
-1.880445
 30
0.0
 10
103.073416
 20
-2.428884
 30
0.0
 10
102.725004
 20
-3.270025
 30
0.0
  0
SPLINE
  5
154
100
AcDbEntity
  8
0
 62
7
100
AcDbSpline
 70
8
 71
3
 72
8
 73
4
 74
0
 40
0
 40
0
 40
0
 40
0
 40
1
 40
1
 40
1
 40
1
 10
102.725004
 20
-3.270025
 30
0.0
 10
102.376592
 20
-4.111166
 30
0.0
 10
102.569178
 20
-5.079361
 30
0.0
 10
103.212960
 20
-5.723142
 30
0.0
  0
SPLINE
  5
155
100
AcDbEntity
  8
0
 62
7
100
AcDbSpline
 70
8
 71
3
 72
8
 73
4
 74
0
 40
0
 40
0
 40
0
 40
0
 40
1
 40
1
 40
1
 40
1
 10
103.212960
 20
-5.723142
 30
0.0
 10
103.856741
 20
-6.366924
 30
0.0
 10
104.824936
 20
-6.559510
 30
0.0
 10
105.666077
 20
-6.211098
 30
0.0
  0
SPLINE
  5
156
100
AcDbEntity
  8
0
 62
7
100
AcDbSpline
 70
8
 71
3
 72
8
 73
4
 74
0
 40
0
 40
0
 40
0
 40
0
 40
1
 40
1
 40
1
 40
1
 10
105.666077
 20
-6.211098
 30
0.0
 10
106.507218
 20
-5.862686
 30
0.0
 10
107.055657
 20
-5.041890
 30
0.0
 10
107.055657
 20
-4.131445
 30
0.0
  0
SPLINE
  5
157
100
AcDbEntity
  8
0
 62
7
100
AcDbSpline
 70
8
 71
3
 72
8
 73
4
 74
0
 40
0
 40
0
 40
0
 40
0
 40
1
 40
1
 40
1
 40
1
 10
107.055657
 20
-4.131445
 30
0.0
 10
107.055657
 20
-3.534443
 30
0.0
 10
106.818499
 20
-2.961892
 30
0.0
 10
106.396354
 20
-2.539748
 30
0.0
  0
SPLINE
  5
158
100
AcDbEntity
  8
0
 62
7
100
AcDbSpline
 70
8
 71
3
 72
8
 73
4
 74
0
 40
0
 40
0
 40
0
 40
0
 40
1
 40
1
 40
1
 40
1
 10
106.396354
 20
-2.539748
 30
0.0
 10
105.974210
 20
-2.117603
 30
0.0
 10
105.401659
 20
-1.880445
 30
0.0
 10
104.804657
 20
-1.880445
 30
0.0
  0
LWPOLYLINE
  5
159
100
AcDbEntity
  8
0
 62
7
100
AcDbPolyline
 90
1
 70
1
 10
181.086608
 20
-46.719645
 30
0.0
  0
SPLINE
  5
15a
100
AcDbEntity
  8
0
 62
7
100
AcDbSpline
 70
8
 71
3
 72
8
 73
4
 74
0
 40
0
 40
0
 40
0
 40
0
 40
1
 40
1
 40
1
 40
1
 10
350.880357
 20
-1.880445
 30
0.0
 10
349.969912
 20
-1.880445
 30
0.0
 10
349.149116
 20
-2.428884
 30
0.0
 10
348.800704
 20
-3.270025
 30
0.0
  0
SPLINE
  5
15b
100
AcDbEntity
  8
0
 62
7
100
AcDbSpline
 70
8
 71
3
 72
8
 73
4
 74
0
 40
0
 40
0
 40
0
 40
0
 40
1
 40
1
 40
1
 40
1
 10
348.800704
 20
-3.270025
 30
0.0
 10
348.452292
 20
-4.111166
 30
0.0
 10
348.644878
 20
-5.079361
 30
0.0
 10
349.288660
 20
-5.723142
 30
0.0
  0
SPLINE
  5
15c
100
AcDbEntity
  8
0
 62
7
100
AcDbSpline
 70
8
 71
3
 72
8
 73
4
 74
0
 40
0
 40
0
 40
0
 40
0
 40
1
 40
1
 40
1
 40
1
 10
349.288660
 20
-5.723142
 30
0.0
 10
349.932441
 20
-6.366924
 30
0.0
 10
350.900636
 20
-6.559510
 30
0.0
 10
351.741777
 20
-6.211098
 30
0.0
  0
SPLINE
  5
15d
100
AcDbEntity
  8
0
 62
7
100
AcDbSpline
 70
8
 71
3
 72
8
 73
4
 74
0
 40
0
 40
0
 40
0
 40
0
 40
1
 40
1
 40
1
 40
1
 10
351.741777
 20
-6.211098
 30
0.0
 10
352.582918
 20
-5.862686
 30
0.0
 10
353.131357
 20
-5.041890
 30
0.0
 10
353.131357
 20
-4.131445
 30
0.0
  0
SPLINE
  5
15e
100
AcDbEntity
  8
0
 62
7
100
AcDbSpline
 70
8
 71
3
 72
8
 73
4
 74
0
 40
0
 40
0
 40
0
 40
0
 40
1
 40
1
 40
1
 40
1
 10
353.131357
 20
-4.131445
 30
0.0
 10
353.131357
 20
-3.534443
 30
0.0
 10
352.894199
 20
-2.961892
 30
0.0
 10
352.472054
 20
-2.539748
 30
0.0
  0
SPLINE
  5
15f
100
AcDbEntity
  8
0
 62
7
100
AcDbSpline
 70
8
 71
3
 72
8
 73
4
 74
0
 40
0
 40
0
 40
0
 40
0
 40
1
 40
1
 40
1
 40
1
 10
352.472054
 20
-2.539748
 30
0.0
 10
352.049910
 20
-2.117603
 30
0.0
 10
351.477359
 20
-1.880445
 30
0.0
 10
350.880357
 20
-1.880445
 30
0.0
  0
LWPOLYLINE
  5
160
100
AcDbEntity
  8
0
 62
7
100
AcDbPolyline
 90
1
 70
1
 10
104.804657
 20
-1.880445
 30
0.0
  0
SPLINE
  5
161
100
AcDbEntity
  8
0
 62
7
100
AcDbSpline
 70
8
 71
3
 72
8
 73
4
 74
0
 40
0
 40
0
 40
0
 40
0
 40
1
 40
1
 40
1
 40
1
 10
350.880357
 20
-20.630445
 30
0.0
 10
349.969912
 20
-20.630445
 30
0.0
 10
349.149116
 20
-21.178884
 30
0.0
 10
348.800704
 20
-22.020025
 30
0.0
  0
SPLINE
  5
162
100
AcDbEntity
  8
0
 62
7
100
AcDbSpline
 70
8
 71
3
 72
8
 73
4
 74
0
 40
0
 40
0
 40
0
 40
0
 40
1
 40
1
 40
1
 40
1
 10
348.800704
 20
-22.020025
 30
0.0
 10
348.452292
 20
-22.861166
 30
0.0
 10
348.644878
 20
-23.829361
 30
0.0
 10
349.288660
 20
-24.473142
 30
0.0
  0
SPLINE
  5
163
100
AcDbEntity
  8
0
 62
7
100
AcDbSpline
 70
8
 71
3
 72
8
 73
4
 74
0
 40
0
 40
0
 40
0
 40
0
 40
1
 40
1
 40
1
 40
1
 10
349.288660
 20
-24.473142
 30
0.0
 10
349.932441
 20
-25.116924
 30
0.0
 10
350.900636
 20
-25.309510
 30
0.0
 10
351.741777
 20
-24.961098
 30
0.0
  0
SPLINE
  5
164
100
AcDbEntity
  8
0
 62
7
100
AcDbSpline
 70
8
 71
3
 72
8
 73
4
 74
0
 40
0
 40
0
 40
0
 40
0
 40
1
 40
1
 40
1
 40
1
 10
351.741777
 20
-24.961098
 30
0.0
 10
352.582918
 20
-24.612686
 30
0.0
 10
353.131357
 20
-23.791890
 30
0.0
 10
353.131357
 20
-22.881445
 30
0.0
  0
SPLINE
  5
165
100
AcDbEntity
  8
0
 62
7
100
AcDbSpline
 70
8
 71
3
 72
8
 73
4
 74
0
 40
0
 40
0
 40
0
 40
0
 40
1
 40
1
 40
1
 40
1
 10
353.131357
 20
-22.881445
 30
0.0
 10
353.131357
 20
-22.284443
 30
0.0
 10
352.894199
 20
-21.711892
 30
0.0
 10
352.472054
 20
-21.289748
 30
0.0
  0
SPLINE
  5
166
100
AcDbEntity
  8
0
 62
7
100
AcDbSpline
 70
8
 71
3
 72
8
 73
4
 74
0
 40
0
 40
0
 40
0
 40
0
 40
1
 40
1
 40
1
 40
1
 10
352.472054
 20
-21.289748
 30
0.0
 10
352.049910
 20
-20.867603
 30
0.0
 10
351.477359
 20
-20.630445
 30
0.0
 10
350.880357
 20
-20.630445
 30
0.0
  0
LWPOLYLINE
  5
167
100
AcDbEntity
  8
0
 62
7
100
AcDbPolyline
 90
1
 70
1
 10
350.880357
 20
-1.880445
 30
0.0
  0
SPLINE
  5
168
100
AcDbEntity
  8
0
 62
7
100
AcDbSpline
 70
8
 71
3
 72
8
 73
4
 74
0
 40
0
 40
0
 40
0
 40
0
 40
1
 40
1
 40
1
 40
1
 10
11.217857
 20
-20.630445
 30
0.0
 10
10.307412
 20
-20.630445
 30
0.0
 10
9.486616
 20
-21.178884
 30
0.0
 10
9.138204
 20
-22.020025
 30
0.0
  0
SPLINE
  5
169
100
AcDbEntity
  8
0
 62
7
100
AcDbSpline
 70
8
 71
3
 72
8
 73
4
 74
0
 40
0
 40
0
 40
0
 40
0
 40
1
 40
1
 40
1
 40
1
 10
9.138204
 20
-22.020025
 30
0.0
 10
8.789792
 20
-22.861166
 30
0.0
 10
8.982378
 20
-23.829361
 30
0.0
 10
9.626160
 20
-24.473142
 30
0.0
  0
SPLINE
  5
16a
100
AcDbEntity
  8
0
 62
7
100
AcDbSpline
 70
8
 71
3
 72
8
 73
4
 74
0
 40
0
 40
0
 40
0
 40
0
 40
1
 40
1
 40
1
 40
1
 10
9.626160
 20
-24.473142
 30
0.0
 10
10.269941
 20
-25.116924
 30
0.0
 10
11.238136
 20
-25.309510
 30
0.0
 10
12.079277
 20
-24.961098
 30
0.0
  0
SPLINE
  5
16b
100
AcDbEntity
  8
0
 62
7
100
AcDbSpline
 70
8
 71
3
 72
8
 73
4
 74
0
 40
0
 40
0
 40
0
 40
0
 40
1
 40
1
 40
1
 40
1
 10
12.079277
 20
-24.961098
 30
0.0
 10
12.920418
 20
-24.612686
 30
0.0
 10
13.468857
 20
-23.791890
 30
0.0
 10
13.468857
 20
-22.881445
 30
0.0
  0
SPLINE
  5
16c
100
AcDbEntity
  8
0
 62
7
100
AcDbSpline
 70
8
 71
3
 72
8
 73
4
 74
0
 40
0
 40
0
 40
0
 40
0
 40
1
 40
1
 40
1
 40
1
 10
13.468857
 20
-22.881445
 30
0.0
 10
13.468857
 20
-22.284443
 30
0.0
 10
13.231699
 20
-21.711892
 30
0.0
 10
12.809554
 20
-21.289748
 30
0.0
  0
SPLINE
  5
16d
100
AcDbEntity
  8
0
 62
7
100
AcDbSpline
 70
8
 71
3
 72
8
 73
4
 74
0
 40
0
 40
0
 40
0
 40
0
 40
1
 40
1
 40
1
 40
1
 10
12.809554
 20
-21.289748
 30
0.0
 10
12.387410
 20
-20.867603
 30
0.0
 10
11.814859
 20
-20.630445
 30
0.0
 10
11.217857
 20
-20.630445
 30
0.0
  0
LWPOLYLINE
  5
16e
100
AcDbEntity
  8
0
 62
7
100
AcDbPolyline
 90
1
 70
1
 10
350.880357
 20
-20.630445
 30
0.0
  0
LWPOLYLINE
  5
16f
100
AcDbEntity
  8
0
 62
7
100
AcDbPolyline
 90
1
 70
1
 10
11.217857
 20
-20.630445
 30
0.0
  0
SPLINE
  5
170
100
AcDbEntity
  8
0
 62
7
100
AcDbSpline
 70
8
 71
3
 72
8
 73
4
 74
0
 40
0
 40
0
 40
0
 40
0
 40
1
 40
1
 40
1
 40
1
 10
351.576297
 20
-146.747945
 30
0.0
 10
352.453383
 20
-146.747149
 30
0.0
 10
353.294231
 20
-146.397965
 30
0.0
 10
353.913862
 20
-145.777208
 30
0.0
  0
SPLINE
  5
171
100
AcDbEntity
  8
0
 62
7
100
AcDbSpline
 70
8
 71
3
 72
8
 73
4
 74
0
 40
0
 40
0
 40
0
 40
0
 40
1
 40
1
 40
1
 40
1
 10
353.913862
 20
-145.777208
 30
0.0
 10
354.533493
 20
-145.156452
 30
0.0
 10
354.881151
 20
-144.314973
 30
0.0
 10
354.880356
 20
-143.437886
 30
0.0
  0
SPLINE
  5
172
100
AcDbEntity
  8
0
 62
7
100
AcDbSpline
 70
8
 71
3
 72
8
 73
4
 74
0
 40
0
 40
0
 40
0
 40
0
 40
1
 40
1
 40
1
 40
1
 10
354.880357
 20
-3.435505
 30
0.0
 10
354.879561
 20
-2.558419
 30
0.0
 10
354.530377
 20
-1.717571
 30
0.0
 10
353.909620
 20
-1.097940
 30
0.0
  0
SPLINE
  5
173
100
AcDbEntity
  8
0
 62
7
100
AcDbSpline
 70
8
 71
3
 72
8
 73
4
 74
0
 40
0
 40
0
 40
0
 40
0
 40
1
 40
1
 40
1
 40
1
 10
353.909620
 20
-1.097940
 30
0.0
 10
353.288864
 20
-0.478309
 30
0.0
 10
352.447384
 20
-0.130651
 30
0.0
 10
351.570298
 20
-0.131446
 30
0.0
  0
SPLINE
  5
174
100
AcDbEntity
  8
0
 62
7
100
AcDbSpline
 70
8
 71
3
 72
8
 73
4
 74
0
 40
0
 40
0
 40
0
 40
0
 40
1
 40
1
 40
1
 40
1
 10
10.521917
 20
-0.131445
 30
0.0
 10
9.644831
 20
-0.132241
 30
0.0
 10
8.803983
 20
-0.481425
 30
0.0
 10
8.184352
 20
-1.102182
 30
0.0
  0
SPLINE
  5
175
100
AcDbEntity
  8
0
 62
7
100
AcDbSpline
 70
8
 71
3
 72
8
 73
4
 74
0
 40
0
 40
0
 40
0
 40
0
 40
1
 40
1
 40
1
 40
1
 10
8.184352
 20
-1.102182
 30
0.0
 10
7.564721
 20
-1.722938
 30
0.0
 10
7.217063
 20
-2.564418
 30
0.0
 10
7.217858
 20
-3.441504
 30
0.0
  0
SPLINE
  5
176
100
AcDbEntity
  8
0
 62
7
100
AcDbSpline
 70
8
 71
3
 72
8
 73
4
 74
0
 40
0
 40
0
 40
0
 40
0
 40
1
 40
1
 40
1
 40
1
 10
7.217857
 20
-143.443885
 30
0.0
 10
7.218653
 20
-144.320972
 30
0.0
 10
7.567837
 20
-145.161819
 30
0.0
 10
8.188594
 20
-145.781450
 30
0.0
  0
SPLINE
  5
177
100
AcDbEntity
  8
0
 62
7
100
AcDbSpline
 70
8
 71
3
 72
8
 73
4
 74
0
 40
0
 40
0
 40
0
 40
0
 40
1
 40
1
 40
1
 40
1
 10
8.188594
 20
-145.781450
 30
0.0
 10
8.809350
 20
-146.401081
 30
0.0
 10
9.650830
 20
-146.748739
 30
0.0
 10
10.527916
 20
-146.747944
 30
0.0
  0
LWPOLYLINE
  5
178
100
AcDbEntity
  8
0
 62
7
100
AcDbPolyline
 90
2
 70
0
 10
7.217857
 20
-143.443885
 30
0.0
 10
7.217858
 20
-3.441504
 30
0.0
  0
LWPOLYLINE
  5
179
100
AcDbEntity
  8
0
 62
7
100
AcDbPolyline
 90
2
 70
0
 10
354.880357
 20
-3.435505
 30
0.0
 10
354.880356
 20
-143.437886
 30
0.0
  0
LWPOLYLINE
  5
17a
100
AcDbEntity
  8
0
 62
7
100
AcDbPolyline
 90
2
 70
0
 10
351.576297
 20
-146.747945
 30
0.0
 10
10.527916
 20
-146.747944
 30
0.0
  0
LWPOLYLINE
  5
17b
100
AcDbEntity
  8
0
 62
7
100
AcDbPolyline
 90
2
 70
0
 10
10.521917
 20
-0.131445
 30
0.0
 10
351.570298
 20
-0.131445
 30
0.0
  0
ENDSEC
  0
SECTION
  2
OBJECTS
  0
DICTIONARY
  5
C
330
0
100
AcDbDictionary
  3
ACAD_GROUP
350
D
  3
ACAD_MLINESTYLE
350
17
  0
DICTIONARY
  5
D
330
C
100
AcDbDictionary
  0
DICTIONARY
  5
1A
330
C
100
AcDbDictionary
  0
DICTIONARY
  5
17
330
C
100
AcDbDictionary
  3
STANDARD
350
18
  0
DICTIONARY
  5
19
330
C
100
AcDbDictionary
  0
ENDSEC
  0
EOF
