  0
SECTION
  2
HEADER
  9
$ACADVER
  1
AC1009
  0
ENDSEC
  0
SECTION
  2
ENTITIES
  0
POLYLINE
  5
90
  8
Layer_0
  62
0
  70
1
  66
1
  10
0
  20
0
  30
0
  0
VERTEX
  5
90
  8
Layer_0
  10
255.71313
  20
230.53754
  0
VERTEX
  5
91
  8
Layer_0
  10
255.75397
  20
230.4982
  0
VERTEX
  5
92
  8
Layer_0
  10
255.92383
  20
230.36224
  0
VERTEX
  5
93
  8
Layer_0
  10
256.10852
  20
230.25375
  0
VERTEX
  5
94
  8
Layer_0
  10
256.30493
  20
230.17334
  0
VERTEX
  5
95
  8
Layer_0
  10
256.50977
  20
230.12158
  0
VERTEX
  5
96
  8
Layer_0
  10
256.71985
  20
230.09903
  0
VERTEX
  5
97
  8
Layer_0
  10
256.93201
  20
230.10623
  0
VERTEX
  5
98
  8
Layer_0
  10
257.14294
  20
230.1438
  0
VERTEX
  5
99
  8
Layer_0
  10
257.34949
  20
230.21228
  0
VERTEX
  5
9a
  8
Layer_0
  10
257.55042
  20
230.31363
  0
VERTEX
  5
9b
  8
Layer_0
  10
257.73102
  20
230.44147
  0
VERTEX
  5
9c
  8
Layer_0
  10
257.88934
  20
230.5929
  0
VERTEX
  5
9d
  8
Layer_0
  10
258.02332
  20
230.76489
  0
VERTEX
  5
9e
  8
Layer_0
  10
258.13098
  20
230.95447
  0
VERTEX
  5
9f
  8
Layer_0
  10
258.21039
  20
231.15857
  0
VERTEX
  5
a0
  8
Layer_0
  10
258.25958
  20
231.37427
  0
VERTEX
  5
a1
  8
Layer_0
  10
258.27649
  20
231.59857
  0
VERTEX
  5
a2
  8
Layer_0
  10
258.24725
  20
231.89264
  0
VERTEX
  5
a3
  8
Layer_0
  10
258.16211
  20
232.17276
  0
VERTEX
  5
a4
  8
Layer_0
  10
258.02417
  20
232.43103
  0
VERTEX
  5
a5
  8
Layer_0
  10
257.83667
  20
232.65958
  0
VERTEX
  5
a6
  8
Layer_0
  10
257.60901
  20
232.84607
  0
VERTEX
  5
a7
  8
Layer_0
  10
257.34949
  20
232.98486
  0
VERTEX
  5
a8
  8
Layer_0
  10
257.06787
  20
233.07047
  0
VERTEX
  5
a9
  8
Layer_0
  10
256.7749
  20
233.09906
  0
VERTEX
  5
aa
  8
Layer_0
  10
256.71814
  20
233.09802
  0
VERTEX
  5
ab
  8
Layer_0
  10
256.50183
  20
233.0741
  0
VERTEX
  5
ac
  8
Layer_0
  10
256.29443
  20
233.02026
  0
VERTEX
  5
ad
  8
Layer_0
  10
256.09869
  20
232.93832
  0
VERTEX
  5
ae
  8
Layer_0
  10
255.91718
  20
232.8302
  0
VERTEX
  5
af
  8
Layer_0
  10
255.75262
  20
232.69772
  0
VERTEX
  5
b0
  8
Layer_0
  10
255.60773
  20
232.54279
  0
VERTEX
  5
b1
  8
Layer_0
  10
255.48517
  20
232.36719
  0
VERTEX
  5
b2
  8
Layer_0
  10
255.38757
  20
232.17279
  0
VERTEX
  5
b3
  8
Layer_0
  10
255.36688
  20
232.12
  0
VERTEX
  5
b4
  8
Layer_0
  10
255.30609
  20
231.91119
  0
VERTEX
  5
b5
  8
Layer_0
  10
255.27649
  20
231.69916
  0
VERTEX
  5
b6
  8
Layer_0
  10
255.27728
  20
231.48709
  0
VERTEX
  5
b7
  8
Layer_0
  10
255.30786
  20
231.27817
  0
VERTEX
  5
b8
  8
Layer_0
  10
255.36743
  20
231.07556
  0
VERTEX
  5
b9
  8
Layer_0
  10
255.45532
  20
230.88248
  0
VERTEX
  5
ba
  8
Layer_0
  10
255.57074
  20
230.70209
  0
VERTEX
  5
bb
  8
Layer_0
  10
255.71313
  20
230.53754
  0
SEQEND
  0
POLYLINE
  5
bd
  8
Layer_0
  62
0
  70
1
  66
1
  10
0
  20
0
  30
0
  0
VERTEX
  5
bd
  8
Layer_0
  10
179.74683
  20
335.55829
  0
VERTEX
  5
be
  8
Layer_0
  10
179.71771
  20
335.85236
  0
VERTEX
  5
bf
  8
Layer_0
  10
179.63251
  20
336.13248
  0
VERTEX
  5
c0
  8
Layer_0
  10
179.49451
  20
336.39075
  0
VERTEX
  5
c1
  8
Layer_0
  10
179.30701
  20
336.61926
  0
VERTEX
  5
c2
  8
Layer_0
  10
179.10931
  20
336.7854
  0
VERTEX
  5
c3
  8
Layer_0
  10
178.88776
  20
336.91443
  0
VERTEX
  5
c4
  8
Layer_0
  10
178.64746
  20
337.00391
  0
VERTEX
  5
c5
  8
Layer_0
  10
178.39355
  20
337.05139
  0
VERTEX
  5
c6
  8
Layer_0
  10
178.31946
  20
337.05685
  0
VERTEX
  5
c7
  8
Layer_0
  10
178.24518
  20
337.05875
  0
VERTEX
  5
c8
  8
Layer_0
  10
178.18842
  20
337.05768
  0
VERTEX
  5
c9
  8
Layer_0
  10
177.97211
  20
337.03381
  0
VERTEX
  5
ca
  8
Layer_0
  10
177.76471
  20
336.97998
  0
VERTEX
  5
cb
  8
Layer_0
  10
177.56891
  20
336.89807
  0
VERTEX
  5
cc
  8
Layer_0
  10
177.38745
  20
336.78992
  0
VERTEX
  5
cd
  8
Layer_0
  10
177.2229
  20
336.65741
  0
VERTEX
  5
ce
  8
Layer_0
  10
177.078
  20
336.50244
  0
VERTEX
  5
cf
  8
Layer_0
  10
176.95538
  20
336.32684
  0
VERTEX
  5
d0
  8
Layer_0
  10
176.85779
  20
336.13248
  0
VERTEX
  5
d1
  8
Layer_0
  10
176.8371
  20
336.07968
  0
VERTEX
  5
d2
  8
Layer_0
  10
176.77637
  20
335.87085
  0
VERTEX
  5
d3
  8
Layer_0
  10
176.74683
  20
335.65878
  0
VERTEX
  5
d4
  8
Layer_0
  10
176.74762
  20
335.44669
  0
VERTEX
  5
d5
  8
Layer_0
  10
176.77814
  20
335.23776
  0
VERTEX
  5
d6
  8
Layer_0
  10
176.83765
  20
335.03516
  0
VERTEX
  5
d7
  8
Layer_0
  10
176.92554
  20
334.8421
  0
VERTEX
  5
d8
  8
Layer_0
  10
177.04095
  20
334.66174
  0
VERTEX
  5
d9
  8
Layer_0
  10
177.18335
  20
334.49725
  0
VERTEX
  5
da
  8
Layer_0
  10
177.22424
  20
334.45792
  0
VERTEX
  5
db
  8
Layer_0
  10
177.3941
  20
334.32199
  0
VERTEX
  5
dc
  8
Layer_0
  10
177.57886
  20
334.21353
  0
VERTEX
  5
dd
  8
Layer_0
  10
177.77521
  20
334.13312
  0
VERTEX
  5
de
  8
Layer_0
  10
177.9801
  20
334.08133
  0
VERTEX
  5
df
  8
Layer_0
  10
178.19019
  20
334.05878
  0
VERTEX
  5
e0
  8
Layer_0
  10
178.40234
  20
334.06595
  0
VERTEX
  5
e1
  8
Layer_0
  10
178.61328
  20
334.10352
  0
VERTEX
  5
e2
  8
Layer_0
  10
178.81982
  20
334.172
  0
VERTEX
  5
e3
  8
Layer_0
  10
179.02075
  20
334.27335
  0
VERTEX
  5
e4
  8
Layer_0
  10
179.20142
  20
334.40121
  0
VERTEX
  5
e5
  8
Layer_0
  10
179.35974
  20
334.55264
  0
VERTEX
  5
e6
  8
Layer_0
  10
179.49377
  20
334.72461
  0
VERTEX
  5
e7
  8
Layer_0
  10
179.6015
  20
334.91418
  0
VERTEX
  5
e8
  8
Layer_0
  10
179.68091
  20
335.11829
  0
VERTEX
  5
e9
  8
Layer_0
  10
179.72998
  20
335.33398
  0
VERTEX
  5
ea
  8
Layer_0
  10
179.74683
  20
335.55829
  0
SEQEND
  0
POLYLINE
  5
ec
  8
Layer_0
  62
0
  70
1
  66
1
  10
0
  20
0
  30
0
  0
VERTEX
  5
ec
  8
Layer_0
  10
26.330811
  20
334.17203
  0
VERTEX
  5
ed
  8
Layer_0
  10
26.531738
  20
334.27338
  0
VERTEX
  5
ee
  8
Layer_0
  10
26.712402
  20
334.40125
  0
VERTEX
  5
ef
  8
Layer_0
  10
26.870728
  20
334.55267
  0
VERTEX
  5
f0
  8
Layer_0
  10
27.004761
  20
334.72464
  0
VERTEX
  5
f1
  8
Layer_0
  10
27.112488
  20
334.91418
  0
VERTEX
  5
f2
  8
Layer_0
  10
27.191895
  20
335.11829
  0
VERTEX
  5
f3
  8
Layer_0
  10
27.241028
  20
335.33398
  0
VERTEX
  5
f4
  8
Layer_0
  10
27.257813
  20
335.55829
  0
VERTEX
  5
f5
  8
Layer_0
  10
27.228699
  20
335.85239
  0
VERTEX
  5
f6
  8
Layer_0
  10
27.143494
  20
336.13251
  0
VERTEX
  5
f7
  8
Layer_0
  10
27.005554
  20
336.39078
  0
VERTEX
  5
f8
  8
Layer_0
  10
26.817993
  20
336.61929
  0
VERTEX
  5
f9
  8
Layer_0
  10
26.665283
  20
336.7525
  0
VERTEX
  5
fa
  8
Layer_0
  10
26.496826
  20
336.86353
  0
VERTEX
  5
fb
  8
Layer_0
  10
26.315002
  20
336.95099
  0
VERTEX
  5
fc
  8
Layer_0
  10
26.122192
  20
337.01352
  0
VERTEX
  5
fd
  8
Layer_0
  10
25.940552
  20
337.04742
  0
VERTEX
  5
fe
  8
Layer_0
  10
25.756165
  20
337.05878
  0
VERTEX
  5
ff
  8
Layer_0
  10
25.699402
  20
337.05771
  0
VERTEX
  5
100
  8
Layer_0
  10
25.483093
  20
337.03381
  0
VERTEX
  5
101
  8
Layer_0
  10
25.275757
  20
336.97998
  0
VERTEX
  5
102
  8
Layer_0
  10
25.079956
  20
336.89807
  0
VERTEX
  5
103
  8
Layer_0
  10
24.898438
  20
336.78995
  0
VERTEX
  5
104
  8
Layer_0
  10
24.733887
  20
336.65747
  0
VERTEX
  5
105
  8
Layer_0
  10
24.588989
  20
336.5025
  0
VERTEX
  5
106
  8
Layer_0
  10
24.466431
  20
336.3269
  0
VERTEX
  5
107
  8
Layer_0
  10
24.368835
  20
336.13251
  0
VERTEX
  5
108
  8
Layer_0
  10
24.348083
  20
336.07971
  0
VERTEX
  5
109
  8
Layer_0
  10
24.287415
  20
335.87085
  0
VERTEX
  5
10a
  8
Layer_0
  10
24.257813
  20
335.65881
  0
VERTEX
  5
10b
  8
Layer_0
  10
24.258606
  20
335.44672
  0
VERTEX
  5
10c
  8
Layer_0
  10
24.289124
  20
335.23779
  0
VERTEX
  5
10d
  8
Layer_0
  10
24.348633
  20
335.03519
  0
VERTEX
  5
10e
  8
Layer_0
  10
24.436523
  20
334.8421
  0
VERTEX
  5
10f
  8
Layer_0
  10
24.551941
  20
334.66177
  0
VERTEX
  5
110
  8
Layer_0
  10
24.694336
  20
334.49731
  0
VERTEX
  5
111
  8
Layer_0
  10
24.735229
  20
334.45795
  0
VERTEX
  5
112
  8
Layer_0
  10
24.90509
  20
334.32202
  0
VERTEX
  5
113
  8
Layer_0
  10
25.089844
  20
334.21356
  0
VERTEX
  5
114
  8
Layer_0
  10
25.286255
  20
334.13312
  0
VERTEX
  5
115
  8
Layer_0
  10
25.491089
  20
334.08136
  0
VERTEX
  5
116
  8
Layer_0
  10
25.701172
  20
334.05878
  0
VERTEX
  5
117
  8
Layer_0
  10
25.91333
  20
334.06598
  0
VERTEX
  5
118
  8
Layer_0
  10
26.124268
  20
334.10352
  0
VERTEX
  5
119
  8
Layer_0
  10
26.330811
  20
334.17203
  0
SEQEND
  0
POLYLINE
  5
11b
  8
Layer_0
  62
0
  70
1
  66
1
  10
0
  20
0
  30
0
  0
VERTEX
  5
11b
  8
Layer_0
  10
179.74634
  20
354.30774
  0
VERTEX
  5
11c
  8
Layer_0
  10
179.71722
  20
354.60184
  0
VERTEX
  5
11d
  8
Layer_0
  10
179.63202
  20
354.88196
  0
VERTEX
  5
11e
  8
Layer_0
  10
179.49402
  20
355.1402
  0
VERTEX
  5
11f
  8
Layer_0
  10
179.30652
  20
355.36871
  0
VERTEX
  5
120
  8
Layer_0
  10
179.09344
  20
355.54556
  0
VERTEX
  5
121
  8
Layer_0
  10
178.85358
  20
355.67932
  0
VERTEX
  5
122
  8
Layer_0
  10
178.59332
  20
355.76721
  0
VERTEX
  5
123
  8
Layer_0
  10
178.31915
  20
355.80637
  0
VERTEX
  5
124
  8
Layer_0
  10
178.24469
  20
355.80823
  0
VERTEX
  5
125
  8
Layer_0
  10
178.18793
  20
355.80713
  0
VERTEX
  5
126
  8
Layer_0
  10
177.97162
  20
355.78326
  0
VERTEX
  5
127
  8
Layer_0
  10
177.76422
  20
355.72943
  0
VERTEX
  5
128
  8
Layer_0
  10
177.56848
  20
355.64752
  0
VERTEX
  5
129
  8
Layer_0
  10
177.38696
  20
355.53937
  0
VERTEX
  5
12a
  8
Layer_0
  10
177.22241
  20
355.40686
  0
VERTEX
  5
12b
  8
Layer_0
  10
177.07751
  20
355.25189
  0
VERTEX
  5
12c
  8
Layer_0
  10
176.95496
  20
355.07629
  0
VERTEX
  5
12d
  8
Layer_0
  10
176.8573
  20
354.88196
  0
VERTEX
  5
12e
  8
Layer_0
  10
176.83661
  20
354.82916
  0
VERTEX
  5
12f
  8
Layer_0
  10
176.77588
  20
354.6203
  0
VERTEX
  5
130
  8
Layer_0
  10
176.74634
  20
354.40826
  0
VERTEX
  5
131
  8
Layer_0
  10
176.74713
  20
354.19617
  0
VERTEX
  5
132
  8
Layer_0
  10
176.77765
  20
353.98724
  0
VERTEX
  5
133
  8
Layer_0
  10
176.83716
  20
353.78464
  0
VERTEX
  5
134
  8
Layer_0
  10
176.92505
  20
353.59155
  0
VERTEX
  5
135
  8
Layer_0
  10
177.04047
  20
353.41119
  0
VERTEX
  5
136
  8
Layer_0
  10
177.18286
  20
353.24673
  0
VERTEX
  5
137
  8
Layer_0
  10
177.22375
  20
353.2074
  0
VERTEX
  5
138
  8
Layer_0
  10
177.39362
  20
353.07144
  0
VERTEX
  5
139
  8
Layer_0
  10
177.57831
  20
352.96298
  0
VERTEX
  5
13a
  8
Layer_0
  10
177.77472
  20
352.88257
  0
VERTEX
  5
13b
  8
Layer_0
  10
177.97961
  20
352.83078
  0
VERTEX
  5
13c
  8
Layer_0
  10
178.1897
  20
352.80823
  0
VERTEX
  5
13d
  8
Layer_0
  10
178.40186
  20
352.8154
  0
VERTEX
  5
13e
  8
Layer_0
  10
178.61279
  20
352.85297
  0
VERTEX
  5
13f
  8
Layer_0
  10
178.81934
  20
352.92148
  0
VERTEX
  5
140
  8
Layer_0
  10
179.02026
  20
353.02283
  0
VERTEX
  5
141
  8
Layer_0
  10
179.20093
  20
353.1507
  0
VERTEX
  5
142
  8
Layer_0
  10
179.35925
  20
353.30212
  0
VERTEX
  5
143
  8
Layer_0
  10
179.49329
  20
353.47412
  0
VERTEX
  5
144
  8
Layer_0
  10
179.60095
  20
353.66367
  0
VERTEX
  5
145
  8
Layer_0
  10
179.68042
  20
353.86777
  0
VERTEX
  5
146
  8
Layer_0
  10
179.72949
  20
354.08344
  0
VERTEX
  5
147
  8
Layer_0
  10
179.74634
  20
354.30774
  0
SEQEND
  0
POLYLINE
  5
149
  8
Layer_0
  62
0
  70
1
  66
1
  10
0
  20
0
  30
0
  0
VERTEX
  5
149
  8
Layer_0
  10
-66.329041
  20
354.30774
  0
VERTEX
  5
14a
  8
Layer_0
  10
-66.358154
  20
354.60184
  0
VERTEX
  5
14b
  8
Layer_0
  10
-66.443359
  20
354.88196
  0
VERTEX
  5
14c
  8
Layer_0
  10
-66.581299
  20
355.1402
  0
VERTEX
  5
14d
  8
Layer_0
  10
-66.76886
  20
355.36871
  0
VERTEX
  5
14e
  8
Layer_0
  10
-66.93634
  20
355.51306
  0
VERTEX
  5
14f
  8
Layer_0
  10
-67.122192
  20
355.63071
  0
VERTEX
  5
150
  8
Layer_0
  10
-67.323242
  20
355.71997
  0
VERTEX
  5
151
  8
Layer_0
  10
-67.536377
  20
355.77911
  0
VERTEX
  5
152
  8
Layer_0
  10
-67.6828
  20
355.80093
  0
VERTEX
  5
153
  8
Layer_0
  10
-67.830688
  20
355.80823
  0
VERTEX
  5
154
  8
Layer_0
  10
-67.887451
  20
355.80713
  0
VERTEX
  5
155
  8
Layer_0
  10
-68.10376
  20
355.78326
  0
VERTEX
  5
156
  8
Layer_0
  10
-68.311096
  20
355.72943
  0
VERTEX
  5
157
  8
Layer_0
  10
-68.506897
  20
355.64752
  0
VERTEX
  5
158
  8
Layer_0
  10
-68.688416
  20
355.5394
  0
VERTEX
  5
159
  8
Layer_0
  10
-68.852966
  20
355.40692
  0
VERTEX
  5
15a
  8
Layer_0
  10
-68.997864
  20
355.25192
  0
VERTEX
  5
15b
  8
Layer_0
  10
-69.120483
  20
355.07629
  0
VERTEX
  5
15c
  8
Layer_0
  10
-69.218018
  20
354.88196
  0
VERTEX
  5
15d
  8
Layer_0
  10
-69.23877
  20
354.82916
  0
VERTEX
  5
15e
  8
Layer_0
  10
-69.299438
  20
354.6203
  0
VERTEX
  5
15f
  8
Layer_0
  10
-69.329041
  20
354.40826
  0
VERTEX
  5
160
  8
Layer_0
  10
-69.328247
  20
354.19617
  0
VERTEX
  5
161
  8
Layer_0
  10
-69.297729
  20
353.98724
  0
VERTEX
  5
162
  8
Layer_0
  10
-69.238159
  20
353.78464
  0
VERTEX
  5
163
  8
Layer_0
  10
-69.15033
  20
353.59155
  0
VERTEX
  5
164
  8
Layer_0
  10
-69.034851
  20
353.41119
  0
VERTEX
  5
165
  8
Layer_0
  10
-68.892456
  20
353.24673
  0
VERTEX
  5
166
  8
Layer_0
  10
-68.851624
  20
353.2074
  0
VERTEX
  5
167
  8
Layer_0
  10
-68.681763
  20
353.07144
  0
VERTEX
  5
168
  8
Layer_0
  10
-68.497009
  20
352.96298
  0
VERTEX
  5
169
  8
Layer_0
  10
-68.300659
  20
352.88257
  0
VERTEX
  5
16a
  8
Layer_0
  10
-68.095703
  20
352.83078
  0
VERTEX
  5
16b
  8
Layer_0
  10
-67.88562
  20
352.80823
  0
VERTEX
  5
16c
  8
Layer_0
  10
-67.673462
  20
352.8154
  0
VERTEX
  5
16d
  8
Layer_0
  10
-67.462524
  20
352.85297
  0
VERTEX
  5
16e
  8
Layer_0
  10
-67.255981
  20
352.92148
  0
VERTEX
  5
16f
  8
Layer_0
  10
-67.055054
  20
353.02283
  0
VERTEX
  5
170
  8
Layer_0
  10
-66.87439
  20
353.1507
  0
VERTEX
  5
171
  8
Layer_0
  10
-66.716064
  20
353.30212
  0
VERTEX
  5
172
  8
Layer_0
  10
-66.582031
  20
353.47409
  0
VERTEX
  5
173
  8
Layer_0
  10
-66.474365
  20
353.66364
  0
VERTEX
  5
174
  8
Layer_0
  10
-66.394958
  20
353.86774
  0
VERTEX
  5
175
  8
Layer_0
  10
-66.345825
  20
354.08344
  0
VERTEX
  5
176
  8
Layer_0
  10
-66.329041
  20
354.30774
  0
SEQEND
  0
POLYLINE
  5
178
  8
Layer_0
  62
0
  70
1
  66
1
  10
0
  20
0
  30
0
  0
VERTEX
  5
178
  8
Layer_0
  10
-30.040833
  20
230.52295
  0
VERTEX
  5
179
  8
Layer_0
  10
-29.870239
  20
230.37616
  0
VERTEX
  5
17a
  8
Layer_0
  10
-29.682861
  20
230.2583
  0
VERTEX
  5
17b
  8
Layer_0
  10
-29.4823
  20
230.1701
  0
VERTEX
  5
17c
  8
Layer_0
  10
-29.271973
  20
230.11212
  0
VERTEX
  5
17d
  8
Layer_0
  10
-29.055542
  20
230.08524
  0
VERTEX
  5
17e
  8
Layer_0
  10
-28.836426
  20
230.09003
  0
VERTEX
  5
17f
  8
Layer_0
  10
-28.618164
  20
230.12723
  0
VERTEX
  5
180
  8
Layer_0
  10
-28.404358
  20
230.19757
  0
VERTEX
  5
181
  8
Layer_0
  10
-28.20343
  20
230.29895
  0
VERTEX
  5
182
  8
Layer_0
  10
-28.022766
  20
230.42688
  0
VERTEX
  5
183
  8
Layer_0
  10
-27.864441
  20
230.57831
  0
VERTEX
  5
184
  8
Layer_0
  10
-27.730408
  20
230.75037
  0
VERTEX
  5
185
  8
Layer_0
  10
-27.622681
  20
230.94
  0
VERTEX
  5
186
  8
Layer_0
  10
-27.543274
  20
231.14417
  0
VERTEX
  5
187
  8
Layer_0
  10
-27.494141
  20
231.35989
  0
VERTEX
  5
188
  8
Layer_0
  10
-27.477356
  20
231.58426
  0
VERTEX
  5
189
  8
Layer_0
  10
-27.499512
  20
231.84106
  0
VERTEX
  5
18a
  8
Layer_0
  10
-27.565308
  20
232.09033
  0
VERTEX
  5
18b
  8
Layer_0
  10
-27.710449
  20
232.38745
  0
VERTEX
  5
18c
  8
Layer_0
  10
-27.917175
  20
232.64557
  0
VERTEX
  5
18d
  8
Layer_0
  10
-27.97113
  20
232.6969
  0
VERTEX
  5
18e
  8
Layer_0
  10
-28.192688
  20
232.86298
  0
VERTEX
  5
18f
  8
Layer_0
  10
-28.438904
  20
232.98474
  0
VERTEX
  5
190
  8
Layer_0
  10
-28.703186
  20
233.05966
  0
VERTEX
  5
191
  8
Layer_0
  10
-28.979004
  20
233.08521
  0
VERTEX
  5
192
  8
Layer_0
  10
-29.035767
  20
233.08414
  0
VERTEX
  5
193
  8
Layer_0
  10
-29.252075
  20
233.06018
  0
VERTEX
  5
194
  8
Layer_0
  10
-29.459473
  20
233.00635
  0
VERTEX
  5
195
  8
Layer_0
  10
-29.655212
  20
232.92438
  0
VERTEX
  5
196
  8
Layer_0
  10
-29.836731
  20
232.81625
  0
VERTEX
  5
197
  8
Layer_0
  10
-30.001221
  20
232.68375
  0
VERTEX
  5
198
  8
Layer_0
  10
-30.146118
  20
232.52872
  0
VERTEX
  5
199
  8
Layer_0
  10
-30.268738
  20
232.35309
  0
VERTEX
  5
19a
  8
Layer_0
  10
-30.366333
  20
232.15863
  0
VERTEX
  5
19b
  8
Layer_0
  10
-30.387085
  20
232.10583
  0
VERTEX
  5
19c
  8
Layer_0
  10
-30.447754
  20
231.89694
  0
VERTEX
  5
19d
  8
Layer_0
  10
-30.477356
  20
231.68481
  0
VERTEX
  5
19e
  8
Layer_0
  10
-30.476563
  20
231.47266
  0
VERTEX
  5
19f
  8
Layer_0
  10
-30.446045
  20
231.26367
  0
VERTEX
  5
1a0
  8
Layer_0
  10
-30.386536
  20
231.061
  0
VERTEX
  5
1a1
  8
Layer_0
  10
-30.298706
  20
230.86786
  0
VERTEX
  5
1a2
  8
Layer_0
  10
-30.183228
  20
230.68744
  0
VERTEX
  5
1a3
  8
Layer_0
  10
-30.040833
  20
230.52295
  0
SEQEND
  0
POLYLINE
  5
1a5
  8
Layer_0
  62
0
  70
1
  66
1
  10
0
  20
0
  30
0
  0
VERTEX
  5
1a5
  8
Layer_0
  10
-23.679443
  20
308.40793
  0
VERTEX
  5
1a6
  8
Layer_0
  10
-23.50885
  20
308.26117
  0
VERTEX
  5
1a7
  8
Layer_0
  10
-23.321472
  20
308.14331
  0
VERTEX
  5
1a8
  8
Layer_0
  10
-23.12085
  20
308.05505
  0
VERTEX
  5
1a9
  8
Layer_0
  10
-22.910583
  20
307.99713
  0
VERTEX
  5
1aa
  8
Layer_0
  10
-22.694092
  20
307.97021
  0
VERTEX
  5
1ab
  8
Layer_0
  10
-22.475037
  20
307.97501
  0
VERTEX
  5
1ac
  8
Layer_0
  10
-22.256836
  20
308.01224
  0
VERTEX
  5
1ad
  8
Layer_0
  10
-22.042969
  20
308.08258
  0
VERTEX
  5
1ae
  8
Layer_0
  10
-21.842041
  20
308.18396
  0
VERTEX
  5
1af
  8
Layer_0
  10
-21.661438
  20
308.31189
  0
VERTEX
  5
1b0
  8
Layer_0
  10
-21.503113
  20
308.46335
  0
VERTEX
  5
1b1
  8
Layer_0
  10
-21.36908
  20
308.63538
  0
VERTEX
  5
1b2
  8
Layer_0
  10
-21.261353
  20
308.82498
  0
VERTEX
  5
1b3
  8
Layer_0
  10
-21.181946
  20
309.02914
  0
VERTEX
  5
1b4
  8
Layer_0
  10
-21.132813
  20
309.2449
  0
VERTEX
  5
1b5
  8
Layer_0
  10
-21.116028
  20
309.46927
  0
VERTEX
  5
1b6
  8
Layer_0
  10
-21.145142
  20
309.76346
  0
VERTEX
  5
1b7
  8
Layer_0
  10
-21.230347
  20
310.04364
  0
VERTEX
  5
1b8
  8
Layer_0
  10
-21.368286
  20
310.302
  0
VERTEX
  5
1b9
  8
Layer_0
  10
-21.555847
  20
310.53061
  0
VERTEX
  5
1ba
  8
Layer_0
  10
-21.60968
  20
310.58182
  0
VERTEX
  5
1bb
  8
Layer_0
  10
-21.666016
  20
310.63031
  0
VERTEX
  5
1bc
  8
Layer_0
  10
-21.87915
  20
310.77615
  0
VERTEX
  5
1bd
  8
Layer_0
  10
-22.112366
  20
310.88269
  0
VERTEX
  5
1be
  8
Layer_0
  10
-22.360352
  20
310.94803
  0
VERTEX
  5
1bf
  8
Layer_0
  10
-22.617676
  20
310.97021
  0
VERTEX
  5
1c0
  8
Layer_0
  10
-22.674438
  20
310.96918
  0
VERTEX
  5
1c1
  8
Layer_0
  10
-22.890747
  20
310.94525
  0
VERTEX
  5
1c2
  8
Layer_0
  10
-23.098083
  20
310.89142
  0
VERTEX
  5
1c3
  8
Layer_0
  10
-23.293884
  20
310.80945
  0
VERTEX
  5
1c4
  8
Layer_0
  10
-23.475342
  20
310.70129
  0
VERTEX
  5
1c5
  8
Layer_0
  10
-23.639893
  20
310.56879
  0
VERTEX
  5
1c6
  8
Layer_0
  10
-23.78479
  20
310.41376
  0
VERTEX
  5
1c7
  8
Layer_0
  10
-23.90741
  20
310.2381
  0
VERTEX
  5
1c8
  8
Layer_0
  10
-24.005005
  20
310.04364
  0
VERTEX
  5
1c9
  8
Layer_0
  10
-24.025696
  20
309.99084
  0
VERTEX
  5
1ca
  8
Layer_0
  10
-24.086426
  20
309.78192
  0
VERTEX
  5
1cb
  8
Layer_0
  10
-24.115967
  20
309.56979
  0
VERTEX
  5
1cc
  8
Layer_0
  10
-24.115173
  20
309.35764
  0
VERTEX
  5
1cd
  8
Layer_0
  10
-24.084656
  20
309.14865
  0
VERTEX
  5
1ce
  8
Layer_0
  10
-24.025146
  20
308.94598
  0
VERTEX
  5
1cf
  8
Layer_0
  10
-23.937256
  20
308.75287
  0
VERTEX
  5
1d0
  8
Layer_0
  10
-23.821838
  20
308.57245
  0
VERTEX
  5
1d1
  8
Layer_0
  10
-23.679443
  20
308.40793
  0
SEQEND
  0
POLYLINE
  5
1d3
  8
Layer_0
  62
0
  70
1
  66
1
  10
0
  20
0
  30
0
  0
VERTEX
  5
1d3
  8
Layer_0
  10
228.12054
  20
309.46893
  0
VERTEX
  5
1d4
  8
Layer_0
  10
228.09143
  20
309.76303
  0
VERTEX
  5
1d5
  8
Layer_0
  10
228.00629
  20
310.04315
  0
VERTEX
  5
1d6
  8
Layer_0
  10
227.86829
  20
310.30142
  0
VERTEX
  5
1d7
  8
Layer_0
  10
227.68073
  20
310.52994
  0
VERTEX
  5
1d8
  8
Layer_0
  10
227.51331
  20
310.67432
  0
VERTEX
  5
1d9
  8
Layer_0
  10
227.32745
  20
310.79199
  0
VERTEX
  5
1da
  8
Layer_0
  10
227.1264
  20
310.88123
  0
VERTEX
  5
1db
  8
Layer_0
  10
226.91327
  20
310.94034
  0
VERTEX
  5
1dc
  8
Layer_0
  10
226.76685
  20
310.9621
  0
VERTEX
  5
1dd
  8
Layer_0
  10
226.61896
  20
310.96942
  0
VERTEX
  5
1de
  8
Layer_0
  10
226.56219
  20
310.96838
  0
VERTEX
  5
1df
  8
Layer_0
  10
226.34589
  20
310.94446
  0
VERTEX
  5
1e0
  8
Layer_0
  10
226.13849
  20
310.89063
  0
VERTEX
  5
1e1
  8
Layer_0
  10
225.94269
  20
310.80875
  0
VERTEX
  5
1e2
  8
Layer_0
  10
225.76123
  20
310.70062
  0
VERTEX
  5
1e3
  8
Layer_0
  10
225.59668
  20
310.56812
  0
VERTEX
  5
1e4
  8
Layer_0
  10
225.45178
  20
310.41312
  0
VERTEX
  5
1e5
  8
Layer_0
  10
225.32922
  20
310.23749
  0
VERTEX
  5
1e6
  8
Layer_0
  10
225.23163
  20
310.04315
  0
VERTEX
  5
1e7
  8
Layer_0
  10
225.21094
  20
309.99033
  0
VERTEX
  5
1e8
  8
Layer_0
  10
225.15015
  20
309.78149
  0
VERTEX
  5
1e9
  8
Layer_0
  10
225.12054
  20
309.56943
  0
VERTEX
  5
1ea
  8
Layer_0
  10
225.12134
  20
309.35733
  0
VERTEX
  5
1eb
  8
Layer_0
  10
225.15186
  20
309.14838
  0
VERTEX
  5
1ec
  8
Layer_0
  10
225.21143
  20
308.9458
  0
VERTEX
  5
1ed
  8
Layer_0
  10
225.29926
  20
308.75272
  0
VERTEX
  5
1ee
  8
Layer_0
  10
225.41473
  20
308.57236
  0
VERTEX
  5
1ef
  8
Layer_0
  10
225.55713
  20
308.4079
  0
VERTEX
  5
1f0
  8
Layer_0
  10
225.59802
  20
308.36853
  0
VERTEX
  5
1f1
  8
Layer_0
  10
225.76788
  20
308.23264
  0
VERTEX
  5
1f2
  8
Layer_0
  10
225.95264
  20
308.12421
  0
VERTEX
  5
1f3
  8
Layer_0
  10
226.14905
  20
308.04379
  0
VERTEX
  5
1f4
  8
Layer_0
  10
226.35388
  20
307.992
  0
VERTEX
  5
1f5
  8
Layer_0
  10
226.56396
  20
307.96942
  0
VERTEX
  5
1f6
  8
Layer_0
  10
226.77612
  20
307.97662
  0
VERTEX
  5
1f7
  8
Layer_0
  10
226.98706
  20
308.01416
  0
VERTEX
  5
1f8
  8
Layer_0
  10
227.1936
  20
308.08264
  0
VERTEX
  5
1f9
  8
Layer_0
  10
227.39453
  20
308.18399
  0
VERTEX
  5
1fa
  8
Layer_0
  10
227.57513
  20
308.31186
  0
VERTEX
  5
1fb
  8
Layer_0
  10
227.73346
  20
308.46329
  0
VERTEX
  5
1fc
  8
Layer_0
  10
227.86749
  20
308.63525
  0
VERTEX
  5
1fd
  8
Layer_0
  10
227.97522
  20
308.82483
  0
VERTEX
  5
1fe
  8
Layer_0
  10
228.05463
  20
309.02893
  0
VERTEX
  5
1ff
  8
Layer_0
  10
228.10376
  20
309.24463
  0
VERTEX
  5
200
  8
Layer_0
  10
228.12054
  20
309.46893
  0
SEQEND
  0
POLYLINE
  5
202
  8
Layer_0
  62
0
  70
1
  66
1
  10
0
  20
0
  30
0
  0
VERTEX
  5
202
  8
Layer_0
  10
103.53979
  20
221.45789
  0
VERTEX
  5
203
  8
Layer_0
  10
103.51074
  20
221.75201
  0
VERTEX
  5
204
  8
Layer_0
  10
103.42554
  20
222.0321
  0
VERTEX
  5
205
  8
Layer_0
  10
103.28748
  20
222.29034
  0
VERTEX
  5
206
  8
Layer_0
  10
103.09998
  20
222.51892
  0
VERTEX
  5
207
  8
Layer_0
  10
103.01837
  20
222.59454
  0
VERTEX
  5
208
  8
Layer_0
  10
102.93152
  20
222.664
  0
VERTEX
  5
209
  8
Layer_0
  10
102.72803
  20
222.79059
  0
VERTEX
  5
20a
  8
Layer_0
  10
102.50842
  20
222.88284
  0
VERTEX
  5
20b
  8
Layer_0
  10
102.27698
  20
222.93927
  0
VERTEX
  5
20c
  8
Layer_0
  10
102.03809
  20
222.95844
  0
VERTEX
  5
20d
  8
Layer_0
  10
101.98132
  20
222.95737
  0
VERTEX
  5
20e
  8
Layer_0
  10
101.76501
  20
222.93347
  0
VERTEX
  5
20f
  8
Layer_0
  10
101.55762
  20
222.87964
  0
VERTEX
  5
210
  8
Layer_0
  10
101.36182
  20
222.7977
  0
VERTEX
  5
211
  8
Layer_0
  10
101.1803
  20
222.68958
  0
VERTEX
  5
212
  8
Layer_0
  10
101.01575
  20
222.5571
  0
VERTEX
  5
213
  8
Layer_0
  10
100.87085
  20
222.4021
  0
VERTEX
  5
214
  8
Layer_0
  10
100.74829
  20
222.2265
  0
VERTEX
  5
215
  8
Layer_0
  10
100.6507
  20
222.03214
  0
VERTEX
  5
216
  8
Layer_0
  10
100.62994
  20
221.97931
  0
VERTEX
  5
217
  8
Layer_0
  10
100.56934
  20
221.77045
  0
VERTEX
  5
218
  8
Layer_0
  10
100.53979
  20
221.55838
  0
VERTEX
  5
219
  8
Layer_0
  10
100.54059
  20
221.34628
  0
VERTEX
  5
21a
  8
Layer_0
  10
100.57111
  20
221.13733
  0
VERTEX
  5
21b
  8
Layer_0
  10
100.63062
  20
220.93475
  0
VERTEX
  5
21c
  8
Layer_0
  10
100.71838
  20
220.7417
  0
VERTEX
  5
21d
  8
Layer_0
  10
100.83386
  20
220.56131
  0
VERTEX
  5
21e
  8
Layer_0
  10
100.9762
  20
220.39685
  0
VERTEX
  5
21f
  8
Layer_0
  10
101.01709
  20
220.35751
  0
VERTEX
  5
220
  8
Layer_0
  10
101.18701
  20
220.22162
  0
VERTEX
  5
221
  8
Layer_0
  10
101.37183
  20
220.11319
  0
VERTEX
  5
222
  8
Layer_0
  10
101.56824
  20
220.03278
  0
VERTEX
  5
223
  8
Layer_0
  10
101.77307
  20
219.98102
  0
VERTEX
  5
224
  8
Layer_0
  10
101.98315
  20
219.9584
  0
VERTEX
  5
225
  8
Layer_0
  10
102.19525
  20
219.96558
  0
VERTEX
  5
226
  8
Layer_0
  10
102.40625
  20
220.00311
  0
VERTEX
  5
227
  8
Layer_0
  10
102.61279
  20
220.07159
  0
VERTEX
  5
228
  8
Layer_0
  10
102.81372
  20
220.17294
  0
VERTEX
  5
229
  8
Layer_0
  10
102.99438
  20
220.30084
  0
VERTEX
  5
22a
  8
Layer_0
  10
103.15271
  20
220.45227
  0
VERTEX
  5
22b
  8
Layer_0
  10
103.28674
  20
220.62424
  0
VERTEX
  5
22c
  8
Layer_0
  10
103.39447
  20
220.81378
  0
VERTEX
  5
22d
  8
Layer_0
  10
103.47388
  20
221.01788
  0
VERTEX
  5
22e
  8
Layer_0
  10
103.52295
  20
221.23358
  0
VERTEX
  5
22f
  8
Layer_0
  10
103.53979
  20
221.45789
  0
SEQEND
  0
POLYLINE
  5
231
  8
Layer_0
  62
0
  70
1
  66
1
  10
0
  20
0
  30
0
  0
VERTEX
  5
231
  8
Layer_0
  10
103.53992
  20
309.46857
  0
VERTEX
  5
232
  8
Layer_0
  10
103.51074
  20
309.76266
  0
VERTEX
  5
233
  8
Layer_0
  10
103.42554
  20
310.04279
  0
VERTEX
  5
234
  8
Layer_0
  10
103.2876
  20
310.30106
  0
VERTEX
  5
235
  8
Layer_0
  10
103.1001
  20
310.5296
  0
VERTEX
  5
236
  8
Layer_0
  10
102.9621
  20
310.65164
  0
VERTEX
  5
237
  8
Layer_0
  10
102.81067
  20
310.75549
  0
VERTEX
  5
238
  8
Layer_0
  10
102.64777
  20
310.84003
  0
VERTEX
  5
239
  8
Layer_0
  10
102.47504
  20
310.90424
  0
VERTEX
  5
23a
  8
Layer_0
  10
102.25903
  20
310.95279
  0
VERTEX
  5
23b
  8
Layer_0
  10
102.03833
  20
310.96912
  0
VERTEX
  5
23c
  8
Layer_0
  10
101.98157
  20
310.96802
  0
VERTEX
  5
23d
  8
Layer_0
  10
101.76526
  20
310.94415
  0
VERTEX
  5
23e
  8
Layer_0
  10
101.55786
  20
310.89032
  0
VERTEX
  5
23f
  8
Layer_0
  10
101.36212
  20
310.80841
  0
VERTEX
  5
240
  8
Layer_0
  10
101.1806
  20
310.70026
  0
VERTEX
  5
241
  8
Layer_0
  10
101.01611
  20
310.56775
  0
VERTEX
  5
242
  8
Layer_0
  10
100.87122
  20
310.41278
  0
VERTEX
  5
243
  8
Layer_0
  10
100.7486
  20
310.23718
  0
VERTEX
  5
244
  8
Layer_0
  10
100.651
  20
310.04279
  0
VERTEX
  5
245
  8
Layer_0
  10
100.63025
  20
309.98999
  0
VERTEX
  5
246
  8
Layer_0
  10
100.56958
  20
309.78116
  0
VERTEX
  5
247
  8
Layer_0
  10
100.53992
  20
309.56909
  0
VERTEX
  5
248
  8
Layer_0
  10
100.54071
  20
309.35699
  0
VERTEX
  5
249
  8
Layer_0
  10
100.57123
  20
309.14807
  0
VERTEX
  5
24a
  8
Layer_0
  10
100.6308
  20
308.94547
  0
VERTEX
  5
24b
  8
Layer_0
  10
100.71863
  20
308.75238
  0
VERTEX
  5
24c
  8
Layer_0
  10
100.83411
  20
308.57199
  0
VERTEX
  5
24d
  8
Layer_0
  10
100.9765
  20
308.40753
  0
VERTEX
  5
24e
  8
Layer_0
  10
101.0174
  20
308.36819
  0
VERTEX
  5
24f
  8
Layer_0
  10
101.18726
  20
308.2323
  0
VERTEX
  5
250
  8
Layer_0
  10
101.37201
  20
308.12384
  0
VERTEX
  5
251
  8
Layer_0
  10
101.56836
  20
308.04346
  0
VERTEX
  5
252
  8
Layer_0
  10
101.77325
  20
307.9917
  0
VERTEX
  5
253
  8
Layer_0
  10
101.98334
  20
307.96912
  0
VERTEX
  5
254
  8
Layer_0
  10
102.19543
  20
307.97632
  0
VERTEX
  5
255
  8
Layer_0
  10
102.40637
  20
308.01385
  0
VERTEX
  5
256
  8
Layer_0
  10
102.61292
  20
308.08228
  0
VERTEX
  5
257
  8
Layer_0
  10
102.8139
  20
308.18359
  0
VERTEX
  5
258
  8
Layer_0
  10
102.99457
  20
308.31146
  0
VERTEX
  5
259
  8
Layer_0
  10
103.15289
  20
308.46289
  0
VERTEX
  5
25a
  8
Layer_0
  10
103.28693
  20
308.63489
  0
VERTEX
  5
25b
  8
Layer_0
  10
103.39465
  20
308.82446
  0
VERTEX
  5
25c
  8
Layer_0
  10
103.47406
  20
309.02856
  0
VERTEX
  5
25d
  8
Layer_0
  10
103.52313
  20
309.24426
  0
VERTEX
  5
25e
  8
Layer_0
  10
103.53992
  20
309.46857
  0
SEQEND
  0
POLYLINE
  5
260
  8
Layer_0
  62
0
  70
1
  66
1
  10
0
  20
0
  30
0
  0
VERTEX
  5
260
  8
Layer_0
  10
27.257813
  20
354.30774
  0
VERTEX
  5
261
  8
Layer_0
  10
27.228699
  20
354.60184
  0
VERTEX
  5
262
  8
Layer_0
  10
27.143494
  20
354.88196
  0
VERTEX
  5
263
  8
Layer_0
  10
27.005554
  20
355.1402
  0
VERTEX
  5
264
  8
Layer_0
  10
26.817993
  20
355.36871
  0
VERTEX
  5
265
  8
Layer_0
  10
26.604919
  20
355.54556
  0
VERTEX
  5
266
  8
Layer_0
  10
26.365051
  20
355.67932
  0
VERTEX
  5
267
  8
Layer_0
  10
26.104858
  20
355.76721
  0
VERTEX
  5
268
  8
Layer_0
  10
25.830627
  20
355.80637
  0
VERTEX
  5
269
  8
Layer_0
  10
25.756165
  20
355.80823
  0
VERTEX
  5
26a
  8
Layer_0
  10
25.699402
  20
355.80713
  0
VERTEX
  5
26b
  8
Layer_0
  10
25.483093
  20
355.78326
  0
VERTEX
  5
26c
  8
Layer_0
  10
25.275757
  20
355.72943
  0
VERTEX
  5
26d
  8
Layer_0
  10
25.079956
  20
355.64752
  0
VERTEX
  5
26e
  8
Layer_0
  10
24.898438
  20
355.5394
  0
VERTEX
  5
26f
  8
Layer_0
  10
24.733887
  20
355.40692
  0
VERTEX
  5
270
  8
Layer_0
  10
24.588989
  20
355.25192
  0
VERTEX
  5
271
  8
Layer_0
  10
24.466431
  20
355.07629
  0
VERTEX
  5
272
  8
Layer_0
  10
24.368835
  20
354.88196
  0
VERTEX
  5
273
  8
Layer_0
  10
24.348083
  20
354.82916
  0
VERTEX
  5
274
  8
Layer_0
  10
24.287415
  20
354.6203
  0
VERTEX
  5
275
  8
Layer_0
  10
24.257813
  20
354.40826
  0
VERTEX
  5
276
  8
Layer_0
  10
24.258606
  20
354.19617
  0
VERTEX
  5
277
  8
Layer_0
  10
24.289124
  20
353.98724
  0
VERTEX
  5
278
  8
Layer_0
  10
24.348633
  20
353.78464
  0
VERTEX
  5
279
  8
Layer_0
  10
24.436523
  20
353.59155
  0
VERTEX
  5
27a
  8
Layer_0
  10
24.551941
  20
353.41119
  0
VERTEX
  5
27b
  8
Layer_0
  10
24.694336
  20
353.24673
  0
VERTEX
  5
27c
  8
Layer_0
  10
24.735229
  20
353.2074
  0
VERTEX
  5
27d
  8
Layer_0
  10
24.90509
  20
353.07144
  0
VERTEX
  5
27e
  8
Layer_0
  10
25.089844
  20
352.96298
  0
VERTEX
  5
27f
  8
Layer_0
  10
25.286255
  20
352.88257
  0
VERTEX
  5
280
  8
Layer_0
  10
25.491089
  20
352.83078
  0
VERTEX
  5
281
  8
Layer_0
  10
25.701172
  20
352.80823
  0
VERTEX
  5
282
  8
Layer_0
  10
25.91333
  20
352.8154
  0
VERTEX
  5
283
  8
Layer_0
  10
26.124268
  20
352.85297
  0
VERTEX
  5
284
  8
Layer_0
  10
26.330811
  20
352.92148
  0
VERTEX
  5
285
  8
Layer_0
  10
26.531738
  20
353.02283
  0
VERTEX
  5
286
  8
Layer_0
  10
26.712402
  20
353.1507
  0
VERTEX
  5
287
  8
Layer_0
  10
26.870728
  20
353.30212
  0
VERTEX
  5
288
  8
Layer_0
  10
27.004761
  20
353.47409
  0
VERTEX
  5
289
  8
Layer_0
  10
27.112488
  20
353.66364
  0
VERTEX
  5
28a
  8
Layer_0
  10
27.191895
  20
353.86774
  0
VERTEX
  5
28b
  8
Layer_0
  10
27.241028
  20
354.08344
  0
VERTEX
  5
28c
  8
Layer_0
  10
27.257813
  20
354.30774
  0
SEQEND
  0
POLYLINE
  5
28e
  8
Layer_0
  62
0
  70
1
  66
1
  10
0
  20
0
  30
0
  0
VERTEX
  5
28e
  8
Layer_0
  10
273.33386
  20
354.30774
  0
VERTEX
  5
28f
  8
Layer_0
  10
273.30475
  20
354.60184
  0
VERTEX
  5
290
  8
Layer_0
  10
273.21954
  20
354.88196
  0
VERTEX
  5
291
  8
Layer_0
  10
273.0816
  20
355.14023
  0
VERTEX
  5
292
  8
Layer_0
  10
272.89404
  20
355.36874
  0
VERTEX
  5
293
  8
Layer_0
  10
272.68097
  20
355.54556
  0
VERTEX
  5
294
  8
Layer_0
  10
272.4411
  20
355.67932
  0
VERTEX
  5
295
  8
Layer_0
  10
272.18085
  20
355.76721
  0
VERTEX
  5
296
  8
Layer_0
  10
271.90668
  20
355.8064
  0
VERTEX
  5
297
  8
Layer_0
  10
271.83221
  20
355.80823
  0
VERTEX
  5
298
  8
Layer_0
  10
271.77545
  20
355.80716
  0
VERTEX
  5
299
  8
Layer_0
  10
271.55914
  20
355.78326
  0
VERTEX
  5
29a
  8
Layer_0
  10
271.35175
  20
355.72943
  0
VERTEX
  5
29b
  8
Layer_0
  10
271.15601
  20
355.64752
  0
VERTEX
  5
29c
  8
Layer_0
  10
270.97449
  20
355.5394
  0
VERTEX
  5
29d
  8
Layer_0
  10
270.80994
  20
355.40692
  0
VERTEX
  5
29e
  8
Layer_0
  10
270.66504
  20
355.25195
  0
VERTEX
  5
29f
  8
Layer_0
  10
270.54248
  20
355.07635
  0
VERTEX
  5
2a0
  8
Layer_0
  10
270.44489
  20
354.88196
  0
VERTEX
  5
2a1
  8
Layer_0
  10
270.42413
  20
354.82916
  0
VERTEX
  5
2a2
  8
Layer_0
  10
270.36346
  20
354.6203
  0
VERTEX
  5
2a3
  8
Layer_0
  10
270.33386
  20
354.40826
  0
VERTEX
  5
2a4
  8
Layer_0
  10
270.33466
  20
354.19617
  0
VERTEX
  5
2a5
  8
Layer_0
  10
270.36517
  20
353.98724
  0
VERTEX
  5
2a6
  8
Layer_0
  10
270.42474
  20
353.78464
  0
VERTEX
  5
2a7
  8
Layer_0
  10
270.51257
  20
353.59155
  0
VERTEX
  5
2a8
  8
Layer_0
  10
270.62805
  20
353.41122
  0
VERTEX
  5
2a9
  8
Layer_0
  10
270.77039
  20
353.24677
  0
VERTEX
  5
2aa
  8
Layer_0
  10
270.81128
  20
353.2074
  0
VERTEX
  5
2ab
  8
Layer_0
  10
270.98114
  20
353.07147
  0
VERTEX
  5
2ac
  8
Layer_0
  10
271.16589
  20
352.96298
  0
VERTEX
  5
2ad
  8
Layer_0
  10
271.3623
  20
352.88257
  0
VERTEX
  5
2ae
  8
Layer_0
  10
271.56714
  20
352.83081
  0
VERTEX
  5
2af
  8
Layer_0
  10
271.77728
  20
352.80823
  0
VERTEX
  5
2b0
  8
Layer_0
  10
271.98938
  20
352.81543
  0
VERTEX
  5
2b1
  8
Layer_0
  10
272.20032
  20
352.85297
  0
VERTEX
  5
2b2
  8
Layer_0
  10
272.40686
  20
352.92148
  0
VERTEX
  5
2b3
  8
Layer_0
  10
272.60785
  20
353.02283
  0
VERTEX
  5
2b4
  8
Layer_0
  10
272.78845
  20
353.1507
  0
VERTEX
  5
2b5
  8
Layer_0
  10
272.94678
  20
353.30212
  0
VERTEX
  5
2b6
  8
Layer_0
  10
273.08081
  20
353.47412
  0
VERTEX
  5
2b7
  8
Layer_0
  10
273.18854
  20
353.66367
  0
VERTEX
  5
2b8
  8
Layer_0
  10
273.26794
  20
353.86777
  0
VERTEX
  5
2b9
  8
Layer_0
  10
273.31708
  20
354.08347
  0
VERTEX
  5
2ba
  8
Layer_0
  10
273.33386
  20
354.30774
  0
SEQEND
  0
POLYLINE
  5
2bc
  8
Layer_0
  62
0
  70
1
  66
1
  10
0
  20
0
  30
0
  0
VERTEX
  5
2bc
  8
Layer_0
  10
273.33362
  20
335.55832
  0
VERTEX
  5
2bd
  8
Layer_0
  10
273.3045
  20
335.85242
  0
VERTEX
  5
2be
  8
Layer_0
  10
273.2193
  20
336.13254
  0
VERTEX
  5
2bf
  8
Layer_0
  10
273.0813
  20
336.39081
  0
VERTEX
  5
2c0
  8
Layer_0
  10
272.8938
  20
336.61932
  0
VERTEX
  5
2c1
  8
Layer_0
  10
272.69611
  20
336.78546
  0
VERTEX
  5
2c2
  8
Layer_0
  10
272.47455
  20
336.91449
  0
VERTEX
  5
2c3
  8
Layer_0
  10
272.23425
  20
337.00397
  0
VERTEX
  5
2c4
  8
Layer_0
  10
271.98035
  20
337.05145
  0
VERTEX
  5
2c5
  8
Layer_0
  10
271.90625
  20
337.05695
  0
VERTEX
  5
2c6
  8
Layer_0
  10
271.83197
  20
337.05878
  0
VERTEX
  5
2c7
  8
Layer_0
  10
271.77521
  20
337.05774
  0
VERTEX
  5
2c8
  8
Layer_0
  10
271.5589
  20
337.03381
  0
VERTEX
  5
2c9
  8
Layer_0
  10
271.3515
  20
336.97998
  0
VERTEX
  5
2ca
  8
Layer_0
  10
271.1557
  20
336.89807
  0
VERTEX
  5
2cb
  8
Layer_0
  10
270.97418
  20
336.78998
  0
VERTEX
  5
2cc
  8
Layer_0
  10
270.80969
  20
336.65747
  0
VERTEX
  5
2cd
  8
Layer_0
  10
270.66479
  20
336.5025
  0
VERTEX
  5
2ce
  8
Layer_0
  10
270.54218
  20
336.3269
  0
VERTEX
  5
2cf
  8
Layer_0
  10
270.44458
  20
336.13251
  0
VERTEX
  5
2d0
  8
Layer_0
  10
270.42389
  20
336.07971
  0
VERTEX
  5
2d1
  8
Layer_0
  10
270.36322
  20
335.87091
  0
VERTEX
  5
2d2
  8
Layer_0
  10
270.33362
  20
335.65884
  0
VERTEX
  5
2d3
  8
Layer_0
  10
270.33441
  20
335.44675
  0
VERTEX
  5
2d4
  8
Layer_0
  10
270.36493
  20
335.23782
  0
VERTEX
  5
2d5
  8
Layer_0
  10
270.4245
  20
335.03522
  0
VERTEX
  5
2d6
  8
Layer_0
  10
270.51233
  20
334.84216
  0
VERTEX
  5
2d7
  8
Layer_0
  10
270.62775
  20
334.66177
  0
VERTEX
  5
2d8
  8
Layer_0
  10
270.77014
  20
334.49731
  0
VERTEX
  5
2d9
  8
Layer_0
  10
270.81104
  20
334.45798
  0
VERTEX
  5
2da
  8
Layer_0
  10
270.98083
  20
334.32202
  0
VERTEX
  5
2db
  8
Layer_0
  10
271.16559
  20
334.21356
  0
VERTEX
  5
2dc
  8
Layer_0
  10
271.362
  20
334.13312
  0
VERTEX
  5
2dd
  8
Layer_0
  10
271.56689
  20
334.08136
  0
VERTEX
  5
2de
  8
Layer_0
  10
271.77698
  20
334.05881
  0
VERTEX
  5
2df
  8
Layer_0
  10
271.98914
  20
334.06601
  0
VERTEX
  5
2e0
  8
Layer_0
  10
272.20007
  20
334.10358
  0
VERTEX
  5
2e1
  8
Layer_0
  10
272.40662
  20
334.17206
  0
VERTEX
  5
2e2
  8
Layer_0
  10
272.6076
  20
334.27338
  0
VERTEX
  5
2e3
  8
Layer_0
  10
272.78821
  20
334.40125
  0
VERTEX
  5
2e4
  8
Layer_0
  10
272.94653
  20
334.55267
  0
VERTEX
  5
2e5
  8
Layer_0
  10
273.08057
  20
334.72467
  0
VERTEX
  5
2e6
  8
Layer_0
  10
273.18829
  20
334.91422
  0
VERTEX
  5
2e7
  8
Layer_0
  10
273.2677
  20
335.11832
  0
VERTEX
  5
2e8
  8
Layer_0
  10
273.31683
  20
335.33401
  0
VERTEX
  5
2e9
  8
Layer_0
  10
273.33362
  20
335.55832
  0
SEQEND
  0
POLYLINE
  5
2eb
  8
Layer_0
  62
0
  70
1
  66
1
  10
0
  20
0
  30
0
  0
VERTEX
  5
2eb
  8
Layer_0
  10
-67.255981
  20
334.17188
  0
VERTEX
  5
2ec
  8
Layer_0
  10
-67.055054
  20
334.27322
  0
VERTEX
  5
2ed
  8
Layer_0
  10
-66.87439
  20
334.40112
  0
VERTEX
  5
2ee
  8
Layer_0
  10
-66.716064
  20
334.55261
  0
VERTEX
  5
2ef
  8
Layer_0
  10
-66.582031
  20
334.72464
  0
VERTEX
  5
2f0
  8
Layer_0
  10
-66.474365
  20
334.91425
  0
VERTEX
  5
2f1
  8
Layer_0
  10
-66.394958
  20
335.11841
  0
VERTEX
  5
2f2
  8
Layer_0
  10
-66.345825
  20
335.33417
  0
VERTEX
  5
2f3
  8
Layer_0
  10
-66.329041
  20
335.55853
  0
VERTEX
  5
2f4
  8
Layer_0
  10
-66.340332
  20
335.7424
  0
VERTEX
  5
2f5
  8
Layer_0
  10
-66.373901
  20
335.92282
  0
VERTEX
  5
2f6
  8
Layer_0
  10
-66.42926
  20
336.09781
  0
VERTEX
  5
2f7
  8
Layer_0
  10
-66.50592
  20
336.26532
  0
VERTEX
  5
2f8
  8
Layer_0
  10
-66.624268
  20
336.45233
  0
VERTEX
  5
2f9
  8
Layer_0
  10
-66.76886
  20
336.61987
  0
VERTEX
  5
2fa
  8
Layer_0
  10
-66.822815
  20
336.6712
  0
VERTEX
  5
2fb
  8
Layer_0
  10
-67.044373
  20
336.83731
  0
VERTEX
  5
2fc
  8
Layer_0
  10
-67.290588
  20
336.95905
  0
VERTEX
  5
2fd
  8
Layer_0
  10
-67.554871
  20
337.03397
  0
VERTEX
  5
2fe
  8
Layer_0
  10
-67.830688
  20
337.05951
  0
VERTEX
  5
2ff
  8
Layer_0
  10
-67.887451
  20
337.05841
  0
VERTEX
  5
300
  8
Layer_0
  10
-68.10376
  20
337.03455
  0
VERTEX
  5
301
  8
Layer_0
  10
-68.311096
  20
336.98068
  0
VERTEX
  5
302
  8
Layer_0
  10
-68.506897
  20
336.89874
  0
VERTEX
  5
303
  8
Layer_0
  10
-68.688416
  20
336.79059
  0
VERTEX
  5
304
  8
Layer_0
  10
-68.852966
  20
336.65805
  0
VERTEX
  5
305
  8
Layer_0
  10
-68.997864
  20
336.50302
  0
VERTEX
  5
306
  8
Layer_0
  10
-69.120483
  20
336.32739
  0
VERTEX
  5
307
  8
Layer_0
  10
-69.218018
  20
336.13293
  0
VERTEX
  5
308
  8
Layer_0
  10
-69.23877
  20
336.08011
  0
VERTEX
  5
309
  8
Layer_0
  10
-69.299438
  20
335.87122
  0
VERTEX
  5
30a
  8
Layer_0
  10
-69.329041
  20
335.65909
  0
VERTEX
  5
30b
  8
Layer_0
  10
-69.328247
  20
335.44693
  0
VERTEX
  5
30c
  8
Layer_0
  10
-69.297729
  20
335.23795
  0
VERTEX
  5
30d
  8
Layer_0
  10
-69.238159
  20
335.03528
  0
VERTEX
  5
30e
  8
Layer_0
  10
-69.15033
  20
334.84216
  0
VERTEX
  5
30f
  8
Layer_0
  10
-69.034851
  20
334.66174
  0
VERTEX
  5
310
  8
Layer_0
  10
-68.892456
  20
334.49722
  0
VERTEX
  5
311
  8
Layer_0
  10
-68.721924
  20
334.35046
  0
VERTEX
  5
312
  8
Layer_0
  10
-68.534546
  20
334.2326
  0
VERTEX
  5
313
  8
Layer_0
  10
-68.333923
  20
334.14435
  0
VERTEX
  5
314
  8
Layer_0
  10
-68.123657
  20
334.08643
  0
VERTEX
  5
315
  8
Layer_0
  10
-67.907166
  20
334.05951
  0
VERTEX
  5
316
  8
Layer_0
  10
-67.688049
  20
334.0643
  0
VERTEX
  5
317
  8
Layer_0
  10
-67.469849
  20
334.10153
  0
VERTEX
  5
318
  8
Layer_0
  10
-67.255981
  20
334.17188
  0
SEQEND
  0
POLYLINE
  5
31a
  8
Layer_0
  62
0
  70
1
  66
1
  10
0
  20
0
  30
0
  0
VERTEX
  5
31a
  8
Layer_0
  10
-70.864746
  20
357.33752
  0
VERTEX
  5
31b
  8
Layer_0
  10
-70.630554
  20
357.55072
  0
VERTEX
  5
31c
  8
Layer_0
  10
-70.378723
  20
357.73935
  0
VERTEX
  5
31d
  8
Layer_0
  10
-70.111328
  20
357.90253
  0
VERTEX
  5
31e
  8
Layer_0
  10
-69.830322
  20
358.03937
  0
VERTEX
  5
31f
  8
Layer_0
  10
-69.53772
  20
358.14911
  0
VERTEX
  5
320
  8
Layer_0
  10
-69.235352
  20
358.2309
  0
VERTEX
  5
321
  8
Layer_0
  10
-68.925232
  20
358.28387
  0
VERTEX
  5
322
  8
Layer_0
  10
-68.609375
  20
358.30716
  0
VERTEX
  5
323
  8
Layer_0
  10
-68.527222
  20
358.30826
  0
VERTEX
  5
324
  8
Layer_0
  10
272.60327
  20
358.30731
  0
VERTEX
  5
325
  8
Layer_0
  10
272.91919
  20
358.28461
  0
VERTEX
  5
326
  8
Layer_0
  10
273.22943
  20
358.23218
  0
VERTEX
  5
327
  8
Layer_0
  10
273.53192
  20
358.15097
  0
VERTEX
  5
328
  8
Layer_0
  10
273.82483
  20
358.04175
  0
VERTEX
  5
329
  8
Layer_0
  10
274.10602
  20
357.9054
  0
VERTEX
  5
32a
  8
Layer_0
  10
274.37372
  20
357.74271
  0
VERTEX
  5
32b
  8
Layer_0
  10
274.62585
  20
357.55457
  0
VERTEX
  5
32c
  8
Layer_0
  10
274.86047
  20
357.34174
  0
VERTEX
  5
32d
  8
Layer_0
  10
275.08038
  20
357.09937
  0
VERTEX
  5
32e
  8
Layer_0
  10
275.27393
  20
356.83844
  0
VERTEX
  5
32f
  8
Layer_0
  10
275.44019
  20
356.5611
  0
VERTEX
  5
330
  8
Layer_0
  10
275.57837
  20
356.26953
  0
VERTEX
  5
331
  8
Layer_0
  10
275.68738
  20
355.96588
  0
VERTEX
  5
332
  8
Layer_0
  10
275.76654
  20
355.65234
  0
VERTEX
  5
333
  8
Layer_0
  10
275.81476
  20
355.33105
  0
VERTEX
  5
334
  8
Layer_0
  10
275.83124
  20
355.00421
  0
VERTEX
  5
335
  8
Layer_0
  10
275.83124
  20
215.00183
  0
VERTEX
  5
336
  8
Layer_0
  10
275.81543
  20
214.67493
  0
VERTEX
  5
337
  8
Layer_0
  10
275.76782
  20
214.35358
  0
VERTEX
  5
338
  8
Layer_0
  10
275.68933
  20
214.03986
  0
VERTEX
  5
339
  8
Layer_0
  10
275.58081
  20
213.73599
  0
VERTEX
  5
33a
  8
Layer_0
  10
275.44318
  20
213.44415
  0
VERTEX
  5
33b
  8
Layer_0
  10
275.27734
  20
213.1665
  0
VERTEX
  5
33c
  8
Layer_0
  10
275.08423
  20
212.90521
  0
VERTEX
  5
33d
  8
Layer_0
  10
274.86475
  20
212.66248
  0
VERTEX
  5
33e
  8
Layer_0
  10
274.62238
  20
212.44257
  0
VERTEX
  5
33f
  8
Layer_0
  10
274.36145
  20
212.24902
  0
VERTEX
  5
340
  8
Layer_0
  10
274.08411
  20
212.08273
  0
VERTEX
  5
341
  8
Layer_0
  10
273.79254
  20
211.94464
  0
VERTEX
  5
342
  8
Layer_0
  10
273.48889
  20
211.8356
  0
VERTEX
  5
343
  8
Layer_0
  10
273.17529
  20
211.75653
  0
VERTEX
  5
344
  8
Layer_0
  10
272.854
  20
211.70828
  0
VERTEX
  5
345
  8
Layer_0
  10
272.52716
  20
211.69177
  0
VERTEX
  5
346
  8
Layer_0
  10
-68.52124
  20
211.69177
  0
VERTEX
  5
347
  8
Layer_0
  10
-68.848083
  20
211.70764
  0
VERTEX
  5
348
  8
Layer_0
  10
-69.169434
  20
211.75528
  0
VERTEX
  5
349
  8
Layer_0
  10
-69.483154
  20
211.8338
  0
VERTEX
  5
34a
  8
Layer_0
  10
-69.786987
  20
211.94232
  0
VERTEX
  5
34b
  8
Layer_0
  10
-70.078796
  20
212.07996
  0
VERTEX
  5
34c
  8
Layer_0
  10
-70.356445
  20
212.24573
  0
VERTEX
  5
34d
  8
Layer_0
  10
-70.617798
  20
212.43878
  0
VERTEX
  5
34e
  8
Layer_0
  10
-70.860535
  20
212.65826
  0
VERTEX
  5
34f
  8
Layer_0
  10
-71.07373
  20
212.89252
  0
VERTEX
  5
350
  8
Layer_0
  10
-71.26239
  20
213.14429
  0
VERTEX
  5
351
  8
Layer_0
  10
-71.425537
  20
213.41168
  0
VERTEX
  5
352
  8
Layer_0
  10
-71.562439
  20
213.69269
  0
VERTEX
  5
353
  8
Layer_0
  10
-71.672119
  20
213.98532
  0
VERTEX
  5
354
  8
Layer_0
  10
-71.753906
  20
214.28769
  0
VERTEX
  5
355
  8
Layer_0
  10
-71.806885
  20
214.59778
  0
VERTEX
  5
356
  8
Layer_0
  10
-71.8302
  20
214.9137
  0
VERTEX
  5
357
  8
Layer_0
  10
-71.831299
  20
214.99582
  0
VERTEX
  5
358
  8
Layer_0
  10
-71.831299
  20
354.9982
  0
VERTEX
  5
359
  8
Layer_0
  10
-71.816406
  20
355.31461
  0
VERTEX
  5
35a
  8
Layer_0
  10
-71.771729
  20
355.62601
  0
VERTEX
  5
35b
  8
Layer_0
  10
-71.698059
  20
355.93045
  0
VERTEX
  5
35c
  8
Layer_0
  10
-71.59613
  20
356.22592
  0
VERTEX
  5
35d
  8
Layer_0
  10
-71.466797
  20
356.51047
  0
VERTEX
  5
35e
  8
Layer_0
  10
-71.310791
  20
356.7821
  0
VERTEX
  5
35f
  8
Layer_0
  10
-71.128967
  20
357.03882
  0
VERTEX
  5
360
  8
Layer_0
  10
-70.922058
  20
357.27869
  0
VERTEX
  5
361
  8
Layer_0
  10
-70.864746
  20
357.33752
  0
SEQEND
  0
ENDSEC
  0
EOF
