  0
SECTION
  2
HEADER
  9
$ACADVER
  1
AC1009
  0
ENDSEC
  0
SECTION
  2
ENTITIES
  0
POLYLINE
  5
90
  8
Layer_0
  62
0
  70
1
  66
1
  10
0
  20
0
  30
0
  0
VERTEX
  5
90
  8
Layer_0
  10
680.82483
  20
476.22543
  0
VERTEX
  5
91
  8
Layer_0
  10
680.82483
  20
476.54929
  0
VERTEX
  5
92
  8
Layer_0
  10
680.56323
  20
477.51367
  0
VERTEX
  5
93
  8
Layer_0
  10
679.85461
  20
478.56546
  0
VERTEX
  5
94
  8
Layer_0
  10
678.8031
  20
479.27356
  0
VERTEX
  5
95
  8
Layer_0
  10
677.83533
  20
479.53113
  0
VERTEX
  5
96
  8
Layer_0
  10
336.15738
  20
479.53113
  0
VERTEX
  5
97
  8
Layer_0
  10
335.19281
  20
479.27078
  0
VERTEX
  5
98
  8
Layer_0
  10
334.14139
  20
478.56113
  0
VERTEX
  5
99
  8
Layer_0
  10
333.43311
  20
477.50986
  0
VERTEX
  5
9a
  8
Layer_0
  10
333.17542
  20
476.5437
  0
VERTEX
  5
9b
  8
Layer_0
  10
333.17542
  20
363.45081
  0
VERTEX
  5
9c
  8
Layer_0
  10
333.43585
  20
362.48621
  0
VERTEX
  5
9d
  8
Layer_0
  10
334.14554
  20
361.43481
  0
VERTEX
  5
9e
  8
Layer_0
  10
335.19693
  20
360.72791
  0
VERTEX
  5
9f
  8
Layer_0
  10
336.1629
  20
360.46884
  0
VERTEX
  5
a0
  8
Layer_0
  10
677.84302
  20
360.46884
  0
VERTEX
  5
a1
  8
Layer_0
  10
678.80817
  20
360.73065
  0
VERTEX
  5
a2
  8
Layer_0
  10
679.85968
  20
361.44031
  0
VERTEX
  5
a3
  8
Layer_0
  10
680.5658
  20
362.49173
  0
VERTEX
  5
a4
  8
Layer_0
  10
680.82483
  20
363.4577
  0
VERTEX
  5
a5
  8
Layer_0
  10
680.82483
  20
476.22543
  0
SEQEND
  0
POLYLINE
  5
a7
  8
Layer_0
  62
0
  70
1
  66
1
  10
0
  20
0
  30
0
  0
VERTEX
  5
a7
  8
Layer_0
  10
612.02881
  20
399.09119
  0
VERTEX
  5
a8
  8
Layer_0
  10
606.76868
  20
399.09119
  0
VERTEX
  5
a9
  8
Layer_0
  10
606.23785
  20
399.38477
  0
VERTEX
  5
aa
  8
Layer_0
  10
605.9458
  20
399.95374
  0
VERTEX
  5
ab
  8
Layer_0
  10
605.9458
  20
400.22931
  0
VERTEX
  5
ac
  8
Layer_0
  10
605.65369
  20
400.79849
  0
VERTEX
  5
ad
  8
Layer_0
  10
605.1228
  20
401.09058
  0
VERTEX
  5
ae
  8
Layer_0
  10
589.89355
  20
401.09058
  0
VERTEX
  5
af
  8
Layer_0
  10
589.36267
  20
400.79849
  0
VERTEX
  5
b0
  8
Layer_0
  10
589.07062
  20
400.26944
  0
VERTEX
  5
b1
  8
Layer_0
  10
589.07062
  20
399.91537
  0
VERTEX
  5
b2
  8
Layer_0
  10
588.776
  20
399.38477
  0
VERTEX
  5
b3
  8
Layer_0
  10
588.24768
  20
399.09119
  0
VERTEX
  5
b4
  8
Layer_0
  10
582.8877
  20
399.0899
  0
VERTEX
  5
b5
  8
Layer_0
  10
582.35864
  20
399.38324
  0
VERTEX
  5
b6
  8
Layer_0
  10
582.06653
  20
399.91385
  0
VERTEX
  5
b7
  8
Layer_0
  10
582.06653
  20
400.26816
  0
VERTEX
  5
b8
  8
Layer_0
  10
581.77295
  20
400.79724
  0
VERTEX
  5
b9
  8
Layer_0
  10
581.24231
  20
401.08929
  0
VERTEX
  5
ba
  8
Layer_0
  10
579.42072
  20
401.08929
  0
VERTEX
  5
bb
  8
Layer_0
  10
578.89014
  20
401.38269
  0
VERTEX
  5
bc
  8
Layer_0
  10
578.59802
  20
401.91327
  0
VERTEX
  5
bd
  8
Layer_0
  10
578.59802
  20
414.26688
  0
VERTEX
  5
be
  8
Layer_0
  10
578.89014
  20
414.79745
  0
VERTEX
  5
bf
  8
Layer_0
  10
579.42072
  20
415.08954
  0
VERTEX
  5
c0
  8
Layer_0
  10
599.20483
  20
415.08954
  0
VERTEX
  5
c1
  8
Layer_0
  10
599.73572
  20
415.3829
  0
VERTEX
  5
c2
  8
Layer_0
  10
600.02777
  20
415.91223
  0
VERTEX
  5
c3
  8
Layer_0
  10
600.02777
  20
419.3175
  0
VERTEX
  5
c4
  8
Layer_0
  10
599.73572
  20
419.84656
  0
VERTEX
  5
c5
  8
Layer_0
  10
599.20483
  20
420.13864
  0
VERTEX
  5
c6
  8
Layer_0
  10
598.47083
  20
420.13864
  0
VERTEX
  5
c7
  8
Layer_0
  10
597.93994
  20
420.43201
  0
VERTEX
  5
c8
  8
Layer_0
  10
597.64783
  20
420.96259
  0
VERTEX
  5
c9
  8
Layer_0
  10
597.64783
  20
433.31619
  0
VERTEX
  5
ca
  8
Layer_0
  10
597.93994
  20
433.8468
  0
VERTEX
  5
cb
  8
Layer_0
  10
598.47083
  20
434.13889
  0
VERTEX
  5
cc
  8
Layer_0
  10
610.77917
  20
434.13889
  0
VERTEX
  5
cd
  8
Layer_0
  10
611.17798
  20
433.98596
  0
VERTEX
  5
ce
  8
Layer_0
  10
611.50562
  20
433.65933
  0
VERTEX
  5
cf
  8
Layer_0
  10
611.57928
  20
433.50391
  0
VERTEX
  5
d0
  8
Layer_0
  10
611.83069
  20
433.22119
  0
VERTEX
  5
d1
  8
Layer_0
  10
612.16345
  20
433.0462
  0
VERTEX
  5
d2
  8
Layer_0
  10
612.354
  20
433.00455
  0
VERTEX
  5
d3
  8
Layer_0
  10
612.80603
  20
432.68073
  0
VERTEX
  5
d4
  8
Layer_0
  10
613.02954
  20
432.20981
  0
VERTEX
  5
d5
  8
Layer_0
  10
613.02954
  20
425.22202
  0
VERTEX
  5
d6
  8
Layer_0
  10
613.16162
  20
424.84686
  0
VERTEX
  5
d7
  8
Layer_0
  10
613.45117
  20
424.52457
  0
VERTEX
  5
d8
  8
Layer_0
  10
613.5274
  20
424.4791
  0
VERTEX
  5
d9
  8
Layer_0
  10
613.60608
  20
424.43491
  0
VERTEX
  5
da
  8
Layer_0
  10
613.89313
  20
424.11386
  0
VERTEX
  5
db
  8
Layer_0
  10
614.02771
  20
423.7392
  0
VERTEX
  5
dc
  8
Layer_0
  10
614.02771
  20
411.49023
  0
VERTEX
  5
dd
  8
Layer_0
  10
613.89313
  20
411.1156
  0
VERTEX
  5
de
  8
Layer_0
  10
613.60608
  20
410.79456
  0
VERTEX
  5
df
  8
Layer_0
  10
613.45117
  20
410.7049
  0
VERTEX
  5
e0
  8
Layer_0
  10
613.16162
  20
410.3826
  0
VERTEX
  5
e1
  8
Layer_0
  10
613.02954
  20
410.00745
  0
VERTEX
  5
e2
  8
Layer_0
  10
613.02954
  20
399.91385
  0
VERTEX
  5
e3
  8
Layer_0
  10
612.73492
  20
399.38324
  0
VERTEX
  5
e4
  8
Layer_0
  10
612.2041
  20
399.0899
  0
VERTEX
  5
e5
  8
Layer_0
  10
612.02881
  20
399.09119
  0
SEQEND
  0
POLYLINE
  5
e7
  8
Layer_0
  62
0
  70
1
  66
1
  10
0
  20
0
  30
0
  0
VERTEX
  5
e7
  8
Layer_0
  10
582.16559
  20
400.09036
  0
VERTEX
  5
e8
  8
Layer_0
  10
582.16559
  20
400.06522
  0
VERTEX
  5
e9
  8
Layer_0
  10
582.09119
  20
399.98981
  0
VERTEX
  5
ea
  8
Layer_0
  10
582.04041
  20
399.98981
  0
VERTEX
  5
eb
  8
Layer_0
  10
581.96594
  20
400.06522
  0
VERTEX
  5
ec
  8
Layer_0
  10
581.96594
  20
400.11499
  0
VERTEX
  5
ed
  8
Layer_0
  10
582.04041
  20
400.18942
  0
VERTEX
  5
ee
  8
Layer_0
  10
582.09119
  20
400.18942
  0
VERTEX
  5
ef
  8
Layer_0
  10
582.16559
  20
400.11499
  0
VERTEX
  5
f0
  8
Layer_0
  10
582.16559
  20
400.09036
  0
SEQEND
  0
POLYLINE
  5
f2
  8
Layer_0
  62
0
  70
1
  66
1
  10
0
  20
0
  30
0
  0
VERTEX
  5
f2
  8
Layer_0
  10
582.16559
  20
400.09036
  0
VERTEX
  5
f3
  8
Layer_0
  10
582.16559
  20
400.06522
  0
VERTEX
  5
f4
  8
Layer_0
  10
582.09119
  20
399.98981
  0
VERTEX
  5
f5
  8
Layer_0
  10
582.04041
  20
399.98981
  0
VERTEX
  5
f6
  8
Layer_0
  10
581.96594
  20
400.06522
  0
VERTEX
  5
f7
  8
Layer_0
  10
581.96594
  20
400.11499
  0
VERTEX
  5
f8
  8
Layer_0
  10
582.04041
  20
400.18942
  0
VERTEX
  5
f9
  8
Layer_0
  10
582.09119
  20
400.18942
  0
VERTEX
  5
fa
  8
Layer_0
  10
582.16559
  20
400.11499
  0
VERTEX
  5
fb
  8
Layer_0
  10
582.16559
  20
400.09036
  0
SEQEND
  0
POLYLINE
  5
fd
  8
Layer_0
  62
0
  70
1
  66
1
  10
0
  20
0
  30
0
  0
VERTEX
  5
fd
  8
Layer_0
  10
338.65707
  20
382.1763
  0
VERTEX
  5
fe
  8
Layer_0
  10
338.73978
  20
382.13358
  0
VERTEX
  5
ff
  8
Layer_0
  10
339.05255
  20
381.80838
  0
VERTEX
  5
100
  8
Layer_0
  10
339.20001
  20
381.41705
  0
VERTEX
  5
101
  8
Layer_0
  10
339.20001
  20
380.88928
  0
VERTEX
  5
102
  8
Layer_0
  10
339.49213
  20
380.35876
  0
VERTEX
  5
103
  8
Layer_0
  10
340.02264
  20
380.06522
  0
VERTEX
  5
104
  8
Layer_0
  10
345.37613
  20
380.06522
  0
VERTEX
  5
105
  8
Layer_0
  10
345.90668
  20
380.35876
  0
VERTEX
  5
106
  8
Layer_0
  10
346.20016
  20
380.88928
  0
VERTEX
  5
107
  8
Layer_0
  10
346.20016
  20
381.24341
  0
VERTEX
  5
108
  8
Layer_0
  10
346.49231
  20
381.77393
  0
VERTEX
  5
109
  8
Layer_0
  10
347.02145
  20
382.06607
  0
VERTEX
  5
10a
  8
Layer_0
  10
362.25104
  20
382.06607
  0
VERTEX
  5
10b
  8
Layer_0
  10
362.78165
  20
381.77393
  0
VERTEX
  5
10c
  8
Layer_0
  10
363.07501
  20
381.24341
  0
VERTEX
  5
10d
  8
Layer_0
  10
363.07501
  20
380.88928
  0
VERTEX
  5
10e
  8
Layer_0
  10
363.3671
  20
380.35876
  0
VERTEX
  5
10f
  8
Layer_0
  10
363.89767
  20
380.06522
  0
VERTEX
  5
110
  8
Layer_0
  10
369.25128
  20
380.06522
  0
VERTEX
  5
111
  8
Layer_0
  10
369.78162
  20
380.35876
  0
VERTEX
  5
112
  8
Layer_0
  10
370.0755
  20
380.88928
  0
VERTEX
  5
113
  8
Layer_0
  10
370.0755
  20
381.24341
  0
VERTEX
  5
114
  8
Layer_0
  10
370.36758
  20
381.77393
  0
VERTEX
  5
115
  8
Layer_0
  10
370.89667
  20
382.06607
  0
VERTEX
  5
116
  8
Layer_0
  10
372.71979
  20
382.06607
  0
VERTEX
  5
117
  8
Layer_0
  10
373.2504
  20
382.35956
  0
VERTEX
  5
118
  8
Layer_0
  10
373.54376
  20
382.88873
  0
VERTEX
  5
119
  8
Layer_0
  10
373.54376
  20
395.24243
  0
VERTEX
  5
11a
  8
Layer_0
  10
373.2504
  20
395.77277
  0
VERTEX
  5
11b
  8
Layer_0
  10
372.71979
  20
396.06512
  0
VERTEX
  5
11c
  8
Layer_0
  10
338.93542
  20
396.06512
  0
VERTEX
  5
11d
  8
Layer_0
  10
338.40491
  20
395.77277
  0
VERTEX
  5
11e
  8
Layer_0
  10
338.11273
  20
395.24243
  0
VERTEX
  5
11f
  8
Layer_0
  10
338.11273
  20
382.93555
  0
VERTEX
  5
120
  8
Layer_0
  10
338.25882
  20
382.54425
  0
VERTEX
  5
121
  8
Layer_0
  10
338.573
  20
382.21902
  0
VERTEX
  5
122
  8
Layer_0
  10
338.65707
  20
382.1763
  0
SEQEND
  0
POLYLINE
  5
124
  8
Layer_0
  62
0
  70
1
  66
1
  10
0
  20
0
  30
0
  0
VERTEX
  5
124
  8
Layer_0
  10
346.29941
  20
381.06567
  0
VERTEX
  5
125
  8
Layer_0
  10
346.29941
  20
381.04086
  0
VERTEX
  5
126
  8
Layer_0
  10
346.22498
  20
380.96643
  0
VERTEX
  5
127
  8
Layer_0
  10
346.17401
  20
380.96643
  0
VERTEX
  5
128
  8
Layer_0
  10
346.09961
  20
381.04086
  0
VERTEX
  5
129
  8
Layer_0
  10
346.09961
  20
381.09186
  0
VERTEX
  5
12a
  8
Layer_0
  10
346.17401
  20
381.16623
  0
VERTEX
  5
12b
  8
Layer_0
  10
346.22498
  20
381.16623
  0
VERTEX
  5
12c
  8
Layer_0
  10
346.29941
  20
381.09186
  0
VERTEX
  5
12d
  8
Layer_0
  10
346.29941
  20
381.06567
  0
SEQEND
  0
POLYLINE
  5
12f
  8
Layer_0
  62
0
  70
1
  66
1
  10
0
  20
0
  30
0
  0
VERTEX
  5
12f
  8
Layer_0
  10
346.29941
  20
381.06567
  0
VERTEX
  5
130
  8
Layer_0
  10
346.29941
  20
381.04086
  0
VERTEX
  5
131
  8
Layer_0
  10
346.22498
  20
380.96643
  0
VERTEX
  5
132
  8
Layer_0
  10
346.17401
  20
380.96643
  0
VERTEX
  5
133
  8
Layer_0
  10
346.09961
  20
381.04086
  0
VERTEX
  5
134
  8
Layer_0
  10
346.09961
  20
381.09186
  0
VERTEX
  5
135
  8
Layer_0
  10
346.17401
  20
381.16623
  0
VERTEX
  5
136
  8
Layer_0
  10
346.22498
  20
381.16623
  0
VERTEX
  5
137
  8
Layer_0
  10
346.29941
  20
381.09186
  0
VERTEX
  5
138
  8
Layer_0
  10
346.29941
  20
381.06567
  0
SEQEND
  0
POLYLINE
  5
13a
  8
Layer_0
  62
0
  70
1
  66
1
  10
0
  20
0
  30
0
  0
VERTEX
  5
13a
  8
Layer_0
  10
363.17557
  20
381.06567
  0
VERTEX
  5
13b
  8
Layer_0
  10
363.17557
  20
381.04086
  0
VERTEX
  5
13c
  8
Layer_0
  10
363.09988
  20
380.96643
  0
VERTEX
  5
13d
  8
Layer_0
  10
363.05011
  20
380.96643
  0
VERTEX
  5
13e
  8
Layer_0
  10
362.97595
  20
381.04086
  0
VERTEX
  5
13f
  8
Layer_0
  10
362.97595
  20
381.09186
  0
VERTEX
  5
140
  8
Layer_0
  10
363.05011
  20
381.16623
  0
VERTEX
  5
141
  8
Layer_0
  10
363.09988
  20
381.16623
  0
VERTEX
  5
142
  8
Layer_0
  10
363.17557
  20
381.09186
  0
VERTEX
  5
143
  8
Layer_0
  10
363.17557
  20
381.06567
  0
SEQEND
  0
POLYLINE
  5
145
  8
Layer_0
  62
0
  70
1
  66
1
  10
0
  20
0
  30
0
  0
VERTEX
  5
145
  8
Layer_0
  10
363.17557
  20
381.06567
  0
VERTEX
  5
146
  8
Layer_0
  10
363.17557
  20
381.04086
  0
VERTEX
  5
147
  8
Layer_0
  10
363.09988
  20
380.96643
  0
VERTEX
  5
148
  8
Layer_0
  10
363.05011
  20
380.96643
  0
VERTEX
  5
149
  8
Layer_0
  10
362.97595
  20
381.04086
  0
VERTEX
  5
14a
  8
Layer_0
  10
362.97595
  20
381.09186
  0
VERTEX
  5
14b
  8
Layer_0
  10
363.05011
  20
381.16623
  0
VERTEX
  5
14c
  8
Layer_0
  10
363.09988
  20
381.16623
  0
VERTEX
  5
14d
  8
Layer_0
  10
363.17557
  20
381.09186
  0
VERTEX
  5
14e
  8
Layer_0
  10
363.17557
  20
381.06567
  0
SEQEND
  0
POLYLINE
  5
150
  8
Layer_0
  62
0
  70
1
  66
1
  10
0
  20
0
  30
0
  0
VERTEX
  5
150
  8
Layer_0
  10
370.17456
  20
381.06567
  0
VERTEX
  5
151
  8
Layer_0
  10
370.17456
  20
381.04086
  0
VERTEX
  5
152
  8
Layer_0
  10
370.10013
  20
380.96643
  0
VERTEX
  5
153
  8
Layer_0
  10
370.04883
  20
380.96643
  0
VERTEX
  5
154
  8
Layer_0
  10
369.97443
  20
381.04086
  0
VERTEX
  5
155
  8
Layer_0
  10
369.97443
  20
381.09186
  0
VERTEX
  5
156
  8
Layer_0
  10
370.04883
  20
381.16623
  0
VERTEX
  5
157
  8
Layer_0
  10
370.10013
  20
381.16623
  0
VERTEX
  5
158
  8
Layer_0
  10
370.17456
  20
381.09186
  0
VERTEX
  5
159
  8
Layer_0
  10
370.17456
  20
381.06567
  0
SEQEND
  0
POLYLINE
  5
15b
  8
Layer_0
  62
0
  70
1
  66
1
  10
0
  20
0
  30
0
  0
VERTEX
  5
15b
  8
Layer_0
  10
370.17456
  20
381.06567
  0
VERTEX
  5
15c
  8
Layer_0
  10
370.17456
  20
381.04086
  0
VERTEX
  5
15d
  8
Layer_0
  10
370.10013
  20
380.96643
  0
VERTEX
  5
15e
  8
Layer_0
  10
370.04883
  20
380.96643
  0
VERTEX
  5
15f
  8
Layer_0
  10
369.97443
  20
381.04086
  0
VERTEX
  5
160
  8
Layer_0
  10
369.97443
  20
381.09186
  0
VERTEX
  5
161
  8
Layer_0
  10
370.04883
  20
381.16623
  0
VERTEX
  5
162
  8
Layer_0
  10
370.10013
  20
381.16623
  0
VERTEX
  5
163
  8
Layer_0
  10
370.17456
  20
381.09186
  0
VERTEX
  5
164
  8
Layer_0
  10
370.17456
  20
381.06567
  0
SEQEND
  0
POLYLINE
  5
166
  8
Layer_0
  62
0
  70
1
  66
1
  10
0
  20
0
  30
0
  0
VERTEX
  5
166
  8
Layer_0
  10
615.40942
  20
453.18948
  0
VERTEX
  5
167
  8
Layer_0
  10
615.58978
  20
453.18948
  0
VERTEX
  5
168
  8
Layer_0
  10
616.12061
  20
452.8974
  0
VERTEX
  5
169
  8
Layer_0
  10
616.41528
  20
452.36679
  0
VERTEX
  5
16a
  8
Layer_0
  10
616.41528
  20
440.05991
  0
VERTEX
  5
16b
  8
Layer_0
  10
616.26794
  20
439.66876
  0
VERTEX
  5
16c
  8
Layer_0
  10
615.953
  20
439.34341
  0
VERTEX
  5
16d
  8
Layer_0
  10
615.8717
  20
439.29947
  0
VERTEX
  5
16e
  8
Layer_0
  10
615.7879
  20
439.25681
  0
VERTEX
  5
16f
  8
Layer_0
  10
615.47296
  20
438.93143
  0
VERTEX
  5
170
  8
Layer_0
  10
615.32819
  20
438.54156
  0
VERTEX
  5
171
  8
Layer_0
  10
615.32819
  20
438.01401
  0
VERTEX
  5
172
  8
Layer_0
  10
615.03357
  20
437.48343
  0
VERTEX
  5
173
  8
Layer_0
  10
614.50525
  20
437.18982
  0
VERTEX
  5
174
  8
Layer_0
  10
609.14856
  20
437.18982
  0
VERTEX
  5
175
  8
Layer_0
  10
608.62024
  20
437.48343
  0
VERTEX
  5
176
  8
Layer_0
  10
608.32819
  20
438.01401
  0
VERTEX
  5
177
  8
Layer_0
  10
608.32819
  20
438.36807
  0
VERTEX
  5
178
  8
Layer_0
  10
608.03357
  20
438.89716
  0
VERTEX
  5
179
  8
Layer_0
  10
607.50525
  20
439.18924
  0
VERTEX
  5
17a
  8
Layer_0
  10
592.27344
  20
439.18924
  0
VERTEX
  5
17b
  8
Layer_0
  10
591.74512
  20
438.89716
  0
VERTEX
  5
17c
  8
Layer_0
  10
591.453
  20
438.36807
  0
VERTEX
  5
17d
  8
Layer_0
  10
591.453
  20
438.01401
  0
VERTEX
  5
17e
  8
Layer_0
  10
591.15845
  20
437.48343
  0
VERTEX
  5
17f
  8
Layer_0
  10
590.62756
  20
437.18982
  0
VERTEX
  5
180
  8
Layer_0
  10
585.27441
  20
437.18982
  0
VERTEX
  5
181
  8
Layer_0
  10
584.74414
  20
437.48343
  0
VERTEX
  5
182
  8
Layer_0
  10
584.45203
  20
438.01401
  0
VERTEX
  5
183
  8
Layer_0
  10
584.45203
  20
438.54156
  0
VERTEX
  5
184
  8
Layer_0
  10
584.30444
  20
438.93143
  0
VERTEX
  5
185
  8
Layer_0
  10
583.99152
  20
439.25681
  0
VERTEX
  5
186
  8
Layer_0
  10
583.82465
  20
439.34341
  0
VERTEX
  5
187
  8
Layer_0
  10
583.51227
  20
439.66876
  0
VERTEX
  5
188
  8
Layer_0
  10
583.36621
  20
440.05991
  0
VERTEX
  5
189
  8
Layer_0
  10
583.36621
  20
452.36679
  0
VERTEX
  5
18a
  8
Layer_0
  10
583.65833
  20
452.8974
  0
VERTEX
  5
18b
  8
Layer_0
  10
584.18738
  20
453.18948
  0
VERTEX
  5
18c
  8
Layer_0
  10
615.40942
  20
453.18948
  0
SEQEND
  0
POLYLINE
  5
18e
  8
Layer_0
  62
0
  70
1
  66
1
  10
0
  20
0
  30
0
  0
VERTEX
  5
18e
  8
Layer_0
  10
576.76648
  20
382.03851
  0
VERTEX
  5
18f
  8
Layer_0
  10
576.67993
  20
382.0936
  0
VERTEX
  5
190
  8
Layer_0
  10
576.36292
  20
382.46982
  0
VERTEX
  5
191
  8
Layer_0
  10
576.21686
  20
382.89975
  0
VERTEX
  5
192
  8
Layer_0
  10
576.21686
  20
395.21906
  0
VERTEX
  5
193
  8
Layer_0
  10
576.50897
  20
395.74939
  0
VERTEX
  5
194
  8
Layer_0
  10
577.03955
  20
396.0415
  0
VERTEX
  5
195
  8
Layer_0
  10
598.86957
  20
396.0415
  0
VERTEX
  5
196
  8
Layer_0
  10
599.24548
  20
395.9079
  0
VERTEX
  5
197
  8
Layer_0
  10
599.56805
  20
395.61859
  0
VERTEX
  5
198
  8
Layer_0
  10
599.61121
  20
395.54138
  0
VERTEX
  5
199
  8
Layer_0
  10
599.65698
  20
395.46417
  0
VERTEX
  5
19a
  8
Layer_0
  10
599.97699
  20
395.17615
  0
VERTEX
  5
19b
  8
Layer_0
  10
600.35291
  20
395.04129
  0
VERTEX
  5
19c
  8
Layer_0
  10
601.80823
  20
395.04129
  0
VERTEX
  5
19d
  8
Layer_0
  10
602.18414
  20
395.17615
  0
VERTEX
  5
19e
  8
Layer_0
  10
602.50415
  20
395.46417
  0
VERTEX
  5
19f
  8
Layer_0
  10
602.54993
  20
395.54138
  0
VERTEX
  5
1a0
  8
Layer_0
  10
602.59308
  20
395.61859
  0
VERTEX
  5
1a1
  8
Layer_0
  10
602.91565
  20
395.9079
  0
VERTEX
  5
1a2
  8
Layer_0
  10
603.29156
  20
396.0415
  0
VERTEX
  5
1a3
  8
Layer_0
  10
615.59235
  20
396.0415
  0
VERTEX
  5
1a4
  8
Layer_0
  10
616.12317
  20
395.74939
  0
VERTEX
  5
1a5
  8
Layer_0
  10
616.41528
  20
395.21906
  0
VERTEX
  5
1a6
  8
Layer_0
  10
616.41528
  20
382.8653
  0
VERTEX
  5
1a7
  8
Layer_0
  10
616.12317
  20
382.33478
  0
VERTEX
  5
1a8
  8
Layer_0
  10
615.59235
  20
382.04126
  0
VERTEX
  5
1a9
  8
Layer_0
  10
609.00635
  20
382.04126
  0
VERTEX
  5
1aa
  8
Layer_0
  10
608.47546
  20
381.74915
  0
VERTEX
  5
1ab
  8
Layer_0
  10
608.18347
  20
381.22
  0
VERTEX
  5
1ac
  8
Layer_0
  10
608.18347
  20
380.86584
  0
VERTEX
  5
1ad
  8
Layer_0
  10
607.88879
  20
380.33533
  0
VERTEX
  5
1ae
  8
Layer_0
  10
607.36047
  20
380.04181
  0
VERTEX
  5
1af
  8
Layer_0
  10
602.00635
  20
380.04181
  0
VERTEX
  5
1b0
  8
Layer_0
  10
601.47552
  20
380.33533
  0
VERTEX
  5
1b1
  8
Layer_0
  10
601.18347
  20
380.86584
  0
VERTEX
  5
1b2
  8
Layer_0
  10
601.18347
  20
381.22
  0
VERTEX
  5
1b3
  8
Layer_0
  10
600.88879
  20
381.74915
  0
VERTEX
  5
1b4
  8
Layer_0
  10
600.36047
  20
382.04126
  0
VERTEX
  5
1b5
  8
Layer_0
  10
585.13092
  20
382.04126
  0
VERTEX
  5
1b6
  8
Layer_0
  10
584.60089
  20
381.74915
  0
VERTEX
  5
1b7
  8
Layer_0
  10
584.30823
  20
381.22
  0
VERTEX
  5
1b8
  8
Layer_0
  10
584.30823
  20
380.86584
  0
VERTEX
  5
1b9
  8
Layer_0
  10
584.01489
  20
380.33533
  0
VERTEX
  5
1ba
  8
Layer_0
  10
583.48431
  20
380.04181
  0
VERTEX
  5
1bb
  8
Layer_0
  10
578.13098
  20
380.04181
  0
VERTEX
  5
1bc
  8
Layer_0
  10
577.60065
  20
380.33533
  0
VERTEX
  5
1bd
  8
Layer_0
  10
577.30853
  20
380.86584
  0
VERTEX
  5
1be
  8
Layer_0
  10
577.30853
  20
381.18414
  0
VERTEX
  5
1bf
  8
Layer_0
  10
577.16351
  20
381.60992
  0
VERTEX
  5
1c0
  8
Layer_0
  10
576.85083
  20
381.98611
  0
VERTEX
  5
1c1
  8
Layer_0
  10
576.76648
  20
382.03851
  0
SEQEND
  0
POLYLINE
  5
1c3
  8
Layer_0
  62
0
  70
1
  66
1
  10
0
  20
0
  30
0
  0
VERTEX
  5
1c3
  8
Layer_0
  10
412.92123
  20
453.18948
  0
VERTEX
  5
1c4
  8
Layer_0
  10
425.0968
  20
453.18948
  0
VERTEX
  5
1c5
  8
Layer_0
  10
425.62738
  20
452.8974
  0
VERTEX
  5
1c6
  8
Layer_0
  10
425.92102
  20
452.36679
  0
VERTEX
  5
1c7
  8
Layer_0
  10
425.92102
  20
440.01343
  0
VERTEX
  5
1c8
  8
Layer_0
  10
425.62738
  20
439.48285
  0
VERTEX
  5
1c9
  8
Layer_0
  10
425.0968
  20
439.18924
  0
VERTEX
  5
1ca
  8
Layer_0
  10
412.74344
  20
439.18924
  0
VERTEX
  5
1cb
  8
Layer_0
  10
412.21439
  20
439.48285
  0
VERTEX
  5
1cc
  8
Layer_0
  10
411.9223
  20
440.01343
  0
VERTEX
  5
1cd
  8
Layer_0
  10
411.9223
  20
452.36679
  0
VERTEX
  5
1ce
  8
Layer_0
  10
412.21439
  20
452.8974
  0
VERTEX
  5
1cf
  8
Layer_0
  10
412.74344
  20
453.18948
  0
VERTEX
  5
1d0
  8
Layer_0
  10
412.92123
  20
453.18948
  0
SEQEND
  0
POLYLINE
  5
1d2
  8
Layer_0
  62
0
  70
1
  66
1
  10
0
  20
0
  30
0
  0
VERTEX
  5
1d2
  8
Layer_0
  10
355.77307
  20
453.18948
  0
VERTEX
  5
1d3
  8
Layer_0
  10
367.9491
  20
453.18948
  0
VERTEX
  5
1d4
  8
Layer_0
  10
368.47943
  20
452.8974
  0
VERTEX
  5
1d5
  8
Layer_0
  10
368.77304
  20
452.36679
  0
VERTEX
  5
1d6
  8
Layer_0
  10
368.77304
  20
440.01343
  0
VERTEX
  5
1d7
  8
Layer_0
  10
368.47943
  20
439.48285
  0
VERTEX
  5
1d8
  8
Layer_0
  10
367.9491
  20
439.18924
  0
VERTEX
  5
1d9
  8
Layer_0
  10
355.59531
  20
439.18924
  0
VERTEX
  5
1da
  8
Layer_0
  10
355.06616
  20
439.48285
  0
VERTEX
  5
1db
  8
Layer_0
  10
354.77405
  20
440.01343
  0
VERTEX
  5
1dc
  8
Layer_0
  10
354.77405
  20
452.36679
  0
VERTEX
  5
1dd
  8
Layer_0
  10
355.06616
  20
452.8974
  0
VERTEX
  5
1de
  8
Layer_0
  10
355.59531
  20
453.18948
  0
VERTEX
  5
1df
  8
Layer_0
  10
355.77307
  20
453.18948
  0
SEQEND
  0
POLYLINE
  5
1e1
  8
Layer_0
  62
0
  70
1
  66
1
  10
0
  20
0
  30
0
  0
VERTEX
  5
1e1
  8
Layer_0
  10
665.32373
  20
453.18948
  0
VERTEX
  5
1e2
  8
Layer_0
  10
677.50012
  20
453.18948
  0
VERTEX
  5
1e3
  8
Layer_0
  10
678.03094
  20
452.8974
  0
VERTEX
  5
1e4
  8
Layer_0
  10
678.32556
  20
452.36679
  0
VERTEX
  5
1e5
  8
Layer_0
  10
678.32556
  20
440.01343
  0
VERTEX
  5
1e6
  8
Layer_0
  10
678.03094
  20
439.48285
  0
VERTEX
  5
1e7
  8
Layer_0
  10
677.50012
  20
439.18924
  0
VERTEX
  5
1e8
  8
Layer_0
  10
665.146
  20
439.18924
  0
VERTEX
  5
1e9
  8
Layer_0
  10
664.61768
  20
439.48285
  0
VERTEX
  5
1ea
  8
Layer_0
  10
664.32556
  20
440.01343
  0
VERTEX
  5
1eb
  8
Layer_0
  10
664.32556
  20
452.36679
  0
VERTEX
  5
1ec
  8
Layer_0
  10
664.61768
  20
452.8974
  0
VERTEX
  5
1ed
  8
Layer_0
  10
665.146
  20
453.18948
  0
VERTEX
  5
1ee
  8
Layer_0
  10
665.32373
  20
453.18948
  0
SEQEND
  0
POLYLINE
  5
1f0
  8
Layer_0
  62
0
  70
1
  66
1
  10
0
  20
0
  30
0
  0
VERTEX
  5
1f0
  8
Layer_0
  10
578.31561
  20
452.189
  0
VERTEX
  5
1f1
  8
Layer_0
  10
578.31561
  20
452.36679
  0
VERTEX
  5
1f2
  8
Layer_0
  10
578.02197
  20
452.8974
  0
VERTEX
  5
1f3
  8
Layer_0
  10
577.49139
  20
453.18948
  0
VERTEX
  5
1f4
  8
Layer_0
  10
565.13806
  20
453.18948
  0
VERTEX
  5
1f5
  8
Layer_0
  10
564.60901
  20
452.8974
  0
VERTEX
  5
1f6
  8
Layer_0
  10
564.31689
  20
452.36679
  0
VERTEX
  5
1f7
  8
Layer_0
  10
564.31689
  20
440.01343
  0
VERTEX
  5
1f8
  8
Layer_0
  10
564.60901
  20
439.48285
  0
VERTEX
  5
1f9
  8
Layer_0
  10
565.13806
  20
439.18924
  0
VERTEX
  5
1fa
  8
Layer_0
  10
577.49139
  20
439.18924
  0
VERTEX
  5
1fb
  8
Layer_0
  10
578.02197
  20
439.48285
  0
VERTEX
  5
1fc
  8
Layer_0
  10
578.31561
  20
440.01343
  0
VERTEX
  5
1fd
  8
Layer_0
  10
578.31561
  20
452.189
  0
SEQEND
  0
POLYLINE
  5
1ff
  8
Layer_0
  62
0
  70
1
  66
1
  10
0
  20
0
  30
0
  0
VERTEX
  5
1ff
  8
Layer_0
  10
521.45593
  20
414.09033
  0
VERTEX
  5
200
  8
Layer_0
  10
521.45593
  20
414.26813
  0
VERTEX
  5
201
  8
Layer_0
  10
521.74799
  20
414.79874
  0
VERTEX
  5
202
  8
Layer_0
  10
522.2771
  20
415.09082
  0
VERTEX
  5
203
  8
Layer_0
  10
534.63043
  20
415.09082
  0
VERTEX
  5
204
  8
Layer_0
  10
535.16101
  20
414.79874
  0
VERTEX
  5
205
  8
Layer_0
  10
535.45459
  20
414.26813
  0
VERTEX
  5
206
  8
Layer_0
  10
535.45459
  20
401.91479
  0
VERTEX
  5
207
  8
Layer_0
  10
535.16101
  20
401.38422
  0
VERTEX
  5
208
  8
Layer_0
  10
534.63043
  20
401.09058
  0
VERTEX
  5
209
  8
Layer_0
  10
522.2771
  20
401.09058
  0
VERTEX
  5
20a
  8
Layer_0
  10
521.74799
  20
401.38422
  0
VERTEX
  5
20b
  8
Layer_0
  10
521.45593
  20
401.91479
  0
VERTEX
  5
20c
  8
Layer_0
  10
521.45593
  20
414.09033
  0
SEQEND
  0
POLYLINE
  5
20e
  8
Layer_0
  62
0
  70
1
  66
1
  10
0
  20
0
  30
0
  0
VERTEX
  5
20e
  8
Layer_0
  10
370.06024
  20
415.09082
  0
VERTEX
  5
20f
  8
Layer_0
  10
382.23584
  20
415.09082
  0
VERTEX
  5
210
  8
Layer_0
  10
382.76642
  20
414.79874
  0
VERTEX
  5
211
  8
Layer_0
  10
383.06003
  20
414.26813
  0
VERTEX
  5
212
  8
Layer_0
  10
383.06003
  20
401.91479
  0
VERTEX
  5
213
  8
Layer_0
  10
382.76642
  20
401.38422
  0
VERTEX
  5
214
  8
Layer_0
  10
382.23584
  20
401.09058
  0
VERTEX
  5
215
  8
Layer_0
  10
369.88248
  20
401.09058
  0
VERTEX
  5
216
  8
Layer_0
  10
369.35339
  20
401.38422
  0
VERTEX
  5
217
  8
Layer_0
  10
369.06131
  20
401.91479
  0
VERTEX
  5
218
  8
Layer_0
  10
369.06131
  20
414.26813
  0
VERTEX
  5
219
  8
Layer_0
  10
369.35339
  20
414.79874
  0
VERTEX
  5
21a
  8
Layer_0
  10
369.88248
  20
415.09082
  0
VERTEX
  5
21b
  8
Layer_0
  10
370.06024
  20
415.09082
  0
SEQEND
  0
POLYLINE
  5
21d
  8
Layer_0
  62
0
  70
1
  66
1
  10
0
  20
0
  30
0
  0
VERTEX
  5
21d
  8
Layer_0
  10
587.84131
  20
433.13968
  0
VERTEX
  5
21e
  8
Layer_0
  10
587.84131
  20
433.31747
  0
VERTEX
  5
21f
  8
Layer_0
  10
587.54663
  20
433.84805
  0
VERTEX
  5
220
  8
Layer_0
  10
587.01605
  20
434.14014
  0
VERTEX
  5
221
  8
Layer_0
  10
574.66272
  20
434.14014
  0
VERTEX
  5
222
  8
Layer_0
  10
574.13367
  20
433.84805
  0
VERTEX
  5
223
  8
Layer_0
  10
573.84155
  20
433.31747
  0
VERTEX
  5
224
  8
Layer_0
  10
573.84155
  20
420.96411
  0
VERTEX
  5
225
  8
Layer_0
  10
574.13367
  20
420.43353
  0
VERTEX
  5
226
  8
Layer_0
  10
574.66272
  20
420.13989
  0
VERTEX
  5
227
  8
Layer_0
  10
587.01605
  20
420.13989
  0
VERTEX
  5
228
  8
Layer_0
  10
587.54663
  20
420.43353
  0
VERTEX
  5
229
  8
Layer_0
  10
587.84131
  20
420.96411
  0
VERTEX
  5
22a
  8
Layer_0
  10
587.84131
  20
433.13968
  0
SEQEND
  0
POLYLINE
  5
22c
  8
Layer_0
  62
0
  70
1
  66
1
  10
0
  20
0
  30
0
  0
VERTEX
  5
22c
  8
Layer_0
  10
645.27625
  20
395.04129
  0
VERTEX
  5
22d
  8
Layer_0
  10
645.27625
  20
395.21906
  0
VERTEX
  5
22e
  8
Layer_0
  10
645.56836
  20
395.74939
  0
VERTEX
  5
22f
  8
Layer_0
  10
646.09668
  20
396.0415
  0
VERTEX
  5
230
  8
Layer_0
  10
658.45081
  20
396.0415
  0
VERTEX
  5
231
  8
Layer_0
  10
658.98163
  20
395.74939
  0
VERTEX
  5
232
  8
Layer_0
  10
659.27625
  20
395.21906
  0
VERTEX
  5
233
  8
Layer_0
  10
659.27625
  20
382.8653
  0
VERTEX
  5
234
  8
Layer_0
  10
658.98163
  20
382.33478
  0
VERTEX
  5
235
  8
Layer_0
  10
658.45081
  20
382.04126
  0
VERTEX
  5
236
  8
Layer_0
  10
646.09668
  20
382.04126
  0
VERTEX
  5
237
  8
Layer_0
  10
645.56836
  20
382.33478
  0
VERTEX
  5
238
  8
Layer_0
  10
645.27625
  20
382.8653
  0
VERTEX
  5
239
  8
Layer_0
  10
645.27625
  20
395.04129
  0
SEQEND
  0
POLYLINE
  5
23b
  8
Layer_0
  62
0
  70
1
  66
1
  10
0
  20
0
  30
0
  0
VERTEX
  5
23b
  8
Layer_0
  10
440.49628
  20
433.13968
  0
VERTEX
  5
23c
  8
Layer_0
  10
440.49628
  20
433.31747
  0
VERTEX
  5
23d
  8
Layer_0
  10
440.78836
  20
433.84805
  0
VERTEX
  5
23e
  8
Layer_0
  10
441.31744
  20
434.14014
  0
VERTEX
  5
23f
  8
Layer_0
  10
453.67081
  20
434.14014
  0
VERTEX
  5
240
  8
Layer_0
  10
454.20139
  20
433.84805
  0
VERTEX
  5
241
  8
Layer_0
  10
454.495
  20
433.31747
  0
VERTEX
  5
242
  8
Layer_0
  10
454.495
  20
420.96411
  0
VERTEX
  5
243
  8
Layer_0
  10
454.20139
  20
420.43353
  0
VERTEX
  5
244
  8
Layer_0
  10
453.67081
  20
420.13989
  0
VERTEX
  5
245
  8
Layer_0
  10
441.31744
  20
420.13989
  0
VERTEX
  5
246
  8
Layer_0
  10
440.78836
  20
420.43353
  0
VERTEX
  5
247
  8
Layer_0
  10
440.49628
  20
420.96411
  0
VERTEX
  5
248
  8
Layer_0
  10
440.49628
  20
433.13968
  0
SEQEND
  0
POLYLINE
  5
24a
  8
Layer_0
  62
0
  70
1
  66
1
  10
0
  20
0
  30
0
  0
VERTEX
  5
24a
  8
Layer_0
  10
450.02094
  20
440.1897
  0
VERTEX
  5
24b
  8
Layer_0
  10
450.02094
  20
440.01343
  0
VERTEX
  5
24c
  8
Layer_0
  10
450.31305
  20
439.48285
  0
VERTEX
  5
24d
  8
Layer_0
  10
450.8421
  20
439.18924
  0
VERTEX
  5
24e
  8
Layer_0
  10
463.19547
  20
439.18924
  0
VERTEX
  5
24f
  8
Layer_0
  10
463.72604
  20
439.48285
  0
VERTEX
  5
250
  8
Layer_0
  10
464.01965
  20
440.01343
  0
VERTEX
  5
251
  8
Layer_0
  10
464.01965
  20
452.36679
  0
VERTEX
  5
252
  8
Layer_0
  10
463.72604
  20
452.8974
  0
VERTEX
  5
253
  8
Layer_0
  10
463.19547
  20
453.18948
  0
VERTEX
  5
254
  8
Layer_0
  10
450.8421
  20
453.18948
  0
VERTEX
  5
255
  8
Layer_0
  10
450.31305
  20
452.8974
  0
VERTEX
  5
256
  8
Layer_0
  10
450.02094
  20
452.36679
  0
VERTEX
  5
257
  8
Layer_0
  10
450.02094
  20
440.1897
  0
SEQEND
  0
POLYLINE
  5
259
  8
Layer_0
  62
0
  70
1
  66
1
  10
0
  20
0
  30
0
  0
VERTEX
  5
259
  8
Layer_0
  10
530.98059
  20
395.04129
  0
VERTEX
  5
25a
  8
Layer_0
  10
530.98059
  20
395.21906
  0
VERTEX
  5
25b
  8
Layer_0
  10
531.27264
  20
395.74939
  0
VERTEX
  5
25c
  8
Layer_0
  10
531.80176
  20
396.0415
  0
VERTEX
  5
25d
  8
Layer_0
  10
544.15509
  20
396.0415
  0
VERTEX
  5
25e
  8
Layer_0
  10
544.68567
  20
395.74939
  0
VERTEX
  5
25f
  8
Layer_0
  10
544.97925
  20
395.21906
  0
VERTEX
  5
260
  8
Layer_0
  10
544.97925
  20
382.8653
  0
VERTEX
  5
261
  8
Layer_0
  10
544.68567
  20
382.33478
  0
VERTEX
  5
262
  8
Layer_0
  10
544.15509
  20
382.04126
  0
VERTEX
  5
263
  8
Layer_0
  10
531.80176
  20
382.04126
  0
VERTEX
  5
264
  8
Layer_0
  10
531.27264
  20
382.33478
  0
VERTEX
  5
265
  8
Layer_0
  10
530.98059
  20
382.8653
  0
VERTEX
  5
266
  8
Layer_0
  10
530.98059
  20
395.04129
  0
SEQEND
  0
POLYLINE
  5
268
  8
Layer_0
  62
0
  70
1
  66
1
  10
0
  20
0
  30
0
  0
VERTEX
  5
268
  8
Layer_0
  10
645.27625
  20
421.14038
  0
VERTEX
  5
269
  8
Layer_0
  10
645.27625
  20
420.96411
  0
VERTEX
  5
26a
  8
Layer_0
  10
645.56836
  20
420.43353
  0
VERTEX
  5
26b
  8
Layer_0
  10
646.09668
  20
420.13989
  0
VERTEX
  5
26c
  8
Layer_0
  10
658.45081
  20
420.13989
  0
VERTEX
  5
26d
  8
Layer_0
  10
658.98163
  20
420.43353
  0
VERTEX
  5
26e
  8
Layer_0
  10
659.27625
  20
420.96411
  0
VERTEX
  5
26f
  8
Layer_0
  10
659.27625
  20
433.31747
  0
VERTEX
  5
270
  8
Layer_0
  10
658.98163
  20
433.84805
  0
VERTEX
  5
271
  8
Layer_0
  10
658.45081
  20
434.14014
  0
VERTEX
  5
272
  8
Layer_0
  10
646.09668
  20
434.14014
  0
VERTEX
  5
273
  8
Layer_0
  10
645.56836
  20
433.84805
  0
VERTEX
  5
274
  8
Layer_0
  10
645.27625
  20
433.31747
  0
VERTEX
  5
275
  8
Layer_0
  10
645.27625
  20
421.14038
  0
SEQEND
  0
POLYLINE
  5
277
  8
Layer_0
  62
0
  70
1
  66
1
  10
0
  20
0
  30
0
  0
VERTEX
  5
277
  8
Layer_0
  10
665.32373
  20
362.99194
  0
VERTEX
  5
278
  8
Layer_0
  10
665.146
  20
362.99194
  0
VERTEX
  5
279
  8
Layer_0
  10
664.61768
  20
363.28546
  0
VERTEX
  5
27a
  8
Layer_0
  10
664.32556
  20
363.81598
  0
VERTEX
  5
27b
  8
Layer_0
  10
664.32556
  20
376.16968
  0
VERTEX
  5
27c
  8
Layer_0
  10
664.61768
  20
376.7002
  0
VERTEX
  5
27d
  8
Layer_0
  10
665.146
  20
376.99231
  0
VERTEX
  5
27e
  8
Layer_0
  10
677.50012
  20
376.99231
  0
VERTEX
  5
27f
  8
Layer_0
  10
678.03094
  20
376.7002
  0
VERTEX
  5
280
  8
Layer_0
  10
678.32556
  20
376.16968
  0
VERTEX
  5
281
  8
Layer_0
  10
678.32556
  20
363.81598
  0
VERTEX
  5
282
  8
Layer_0
  10
678.03094
  20
363.28546
  0
VERTEX
  5
283
  8
Layer_0
  10
677.50012
  20
362.99194
  0
VERTEX
  5
284
  8
Layer_0
  10
665.32373
  20
362.99194
  0
SEQEND
  0
POLYLINE
  5
286
  8
Layer_0
  62
0
  70
1
  66
1
  10
0
  20
0
  30
0
  0
VERTEX
  5
286
  8
Layer_0
  10
577.31512
  20
477.00113
  0
VERTEX
  5
287
  8
Layer_0
  10
577.49139
  20
477.00113
  0
VERTEX
  5
288
  8
Layer_0
  10
578.02197
  20
476.70905
  0
VERTEX
  5
289
  8
Layer_0
  10
578.31561
  20
476.17847
  0
VERTEX
  5
28a
  8
Layer_0
  10
578.31561
  20
463.8251
  0
VERTEX
  5
28b
  8
Layer_0
  10
578.02197
  20
463.29449
  0
VERTEX
  5
28c
  8
Layer_0
  10
577.49139
  20
463.00089
  0
VERTEX
  5
28d
  8
Layer_0
  10
565.13806
  20
463.00089
  0
VERTEX
  5
28e
  8
Layer_0
  10
564.60901
  20
463.29449
  0
VERTEX
  5
28f
  8
Layer_0
  10
564.31689
  20
463.8251
  0
VERTEX
  5
290
  8
Layer_0
  10
564.31689
  20
476.17847
  0
VERTEX
  5
291
  8
Layer_0
  10
564.60901
  20
476.70905
  0
VERTEX
  5
292
  8
Layer_0
  10
565.13806
  20
477.00113
  0
VERTEX
  5
293
  8
Layer_0
  10
577.31512
  20
477.00113
  0
SEQEND
  0
POLYLINE
  5
295
  8
Layer_0
  62
0
  70
1
  66
1
  10
0
  20
0
  30
0
  0
VERTEX
  5
295
  8
Layer_0
  10
529.15741
  20
376.88895
  0
VERTEX
  5
296
  8
Layer_0
  10
529.24402
  20
376.93167
  0
VERTEX
  5
297
  8
Layer_0
  10
529.56506
  20
377.25824
  0
VERTEX
  5
298
  8
Layer_0
  10
529.71643
  20
377.65512
  0
VERTEX
  5
299
  8
Layer_0
  10
529.71643
  20
378.1691
  0
VERTEX
  5
29a
  8
Layer_0
  10
530.00903
  20
378.69965
  0
VERTEX
  5
29b
  8
Layer_0
  10
530.53937
  20
378.99179
  0
VERTEX
  5
29c
  8
Layer_0
  10
535.89276
  20
378.99179
  0
VERTEX
  5
29d
  8
Layer_0
  10
536.42334
  20
378.69965
  0
VERTEX
  5
29e
  8
Layer_0
  10
536.71667
  20
378.1691
  0
VERTEX
  5
29f
  8
Layer_0
  10
536.71667
  20
377.81494
  0
VERTEX
  5
2a0
  8
Layer_0
  10
537.00879
  20
377.28583
  0
VERTEX
  5
2a1
  8
Layer_0
  10
537.53937
  20
376.99231
  0
VERTEX
  5
2a2
  8
Layer_0
  10
541.77393
  20
376.99231
  0
VERTEX
  5
2a3
  8
Layer_0
  10
542.3045
  20
376.7002
  0
VERTEX
  5
2a4
  8
Layer_0
  10
542.59814
  20
376.16968
  0
VERTEX
  5
2a5
  8
Layer_0
  10
542.59814
  20
363.81598
  0
VERTEX
  5
2a6
  8
Layer_0
  10
542.3045
  20
363.28546
  0
VERTEX
  5
2a7
  8
Layer_0
  10
541.77393
  20
362.99194
  0
VERTEX
  5
2a8
  8
Layer_0
  10
529.42053
  20
362.99194
  0
VERTEX
  5
2a9
  8
Layer_0
  10
528.89148
  20
363.28546
  0
VERTEX
  5
2aa
  8
Layer_0
  10
528.59943
  20
363.81598
  0
VERTEX
  5
2ab
  8
Layer_0
  10
528.59943
  20
376.12418
  0
VERTEX
  5
2ac
  8
Layer_0
  10
528.74927
  20
376.52106
  0
VERTEX
  5
2ad
  8
Layer_0
  10
529.07159
  20
376.8476
  0
VERTEX
  5
2ae
  8
Layer_0
  10
529.15741
  20
376.88895
  0
SEQEND
  0
POLYLINE
  5
2b0
  8
Layer_0
  62
0
  70
1
  66
1
  10
0
  20
0
  30
0
  0
VERTEX
  5
2b0
  8
Layer_0
  10
387.82236
  20
452.189
  0
VERTEX
  5
2b1
  8
Layer_0
  10
387.82236
  20
452.36679
  0
VERTEX
  5
2b2
  8
Layer_0
  10
387.52875
  20
452.8974
  0
VERTEX
  5
2b3
  8
Layer_0
  10
386.99817
  20
453.18948
  0
VERTEX
  5
2b4
  8
Layer_0
  10
374.64481
  20
453.18948
  0
VERTEX
  5
2b5
  8
Layer_0
  10
374.11572
  20
452.8974
  0
VERTEX
  5
2b6
  8
Layer_0
  10
373.82364
  20
452.36679
  0
VERTEX
  5
2b7
  8
Layer_0
  10
373.82364
  20
440.01343
  0
VERTEX
  5
2b8
  8
Layer_0
  10
374.11572
  20
439.48285
  0
VERTEX
  5
2b9
  8
Layer_0
  10
374.64481
  20
439.18924
  0
VERTEX
  5
2ba
  8
Layer_0
  10
386.99817
  20
439.18924
  0
VERTEX
  5
2bb
  8
Layer_0
  10
387.52875
  20
439.48285
  0
VERTEX
  5
2bc
  8
Layer_0
  10
387.82236
  20
440.01343
  0
VERTEX
  5
2bd
  8
Layer_0
  10
387.82236
  20
452.189
  0
SEQEND
  0
POLYLINE
  5
2bf
  8
Layer_0
  62
0
  70
1
  66
1
  10
0
  20
0
  30
0
  0
VERTEX
  5
2bf
  8
Layer_0
  10
497.64426
  20
476.00064
  0
VERTEX
  5
2c0
  8
Layer_0
  10
497.64426
  20
476.17847
  0
VERTEX
  5
2c1
  8
Layer_0
  10
497.93634
  20
476.70905
  0
VERTEX
  5
2c2
  8
Layer_0
  10
498.46539
  20
477.00113
  0
VERTEX
  5
2c3
  8
Layer_0
  10
510.81879
  20
477.00113
  0
VERTEX
  5
2c4
  8
Layer_0
  10
511.34937
  20
476.70905
  0
VERTEX
  5
2c5
  8
Layer_0
  10
511.64294
  20
476.17847
  0
VERTEX
  5
2c6
  8
Layer_0
  10
511.64294
  20
463.8251
  0
VERTEX
  5
2c7
  8
Layer_0
  10
511.34937
  20
463.29449
  0
VERTEX
  5
2c8
  8
Layer_0
  10
510.81879
  20
463.00089
  0
VERTEX
  5
2c9
  8
Layer_0
  10
498.46539
  20
463.00089
  0
VERTEX
  5
2ca
  8
Layer_0
  10
497.93634
  20
463.29449
  0
VERTEX
  5
2cb
  8
Layer_0
  10
497.64426
  20
463.8251
  0
VERTEX
  5
2cc
  8
Layer_0
  10
497.64426
  20
476.00064
  0
SEQEND
  0
POLYLINE
  5
2ce
  8
Layer_0
  62
0
  70
1
  66
1
  10
0
  20
0
  30
0
  0
VERTEX
  5
2ce
  8
Layer_0
  10
401.10889
  20
376.99231
  0
VERTEX
  5
2cf
  8
Layer_0
  10
401.28516
  20
376.99231
  0
VERTEX
  5
2d0
  8
Layer_0
  10
401.81573
  20
376.7002
  0
VERTEX
  5
2d1
  8
Layer_0
  10
402.10934
  20
376.16968
  0
VERTEX
  5
2d2
  8
Layer_0
  10
402.10934
  20
363.81598
  0
VERTEX
  5
2d3
  8
Layer_0
  10
401.81573
  20
363.28546
  0
VERTEX
  5
2d4
  8
Layer_0
  10
401.28516
  20
362.99194
  0
VERTEX
  5
2d5
  8
Layer_0
  10
386.55063
  20
362.99194
  0
VERTEX
  5
2d6
  8
Layer_0
  10
386.02155
  20
363.28546
  0
VERTEX
  5
2d7
  8
Layer_0
  10
385.72946
  20
363.81598
  0
VERTEX
  5
2d8
  8
Layer_0
  10
385.72946
  20
376.16968
  0
VERTEX
  5
2d9
  8
Layer_0
  10
386.02155
  20
376.7002
  0
VERTEX
  5
2da
  8
Layer_0
  10
386.55063
  20
376.99231
  0
VERTEX
  5
2db
  8
Layer_0
  10
401.10889
  20
376.99231
  0
SEQEND
  0
POLYLINE
  5
2dd
  8
Layer_0
  62
0
  70
1
  66
1
  10
0
  20
0
  30
0
  0
VERTEX
  5
2dd
  8
Layer_0
  10
392.87299
  20
440.1897
  0
VERTEX
  5
2de
  8
Layer_0
  10
392.87299
  20
452.36679
  0
VERTEX
  5
2df
  8
Layer_0
  10
393.16507
  20
452.8974
  0
VERTEX
  5
2e0
  8
Layer_0
  10
393.69412
  20
453.18948
  0
VERTEX
  5
2e1
  8
Layer_0
  10
406.04749
  20
453.18948
  0
VERTEX
  5
2e2
  8
Layer_0
  10
406.57806
  20
452.8974
  0
VERTEX
  5
2e3
  8
Layer_0
  10
406.87167
  20
452.36679
  0
VERTEX
  5
2e4
  8
Layer_0
  10
406.87167
  20
440.01343
  0
VERTEX
  5
2e5
  8
Layer_0
  10
406.57806
  20
439.48285
  0
VERTEX
  5
2e6
  8
Layer_0
  10
406.04749
  20
439.18924
  0
VERTEX
  5
2e7
  8
Layer_0
  10
393.69412
  20
439.18924
  0
VERTEX
  5
2e8
  8
Layer_0
  10
393.16507
  20
439.48285
  0
VERTEX
  5
2e9
  8
Layer_0
  10
392.87299
  20
440.01343
  0
VERTEX
  5
2ea
  8
Layer_0
  10
392.87299
  20
440.1897
  0
SEQEND
  0
POLYLINE
  5
2ec
  8
Layer_0
  62
0
  70
1
  66
1
  10
0
  20
0
  30
0
  0
VERTEX
  5
2ec
  8
Layer_0
  10
545.26758
  20
464.00134
  0
VERTEX
  5
2ed
  8
Layer_0
  10
545.26758
  20
476.17847
  0
VERTEX
  5
2ee
  8
Layer_0
  10
545.55963
  20
476.70905
  0
VERTEX
  5
2ef
  8
Layer_0
  10
546.08875
  20
477.00113
  0
VERTEX
  5
2f0
  8
Layer_0
  10
558.44208
  20
477.00113
  0
VERTEX
  5
2f1
  8
Layer_0
  10
558.97266
  20
476.70905
  0
VERTEX
  5
2f2
  8
Layer_0
  10
559.2663
  20
476.17847
  0
VERTEX
  5
2f3
  8
Layer_0
  10
559.2663
  20
463.8251
  0
VERTEX
  5
2f4
  8
Layer_0
  10
558.97266
  20
463.29449
  0
VERTEX
  5
2f5
  8
Layer_0
  10
558.44208
  20
463.00089
  0
VERTEX
  5
2f6
  8
Layer_0
  10
546.08875
  20
463.00089
  0
VERTEX
  5
2f7
  8
Layer_0
  10
545.55963
  20
463.29449
  0
VERTEX
  5
2f8
  8
Layer_0
  10
545.26758
  20
463.8251
  0
VERTEX
  5
2f9
  8
Layer_0
  10
545.26758
  20
464.00134
  0
SEQEND
  0
POLYLINE
  5
2fb
  8
Layer_0
  62
0
  70
1
  66
1
  10
0
  20
0
  30
0
  0
VERTEX
  5
2fb
  8
Layer_0
  10
420.1582
  20
415.09082
  0
VERTEX
  5
2fc
  8
Layer_0
  10
420.33447
  20
415.09082
  0
VERTEX
  5
2fd
  8
Layer_0
  10
420.86505
  20
414.79874
  0
VERTEX
  5
2fe
  8
Layer_0
  10
421.15869
  20
414.26813
  0
VERTEX
  5
2ff
  8
Layer_0
  10
421.15869
  20
401.91479
  0
VERTEX
  5
300
  8
Layer_0
  10
420.86505
  20
401.38422
  0
VERTEX
  5
301
  8
Layer_0
  10
420.33447
  20
401.09058
  0
VERTEX
  5
302
  8
Layer_0
  10
407.98111
  20
401.09058
  0
VERTEX
  5
303
  8
Layer_0
  10
407.45206
  20
401.38422
  0
VERTEX
  5
304
  8
Layer_0
  10
407.15997
  20
401.91479
  0
VERTEX
  5
305
  8
Layer_0
  10
407.15997
  20
414.26813
  0
VERTEX
  5
306
  8
Layer_0
  10
407.45206
  20
414.79874
  0
VERTEX
  5
307
  8
Layer_0
  10
407.98111
  20
415.09082
  0
VERTEX
  5
308
  8
Layer_0
  10
420.1582
  20
415.09082
  0
SEQEND
  0
POLYLINE
  5
30a
  8
Layer_0
  62
0
  70
1
  66
1
  10
0
  20
0
  30
0
  0
VERTEX
  5
30a
  8
Layer_0
  10
511.66229
  20
363.99237
  0
VERTEX
  5
30b
  8
Layer_0
  10
516.83813
  20
363.99237
  0
VERTEX
  5
30c
  8
Layer_0
  10
517.36865
  20
364.28589
  0
VERTEX
  5
30d
  8
Layer_0
  10
517.66205
  20
364.81641
  0
VERTEX
  5
30e
  8
Layer_0
  10
517.66205
  20
378.1691
  0
VERTEX
  5
30f
  8
Layer_0
  10
517.36865
  20
378.69965
  0
VERTEX
  5
310
  8
Layer_0
  10
516.83813
  20
378.99179
  0
VERTEX
  5
311
  8
Layer_0
  10
511.4845
  20
378.99179
  0
VERTEX
  5
312
  8
Layer_0
  10
510.95389
  20
378.69965
  0
VERTEX
  5
313
  8
Layer_0
  10
510.6618
  20
378.1691
  0
VERTEX
  5
314
  8
Layer_0
  10
510.6618
  20
364.81641
  0
VERTEX
  5
315
  8
Layer_0
  10
510.95389
  20
364.28589
  0
VERTEX
  5
316
  8
Layer_0
  10
511.4845
  20
363.99237
  0
VERTEX
  5
317
  8
Layer_0
  10
511.66229
  20
363.99237
  0
SEQEND
  0
POLYLINE
  5
319
  8
Layer_0
  62
0
  70
1
  66
1
  10
0
  20
0
  30
0
  0
VERTEX
  5
319
  8
Layer_0
  10
338.10587
  20
363.99237
  0
VERTEX
  5
31a
  8
Layer_0
  10
338.10587
  20
376.16968
  0
VERTEX
  5
31b
  8
Layer_0
  10
338.39801
  20
376.7002
  0
VERTEX
  5
31c
  8
Layer_0
  10
338.92712
  20
376.99231
  0
VERTEX
  5
31d
  8
Layer_0
  10
353.66202
  20
376.99231
  0
VERTEX
  5
31e
  8
Layer_0
  10
354.19254
  20
376.7002
  0
VERTEX
  5
31f
  8
Layer_0
  10
354.48605
  20
376.16968
  0
VERTEX
  5
320
  8
Layer_0
  10
354.48605
  20
363.81598
  0
VERTEX
  5
321
  8
Layer_0
  10
354.19254
  20
363.28546
  0
VERTEX
  5
322
  8
Layer_0
  10
353.66202
  20
362.99194
  0
VERTEX
  5
323
  8
Layer_0
  10
338.92712
  20
362.99194
  0
VERTEX
  5
324
  8
Layer_0
  10
338.39801
  20
363.28546
  0
VERTEX
  5
325
  8
Layer_0
  10
338.10587
  20
363.81598
  0
VERTEX
  5
326
  8
Layer_0
  10
338.10587
  20
363.99237
  0
SEQEND
  0
POLYLINE
  5
328
  8
Layer_0
  62
0
  70
1
  66
1
  10
0
  20
0
  30
0
  0
VERTEX
  5
328
  8
Layer_0
  10
374.8226
  20
477.00113
  0
VERTEX
  5
329
  8
Layer_0
  10
386.99817
  20
477.00113
  0
VERTEX
  5
32a
  8
Layer_0
  10
387.52875
  20
476.70905
  0
VERTEX
  5
32b
  8
Layer_0
  10
387.82236
  20
476.17847
  0
VERTEX
  5
32c
  8
Layer_0
  10
387.82236
  20
463.8251
  0
VERTEX
  5
32d
  8
Layer_0
  10
387.52875
  20
463.29449
  0
VERTEX
  5
32e
  8
Layer_0
  10
386.99817
  20
463.00089
  0
VERTEX
  5
32f
  8
Layer_0
  10
374.64481
  20
463.00089
  0
VERTEX
  5
330
  8
Layer_0
  10
374.11572
  20
463.29449
  0
VERTEX
  5
331
  8
Layer_0
  10
373.82364
  20
463.8251
  0
VERTEX
  5
332
  8
Layer_0
  10
373.82364
  20
476.17847
  0
VERTEX
  5
333
  8
Layer_0
  10
374.11572
  20
476.70905
  0
VERTEX
  5
334
  8
Layer_0
  10
374.64481
  20
477.00113
  0
VERTEX
  5
335
  8
Layer_0
  10
374.8226
  20
477.00113
  0
SEQEND
  0
POLYLINE
  5
337
  8
Layer_0
  62
0
  70
1
  66
1
  10
0
  20
0
  30
0
  0
VERTEX
  5
337
  8
Layer_0
  10
335.7247
  20
440.1897
  0
VERTEX
  5
338
  8
Layer_0
  10
335.7247
  20
440.01343
  0
VERTEX
  5
339
  8
Layer_0
  10
336.01682
  20
439.48285
  0
VERTEX
  5
33a
  8
Layer_0
  10
336.54599
  20
439.18924
  0
VERTEX
  5
33b
  8
Layer_0
  10
348.89969
  20
439.18924
  0
VERTEX
  5
33c
  8
Layer_0
  10
349.43021
  20
439.48285
  0
VERTEX
  5
33d
  8
Layer_0
  10
349.72369
  20
440.01343
  0
VERTEX
  5
33e
  8
Layer_0
  10
349.72369
  20
452.36679
  0
VERTEX
  5
33f
  8
Layer_0
  10
349.43021
  20
452.8974
  0
VERTEX
  5
340
  8
Layer_0
  10
348.89969
  20
453.18948
  0
VERTEX
  5
341
  8
Layer_0
  10
336.54599
  20
453.18948
  0
VERTEX
  5
342
  8
Layer_0
  10
336.01682
  20
452.8974
  0
VERTEX
  5
343
  8
Layer_0
  10
335.7247
  20
452.36679
  0
VERTEX
  5
344
  8
Layer_0
  10
335.7247
  20
440.1897
  0
SEQEND
  0
POLYLINE
  5
346
  8
Layer_0
  62
0
  70
1
  66
1
  10
0
  20
0
  30
0
  0
VERTEX
  5
346
  8
Layer_0
  10
493.88086
  20
396.0415
  0
VERTEX
  5
347
  8
Layer_0
  10
506.05646
  20
396.0415
  0
VERTEX
  5
348
  8
Layer_0
  10
506.58704
  20
395.74939
  0
VERTEX
  5
349
  8
Layer_0
  10
506.88062
  20
395.21906
  0
VERTEX
  5
34a
  8
Layer_0
  10
506.88062
  20
382.8653
  0
VERTEX
  5
34b
  8
Layer_0
  10
506.58704
  20
382.33478
  0
VERTEX
  5
34c
  8
Layer_0
  10
506.05646
  20
382.04126
  0
VERTEX
  5
34d
  8
Layer_0
  10
493.70306
  20
382.04126
  0
VERTEX
  5
34e
  8
Layer_0
  10
493.17401
  20
382.33478
  0
VERTEX
  5
34f
  8
Layer_0
  10
492.88193
  20
382.8653
  0
VERTEX
  5
350
  8
Layer_0
  10
492.88193
  20
395.21906
  0
VERTEX
  5
351
  8
Layer_0
  10
493.17401
  20
395.74939
  0
VERTEX
  5
352
  8
Layer_0
  10
493.70306
  20
396.0415
  0
VERTEX
  5
353
  8
Layer_0
  10
493.88086
  20
396.0415
  0
SEQEND
  0
POLYLINE
  5
355
  8
Layer_0
  62
0
  70
1
  66
1
  10
0
  20
0
  30
0
  0
VERTEX
  5
355
  8
Layer_0
  10
422.42075
  20
377.99133
  0
VERTEX
  5
356
  8
Layer_0
  10
422.42075
  20
378.1691
  0
VERTEX
  5
357
  8
Layer_0
  10
422.12738
  20
378.69965
  0
VERTEX
  5
358
  8
Layer_0
  10
421.5968
  20
378.99179
  0
VERTEX
  5
359
  8
Layer_0
  10
411.48798
  20
378.99179
  0
VERTEX
  5
35a
  8
Layer_0
  10
410.9574
  20
378.69965
  0
VERTEX
  5
35b
  8
Layer_0
  10
410.66528
  20
378.1691
  0
VERTEX
  5
35c
  8
Layer_0
  10
410.66528
  20
364.81641
  0
VERTEX
  5
35d
  8
Layer_0
  10
410.9574
  20
364.28589
  0
VERTEX
  5
35e
  8
Layer_0
  10
411.48798
  20
363.99237
  0
VERTEX
  5
35f
  8
Layer_0
  10
421.5968
  20
363.99237
  0
VERTEX
  5
360
  8
Layer_0
  10
422.12738
  20
364.28589
  0
VERTEX
  5
361
  8
Layer_0
  10
422.42075
  20
364.81641
  0
VERTEX
  5
362
  8
Layer_0
  10
422.42075
  20
377.99133
  0
SEQEND
  0
POLYLINE
  5
364
  8
Layer_0
  62
0
  70
1
  66
1
  10
0
  20
0
  30
0
  0
VERTEX
  5
364
  8
Layer_0
  10
416.39633
  20
421.14038
  0
VERTEX
  5
365
  8
Layer_0
  10
416.39633
  20
420.96411
  0
VERTEX
  5
366
  8
Layer_0
  10
416.10272
  20
420.43353
  0
VERTEX
  5
367
  8
Layer_0
  10
415.57214
  20
420.13989
  0
VERTEX
  5
368
  8
Layer_0
  10
403.21878
  20
420.13989
  0
VERTEX
  5
369
  8
Layer_0
  10
402.68973
  20
420.43353
  0
VERTEX
  5
36a
  8
Layer_0
  10
402.39764
  20
420.96411
  0
VERTEX
  5
36b
  8
Layer_0
  10
402.39764
  20
433.31747
  0
VERTEX
  5
36c
  8
Layer_0
  10
402.68973
  20
433.84805
  0
VERTEX
  5
36d
  8
Layer_0
  10
403.21878
  20
434.14014
  0
VERTEX
  5
36e
  8
Layer_0
  10
415.57214
  20
434.14014
  0
VERTEX
  5
36f
  8
Layer_0
  10
416.10272
  20
433.84805
  0
VERTEX
  5
370
  8
Layer_0
  10
416.39633
  20
433.31747
  0
VERTEX
  5
371
  8
Layer_0
  10
416.39633
  20
421.14038
  0
SEQEND
  0
POLYLINE
  5
373
  8
Layer_0
  62
0
  70
1
  66
1
  10
0
  20
0
  30
0
  0
VERTEX
  5
373
  8
Layer_0
  10
573.55328
  20
414.09033
  0
VERTEX
  5
374
  8
Layer_0
  10
573.55328
  20
414.26813
  0
VERTEX
  5
375
  8
Layer_0
  10
573.25964
  20
414.79874
  0
VERTEX
  5
376
  8
Layer_0
  10
572.72906
  20
415.09082
  0
VERTEX
  5
377
  8
Layer_0
  10
560.37573
  20
415.09082
  0
VERTEX
  5
378
  8
Layer_0
  10
559.84668
  20
414.79874
  0
VERTEX
  5
379
  8
Layer_0
  10
559.55457
  20
414.26813
  0
VERTEX
  5
37a
  8
Layer_0
  10
559.55457
  20
401.91479
  0
VERTEX
  5
37b
  8
Layer_0
  10
559.84668
  20
401.38422
  0
VERTEX
  5
37c
  8
Layer_0
  10
560.37573
  20
401.09058
  0
VERTEX
  5
37d
  8
Layer_0
  10
572.72906
  20
401.09058
  0
VERTEX
  5
37e
  8
Layer_0
  10
573.25964
  20
401.38422
  0
VERTEX
  5
37f
  8
Layer_0
  10
573.55328
  20
401.91479
  0
VERTEX
  5
380
  8
Layer_0
  10
573.55328
  20
414.09033
  0
SEQEND
  0
POLYLINE
  5
382
  8
Layer_0
  62
0
  70
1
  66
1
  10
0
  20
0
  30
0
  0
VERTEX
  5
382
  8
Layer_0
  10
484.3562
  20
415.09082
  0
VERTEX
  5
383
  8
Layer_0
  10
496.5318
  20
415.09082
  0
VERTEX
  5
384
  8
Layer_0
  10
497.06238
  20
414.79874
  0
VERTEX
  5
385
  8
Layer_0
  10
497.35596
  20
414.26813
  0
VERTEX
  5
386
  8
Layer_0
  10
497.35596
  20
401.91479
  0
VERTEX
  5
387
  8
Layer_0
  10
497.06238
  20
401.38422
  0
VERTEX
  5
388
  8
Layer_0
  10
496.5318
  20
401.09058
  0
VERTEX
  5
389
  8
Layer_0
  10
484.17841
  20
401.09058
  0
VERTEX
  5
38a
  8
Layer_0
  10
483.64935
  20
401.38422
  0
VERTEX
  5
38b
  8
Layer_0
  10
483.35727
  20
401.91479
  0
VERTEX
  5
38c
  8
Layer_0
  10
483.35727
  20
414.26813
  0
VERTEX
  5
38d
  8
Layer_0
  10
483.64935
  20
414.79874
  0
VERTEX
  5
38e
  8
Layer_0
  10
484.17841
  20
415.09082
  0
VERTEX
  5
38f
  8
Layer_0
  10
484.3562
  20
415.09082
  0
SEQEND
  0
POLYLINE
  5
391
  8
Layer_0
  62
0
  70
1
  66
1
  10
0
  20
0
  30
0
  0
VERTEX
  5
391
  8
Layer_0
  10
431.97058
  20
453.18948
  0
VERTEX
  5
392
  8
Layer_0
  10
444.14612
  20
453.18948
  0
VERTEX
  5
393
  8
Layer_0
  10
444.67673
  20
452.8974
  0
VERTEX
  5
394
  8
Layer_0
  10
444.97034
  20
452.36679
  0
VERTEX
  5
395
  8
Layer_0
  10
444.97034
  20
440.01343
  0
VERTEX
  5
396
  8
Layer_0
  10
444.67673
  20
439.48285
  0
VERTEX
  5
397
  8
Layer_0
  10
444.14612
  20
439.18924
  0
VERTEX
  5
398
  8
Layer_0
  10
431.79279
  20
439.18924
  0
VERTEX
  5
399
  8
Layer_0
  10
431.2637
  20
439.48285
  0
VERTEX
  5
39a
  8
Layer_0
  10
430.97162
  20
440.01343
  0
VERTEX
  5
39b
  8
Layer_0
  10
430.97162
  20
452.36679
  0
VERTEX
  5
39c
  8
Layer_0
  10
431.2637
  20
452.8974
  0
VERTEX
  5
39d
  8
Layer_0
  10
431.79279
  20
453.18948
  0
VERTEX
  5
39e
  8
Layer_0
  10
431.97058
  20
453.18948
  0
SEQEND
  0
POLYLINE
  5
3a0
  8
Layer_0
  62
0
  70
1
  66
1
  10
0
  20
0
  30
0
  0
VERTEX
  5
3a0
  8
Layer_0
  10
520.16718
  20
439.18924
  0
VERTEX
  5
3a1
  8
Layer_0
  10
507.99005
  20
439.18924
  0
VERTEX
  5
3a2
  8
Layer_0
  10
507.461
  20
439.48285
  0
VERTEX
  5
3a3
  8
Layer_0
  10
507.16891
  20
440.01343
  0
VERTEX
  5
3a4
  8
Layer_0
  10
507.16891
  20
452.36679
  0
VERTEX
  5
3a5
  8
Layer_0
  10
507.461
  20
452.8974
  0
VERTEX
  5
3a6
  8
Layer_0
  10
507.99005
  20
453.18948
  0
VERTEX
  5
3a7
  8
Layer_0
  10
520.34344
  20
453.18948
  0
VERTEX
  5
3a8
  8
Layer_0
  10
520.87402
  20
452.8974
  0
VERTEX
  5
3a9
  8
Layer_0
  10
521.1676
  20
452.36679
  0
VERTEX
  5
3aa
  8
Layer_0
  10
521.1676
  20
440.01343
  0
VERTEX
  5
3ab
  8
Layer_0
  10
520.87402
  20
439.48285
  0
VERTEX
  5
3ac
  8
Layer_0
  10
520.34344
  20
439.18924
  0
VERTEX
  5
3ad
  8
Layer_0
  10
520.16718
  20
439.18924
  0
SEQEND
  0
POLYLINE
  5
3af
  8
Layer_0
  62
0
  70
1
  66
1
  10
0
  20
0
  30
0
  0
VERTEX
  5
3af
  8
Layer_0
  10
364.29874
  20
421.14038
  0
VERTEX
  5
3b0
  8
Layer_0
  10
364.29874
  20
420.96411
  0
VERTEX
  5
3b1
  8
Layer_0
  10
364.59082
  20
420.43353
  0
VERTEX
  5
3b2
  8
Layer_0
  10
365.11987
  20
420.13989
  0
VERTEX
  5
3b3
  8
Layer_0
  10
377.47348
  20
420.13989
  0
VERTEX
  5
3b4
  8
Layer_0
  10
378.00409
  20
420.43353
  0
VERTEX
  5
3b5
  8
Layer_0
  10
378.2977
  20
420.96411
  0
VERTEX
  5
3b6
  8
Layer_0
  10
378.2977
  20
433.31747
  0
VERTEX
  5
3b7
  8
Layer_0
  10
378.00409
  20
433.84805
  0
VERTEX
  5
3b8
  8
Layer_0
  10
377.47348
  20
434.14014
  0
VERTEX
  5
3b9
  8
Layer_0
  10
365.11987
  20
434.14014
  0
VERTEX
  5
3ba
  8
Layer_0
  10
364.59082
  20
433.84805
  0
VERTEX
  5
3bb
  8
Layer_0
  10
364.29874
  20
433.31747
  0
VERTEX
  5
3bc
  8
Layer_0
  10
364.29874
  20
421.14038
  0
SEQEND
  0
POLYLINE
  5
3be
  8
Layer_0
  62
0
  70
1
  66
1
  10
0
  20
0
  30
0
  0
VERTEX
  5
3be
  8
Layer_0
  10
477.30615
  20
401.09058
  0
VERTEX
  5
3bf
  8
Layer_0
  10
465.12909
  20
401.09058
  0
VERTEX
  5
3c0
  8
Layer_0
  10
464.60004
  20
401.38422
  0
VERTEX
  5
3c1
  8
Layer_0
  10
464.30792
  20
401.91479
  0
VERTEX
  5
3c2
  8
Layer_0
  10
464.30792
  20
414.26813
  0
VERTEX
  5
3c3
  8
Layer_0
  10
464.60004
  20
414.79874
  0
VERTEX
  5
3c4
  8
Layer_0
  10
465.12909
  20
415.09082
  0
VERTEX
  5
3c5
  8
Layer_0
  10
477.48245
  20
415.09082
  0
VERTEX
  5
3c6
  8
Layer_0
  10
478.01303
  20
414.79874
  0
VERTEX
  5
3c7
  8
Layer_0
  10
478.30664
  20
414.26813
  0
VERTEX
  5
3c8
  8
Layer_0
  10
478.30664
  20
401.91479
  0
VERTEX
  5
3c9
  8
Layer_0
  10
478.01303
  20
401.38422
  0
VERTEX
  5
3ca
  8
Layer_0
  10
477.48245
  20
401.09058
  0
VERTEX
  5
3cb
  8
Layer_0
  10
477.30615
  20
401.09058
  0
SEQEND
  0
POLYLINE
  5
3cd
  8
Layer_0
  62
0
  70
1
  66
1
  10
0
  20
0
  30
0
  0
VERTEX
  5
3cd
  8
Layer_0
  10
444.97034
  20
476.00064
  0
VERTEX
  5
3ce
  8
Layer_0
  10
444.97034
  20
463.8251
  0
VERTEX
  5
3cf
  8
Layer_0
  10
444.67673
  20
463.29449
  0
VERTEX
  5
3d0
  8
Layer_0
  10
444.14612
  20
463.00089
  0
VERTEX
  5
3d1
  8
Layer_0
  10
431.79279
  20
463.00089
  0
VERTEX
  5
3d2
  8
Layer_0
  10
431.2637
  20
463.29449
  0
VERTEX
  5
3d3
  8
Layer_0
  10
430.97162
  20
463.8251
  0
VERTEX
  5
3d4
  8
Layer_0
  10
430.97162
  20
476.17847
  0
VERTEX
  5
3d5
  8
Layer_0
  10
431.2637
  20
476.70905
  0
VERTEX
  5
3d6
  8
Layer_0
  10
431.79279
  20
477.00113
  0
VERTEX
  5
3d7
  8
Layer_0
  10
444.14612
  20
477.00113
  0
VERTEX
  5
3d8
  8
Layer_0
  10
444.67673
  20
476.70905
  0
VERTEX
  5
3d9
  8
Layer_0
  10
444.97034
  20
476.17847
  0
VERTEX
  5
3da
  8
Layer_0
  10
444.97034
  20
476.00064
  0
SEQEND
  0
POLYLINE
  5
3dc
  8
Layer_0
  62
0
  70
1
  66
1
  10
0
  20
0
  30
0
  0
VERTEX
  5
3dc
  8
Layer_0
  10
545.26758
  20
440.1897
  0
VERTEX
  5
3dd
  8
Layer_0
  10
545.26758
  20
440.01343
  0
VERTEX
  5
3de
  8
Layer_0
  10
545.55963
  20
439.48285
  0
VERTEX
  5
3df
  8
Layer_0
  10
546.08875
  20
439.18924
  0
VERTEX
  5
3e0
  8
Layer_0
  10
558.44208
  20
439.18924
  0
VERTEX
  5
3e1
  8
Layer_0
  10
558.97266
  20
439.48285
  0
VERTEX
  5
3e2
  8
Layer_0
  10
559.2663
  20
440.01343
  0
VERTEX
  5
3e3
  8
Layer_0
  10
559.2663
  20
452.36679
  0
VERTEX
  5
3e4
  8
Layer_0
  10
558.97266
  20
452.8974
  0
VERTEX
  5
3e5
  8
Layer_0
  10
558.44208
  20
453.18948
  0
VERTEX
  5
3e6
  8
Layer_0
  10
546.08875
  20
453.18948
  0
VERTEX
  5
3e7
  8
Layer_0
  10
545.55963
  20
452.8974
  0
VERTEX
  5
3e8
  8
Layer_0
  10
545.26758
  20
452.36679
  0
VERTEX
  5
3e9
  8
Layer_0
  10
545.26758
  20
440.1897
  0
SEQEND
  0
POLYLINE
  5
3eb
  8
Layer_0
  62
0
  70
1
  66
1
  10
0
  20
0
  30
0
  0
VERTEX
  5
3eb
  8
Layer_0
  10
435.73395
  20
395.04129
  0
VERTEX
  5
3ec
  8
Layer_0
  10
435.73395
  20
395.21906
  0
VERTEX
  5
3ed
  8
Layer_0
  10
436.02603
  20
395.74939
  0
VERTEX
  5
3ee
  8
Layer_0
  10
436.55511
  20
396.0415
  0
VERTEX
  5
3ef
  8
Layer_0
  10
448.90848
  20
396.0415
  0
VERTEX
  5
3f0
  8
Layer_0
  10
449.43906
  20
395.74939
  0
VERTEX
  5
3f1
  8
Layer_0
  10
449.73267
  20
395.21906
  0
VERTEX
  5
3f2
  8
Layer_0
  10
449.73267
  20
382.8653
  0
VERTEX
  5
3f3
  8
Layer_0
  10
449.43906
  20
382.33478
  0
VERTEX
  5
3f4
  8
Layer_0
  10
448.90848
  20
382.04126
  0
VERTEX
  5
3f5
  8
Layer_0
  10
436.55511
  20
382.04126
  0
VERTEX
  5
3f6
  8
Layer_0
  10
436.02603
  20
382.33478
  0
VERTEX
  5
3f7
  8
Layer_0
  10
435.73395
  20
382.8653
  0
VERTEX
  5
3f8
  8
Layer_0
  10
435.73395
  20
395.04129
  0
SEQEND
  0
POLYLINE
  5
3fa
  8
Layer_0
  62
0
  70
1
  66
1
  10
0
  20
0
  30
0
  0
VERTEX
  5
3fa
  8
Layer_0
  10
613.0321
  20
376.99231
  0
VERTEX
  5
3fb
  8
Layer_0
  10
613.2099
  20
376.99231
  0
VERTEX
  5
3fc
  8
Layer_0
  10
613.74072
  20
376.7002
  0
VERTEX
  5
3fd
  8
Layer_0
  10
614.03284
  20
376.16968
  0
VERTEX
  5
3fe
  8
Layer_0
  10
614.03284
  20
363.81598
  0
VERTEX
  5
3ff
  8
Layer_0
  10
613.74072
  20
363.28546
  0
VERTEX
  5
400
  8
Layer_0
  10
613.2099
  20
362.99194
  0
VERTEX
  5
401
  8
Layer_0
  10
598.47339
  20
362.99194
  0
VERTEX
  5
402
  8
Layer_0
  10
597.94507
  20
363.28546
  0
VERTEX
  5
403
  8
Layer_0
  10
597.65295
  20
363.81598
  0
VERTEX
  5
404
  8
Layer_0
  10
597.65295
  20
376.16968
  0
VERTEX
  5
405
  8
Layer_0
  10
597.94507
  20
376.7002
  0
VERTEX
  5
406
  8
Layer_0
  10
598.47339
  20
376.99231
  0
VERTEX
  5
407
  8
Layer_0
  10
613.0321
  20
376.99231
  0
SEQEND
  0
POLYLINE
  5
409
  8
Layer_0
  62
0
  70
1
  66
1
  10
0
  20
0
  30
0
  0
VERTEX
  5
409
  8
Layer_0
  10
677.32483
  20
477.00113
  0
VERTEX
  5
40a
  8
Layer_0
  10
677.50012
  20
477.00113
  0
VERTEX
  5
40b
  8
Layer_0
  10
678.03094
  20
476.70905
  0
VERTEX
  5
40c
  8
Layer_0
  10
678.32556
  20
476.17847
  0
VERTEX
  5
40d
  8
Layer_0
  10
678.32556
  20
463.8251
  0
VERTEX
  5
40e
  8
Layer_0
  10
678.03094
  20
463.29449
  0
VERTEX
  5
40f
  8
Layer_0
  10
677.50012
  20
463.00089
  0
VERTEX
  5
410
  8
Layer_0
  10
665.146
  20
463.00089
  0
VERTEX
  5
411
  8
Layer_0
  10
664.61768
  20
463.29449
  0
VERTEX
  5
412
  8
Layer_0
  10
664.32556
  20
463.8251
  0
VERTEX
  5
413
  8
Layer_0
  10
664.32556
  20
476.17847
  0
VERTEX
  5
414
  8
Layer_0
  10
664.61768
  20
476.70905
  0
VERTEX
  5
415
  8
Layer_0
  10
665.146
  20
477.00113
  0
VERTEX
  5
416
  8
Layer_0
  10
677.32483
  20
477.00113
  0
SEQEND
  0
POLYLINE
  5
418
  8
Layer_0
  62
0
  70
1
  66
1
  10
0
  20
0
  30
0
  0
VERTEX
  5
418
  8
Layer_0
  10
664.32556
  20
421.14038
  0
VERTEX
  5
419
  8
Layer_0
  10
664.32556
  20
420.96411
  0
VERTEX
  5
41a
  8
Layer_0
  10
664.61768
  20
420.43353
  0
VERTEX
  5
41b
  8
Layer_0
  10
665.146
  20
420.13989
  0
VERTEX
  5
41c
  8
Layer_0
  10
677.50012
  20
420.13989
  0
VERTEX
  5
41d
  8
Layer_0
  10
678.03094
  20
420.43353
  0
VERTEX
  5
41e
  8
Layer_0
  10
678.32556
  20
420.96411
  0
VERTEX
  5
41f
  8
Layer_0
  10
678.32556
  20
433.31747
  0
VERTEX
  5
420
  8
Layer_0
  10
678.03094
  20
433.84805
  0
VERTEX
  5
421
  8
Layer_0
  10
677.50012
  20
434.14014
  0
VERTEX
  5
422
  8
Layer_0
  10
665.146
  20
434.14014
  0
VERTEX
  5
423
  8
Layer_0
  10
664.61768
  20
433.84805
  0
VERTEX
  5
424
  8
Layer_0
  10
664.32556
  20
433.31747
  0
VERTEX
  5
425
  8
Layer_0
  10
664.32556
  20
421.14038
  0
SEQEND
  0
POLYLINE
  5
427
  8
Layer_0
  62
0
  70
1
  66
1
  10
0
  20
0
  30
0
  0
VERTEX
  5
427
  8
Layer_0
  10
459.54559
  20
464.00134
  0
VERTEX
  5
428
  8
Layer_0
  10
459.54559
  20
476.17847
  0
VERTEX
  5
429
  8
Layer_0
  10
459.83771
  20
476.70905
  0
VERTEX
  5
42a
  8
Layer_0
  10
460.36676
  20
477.00113
  0
VERTEX
  5
42b
  8
Layer_0
  10
472.72012
  20
477.00113
  0
VERTEX
  5
42c
  8
Layer_0
  10
473.2507
  20
476.70905
  0
VERTEX
  5
42d
  8
Layer_0
  10
473.54431
  20
476.17847
  0
VERTEX
  5
42e
  8
Layer_0
  10
473.54431
  20
463.8251
  0
VERTEX
  5
42f
  8
Layer_0
  10
473.2507
  20
463.29449
  0
VERTEX
  5
430
  8
Layer_0
  10
472.72012
  20
463.00089
  0
VERTEX
  5
431
  8
Layer_0
  10
460.36676
  20
463.00089
  0
VERTEX
  5
432
  8
Layer_0
  10
459.83771
  20
463.29449
  0
VERTEX
  5
433
  8
Layer_0
  10
459.54559
  20
463.8251
  0
VERTEX
  5
434
  8
Layer_0
  10
459.54559
  20
464.00134
  0
SEQEND
  0
POLYLINE
  5
436
  8
Layer_0
  62
0
  70
1
  66
1
  10
0
  20
0
  30
0
  0
VERTEX
  5
436
  8
Layer_0
  10
512.93018
  20
396.0415
  0
VERTEX
  5
437
  8
Layer_0
  10
525.10577
  20
396.0415
  0
VERTEX
  5
438
  8
Layer_0
  10
525.63635
  20
395.74939
  0
VERTEX
  5
439
  8
Layer_0
  10
525.92993
  20
395.21906
  0
VERTEX
  5
43a
  8
Layer_0
  10
525.92993
  20
382.8653
  0
VERTEX
  5
43b
  8
Layer_0
  10
525.63635
  20
382.33478
  0
VERTEX
  5
43c
  8
Layer_0
  10
525.10577
  20
382.04126
  0
VERTEX
  5
43d
  8
Layer_0
  10
512.75238
  20
382.04126
  0
VERTEX
  5
43e
  8
Layer_0
  10
512.22333
  20
382.33478
  0
VERTEX
  5
43f
  8
Layer_0
  10
511.93124
  20
382.8653
  0
VERTEX
  5
440
  8
Layer_0
  10
511.93124
  20
395.21906
  0
VERTEX
  5
441
  8
Layer_0
  10
512.22333
  20
395.74939
  0
VERTEX
  5
442
  8
Layer_0
  10
512.75238
  20
396.0415
  0
VERTEX
  5
443
  8
Layer_0
  10
512.93018
  20
396.0415
  0
SEQEND
  0
POLYLINE
  5
445
  8
Layer_0
  62
0
  70
1
  66
1
  10
0
  20
0
  30
0
  0
VERTEX
  5
445
  8
Layer_0
  10
497.64426
  20
421.14038
  0
VERTEX
  5
446
  8
Layer_0
  10
497.64426
  20
420.96411
  0
VERTEX
  5
447
  8
Layer_0
  10
497.93634
  20
420.43353
  0
VERTEX
  5
448
  8
Layer_0
  10
498.46539
  20
420.13989
  0
VERTEX
  5
449
  8
Layer_0
  10
510.81879
  20
420.13989
  0
VERTEX
  5
44a
  8
Layer_0
  10
511.34937
  20
420.43353
  0
VERTEX
  5
44b
  8
Layer_0
  10
511.64294
  20
420.96411
  0
VERTEX
  5
44c
  8
Layer_0
  10
511.64294
  20
433.31747
  0
VERTEX
  5
44d
  8
Layer_0
  10
511.34937
  20
433.84805
  0
VERTEX
  5
44e
  8
Layer_0
  10
510.81879
  20
434.14014
  0
VERTEX
  5
44f
  8
Layer_0
  10
498.46539
  20
434.14014
  0
VERTEX
  5
450
  8
Layer_0
  10
497.93634
  20
433.84805
  0
VERTEX
  5
451
  8
Layer_0
  10
497.64426
  20
433.31747
  0
VERTEX
  5
452
  8
Layer_0
  10
497.64426
  20
421.14038
  0
SEQEND
  0
POLYLINE
  5
454
  8
Layer_0
  62
0
  70
1
  66
1
  10
0
  20
0
  30
0
  0
VERTEX
  5
454
  8
Layer_0
  10
478.59491
  20
464.00134
  0
VERTEX
  5
455
  8
Layer_0
  10
478.59491
  20
476.17847
  0
VERTEX
  5
456
  8
Layer_0
  10
478.88702
  20
476.70905
  0
VERTEX
  5
457
  8
Layer_0
  10
479.41608
  20
477.00113
  0
VERTEX
  5
458
  8
Layer_0
  10
491.76944
  20
477.00113
  0
VERTEX
  5
459
  8
Layer_0
  10
492.30005
  20
476.70905
  0
VERTEX
  5
45a
  8
Layer_0
  10
492.59363
  20
476.17847
  0
VERTEX
  5
45b
  8
Layer_0
  10
492.59363
  20
463.8251
  0
VERTEX
  5
45c
  8
Layer_0
  10
492.30005
  20
463.29449
  0
VERTEX
  5
45d
  8
Layer_0
  10
491.76944
  20
463.00089
  0
VERTEX
  5
45e
  8
Layer_0
  10
479.41608
  20
463.00089
  0
VERTEX
  5
45f
  8
Layer_0
  10
478.88702
  20
463.29449
  0
VERTEX
  5
460
  8
Layer_0
  10
478.59491
  20
463.8251
  0
VERTEX
  5
461
  8
Layer_0
  10
478.59491
  20
464.00134
  0
SEQEND
  0
POLYLINE
  5
463
  8
Layer_0
  62
0
  70
1
  66
1
  10
0
  20
0
  30
0
  0
VERTEX
  5
463
  8
Layer_0
  10
446.25757
  20
415.09082
  0
VERTEX
  5
464
  8
Layer_0
  10
458.43314
  20
415.09082
  0
VERTEX
  5
465
  8
Layer_0
  10
458.96371
  20
414.79874
  0
VERTEX
  5
466
  8
Layer_0
  10
459.25732
  20
414.26813
  0
VERTEX
  5
467
  8
Layer_0
  10
459.25732
  20
401.91479
  0
VERTEX
  5
468
  8
Layer_0
  10
458.96371
  20
401.38422
  0
VERTEX
  5
469
  8
Layer_0
  10
458.43314
  20
401.09058
  0
VERTEX
  5
46a
  8
Layer_0
  10
446.07977
  20
401.09058
  0
VERTEX
  5
46b
  8
Layer_0
  10
445.55069
  20
401.38422
  0
VERTEX
  5
46c
  8
Layer_0
  10
445.25861
  20
401.91479
  0
VERTEX
  5
46d
  8
Layer_0
  10
445.25861
  20
414.26813
  0
VERTEX
  5
46e
  8
Layer_0
  10
445.55069
  20
414.79874
  0
VERTEX
  5
46f
  8
Layer_0
  10
446.07977
  20
415.09082
  0
VERTEX
  5
470
  8
Layer_0
  10
446.25757
  20
415.09082
  0
SEQEND
  0
POLYLINE
  5
472
  8
Layer_0
  62
0
  70
1
  66
1
  10
0
  20
0
  30
0
  0
VERTEX
  5
472
  8
Layer_0
  10
473.83258
  20
383.04169
  0
VERTEX
  5
473
  8
Layer_0
  10
473.83258
  20
395.21906
  0
VERTEX
  5
474
  8
Layer_0
  10
474.12469
  20
395.74939
  0
VERTEX
  5
475
  8
Layer_0
  10
474.65375
  20
396.0415
  0
VERTEX
  5
476
  8
Layer_0
  10
487.00711
  20
396.0415
  0
VERTEX
  5
477
  8
Layer_0
  10
487.53769
  20
395.74939
  0
VERTEX
  5
478
  8
Layer_0
  10
487.8313
  20
395.21906
  0
VERTEX
  5
479
  8
Layer_0
  10
487.8313
  20
382.8653
  0
VERTEX
  5
47a
  8
Layer_0
  10
487.53769
  20
382.33478
  0
VERTEX
  5
47b
  8
Layer_0
  10
487.00711
  20
382.04126
  0
VERTEX
  5
47c
  8
Layer_0
  10
474.65375
  20
382.04126
  0
VERTEX
  5
47d
  8
Layer_0
  10
474.12469
  20
382.33478
  0
VERTEX
  5
47e
  8
Layer_0
  10
473.83258
  20
382.8653
  0
VERTEX
  5
47f
  8
Layer_0
  10
473.83258
  20
383.04169
  0
SEQEND
  0
POLYLINE
  5
481
  8
Layer_0
  62
0
  70
1
  66
1
  10
0
  20
0
  30
0
  0
VERTEX
  5
481
  8
Layer_0
  10
356.86722
  20
402.09106
  0
VERTEX
  5
482
  8
Layer_0
  10
356.86722
  20
401.91479
  0
VERTEX
  5
483
  8
Layer_0
  10
356.5737
  20
401.38422
  0
VERTEX
  5
484
  8
Layer_0
  10
356.04318
  20
401.09058
  0
VERTEX
  5
485
  8
Layer_0
  10
338.92712
  20
401.09058
  0
VERTEX
  5
486
  8
Layer_0
  10
338.39801
  20
401.38422
  0
VERTEX
  5
487
  8
Layer_0
  10
338.10587
  20
401.91479
  0
VERTEX
  5
488
  8
Layer_0
  10
338.10587
  20
414.26813
  0
VERTEX
  5
489
  8
Layer_0
  10
338.39801
  20
414.79874
  0
VERTEX
  5
48a
  8
Layer_0
  10
338.92712
  20
415.09082
  0
VERTEX
  5
48b
  8
Layer_0
  10
356.04318
  20
415.09082
  0
VERTEX
  5
48c
  8
Layer_0
  10
356.5737
  20
414.79874
  0
VERTEX
  5
48d
  8
Layer_0
  10
356.86722
  20
414.26813
  0
VERTEX
  5
48e
  8
Layer_0
  10
356.86722
  20
402.09106
  0
SEQEND
  0
POLYLINE
  5
490
  8
Layer_0
  62
0
  70
1
  66
1
  10
0
  20
0
  30
0
  0
VERTEX
  5
490
  8
Layer_0
  10
659.27625
  20
375.99191
  0
VERTEX
  5
491
  8
Layer_0
  10
659.27625
  20
363.81598
  0
VERTEX
  5
492
  8
Layer_0
  10
658.98163
  20
363.28546
  0
VERTEX
  5
493
  8
Layer_0
  10
658.45081
  20
362.99194
  0
VERTEX
  5
494
  8
Layer_0
  10
646.09668
  20
362.99194
  0
VERTEX
  5
495
  8
Layer_0
  10
645.56836
  20
363.28546
  0
VERTEX
  5
496
  8
Layer_0
  10
645.27625
  20
363.81598
  0
VERTEX
  5
497
  8
Layer_0
  10
645.27625
  20
376.16968
  0
VERTEX
  5
498
  8
Layer_0
  10
645.56836
  20
376.7002
  0
VERTEX
  5
499
  8
Layer_0
  10
646.09668
  20
376.99231
  0
VERTEX
  5
49a
  8
Layer_0
  10
658.45081
  20
376.99231
  0
VERTEX
  5
49b
  8
Layer_0
  10
658.98163
  20
376.7002
  0
VERTEX
  5
49c
  8
Layer_0
  10
659.27625
  20
376.16968
  0
VERTEX
  5
49d
  8
Layer_0
  10
659.27625
  20
375.99191
  0
SEQEND
  0
POLYLINE
  5
49f
  8
Layer_0
  62
0
  70
1
  66
1
  10
0
  20
0
  30
0
  0
VERTEX
  5
49f
  8
Layer_0
  10
440.20801
  20
414.09033
  0
VERTEX
  5
4a0
  8
Layer_0
  10
440.20801
  20
414.26813
  0
VERTEX
  5
4a1
  8
Layer_0
  10
439.91437
  20
414.79874
  0
VERTEX
  5
4a2
  8
Layer_0
  10
439.38379
  20
415.09082
  0
VERTEX
  5
4a3
  8
Layer_0
  10
427.03043
  20
415.09082
  0
VERTEX
  5
4a4
  8
Layer_0
  10
426.50137
  20
414.79874
  0
VERTEX
  5
4a5
  8
Layer_0
  10
426.20929
  20
414.26813
  0
VERTEX
  5
4a6
  8
Layer_0
  10
426.20929
  20
401.91479
  0
VERTEX
  5
4a7
  8
Layer_0
  10
426.50137
  20
401.38422
  0
VERTEX
  5
4a8
  8
Layer_0
  10
427.03043
  20
401.09058
  0
VERTEX
  5
4a9
  8
Layer_0
  10
439.38379
  20
401.09058
  0
VERTEX
  5
4aa
  8
Layer_0
  10
439.91437
  20
401.38422
  0
VERTEX
  5
4ab
  8
Layer_0
  10
440.20801
  20
401.91479
  0
VERTEX
  5
4ac
  8
Layer_0
  10
440.20801
  20
414.09033
  0
SEQEND
  0
POLYLINE
  5
4ae
  8
Layer_0
  62
0
  70
1
  66
1
  10
0
  20
0
  30
0
  0
VERTEX
  5
4ae
  8
Layer_0
  10
640.22693
  20
452.189
  0
VERTEX
  5
4af
  8
Layer_0
  10
640.22693
  20
452.36679
  0
VERTEX
  5
4b0
  8
Layer_0
  10
639.93231
  20
452.8974
  0
VERTEX
  5
4b1
  8
Layer_0
  10
639.40149
  20
453.18948
  0
VERTEX
  5
4b2
  8
Layer_0
  10
627.04736
  20
453.18948
  0
VERTEX
  5
4b3
  8
Layer_0
  10
626.51904
  20
452.8974
  0
VERTEX
  5
4b4
  8
Layer_0
  10
626.22693
  20
452.36679
  0
VERTEX
  5
4b5
  8
Layer_0
  10
626.22693
  20
440.01343
  0
VERTEX
  5
4b6
  8
Layer_0
  10
626.51904
  20
439.48285
  0
VERTEX
  5
4b7
  8
Layer_0
  10
627.04736
  20
439.18924
  0
VERTEX
  5
4b8
  8
Layer_0
  10
639.40149
  20
439.18924
  0
VERTEX
  5
4b9
  8
Layer_0
  10
639.93231
  20
439.48285
  0
VERTEX
  5
4ba
  8
Layer_0
  10
640.22693
  20
440.01343
  0
VERTEX
  5
4bb
  8
Layer_0
  10
640.22693
  20
452.189
  0
SEQEND
  0
POLYLINE
  5
4bd
  8
Layer_0
  62
0
  70
1
  66
1
  10
0
  20
0
  30
0
  0
VERTEX
  5
4bd
  8
Layer_0
  10
540.21692
  20
452.189
  0
VERTEX
  5
4be
  8
Layer_0
  10
540.21692
  20
452.36679
  0
VERTEX
  5
4bf
  8
Layer_0
  10
539.92334
  20
452.8974
  0
VERTEX
  5
4c0
  8
Layer_0
  10
539.39276
  20
453.18948
  0
VERTEX
  5
4c1
  8
Layer_0
  10
527.03943
  20
453.18948
  0
VERTEX
  5
4c2
  8
Layer_0
  10
526.51031
  20
452.8974
  0
VERTEX
  5
4c3
  8
Layer_0
  10
526.21826
  20
452.36679
  0
VERTEX
  5
4c4
  8
Layer_0
  10
526.21826
  20
440.01343
  0
VERTEX
  5
4c5
  8
Layer_0
  10
526.51031
  20
439.48285
  0
VERTEX
  5
4c6
  8
Layer_0
  10
527.03943
  20
439.18924
  0
VERTEX
  5
4c7
  8
Layer_0
  10
539.39276
  20
439.18924
  0
VERTEX
  5
4c8
  8
Layer_0
  10
539.92334
  20
439.48285
  0
VERTEX
  5
4c9
  8
Layer_0
  10
540.21692
  20
440.01343
  0
VERTEX
  5
4ca
  8
Layer_0
  10
540.21692
  20
452.189
  0
SEQEND
  0
POLYLINE
  5
4cc
  8
Layer_0
  62
0
  70
1
  66
1
  10
0
  20
0
  30
0
  0
VERTEX
  5
4cc
  8
Layer_0
  10
410.63354
  20
382.04126
  0
VERTEX
  5
4cd
  8
Layer_0
  10
410.80981
  20
382.04126
  0
VERTEX
  5
4ce
  8
Layer_0
  10
411.34039
  20
382.33478
  0
VERTEX
  5
4cf
  8
Layer_0
  10
411.634
  20
382.8653
  0
VERTEX
  5
4d0
  8
Layer_0
  10
411.634
  20
395.21906
  0
VERTEX
  5
4d1
  8
Layer_0
  10
411.34039
  20
395.74939
  0
VERTEX
  5
4d2
  8
Layer_0
  10
410.80981
  20
396.0415
  0
VERTEX
  5
4d3
  8
Layer_0
  10
398.45645
  20
396.0415
  0
VERTEX
  5
4d4
  8
Layer_0
  10
397.9274
  20
395.74939
  0
VERTEX
  5
4d5
  8
Layer_0
  10
397.63531
  20
395.21906
  0
VERTEX
  5
4d6
  8
Layer_0
  10
397.63531
  20
382.8653
  0
VERTEX
  5
4d7
  8
Layer_0
  10
397.9274
  20
382.33478
  0
VERTEX
  5
4d8
  8
Layer_0
  10
398.45645
  20
382.04126
  0
VERTEX
  5
4d9
  8
Layer_0
  10
410.63354
  20
382.04126
  0
SEQEND
  0
POLYLINE
  5
4db
  8
Layer_0
  62
0
  70
1
  66
1
  10
0
  20
0
  30
0
  0
VERTEX
  5
4db
  8
Layer_0
  10
435.44568
  20
433.13968
  0
VERTEX
  5
4dc
  8
Layer_0
  10
435.44568
  20
420.96411
  0
VERTEX
  5
4dd
  8
Layer_0
  10
435.15204
  20
420.43353
  0
VERTEX
  5
4de
  8
Layer_0
  10
434.62146
  20
420.13989
  0
VERTEX
  5
4df
  8
Layer_0
  10
422.2681
  20
420.13989
  0
VERTEX
  5
4e0
  8
Layer_0
  10
421.73904
  20
420.43353
  0
VERTEX
  5
4e1
  8
Layer_0
  10
421.44696
  20
420.96411
  0
VERTEX
  5
4e2
  8
Layer_0
  10
421.44696
  20
433.31747
  0
VERTEX
  5
4e3
  8
Layer_0
  10
421.73904
  20
433.84805
  0
VERTEX
  5
4e4
  8
Layer_0
  10
422.2681
  20
434.14014
  0
VERTEX
  5
4e5
  8
Layer_0
  10
434.62146
  20
434.14014
  0
VERTEX
  5
4e6
  8
Layer_0
  10
435.15204
  20
433.84805
  0
VERTEX
  5
4e7
  8
Layer_0
  10
435.44568
  20
433.31747
  0
VERTEX
  5
4e8
  8
Layer_0
  10
435.44568
  20
433.13968
  0
SEQEND
  0
POLYLINE
  5
4ea
  8
Layer_0
  62
0
  70
1
  66
1
  10
0
  20
0
  30
0
  0
VERTEX
  5
4ea
  8
Layer_0
  10
467.78149
  20
396.0415
  0
VERTEX
  5
4eb
  8
Layer_0
  10
467.95779
  20
396.0415
  0
VERTEX
  5
4ec
  8
Layer_0
  10
468.48837
  20
395.74939
  0
VERTEX
  5
4ed
  8
Layer_0
  10
468.78198
  20
395.21906
  0
VERTEX
  5
4ee
  8
Layer_0
  10
468.78198
  20
382.8653
  0
VERTEX
  5
4ef
  8
Layer_0
  10
468.48837
  20
382.33478
  0
VERTEX
  5
4f0
  8
Layer_0
  10
467.95779
  20
382.04126
  0
VERTEX
  5
4f1
  8
Layer_0
  10
455.60443
  20
382.04126
  0
VERTEX
  5
4f2
  8
Layer_0
  10
455.07538
  20
382.33478
  0
VERTEX
  5
4f3
  8
Layer_0
  10
454.78326
  20
382.8653
  0
VERTEX
  5
4f4
  8
Layer_0
  10
454.78326
  20
395.21906
  0
VERTEX
  5
4f5
  8
Layer_0
  10
455.07538
  20
395.74939
  0
VERTEX
  5
4f6
  8
Layer_0
  10
455.60443
  20
396.0415
  0
VERTEX
  5
4f7
  8
Layer_0
  10
467.78149
  20
396.0415
  0
SEQEND
  0
POLYLINE
  5
4f9
  8
Layer_0
  62
0
  70
1
  66
1
  10
0
  20
0
  30
0
  0
VERTEX
  5
4f9
  8
Layer_0
  10
584.36517
  20
477.00113
  0
VERTEX
  5
4fa
  8
Layer_0
  10
584.18738
  20
477.00113
  0
VERTEX
  5
4fb
  8
Layer_0
  10
583.65833
  20
476.70905
  0
VERTEX
  5
4fc
  8
Layer_0
  10
583.36621
  20
476.17847
  0
VERTEX
  5
4fd
  8
Layer_0
  10
583.36621
  20
463.8251
  0
VERTEX
  5
4fe
  8
Layer_0
  10
583.65833
  20
463.29449
  0
VERTEX
  5
4ff
  8
Layer_0
  10
584.18738
  20
463.00089
  0
VERTEX
  5
500
  8
Layer_0
  10
596.54047
  20
463.00089
  0
VERTEX
  5
501
  8
Layer_0
  10
597.07129
  20
463.29449
  0
VERTEX
  5
502
  8
Layer_0
  10
597.36597
  20
463.8251
  0
VERTEX
  5
503
  8
Layer_0
  10
597.36597
  20
476.17847
  0
VERTEX
  5
504
  8
Layer_0
  10
597.07129
  20
476.70905
  0
VERTEX
  5
505
  8
Layer_0
  10
596.54047
  20
477.00113
  0
VERTEX
  5
506
  8
Layer_0
  10
584.36517
  20
477.00113
  0
SEQEND
  0
POLYLINE
  5
508
  8
Layer_0
  62
0
  70
1
  66
1
  10
0
  20
0
  30
0
  0
VERTEX
  5
508
  8
Layer_0
  10
473.54431
  20
433.13968
  0
VERTEX
  5
509
  8
Layer_0
  10
473.54431
  20
433.31747
  0
VERTEX
  5
50a
  8
Layer_0
  10
473.2507
  20
433.84805
  0
VERTEX
  5
50b
  8
Layer_0
  10
472.72012
  20
434.14014
  0
VERTEX
  5
50c
  8
Layer_0
  10
460.36676
  20
434.14014
  0
VERTEX
  5
50d
  8
Layer_0
  10
459.83771
  20
433.84805
  0
VERTEX
  5
50e
  8
Layer_0
  10
459.54559
  20
433.31747
  0
VERTEX
  5
50f
  8
Layer_0
  10
459.54559
  20
420.96411
  0
VERTEX
  5
510
  8
Layer_0
  10
459.83771
  20
420.43353
  0
VERTEX
  5
511
  8
Layer_0
  10
460.36676
  20
420.13989
  0
VERTEX
  5
512
  8
Layer_0
  10
472.72012
  20
420.13989
  0
VERTEX
  5
513
  8
Layer_0
  10
473.2507
  20
420.43353
  0
VERTEX
  5
514
  8
Layer_0
  10
473.54431
  20
420.96411
  0
VERTEX
  5
515
  8
Layer_0
  10
473.54431
  20
433.13968
  0
SEQEND
  0
POLYLINE
  5
517
  8
Layer_0
  62
0
  70
1
  66
1
  10
0
  20
0
  30
0
  0
VERTEX
  5
517
  8
Layer_0
  10
416.68463
  20
383.04169
  0
VERTEX
  5
518
  8
Layer_0
  10
416.68463
  20
395.21906
  0
VERTEX
  5
519
  8
Layer_0
  10
416.97672
  20
395.74939
  0
VERTEX
  5
51a
  8
Layer_0
  10
417.50577
  20
396.0415
  0
VERTEX
  5
51b
  8
Layer_0
  10
429.85913
  20
396.0415
  0
VERTEX
  5
51c
  8
Layer_0
  10
430.38971
  20
395.74939
  0
VERTEX
  5
51d
  8
Layer_0
  10
430.68335
  20
395.21906
  0
VERTEX
  5
51e
  8
Layer_0
  10
430.68335
  20
382.8653
  0
VERTEX
  5
51f
  8
Layer_0
  10
430.38971
  20
382.33478
  0
VERTEX
  5
520
  8
Layer_0
  10
429.85913
  20
382.04126
  0
VERTEX
  5
521
  8
Layer_0
  10
417.50577
  20
382.04126
  0
VERTEX
  5
522
  8
Layer_0
  10
416.97672
  20
382.33478
  0
VERTEX
  5
523
  8
Layer_0
  10
416.68463
  20
382.8653
  0
VERTEX
  5
524
  8
Layer_0
  10
416.68463
  20
383.04169
  0
SEQEND
  0
POLYLINE
  5
526
  8
Layer_0
  62
0
  70
1
  66
1
  10
0
  20
0
  30
0
  0
VERTEX
  5
526
  8
Layer_0
  10
645.27625
  20
464.00134
  0
VERTEX
  5
527
  8
Layer_0
  10
645.27625
  20
476.17847
  0
VERTEX
  5
528
  8
Layer_0
  10
645.56836
  20
476.70905
  0
VERTEX
  5
529
  8
Layer_0
  10
646.09668
  20
477.00113
  0
VERTEX
  5
52a
  8
Layer_0
  10
658.45081
  20
477.00113
  0
VERTEX
  5
52b
  8
Layer_0
  10
658.98163
  20
476.70905
  0
VERTEX
  5
52c
  8
Layer_0
  10
659.27625
  20
476.17847
  0
VERTEX
  5
52d
  8
Layer_0
  10
659.27625
  20
463.8251
  0
VERTEX
  5
52e
  8
Layer_0
  10
658.98163
  20
463.29449
  0
VERTEX
  5
52f
  8
Layer_0
  10
658.45081
  20
463.00089
  0
VERTEX
  5
530
  8
Layer_0
  10
646.09668
  20
463.00089
  0
VERTEX
  5
531
  8
Layer_0
  10
645.56836
  20
463.29449
  0
VERTEX
  5
532
  8
Layer_0
  10
645.27625
  20
463.8251
  0
VERTEX
  5
533
  8
Layer_0
  10
645.27625
  20
464.00134
  0
SEQEND
  0
POLYLINE
  5
535
  8
Layer_0
  62
0
  70
1
  66
1
  10
0
  20
0
  30
0
  0
VERTEX
  5
535
  8
Layer_0
  10
488.1196
  20
440.1897
  0
VERTEX
  5
536
  8
Layer_0
  10
488.1196
  20
440.01343
  0
VERTEX
  5
537
  8
Layer_0
  10
488.41168
  20
439.48285
  0
VERTEX
  5
538
  8
Layer_0
  10
488.94073
  20
439.18924
  0
VERTEX
  5
539
  8
Layer_0
  10
501.29413
  20
439.18924
  0
VERTEX
  5
53a
  8
Layer_0
  10
501.82471
  20
439.48285
  0
VERTEX
  5
53b
  8
Layer_0
  10
502.11829
  20
440.01343
  0
VERTEX
  5
53c
  8
Layer_0
  10
502.11829
  20
452.36679
  0
VERTEX
  5
53d
  8
Layer_0
  10
501.82471
  20
452.8974
  0
VERTEX
  5
53e
  8
Layer_0
  10
501.29413
  20
453.18948
  0
VERTEX
  5
53f
  8
Layer_0
  10
488.94073
  20
453.18948
  0
VERTEX
  5
540
  8
Layer_0
  10
488.41168
  20
452.8974
  0
VERTEX
  5
541
  8
Layer_0
  10
488.1196
  20
452.36679
  0
VERTEX
  5
542
  8
Layer_0
  10
488.1196
  20
440.1897
  0
SEQEND
  0
POLYLINE
  5
544
  8
Layer_0
  62
0
  70
1
  66
1
  10
0
  20
0
  30
0
  0
VERTEX
  5
544
  8
Layer_0
  10
491.59317
  20
420.13989
  0
VERTEX
  5
545
  8
Layer_0
  10
479.41608
  20
420.13989
  0
VERTEX
  5
546
  8
Layer_0
  10
478.88702
  20
420.43353
  0
VERTEX
  5
547
  8
Layer_0
  10
478.59491
  20
420.96411
  0
VERTEX
  5
548
  8
Layer_0
  10
478.59491
  20
433.31747
  0
VERTEX
  5
549
  8
Layer_0
  10
478.88702
  20
433.84805
  0
VERTEX
  5
54a
  8
Layer_0
  10
479.41608
  20
434.14014
  0
VERTEX
  5
54b
  8
Layer_0
  10
491.76944
  20
434.14014
  0
VERTEX
  5
54c
  8
Layer_0
  10
492.30005
  20
433.84805
  0
VERTEX
  5
54d
  8
Layer_0
  10
492.59363
  20
433.31747
  0
VERTEX
  5
54e
  8
Layer_0
  10
492.59363
  20
420.96411
  0
VERTEX
  5
54f
  8
Layer_0
  10
492.30005
  20
420.43353
  0
VERTEX
  5
550
  8
Layer_0
  10
491.76944
  20
420.13989
  0
VERTEX
  5
551
  8
Layer_0
  10
491.59317
  20
420.13989
  0
SEQEND
  0
POLYLINE
  5
553
  8
Layer_0
  62
0
  70
1
  66
1
  10
0
  20
0
  30
0
  0
VERTEX
  5
553
  8
Layer_0
  10
551.02881
  20
396.0415
  0
VERTEX
  5
554
  8
Layer_0
  10
563.20441
  20
396.0415
  0
VERTEX
  5
555
  8
Layer_0
  10
563.73499
  20
395.74939
  0
VERTEX
  5
556
  8
Layer_0
  10
564.02863
  20
395.21906
  0
VERTEX
  5
557
  8
Layer_0
  10
564.02863
  20
382.8653
  0
VERTEX
  5
558
  8
Layer_0
  10
563.73499
  20
382.33478
  0
VERTEX
  5
559
  8
Layer_0
  10
563.20441
  20
382.04126
  0
VERTEX
  5
55a
  8
Layer_0
  10
550.85107
  20
382.04126
  0
VERTEX
  5
55b
  8
Layer_0
  10
550.32202
  20
382.33478
  0
VERTEX
  5
55c
  8
Layer_0
  10
550.02991
  20
382.8653
  0
VERTEX
  5
55d
  8
Layer_0
  10
550.02991
  20
395.21906
  0
VERTEX
  5
55e
  8
Layer_0
  10
550.32202
  20
395.74939
  0
VERTEX
  5
55f
  8
Layer_0
  10
550.85107
  20
396.0415
  0
VERTEX
  5
560
  8
Layer_0
  10
551.02881
  20
396.0415
  0
SEQEND
  0
POLYLINE
  5
562
  8
Layer_0
  62
0
  70
1
  66
1
  10
0
  20
0
  30
0
  0
VERTEX
  5
562
  8
Layer_0
  10
626.22693
  20
375.99191
  0
VERTEX
  5
563
  8
Layer_0
  10
626.22693
  20
376.16968
  0
VERTEX
  5
564
  8
Layer_0
  10
626.51904
  20
376.7002
  0
VERTEX
  5
565
  8
Layer_0
  10
627.04736
  20
376.99231
  0
VERTEX
  5
566
  8
Layer_0
  10
639.40149
  20
376.99231
  0
VERTEX
  5
567
  8
Layer_0
  10
639.93231
  20
376.7002
  0
VERTEX
  5
568
  8
Layer_0
  10
640.22693
  20
376.16968
  0
VERTEX
  5
569
  8
Layer_0
  10
640.22693
  20
363.81598
  0
VERTEX
  5
56a
  8
Layer_0
  10
639.93231
  20
363.28546
  0
VERTEX
  5
56b
  8
Layer_0
  10
639.40149
  20
362.99194
  0
VERTEX
  5
56c
  8
Layer_0
  10
627.04736
  20
362.99194
  0
VERTEX
  5
56d
  8
Layer_0
  10
626.51904
  20
363.28546
  0
VERTEX
  5
56e
  8
Layer_0
  10
626.22693
  20
363.81598
  0
VERTEX
  5
56f
  8
Layer_0
  10
626.22693
  20
375.99191
  0
SEQEND
  0
POLYLINE
  5
571
  8
Layer_0
  62
0
  70
1
  66
1
  10
0
  20
0
  30
0
  0
VERTEX
  5
571
  8
Layer_0
  10
516.6936
  20
433.13968
  0
VERTEX
  5
572
  8
Layer_0
  10
516.6936
  20
433.31747
  0
VERTEX
  5
573
  8
Layer_0
  10
516.98566
  20
433.84805
  0
VERTEX
  5
574
  8
Layer_0
  10
517.51477
  20
434.14014
  0
VERTEX
  5
575
  8
Layer_0
  10
529.8681
  20
434.14014
  0
VERTEX
  5
576
  8
Layer_0
  10
530.39868
  20
433.84805
  0
VERTEX
  5
577
  8
Layer_0
  10
530.69226
  20
433.31747
  0
VERTEX
  5
578
  8
Layer_0
  10
530.69226
  20
420.96411
  0
VERTEX
  5
579
  8
Layer_0
  10
530.39868
  20
420.43353
  0
VERTEX
  5
57a
  8
Layer_0
  10
529.8681
  20
420.13989
  0
VERTEX
  5
57b
  8
Layer_0
  10
517.51477
  20
420.13989
  0
VERTEX
  5
57c
  8
Layer_0
  10
516.98566
  20
420.43353
  0
VERTEX
  5
57d
  8
Layer_0
  10
516.6936
  20
420.96411
  0
VERTEX
  5
57e
  8
Layer_0
  10
516.6936
  20
433.13968
  0
SEQEND
  0
POLYLINE
  5
580
  8
Layer_0
  62
0
  70
1
  66
1
  10
0
  20
0
  30
0
  0
VERTEX
  5
580
  8
Layer_0
  10
541.50415
  20
415.09082
  0
VERTEX
  5
581
  8
Layer_0
  10
553.67975
  20
415.09082
  0
VERTEX
  5
582
  8
Layer_0
  10
554.21033
  20
414.79874
  0
VERTEX
  5
583
  8
Layer_0
  10
554.50397
  20
414.26813
  0
VERTEX
  5
584
  8
Layer_0
  10
554.50397
  20
401.91479
  0
VERTEX
  5
585
  8
Layer_0
  10
554.21033
  20
401.38422
  0
VERTEX
  5
586
  8
Layer_0
  10
553.67975
  20
401.09058
  0
VERTEX
  5
587
  8
Layer_0
  10
541.32642
  20
401.09058
  0
VERTEX
  5
588
  8
Layer_0
  10
540.7973
  20
401.38422
  0
VERTEX
  5
589
  8
Layer_0
  10
540.50525
  20
401.91479
  0
VERTEX
  5
58a
  8
Layer_0
  10
540.50525
  20
414.26813
  0
VERTEX
  5
58b
  8
Layer_0
  10
540.7973
  20
414.79874
  0
VERTEX
  5
58c
  8
Layer_0
  10
541.32642
  20
415.09082
  0
VERTEX
  5
58d
  8
Layer_0
  10
541.50415
  20
415.09082
  0
SEQEND
  0
POLYLINE
  5
58f
  8
Layer_0
  62
0
  70
1
  66
1
  10
0
  20
0
  30
0
  0
VERTEX
  5
58f
  8
Layer_0
  10
530.69226
  20
464.00134
  0
VERTEX
  5
590
  8
Layer_0
  10
530.69226
  20
463.8251
  0
VERTEX
  5
591
  8
Layer_0
  10
530.39868
  20
463.29449
  0
VERTEX
  5
592
  8
Layer_0
  10
529.8681
  20
463.00089
  0
VERTEX
  5
593
  8
Layer_0
  10
517.51477
  20
463.00089
  0
VERTEX
  5
594
  8
Layer_0
  10
516.98566
  20
463.29449
  0
VERTEX
  5
595
  8
Layer_0
  10
516.6936
  20
463.8251
  0
VERTEX
  5
596
  8
Layer_0
  10
516.6936
  20
476.17847
  0
VERTEX
  5
597
  8
Layer_0
  10
516.98566
  20
476.70905
  0
VERTEX
  5
598
  8
Layer_0
  10
517.51477
  20
477.00113
  0
VERTEX
  5
599
  8
Layer_0
  10
529.8681
  20
477.00113
  0
VERTEX
  5
59a
  8
Layer_0
  10
530.39868
  20
476.70905
  0
VERTEX
  5
59b
  8
Layer_0
  10
530.69226
  20
476.17847
  0
VERTEX
  5
59c
  8
Layer_0
  10
530.69226
  20
464.00134
  0
SEQEND
  0
POLYLINE
  5
59e
  8
Layer_0
  62
0
  70
1
  66
1
  10
0
  20
0
  30
0
  0
VERTEX
  5
59e
  8
Layer_0
  10
639.2262
  20
477.00113
  0
VERTEX
  5
59f
  8
Layer_0
  10
639.40149
  20
477.00113
  0
VERTEX
  5
5a0
  8
Layer_0
  10
639.93231
  20
476.70905
  0
VERTEX
  5
5a1
  8
Layer_0
  10
640.22693
  20
476.17847
  0
VERTEX
  5
5a2
  8
Layer_0
  10
640.22693
  20
463.8251
  0
VERTEX
  5
5a3
  8
Layer_0
  10
639.93231
  20
463.29449
  0
VERTEX
  5
5a4
  8
Layer_0
  10
639.40149
  20
463.00089
  0
VERTEX
  5
5a5
  8
Layer_0
  10
627.04736
  20
463.00089
  0
VERTEX
  5
5a6
  8
Layer_0
  10
626.51904
  20
463.29449
  0
VERTEX
  5
5a7
  8
Layer_0
  10
626.22693
  20
463.8251
  0
VERTEX
  5
5a8
  8
Layer_0
  10
626.22693
  20
476.17847
  0
VERTEX
  5
5a9
  8
Layer_0
  10
626.51904
  20
476.70905
  0
VERTEX
  5
5aa
  8
Layer_0
  10
627.04736
  20
477.00113
  0
VERTEX
  5
5ab
  8
Layer_0
  10
639.2262
  20
477.00113
  0
SEQEND
  0
POLYLINE
  5
5ad
  8
Layer_0
  62
0
  70
1
  66
1
  10
0
  20
0
  30
0
  0
VERTEX
  5
5ad
  8
Layer_0
  10
379.58493
  20
382.04126
  0
VERTEX
  5
5ae
  8
Layer_0
  10
379.40714
  20
382.04126
  0
VERTEX
  5
5af
  8
Layer_0
  10
378.87805
  20
382.33478
  0
VERTEX
  5
5b0
  8
Layer_0
  10
378.58597
  20
382.8653
  0
VERTEX
  5
5b1
  8
Layer_0
  10
378.58597
  20
395.21906
  0
VERTEX
  5
5b2
  8
Layer_0
  10
378.87805
  20
395.74939
  0
VERTEX
  5
5b3
  8
Layer_0
  10
379.40714
  20
396.0415
  0
VERTEX
  5
5b4
  8
Layer_0
  10
391.7605
  20
396.0415
  0
VERTEX
  5
5b5
  8
Layer_0
  10
392.29108
  20
395.74939
  0
VERTEX
  5
5b6
  8
Layer_0
  10
392.58469
  20
395.21906
  0
VERTEX
  5
5b7
  8
Layer_0
  10
392.58469
  20
382.8653
  0
VERTEX
  5
5b8
  8
Layer_0
  10
392.29108
  20
382.33478
  0
VERTEX
  5
5b9
  8
Layer_0
  10
391.7605
  20
382.04126
  0
VERTEX
  5
5ba
  8
Layer_0
  10
379.58493
  20
382.04126
  0
SEQEND
  0
POLYLINE
  5
5bc
  8
Layer_0
  62
0
  70
1
  66
1
  10
0
  20
0
  30
0
  0
VERTEX
  5
5bc
  8
Layer_0
  10
483.06897
  20
375.99191
  0
VERTEX
  5
5bd
  8
Layer_0
  10
483.06897
  20
363.81598
  0
VERTEX
  5
5be
  8
Layer_0
  10
482.77536
  20
363.28546
  0
VERTEX
  5
5bf
  8
Layer_0
  10
482.24478
  20
362.99194
  0
VERTEX
  5
5c0
  8
Layer_0
  10
457.9856
  20
362.99194
  0
VERTEX
  5
5c1
  8
Layer_0
  10
457.45654
  20
363.28546
  0
VERTEX
  5
5c2
  8
Layer_0
  10
457.16443
  20
363.81598
  0
VERTEX
  5
5c3
  8
Layer_0
  10
457.16443
  20
376.16968
  0
VERTEX
  5
5c4
  8
Layer_0
  10
457.45654
  20
376.7002
  0
VERTEX
  5
5c5
  8
Layer_0
  10
457.9856
  20
376.99231
  0
VERTEX
  5
5c6
  8
Layer_0
  10
482.24478
  20
376.99231
  0
VERTEX
  5
5c7
  8
Layer_0
  10
482.77536
  20
376.7002
  0
VERTEX
  5
5c8
  8
Layer_0
  10
483.06897
  20
376.16968
  0
VERTEX
  5
5c9
  8
Layer_0
  10
483.06897
  20
375.99191
  0
SEQEND
  0
POLYLINE
  5
5cb
  8
Layer_0
  62
0
  70
1
  66
1
  10
0
  20
0
  30
0
  0
VERTEX
  5
5cb
  8
Layer_0
  10
336.72372
  20
477.00113
  0
VERTEX
  5
5cc
  8
Layer_0
  10
348.89969
  20
477.00113
  0
VERTEX
  5
5cd
  8
Layer_0
  10
349.43021
  20
476.70905
  0
VERTEX
  5
5ce
  8
Layer_0
  10
349.72369
  20
476.17847
  0
VERTEX
  5
5cf
  8
Layer_0
  10
349.72369
  20
463.8251
  0
VERTEX
  5
5d0
  8
Layer_0
  10
349.43021
  20
463.29449
  0
VERTEX
  5
5d1
  8
Layer_0
  10
348.89969
  20
463.00089
  0
VERTEX
  5
5d2
  8
Layer_0
  10
336.54599
  20
463.00089
  0
VERTEX
  5
5d3
  8
Layer_0
  10
336.01682
  20
463.29449
  0
VERTEX
  5
5d4
  8
Layer_0
  10
335.7247
  20
463.8251
  0
VERTEX
  5
5d5
  8
Layer_0
  10
335.7247
  20
476.17847
  0
VERTEX
  5
5d6
  8
Layer_0
  10
336.01682
  20
476.70905
  0
VERTEX
  5
5d7
  8
Layer_0
  10
336.54599
  20
477.00113
  0
VERTEX
  5
5d8
  8
Layer_0
  10
336.72372
  20
477.00113
  0
SEQEND
  0
POLYLINE
  5
5da
  8
Layer_0
  62
0
  70
1
  66
1
  10
0
  20
0
  30
0
  0
VERTEX
  5
5da
  8
Layer_0
  10
516.40527
  20
414.09033
  0
VERTEX
  5
5db
  8
Layer_0
  10
516.40527
  20
414.26813
  0
VERTEX
  5
5dc
  8
Layer_0
  10
516.11169
  20
414.79874
  0
VERTEX
  5
5dd
  8
Layer_0
  10
515.58112
  20
415.09082
  0
VERTEX
  5
5de
  8
Layer_0
  10
503.22772
  20
415.09082
  0
VERTEX
  5
5df
  8
Layer_0
  10
502.69867
  20
414.79874
  0
VERTEX
  5
5e0
  8
Layer_0
  10
502.40659
  20
414.26813
  0
VERTEX
  5
5e1
  8
Layer_0
  10
502.40659
  20
401.91479
  0
VERTEX
  5
5e2
  8
Layer_0
  10
502.69867
  20
401.38422
  0
VERTEX
  5
5e3
  8
Layer_0
  10
503.22772
  20
401.09058
  0
VERTEX
  5
5e4
  8
Layer_0
  10
515.58112
  20
401.09058
  0
VERTEX
  5
5e5
  8
Layer_0
  10
516.11169
  20
401.38422
  0
VERTEX
  5
5e6
  8
Layer_0
  10
516.40527
  20
401.91479
  0
VERTEX
  5
5e7
  8
Layer_0
  10
516.40527
  20
414.09033
  0
SEQEND
  0
POLYLINE
  5
5e9
  8
Layer_0
  62
0
  70
1
  66
1
  10
0
  20
0
  30
0
  0
VERTEX
  5
5e9
  8
Layer_0
  10
573.84155
  20
363.99237
  0
VERTEX
  5
5ea
  8
Layer_0
  10
573.84155
  20
376.16968
  0
VERTEX
  5
5eb
  8
Layer_0
  10
574.13367
  20
376.7002
  0
VERTEX
  5
5ec
  8
Layer_0
  10
574.66272
  20
376.99231
  0
VERTEX
  5
5ed
  8
Layer_0
  10
589.39825
  20
376.99231
  0
VERTEX
  5
5ee
  8
Layer_0
  10
589.92908
  20
376.7002
  0
VERTEX
  5
5ef
  8
Layer_0
  10
590.22119
  20
376.16968
  0
VERTEX
  5
5f0
  8
Layer_0
  10
590.22119
  20
363.81598
  0
VERTEX
  5
5f1
  8
Layer_0
  10
589.92908
  20
363.28546
  0
VERTEX
  5
5f2
  8
Layer_0
  10
589.39825
  20
362.99194
  0
VERTEX
  5
5f3
  8
Layer_0
  10
574.66272
  20
362.99194
  0
VERTEX
  5
5f4
  8
Layer_0
  10
574.13367
  20
363.28546
  0
VERTEX
  5
5f5
  8
Layer_0
  10
573.84155
  20
363.81598
  0
VERTEX
  5
5f6
  8
Layer_0
  10
573.84155
  20
363.99237
  0
SEQEND
  0
POLYLINE
  5
5f8
  8
Layer_0
  62
0
  70
1
  66
1
  10
0
  20
0
  30
0
  0
VERTEX
  5
5f8
  8
Layer_0
  10
535.74292
  20
421.14038
  0
VERTEX
  5
5f9
  8
Layer_0
  10
535.74292
  20
420.96411
  0
VERTEX
  5
5fa
  8
Layer_0
  10
536.03497
  20
420.43353
  0
VERTEX
  5
5fb
  8
Layer_0
  10
536.56409
  20
420.13989
  0
VERTEX
  5
5fc
  8
Layer_0
  10
548.91742
  20
420.13989
  0
VERTEX
  5
5fd
  8
Layer_0
  10
549.448
  20
420.43353
  0
VERTEX
  5
5fe
  8
Layer_0
  10
549.74158
  20
420.96411
  0
VERTEX
  5
5ff
  8
Layer_0
  10
549.74158
  20
433.31747
  0
VERTEX
  5
600
  8
Layer_0
  10
549.448
  20
433.84805
  0
VERTEX
  5
601
  8
Layer_0
  10
548.91742
  20
434.14014
  0
VERTEX
  5
602
  8
Layer_0
  10
536.56409
  20
434.14014
  0
VERTEX
  5
603
  8
Layer_0
  10
536.03497
  20
433.84805
  0
VERTEX
  5
604
  8
Layer_0
  10
535.74292
  20
433.31747
  0
VERTEX
  5
605
  8
Layer_0
  10
535.74292
  20
421.14038
  0
SEQEND
  0
POLYLINE
  5
607
  8
Layer_0
  62
0
  70
1
  66
1
  10
0
  20
0
  30
0
  0
VERTEX
  5
607
  8
Layer_0
  10
393.87192
  20
477.00113
  0
VERTEX
  5
608
  8
Layer_0
  10
393.69412
  20
477.00113
  0
VERTEX
  5
609
  8
Layer_0
  10
393.16507
  20
476.70905
  0
VERTEX
  5
60a
  8
Layer_0
  10
392.87299
  20
476.17847
  0
VERTEX
  5
60b
  8
Layer_0
  10
392.87299
  20
463.8251
  0
VERTEX
  5
60c
  8
Layer_0
  10
393.16507
  20
463.29449
  0
VERTEX
  5
60d
  8
Layer_0
  10
393.69412
  20
463.00089
  0
VERTEX
  5
60e
  8
Layer_0
  10
406.04749
  20
463.00089
  0
VERTEX
  5
60f
  8
Layer_0
  10
406.57806
  20
463.29449
  0
VERTEX
  5
610
  8
Layer_0
  10
406.87167
  20
463.8251
  0
VERTEX
  5
611
  8
Layer_0
  10
406.87167
  20
476.17847
  0
VERTEX
  5
612
  8
Layer_0
  10
406.57806
  20
476.70905
  0
VERTEX
  5
613
  8
Layer_0
  10
406.04749
  20
477.00113
  0
VERTEX
  5
614
  8
Layer_0
  10
393.87192
  20
477.00113
  0
SEQEND
  0
POLYLINE
  5
616
  8
Layer_0
  62
0
  70
1
  66
1
  10
0
  20
0
  30
0
  0
VERTEX
  5
616
  8
Layer_0
  10
389.10959
  20
415.09082
  0
VERTEX
  5
617
  8
Layer_0
  10
401.28516
  20
415.09082
  0
VERTEX
  5
618
  8
Layer_0
  10
401.81573
  20
414.79874
  0
VERTEX
  5
619
  8
Layer_0
  10
402.10934
  20
414.26813
  0
VERTEX
  5
61a
  8
Layer_0
  10
402.10934
  20
401.91479
  0
VERTEX
  5
61b
  8
Layer_0
  10
401.81573
  20
401.38422
  0
VERTEX
  5
61c
  8
Layer_0
  10
401.28516
  20
401.09058
  0
VERTEX
  5
61d
  8
Layer_0
  10
388.93179
  20
401.09058
  0
VERTEX
  5
61e
  8
Layer_0
  10
388.40271
  20
401.38422
  0
VERTEX
  5
61f
  8
Layer_0
  10
388.11063
  20
401.91479
  0
VERTEX
  5
620
  8
Layer_0
  10
388.11063
  20
414.26813
  0
VERTEX
  5
621
  8
Layer_0
  10
388.40271
  20
414.79874
  0
VERTEX
  5
622
  8
Layer_0
  10
388.93179
  20
415.09082
  0
VERTEX
  5
623
  8
Layer_0
  10
389.10959
  20
415.09082
  0
SEQEND
  0
POLYLINE
  5
625
  8
Layer_0
  62
0
  70
1
  66
1
  10
0
  20
0
  30
0
  0
VERTEX
  5
625
  8
Layer_0
  10
659.27625
  20
440.1897
  0
VERTEX
  5
626
  8
Layer_0
  10
659.27625
  20
440.01343
  0
VERTEX
  5
627
  8
Layer_0
  10
658.98163
  20
439.48285
  0
VERTEX
  5
628
  8
Layer_0
  10
658.45081
  20
439.18924
  0
VERTEX
  5
629
  8
Layer_0
  10
646.09668
  20
439.18924
  0
VERTEX
  5
62a
  8
Layer_0
  10
645.56836
  20
439.48285
  0
VERTEX
  5
62b
  8
Layer_0
  10
645.27625
  20
440.01343
  0
VERTEX
  5
62c
  8
Layer_0
  10
645.27625
  20
452.36679
  0
VERTEX
  5
62d
  8
Layer_0
  10
645.56836
  20
452.8974
  0
VERTEX
  5
62e
  8
Layer_0
  10
646.09668
  20
453.18948
  0
VERTEX
  5
62f
  8
Layer_0
  10
658.45081
  20
453.18948
  0
VERTEX
  5
630
  8
Layer_0
  10
658.98163
  20
452.8974
  0
VERTEX
  5
631
  8
Layer_0
  10
659.27625
  20
452.36679
  0
VERTEX
  5
632
  8
Layer_0
  10
659.27625
  20
440.1897
  0
SEQEND
  0
POLYLINE
  5
634
  8
Layer_0
  62
0
  70
1
  66
1
  10
0
  20
0
  30
0
  0
VERTEX
  5
634
  8
Layer_0
  10
640.22693
  20
433.13968
  0
VERTEX
  5
635
  8
Layer_0
  10
640.22693
  20
433.31747
  0
VERTEX
  5
636
  8
Layer_0
  10
639.93231
  20
433.84805
  0
VERTEX
  5
637
  8
Layer_0
  10
639.40149
  20
434.14014
  0
VERTEX
  5
638
  8
Layer_0
  10
627.04736
  20
434.14014
  0
VERTEX
  5
639
  8
Layer_0
  10
626.51904
  20
433.84805
  0
VERTEX
  5
63a
  8
Layer_0
  10
626.22693
  20
433.31747
  0
VERTEX
  5
63b
  8
Layer_0
  10
626.22693
  20
420.96411
  0
VERTEX
  5
63c
  8
Layer_0
  10
626.51904
  20
420.43353
  0
VERTEX
  5
63d
  8
Layer_0
  10
627.04736
  20
420.13989
  0
VERTEX
  5
63e
  8
Layer_0
  10
639.40149
  20
420.13989
  0
VERTEX
  5
63f
  8
Layer_0
  10
639.93231
  20
420.43353
  0
VERTEX
  5
640
  8
Layer_0
  10
640.22693
  20
420.96411
  0
VERTEX
  5
641
  8
Layer_0
  10
640.22693
  20
433.13968
  0
SEQEND
  0
POLYLINE
  5
643
  8
Layer_0
  62
0
  70
1
  66
1
  10
0
  20
0
  30
0
  0
VERTEX
  5
643
  8
Layer_0
  10
396.34656
  20
420.13989
  0
VERTEX
  5
644
  8
Layer_0
  10
384.16946
  20
420.13989
  0
VERTEX
  5
645
  8
Layer_0
  10
383.64038
  20
420.43353
  0
VERTEX
  5
646
  8
Layer_0
  10
383.3483
  20
420.96411
  0
VERTEX
  5
647
  8
Layer_0
  10
383.3483
  20
433.31747
  0
VERTEX
  5
648
  8
Layer_0
  10
383.64038
  20
433.84805
  0
VERTEX
  5
649
  8
Layer_0
  10
384.16946
  20
434.14014
  0
VERTEX
  5
64a
  8
Layer_0
  10
396.52283
  20
434.14014
  0
VERTEX
  5
64b
  8
Layer_0
  10
397.05341
  20
433.84805
  0
VERTEX
  5
64c
  8
Layer_0
  10
397.34702
  20
433.31747
  0
VERTEX
  5
64d
  8
Layer_0
  10
397.34702
  20
420.96411
  0
VERTEX
  5
64e
  8
Layer_0
  10
397.05341
  20
420.43353
  0
VERTEX
  5
64f
  8
Layer_0
  10
396.52283
  20
420.13989
  0
VERTEX
  5
650
  8
Layer_0
  10
396.34656
  20
420.13989
  0
SEQEND
  0
POLYLINE
  5
652
  8
Layer_0
  62
0
  70
1
  66
1
  10
0
  20
0
  30
0
  0
VERTEX
  5
652
  8
Layer_0
  10
603.41345
  20
463.00089
  0
VERTEX
  5
653
  8
Layer_0
  10
603.23572
  20
463.00089
  0
VERTEX
  5
654
  8
Layer_0
  10
602.7074
  20
463.29449
  0
VERTEX
  5
655
  8
Layer_0
  10
602.41528
  20
463.8251
  0
VERTEX
  5
656
  8
Layer_0
  10
602.41528
  20
476.17847
  0
VERTEX
  5
657
  8
Layer_0
  10
602.7074
  20
476.70905
  0
VERTEX
  5
658
  8
Layer_0
  10
603.23572
  20
477.00113
  0
VERTEX
  5
659
  8
Layer_0
  10
615.58978
  20
477.00113
  0
VERTEX
  5
65a
  8
Layer_0
  10
616.12061
  20
476.70905
  0
VERTEX
  5
65b
  8
Layer_0
  10
616.41528
  20
476.17847
  0
VERTEX
  5
65c
  8
Layer_0
  10
616.41528
  20
463.8251
  0
VERTEX
  5
65d
  8
Layer_0
  10
616.12061
  20
463.29449
  0
VERTEX
  5
65e
  8
Layer_0
  10
615.58978
  20
463.00089
  0
VERTEX
  5
65f
  8
Layer_0
  10
603.41345
  20
463.00089
  0
SEQEND
  0
POLYLINE
  5
661
  8
Layer_0
  62
0
  70
1
  66
1
  10
0
  20
0
  30
0
  0
VERTEX
  5
661
  8
Layer_0
  10
377.29721
  20
362.99194
  0
VERTEX
  5
662
  8
Layer_0
  10
362.73871
  20
362.99194
  0
VERTEX
  5
663
  8
Layer_0
  10
362.20966
  20
363.28546
  0
VERTEX
  5
664
  8
Layer_0
  10
361.91757
  20
363.81598
  0
VERTEX
  5
665
  8
Layer_0
  10
361.91757
  20
376.16968
  0
VERTEX
  5
666
  8
Layer_0
  10
362.20966
  20
376.7002
  0
VERTEX
  5
667
  8
Layer_0
  10
362.73871
  20
376.99231
  0
VERTEX
  5
668
  8
Layer_0
  10
377.47348
  20
376.99231
  0
VERTEX
  5
669
  8
Layer_0
  10
378.00409
  20
376.7002
  0
VERTEX
  5
66a
  8
Layer_0
  10
378.2977
  20
376.16968
  0
VERTEX
  5
66b
  8
Layer_0
  10
378.2977
  20
363.81598
  0
VERTEX
  5
66c
  8
Layer_0
  10
378.00409
  20
363.28546
  0
VERTEX
  5
66d
  8
Layer_0
  10
377.47348
  20
362.99194
  0
VERTEX
  5
66e
  8
Layer_0
  10
377.29721
  20
362.99194
  0
SEQEND
  0
POLYLINE
  5
670
  8
Layer_0
  62
0
  70
1
  66
1
  10
0
  20
0
  30
0
  0
VERTEX
  5
670
  8
Layer_0
  10
353.48563
  20
420.13989
  0
VERTEX
  5
671
  8
Layer_0
  10
341.30829
  20
420.13989
  0
VERTEX
  5
672
  8
Layer_0
  10
340.77917
  20
420.43353
  0
VERTEX
  5
673
  8
Layer_0
  10
340.48706
  20
420.96411
  0
VERTEX
  5
674
  8
Layer_0
  10
340.48706
  20
433.31747
  0
VERTEX
  5
675
  8
Layer_0
  10
340.77917
  20
433.84805
  0
VERTEX
  5
676
  8
Layer_0
  10
341.30829
  20
434.14014
  0
VERTEX
  5
677
  8
Layer_0
  10
353.66202
  20
434.14014
  0
VERTEX
  5
678
  8
Layer_0
  10
354.19254
  20
433.84805
  0
VERTEX
  5
679
  8
Layer_0
  10
354.48605
  20
433.31747
  0
VERTEX
  5
67a
  8
Layer_0
  10
354.48605
  20
420.96411
  0
VERTEX
  5
67b
  8
Layer_0
  10
354.19254
  20
420.43353
  0
VERTEX
  5
67c
  8
Layer_0
  10
353.66202
  20
420.13989
  0
VERTEX
  5
67d
  8
Layer_0
  10
353.48563
  20
420.13989
  0
SEQEND
  0
POLYLINE
  5
67f
  8
Layer_0
  62
0
  70
1
  66
1
  10
0
  20
0
  30
0
  0
VERTEX
  5
67f
  8
Layer_0
  10
566.40979
  20
375.99191
  0
VERTEX
  5
680
  8
Layer_0
  10
566.40979
  20
363.81598
  0
VERTEX
  5
681
  8
Layer_0
  10
566.11615
  20
363.28546
  0
VERTEX
  5
682
  8
Layer_0
  10
565.58557
  20
362.99194
  0
VERTEX
  5
683
  8
Layer_0
  10
550.85107
  20
362.99194
  0
VERTEX
  5
684
  8
Layer_0
  10
550.32202
  20
363.28546
  0
VERTEX
  5
685
  8
Layer_0
  10
550.02991
  20
363.81598
  0
VERTEX
  5
686
  8
Layer_0
  10
550.02991
  20
376.16968
  0
VERTEX
  5
687
  8
Layer_0
  10
550.32202
  20
376.7002
  0
VERTEX
  5
688
  8
Layer_0
  10
550.85107
  20
376.99231
  0
VERTEX
  5
689
  8
Layer_0
  10
565.58557
  20
376.99231
  0
VERTEX
  5
68a
  8
Layer_0
  10
566.11615
  20
376.7002
  0
VERTEX
  5
68b
  8
Layer_0
  10
566.40979
  20
376.16968
  0
VERTEX
  5
68c
  8
Layer_0
  10
566.40979
  20
375.99191
  0
SEQEND
  0
POLYLINE
  5
68e
  8
Layer_0
  62
0
  70
1
  66
1
  10
0
  20
0
  30
0
  0
VERTEX
  5
68e
  8
Layer_0
  10
424.92053
  20
463.00089
  0
VERTEX
  5
68f
  8
Layer_0
  10
425.0968
  20
463.00089
  0
VERTEX
  5
690
  8
Layer_0
  10
425.62738
  20
463.29449
  0
VERTEX
  5
691
  8
Layer_0
  10
425.92102
  20
463.8251
  0
VERTEX
  5
692
  8
Layer_0
  10
425.92102
  20
476.17847
  0
VERTEX
  5
693
  8
Layer_0
  10
425.62738
  20
476.70905
  0
VERTEX
  5
694
  8
Layer_0
  10
425.0968
  20
477.00113
  0
VERTEX
  5
695
  8
Layer_0
  10
412.74344
  20
477.00113
  0
VERTEX
  5
696
  8
Layer_0
  10
412.21439
  20
476.70905
  0
VERTEX
  5
697
  8
Layer_0
  10
411.9223
  20
476.17847
  0
VERTEX
  5
698
  8
Layer_0
  10
411.9223
  20
463.8251
  0
VERTEX
  5
699
  8
Layer_0
  10
412.21439
  20
463.29449
  0
VERTEX
  5
69a
  8
Layer_0
  10
412.74344
  20
463.00089
  0
VERTEX
  5
69b
  8
Layer_0
  10
424.92053
  20
463.00089
  0
SEQEND
  0
POLYLINE
  5
69d
  8
Layer_0
  62
0
  70
1
  66
1
  10
0
  20
0
  30
0
  0
VERTEX
  5
69d
  8
Layer_0
  10
483.06897
  20
452.189
  0
VERTEX
  5
69e
  8
Layer_0
  10
483.06897
  20
452.36679
  0
VERTEX
  5
69f
  8
Layer_0
  10
482.77536
  20
452.8974
  0
VERTEX
  5
6a0
  8
Layer_0
  10
482.24478
  20
453.18948
  0
VERTEX
  5
6a1
  8
Layer_0
  10
469.89142
  20
453.18948
  0
VERTEX
  5
6a2
  8
Layer_0
  10
469.36237
  20
452.8974
  0
VERTEX
  5
6a3
  8
Layer_0
  10
469.07025
  20
452.36679
  0
VERTEX
  5
6a4
  8
Layer_0
  10
469.07025
  20
440.01343
  0
VERTEX
  5
6a5
  8
Layer_0
  10
469.36237
  20
439.48285
  0
VERTEX
  5
6a6
  8
Layer_0
  10
469.89142
  20
439.18924
  0
VERTEX
  5
6a7
  8
Layer_0
  10
482.24478
  20
439.18924
  0
VERTEX
  5
6a8
  8
Layer_0
  10
482.77536
  20
439.48285
  0
VERTEX
  5
6a9
  8
Layer_0
  10
483.06897
  20
440.01343
  0
VERTEX
  5
6aa
  8
Layer_0
  10
483.06897
  20
452.189
  0
SEQEND
  0
POLYLINE
  5
6ac
  8
Layer_0
  62
0
  70
1
  66
1
  10
0
  20
0
  30
0
  0
VERTEX
  5
6ac
  8
Layer_0
  10
568.79095
  20
433.13968
  0
VERTEX
  5
6ad
  8
Layer_0
  10
568.79095
  20
433.31747
  0
VERTEX
  5
6ae
  8
Layer_0
  10
568.49731
  20
433.84805
  0
VERTEX
  5
6af
  8
Layer_0
  10
567.96674
  20
434.14014
  0
VERTEX
  5
6b0
  8
Layer_0
  10
555.6134
  20
434.14014
  0
VERTEX
  5
6b1
  8
Layer_0
  10
555.08435
  20
433.84805
  0
VERTEX
  5
6b2
  8
Layer_0
  10
554.79224
  20
433.31747
  0
VERTEX
  5
6b3
  8
Layer_0
  10
554.79224
  20
420.96411
  0
VERTEX
  5
6b4
  8
Layer_0
  10
555.08435
  20
420.43353
  0
VERTEX
  5
6b5
  8
Layer_0
  10
555.6134
  20
420.13989
  0
VERTEX
  5
6b6
  8
Layer_0
  10
567.96674
  20
420.13989
  0
VERTEX
  5
6b7
  8
Layer_0
  10
568.49731
  20
420.43353
  0
VERTEX
  5
6b8
  8
Layer_0
  10
568.79095
  20
420.96411
  0
VERTEX
  5
6b9
  8
Layer_0
  10
568.79095
  20
433.13968
  0
SEQEND
  0
ENDSEC
  0
EOF
