G04 #@! TF.GenerationSoftware,KiCad,Pcbnew,(5.1.4)-1*
G04 #@! TF.CreationDate,2019-10-29T16:25:08-04:00*
G04 #@! TF.ProjectId,mysterium-bottom,6d797374-6572-4697-956d-2d626f74746f,rev?*
G04 #@! TF.SameCoordinates,Original*
G04 #@! TF.FileFunction,Copper,L2,Bot*
G04 #@! TF.FilePolarity,Positive*
%FSLAX46Y46*%
G04 Gerber Fmt 4.6, Leading zero omitted, Abs format (unit mm)*
G04 Created by KiCad (PCBNEW (5.1.4)-1) date 2019-10-29 16:25:08*
%MOMM*%
%LPD*%
G04 APERTURE LIST*
%ADD10C,0.200000*%
%ADD11C,0.150000*%
%ADD12C,0.010000*%
%ADD13C,4.700000*%
%ADD14C,8.600000*%
%ADD15C,4.400000*%
%ADD16C,0.254000*%
G04 APERTURE END LIST*
D10*
X119833114Y-155494704D02*
X119975971Y-155613752D01*
X120261685Y-155613752D01*
X120404542Y-155494704D01*
X120475971Y-155375657D01*
X120547400Y-155137561D01*
X120547400Y-154423276D01*
X120475971Y-154185180D01*
X120404542Y-154066133D01*
X120261685Y-153947085D01*
X119975971Y-153947085D01*
X119833114Y-154066133D01*
X118975971Y-155613752D02*
X119118828Y-155494704D01*
X119190257Y-155375657D01*
X119261685Y-155137561D01*
X119261685Y-154423276D01*
X119190257Y-154185180D01*
X119118828Y-154066133D01*
X118975971Y-153947085D01*
X118761685Y-153947085D01*
X118618828Y-154066133D01*
X118547400Y-154185180D01*
X118475971Y-154423276D01*
X118475971Y-155137561D01*
X118547400Y-155375657D01*
X118618828Y-155494704D01*
X118761685Y-155613752D01*
X118975971Y-155613752D01*
X117904542Y-155494704D02*
X117761685Y-155613752D01*
X117475971Y-155613752D01*
X117333114Y-155494704D01*
X117261685Y-155256609D01*
X117261685Y-155137561D01*
X117333114Y-154899466D01*
X117475971Y-154780419D01*
X117690257Y-154780419D01*
X117833114Y-154661371D01*
X117904542Y-154423276D01*
X117904542Y-154304228D01*
X117833114Y-154066133D01*
X117690257Y-153947085D01*
X117475971Y-153947085D01*
X117333114Y-154066133D01*
X116047400Y-155494704D02*
X116190257Y-155613752D01*
X116475971Y-155613752D01*
X116618828Y-155494704D01*
X116690257Y-155256609D01*
X116690257Y-154304228D01*
X116618828Y-154066133D01*
X116475971Y-153947085D01*
X116190257Y-153947085D01*
X116047400Y-154066133D01*
X115975971Y-154304228D01*
X115975971Y-154542323D01*
X116690257Y-154780419D01*
X115475971Y-153947085D02*
X115118828Y-155613752D01*
X114761685Y-153947085D02*
X115118828Y-155613752D01*
X115261685Y-156208990D01*
X115333114Y-156328038D01*
X115475971Y-156447085D01*
X114404542Y-153947085D02*
X113833114Y-153947085D01*
X114190257Y-155613752D02*
X114190257Y-153470895D01*
X114118828Y-153232800D01*
X113975971Y-153113752D01*
X113833114Y-153113752D01*
X112690257Y-155613752D02*
X112690257Y-154304228D01*
X112761685Y-154066133D01*
X112904542Y-153947085D01*
X113190257Y-153947085D01*
X113333114Y-154066133D01*
X112690257Y-155494704D02*
X112833114Y-155613752D01*
X113190257Y-155613752D01*
X113333114Y-155494704D01*
X113404542Y-155256609D01*
X113404542Y-155018514D01*
X113333114Y-154780419D01*
X113190257Y-154661371D01*
X112833114Y-154661371D01*
X112690257Y-154542323D01*
X111975971Y-153947085D02*
X111975971Y-155613752D01*
X111975971Y-154185180D02*
X111904542Y-154066133D01*
X111761685Y-153947085D01*
X111547400Y-153947085D01*
X111404542Y-154066133D01*
X111333114Y-154304228D01*
X111333114Y-155613752D01*
X110618828Y-153947085D02*
X110618828Y-155613752D01*
X110618828Y-154185180D02*
X110547400Y-154066133D01*
X110404542Y-153947085D01*
X110190257Y-153947085D01*
X110047400Y-154066133D01*
X109975971Y-154304228D01*
X109975971Y-155613752D01*
X109261685Y-155613752D02*
X109261685Y-153947085D01*
X109261685Y-153113752D02*
X109333114Y-153232800D01*
X109261685Y-153351847D01*
X109190257Y-153232800D01*
X109261685Y-153113752D01*
X109261685Y-153351847D01*
X108761685Y-153947085D02*
X108190257Y-153947085D01*
X108547400Y-153113752D02*
X108547400Y-155256609D01*
X108475971Y-155494704D01*
X108333114Y-155613752D01*
X108190257Y-155613752D01*
X107047400Y-153947085D02*
X107047400Y-155613752D01*
X107690257Y-153947085D02*
X107690257Y-155256609D01*
X107618828Y-155494704D01*
X107475971Y-155613752D01*
X107261685Y-155613752D01*
X107118828Y-155494704D01*
X107047400Y-155375657D01*
X106547400Y-153947085D02*
X105975971Y-153947085D01*
X106333114Y-153113752D02*
X106333114Y-155256609D01*
X106261685Y-155494704D01*
X106118828Y-155613752D01*
X105975971Y-155613752D01*
X105690257Y-153947085D02*
X105118828Y-153947085D01*
X105475971Y-153113752D02*
X105475971Y-155256609D01*
X105404542Y-155494704D01*
X105261685Y-155613752D01*
X105118828Y-155613752D01*
X104618828Y-155613752D02*
X104618828Y-153947085D01*
X104618828Y-153113752D02*
X104690257Y-153232800D01*
X104618828Y-153351847D01*
X104547400Y-153232800D01*
X104618828Y-153113752D01*
X104618828Y-153351847D01*
D11*
X384213099Y-204169841D02*
G75*
G02X380909040Y-207479900I-3307059J-3000D01*
G01*
X380903041Y-60863401D02*
G75*
G02X384213100Y-64167460I3000J-3307059D01*
G01*
X36550601Y-64173459D02*
G75*
G02X39854660Y-60863400I3307059J3000D01*
G01*
X39860659Y-207479899D02*
G75*
G02X36550600Y-204175840I-3000J3307059D01*
G01*
X384213100Y-64167460D02*
X384213099Y-204169841D01*
X380909040Y-207479900D02*
X39860659Y-207479899D01*
X36550600Y-204175840D02*
X36550601Y-64173459D01*
X39854660Y-60863400D02*
X380903041Y-60863400D01*
D12*
G36*
X122749734Y-155928577D02*
G01*
X123319117Y-155926400D01*
X123888500Y-155924224D01*
X123888500Y-155517824D01*
X122749734Y-155513472D01*
X122749734Y-154853191D01*
X123469401Y-154853191D01*
X123469401Y-154421391D01*
X122749734Y-154421391D01*
X122749734Y-153744177D01*
X123319117Y-153742000D01*
X123888500Y-153739824D01*
X123890763Y-153526041D01*
X123893025Y-153312258D01*
X122749734Y-153312258D01*
X122749734Y-152694191D01*
X122309467Y-152694191D01*
X122309467Y-153312258D01*
X121174934Y-153312258D01*
X121174934Y-153744057D01*
X122309467Y-153744057D01*
X122309467Y-154421391D01*
X121598267Y-154421391D01*
X121598267Y-154853191D01*
X122309467Y-154853191D01*
X122309467Y-155513591D01*
X121174934Y-155513591D01*
X121174934Y-155928457D01*
X122309248Y-155928457D01*
X122313700Y-156516891D01*
X122531717Y-156519150D01*
X122749734Y-156521410D01*
X122749734Y-155928577D01*
X122749734Y-155928577D01*
G37*
X122749734Y-155928577D02*
X123319117Y-155926400D01*
X123888500Y-155924224D01*
X123888500Y-155517824D01*
X122749734Y-155513472D01*
X122749734Y-154853191D01*
X123469401Y-154853191D01*
X123469401Y-154421391D01*
X122749734Y-154421391D01*
X122749734Y-153744177D01*
X123319117Y-153742000D01*
X123888500Y-153739824D01*
X123890763Y-153526041D01*
X123893025Y-153312258D01*
X122749734Y-153312258D01*
X122749734Y-152694191D01*
X122309467Y-152694191D01*
X122309467Y-153312258D01*
X121174934Y-153312258D01*
X121174934Y-153744057D01*
X122309467Y-153744057D01*
X122309467Y-154421391D01*
X121598267Y-154421391D01*
X121598267Y-154853191D01*
X122309467Y-154853191D01*
X122309467Y-155513591D01*
X121174934Y-155513591D01*
X121174934Y-155928457D01*
X122309248Y-155928457D01*
X122313700Y-156516891D01*
X122531717Y-156519150D01*
X122749734Y-156521410D01*
X122749734Y-155928577D01*
D13*
X333349351Y-169871649D02*
X87489351Y-169871649D01*
X333349351Y-98471649D02*
X87489351Y-98471649D01*
X87489351Y-98471649D02*
G75*
G03X87489351Y-169871649I0J-35700000D01*
G01*
X333349351Y-169871649D02*
G75*
G03X333349351Y-98471649I0J35700000D01*
G01*
D12*
G36*
X123922352Y-124530650D02*
G01*
X123019417Y-124794770D01*
X122666370Y-125028334D01*
X122392219Y-125475619D01*
X121933980Y-126419876D01*
X121330719Y-127771958D01*
X120621502Y-129442720D01*
X119845396Y-131343017D01*
X119333917Y-132632655D01*
X118554632Y-134607262D01*
X117841936Y-136388283D01*
X117230117Y-137892030D01*
X116753463Y-139034817D01*
X116446261Y-139732958D01*
X116352070Y-139910551D01*
X116177866Y-139701825D01*
X115804487Y-138984279D01*
X115265412Y-137831501D01*
X114594123Y-136317082D01*
X113824098Y-134514612D01*
X113070761Y-132698205D01*
X112222118Y-130655866D01*
X111424804Y-128796067D01*
X110716173Y-127201322D01*
X110133576Y-125954150D01*
X109714367Y-125137066D01*
X109514790Y-124842637D01*
X108844997Y-124577381D01*
X107875989Y-124463460D01*
X106856006Y-124498404D01*
X106033290Y-124679738D01*
X105717216Y-124880465D01*
X105605554Y-125246563D01*
X105521534Y-126064790D01*
X105464187Y-127369799D01*
X105432547Y-129196247D01*
X105425645Y-131578788D01*
X105442514Y-134552076D01*
X105443634Y-134679848D01*
X105526758Y-144049427D01*
X108035400Y-144049427D01*
X108348980Y-127122573D01*
X111786139Y-135664395D01*
X115223297Y-144206217D01*
X117543937Y-144206217D01*
X119968300Y-138013007D01*
X120753826Y-136006520D01*
X121520123Y-134049499D01*
X122216620Y-132271071D01*
X122792746Y-130800363D01*
X123197930Y-129766500D01*
X123238075Y-129664123D01*
X124083487Y-127508449D01*
X124290925Y-132301018D01*
X124368707Y-134358949D01*
X124433196Y-136562101D01*
X124478314Y-138665829D01*
X124497983Y-140425489D01*
X124498363Y-140649902D01*
X124498363Y-144206217D01*
X127007005Y-144206217D01*
X127007005Y-134704736D01*
X126999490Y-131766103D01*
X126975811Y-129409920D01*
X126934274Y-127591639D01*
X126873180Y-126266717D01*
X126790833Y-125390608D01*
X126685535Y-124918768D01*
X126630709Y-124826958D01*
X125981014Y-124533891D01*
X124993890Y-124439406D01*
X123922352Y-124530650D01*
X123922352Y-124530650D01*
G37*
X123922352Y-124530650D02*
X123019417Y-124794770D01*
X122666370Y-125028334D01*
X122392219Y-125475619D01*
X121933980Y-126419876D01*
X121330719Y-127771958D01*
X120621502Y-129442720D01*
X119845396Y-131343017D01*
X119333917Y-132632655D01*
X118554632Y-134607262D01*
X117841936Y-136388283D01*
X117230117Y-137892030D01*
X116753463Y-139034817D01*
X116446261Y-139732958D01*
X116352070Y-139910551D01*
X116177866Y-139701825D01*
X115804487Y-138984279D01*
X115265412Y-137831501D01*
X114594123Y-136317082D01*
X113824098Y-134514612D01*
X113070761Y-132698205D01*
X112222118Y-130655866D01*
X111424804Y-128796067D01*
X110716173Y-127201322D01*
X110133576Y-125954150D01*
X109714367Y-125137066D01*
X109514790Y-124842637D01*
X108844997Y-124577381D01*
X107875989Y-124463460D01*
X106856006Y-124498404D01*
X106033290Y-124679738D01*
X105717216Y-124880465D01*
X105605554Y-125246563D01*
X105521534Y-126064790D01*
X105464187Y-127369799D01*
X105432547Y-129196247D01*
X105425645Y-131578788D01*
X105442514Y-134552076D01*
X105443634Y-134679848D01*
X105526758Y-144049427D01*
X108035400Y-144049427D01*
X108348980Y-127122573D01*
X111786139Y-135664395D01*
X115223297Y-144206217D01*
X117543937Y-144206217D01*
X119968300Y-138013007D01*
X120753826Y-136006520D01*
X121520123Y-134049499D01*
X122216620Y-132271071D01*
X122792746Y-130800363D01*
X123197930Y-129766500D01*
X123238075Y-129664123D01*
X124083487Y-127508449D01*
X124290925Y-132301018D01*
X124368707Y-134358949D01*
X124433196Y-136562101D01*
X124478314Y-138665829D01*
X124497983Y-140425489D01*
X124498363Y-140649902D01*
X124498363Y-144206217D01*
X127007005Y-144206217D01*
X127007005Y-134704736D01*
X126999490Y-131766103D01*
X126975811Y-129409920D01*
X126934274Y-127591639D01*
X126873180Y-126266717D01*
X126790833Y-125390608D01*
X126685535Y-124918768D01*
X126630709Y-124826958D01*
X125981014Y-124533891D01*
X124993890Y-124439406D01*
X123922352Y-124530650D01*
G36*
X166518116Y-144206217D02*
G01*
X169026758Y-144206217D01*
X169026758Y-124450662D01*
X166518116Y-124450662D01*
X166518116Y-144206217D01*
X166518116Y-144206217D01*
G37*
X166518116Y-144206217D02*
X169026758Y-144206217D01*
X169026758Y-124450662D01*
X166518116Y-124450662D01*
X166518116Y-144206217D01*
G36*
X188966197Y-124491568D02*
G01*
X188609486Y-124501370D01*
X186855193Y-124571892D01*
X185583339Y-124682208D01*
X184649463Y-124854023D01*
X183909103Y-125109041D01*
X183608240Y-125252782D01*
X182489609Y-126128465D01*
X181587636Y-127386416D01*
X181044374Y-128793667D01*
X180949694Y-129612785D01*
X181223284Y-131101021D01*
X181937146Y-132511683D01*
X182962383Y-133615662D01*
X183346754Y-133873440D01*
X184548980Y-134564971D01*
X183570925Y-135601401D01*
X183142604Y-136203960D01*
X182591656Y-137187961D01*
X181974592Y-138424739D01*
X181347922Y-139785630D01*
X180768157Y-141141971D01*
X180291807Y-142365097D01*
X179975384Y-143326344D01*
X179875397Y-143897048D01*
X179894894Y-143971032D01*
X180272353Y-144122255D01*
X181027496Y-144202370D01*
X181247480Y-144206217D01*
X182455880Y-144206217D01*
X183313680Y-141932761D01*
X184190499Y-139728324D01*
X184974992Y-138064263D01*
X185725178Y-136872078D01*
X186499069Y-136083270D01*
X187354683Y-135629339D01*
X188350034Y-135441786D01*
X188824603Y-135425970D01*
X190350215Y-135425970D01*
X190350215Y-144206217D01*
X191552273Y-144206217D01*
X192380941Y-144156121D01*
X192911394Y-144032175D01*
X192963384Y-143997164D01*
X193016616Y-143641813D01*
X193064852Y-142739468D01*
X193106297Y-141370283D01*
X193139161Y-139614417D01*
X193161648Y-137552027D01*
X193171968Y-135263268D01*
X193172437Y-134649691D01*
X193169069Y-133230909D01*
X190350215Y-133230909D01*
X188358317Y-133230909D01*
X187034403Y-133166336D01*
X186079677Y-132933843D01*
X185305049Y-132515652D01*
X184284068Y-131543040D01*
X183834662Y-130351386D01*
X183895019Y-129030155D01*
X184334153Y-127933875D01*
X185201927Y-127188201D01*
X186544279Y-126767899D01*
X188233548Y-126646896D01*
X190350215Y-126645723D01*
X190350215Y-133230909D01*
X193169069Y-133230909D01*
X193165752Y-131834271D01*
X193144093Y-129588783D01*
X193105058Y-127856121D01*
X193046244Y-126579181D01*
X192965249Y-125700861D01*
X192859669Y-125164055D01*
X192764424Y-124953280D01*
X192522853Y-124715685D01*
X192137273Y-124563227D01*
X191492657Y-124483395D01*
X190473975Y-124463680D01*
X188966197Y-124491568D01*
X188966197Y-124491568D01*
G37*
X188966197Y-124491568D02*
X188609486Y-124501370D01*
X186855193Y-124571892D01*
X185583339Y-124682208D01*
X184649463Y-124854023D01*
X183909103Y-125109041D01*
X183608240Y-125252782D01*
X182489609Y-126128465D01*
X181587636Y-127386416D01*
X181044374Y-128793667D01*
X180949694Y-129612785D01*
X181223284Y-131101021D01*
X181937146Y-132511683D01*
X182962383Y-133615662D01*
X183346754Y-133873440D01*
X184548980Y-134564971D01*
X183570925Y-135601401D01*
X183142604Y-136203960D01*
X182591656Y-137187961D01*
X181974592Y-138424739D01*
X181347922Y-139785630D01*
X180768157Y-141141971D01*
X180291807Y-142365097D01*
X179975384Y-143326344D01*
X179875397Y-143897048D01*
X179894894Y-143971032D01*
X180272353Y-144122255D01*
X181027496Y-144202370D01*
X181247480Y-144206217D01*
X182455880Y-144206217D01*
X183313680Y-141932761D01*
X184190499Y-139728324D01*
X184974992Y-138064263D01*
X185725178Y-136872078D01*
X186499069Y-136083270D01*
X187354683Y-135629339D01*
X188350034Y-135441786D01*
X188824603Y-135425970D01*
X190350215Y-135425970D01*
X190350215Y-144206217D01*
X191552273Y-144206217D01*
X192380941Y-144156121D01*
X192911394Y-144032175D01*
X192963384Y-143997164D01*
X193016616Y-143641813D01*
X193064852Y-142739468D01*
X193106297Y-141370283D01*
X193139161Y-139614417D01*
X193161648Y-137552027D01*
X193171968Y-135263268D01*
X193172437Y-134649691D01*
X193169069Y-133230909D01*
X190350215Y-133230909D01*
X188358317Y-133230909D01*
X187034403Y-133166336D01*
X186079677Y-132933843D01*
X185305049Y-132515652D01*
X184284068Y-131543040D01*
X183834662Y-130351386D01*
X183895019Y-129030155D01*
X184334153Y-127933875D01*
X185201927Y-127188201D01*
X186544279Y-126767899D01*
X188233548Y-126646896D01*
X190350215Y-126645723D01*
X190350215Y-133230909D01*
X193169069Y-133230909D01*
X193165752Y-131834271D01*
X193144093Y-129588783D01*
X193105058Y-127856121D01*
X193046244Y-126579181D01*
X192965249Y-125700861D01*
X192859669Y-125164055D01*
X192764424Y-124953280D01*
X192522853Y-124715685D01*
X192137273Y-124563227D01*
X191492657Y-124483395D01*
X190473975Y-124463680D01*
X188966197Y-124491568D01*
G36*
X204519853Y-125469798D02*
G01*
X204618116Y-126488933D01*
X208616264Y-126576697D01*
X212614413Y-126664461D01*
X212614413Y-132896788D01*
X209086635Y-132985453D01*
X205558857Y-133074119D01*
X205558857Y-134642020D01*
X212614413Y-134819350D01*
X212614413Y-142011156D01*
X208560862Y-142011156D01*
X206885678Y-142019406D01*
X205736166Y-142053049D01*
X205010952Y-142125420D01*
X204608666Y-142249857D01*
X204427932Y-142439696D01*
X204389688Y-142559921D01*
X204357732Y-143361008D01*
X204403269Y-143657452D01*
X204505315Y-143862197D01*
X204758433Y-144009033D01*
X205252974Y-144107390D01*
X206079288Y-144166698D01*
X207327724Y-144196388D01*
X209088634Y-144205890D01*
X209660941Y-144206217D01*
X211572317Y-144201219D01*
X212951545Y-144179179D01*
X213893607Y-144129529D01*
X214493481Y-144041701D01*
X214846148Y-143905125D01*
X215046587Y-143709233D01*
X215112022Y-143599672D01*
X215190912Y-143147011D01*
X215260511Y-142166465D01*
X215320102Y-140757250D01*
X215368973Y-139018583D01*
X215406408Y-137049680D01*
X215431694Y-134949757D01*
X215444116Y-132818031D01*
X215442960Y-130753719D01*
X215427512Y-128856037D01*
X215397058Y-127224201D01*
X215350883Y-125957429D01*
X215288274Y-125154936D01*
X215246295Y-124946679D01*
X215098642Y-124762508D01*
X214760532Y-124629402D01*
X214144813Y-124539514D01*
X213164333Y-124484994D01*
X211731938Y-124457993D01*
X209760478Y-124450662D01*
X204421590Y-124450662D01*
X204519853Y-125469798D01*
X204519853Y-125469798D01*
G37*
X204519853Y-125469798D02*
X204618116Y-126488933D01*
X208616264Y-126576697D01*
X212614413Y-126664461D01*
X212614413Y-132896788D01*
X209086635Y-132985453D01*
X205558857Y-133074119D01*
X205558857Y-134642020D01*
X212614413Y-134819350D01*
X212614413Y-142011156D01*
X208560862Y-142011156D01*
X206885678Y-142019406D01*
X205736166Y-142053049D01*
X205010952Y-142125420D01*
X204608666Y-142249857D01*
X204427932Y-142439696D01*
X204389688Y-142559921D01*
X204357732Y-143361008D01*
X204403269Y-143657452D01*
X204505315Y-143862197D01*
X204758433Y-144009033D01*
X205252974Y-144107390D01*
X206079288Y-144166698D01*
X207327724Y-144196388D01*
X209088634Y-144205890D01*
X209660941Y-144206217D01*
X211572317Y-144201219D01*
X212951545Y-144179179D01*
X213893607Y-144129529D01*
X214493481Y-144041701D01*
X214846148Y-143905125D01*
X215046587Y-143709233D01*
X215112022Y-143599672D01*
X215190912Y-143147011D01*
X215260511Y-142166465D01*
X215320102Y-140757250D01*
X215368973Y-139018583D01*
X215406408Y-137049680D01*
X215431694Y-134949757D01*
X215444116Y-132818031D01*
X215442960Y-130753719D01*
X215427512Y-128856037D01*
X215397058Y-127224201D01*
X215350883Y-125957429D01*
X215288274Y-125154936D01*
X215246295Y-124946679D01*
X215098642Y-124762508D01*
X214760532Y-124629402D01*
X214144813Y-124539514D01*
X213164333Y-124484994D01*
X211731938Y-124457993D01*
X209760478Y-124450662D01*
X204421590Y-124450662D01*
X204519853Y-125469798D01*
G36*
X232605153Y-124523277D02*
G01*
X225314413Y-124607452D01*
X225314413Y-126488933D01*
X228165836Y-126578445D01*
X231017259Y-126667956D01*
X231222357Y-132536469D01*
X231290334Y-134644537D01*
X231348898Y-136771661D01*
X231393999Y-138745375D01*
X231421584Y-140393216D01*
X231428341Y-141305600D01*
X231429227Y-144206217D01*
X233937869Y-144206217D01*
X233937869Y-126645723D01*
X239895894Y-126645723D01*
X239895894Y-124439103D01*
X232605153Y-124523277D01*
X232605153Y-124523277D01*
G37*
X232605153Y-124523277D02*
X225314413Y-124607452D01*
X225314413Y-126488933D01*
X228165836Y-126578445D01*
X231017259Y-126667956D01*
X231222357Y-132536469D01*
X231290334Y-134644537D01*
X231348898Y-136771661D01*
X231393999Y-138745375D01*
X231421584Y-140393216D01*
X231428341Y-141305600D01*
X231429227Y-144206217D01*
X233937869Y-144206217D01*
X233937869Y-126645723D01*
X239895894Y-126645723D01*
X239895894Y-124439103D01*
X232605153Y-124523277D01*
G36*
X279204743Y-127508069D02*
G01*
X278511160Y-128990959D01*
X277824472Y-130469660D01*
X277246083Y-131725355D01*
X277002797Y-132259503D01*
X276236894Y-133953530D01*
X274893755Y-131005182D01*
X274205847Y-129513088D01*
X273495836Y-128002568D01*
X272876744Y-126713015D01*
X272650524Y-126253748D01*
X272144665Y-125279201D01*
X271753271Y-124739790D01*
X271316091Y-124506859D01*
X270672873Y-124451753D01*
X270404644Y-124450662D01*
X269585695Y-124483901D01*
X269108613Y-124567573D01*
X269058857Y-124610587D01*
X269193039Y-124926032D01*
X269568196Y-125717351D01*
X270143248Y-126900263D01*
X270877114Y-128390487D01*
X271728712Y-130103741D01*
X272037869Y-130722267D01*
X275016882Y-136674021D01*
X275016882Y-144206217D01*
X277525524Y-144206217D01*
X277525524Y-136674021D01*
X280504536Y-130722267D01*
X281386813Y-128952366D01*
X282165330Y-127376831D01*
X282799005Y-126079944D01*
X283246757Y-125145986D01*
X283467505Y-124659237D01*
X283483548Y-124610587D01*
X283202916Y-124515465D01*
X282492417Y-124458196D01*
X282062167Y-124450662D01*
X280640785Y-124450662D01*
X279204743Y-127508069D01*
X279204743Y-127508069D01*
G37*
X279204743Y-127508069D02*
X278511160Y-128990959D01*
X277824472Y-130469660D01*
X277246083Y-131725355D01*
X277002797Y-132259503D01*
X276236894Y-133953530D01*
X274893755Y-131005182D01*
X274205847Y-129513088D01*
X273495836Y-128002568D01*
X272876744Y-126713015D01*
X272650524Y-126253748D01*
X272144665Y-125279201D01*
X271753271Y-124739790D01*
X271316091Y-124506859D01*
X270672873Y-124451753D01*
X270404644Y-124450662D01*
X269585695Y-124483901D01*
X269108613Y-124567573D01*
X269058857Y-124610587D01*
X269193039Y-124926032D01*
X269568196Y-125717351D01*
X270143248Y-126900263D01*
X270877114Y-128390487D01*
X271728712Y-130103741D01*
X272037869Y-130722267D01*
X275016882Y-136674021D01*
X275016882Y-144206217D01*
X277525524Y-144206217D01*
X277525524Y-136674021D01*
X280504536Y-130722267D01*
X281386813Y-128952366D01*
X282165330Y-127376831D01*
X282799005Y-126079944D01*
X283246757Y-125145986D01*
X283467505Y-124659237D01*
X283483548Y-124610587D01*
X283202916Y-124515465D01*
X282492417Y-124458196D01*
X282062167Y-124450662D01*
X280640785Y-124450662D01*
X279204743Y-127508069D01*
G36*
X311374242Y-124605533D02*
G01*
X310696746Y-124984297D01*
X310682804Y-124999427D01*
X310433785Y-125434460D01*
X309994274Y-126367456D01*
X309401692Y-127712098D01*
X308693463Y-129382068D01*
X307907010Y-131291049D01*
X307282455Y-132842493D01*
X306481443Y-134821942D01*
X305747412Y-136578514D01*
X305113597Y-138037273D01*
X304613231Y-139123287D01*
X304279549Y-139761619D01*
X304153251Y-139898049D01*
X303977220Y-139552087D01*
X303600956Y-138707404D01*
X303059634Y-137446580D01*
X302388427Y-135852197D01*
X301622510Y-134006836D01*
X301046308Y-132603748D01*
X300218969Y-130607048D01*
X299442421Y-128782618D01*
X298755693Y-127218270D01*
X298197818Y-126001816D01*
X297807829Y-125221065D01*
X297660040Y-124985602D01*
X297189796Y-124645349D01*
X296461295Y-124504005D01*
X295416880Y-124515231D01*
X293674906Y-124607452D01*
X293592044Y-134406835D01*
X293509181Y-144206217D01*
X296026758Y-144206217D01*
X296026758Y-135530497D01*
X296034610Y-133285339D01*
X296056778Y-131272174D01*
X296091182Y-129568039D01*
X296135741Y-128249974D01*
X296188375Y-127395018D01*
X296247002Y-127080208D01*
X296254915Y-127082933D01*
X296425761Y-127422572D01*
X296796063Y-128269813D01*
X297334440Y-129549128D01*
X298009514Y-131184983D01*
X298789906Y-133101850D01*
X299644237Y-135224196D01*
X299826641Y-135680259D01*
X303170210Y-144049427D01*
X304310844Y-144147268D01*
X304966599Y-144169512D01*
X305390662Y-144007805D01*
X305738926Y-143531417D01*
X306167285Y-142609616D01*
X306180529Y-142579366D01*
X306506212Y-141800699D01*
X307012850Y-140546393D01*
X307656853Y-138926395D01*
X308394631Y-137050650D01*
X309182592Y-135029105D01*
X309542861Y-134098736D01*
X312176141Y-127283847D01*
X312489721Y-144049427D01*
X313598460Y-144142746D01*
X314397544Y-144147357D01*
X314899840Y-144036151D01*
X314931176Y-144012088D01*
X315007197Y-143630467D01*
X315067342Y-142717782D01*
X315112121Y-141369918D01*
X315142043Y-139682758D01*
X315157616Y-137752185D01*
X315159350Y-135674083D01*
X315147754Y-133544334D01*
X315123337Y-131458823D01*
X315086607Y-129513433D01*
X315038075Y-127804047D01*
X314978248Y-126426548D01*
X314907637Y-125476820D01*
X314830540Y-125057207D01*
X314303300Y-124655530D01*
X313401910Y-124444275D01*
X312350760Y-124426567D01*
X311374242Y-124605533D01*
X311374242Y-124605533D01*
G37*
X311374242Y-124605533D02*
X310696746Y-124984297D01*
X310682804Y-124999427D01*
X310433785Y-125434460D01*
X309994274Y-126367456D01*
X309401692Y-127712098D01*
X308693463Y-129382068D01*
X307907010Y-131291049D01*
X307282455Y-132842493D01*
X306481443Y-134821942D01*
X305747412Y-136578514D01*
X305113597Y-138037273D01*
X304613231Y-139123287D01*
X304279549Y-139761619D01*
X304153251Y-139898049D01*
X303977220Y-139552087D01*
X303600956Y-138707404D01*
X303059634Y-137446580D01*
X302388427Y-135852197D01*
X301622510Y-134006836D01*
X301046308Y-132603748D01*
X300218969Y-130607048D01*
X299442421Y-128782618D01*
X298755693Y-127218270D01*
X298197818Y-126001816D01*
X297807829Y-125221065D01*
X297660040Y-124985602D01*
X297189796Y-124645349D01*
X296461295Y-124504005D01*
X295416880Y-124515231D01*
X293674906Y-124607452D01*
X293592044Y-134406835D01*
X293509181Y-144206217D01*
X296026758Y-144206217D01*
X296026758Y-135530497D01*
X296034610Y-133285339D01*
X296056778Y-131272174D01*
X296091182Y-129568039D01*
X296135741Y-128249974D01*
X296188375Y-127395018D01*
X296247002Y-127080208D01*
X296254915Y-127082933D01*
X296425761Y-127422572D01*
X296796063Y-128269813D01*
X297334440Y-129549128D01*
X298009514Y-131184983D01*
X298789906Y-133101850D01*
X299644237Y-135224196D01*
X299826641Y-135680259D01*
X303170210Y-144049427D01*
X304310844Y-144147268D01*
X304966599Y-144169512D01*
X305390662Y-144007805D01*
X305738926Y-143531417D01*
X306167285Y-142609616D01*
X306180529Y-142579366D01*
X306506212Y-141800699D01*
X307012850Y-140546393D01*
X307656853Y-138926395D01*
X308394631Y-137050650D01*
X309182592Y-135029105D01*
X309542861Y-134098736D01*
X312176141Y-127283847D01*
X312489721Y-144049427D01*
X313598460Y-144142746D01*
X314397544Y-144147357D01*
X314899840Y-144036151D01*
X314931176Y-144012088D01*
X315007197Y-143630467D01*
X315067342Y-142717782D01*
X315112121Y-141369918D01*
X315142043Y-139682758D01*
X315157616Y-137752185D01*
X315159350Y-135674083D01*
X315147754Y-133544334D01*
X315123337Y-131458823D01*
X315086607Y-129513433D01*
X315038075Y-127804047D01*
X314978248Y-126426548D01*
X314907637Y-125476820D01*
X314830540Y-125057207D01*
X314303300Y-124655530D01*
X313401910Y-124444275D01*
X312350760Y-124426567D01*
X311374242Y-124605533D01*
G36*
X151459378Y-131427822D02*
G01*
X151451882Y-133750421D01*
X151430098Y-135538162D01*
X151387319Y-136883303D01*
X151316840Y-137878102D01*
X151211954Y-138614815D01*
X151065956Y-139185700D01*
X150872140Y-139683014D01*
X150856859Y-139716903D01*
X149960841Y-141001607D01*
X148659586Y-141809809D01*
X146961119Y-142136754D01*
X146762561Y-142142927D01*
X144965456Y-141934229D01*
X143557924Y-141235767D01*
X142610395Y-140171174D01*
X142383629Y-139777382D01*
X142209457Y-139360506D01*
X142079491Y-138832982D01*
X141985343Y-138107248D01*
X141918624Y-137095742D01*
X141870945Y-135710901D01*
X141833918Y-133865162D01*
X141802821Y-131741402D01*
X141703575Y-124450662D01*
X139196256Y-124450662D01*
X139294840Y-132080630D01*
X139393425Y-139710599D01*
X140336964Y-141235681D01*
X141549589Y-142628404D01*
X143169820Y-143659900D01*
X145066377Y-144289771D01*
X147107980Y-144477623D01*
X149163349Y-144183059D01*
X149544990Y-144069091D01*
X151267938Y-143188479D01*
X152655905Y-141816359D01*
X153380401Y-140600044D01*
X153567267Y-140135168D01*
X153709939Y-139593451D01*
X153814318Y-138887502D01*
X153886307Y-137929929D01*
X153931807Y-136633339D01*
X153956718Y-134910340D01*
X153966942Y-132673541D01*
X153968020Y-131898193D01*
X153974906Y-124450662D01*
X151466264Y-124450662D01*
X151459378Y-131427822D01*
X151459378Y-131427822D01*
G37*
X151459378Y-131427822D02*
X151451882Y-133750421D01*
X151430098Y-135538162D01*
X151387319Y-136883303D01*
X151316840Y-137878102D01*
X151211954Y-138614815D01*
X151065956Y-139185700D01*
X150872140Y-139683014D01*
X150856859Y-139716903D01*
X149960841Y-141001607D01*
X148659586Y-141809809D01*
X146961119Y-142136754D01*
X146762561Y-142142927D01*
X144965456Y-141934229D01*
X143557924Y-141235767D01*
X142610395Y-140171174D01*
X142383629Y-139777382D01*
X142209457Y-139360506D01*
X142079491Y-138832982D01*
X141985343Y-138107248D01*
X141918624Y-137095742D01*
X141870945Y-135710901D01*
X141833918Y-133865162D01*
X141802821Y-131741402D01*
X141703575Y-124450662D01*
X139196256Y-124450662D01*
X139294840Y-132080630D01*
X139393425Y-139710599D01*
X140336964Y-141235681D01*
X141549589Y-142628404D01*
X143169820Y-143659900D01*
X145066377Y-144289771D01*
X147107980Y-144477623D01*
X149163349Y-144183059D01*
X149544990Y-144069091D01*
X151267938Y-143188479D01*
X152655905Y-141816359D01*
X153380401Y-140600044D01*
X153567267Y-140135168D01*
X153709939Y-139593451D01*
X153814318Y-138887502D01*
X153886307Y-137929929D01*
X153931807Y-136633339D01*
X153956718Y-134910340D01*
X153966942Y-132673541D01*
X153968020Y-131898193D01*
X153974906Y-124450662D01*
X151466264Y-124450662D01*
X151459378Y-131427822D01*
G36*
X253690925Y-124223744D02*
G01*
X252437983Y-124377058D01*
X251284421Y-124638608D01*
X250633517Y-124881785D01*
X249926400Y-125358055D01*
X249649794Y-125959299D01*
X249616882Y-126496986D01*
X249654976Y-127187950D01*
X249851320Y-127501332D01*
X250329007Y-127467126D01*
X251211128Y-127115324D01*
X251542514Y-126966191D01*
X253162585Y-126449934D01*
X254649749Y-126383622D01*
X255904357Y-126740316D01*
X256826758Y-127493080D01*
X257298489Y-128522157D01*
X257348324Y-129425598D01*
X257035785Y-130253990D01*
X256302118Y-131072461D01*
X255088571Y-131946137D01*
X253336391Y-132940143D01*
X253291610Y-132963717D01*
X251682320Y-133873450D01*
X250399663Y-134726954D01*
X249556701Y-135447031D01*
X249420361Y-135606977D01*
X248640013Y-137104996D01*
X248401002Y-138732175D01*
X248670767Y-140364748D01*
X249416748Y-141878949D01*
X250606383Y-143151009D01*
X251568435Y-143772082D01*
X252681831Y-144137213D01*
X254162837Y-144347348D01*
X255768574Y-144391135D01*
X257256162Y-144257220D01*
X258030604Y-144074140D01*
X259463117Y-143443871D01*
X260307561Y-142670563D01*
X260592011Y-141728210D01*
X260592190Y-141701238D01*
X260526928Y-140978136D01*
X260257512Y-140681326D01*
X259673496Y-140780941D01*
X258750912Y-141203333D01*
X256958738Y-141898999D01*
X255268468Y-142171543D01*
X253764683Y-142045234D01*
X252531961Y-141544344D01*
X251654882Y-140693144D01*
X251218027Y-139515905D01*
X251184783Y-139032143D01*
X251366309Y-138035761D01*
X251953806Y-137125196D01*
X253011653Y-136234546D01*
X254604227Y-135297907D01*
X255059237Y-135065895D01*
X256946825Y-134046484D01*
X258304286Y-133102100D01*
X259206685Y-132143237D01*
X259729089Y-131080386D01*
X259946564Y-129824040D01*
X259965030Y-129216311D01*
X259691174Y-127522118D01*
X258866041Y-126122481D01*
X257484280Y-125009075D01*
X257140277Y-124819809D01*
X256182520Y-124398499D01*
X255259409Y-124208854D01*
X254084063Y-124201299D01*
X253690925Y-124223744D01*
X253690925Y-124223744D01*
G37*
X253690925Y-124223744D02*
X252437983Y-124377058D01*
X251284421Y-124638608D01*
X250633517Y-124881785D01*
X249926400Y-125358055D01*
X249649794Y-125959299D01*
X249616882Y-126496986D01*
X249654976Y-127187950D01*
X249851320Y-127501332D01*
X250329007Y-127467126D01*
X251211128Y-127115324D01*
X251542514Y-126966191D01*
X253162585Y-126449934D01*
X254649749Y-126383622D01*
X255904357Y-126740316D01*
X256826758Y-127493080D01*
X257298489Y-128522157D01*
X257348324Y-129425598D01*
X257035785Y-130253990D01*
X256302118Y-131072461D01*
X255088571Y-131946137D01*
X253336391Y-132940143D01*
X253291610Y-132963717D01*
X251682320Y-133873450D01*
X250399663Y-134726954D01*
X249556701Y-135447031D01*
X249420361Y-135606977D01*
X248640013Y-137104996D01*
X248401002Y-138732175D01*
X248670767Y-140364748D01*
X249416748Y-141878949D01*
X250606383Y-143151009D01*
X251568435Y-143772082D01*
X252681831Y-144137213D01*
X254162837Y-144347348D01*
X255768574Y-144391135D01*
X257256162Y-144257220D01*
X258030604Y-144074140D01*
X259463117Y-143443871D01*
X260307561Y-142670563D01*
X260592011Y-141728210D01*
X260592190Y-141701238D01*
X260526928Y-140978136D01*
X260257512Y-140681326D01*
X259673496Y-140780941D01*
X258750912Y-141203333D01*
X256958738Y-141898999D01*
X255268468Y-142171543D01*
X253764683Y-142045234D01*
X252531961Y-141544344D01*
X251654882Y-140693144D01*
X251218027Y-139515905D01*
X251184783Y-139032143D01*
X251366309Y-138035761D01*
X251953806Y-137125196D01*
X253011653Y-136234546D01*
X254604227Y-135297907D01*
X255059237Y-135065895D01*
X256946825Y-134046484D01*
X258304286Y-133102100D01*
X259206685Y-132143237D01*
X259729089Y-131080386D01*
X259946564Y-129824040D01*
X259965030Y-129216311D01*
X259691174Y-127522118D01*
X258866041Y-126122481D01*
X257484280Y-125009075D01*
X257140277Y-124819809D01*
X256182520Y-124398499D01*
X255259409Y-124208854D01*
X254084063Y-124201299D01*
X253690925Y-124223744D01*
D14*
X356213100Y-97053400D03*
X64550600Y-97053400D03*
D15*
X286626300Y-83613400D03*
X134137400Y-83613400D03*
X286626300Y-64863400D03*
X40550600Y-64863400D03*
X379523512Y-183454800D03*
X327986788Y-183454800D03*
X379523512Y-155219400D03*
X327986788Y-155219400D03*
X77901800Y-178587400D03*
X85763100Y-109702600D03*
X335000600Y-109702600D03*
X210419351Y-197713600D03*
X210419351Y-109702600D03*
X134137400Y-64863400D03*
X380213100Y-64863400D03*
X380213100Y-83613400D03*
X40550600Y-83613400D03*
D16*
G36*
X381407508Y-61625744D02*
G01*
X381892232Y-61771612D01*
X382339387Y-62008847D01*
X382731949Y-62328421D01*
X383054962Y-62718155D01*
X383296123Y-63163208D01*
X383446248Y-63646629D01*
X383503101Y-64182877D01*
X383503099Y-204135438D01*
X383450756Y-204674309D01*
X383304888Y-205159032D01*
X383067652Y-205606188D01*
X382748079Y-205998749D01*
X382358343Y-206321763D01*
X381913292Y-206562923D01*
X381429871Y-206713048D01*
X380893623Y-206769901D01*
X39895062Y-206769899D01*
X39356191Y-206717556D01*
X38871468Y-206571688D01*
X38424312Y-206334452D01*
X38031751Y-206014879D01*
X37708737Y-205625143D01*
X37467577Y-205180092D01*
X37317452Y-204696671D01*
X37260599Y-204160423D01*
X37260599Y-183175577D01*
X325151788Y-183175577D01*
X325151788Y-183734023D01*
X325260736Y-184281739D01*
X325474444Y-184797676D01*
X325784700Y-185262007D01*
X326179581Y-185656888D01*
X326643912Y-185967144D01*
X327159849Y-186180852D01*
X327707565Y-186289800D01*
X328266011Y-186289800D01*
X328813727Y-186180852D01*
X329329664Y-185967144D01*
X329793995Y-185656888D01*
X330188876Y-185262007D01*
X330499132Y-184797676D01*
X330712840Y-184281739D01*
X330821788Y-183734023D01*
X330821788Y-183175577D01*
X376688512Y-183175577D01*
X376688512Y-183734023D01*
X376797460Y-184281739D01*
X377011168Y-184797676D01*
X377321424Y-185262007D01*
X377716305Y-185656888D01*
X378180636Y-185967144D01*
X378696573Y-186180852D01*
X379244289Y-186289800D01*
X379802735Y-186289800D01*
X380350451Y-186180852D01*
X380866388Y-185967144D01*
X381330719Y-185656888D01*
X381725600Y-185262007D01*
X382035856Y-184797676D01*
X382249564Y-184281739D01*
X382358512Y-183734023D01*
X382358512Y-183175577D01*
X382249564Y-182627861D01*
X382035856Y-182111924D01*
X381725600Y-181647593D01*
X381330719Y-181252712D01*
X380866388Y-180942456D01*
X380350451Y-180728748D01*
X379802735Y-180619800D01*
X379244289Y-180619800D01*
X378696573Y-180728748D01*
X378180636Y-180942456D01*
X377716305Y-181252712D01*
X377321424Y-181647593D01*
X377011168Y-182111924D01*
X376797460Y-182627861D01*
X376688512Y-183175577D01*
X330821788Y-183175577D01*
X330712840Y-182627861D01*
X330499132Y-182111924D01*
X330188876Y-181647593D01*
X329793995Y-181252712D01*
X329329664Y-180942456D01*
X328813727Y-180728748D01*
X328266011Y-180619800D01*
X327707565Y-180619800D01*
X327159849Y-180728748D01*
X326643912Y-180942456D01*
X326179581Y-181252712D01*
X325784700Y-181647593D01*
X325474444Y-182111924D01*
X325260736Y-182627861D01*
X325151788Y-183175577D01*
X37260599Y-183175577D01*
X37260599Y-178308177D01*
X75066800Y-178308177D01*
X75066800Y-178866623D01*
X75175748Y-179414339D01*
X75389456Y-179930276D01*
X75699712Y-180394607D01*
X76094593Y-180789488D01*
X76558924Y-181099744D01*
X77074861Y-181313452D01*
X77622577Y-181422400D01*
X78181023Y-181422400D01*
X78728739Y-181313452D01*
X79244676Y-181099744D01*
X79709007Y-180789488D01*
X80103888Y-180394607D01*
X80414144Y-179930276D01*
X80627852Y-179414339D01*
X80736800Y-178866623D01*
X80736800Y-178308177D01*
X80627852Y-177760461D01*
X80414144Y-177244524D01*
X80103888Y-176780193D01*
X79709007Y-176385312D01*
X79244676Y-176075056D01*
X78728739Y-175861348D01*
X78181023Y-175752400D01*
X77622577Y-175752400D01*
X77074861Y-175861348D01*
X76558924Y-176075056D01*
X76094593Y-176385312D01*
X75699712Y-176780193D01*
X75389456Y-177244524D01*
X75175748Y-177760461D01*
X75066800Y-178308177D01*
X37260599Y-178308177D01*
X37260599Y-133387537D01*
X48812404Y-133387537D01*
X48812404Y-133460473D01*
X48841325Y-135827576D01*
X48844161Y-135890022D01*
X48845470Y-135952533D01*
X48850304Y-136025308D01*
X49036038Y-138385289D01*
X49043004Y-138447388D01*
X49048455Y-138509699D01*
X49058102Y-138581994D01*
X49399834Y-140924477D01*
X49410900Y-140985981D01*
X49420469Y-141047789D01*
X49434885Y-141119286D01*
X49931111Y-143433972D01*
X49946232Y-143494617D01*
X49959873Y-143555645D01*
X49978996Y-143626029D01*
X50627534Y-145902739D01*
X50646649Y-145962276D01*
X50664297Y-146022237D01*
X50688042Y-146091199D01*
X51486040Y-148319924D01*
X51509046Y-148378030D01*
X51530642Y-148436726D01*
X51558906Y-148503963D01*
X52502857Y-150674900D01*
X52529675Y-150731378D01*
X52555101Y-150788486D01*
X52587750Y-150853684D01*
X52587759Y-150853703D01*
X52587766Y-150853715D01*
X53673510Y-152957308D01*
X53704016Y-153011891D01*
X53733168Y-153067183D01*
X53770076Y-153130091D01*
X54992855Y-155157115D01*
X55026900Y-155209540D01*
X55059663Y-155262795D01*
X55100659Y-155323119D01*
X56455088Y-157264647D01*
X56492530Y-157314697D01*
X56528752Y-157365666D01*
X56573656Y-157423140D01*
X58053779Y-159270637D01*
X58094462Y-159318103D01*
X58133979Y-159366555D01*
X58182593Y-159420926D01*
X59781903Y-161166267D01*
X59825644Y-161210934D01*
X59868282Y-161256657D01*
X59920392Y-161307687D01*
X61631858Y-162943199D01*
X61678465Y-162984870D01*
X61724037Y-163027665D01*
X61779414Y-163075130D01*
X63595509Y-164593621D01*
X63644769Y-164632107D01*
X63693083Y-164671793D01*
X63751484Y-164715483D01*
X65664223Y-166110276D01*
X65715913Y-166145405D01*
X65766764Y-166181810D01*
X65827933Y-166221533D01*
X67828905Y-167486494D01*
X67882819Y-167518125D01*
X67935960Y-167551074D01*
X67999627Y-167586656D01*
X70080034Y-168716224D01*
X70135914Y-168744207D01*
X70191133Y-168773567D01*
X70257018Y-168804852D01*
X72407711Y-169794061D01*
X72465353Y-169818291D01*
X72522369Y-169843915D01*
X72590183Y-169870765D01*
X74801705Y-170715262D01*
X74860797Y-170735609D01*
X74919413Y-170757408D01*
X74988857Y-170779704D01*
X77251486Y-171475780D01*
X77311821Y-171492172D01*
X77371730Y-171510032D01*
X77442499Y-171527677D01*
X79746286Y-172072269D01*
X79807557Y-172084623D01*
X79868534Y-172098477D01*
X79940317Y-172111392D01*
X82275131Y-172502107D01*
X82337109Y-172510377D01*
X82398848Y-172520155D01*
X82471329Y-172528285D01*
X84826905Y-172763402D01*
X84889290Y-172767546D01*
X84951544Y-172773211D01*
X85024404Y-172776520D01*
X87293371Y-172851790D01*
X87342708Y-172856649D01*
X333495994Y-172856649D01*
X333514182Y-172854858D01*
X334258048Y-172845769D01*
X334289275Y-172844351D01*
X334320548Y-172844351D01*
X334393408Y-172841042D01*
X336756762Y-172704772D01*
X336818998Y-172699108D01*
X336881403Y-172694963D01*
X336953884Y-172686833D01*
X339303011Y-172394234D01*
X339364738Y-172384457D01*
X339426728Y-172376186D01*
X339498511Y-172363270D01*
X341823082Y-171915628D01*
X341884047Y-171901777D01*
X341945330Y-171889420D01*
X342016089Y-171871778D01*
X342016100Y-171871775D01*
X342016107Y-171871773D01*
X344305893Y-171271059D01*
X344365790Y-171253203D01*
X344426137Y-171236807D01*
X344495581Y-171214511D01*
X346740527Y-170463362D01*
X346799127Y-170441569D01*
X346858236Y-170421216D01*
X346926050Y-170394367D01*
X349116280Y-169496088D01*
X349173310Y-169470458D01*
X349230936Y-169446234D01*
X349296803Y-169414957D01*
X349296822Y-169414949D01*
X349296834Y-169414943D01*
X351422704Y-168373491D01*
X351477913Y-168344136D01*
X351533805Y-168316147D01*
X351597472Y-168280565D01*
X353649659Y-167100505D01*
X353702779Y-167067569D01*
X353756715Y-167035925D01*
X353817884Y-166996201D01*
X355787352Y-165682729D01*
X355838176Y-165646342D01*
X355889892Y-165611196D01*
X355948294Y-165567506D01*
X357826382Y-164126398D01*
X357874683Y-164086723D01*
X357923957Y-164048226D01*
X357979335Y-164000762D01*
X359757788Y-162438353D01*
X359803372Y-162395546D01*
X359849968Y-162353885D01*
X359902078Y-162302855D01*
X361573073Y-160626016D01*
X361615699Y-160580305D01*
X361659451Y-160535627D01*
X361708065Y-160481255D01*
X363264255Y-158697361D01*
X363303763Y-158648919D01*
X363344454Y-158601444D01*
X363389357Y-158543970D01*
X364823901Y-156660863D01*
X364860118Y-156609901D01*
X364897566Y-156559843D01*
X364938562Y-156499520D01*
X365970669Y-154940177D01*
X376688512Y-154940177D01*
X376688512Y-155498623D01*
X376797460Y-156046339D01*
X377011168Y-156562276D01*
X377321424Y-157026607D01*
X377716305Y-157421488D01*
X378180636Y-157731744D01*
X378696573Y-157945452D01*
X379244289Y-158054400D01*
X379802735Y-158054400D01*
X380350451Y-157945452D01*
X380866388Y-157731744D01*
X381330719Y-157421488D01*
X381725600Y-157026607D01*
X382035856Y-156562276D01*
X382249564Y-156046339D01*
X382358512Y-155498623D01*
X382358512Y-154940177D01*
X382249564Y-154392461D01*
X382035856Y-153876524D01*
X381725600Y-153412193D01*
X381330719Y-153017312D01*
X380866388Y-152707056D01*
X380350451Y-152493348D01*
X379802735Y-152384400D01*
X379244289Y-152384400D01*
X378696573Y-152493348D01*
X378180636Y-152707056D01*
X377716305Y-153017312D01*
X377321424Y-153412193D01*
X377011168Y-153876524D01*
X376797460Y-154392461D01*
X376688512Y-154940177D01*
X365970669Y-154940177D01*
X366245152Y-154525479D01*
X366277899Y-154472249D01*
X366311961Y-154419798D01*
X366348868Y-154356890D01*
X367521757Y-152300596D01*
X367550903Y-152245314D01*
X367581415Y-152190721D01*
X367614072Y-152125505D01*
X368648104Y-149996000D01*
X368673530Y-149938891D01*
X368700348Y-149882413D01*
X368728612Y-149815177D01*
X369619240Y-147621825D01*
X369640823Y-147563163D01*
X369663842Y-147505024D01*
X369687587Y-147436062D01*
X370430895Y-145188506D01*
X370448540Y-145128553D01*
X370467658Y-145069007D01*
X370486781Y-144998623D01*
X371079500Y-142706747D01*
X371093138Y-142645734D01*
X371108262Y-142585074D01*
X371122678Y-142513578D01*
X371562203Y-140187458D01*
X371571766Y-140125682D01*
X371582838Y-140064147D01*
X371592485Y-139991852D01*
X371876883Y-137641719D01*
X371882334Y-137579417D01*
X371889300Y-137517308D01*
X371894134Y-137444533D01*
X372022153Y-135080717D01*
X372023462Y-135018208D01*
X372026298Y-134955761D01*
X372026298Y-134882826D01*
X371997377Y-132515722D01*
X371994541Y-132453276D01*
X371993232Y-132390765D01*
X371988398Y-132317990D01*
X371802664Y-129958008D01*
X371795698Y-129895909D01*
X371790247Y-129833598D01*
X371780600Y-129761304D01*
X371438868Y-127418820D01*
X371427801Y-127357312D01*
X371418233Y-127295509D01*
X371403817Y-127224012D01*
X370907591Y-124909325D01*
X370892470Y-124848677D01*
X370878829Y-124787652D01*
X370859706Y-124717269D01*
X370211168Y-122440559D01*
X370192056Y-122381033D01*
X370174405Y-122321060D01*
X370150660Y-122252099D01*
X369352662Y-120023374D01*
X369329656Y-119965268D01*
X369308060Y-119906572D01*
X369279796Y-119839335D01*
X368335845Y-117668398D01*
X368309032Y-117611930D01*
X368283601Y-117554811D01*
X368250943Y-117489596D01*
X368250943Y-117489595D01*
X368250936Y-117489583D01*
X367165191Y-115385990D01*
X367134698Y-115331429D01*
X367105534Y-115276115D01*
X367068626Y-115213207D01*
X365845847Y-113186183D01*
X365811798Y-113133752D01*
X365779039Y-113080503D01*
X365738043Y-113020179D01*
X364383614Y-111078651D01*
X364346170Y-111028599D01*
X364309950Y-110977632D01*
X364265046Y-110920158D01*
X362784922Y-109072660D01*
X362744242Y-109025198D01*
X362704723Y-108976743D01*
X362656109Y-108922372D01*
X361056798Y-107177031D01*
X361013071Y-107132379D01*
X360970420Y-107086641D01*
X360918310Y-107035611D01*
X359206844Y-105400099D01*
X359160252Y-105358441D01*
X359114666Y-105315633D01*
X359059288Y-105268169D01*
X357243194Y-103749677D01*
X357193910Y-103711173D01*
X357145619Y-103671506D01*
X357087218Y-103627816D01*
X355174480Y-102233022D01*
X355122776Y-102197884D01*
X355071938Y-102161488D01*
X355010769Y-102121765D01*
X353979470Y-101469805D01*
X354773614Y-101798750D01*
X355727045Y-101988400D01*
X356699155Y-101988400D01*
X357652586Y-101798750D01*
X358550699Y-101426740D01*
X359358979Y-100886665D01*
X360046365Y-100199279D01*
X360586440Y-99390999D01*
X360958450Y-98492886D01*
X361148100Y-97539455D01*
X361148100Y-96567345D01*
X360958450Y-95613914D01*
X360586440Y-94715801D01*
X360046365Y-93907521D01*
X359358979Y-93220135D01*
X358550699Y-92680060D01*
X357652586Y-92308050D01*
X356699155Y-92118400D01*
X355727045Y-92118400D01*
X354773614Y-92308050D01*
X353875501Y-92680060D01*
X353067221Y-93220135D01*
X352379835Y-93907521D01*
X351839760Y-94715801D01*
X351467750Y-95613914D01*
X351278100Y-96567345D01*
X351278100Y-97539455D01*
X351467750Y-98492886D01*
X351839760Y-99390999D01*
X352379835Y-100199279D01*
X353067221Y-100886665D01*
X353246111Y-101006196D01*
X353009797Y-100856804D01*
X352955888Y-100825176D01*
X352902742Y-100792224D01*
X352839075Y-100756642D01*
X350758669Y-99627074D01*
X350702777Y-99599085D01*
X350647569Y-99569731D01*
X350581684Y-99538446D01*
X348430991Y-98549237D01*
X348373345Y-98525005D01*
X348316333Y-98499383D01*
X348248519Y-98472533D01*
X346036996Y-97628035D01*
X345977879Y-97607680D01*
X345919288Y-97585890D01*
X345849844Y-97563594D01*
X343587216Y-96867518D01*
X343526872Y-96851123D01*
X343466972Y-96833266D01*
X343396203Y-96815621D01*
X341092416Y-96271029D01*
X341031148Y-96258675D01*
X340970168Y-96244821D01*
X340898385Y-96231906D01*
X338563571Y-95841192D01*
X338501620Y-95832926D01*
X338439854Y-95823143D01*
X338367373Y-95815013D01*
X336011798Y-95579896D01*
X335949413Y-95575752D01*
X335887159Y-95570087D01*
X335814298Y-95566778D01*
X333545331Y-95491508D01*
X333495994Y-95486649D01*
X87342708Y-95486649D01*
X87324520Y-95488440D01*
X86580654Y-95497529D01*
X86549427Y-95498947D01*
X86518154Y-95498947D01*
X86445293Y-95502256D01*
X84081940Y-95638526D01*
X84019706Y-95644190D01*
X83957298Y-95648335D01*
X83884817Y-95656465D01*
X81535691Y-95949064D01*
X81473964Y-95958841D01*
X81411974Y-95967112D01*
X81340191Y-95980028D01*
X79015620Y-96427670D01*
X78954648Y-96441523D01*
X78893371Y-96453878D01*
X78822602Y-96471523D01*
X76532809Y-97072239D01*
X76472912Y-97090095D01*
X76412565Y-97106491D01*
X76343121Y-97128787D01*
X74098174Y-97879936D01*
X74039574Y-97901730D01*
X73980466Y-97922082D01*
X73912653Y-97948931D01*
X71722422Y-98847210D01*
X71665392Y-98872840D01*
X71607766Y-98897064D01*
X71541899Y-98928341D01*
X71541880Y-98928349D01*
X71541868Y-98928355D01*
X69415998Y-99969808D01*
X69360816Y-99999149D01*
X69304897Y-100027151D01*
X69241230Y-100062733D01*
X67189043Y-101242793D01*
X67135923Y-101275729D01*
X67081987Y-101307373D01*
X67020819Y-101347097D01*
X65051350Y-102660569D01*
X65000526Y-102696956D01*
X64948810Y-102732102D01*
X64890408Y-102775792D01*
X63012319Y-104216900D01*
X62964004Y-104256587D01*
X62914745Y-104295072D01*
X62859367Y-104342537D01*
X61080914Y-105904945D01*
X61035345Y-105947737D01*
X60988735Y-105989412D01*
X60936624Y-106040443D01*
X59265629Y-107717282D01*
X59223003Y-107762993D01*
X59179251Y-107807671D01*
X59130637Y-107862043D01*
X57574446Y-109645938D01*
X57534931Y-109694389D01*
X57494248Y-109741854D01*
X57449344Y-109799328D01*
X56014801Y-111682436D01*
X55978604Y-111733370D01*
X55941136Y-111783455D01*
X55900140Y-111843779D01*
X54593550Y-113817819D01*
X54560785Y-113871078D01*
X54526742Y-113923500D01*
X54489834Y-113986408D01*
X53316945Y-116042702D01*
X53287787Y-116098005D01*
X53257288Y-116152577D01*
X53224630Y-116217793D01*
X52190598Y-118347298D01*
X52165172Y-118404407D01*
X52138354Y-118460885D01*
X52110090Y-118528122D01*
X51219462Y-120721473D01*
X51197879Y-120780135D01*
X51174860Y-120838274D01*
X51151115Y-120907236D01*
X50407807Y-123154792D01*
X50390159Y-123214757D01*
X50371044Y-123274292D01*
X50351921Y-123344676D01*
X49759202Y-125636551D01*
X49745564Y-125697564D01*
X49730440Y-125758224D01*
X49716024Y-125829720D01*
X49276499Y-128155840D01*
X49266935Y-128217623D01*
X49255864Y-128279152D01*
X49246217Y-128351446D01*
X48961819Y-130701580D01*
X48956369Y-130763877D01*
X48949402Y-130825990D01*
X48944568Y-130898765D01*
X48816549Y-133262581D01*
X48815240Y-133325090D01*
X48812404Y-133387537D01*
X37260599Y-133387537D01*
X37260599Y-96567345D01*
X59615600Y-96567345D01*
X59615600Y-97539455D01*
X59805250Y-98492886D01*
X60177260Y-99390999D01*
X60717335Y-100199279D01*
X61404721Y-100886665D01*
X62213001Y-101426740D01*
X63111114Y-101798750D01*
X64064545Y-101988400D01*
X65036655Y-101988400D01*
X65990086Y-101798750D01*
X66888199Y-101426740D01*
X67696479Y-100886665D01*
X68383865Y-100199279D01*
X68923940Y-99390999D01*
X69295950Y-98492886D01*
X69485600Y-97539455D01*
X69485600Y-96567345D01*
X69295950Y-95613914D01*
X68923940Y-94715801D01*
X68383865Y-93907521D01*
X67696479Y-93220135D01*
X66888199Y-92680060D01*
X65990086Y-92308050D01*
X65036655Y-92118400D01*
X64064545Y-92118400D01*
X63111114Y-92308050D01*
X62213001Y-92680060D01*
X61404721Y-93220135D01*
X60717335Y-93907521D01*
X60177260Y-94715801D01*
X59805250Y-95613914D01*
X59615600Y-96567345D01*
X37260599Y-96567345D01*
X37260600Y-83334177D01*
X37715600Y-83334177D01*
X37715600Y-83892623D01*
X37824548Y-84440339D01*
X38038256Y-84956276D01*
X38348512Y-85420607D01*
X38743393Y-85815488D01*
X39207724Y-86125744D01*
X39723661Y-86339452D01*
X40271377Y-86448400D01*
X40829823Y-86448400D01*
X41377539Y-86339452D01*
X41893476Y-86125744D01*
X42357807Y-85815488D01*
X42752688Y-85420607D01*
X43062944Y-84956276D01*
X43276652Y-84440339D01*
X43385600Y-83892623D01*
X43385600Y-83334177D01*
X131302400Y-83334177D01*
X131302400Y-83892623D01*
X131411348Y-84440339D01*
X131625056Y-84956276D01*
X131935312Y-85420607D01*
X132330193Y-85815488D01*
X132794524Y-86125744D01*
X133310461Y-86339452D01*
X133858177Y-86448400D01*
X134416623Y-86448400D01*
X134964339Y-86339452D01*
X135480276Y-86125744D01*
X135944607Y-85815488D01*
X136339488Y-85420607D01*
X136649744Y-84956276D01*
X136863452Y-84440339D01*
X136972400Y-83892623D01*
X136972400Y-83334177D01*
X283791300Y-83334177D01*
X283791300Y-83892623D01*
X283900248Y-84440339D01*
X284113956Y-84956276D01*
X284424212Y-85420607D01*
X284819093Y-85815488D01*
X285283424Y-86125744D01*
X285799361Y-86339452D01*
X286347077Y-86448400D01*
X286905523Y-86448400D01*
X287453239Y-86339452D01*
X287969176Y-86125744D01*
X288433507Y-85815488D01*
X288828388Y-85420607D01*
X289138644Y-84956276D01*
X289352352Y-84440339D01*
X289461300Y-83892623D01*
X289461300Y-83334177D01*
X377378100Y-83334177D01*
X377378100Y-83892623D01*
X377487048Y-84440339D01*
X377700756Y-84956276D01*
X378011012Y-85420607D01*
X378405893Y-85815488D01*
X378870224Y-86125744D01*
X379386161Y-86339452D01*
X379933877Y-86448400D01*
X380492323Y-86448400D01*
X381040039Y-86339452D01*
X381555976Y-86125744D01*
X382020307Y-85815488D01*
X382415188Y-85420607D01*
X382725444Y-84956276D01*
X382939152Y-84440339D01*
X383048100Y-83892623D01*
X383048100Y-83334177D01*
X382939152Y-82786461D01*
X382725444Y-82270524D01*
X382415188Y-81806193D01*
X382020307Y-81411312D01*
X381555976Y-81101056D01*
X381040039Y-80887348D01*
X380492323Y-80778400D01*
X379933877Y-80778400D01*
X379386161Y-80887348D01*
X378870224Y-81101056D01*
X378405893Y-81411312D01*
X378011012Y-81806193D01*
X377700756Y-82270524D01*
X377487048Y-82786461D01*
X377378100Y-83334177D01*
X289461300Y-83334177D01*
X289352352Y-82786461D01*
X289138644Y-82270524D01*
X288828388Y-81806193D01*
X288433507Y-81411312D01*
X287969176Y-81101056D01*
X287453239Y-80887348D01*
X286905523Y-80778400D01*
X286347077Y-80778400D01*
X285799361Y-80887348D01*
X285283424Y-81101056D01*
X284819093Y-81411312D01*
X284424212Y-81806193D01*
X284113956Y-82270524D01*
X283900248Y-82786461D01*
X283791300Y-83334177D01*
X136972400Y-83334177D01*
X136863452Y-82786461D01*
X136649744Y-82270524D01*
X136339488Y-81806193D01*
X135944607Y-81411312D01*
X135480276Y-81101056D01*
X134964339Y-80887348D01*
X134416623Y-80778400D01*
X133858177Y-80778400D01*
X133310461Y-80887348D01*
X132794524Y-81101056D01*
X132330193Y-81411312D01*
X131935312Y-81806193D01*
X131625056Y-82270524D01*
X131411348Y-82786461D01*
X131302400Y-83334177D01*
X43385600Y-83334177D01*
X43276652Y-82786461D01*
X43062944Y-82270524D01*
X42752688Y-81806193D01*
X42357807Y-81411312D01*
X41893476Y-81101056D01*
X41377539Y-80887348D01*
X40829823Y-80778400D01*
X40271377Y-80778400D01*
X39723661Y-80887348D01*
X39207724Y-81101056D01*
X38743393Y-81411312D01*
X38348512Y-81806193D01*
X38038256Y-82270524D01*
X37824548Y-82786461D01*
X37715600Y-83334177D01*
X37260600Y-83334177D01*
X37260600Y-64584177D01*
X37715600Y-64584177D01*
X37715600Y-65142623D01*
X37824548Y-65690339D01*
X38038256Y-66206276D01*
X38348512Y-66670607D01*
X38743393Y-67065488D01*
X39207724Y-67375744D01*
X39723661Y-67589452D01*
X40271377Y-67698400D01*
X40829823Y-67698400D01*
X41377539Y-67589452D01*
X41893476Y-67375744D01*
X42357807Y-67065488D01*
X42752688Y-66670607D01*
X43062944Y-66206276D01*
X43276652Y-65690339D01*
X43385600Y-65142623D01*
X43385600Y-64584177D01*
X131302400Y-64584177D01*
X131302400Y-65142623D01*
X131411348Y-65690339D01*
X131625056Y-66206276D01*
X131935312Y-66670607D01*
X132330193Y-67065488D01*
X132794524Y-67375744D01*
X133310461Y-67589452D01*
X133858177Y-67698400D01*
X134416623Y-67698400D01*
X134964339Y-67589452D01*
X135480276Y-67375744D01*
X135944607Y-67065488D01*
X136339488Y-66670607D01*
X136649744Y-66206276D01*
X136863452Y-65690339D01*
X136972400Y-65142623D01*
X136972400Y-64584177D01*
X283791300Y-64584177D01*
X283791300Y-65142623D01*
X283900248Y-65690339D01*
X284113956Y-66206276D01*
X284424212Y-66670607D01*
X284819093Y-67065488D01*
X285283424Y-67375744D01*
X285799361Y-67589452D01*
X286347077Y-67698400D01*
X286905523Y-67698400D01*
X287453239Y-67589452D01*
X287969176Y-67375744D01*
X288433507Y-67065488D01*
X288828388Y-66670607D01*
X289138644Y-66206276D01*
X289352352Y-65690339D01*
X289461300Y-65142623D01*
X289461300Y-64584177D01*
X377378100Y-64584177D01*
X377378100Y-65142623D01*
X377487048Y-65690339D01*
X377700756Y-66206276D01*
X378011012Y-66670607D01*
X378405893Y-67065488D01*
X378870224Y-67375744D01*
X379386161Y-67589452D01*
X379933877Y-67698400D01*
X380492323Y-67698400D01*
X381040039Y-67589452D01*
X381555976Y-67375744D01*
X382020307Y-67065488D01*
X382415188Y-66670607D01*
X382725444Y-66206276D01*
X382939152Y-65690339D01*
X383048100Y-65142623D01*
X383048100Y-64584177D01*
X382939152Y-64036461D01*
X382725444Y-63520524D01*
X382415188Y-63056193D01*
X382020307Y-62661312D01*
X381555976Y-62351056D01*
X381040039Y-62137348D01*
X380492323Y-62028400D01*
X379933877Y-62028400D01*
X379386161Y-62137348D01*
X378870224Y-62351056D01*
X378405893Y-62661312D01*
X378011012Y-63056193D01*
X377700756Y-63520524D01*
X377487048Y-64036461D01*
X377378100Y-64584177D01*
X289461300Y-64584177D01*
X289352352Y-64036461D01*
X289138644Y-63520524D01*
X288828388Y-63056193D01*
X288433507Y-62661312D01*
X287969176Y-62351056D01*
X287453239Y-62137348D01*
X286905523Y-62028400D01*
X286347077Y-62028400D01*
X285799361Y-62137348D01*
X285283424Y-62351056D01*
X284819093Y-62661312D01*
X284424212Y-63056193D01*
X284113956Y-63520524D01*
X283900248Y-64036461D01*
X283791300Y-64584177D01*
X136972400Y-64584177D01*
X136863452Y-64036461D01*
X136649744Y-63520524D01*
X136339488Y-63056193D01*
X135944607Y-62661312D01*
X135480276Y-62351056D01*
X134964339Y-62137348D01*
X134416623Y-62028400D01*
X133858177Y-62028400D01*
X133310461Y-62137348D01*
X132794524Y-62351056D01*
X132330193Y-62661312D01*
X131935312Y-63056193D01*
X131625056Y-63520524D01*
X131411348Y-64036461D01*
X131302400Y-64584177D01*
X43385600Y-64584177D01*
X43276652Y-64036461D01*
X43062944Y-63520524D01*
X42752688Y-63056193D01*
X42357807Y-62661312D01*
X41893476Y-62351056D01*
X41377539Y-62137348D01*
X40829823Y-62028400D01*
X40271377Y-62028400D01*
X39723661Y-62137348D01*
X39207724Y-62351056D01*
X38743393Y-62661312D01*
X38348512Y-63056193D01*
X38038256Y-63520524D01*
X37824548Y-64036461D01*
X37715600Y-64584177D01*
X37260600Y-64584177D01*
X37260601Y-64207861D01*
X37312944Y-63668992D01*
X37458812Y-63184268D01*
X37696047Y-62737113D01*
X38015621Y-62344551D01*
X38405355Y-62021538D01*
X38850408Y-61780377D01*
X39333829Y-61630252D01*
X39870067Y-61573400D01*
X380868629Y-61573400D01*
X381407508Y-61625744D01*
X381407508Y-61625744D01*
G37*
X381407508Y-61625744D02*
X381892232Y-61771612D01*
X382339387Y-62008847D01*
X382731949Y-62328421D01*
X383054962Y-62718155D01*
X383296123Y-63163208D01*
X383446248Y-63646629D01*
X383503101Y-64182877D01*
X383503099Y-204135438D01*
X383450756Y-204674309D01*
X383304888Y-205159032D01*
X383067652Y-205606188D01*
X382748079Y-205998749D01*
X382358343Y-206321763D01*
X381913292Y-206562923D01*
X381429871Y-206713048D01*
X380893623Y-206769901D01*
X39895062Y-206769899D01*
X39356191Y-206717556D01*
X38871468Y-206571688D01*
X38424312Y-206334452D01*
X38031751Y-206014879D01*
X37708737Y-205625143D01*
X37467577Y-205180092D01*
X37317452Y-204696671D01*
X37260599Y-204160423D01*
X37260599Y-183175577D01*
X325151788Y-183175577D01*
X325151788Y-183734023D01*
X325260736Y-184281739D01*
X325474444Y-184797676D01*
X325784700Y-185262007D01*
X326179581Y-185656888D01*
X326643912Y-185967144D01*
X327159849Y-186180852D01*
X327707565Y-186289800D01*
X328266011Y-186289800D01*
X328813727Y-186180852D01*
X329329664Y-185967144D01*
X329793995Y-185656888D01*
X330188876Y-185262007D01*
X330499132Y-184797676D01*
X330712840Y-184281739D01*
X330821788Y-183734023D01*
X330821788Y-183175577D01*
X376688512Y-183175577D01*
X376688512Y-183734023D01*
X376797460Y-184281739D01*
X377011168Y-184797676D01*
X377321424Y-185262007D01*
X377716305Y-185656888D01*
X378180636Y-185967144D01*
X378696573Y-186180852D01*
X379244289Y-186289800D01*
X379802735Y-186289800D01*
X380350451Y-186180852D01*
X380866388Y-185967144D01*
X381330719Y-185656888D01*
X381725600Y-185262007D01*
X382035856Y-184797676D01*
X382249564Y-184281739D01*
X382358512Y-183734023D01*
X382358512Y-183175577D01*
X382249564Y-182627861D01*
X382035856Y-182111924D01*
X381725600Y-181647593D01*
X381330719Y-181252712D01*
X380866388Y-180942456D01*
X380350451Y-180728748D01*
X379802735Y-180619800D01*
X379244289Y-180619800D01*
X378696573Y-180728748D01*
X378180636Y-180942456D01*
X377716305Y-181252712D01*
X377321424Y-181647593D01*
X377011168Y-182111924D01*
X376797460Y-182627861D01*
X376688512Y-183175577D01*
X330821788Y-183175577D01*
X330712840Y-182627861D01*
X330499132Y-182111924D01*
X330188876Y-181647593D01*
X329793995Y-181252712D01*
X329329664Y-180942456D01*
X328813727Y-180728748D01*
X328266011Y-180619800D01*
X327707565Y-180619800D01*
X327159849Y-180728748D01*
X326643912Y-180942456D01*
X326179581Y-181252712D01*
X325784700Y-181647593D01*
X325474444Y-182111924D01*
X325260736Y-182627861D01*
X325151788Y-183175577D01*
X37260599Y-183175577D01*
X37260599Y-178308177D01*
X75066800Y-178308177D01*
X75066800Y-178866623D01*
X75175748Y-179414339D01*
X75389456Y-179930276D01*
X75699712Y-180394607D01*
X76094593Y-180789488D01*
X76558924Y-181099744D01*
X77074861Y-181313452D01*
X77622577Y-181422400D01*
X78181023Y-181422400D01*
X78728739Y-181313452D01*
X79244676Y-181099744D01*
X79709007Y-180789488D01*
X80103888Y-180394607D01*
X80414144Y-179930276D01*
X80627852Y-179414339D01*
X80736800Y-178866623D01*
X80736800Y-178308177D01*
X80627852Y-177760461D01*
X80414144Y-177244524D01*
X80103888Y-176780193D01*
X79709007Y-176385312D01*
X79244676Y-176075056D01*
X78728739Y-175861348D01*
X78181023Y-175752400D01*
X77622577Y-175752400D01*
X77074861Y-175861348D01*
X76558924Y-176075056D01*
X76094593Y-176385312D01*
X75699712Y-176780193D01*
X75389456Y-177244524D01*
X75175748Y-177760461D01*
X75066800Y-178308177D01*
X37260599Y-178308177D01*
X37260599Y-133387537D01*
X48812404Y-133387537D01*
X48812404Y-133460473D01*
X48841325Y-135827576D01*
X48844161Y-135890022D01*
X48845470Y-135952533D01*
X48850304Y-136025308D01*
X49036038Y-138385289D01*
X49043004Y-138447388D01*
X49048455Y-138509699D01*
X49058102Y-138581994D01*
X49399834Y-140924477D01*
X49410900Y-140985981D01*
X49420469Y-141047789D01*
X49434885Y-141119286D01*
X49931111Y-143433972D01*
X49946232Y-143494617D01*
X49959873Y-143555645D01*
X49978996Y-143626029D01*
X50627534Y-145902739D01*
X50646649Y-145962276D01*
X50664297Y-146022237D01*
X50688042Y-146091199D01*
X51486040Y-148319924D01*
X51509046Y-148378030D01*
X51530642Y-148436726D01*
X51558906Y-148503963D01*
X52502857Y-150674900D01*
X52529675Y-150731378D01*
X52555101Y-150788486D01*
X52587750Y-150853684D01*
X52587759Y-150853703D01*
X52587766Y-150853715D01*
X53673510Y-152957308D01*
X53704016Y-153011891D01*
X53733168Y-153067183D01*
X53770076Y-153130091D01*
X54992855Y-155157115D01*
X55026900Y-155209540D01*
X55059663Y-155262795D01*
X55100659Y-155323119D01*
X56455088Y-157264647D01*
X56492530Y-157314697D01*
X56528752Y-157365666D01*
X56573656Y-157423140D01*
X58053779Y-159270637D01*
X58094462Y-159318103D01*
X58133979Y-159366555D01*
X58182593Y-159420926D01*
X59781903Y-161166267D01*
X59825644Y-161210934D01*
X59868282Y-161256657D01*
X59920392Y-161307687D01*
X61631858Y-162943199D01*
X61678465Y-162984870D01*
X61724037Y-163027665D01*
X61779414Y-163075130D01*
X63595509Y-164593621D01*
X63644769Y-164632107D01*
X63693083Y-164671793D01*
X63751484Y-164715483D01*
X65664223Y-166110276D01*
X65715913Y-166145405D01*
X65766764Y-166181810D01*
X65827933Y-166221533D01*
X67828905Y-167486494D01*
X67882819Y-167518125D01*
X67935960Y-167551074D01*
X67999627Y-167586656D01*
X70080034Y-168716224D01*
X70135914Y-168744207D01*
X70191133Y-168773567D01*
X70257018Y-168804852D01*
X72407711Y-169794061D01*
X72465353Y-169818291D01*
X72522369Y-169843915D01*
X72590183Y-169870765D01*
X74801705Y-170715262D01*
X74860797Y-170735609D01*
X74919413Y-170757408D01*
X74988857Y-170779704D01*
X77251486Y-171475780D01*
X77311821Y-171492172D01*
X77371730Y-171510032D01*
X77442499Y-171527677D01*
X79746286Y-172072269D01*
X79807557Y-172084623D01*
X79868534Y-172098477D01*
X79940317Y-172111392D01*
X82275131Y-172502107D01*
X82337109Y-172510377D01*
X82398848Y-172520155D01*
X82471329Y-172528285D01*
X84826905Y-172763402D01*
X84889290Y-172767546D01*
X84951544Y-172773211D01*
X85024404Y-172776520D01*
X87293371Y-172851790D01*
X87342708Y-172856649D01*
X333495994Y-172856649D01*
X333514182Y-172854858D01*
X334258048Y-172845769D01*
X334289275Y-172844351D01*
X334320548Y-172844351D01*
X334393408Y-172841042D01*
X336756762Y-172704772D01*
X336818998Y-172699108D01*
X336881403Y-172694963D01*
X336953884Y-172686833D01*
X339303011Y-172394234D01*
X339364738Y-172384457D01*
X339426728Y-172376186D01*
X339498511Y-172363270D01*
X341823082Y-171915628D01*
X341884047Y-171901777D01*
X341945330Y-171889420D01*
X342016089Y-171871778D01*
X342016100Y-171871775D01*
X342016107Y-171871773D01*
X344305893Y-171271059D01*
X344365790Y-171253203D01*
X344426137Y-171236807D01*
X344495581Y-171214511D01*
X346740527Y-170463362D01*
X346799127Y-170441569D01*
X346858236Y-170421216D01*
X346926050Y-170394367D01*
X349116280Y-169496088D01*
X349173310Y-169470458D01*
X349230936Y-169446234D01*
X349296803Y-169414957D01*
X349296822Y-169414949D01*
X349296834Y-169414943D01*
X351422704Y-168373491D01*
X351477913Y-168344136D01*
X351533805Y-168316147D01*
X351597472Y-168280565D01*
X353649659Y-167100505D01*
X353702779Y-167067569D01*
X353756715Y-167035925D01*
X353817884Y-166996201D01*
X355787352Y-165682729D01*
X355838176Y-165646342D01*
X355889892Y-165611196D01*
X355948294Y-165567506D01*
X357826382Y-164126398D01*
X357874683Y-164086723D01*
X357923957Y-164048226D01*
X357979335Y-164000762D01*
X359757788Y-162438353D01*
X359803372Y-162395546D01*
X359849968Y-162353885D01*
X359902078Y-162302855D01*
X361573073Y-160626016D01*
X361615699Y-160580305D01*
X361659451Y-160535627D01*
X361708065Y-160481255D01*
X363264255Y-158697361D01*
X363303763Y-158648919D01*
X363344454Y-158601444D01*
X363389357Y-158543970D01*
X364823901Y-156660863D01*
X364860118Y-156609901D01*
X364897566Y-156559843D01*
X364938562Y-156499520D01*
X365970669Y-154940177D01*
X376688512Y-154940177D01*
X376688512Y-155498623D01*
X376797460Y-156046339D01*
X377011168Y-156562276D01*
X377321424Y-157026607D01*
X377716305Y-157421488D01*
X378180636Y-157731744D01*
X378696573Y-157945452D01*
X379244289Y-158054400D01*
X379802735Y-158054400D01*
X380350451Y-157945452D01*
X380866388Y-157731744D01*
X381330719Y-157421488D01*
X381725600Y-157026607D01*
X382035856Y-156562276D01*
X382249564Y-156046339D01*
X382358512Y-155498623D01*
X382358512Y-154940177D01*
X382249564Y-154392461D01*
X382035856Y-153876524D01*
X381725600Y-153412193D01*
X381330719Y-153017312D01*
X380866388Y-152707056D01*
X380350451Y-152493348D01*
X379802735Y-152384400D01*
X379244289Y-152384400D01*
X378696573Y-152493348D01*
X378180636Y-152707056D01*
X377716305Y-153017312D01*
X377321424Y-153412193D01*
X377011168Y-153876524D01*
X376797460Y-154392461D01*
X376688512Y-154940177D01*
X365970669Y-154940177D01*
X366245152Y-154525479D01*
X366277899Y-154472249D01*
X366311961Y-154419798D01*
X366348868Y-154356890D01*
X367521757Y-152300596D01*
X367550903Y-152245314D01*
X367581415Y-152190721D01*
X367614072Y-152125505D01*
X368648104Y-149996000D01*
X368673530Y-149938891D01*
X368700348Y-149882413D01*
X368728612Y-149815177D01*
X369619240Y-147621825D01*
X369640823Y-147563163D01*
X369663842Y-147505024D01*
X369687587Y-147436062D01*
X370430895Y-145188506D01*
X370448540Y-145128553D01*
X370467658Y-145069007D01*
X370486781Y-144998623D01*
X371079500Y-142706747D01*
X371093138Y-142645734D01*
X371108262Y-142585074D01*
X371122678Y-142513578D01*
X371562203Y-140187458D01*
X371571766Y-140125682D01*
X371582838Y-140064147D01*
X371592485Y-139991852D01*
X371876883Y-137641719D01*
X371882334Y-137579417D01*
X371889300Y-137517308D01*
X371894134Y-137444533D01*
X372022153Y-135080717D01*
X372023462Y-135018208D01*
X372026298Y-134955761D01*
X372026298Y-134882826D01*
X371997377Y-132515722D01*
X371994541Y-132453276D01*
X371993232Y-132390765D01*
X371988398Y-132317990D01*
X371802664Y-129958008D01*
X371795698Y-129895909D01*
X371790247Y-129833598D01*
X371780600Y-129761304D01*
X371438868Y-127418820D01*
X371427801Y-127357312D01*
X371418233Y-127295509D01*
X371403817Y-127224012D01*
X370907591Y-124909325D01*
X370892470Y-124848677D01*
X370878829Y-124787652D01*
X370859706Y-124717269D01*
X370211168Y-122440559D01*
X370192056Y-122381033D01*
X370174405Y-122321060D01*
X370150660Y-122252099D01*
X369352662Y-120023374D01*
X369329656Y-119965268D01*
X369308060Y-119906572D01*
X369279796Y-119839335D01*
X368335845Y-117668398D01*
X368309032Y-117611930D01*
X368283601Y-117554811D01*
X368250943Y-117489596D01*
X368250943Y-117489595D01*
X368250936Y-117489583D01*
X367165191Y-115385990D01*
X367134698Y-115331429D01*
X367105534Y-115276115D01*
X367068626Y-115213207D01*
X365845847Y-113186183D01*
X365811798Y-113133752D01*
X365779039Y-113080503D01*
X365738043Y-113020179D01*
X364383614Y-111078651D01*
X364346170Y-111028599D01*
X364309950Y-110977632D01*
X364265046Y-110920158D01*
X362784922Y-109072660D01*
X362744242Y-109025198D01*
X362704723Y-108976743D01*
X362656109Y-108922372D01*
X361056798Y-107177031D01*
X361013071Y-107132379D01*
X360970420Y-107086641D01*
X360918310Y-107035611D01*
X359206844Y-105400099D01*
X359160252Y-105358441D01*
X359114666Y-105315633D01*
X359059288Y-105268169D01*
X357243194Y-103749677D01*
X357193910Y-103711173D01*
X357145619Y-103671506D01*
X357087218Y-103627816D01*
X355174480Y-102233022D01*
X355122776Y-102197884D01*
X355071938Y-102161488D01*
X355010769Y-102121765D01*
X353979470Y-101469805D01*
X354773614Y-101798750D01*
X355727045Y-101988400D01*
X356699155Y-101988400D01*
X357652586Y-101798750D01*
X358550699Y-101426740D01*
X359358979Y-100886665D01*
X360046365Y-100199279D01*
X360586440Y-99390999D01*
X360958450Y-98492886D01*
X361148100Y-97539455D01*
X361148100Y-96567345D01*
X360958450Y-95613914D01*
X360586440Y-94715801D01*
X360046365Y-93907521D01*
X359358979Y-93220135D01*
X358550699Y-92680060D01*
X357652586Y-92308050D01*
X356699155Y-92118400D01*
X355727045Y-92118400D01*
X354773614Y-92308050D01*
X353875501Y-92680060D01*
X353067221Y-93220135D01*
X352379835Y-93907521D01*
X351839760Y-94715801D01*
X351467750Y-95613914D01*
X351278100Y-96567345D01*
X351278100Y-97539455D01*
X351467750Y-98492886D01*
X351839760Y-99390999D01*
X352379835Y-100199279D01*
X353067221Y-100886665D01*
X353246111Y-101006196D01*
X353009797Y-100856804D01*
X352955888Y-100825176D01*
X352902742Y-100792224D01*
X352839075Y-100756642D01*
X350758669Y-99627074D01*
X350702777Y-99599085D01*
X350647569Y-99569731D01*
X350581684Y-99538446D01*
X348430991Y-98549237D01*
X348373345Y-98525005D01*
X348316333Y-98499383D01*
X348248519Y-98472533D01*
X346036996Y-97628035D01*
X345977879Y-97607680D01*
X345919288Y-97585890D01*
X345849844Y-97563594D01*
X343587216Y-96867518D01*
X343526872Y-96851123D01*
X343466972Y-96833266D01*
X343396203Y-96815621D01*
X341092416Y-96271029D01*
X341031148Y-96258675D01*
X340970168Y-96244821D01*
X340898385Y-96231906D01*
X338563571Y-95841192D01*
X338501620Y-95832926D01*
X338439854Y-95823143D01*
X338367373Y-95815013D01*
X336011798Y-95579896D01*
X335949413Y-95575752D01*
X335887159Y-95570087D01*
X335814298Y-95566778D01*
X333545331Y-95491508D01*
X333495994Y-95486649D01*
X87342708Y-95486649D01*
X87324520Y-95488440D01*
X86580654Y-95497529D01*
X86549427Y-95498947D01*
X86518154Y-95498947D01*
X86445293Y-95502256D01*
X84081940Y-95638526D01*
X84019706Y-95644190D01*
X83957298Y-95648335D01*
X83884817Y-95656465D01*
X81535691Y-95949064D01*
X81473964Y-95958841D01*
X81411974Y-95967112D01*
X81340191Y-95980028D01*
X79015620Y-96427670D01*
X78954648Y-96441523D01*
X78893371Y-96453878D01*
X78822602Y-96471523D01*
X76532809Y-97072239D01*
X76472912Y-97090095D01*
X76412565Y-97106491D01*
X76343121Y-97128787D01*
X74098174Y-97879936D01*
X74039574Y-97901730D01*
X73980466Y-97922082D01*
X73912653Y-97948931D01*
X71722422Y-98847210D01*
X71665392Y-98872840D01*
X71607766Y-98897064D01*
X71541899Y-98928341D01*
X71541880Y-98928349D01*
X71541868Y-98928355D01*
X69415998Y-99969808D01*
X69360816Y-99999149D01*
X69304897Y-100027151D01*
X69241230Y-100062733D01*
X67189043Y-101242793D01*
X67135923Y-101275729D01*
X67081987Y-101307373D01*
X67020819Y-101347097D01*
X65051350Y-102660569D01*
X65000526Y-102696956D01*
X64948810Y-102732102D01*
X64890408Y-102775792D01*
X63012319Y-104216900D01*
X62964004Y-104256587D01*
X62914745Y-104295072D01*
X62859367Y-104342537D01*
X61080914Y-105904945D01*
X61035345Y-105947737D01*
X60988735Y-105989412D01*
X60936624Y-106040443D01*
X59265629Y-107717282D01*
X59223003Y-107762993D01*
X59179251Y-107807671D01*
X59130637Y-107862043D01*
X57574446Y-109645938D01*
X57534931Y-109694389D01*
X57494248Y-109741854D01*
X57449344Y-109799328D01*
X56014801Y-111682436D01*
X55978604Y-111733370D01*
X55941136Y-111783455D01*
X55900140Y-111843779D01*
X54593550Y-113817819D01*
X54560785Y-113871078D01*
X54526742Y-113923500D01*
X54489834Y-113986408D01*
X53316945Y-116042702D01*
X53287787Y-116098005D01*
X53257288Y-116152577D01*
X53224630Y-116217793D01*
X52190598Y-118347298D01*
X52165172Y-118404407D01*
X52138354Y-118460885D01*
X52110090Y-118528122D01*
X51219462Y-120721473D01*
X51197879Y-120780135D01*
X51174860Y-120838274D01*
X51151115Y-120907236D01*
X50407807Y-123154792D01*
X50390159Y-123214757D01*
X50371044Y-123274292D01*
X50351921Y-123344676D01*
X49759202Y-125636551D01*
X49745564Y-125697564D01*
X49730440Y-125758224D01*
X49716024Y-125829720D01*
X49276499Y-128155840D01*
X49266935Y-128217623D01*
X49255864Y-128279152D01*
X49246217Y-128351446D01*
X48961819Y-130701580D01*
X48956369Y-130763877D01*
X48949402Y-130825990D01*
X48944568Y-130898765D01*
X48816549Y-133262581D01*
X48815240Y-133325090D01*
X48812404Y-133387537D01*
X37260599Y-133387537D01*
X37260599Y-96567345D01*
X59615600Y-96567345D01*
X59615600Y-97539455D01*
X59805250Y-98492886D01*
X60177260Y-99390999D01*
X60717335Y-100199279D01*
X61404721Y-100886665D01*
X62213001Y-101426740D01*
X63111114Y-101798750D01*
X64064545Y-101988400D01*
X65036655Y-101988400D01*
X65990086Y-101798750D01*
X66888199Y-101426740D01*
X67696479Y-100886665D01*
X68383865Y-100199279D01*
X68923940Y-99390999D01*
X69295950Y-98492886D01*
X69485600Y-97539455D01*
X69485600Y-96567345D01*
X69295950Y-95613914D01*
X68923940Y-94715801D01*
X68383865Y-93907521D01*
X67696479Y-93220135D01*
X66888199Y-92680060D01*
X65990086Y-92308050D01*
X65036655Y-92118400D01*
X64064545Y-92118400D01*
X63111114Y-92308050D01*
X62213001Y-92680060D01*
X61404721Y-93220135D01*
X60717335Y-93907521D01*
X60177260Y-94715801D01*
X59805250Y-95613914D01*
X59615600Y-96567345D01*
X37260599Y-96567345D01*
X37260600Y-83334177D01*
X37715600Y-83334177D01*
X37715600Y-83892623D01*
X37824548Y-84440339D01*
X38038256Y-84956276D01*
X38348512Y-85420607D01*
X38743393Y-85815488D01*
X39207724Y-86125744D01*
X39723661Y-86339452D01*
X40271377Y-86448400D01*
X40829823Y-86448400D01*
X41377539Y-86339452D01*
X41893476Y-86125744D01*
X42357807Y-85815488D01*
X42752688Y-85420607D01*
X43062944Y-84956276D01*
X43276652Y-84440339D01*
X43385600Y-83892623D01*
X43385600Y-83334177D01*
X131302400Y-83334177D01*
X131302400Y-83892623D01*
X131411348Y-84440339D01*
X131625056Y-84956276D01*
X131935312Y-85420607D01*
X132330193Y-85815488D01*
X132794524Y-86125744D01*
X133310461Y-86339452D01*
X133858177Y-86448400D01*
X134416623Y-86448400D01*
X134964339Y-86339452D01*
X135480276Y-86125744D01*
X135944607Y-85815488D01*
X136339488Y-85420607D01*
X136649744Y-84956276D01*
X136863452Y-84440339D01*
X136972400Y-83892623D01*
X136972400Y-83334177D01*
X283791300Y-83334177D01*
X283791300Y-83892623D01*
X283900248Y-84440339D01*
X284113956Y-84956276D01*
X284424212Y-85420607D01*
X284819093Y-85815488D01*
X285283424Y-86125744D01*
X285799361Y-86339452D01*
X286347077Y-86448400D01*
X286905523Y-86448400D01*
X287453239Y-86339452D01*
X287969176Y-86125744D01*
X288433507Y-85815488D01*
X288828388Y-85420607D01*
X289138644Y-84956276D01*
X289352352Y-84440339D01*
X289461300Y-83892623D01*
X289461300Y-83334177D01*
X377378100Y-83334177D01*
X377378100Y-83892623D01*
X377487048Y-84440339D01*
X377700756Y-84956276D01*
X378011012Y-85420607D01*
X378405893Y-85815488D01*
X378870224Y-86125744D01*
X379386161Y-86339452D01*
X379933877Y-86448400D01*
X380492323Y-86448400D01*
X381040039Y-86339452D01*
X381555976Y-86125744D01*
X382020307Y-85815488D01*
X382415188Y-85420607D01*
X382725444Y-84956276D01*
X382939152Y-84440339D01*
X383048100Y-83892623D01*
X383048100Y-83334177D01*
X382939152Y-82786461D01*
X382725444Y-82270524D01*
X382415188Y-81806193D01*
X382020307Y-81411312D01*
X381555976Y-81101056D01*
X381040039Y-80887348D01*
X380492323Y-80778400D01*
X379933877Y-80778400D01*
X379386161Y-80887348D01*
X378870224Y-81101056D01*
X378405893Y-81411312D01*
X378011012Y-81806193D01*
X377700756Y-82270524D01*
X377487048Y-82786461D01*
X377378100Y-83334177D01*
X289461300Y-83334177D01*
X289352352Y-82786461D01*
X289138644Y-82270524D01*
X288828388Y-81806193D01*
X288433507Y-81411312D01*
X287969176Y-81101056D01*
X287453239Y-80887348D01*
X286905523Y-80778400D01*
X286347077Y-80778400D01*
X285799361Y-80887348D01*
X285283424Y-81101056D01*
X284819093Y-81411312D01*
X284424212Y-81806193D01*
X284113956Y-82270524D01*
X283900248Y-82786461D01*
X283791300Y-83334177D01*
X136972400Y-83334177D01*
X136863452Y-82786461D01*
X136649744Y-82270524D01*
X136339488Y-81806193D01*
X135944607Y-81411312D01*
X135480276Y-81101056D01*
X134964339Y-80887348D01*
X134416623Y-80778400D01*
X133858177Y-80778400D01*
X133310461Y-80887348D01*
X132794524Y-81101056D01*
X132330193Y-81411312D01*
X131935312Y-81806193D01*
X131625056Y-82270524D01*
X131411348Y-82786461D01*
X131302400Y-83334177D01*
X43385600Y-83334177D01*
X43276652Y-82786461D01*
X43062944Y-82270524D01*
X42752688Y-81806193D01*
X42357807Y-81411312D01*
X41893476Y-81101056D01*
X41377539Y-80887348D01*
X40829823Y-80778400D01*
X40271377Y-80778400D01*
X39723661Y-80887348D01*
X39207724Y-81101056D01*
X38743393Y-81411312D01*
X38348512Y-81806193D01*
X38038256Y-82270524D01*
X37824548Y-82786461D01*
X37715600Y-83334177D01*
X37260600Y-83334177D01*
X37260600Y-64584177D01*
X37715600Y-64584177D01*
X37715600Y-65142623D01*
X37824548Y-65690339D01*
X38038256Y-66206276D01*
X38348512Y-66670607D01*
X38743393Y-67065488D01*
X39207724Y-67375744D01*
X39723661Y-67589452D01*
X40271377Y-67698400D01*
X40829823Y-67698400D01*
X41377539Y-67589452D01*
X41893476Y-67375744D01*
X42357807Y-67065488D01*
X42752688Y-66670607D01*
X43062944Y-66206276D01*
X43276652Y-65690339D01*
X43385600Y-65142623D01*
X43385600Y-64584177D01*
X131302400Y-64584177D01*
X131302400Y-65142623D01*
X131411348Y-65690339D01*
X131625056Y-66206276D01*
X131935312Y-66670607D01*
X132330193Y-67065488D01*
X132794524Y-67375744D01*
X133310461Y-67589452D01*
X133858177Y-67698400D01*
X134416623Y-67698400D01*
X134964339Y-67589452D01*
X135480276Y-67375744D01*
X135944607Y-67065488D01*
X136339488Y-66670607D01*
X136649744Y-66206276D01*
X136863452Y-65690339D01*
X136972400Y-65142623D01*
X136972400Y-64584177D01*
X283791300Y-64584177D01*
X283791300Y-65142623D01*
X283900248Y-65690339D01*
X284113956Y-66206276D01*
X284424212Y-66670607D01*
X284819093Y-67065488D01*
X285283424Y-67375744D01*
X285799361Y-67589452D01*
X286347077Y-67698400D01*
X286905523Y-67698400D01*
X287453239Y-67589452D01*
X287969176Y-67375744D01*
X288433507Y-67065488D01*
X288828388Y-66670607D01*
X289138644Y-66206276D01*
X289352352Y-65690339D01*
X289461300Y-65142623D01*
X289461300Y-64584177D01*
X377378100Y-64584177D01*
X377378100Y-65142623D01*
X377487048Y-65690339D01*
X377700756Y-66206276D01*
X378011012Y-66670607D01*
X378405893Y-67065488D01*
X378870224Y-67375744D01*
X379386161Y-67589452D01*
X379933877Y-67698400D01*
X380492323Y-67698400D01*
X381040039Y-67589452D01*
X381555976Y-67375744D01*
X382020307Y-67065488D01*
X382415188Y-66670607D01*
X382725444Y-66206276D01*
X382939152Y-65690339D01*
X383048100Y-65142623D01*
X383048100Y-64584177D01*
X382939152Y-64036461D01*
X382725444Y-63520524D01*
X382415188Y-63056193D01*
X382020307Y-62661312D01*
X381555976Y-62351056D01*
X381040039Y-62137348D01*
X380492323Y-62028400D01*
X379933877Y-62028400D01*
X379386161Y-62137348D01*
X378870224Y-62351056D01*
X378405893Y-62661312D01*
X378011012Y-63056193D01*
X377700756Y-63520524D01*
X377487048Y-64036461D01*
X377378100Y-64584177D01*
X289461300Y-64584177D01*
X289352352Y-64036461D01*
X289138644Y-63520524D01*
X288828388Y-63056193D01*
X288433507Y-62661312D01*
X287969176Y-62351056D01*
X287453239Y-62137348D01*
X286905523Y-62028400D01*
X286347077Y-62028400D01*
X285799361Y-62137348D01*
X285283424Y-62351056D01*
X284819093Y-62661312D01*
X284424212Y-63056193D01*
X284113956Y-63520524D01*
X283900248Y-64036461D01*
X283791300Y-64584177D01*
X136972400Y-64584177D01*
X136863452Y-64036461D01*
X136649744Y-63520524D01*
X136339488Y-63056193D01*
X135944607Y-62661312D01*
X135480276Y-62351056D01*
X134964339Y-62137348D01*
X134416623Y-62028400D01*
X133858177Y-62028400D01*
X133310461Y-62137348D01*
X132794524Y-62351056D01*
X132330193Y-62661312D01*
X131935312Y-63056193D01*
X131625056Y-63520524D01*
X131411348Y-64036461D01*
X131302400Y-64584177D01*
X43385600Y-64584177D01*
X43276652Y-64036461D01*
X43062944Y-63520524D01*
X42752688Y-63056193D01*
X42357807Y-62661312D01*
X41893476Y-62351056D01*
X41377539Y-62137348D01*
X40829823Y-62028400D01*
X40271377Y-62028400D01*
X39723661Y-62137348D01*
X39207724Y-62351056D01*
X38743393Y-62661312D01*
X38348512Y-63056193D01*
X38038256Y-63520524D01*
X37824548Y-64036461D01*
X37715600Y-64584177D01*
X37260600Y-64584177D01*
X37260601Y-64207861D01*
X37312944Y-63668992D01*
X37458812Y-63184268D01*
X37696047Y-62737113D01*
X38015621Y-62344551D01*
X38405355Y-62021538D01*
X38850408Y-61780377D01*
X39333829Y-61630252D01*
X39870067Y-61573400D01*
X380868629Y-61573400D01*
X381407508Y-61625744D01*
M02*
