%TF.GenerationSoftware,KiCad,Pcbnew,5.1.7-a382d34a8~88~ubuntu20.04.1*%
%TF.CreationDate,2021-03-29T02:56:27+02:00*%
%TF.ProjectId,mysterium-bottom,6d797374-6572-4697-956d-2d626f74746f,rev?*%
%TF.SameCoordinates,Original*%
%TF.FileFunction,Soldermask,Top*%
%TF.FilePolarity,Negative*%
%FSLAX46Y46*%
G04 Gerber Fmt 4.6, Leading zero omitted, Abs format (unit mm)*
G04 Created by KiCad (PCBNEW 5.1.7-a382d34a8~88~ubuntu20.04.1) date 2021-03-29 02:56:27*
%MOMM*%
%LPD*%
G01*
G04 APERTURE LIST*
%TA.AperFunction,Profile*%
%ADD10C,0.150000*%
%TD*%
%ADD11C,8.702000*%
%ADD12C,4.502000*%
G04 APERTURE END LIST*
D10*
X384213099Y-204169841D02*
G75*
G02*
X380909040Y-207479900I-3307059J-3000D01*
G01*
X380903041Y-60863401D02*
G75*
G02*
X384213100Y-64167460I3000J-3307059D01*
G01*
X36550601Y-64173459D02*
G75*
G02*
X39854660Y-60863400I3307059J3000D01*
G01*
X39860659Y-207479899D02*
G75*
G02*
X36550600Y-204175840I-3000J3307059D01*
G01*
X384213100Y-64167460D02*
X384213099Y-204169841D01*
X380909040Y-207479900D02*
X39860659Y-207479899D01*
X39854660Y-60863400D02*
X380903041Y-60863400D01*
X384213099Y-204169841D02*
G75*
G02*
X380909040Y-207479900I-3307059J-3000D01*
G01*
X380903041Y-60863401D02*
G75*
G02*
X384213100Y-64167460I3000J-3307059D01*
G01*
X36550601Y-64173459D02*
G75*
G02*
X39854660Y-60863400I3307059J3000D01*
G01*
X39860659Y-207479899D02*
G75*
G02*
X36550600Y-204175840I-3000J3307059D01*
G01*
X384213100Y-64167460D02*
X384213099Y-204169841D01*
X380909040Y-207479900D02*
X39860659Y-207479899D01*
X39854660Y-60863400D02*
X380903041Y-60863400D01*
D11*
X356213100Y-97053400D03*
X64550600Y-97053400D03*
D12*
X286626300Y-83613400D03*
X134137400Y-83613400D03*
X286626300Y-64863400D03*
X40550600Y-64863400D03*
X379523512Y-183454800D03*
X327986788Y-183454800D03*
X379523512Y-155219400D03*
X327986788Y-155219400D03*
X79401800Y-187587400D03*
X85763100Y-109702600D03*
X335000600Y-109702600D03*
X210419351Y-197713600D03*
X210419351Y-109702600D03*
X134137400Y-64863400D03*
X380213100Y-64863400D03*
X380213100Y-83613400D03*
X40550600Y-83613400D03*
M02*
