G04 #@! TF.GenerationSoftware,KiCad,Pcbnew,5.99.0+really5.1.10+dfsg1-1*
G04 #@! TF.CreationDate,2021-11-12T03:05:17+01:00*
G04 #@! TF.ProjectId,mysterium-bottom,6d797374-6572-4697-956d-2d626f74746f,rev?*
G04 #@! TF.SameCoordinates,Original*
G04 #@! TF.FileFunction,Copper,L2,Bot*
G04 #@! TF.FilePolarity,Positive*
%FSLAX46Y46*%
G04 Gerber Fmt 4.6, Leading zero omitted, Abs format (unit mm)*
G04 Created by KiCad (PCBNEW 5.99.0+really5.1.10+dfsg1-1) date 2021-11-12 03:05:17*
%MOMM*%
%LPD*%
G01*
G04 APERTURE LIST*
G04 #@! TA.AperFunction,NonConductor*
%ADD10C,0.200000*%
G04 #@! TD*
G04 #@! TA.AperFunction,EtchedComponent*
%ADD11C,0.010000*%
G04 #@! TD*
G04 #@! TA.AperFunction,EtchedComponent*
%ADD12C,4.700000*%
G04 #@! TD*
G04 #@! TA.AperFunction,ComponentPad*
%ADD13C,4.400000*%
G04 #@! TD*
G04 #@! TA.AperFunction,ComponentPad*
%ADD14C,8.600000*%
G04 #@! TD*
G04 #@! TA.AperFunction,Conductor*
%ADD15C,0.254000*%
G04 #@! TD*
G04 #@! TA.AperFunction,Conductor*
%ADD16C,0.150000*%
G04 #@! TD*
G04 APERTURE END LIST*
D10*
X119833114Y-155494704D02*
X119975971Y-155613752D01*
X120261685Y-155613752D01*
X120404542Y-155494704D01*
X120475971Y-155375657D01*
X120547400Y-155137561D01*
X120547400Y-154423276D01*
X120475971Y-154185180D01*
X120404542Y-154066133D01*
X120261685Y-153947085D01*
X119975971Y-153947085D01*
X119833114Y-154066133D01*
X118975971Y-155613752D02*
X119118828Y-155494704D01*
X119190257Y-155375657D01*
X119261685Y-155137561D01*
X119261685Y-154423276D01*
X119190257Y-154185180D01*
X119118828Y-154066133D01*
X118975971Y-153947085D01*
X118761685Y-153947085D01*
X118618828Y-154066133D01*
X118547400Y-154185180D01*
X118475971Y-154423276D01*
X118475971Y-155137561D01*
X118547400Y-155375657D01*
X118618828Y-155494704D01*
X118761685Y-155613752D01*
X118975971Y-155613752D01*
X117904542Y-155494704D02*
X117761685Y-155613752D01*
X117475971Y-155613752D01*
X117333114Y-155494704D01*
X117261685Y-155256609D01*
X117261685Y-155137561D01*
X117333114Y-154899466D01*
X117475971Y-154780419D01*
X117690257Y-154780419D01*
X117833114Y-154661371D01*
X117904542Y-154423276D01*
X117904542Y-154304228D01*
X117833114Y-154066133D01*
X117690257Y-153947085D01*
X117475971Y-153947085D01*
X117333114Y-154066133D01*
X116047400Y-155494704D02*
X116190257Y-155613752D01*
X116475971Y-155613752D01*
X116618828Y-155494704D01*
X116690257Y-155256609D01*
X116690257Y-154304228D01*
X116618828Y-154066133D01*
X116475971Y-153947085D01*
X116190257Y-153947085D01*
X116047400Y-154066133D01*
X115975971Y-154304228D01*
X115975971Y-154542323D01*
X116690257Y-154780419D01*
X115475971Y-153947085D02*
X115118828Y-155613752D01*
X114761685Y-153947085D02*
X115118828Y-155613752D01*
X115261685Y-156208990D01*
X115333114Y-156328038D01*
X115475971Y-156447085D01*
X114404542Y-153947085D02*
X113833114Y-153947085D01*
X114190257Y-155613752D02*
X114190257Y-153470895D01*
X114118828Y-153232800D01*
X113975971Y-153113752D01*
X113833114Y-153113752D01*
X112690257Y-155613752D02*
X112690257Y-154304228D01*
X112761685Y-154066133D01*
X112904542Y-153947085D01*
X113190257Y-153947085D01*
X113333114Y-154066133D01*
X112690257Y-155494704D02*
X112833114Y-155613752D01*
X113190257Y-155613752D01*
X113333114Y-155494704D01*
X113404542Y-155256609D01*
X113404542Y-155018514D01*
X113333114Y-154780419D01*
X113190257Y-154661371D01*
X112833114Y-154661371D01*
X112690257Y-154542323D01*
X111975971Y-153947085D02*
X111975971Y-155613752D01*
X111975971Y-154185180D02*
X111904542Y-154066133D01*
X111761685Y-153947085D01*
X111547400Y-153947085D01*
X111404542Y-154066133D01*
X111333114Y-154304228D01*
X111333114Y-155613752D01*
X110618828Y-153947085D02*
X110618828Y-155613752D01*
X110618828Y-154185180D02*
X110547400Y-154066133D01*
X110404542Y-153947085D01*
X110190257Y-153947085D01*
X110047400Y-154066133D01*
X109975971Y-154304228D01*
X109975971Y-155613752D01*
X109261685Y-155613752D02*
X109261685Y-153947085D01*
X109261685Y-153113752D02*
X109333114Y-153232800D01*
X109261685Y-153351847D01*
X109190257Y-153232800D01*
X109261685Y-153113752D01*
X109261685Y-153351847D01*
X108761685Y-153947085D02*
X108190257Y-153947085D01*
X108547400Y-153113752D02*
X108547400Y-155256609D01*
X108475971Y-155494704D01*
X108333114Y-155613752D01*
X108190257Y-155613752D01*
X107047400Y-153947085D02*
X107047400Y-155613752D01*
X107690257Y-153947085D02*
X107690257Y-155256609D01*
X107618828Y-155494704D01*
X107475971Y-155613752D01*
X107261685Y-155613752D01*
X107118828Y-155494704D01*
X107047400Y-155375657D01*
X106547400Y-153947085D02*
X105975971Y-153947085D01*
X106333114Y-153113752D02*
X106333114Y-155256609D01*
X106261685Y-155494704D01*
X106118828Y-155613752D01*
X105975971Y-155613752D01*
X105690257Y-153947085D02*
X105118828Y-153947085D01*
X105475971Y-153113752D02*
X105475971Y-155256609D01*
X105404542Y-155494704D01*
X105261685Y-155613752D01*
X105118828Y-155613752D01*
X104618828Y-155613752D02*
X104618828Y-153947085D01*
X104618828Y-153113752D02*
X104690257Y-153232800D01*
X104618828Y-153351847D01*
X104547400Y-153232800D01*
X104618828Y-153113752D01*
X104618828Y-153351847D01*
D11*
G36*
X123928352Y-124543650D02*
G01*
X123025417Y-124807770D01*
X122672370Y-125041334D01*
X122398219Y-125488619D01*
X121939980Y-126432876D01*
X121336719Y-127784958D01*
X120627502Y-129455720D01*
X119851396Y-131356017D01*
X119339917Y-132645655D01*
X118560632Y-134620262D01*
X117847936Y-136401283D01*
X117236117Y-137905030D01*
X116759463Y-139047817D01*
X116452261Y-139745958D01*
X116358070Y-139923551D01*
X116183866Y-139714825D01*
X115810487Y-138997279D01*
X115271412Y-137844501D01*
X114600123Y-136330082D01*
X113830098Y-134527612D01*
X113076761Y-132711205D01*
X112228118Y-130668866D01*
X111430804Y-128809067D01*
X110722173Y-127214322D01*
X110139576Y-125967150D01*
X109720367Y-125150066D01*
X109520790Y-124855637D01*
X108850997Y-124590381D01*
X107881989Y-124476460D01*
X106862006Y-124511404D01*
X106039290Y-124692738D01*
X105723216Y-124893465D01*
X105611554Y-125259563D01*
X105527534Y-126077790D01*
X105470187Y-127382799D01*
X105438547Y-129209247D01*
X105431645Y-131591788D01*
X105448514Y-134565076D01*
X105449634Y-134692848D01*
X105532758Y-144062427D01*
X108041400Y-144062427D01*
X108354980Y-127135573D01*
X111792139Y-135677395D01*
X115229297Y-144219217D01*
X117549937Y-144219217D01*
X119974300Y-138026007D01*
X120759826Y-136019520D01*
X121526123Y-134062499D01*
X122222620Y-132284071D01*
X122798746Y-130813363D01*
X123203930Y-129779500D01*
X123244075Y-129677123D01*
X124089487Y-127521449D01*
X124296925Y-132314018D01*
X124374707Y-134371949D01*
X124439196Y-136575101D01*
X124484314Y-138678829D01*
X124503983Y-140438489D01*
X124504363Y-140662902D01*
X124504363Y-144219217D01*
X127013005Y-144219217D01*
X127013005Y-134717736D01*
X127005490Y-131779103D01*
X126981811Y-129422920D01*
X126940274Y-127604639D01*
X126879180Y-126279717D01*
X126796833Y-125403608D01*
X126691535Y-124931768D01*
X126636709Y-124839958D01*
X125987014Y-124546891D01*
X124999890Y-124452406D01*
X123928352Y-124543650D01*
G37*
X123928352Y-124543650D02*
X123025417Y-124807770D01*
X122672370Y-125041334D01*
X122398219Y-125488619D01*
X121939980Y-126432876D01*
X121336719Y-127784958D01*
X120627502Y-129455720D01*
X119851396Y-131356017D01*
X119339917Y-132645655D01*
X118560632Y-134620262D01*
X117847936Y-136401283D01*
X117236117Y-137905030D01*
X116759463Y-139047817D01*
X116452261Y-139745958D01*
X116358070Y-139923551D01*
X116183866Y-139714825D01*
X115810487Y-138997279D01*
X115271412Y-137844501D01*
X114600123Y-136330082D01*
X113830098Y-134527612D01*
X113076761Y-132711205D01*
X112228118Y-130668866D01*
X111430804Y-128809067D01*
X110722173Y-127214322D01*
X110139576Y-125967150D01*
X109720367Y-125150066D01*
X109520790Y-124855637D01*
X108850997Y-124590381D01*
X107881989Y-124476460D01*
X106862006Y-124511404D01*
X106039290Y-124692738D01*
X105723216Y-124893465D01*
X105611554Y-125259563D01*
X105527534Y-126077790D01*
X105470187Y-127382799D01*
X105438547Y-129209247D01*
X105431645Y-131591788D01*
X105448514Y-134565076D01*
X105449634Y-134692848D01*
X105532758Y-144062427D01*
X108041400Y-144062427D01*
X108354980Y-127135573D01*
X111792139Y-135677395D01*
X115229297Y-144219217D01*
X117549937Y-144219217D01*
X119974300Y-138026007D01*
X120759826Y-136019520D01*
X121526123Y-134062499D01*
X122222620Y-132284071D01*
X122798746Y-130813363D01*
X123203930Y-129779500D01*
X123244075Y-129677123D01*
X124089487Y-127521449D01*
X124296925Y-132314018D01*
X124374707Y-134371949D01*
X124439196Y-136575101D01*
X124484314Y-138678829D01*
X124503983Y-140438489D01*
X124504363Y-140662902D01*
X124504363Y-144219217D01*
X127013005Y-144219217D01*
X127013005Y-134717736D01*
X127005490Y-131779103D01*
X126981811Y-129422920D01*
X126940274Y-127604639D01*
X126879180Y-126279717D01*
X126796833Y-125403608D01*
X126691535Y-124931768D01*
X126636709Y-124839958D01*
X125987014Y-124546891D01*
X124999890Y-124452406D01*
X123928352Y-124543650D01*
D12*
X333355351Y-98484649D02*
X87495351Y-98484649D01*
X333355351Y-169884649D02*
X87495351Y-169884649D01*
D11*
G36*
X188972197Y-124504568D02*
G01*
X188615486Y-124514370D01*
X186861193Y-124584892D01*
X185589339Y-124695208D01*
X184655463Y-124867023D01*
X183915103Y-125122041D01*
X183614240Y-125265782D01*
X182495609Y-126141465D01*
X181593636Y-127399416D01*
X181050374Y-128806667D01*
X180955694Y-129625785D01*
X181229284Y-131114021D01*
X181943146Y-132524683D01*
X182968383Y-133628662D01*
X183352754Y-133886440D01*
X184554980Y-134577971D01*
X183576925Y-135614401D01*
X183148604Y-136216960D01*
X182597656Y-137200961D01*
X181980592Y-138437739D01*
X181353922Y-139798630D01*
X180774157Y-141154971D01*
X180297807Y-142378097D01*
X179981384Y-143339344D01*
X179881397Y-143910048D01*
X179900894Y-143984032D01*
X180278353Y-144135255D01*
X181033496Y-144215370D01*
X181253480Y-144219217D01*
X182461880Y-144219217D01*
X183319680Y-141945761D01*
X184196499Y-139741324D01*
X184980992Y-138077263D01*
X185731178Y-136885078D01*
X186505069Y-136096270D01*
X187360683Y-135642339D01*
X188356034Y-135454786D01*
X188830603Y-135438970D01*
X190356215Y-135438970D01*
X190356215Y-144219217D01*
X191558273Y-144219217D01*
X192386941Y-144169121D01*
X192917394Y-144045175D01*
X192969384Y-144010164D01*
X193022616Y-143654813D01*
X193070852Y-142752468D01*
X193112297Y-141383283D01*
X193145161Y-139627417D01*
X193167648Y-137565027D01*
X193177968Y-135276268D01*
X193178437Y-134662691D01*
X193175069Y-133243909D01*
X190356215Y-133243909D01*
X188364317Y-133243909D01*
X187040403Y-133179336D01*
X186085677Y-132946843D01*
X185311049Y-132528652D01*
X184290068Y-131556040D01*
X183840662Y-130364386D01*
X183901019Y-129043155D01*
X184340153Y-127946875D01*
X185207927Y-127201201D01*
X186550279Y-126780899D01*
X188239548Y-126659896D01*
X190356215Y-126658723D01*
X190356215Y-133243909D01*
X193175069Y-133243909D01*
X193171752Y-131847271D01*
X193150093Y-129601783D01*
X193111058Y-127869121D01*
X193052244Y-126592181D01*
X192971249Y-125713861D01*
X192865669Y-125177055D01*
X192770424Y-124966280D01*
X192528853Y-124728685D01*
X192143273Y-124576227D01*
X191498657Y-124496395D01*
X190479975Y-124476680D01*
X188972197Y-124504568D01*
G37*
X188972197Y-124504568D02*
X188615486Y-124514370D01*
X186861193Y-124584892D01*
X185589339Y-124695208D01*
X184655463Y-124867023D01*
X183915103Y-125122041D01*
X183614240Y-125265782D01*
X182495609Y-126141465D01*
X181593636Y-127399416D01*
X181050374Y-128806667D01*
X180955694Y-129625785D01*
X181229284Y-131114021D01*
X181943146Y-132524683D01*
X182968383Y-133628662D01*
X183352754Y-133886440D01*
X184554980Y-134577971D01*
X183576925Y-135614401D01*
X183148604Y-136216960D01*
X182597656Y-137200961D01*
X181980592Y-138437739D01*
X181353922Y-139798630D01*
X180774157Y-141154971D01*
X180297807Y-142378097D01*
X179981384Y-143339344D01*
X179881397Y-143910048D01*
X179900894Y-143984032D01*
X180278353Y-144135255D01*
X181033496Y-144215370D01*
X181253480Y-144219217D01*
X182461880Y-144219217D01*
X183319680Y-141945761D01*
X184196499Y-139741324D01*
X184980992Y-138077263D01*
X185731178Y-136885078D01*
X186505069Y-136096270D01*
X187360683Y-135642339D01*
X188356034Y-135454786D01*
X188830603Y-135438970D01*
X190356215Y-135438970D01*
X190356215Y-144219217D01*
X191558273Y-144219217D01*
X192386941Y-144169121D01*
X192917394Y-144045175D01*
X192969384Y-144010164D01*
X193022616Y-143654813D01*
X193070852Y-142752468D01*
X193112297Y-141383283D01*
X193145161Y-139627417D01*
X193167648Y-137565027D01*
X193177968Y-135276268D01*
X193178437Y-134662691D01*
X193175069Y-133243909D01*
X190356215Y-133243909D01*
X188364317Y-133243909D01*
X187040403Y-133179336D01*
X186085677Y-132946843D01*
X185311049Y-132528652D01*
X184290068Y-131556040D01*
X183840662Y-130364386D01*
X183901019Y-129043155D01*
X184340153Y-127946875D01*
X185207927Y-127201201D01*
X186550279Y-126780899D01*
X188239548Y-126659896D01*
X190356215Y-126658723D01*
X190356215Y-133243909D01*
X193175069Y-133243909D01*
X193171752Y-131847271D01*
X193150093Y-129601783D01*
X193111058Y-127869121D01*
X193052244Y-126592181D01*
X192971249Y-125713861D01*
X192865669Y-125177055D01*
X192770424Y-124966280D01*
X192528853Y-124728685D01*
X192143273Y-124576227D01*
X191498657Y-124496395D01*
X190479975Y-124476680D01*
X188972197Y-124504568D01*
G36*
X204525853Y-125482798D02*
G01*
X204624116Y-126501933D01*
X208622264Y-126589697D01*
X212620413Y-126677461D01*
X212620413Y-132909788D01*
X209092635Y-132998453D01*
X205564857Y-133087119D01*
X205564857Y-134655020D01*
X212620413Y-134832350D01*
X212620413Y-142024156D01*
X208566862Y-142024156D01*
X206891678Y-142032406D01*
X205742166Y-142066049D01*
X205016952Y-142138420D01*
X204614666Y-142262857D01*
X204433932Y-142452696D01*
X204395688Y-142572921D01*
X204363732Y-143374008D01*
X204409269Y-143670452D01*
X204511315Y-143875197D01*
X204764433Y-144022033D01*
X205258974Y-144120390D01*
X206085288Y-144179698D01*
X207333724Y-144209388D01*
X209094634Y-144218890D01*
X209666941Y-144219217D01*
X211578317Y-144214219D01*
X212957545Y-144192179D01*
X213899607Y-144142529D01*
X214499481Y-144054701D01*
X214852148Y-143918125D01*
X215052587Y-143722233D01*
X215118022Y-143612672D01*
X215196912Y-143160011D01*
X215266511Y-142179465D01*
X215326102Y-140770250D01*
X215374973Y-139031583D01*
X215412408Y-137062680D01*
X215437694Y-134962757D01*
X215450116Y-132831031D01*
X215448960Y-130766719D01*
X215433512Y-128869037D01*
X215403058Y-127237201D01*
X215356883Y-125970429D01*
X215294274Y-125167936D01*
X215252295Y-124959679D01*
X215104642Y-124775508D01*
X214766532Y-124642402D01*
X214150813Y-124552514D01*
X213170333Y-124497994D01*
X211737938Y-124470993D01*
X209766478Y-124463662D01*
X204427590Y-124463662D01*
X204525853Y-125482798D01*
G37*
X204525853Y-125482798D02*
X204624116Y-126501933D01*
X208622264Y-126589697D01*
X212620413Y-126677461D01*
X212620413Y-132909788D01*
X209092635Y-132998453D01*
X205564857Y-133087119D01*
X205564857Y-134655020D01*
X212620413Y-134832350D01*
X212620413Y-142024156D01*
X208566862Y-142024156D01*
X206891678Y-142032406D01*
X205742166Y-142066049D01*
X205016952Y-142138420D01*
X204614666Y-142262857D01*
X204433932Y-142452696D01*
X204395688Y-142572921D01*
X204363732Y-143374008D01*
X204409269Y-143670452D01*
X204511315Y-143875197D01*
X204764433Y-144022033D01*
X205258974Y-144120390D01*
X206085288Y-144179698D01*
X207333724Y-144209388D01*
X209094634Y-144218890D01*
X209666941Y-144219217D01*
X211578317Y-144214219D01*
X212957545Y-144192179D01*
X213899607Y-144142529D01*
X214499481Y-144054701D01*
X214852148Y-143918125D01*
X215052587Y-143722233D01*
X215118022Y-143612672D01*
X215196912Y-143160011D01*
X215266511Y-142179465D01*
X215326102Y-140770250D01*
X215374973Y-139031583D01*
X215412408Y-137062680D01*
X215437694Y-134962757D01*
X215450116Y-132831031D01*
X215448960Y-130766719D01*
X215433512Y-128869037D01*
X215403058Y-127237201D01*
X215356883Y-125970429D01*
X215294274Y-125167936D01*
X215252295Y-124959679D01*
X215104642Y-124775508D01*
X214766532Y-124642402D01*
X214150813Y-124552514D01*
X213170333Y-124497994D01*
X211737938Y-124470993D01*
X209766478Y-124463662D01*
X204427590Y-124463662D01*
X204525853Y-125482798D01*
G36*
X232611153Y-124536277D02*
G01*
X225320413Y-124620452D01*
X225320413Y-126501933D01*
X228171836Y-126591445D01*
X231023259Y-126680956D01*
X231228357Y-132549469D01*
X231296334Y-134657537D01*
X231354898Y-136784661D01*
X231399999Y-138758375D01*
X231427584Y-140406216D01*
X231434341Y-141318600D01*
X231435227Y-144219217D01*
X233943869Y-144219217D01*
X233943869Y-126658723D01*
X239901894Y-126658723D01*
X239901894Y-124452103D01*
X232611153Y-124536277D01*
G37*
X232611153Y-124536277D02*
X225320413Y-124620452D01*
X225320413Y-126501933D01*
X228171836Y-126591445D01*
X231023259Y-126680956D01*
X231228357Y-132549469D01*
X231296334Y-134657537D01*
X231354898Y-136784661D01*
X231399999Y-138758375D01*
X231427584Y-140406216D01*
X231434341Y-141318600D01*
X231435227Y-144219217D01*
X233943869Y-144219217D01*
X233943869Y-126658723D01*
X239901894Y-126658723D01*
X239901894Y-124452103D01*
X232611153Y-124536277D01*
G36*
X253696925Y-124236744D02*
G01*
X252443983Y-124390058D01*
X251290421Y-124651608D01*
X250639517Y-124894785D01*
X249932400Y-125371055D01*
X249655794Y-125972299D01*
X249622882Y-126509986D01*
X249660976Y-127200950D01*
X249857320Y-127514332D01*
X250335007Y-127480126D01*
X251217128Y-127128324D01*
X251548514Y-126979191D01*
X253168585Y-126462934D01*
X254655749Y-126396622D01*
X255910357Y-126753316D01*
X256832758Y-127506080D01*
X257304489Y-128535157D01*
X257354324Y-129438598D01*
X257041785Y-130266990D01*
X256308118Y-131085461D01*
X255094571Y-131959137D01*
X253342391Y-132953143D01*
X253297610Y-132976717D01*
X251688320Y-133886450D01*
X250405663Y-134739954D01*
X249562701Y-135460031D01*
X249426361Y-135619977D01*
X248646013Y-137117996D01*
X248407002Y-138745175D01*
X248676767Y-140377748D01*
X249422748Y-141891949D01*
X250612383Y-143164009D01*
X251574435Y-143785082D01*
X252687831Y-144150213D01*
X254168837Y-144360348D01*
X255774574Y-144404135D01*
X257262162Y-144270220D01*
X258036604Y-144087140D01*
X259469117Y-143456871D01*
X260313561Y-142683563D01*
X260598011Y-141741210D01*
X260598190Y-141714238D01*
X260532928Y-140991136D01*
X260263512Y-140694326D01*
X259679496Y-140793941D01*
X258756912Y-141216333D01*
X256964738Y-141911999D01*
X255274468Y-142184543D01*
X253770683Y-142058234D01*
X252537961Y-141557344D01*
X251660882Y-140706144D01*
X251224027Y-139528905D01*
X251190783Y-139045143D01*
X251372309Y-138048761D01*
X251959806Y-137138196D01*
X253017653Y-136247546D01*
X254610227Y-135310907D01*
X255065237Y-135078895D01*
X256952825Y-134059484D01*
X258310286Y-133115100D01*
X259212685Y-132156237D01*
X259735089Y-131093386D01*
X259952564Y-129837040D01*
X259971030Y-129229311D01*
X259697174Y-127535118D01*
X258872041Y-126135481D01*
X257490280Y-125022075D01*
X257146277Y-124832809D01*
X256188520Y-124411499D01*
X255265409Y-124221854D01*
X254090063Y-124214299D01*
X253696925Y-124236744D01*
G37*
X253696925Y-124236744D02*
X252443983Y-124390058D01*
X251290421Y-124651608D01*
X250639517Y-124894785D01*
X249932400Y-125371055D01*
X249655794Y-125972299D01*
X249622882Y-126509986D01*
X249660976Y-127200950D01*
X249857320Y-127514332D01*
X250335007Y-127480126D01*
X251217128Y-127128324D01*
X251548514Y-126979191D01*
X253168585Y-126462934D01*
X254655749Y-126396622D01*
X255910357Y-126753316D01*
X256832758Y-127506080D01*
X257304489Y-128535157D01*
X257354324Y-129438598D01*
X257041785Y-130266990D01*
X256308118Y-131085461D01*
X255094571Y-131959137D01*
X253342391Y-132953143D01*
X253297610Y-132976717D01*
X251688320Y-133886450D01*
X250405663Y-134739954D01*
X249562701Y-135460031D01*
X249426361Y-135619977D01*
X248646013Y-137117996D01*
X248407002Y-138745175D01*
X248676767Y-140377748D01*
X249422748Y-141891949D01*
X250612383Y-143164009D01*
X251574435Y-143785082D01*
X252687831Y-144150213D01*
X254168837Y-144360348D01*
X255774574Y-144404135D01*
X257262162Y-144270220D01*
X258036604Y-144087140D01*
X259469117Y-143456871D01*
X260313561Y-142683563D01*
X260598011Y-141741210D01*
X260598190Y-141714238D01*
X260532928Y-140991136D01*
X260263512Y-140694326D01*
X259679496Y-140793941D01*
X258756912Y-141216333D01*
X256964738Y-141911999D01*
X255274468Y-142184543D01*
X253770683Y-142058234D01*
X252537961Y-141557344D01*
X251660882Y-140706144D01*
X251224027Y-139528905D01*
X251190783Y-139045143D01*
X251372309Y-138048761D01*
X251959806Y-137138196D01*
X253017653Y-136247546D01*
X254610227Y-135310907D01*
X255065237Y-135078895D01*
X256952825Y-134059484D01*
X258310286Y-133115100D01*
X259212685Y-132156237D01*
X259735089Y-131093386D01*
X259952564Y-129837040D01*
X259971030Y-129229311D01*
X259697174Y-127535118D01*
X258872041Y-126135481D01*
X257490280Y-125022075D01*
X257146277Y-124832809D01*
X256188520Y-124411499D01*
X255265409Y-124221854D01*
X254090063Y-124214299D01*
X253696925Y-124236744D01*
G36*
X279210743Y-127521069D02*
G01*
X278517160Y-129003959D01*
X277830472Y-130482660D01*
X277252083Y-131738355D01*
X277008797Y-132272503D01*
X276242894Y-133966530D01*
X274899755Y-131018182D01*
X274211847Y-129526088D01*
X273501836Y-128015568D01*
X272882744Y-126726015D01*
X272656524Y-126266748D01*
X272150665Y-125292201D01*
X271759271Y-124752790D01*
X271322091Y-124519859D01*
X270678873Y-124464753D01*
X270410644Y-124463662D01*
X269591695Y-124496901D01*
X269114613Y-124580573D01*
X269064857Y-124623587D01*
X269199039Y-124939032D01*
X269574196Y-125730351D01*
X270149248Y-126913263D01*
X270883114Y-128403487D01*
X271734712Y-130116741D01*
X272043869Y-130735267D01*
X275022882Y-136687021D01*
X275022882Y-144219217D01*
X277531524Y-144219217D01*
X277531524Y-136687021D01*
X280510536Y-130735267D01*
X281392813Y-128965366D01*
X282171330Y-127389831D01*
X282805005Y-126092944D01*
X283252757Y-125158986D01*
X283473505Y-124672237D01*
X283489548Y-124623587D01*
X283208916Y-124528465D01*
X282498417Y-124471196D01*
X282068167Y-124463662D01*
X280646785Y-124463662D01*
X279210743Y-127521069D01*
G37*
X279210743Y-127521069D02*
X278517160Y-129003959D01*
X277830472Y-130482660D01*
X277252083Y-131738355D01*
X277008797Y-132272503D01*
X276242894Y-133966530D01*
X274899755Y-131018182D01*
X274211847Y-129526088D01*
X273501836Y-128015568D01*
X272882744Y-126726015D01*
X272656524Y-126266748D01*
X272150665Y-125292201D01*
X271759271Y-124752790D01*
X271322091Y-124519859D01*
X270678873Y-124464753D01*
X270410644Y-124463662D01*
X269591695Y-124496901D01*
X269114613Y-124580573D01*
X269064857Y-124623587D01*
X269199039Y-124939032D01*
X269574196Y-125730351D01*
X270149248Y-126913263D01*
X270883114Y-128403487D01*
X271734712Y-130116741D01*
X272043869Y-130735267D01*
X275022882Y-136687021D01*
X275022882Y-144219217D01*
X277531524Y-144219217D01*
X277531524Y-136687021D01*
X280510536Y-130735267D01*
X281392813Y-128965366D01*
X282171330Y-127389831D01*
X282805005Y-126092944D01*
X283252757Y-125158986D01*
X283473505Y-124672237D01*
X283489548Y-124623587D01*
X283208916Y-124528465D01*
X282498417Y-124471196D01*
X282068167Y-124463662D01*
X280646785Y-124463662D01*
X279210743Y-127521069D01*
G36*
X311380242Y-124618533D02*
G01*
X310702746Y-124997297D01*
X310688804Y-125012427D01*
X310439785Y-125447460D01*
X310000274Y-126380456D01*
X309407692Y-127725098D01*
X308699463Y-129395068D01*
X307913010Y-131304049D01*
X307288455Y-132855493D01*
X306487443Y-134834942D01*
X305753412Y-136591514D01*
X305119597Y-138050273D01*
X304619231Y-139136287D01*
X304285549Y-139774619D01*
X304159251Y-139911049D01*
X303983220Y-139565087D01*
X303606956Y-138720404D01*
X303065634Y-137459580D01*
X302394427Y-135865197D01*
X301628510Y-134019836D01*
X301052308Y-132616748D01*
X300224969Y-130620048D01*
X299448421Y-128795618D01*
X298761693Y-127231270D01*
X298203818Y-126014816D01*
X297813829Y-125234065D01*
X297666040Y-124998602D01*
X297195796Y-124658349D01*
X296467295Y-124517005D01*
X295422880Y-124528231D01*
X293680906Y-124620452D01*
X293598044Y-134419835D01*
X293515181Y-144219217D01*
X296032758Y-144219217D01*
X296032758Y-135543497D01*
X296040610Y-133298339D01*
X296062778Y-131285174D01*
X296097182Y-129581039D01*
X296141741Y-128262974D01*
X296194375Y-127408018D01*
X296253002Y-127093208D01*
X296260915Y-127095933D01*
X296431761Y-127435572D01*
X296802063Y-128282813D01*
X297340440Y-129562128D01*
X298015514Y-131197983D01*
X298795906Y-133114850D01*
X299650237Y-135237196D01*
X299832641Y-135693259D01*
X303176210Y-144062427D01*
X304316844Y-144160268D01*
X304972599Y-144182512D01*
X305396662Y-144020805D01*
X305744926Y-143544417D01*
X306173285Y-142622616D01*
X306186529Y-142592366D01*
X306512212Y-141813699D01*
X307018850Y-140559393D01*
X307662853Y-138939395D01*
X308400631Y-137063650D01*
X309188592Y-135042105D01*
X309548861Y-134111736D01*
X312182141Y-127296847D01*
X312495721Y-144062427D01*
X313604460Y-144155746D01*
X314403544Y-144160357D01*
X314905840Y-144049151D01*
X314937176Y-144025088D01*
X315013197Y-143643467D01*
X315073342Y-142730782D01*
X315118121Y-141382918D01*
X315148043Y-139695758D01*
X315163616Y-137765185D01*
X315165350Y-135687083D01*
X315153754Y-133557334D01*
X315129337Y-131471823D01*
X315092607Y-129526433D01*
X315044075Y-127817047D01*
X314984248Y-126439548D01*
X314913637Y-125489820D01*
X314836540Y-125070207D01*
X314309300Y-124668530D01*
X313407910Y-124457275D01*
X312356760Y-124439567D01*
X311380242Y-124618533D01*
G37*
X311380242Y-124618533D02*
X310702746Y-124997297D01*
X310688804Y-125012427D01*
X310439785Y-125447460D01*
X310000274Y-126380456D01*
X309407692Y-127725098D01*
X308699463Y-129395068D01*
X307913010Y-131304049D01*
X307288455Y-132855493D01*
X306487443Y-134834942D01*
X305753412Y-136591514D01*
X305119597Y-138050273D01*
X304619231Y-139136287D01*
X304285549Y-139774619D01*
X304159251Y-139911049D01*
X303983220Y-139565087D01*
X303606956Y-138720404D01*
X303065634Y-137459580D01*
X302394427Y-135865197D01*
X301628510Y-134019836D01*
X301052308Y-132616748D01*
X300224969Y-130620048D01*
X299448421Y-128795618D01*
X298761693Y-127231270D01*
X298203818Y-126014816D01*
X297813829Y-125234065D01*
X297666040Y-124998602D01*
X297195796Y-124658349D01*
X296467295Y-124517005D01*
X295422880Y-124528231D01*
X293680906Y-124620452D01*
X293598044Y-134419835D01*
X293515181Y-144219217D01*
X296032758Y-144219217D01*
X296032758Y-135543497D01*
X296040610Y-133298339D01*
X296062778Y-131285174D01*
X296097182Y-129581039D01*
X296141741Y-128262974D01*
X296194375Y-127408018D01*
X296253002Y-127093208D01*
X296260915Y-127095933D01*
X296431761Y-127435572D01*
X296802063Y-128282813D01*
X297340440Y-129562128D01*
X298015514Y-131197983D01*
X298795906Y-133114850D01*
X299650237Y-135237196D01*
X299832641Y-135693259D01*
X303176210Y-144062427D01*
X304316844Y-144160268D01*
X304972599Y-144182512D01*
X305396662Y-144020805D01*
X305744926Y-143544417D01*
X306173285Y-142622616D01*
X306186529Y-142592366D01*
X306512212Y-141813699D01*
X307018850Y-140559393D01*
X307662853Y-138939395D01*
X308400631Y-137063650D01*
X309188592Y-135042105D01*
X309548861Y-134111736D01*
X312182141Y-127296847D01*
X312495721Y-144062427D01*
X313604460Y-144155746D01*
X314403544Y-144160357D01*
X314905840Y-144049151D01*
X314937176Y-144025088D01*
X315013197Y-143643467D01*
X315073342Y-142730782D01*
X315118121Y-141382918D01*
X315148043Y-139695758D01*
X315163616Y-137765185D01*
X315165350Y-135687083D01*
X315153754Y-133557334D01*
X315129337Y-131471823D01*
X315092607Y-129526433D01*
X315044075Y-127817047D01*
X314984248Y-126439548D01*
X314913637Y-125489820D01*
X314836540Y-125070207D01*
X314309300Y-124668530D01*
X313407910Y-124457275D01*
X312356760Y-124439567D01*
X311380242Y-124618533D01*
G36*
X151465378Y-131440822D02*
G01*
X151457882Y-133763421D01*
X151436098Y-135551162D01*
X151393319Y-136896303D01*
X151322840Y-137891102D01*
X151217954Y-138627815D01*
X151071956Y-139198700D01*
X150878140Y-139696014D01*
X150862859Y-139729903D01*
X149966841Y-141014607D01*
X148665586Y-141822809D01*
X146967119Y-142149754D01*
X146768561Y-142155927D01*
X144971456Y-141947229D01*
X143563924Y-141248767D01*
X142616395Y-140184174D01*
X142389629Y-139790382D01*
X142215457Y-139373506D01*
X142085491Y-138845982D01*
X141991343Y-138120248D01*
X141924624Y-137108742D01*
X141876945Y-135723901D01*
X141839918Y-133878162D01*
X141808821Y-131754402D01*
X141709575Y-124463662D01*
X139202256Y-124463662D01*
X139300840Y-132093630D01*
X139399425Y-139723599D01*
X140342964Y-141248681D01*
X141555589Y-142641404D01*
X143175820Y-143672900D01*
X145072377Y-144302771D01*
X147113980Y-144490623D01*
X149169349Y-144196059D01*
X149550990Y-144082091D01*
X151273938Y-143201479D01*
X152661905Y-141829359D01*
X153386401Y-140613044D01*
X153573267Y-140148168D01*
X153715939Y-139606451D01*
X153820318Y-138900502D01*
X153892307Y-137942929D01*
X153937807Y-136646339D01*
X153962718Y-134923340D01*
X153972942Y-132686541D01*
X153974020Y-131911193D01*
X153980906Y-124463662D01*
X151472264Y-124463662D01*
X151465378Y-131440822D01*
G37*
X151465378Y-131440822D02*
X151457882Y-133763421D01*
X151436098Y-135551162D01*
X151393319Y-136896303D01*
X151322840Y-137891102D01*
X151217954Y-138627815D01*
X151071956Y-139198700D01*
X150878140Y-139696014D01*
X150862859Y-139729903D01*
X149966841Y-141014607D01*
X148665586Y-141822809D01*
X146967119Y-142149754D01*
X146768561Y-142155927D01*
X144971456Y-141947229D01*
X143563924Y-141248767D01*
X142616395Y-140184174D01*
X142389629Y-139790382D01*
X142215457Y-139373506D01*
X142085491Y-138845982D01*
X141991343Y-138120248D01*
X141924624Y-137108742D01*
X141876945Y-135723901D01*
X141839918Y-133878162D01*
X141808821Y-131754402D01*
X141709575Y-124463662D01*
X139202256Y-124463662D01*
X139300840Y-132093630D01*
X139399425Y-139723599D01*
X140342964Y-141248681D01*
X141555589Y-142641404D01*
X143175820Y-143672900D01*
X145072377Y-144302771D01*
X147113980Y-144490623D01*
X149169349Y-144196059D01*
X149550990Y-144082091D01*
X151273938Y-143201479D01*
X152661905Y-141829359D01*
X153386401Y-140613044D01*
X153573267Y-140148168D01*
X153715939Y-139606451D01*
X153820318Y-138900502D01*
X153892307Y-137942929D01*
X153937807Y-136646339D01*
X153962718Y-134923340D01*
X153972942Y-132686541D01*
X153974020Y-131911193D01*
X153980906Y-124463662D01*
X151472264Y-124463662D01*
X151465378Y-131440822D01*
G36*
X166524116Y-144219217D02*
G01*
X169032758Y-144219217D01*
X169032758Y-124463662D01*
X166524116Y-124463662D01*
X166524116Y-144219217D01*
G37*
X166524116Y-144219217D02*
X169032758Y-144219217D01*
X169032758Y-124463662D01*
X166524116Y-124463662D01*
X166524116Y-144219217D01*
D12*
X87489351Y-98471649D02*
G75*
G03*
X87489351Y-169871649I0J-35700000D01*
G01*
X333355351Y-169884649D02*
G75*
G03*
X333355351Y-98484649I0J35700000D01*
G01*
D11*
G36*
X122749734Y-155928577D02*
G01*
X123319117Y-155926400D01*
X123888500Y-155924224D01*
X123888500Y-155517824D01*
X122749734Y-155513472D01*
X122749734Y-154853191D01*
X123469401Y-154853191D01*
X123469401Y-154421391D01*
X122749734Y-154421391D01*
X122749734Y-153744177D01*
X123319117Y-153742000D01*
X123888500Y-153739824D01*
X123890763Y-153526041D01*
X123893025Y-153312258D01*
X122749734Y-153312258D01*
X122749734Y-152694191D01*
X122309467Y-152694191D01*
X122309467Y-153312258D01*
X121174934Y-153312258D01*
X121174934Y-153744057D01*
X122309467Y-153744057D01*
X122309467Y-154421391D01*
X121598267Y-154421391D01*
X121598267Y-154853191D01*
X122309467Y-154853191D01*
X122309467Y-155513591D01*
X121174934Y-155513591D01*
X121174934Y-155928457D01*
X122309248Y-155928457D01*
X122313700Y-156516891D01*
X122531717Y-156519150D01*
X122749734Y-156521410D01*
X122749734Y-155928577D01*
G37*
X122749734Y-155928577D02*
X123319117Y-155926400D01*
X123888500Y-155924224D01*
X123888500Y-155517824D01*
X122749734Y-155513472D01*
X122749734Y-154853191D01*
X123469401Y-154853191D01*
X123469401Y-154421391D01*
X122749734Y-154421391D01*
X122749734Y-153744177D01*
X123319117Y-153742000D01*
X123888500Y-153739824D01*
X123890763Y-153526041D01*
X123893025Y-153312258D01*
X122749734Y-153312258D01*
X122749734Y-152694191D01*
X122309467Y-152694191D01*
X122309467Y-153312258D01*
X121174934Y-153312258D01*
X121174934Y-153744057D01*
X122309467Y-153744057D01*
X122309467Y-154421391D01*
X121598267Y-154421391D01*
X121598267Y-154853191D01*
X122309467Y-154853191D01*
X122309467Y-155513591D01*
X121174934Y-155513591D01*
X121174934Y-155928457D01*
X122309248Y-155928457D01*
X122313700Y-156516891D01*
X122531717Y-156519150D01*
X122749734Y-156521410D01*
X122749734Y-155928577D01*
D13*
X365156040Y-187572841D03*
D14*
X356213100Y-97053400D03*
X64550600Y-97053400D03*
D13*
X286626300Y-83613400D03*
X134137400Y-83613400D03*
X286626300Y-64863400D03*
X40550600Y-64863400D03*
X79401800Y-187587400D03*
X85763100Y-109702600D03*
X335000600Y-109702600D03*
X210419351Y-197713600D03*
X210419351Y-109702600D03*
X134137400Y-64863400D03*
X380213100Y-64863400D03*
X380213100Y-83613400D03*
X40550600Y-83613400D03*
D15*
X381407508Y-61625744D02*
X381892232Y-61771612D01*
X382339387Y-62008847D01*
X382731949Y-62328421D01*
X383054962Y-62718155D01*
X383296123Y-63163208D01*
X383446248Y-63646629D01*
X383503101Y-64182877D01*
X383503099Y-204135438D01*
X383450756Y-204674309D01*
X383304888Y-205159032D01*
X383067652Y-205606188D01*
X382748079Y-205998749D01*
X382358343Y-206321763D01*
X381913292Y-206562923D01*
X381429871Y-206713048D01*
X380893623Y-206769901D01*
X39895062Y-206769899D01*
X39356191Y-206717556D01*
X38871468Y-206571688D01*
X38424312Y-206334452D01*
X38031751Y-206014879D01*
X37708737Y-205625143D01*
X37467577Y-205180092D01*
X37317452Y-204696671D01*
X37260599Y-204160423D01*
X37260599Y-187308177D01*
X76566800Y-187308177D01*
X76566800Y-187866623D01*
X76675748Y-188414339D01*
X76889456Y-188930276D01*
X77199712Y-189394607D01*
X77594593Y-189789488D01*
X78058924Y-190099744D01*
X78574861Y-190313452D01*
X79122577Y-190422400D01*
X79681023Y-190422400D01*
X80228739Y-190313452D01*
X80744676Y-190099744D01*
X81209007Y-189789488D01*
X81603888Y-189394607D01*
X81914144Y-188930276D01*
X82127852Y-188414339D01*
X82236800Y-187866623D01*
X82236800Y-187308177D01*
X82233905Y-187293618D01*
X362321040Y-187293618D01*
X362321040Y-187852064D01*
X362429988Y-188399780D01*
X362643696Y-188915717D01*
X362953952Y-189380048D01*
X363348833Y-189774929D01*
X363813164Y-190085185D01*
X364329101Y-190298893D01*
X364876817Y-190407841D01*
X365435263Y-190407841D01*
X365982979Y-190298893D01*
X366498916Y-190085185D01*
X366963247Y-189774929D01*
X367358128Y-189380048D01*
X367668384Y-188915717D01*
X367882092Y-188399780D01*
X367991040Y-187852064D01*
X367991040Y-187293618D01*
X367882092Y-186745902D01*
X367668384Y-186229965D01*
X367358128Y-185765634D01*
X366963247Y-185370753D01*
X366498916Y-185060497D01*
X365982979Y-184846789D01*
X365435263Y-184737841D01*
X364876817Y-184737841D01*
X364329101Y-184846789D01*
X363813164Y-185060497D01*
X363348833Y-185370753D01*
X362953952Y-185765634D01*
X362643696Y-186229965D01*
X362429988Y-186745902D01*
X362321040Y-187293618D01*
X82233905Y-187293618D01*
X82127852Y-186760461D01*
X81914144Y-186244524D01*
X81603888Y-185780193D01*
X81209007Y-185385312D01*
X80744676Y-185075056D01*
X80228739Y-184861348D01*
X79681023Y-184752400D01*
X79122577Y-184752400D01*
X78574861Y-184861348D01*
X78058924Y-185075056D01*
X77594593Y-185385312D01*
X77199712Y-185780193D01*
X76889456Y-186244524D01*
X76675748Y-186760461D01*
X76566800Y-187308177D01*
X37260599Y-187308177D01*
X37260599Y-133387537D01*
X48812404Y-133387537D01*
X48812404Y-133460473D01*
X48841325Y-135827576D01*
X48844161Y-135890022D01*
X48845470Y-135952533D01*
X48850304Y-136025308D01*
X49036038Y-138385289D01*
X49043004Y-138447388D01*
X49048455Y-138509699D01*
X49058102Y-138581994D01*
X49399834Y-140924477D01*
X49410900Y-140985981D01*
X49420469Y-141047789D01*
X49434885Y-141119286D01*
X49931111Y-143433972D01*
X49946232Y-143494617D01*
X49959873Y-143555645D01*
X49978996Y-143626029D01*
X50627534Y-145902739D01*
X50646649Y-145962276D01*
X50664297Y-146022237D01*
X50688042Y-146091199D01*
X51486040Y-148319924D01*
X51509046Y-148378030D01*
X51530642Y-148436726D01*
X51558906Y-148503963D01*
X52502857Y-150674900D01*
X52529675Y-150731378D01*
X52555101Y-150788486D01*
X52587750Y-150853684D01*
X52587759Y-150853703D01*
X52587766Y-150853715D01*
X53673510Y-152957308D01*
X53704016Y-153011891D01*
X53733168Y-153067183D01*
X53770076Y-153130091D01*
X54992855Y-155157115D01*
X55026900Y-155209540D01*
X55059663Y-155262795D01*
X55100659Y-155323119D01*
X56455088Y-157264647D01*
X56492530Y-157314697D01*
X56528752Y-157365666D01*
X56573656Y-157423140D01*
X58053779Y-159270637D01*
X58094462Y-159318103D01*
X58133979Y-159366555D01*
X58182593Y-159420926D01*
X59781903Y-161166267D01*
X59825644Y-161210934D01*
X59868282Y-161256657D01*
X59920392Y-161307687D01*
X61631858Y-162943199D01*
X61678465Y-162984870D01*
X61724037Y-163027665D01*
X61779414Y-163075130D01*
X63595509Y-164593621D01*
X63644769Y-164632107D01*
X63693083Y-164671793D01*
X63751484Y-164715483D01*
X65664223Y-166110276D01*
X65715913Y-166145405D01*
X65766764Y-166181810D01*
X65827933Y-166221533D01*
X67828905Y-167486494D01*
X67882819Y-167518125D01*
X67935960Y-167551074D01*
X67999627Y-167586656D01*
X70080034Y-168716224D01*
X70135914Y-168744207D01*
X70191133Y-168773567D01*
X70257018Y-168804852D01*
X72407711Y-169794061D01*
X72465353Y-169818291D01*
X72522369Y-169843915D01*
X72590183Y-169870765D01*
X74801705Y-170715262D01*
X74860797Y-170735609D01*
X74919413Y-170757408D01*
X74988857Y-170779704D01*
X77251486Y-171475780D01*
X77311821Y-171492172D01*
X77371730Y-171510032D01*
X77442499Y-171527677D01*
X79746286Y-172072269D01*
X79807557Y-172084623D01*
X79868534Y-172098477D01*
X79940317Y-172111392D01*
X82275131Y-172502107D01*
X82337109Y-172510377D01*
X82398848Y-172520155D01*
X82471329Y-172528285D01*
X84826905Y-172763402D01*
X84889290Y-172767546D01*
X84951544Y-172773211D01*
X85024404Y-172776520D01*
X87103389Y-172845487D01*
X87348708Y-172869649D01*
X333501994Y-172869649D01*
X333520182Y-172867858D01*
X334264048Y-172858769D01*
X334295275Y-172857351D01*
X334326548Y-172857351D01*
X334399408Y-172854042D01*
X336762762Y-172717772D01*
X336824998Y-172712108D01*
X336887403Y-172707963D01*
X336959884Y-172699833D01*
X339309011Y-172407234D01*
X339370738Y-172397457D01*
X339432728Y-172389186D01*
X339504511Y-172376270D01*
X341829082Y-171928628D01*
X341890047Y-171914777D01*
X341951330Y-171902420D01*
X342022089Y-171884778D01*
X342022100Y-171884775D01*
X342022107Y-171884773D01*
X344311893Y-171284059D01*
X344371790Y-171266203D01*
X344432137Y-171249807D01*
X344501581Y-171227511D01*
X346746527Y-170476362D01*
X346805127Y-170454569D01*
X346864236Y-170434216D01*
X346932050Y-170407367D01*
X349122280Y-169509088D01*
X349179310Y-169483458D01*
X349236936Y-169459234D01*
X349302803Y-169427957D01*
X349302822Y-169427949D01*
X349302834Y-169427943D01*
X351428704Y-168386491D01*
X351483913Y-168357136D01*
X351539805Y-168329147D01*
X351603472Y-168293565D01*
X353655659Y-167113505D01*
X353708779Y-167080569D01*
X353762715Y-167048925D01*
X353823884Y-167009201D01*
X355793352Y-165695729D01*
X355844176Y-165659342D01*
X355895892Y-165624196D01*
X355954294Y-165580506D01*
X357832382Y-164139398D01*
X357880683Y-164099723D01*
X357929957Y-164061226D01*
X357985335Y-164013762D01*
X359763788Y-162451353D01*
X359809372Y-162408546D01*
X359855968Y-162366885D01*
X359908078Y-162315855D01*
X361579073Y-160639016D01*
X361621699Y-160593305D01*
X361665451Y-160548627D01*
X361714065Y-160494255D01*
X363270255Y-158710361D01*
X363309763Y-158661919D01*
X363350454Y-158614444D01*
X363395357Y-158556970D01*
X364829901Y-156673863D01*
X364866118Y-156622901D01*
X364903566Y-156572843D01*
X364944562Y-156512520D01*
X366251152Y-154538479D01*
X366283899Y-154485249D01*
X366317961Y-154432798D01*
X366354868Y-154369890D01*
X367527757Y-152313596D01*
X367556903Y-152258314D01*
X367587415Y-152203721D01*
X367620072Y-152138505D01*
X368654104Y-150009000D01*
X368679530Y-149951891D01*
X368706348Y-149895413D01*
X368734612Y-149828177D01*
X369625240Y-147634825D01*
X369646823Y-147576163D01*
X369669842Y-147518024D01*
X369693587Y-147449062D01*
X370436895Y-145201506D01*
X370454540Y-145141553D01*
X370473658Y-145082007D01*
X370492781Y-145011623D01*
X371085500Y-142719747D01*
X371099138Y-142658734D01*
X371114262Y-142598074D01*
X371128678Y-142526578D01*
X371568203Y-140200458D01*
X371577766Y-140138682D01*
X371588838Y-140077147D01*
X371598485Y-140004852D01*
X371882883Y-137654719D01*
X371888334Y-137592417D01*
X371895300Y-137530308D01*
X371900134Y-137457533D01*
X372028153Y-135093717D01*
X372029462Y-135031208D01*
X372032298Y-134968761D01*
X372032298Y-134895826D01*
X372003377Y-132528722D01*
X372000541Y-132466276D01*
X371999232Y-132403765D01*
X371994398Y-132330990D01*
X371808664Y-129971008D01*
X371801698Y-129908909D01*
X371796247Y-129846598D01*
X371786600Y-129774304D01*
X371444868Y-127431820D01*
X371433801Y-127370312D01*
X371424233Y-127308509D01*
X371409817Y-127237012D01*
X370913591Y-124922325D01*
X370898470Y-124861677D01*
X370884829Y-124800652D01*
X370865706Y-124730269D01*
X370217168Y-122453559D01*
X370198056Y-122394033D01*
X370180405Y-122334060D01*
X370156660Y-122265099D01*
X369358662Y-120036374D01*
X369335656Y-119978268D01*
X369314060Y-119919572D01*
X369285796Y-119852335D01*
X368341845Y-117681398D01*
X368315032Y-117624930D01*
X368289601Y-117567811D01*
X368256943Y-117502596D01*
X368256943Y-117502595D01*
X368256936Y-117502583D01*
X367171191Y-115398990D01*
X367140698Y-115344429D01*
X367111534Y-115289115D01*
X367074626Y-115226207D01*
X365851847Y-113199183D01*
X365817798Y-113146752D01*
X365785039Y-113093503D01*
X365744043Y-113033179D01*
X364389614Y-111091651D01*
X364352170Y-111041599D01*
X364315950Y-110990632D01*
X364271046Y-110933158D01*
X362790922Y-109085660D01*
X362750242Y-109038198D01*
X362710723Y-108989743D01*
X362662109Y-108935372D01*
X361062798Y-107190031D01*
X361019071Y-107145379D01*
X360976420Y-107099641D01*
X360924310Y-107048611D01*
X359212844Y-105413099D01*
X359166252Y-105371441D01*
X359120666Y-105328633D01*
X359065288Y-105281169D01*
X357249194Y-103762677D01*
X357199910Y-103724173D01*
X357151619Y-103684506D01*
X357093218Y-103640816D01*
X355180480Y-102246022D01*
X355128776Y-102210884D01*
X355077938Y-102174488D01*
X355016769Y-102134765D01*
X353937228Y-101452308D01*
X354773614Y-101798750D01*
X355727045Y-101988400D01*
X356699155Y-101988400D01*
X357652586Y-101798750D01*
X358550699Y-101426740D01*
X359358979Y-100886665D01*
X360046365Y-100199279D01*
X360586440Y-99390999D01*
X360958450Y-98492886D01*
X361148100Y-97539455D01*
X361148100Y-96567345D01*
X360958450Y-95613914D01*
X360586440Y-94715801D01*
X360046365Y-93907521D01*
X359358979Y-93220135D01*
X358550699Y-92680060D01*
X357652586Y-92308050D01*
X356699155Y-92118400D01*
X355727045Y-92118400D01*
X354773614Y-92308050D01*
X353875501Y-92680060D01*
X353067221Y-93220135D01*
X352379835Y-93907521D01*
X351839760Y-94715801D01*
X351467750Y-95613914D01*
X351278100Y-96567345D01*
X351278100Y-97539455D01*
X351467750Y-98492886D01*
X351839760Y-99390999D01*
X352379835Y-100199279D01*
X353067221Y-100886665D01*
X353501826Y-101177058D01*
X353015797Y-100869804D01*
X352961888Y-100838176D01*
X352908742Y-100805224D01*
X352845075Y-100769642D01*
X350764669Y-99640074D01*
X350708777Y-99612085D01*
X350653569Y-99582731D01*
X350587684Y-99551446D01*
X348436991Y-98562237D01*
X348379345Y-98538005D01*
X348322333Y-98512383D01*
X348254519Y-98485533D01*
X346042996Y-97641035D01*
X345983879Y-97620680D01*
X345925288Y-97598890D01*
X345855844Y-97576594D01*
X343593216Y-96880518D01*
X343532872Y-96864123D01*
X343472972Y-96846266D01*
X343402203Y-96828621D01*
X341098416Y-96284029D01*
X341037148Y-96271675D01*
X340976168Y-96257821D01*
X340904385Y-96244906D01*
X338569571Y-95854192D01*
X338507620Y-95845926D01*
X338445854Y-95836143D01*
X338373373Y-95828013D01*
X336017798Y-95592896D01*
X335955413Y-95588752D01*
X335893159Y-95583087D01*
X335820298Y-95579778D01*
X333551331Y-95504508D01*
X333501994Y-95499649D01*
X87757411Y-95499649D01*
X87723550Y-95495851D01*
X87525818Y-95486872D01*
X87452883Y-95486872D01*
X86580654Y-95497529D01*
X86549427Y-95498947D01*
X86518154Y-95498947D01*
X86445293Y-95502256D01*
X84081940Y-95638526D01*
X84019706Y-95644190D01*
X83957298Y-95648335D01*
X83884817Y-95656465D01*
X81535691Y-95949064D01*
X81473964Y-95958841D01*
X81411974Y-95967112D01*
X81340191Y-95980028D01*
X79015620Y-96427670D01*
X78954648Y-96441523D01*
X78893371Y-96453878D01*
X78822602Y-96471523D01*
X76532809Y-97072239D01*
X76472912Y-97090095D01*
X76412565Y-97106491D01*
X76343121Y-97128787D01*
X74098174Y-97879936D01*
X74039574Y-97901730D01*
X73980466Y-97922082D01*
X73912653Y-97948931D01*
X71722422Y-98847210D01*
X71665392Y-98872840D01*
X71607766Y-98897064D01*
X71541899Y-98928341D01*
X71541880Y-98928349D01*
X71541868Y-98928355D01*
X69415998Y-99969808D01*
X69360816Y-99999149D01*
X69304897Y-100027151D01*
X69241230Y-100062733D01*
X67189043Y-101242793D01*
X67135923Y-101275729D01*
X67081987Y-101307373D01*
X67020819Y-101347097D01*
X65051350Y-102660569D01*
X65000526Y-102696956D01*
X64948810Y-102732102D01*
X64890408Y-102775792D01*
X63012319Y-104216900D01*
X62964004Y-104256587D01*
X62914745Y-104295072D01*
X62859367Y-104342537D01*
X61080914Y-105904945D01*
X61035345Y-105947737D01*
X60988735Y-105989412D01*
X60936624Y-106040443D01*
X59265629Y-107717282D01*
X59223003Y-107762993D01*
X59179251Y-107807671D01*
X59130637Y-107862043D01*
X57574446Y-109645938D01*
X57534931Y-109694389D01*
X57494248Y-109741854D01*
X57449344Y-109799328D01*
X56014801Y-111682436D01*
X55978604Y-111733370D01*
X55941136Y-111783455D01*
X55900140Y-111843779D01*
X54593550Y-113817819D01*
X54560785Y-113871078D01*
X54526742Y-113923500D01*
X54489834Y-113986408D01*
X53316945Y-116042702D01*
X53287787Y-116098005D01*
X53257288Y-116152577D01*
X53224630Y-116217793D01*
X52190598Y-118347298D01*
X52165172Y-118404407D01*
X52138354Y-118460885D01*
X52110090Y-118528122D01*
X51219462Y-120721473D01*
X51197879Y-120780135D01*
X51174860Y-120838274D01*
X51151115Y-120907236D01*
X50407807Y-123154792D01*
X50390159Y-123214757D01*
X50371044Y-123274292D01*
X50351921Y-123344676D01*
X49759202Y-125636551D01*
X49745564Y-125697564D01*
X49730440Y-125758224D01*
X49716024Y-125829720D01*
X49276499Y-128155840D01*
X49266935Y-128217623D01*
X49255864Y-128279152D01*
X49246217Y-128351446D01*
X48961819Y-130701580D01*
X48956369Y-130763877D01*
X48949402Y-130825990D01*
X48944568Y-130898765D01*
X48816549Y-133262581D01*
X48815240Y-133325090D01*
X48812404Y-133387537D01*
X37260599Y-133387537D01*
X37260599Y-96567345D01*
X59615600Y-96567345D01*
X59615600Y-97539455D01*
X59805250Y-98492886D01*
X60177260Y-99390999D01*
X60717335Y-100199279D01*
X61404721Y-100886665D01*
X62213001Y-101426740D01*
X63111114Y-101798750D01*
X64064545Y-101988400D01*
X65036655Y-101988400D01*
X65990086Y-101798750D01*
X66888199Y-101426740D01*
X67696479Y-100886665D01*
X68383865Y-100199279D01*
X68923940Y-99390999D01*
X69295950Y-98492886D01*
X69485600Y-97539455D01*
X69485600Y-96567345D01*
X69295950Y-95613914D01*
X68923940Y-94715801D01*
X68383865Y-93907521D01*
X67696479Y-93220135D01*
X66888199Y-92680060D01*
X65990086Y-92308050D01*
X65036655Y-92118400D01*
X64064545Y-92118400D01*
X63111114Y-92308050D01*
X62213001Y-92680060D01*
X61404721Y-93220135D01*
X60717335Y-93907521D01*
X60177260Y-94715801D01*
X59805250Y-95613914D01*
X59615600Y-96567345D01*
X37260599Y-96567345D01*
X37260600Y-83334177D01*
X37715600Y-83334177D01*
X37715600Y-83892623D01*
X37824548Y-84440339D01*
X38038256Y-84956276D01*
X38348512Y-85420607D01*
X38743393Y-85815488D01*
X39207724Y-86125744D01*
X39723661Y-86339452D01*
X40271377Y-86448400D01*
X40829823Y-86448400D01*
X41377539Y-86339452D01*
X41893476Y-86125744D01*
X42357807Y-85815488D01*
X42752688Y-85420607D01*
X43062944Y-84956276D01*
X43276652Y-84440339D01*
X43385600Y-83892623D01*
X43385600Y-83334177D01*
X131302400Y-83334177D01*
X131302400Y-83892623D01*
X131411348Y-84440339D01*
X131625056Y-84956276D01*
X131935312Y-85420607D01*
X132330193Y-85815488D01*
X132794524Y-86125744D01*
X133310461Y-86339452D01*
X133858177Y-86448400D01*
X134416623Y-86448400D01*
X134964339Y-86339452D01*
X135480276Y-86125744D01*
X135944607Y-85815488D01*
X136339488Y-85420607D01*
X136649744Y-84956276D01*
X136863452Y-84440339D01*
X136972400Y-83892623D01*
X136972400Y-83334177D01*
X283791300Y-83334177D01*
X283791300Y-83892623D01*
X283900248Y-84440339D01*
X284113956Y-84956276D01*
X284424212Y-85420607D01*
X284819093Y-85815488D01*
X285283424Y-86125744D01*
X285799361Y-86339452D01*
X286347077Y-86448400D01*
X286905523Y-86448400D01*
X287453239Y-86339452D01*
X287969176Y-86125744D01*
X288433507Y-85815488D01*
X288828388Y-85420607D01*
X289138644Y-84956276D01*
X289352352Y-84440339D01*
X289461300Y-83892623D01*
X289461300Y-83334177D01*
X377378100Y-83334177D01*
X377378100Y-83892623D01*
X377487048Y-84440339D01*
X377700756Y-84956276D01*
X378011012Y-85420607D01*
X378405893Y-85815488D01*
X378870224Y-86125744D01*
X379386161Y-86339452D01*
X379933877Y-86448400D01*
X380492323Y-86448400D01*
X381040039Y-86339452D01*
X381555976Y-86125744D01*
X382020307Y-85815488D01*
X382415188Y-85420607D01*
X382725444Y-84956276D01*
X382939152Y-84440339D01*
X383048100Y-83892623D01*
X383048100Y-83334177D01*
X382939152Y-82786461D01*
X382725444Y-82270524D01*
X382415188Y-81806193D01*
X382020307Y-81411312D01*
X381555976Y-81101056D01*
X381040039Y-80887348D01*
X380492323Y-80778400D01*
X379933877Y-80778400D01*
X379386161Y-80887348D01*
X378870224Y-81101056D01*
X378405893Y-81411312D01*
X378011012Y-81806193D01*
X377700756Y-82270524D01*
X377487048Y-82786461D01*
X377378100Y-83334177D01*
X289461300Y-83334177D01*
X289352352Y-82786461D01*
X289138644Y-82270524D01*
X288828388Y-81806193D01*
X288433507Y-81411312D01*
X287969176Y-81101056D01*
X287453239Y-80887348D01*
X286905523Y-80778400D01*
X286347077Y-80778400D01*
X285799361Y-80887348D01*
X285283424Y-81101056D01*
X284819093Y-81411312D01*
X284424212Y-81806193D01*
X284113956Y-82270524D01*
X283900248Y-82786461D01*
X283791300Y-83334177D01*
X136972400Y-83334177D01*
X136863452Y-82786461D01*
X136649744Y-82270524D01*
X136339488Y-81806193D01*
X135944607Y-81411312D01*
X135480276Y-81101056D01*
X134964339Y-80887348D01*
X134416623Y-80778400D01*
X133858177Y-80778400D01*
X133310461Y-80887348D01*
X132794524Y-81101056D01*
X132330193Y-81411312D01*
X131935312Y-81806193D01*
X131625056Y-82270524D01*
X131411348Y-82786461D01*
X131302400Y-83334177D01*
X43385600Y-83334177D01*
X43276652Y-82786461D01*
X43062944Y-82270524D01*
X42752688Y-81806193D01*
X42357807Y-81411312D01*
X41893476Y-81101056D01*
X41377539Y-80887348D01*
X40829823Y-80778400D01*
X40271377Y-80778400D01*
X39723661Y-80887348D01*
X39207724Y-81101056D01*
X38743393Y-81411312D01*
X38348512Y-81806193D01*
X38038256Y-82270524D01*
X37824548Y-82786461D01*
X37715600Y-83334177D01*
X37260600Y-83334177D01*
X37260600Y-64584177D01*
X37715600Y-64584177D01*
X37715600Y-65142623D01*
X37824548Y-65690339D01*
X38038256Y-66206276D01*
X38348512Y-66670607D01*
X38743393Y-67065488D01*
X39207724Y-67375744D01*
X39723661Y-67589452D01*
X40271377Y-67698400D01*
X40829823Y-67698400D01*
X41377539Y-67589452D01*
X41893476Y-67375744D01*
X42357807Y-67065488D01*
X42752688Y-66670607D01*
X43062944Y-66206276D01*
X43276652Y-65690339D01*
X43385600Y-65142623D01*
X43385600Y-64584177D01*
X131302400Y-64584177D01*
X131302400Y-65142623D01*
X131411348Y-65690339D01*
X131625056Y-66206276D01*
X131935312Y-66670607D01*
X132330193Y-67065488D01*
X132794524Y-67375744D01*
X133310461Y-67589452D01*
X133858177Y-67698400D01*
X134416623Y-67698400D01*
X134964339Y-67589452D01*
X135480276Y-67375744D01*
X135944607Y-67065488D01*
X136339488Y-66670607D01*
X136649744Y-66206276D01*
X136863452Y-65690339D01*
X136972400Y-65142623D01*
X136972400Y-64584177D01*
X283791300Y-64584177D01*
X283791300Y-65142623D01*
X283900248Y-65690339D01*
X284113956Y-66206276D01*
X284424212Y-66670607D01*
X284819093Y-67065488D01*
X285283424Y-67375744D01*
X285799361Y-67589452D01*
X286347077Y-67698400D01*
X286905523Y-67698400D01*
X287453239Y-67589452D01*
X287969176Y-67375744D01*
X288433507Y-67065488D01*
X288828388Y-66670607D01*
X289138644Y-66206276D01*
X289352352Y-65690339D01*
X289461300Y-65142623D01*
X289461300Y-64584177D01*
X377378100Y-64584177D01*
X377378100Y-65142623D01*
X377487048Y-65690339D01*
X377700756Y-66206276D01*
X378011012Y-66670607D01*
X378405893Y-67065488D01*
X378870224Y-67375744D01*
X379386161Y-67589452D01*
X379933877Y-67698400D01*
X380492323Y-67698400D01*
X381040039Y-67589452D01*
X381555976Y-67375744D01*
X382020307Y-67065488D01*
X382415188Y-66670607D01*
X382725444Y-66206276D01*
X382939152Y-65690339D01*
X383048100Y-65142623D01*
X383048100Y-64584177D01*
X382939152Y-64036461D01*
X382725444Y-63520524D01*
X382415188Y-63056193D01*
X382020307Y-62661312D01*
X381555976Y-62351056D01*
X381040039Y-62137348D01*
X380492323Y-62028400D01*
X379933877Y-62028400D01*
X379386161Y-62137348D01*
X378870224Y-62351056D01*
X378405893Y-62661312D01*
X378011012Y-63056193D01*
X377700756Y-63520524D01*
X377487048Y-64036461D01*
X377378100Y-64584177D01*
X289461300Y-64584177D01*
X289352352Y-64036461D01*
X289138644Y-63520524D01*
X288828388Y-63056193D01*
X288433507Y-62661312D01*
X287969176Y-62351056D01*
X287453239Y-62137348D01*
X286905523Y-62028400D01*
X286347077Y-62028400D01*
X285799361Y-62137348D01*
X285283424Y-62351056D01*
X284819093Y-62661312D01*
X284424212Y-63056193D01*
X284113956Y-63520524D01*
X283900248Y-64036461D01*
X283791300Y-64584177D01*
X136972400Y-64584177D01*
X136863452Y-64036461D01*
X136649744Y-63520524D01*
X136339488Y-63056193D01*
X135944607Y-62661312D01*
X135480276Y-62351056D01*
X134964339Y-62137348D01*
X134416623Y-62028400D01*
X133858177Y-62028400D01*
X133310461Y-62137348D01*
X132794524Y-62351056D01*
X132330193Y-62661312D01*
X131935312Y-63056193D01*
X131625056Y-63520524D01*
X131411348Y-64036461D01*
X131302400Y-64584177D01*
X43385600Y-64584177D01*
X43276652Y-64036461D01*
X43062944Y-63520524D01*
X42752688Y-63056193D01*
X42357807Y-62661312D01*
X41893476Y-62351056D01*
X41377539Y-62137348D01*
X40829823Y-62028400D01*
X40271377Y-62028400D01*
X39723661Y-62137348D01*
X39207724Y-62351056D01*
X38743393Y-62661312D01*
X38348512Y-63056193D01*
X38038256Y-63520524D01*
X37824548Y-64036461D01*
X37715600Y-64584177D01*
X37260600Y-64584177D01*
X37260601Y-64207861D01*
X37312944Y-63668992D01*
X37458812Y-63184268D01*
X37696047Y-62737113D01*
X38015621Y-62344551D01*
X38405355Y-62021538D01*
X38850408Y-61780377D01*
X39333829Y-61630252D01*
X39870067Y-61573400D01*
X380868629Y-61573400D01*
X381407508Y-61625744D01*
G04 #@! TA.AperFunction,Conductor*
D16*
G36*
X381407508Y-61625744D02*
G01*
X381892232Y-61771612D01*
X382339387Y-62008847D01*
X382731949Y-62328421D01*
X383054962Y-62718155D01*
X383296123Y-63163208D01*
X383446248Y-63646629D01*
X383503101Y-64182877D01*
X383503099Y-204135438D01*
X383450756Y-204674309D01*
X383304888Y-205159032D01*
X383067652Y-205606188D01*
X382748079Y-205998749D01*
X382358343Y-206321763D01*
X381913292Y-206562923D01*
X381429871Y-206713048D01*
X380893623Y-206769901D01*
X39895062Y-206769899D01*
X39356191Y-206717556D01*
X38871468Y-206571688D01*
X38424312Y-206334452D01*
X38031751Y-206014879D01*
X37708737Y-205625143D01*
X37467577Y-205180092D01*
X37317452Y-204696671D01*
X37260599Y-204160423D01*
X37260599Y-187308177D01*
X76566800Y-187308177D01*
X76566800Y-187866623D01*
X76675748Y-188414339D01*
X76889456Y-188930276D01*
X77199712Y-189394607D01*
X77594593Y-189789488D01*
X78058924Y-190099744D01*
X78574861Y-190313452D01*
X79122577Y-190422400D01*
X79681023Y-190422400D01*
X80228739Y-190313452D01*
X80744676Y-190099744D01*
X81209007Y-189789488D01*
X81603888Y-189394607D01*
X81914144Y-188930276D01*
X82127852Y-188414339D01*
X82236800Y-187866623D01*
X82236800Y-187308177D01*
X82233905Y-187293618D01*
X362321040Y-187293618D01*
X362321040Y-187852064D01*
X362429988Y-188399780D01*
X362643696Y-188915717D01*
X362953952Y-189380048D01*
X363348833Y-189774929D01*
X363813164Y-190085185D01*
X364329101Y-190298893D01*
X364876817Y-190407841D01*
X365435263Y-190407841D01*
X365982979Y-190298893D01*
X366498916Y-190085185D01*
X366963247Y-189774929D01*
X367358128Y-189380048D01*
X367668384Y-188915717D01*
X367882092Y-188399780D01*
X367991040Y-187852064D01*
X367991040Y-187293618D01*
X367882092Y-186745902D01*
X367668384Y-186229965D01*
X367358128Y-185765634D01*
X366963247Y-185370753D01*
X366498916Y-185060497D01*
X365982979Y-184846789D01*
X365435263Y-184737841D01*
X364876817Y-184737841D01*
X364329101Y-184846789D01*
X363813164Y-185060497D01*
X363348833Y-185370753D01*
X362953952Y-185765634D01*
X362643696Y-186229965D01*
X362429988Y-186745902D01*
X362321040Y-187293618D01*
X82233905Y-187293618D01*
X82127852Y-186760461D01*
X81914144Y-186244524D01*
X81603888Y-185780193D01*
X81209007Y-185385312D01*
X80744676Y-185075056D01*
X80228739Y-184861348D01*
X79681023Y-184752400D01*
X79122577Y-184752400D01*
X78574861Y-184861348D01*
X78058924Y-185075056D01*
X77594593Y-185385312D01*
X77199712Y-185780193D01*
X76889456Y-186244524D01*
X76675748Y-186760461D01*
X76566800Y-187308177D01*
X37260599Y-187308177D01*
X37260599Y-133387537D01*
X48812404Y-133387537D01*
X48812404Y-133460473D01*
X48841325Y-135827576D01*
X48844161Y-135890022D01*
X48845470Y-135952533D01*
X48850304Y-136025308D01*
X49036038Y-138385289D01*
X49043004Y-138447388D01*
X49048455Y-138509699D01*
X49058102Y-138581994D01*
X49399834Y-140924477D01*
X49410900Y-140985981D01*
X49420469Y-141047789D01*
X49434885Y-141119286D01*
X49931111Y-143433972D01*
X49946232Y-143494617D01*
X49959873Y-143555645D01*
X49978996Y-143626029D01*
X50627534Y-145902739D01*
X50646649Y-145962276D01*
X50664297Y-146022237D01*
X50688042Y-146091199D01*
X51486040Y-148319924D01*
X51509046Y-148378030D01*
X51530642Y-148436726D01*
X51558906Y-148503963D01*
X52502857Y-150674900D01*
X52529675Y-150731378D01*
X52555101Y-150788486D01*
X52587750Y-150853684D01*
X52587759Y-150853703D01*
X52587766Y-150853715D01*
X53673510Y-152957308D01*
X53704016Y-153011891D01*
X53733168Y-153067183D01*
X53770076Y-153130091D01*
X54992855Y-155157115D01*
X55026900Y-155209540D01*
X55059663Y-155262795D01*
X55100659Y-155323119D01*
X56455088Y-157264647D01*
X56492530Y-157314697D01*
X56528752Y-157365666D01*
X56573656Y-157423140D01*
X58053779Y-159270637D01*
X58094462Y-159318103D01*
X58133979Y-159366555D01*
X58182593Y-159420926D01*
X59781903Y-161166267D01*
X59825644Y-161210934D01*
X59868282Y-161256657D01*
X59920392Y-161307687D01*
X61631858Y-162943199D01*
X61678465Y-162984870D01*
X61724037Y-163027665D01*
X61779414Y-163075130D01*
X63595509Y-164593621D01*
X63644769Y-164632107D01*
X63693083Y-164671793D01*
X63751484Y-164715483D01*
X65664223Y-166110276D01*
X65715913Y-166145405D01*
X65766764Y-166181810D01*
X65827933Y-166221533D01*
X67828905Y-167486494D01*
X67882819Y-167518125D01*
X67935960Y-167551074D01*
X67999627Y-167586656D01*
X70080034Y-168716224D01*
X70135914Y-168744207D01*
X70191133Y-168773567D01*
X70257018Y-168804852D01*
X72407711Y-169794061D01*
X72465353Y-169818291D01*
X72522369Y-169843915D01*
X72590183Y-169870765D01*
X74801705Y-170715262D01*
X74860797Y-170735609D01*
X74919413Y-170757408D01*
X74988857Y-170779704D01*
X77251486Y-171475780D01*
X77311821Y-171492172D01*
X77371730Y-171510032D01*
X77442499Y-171527677D01*
X79746286Y-172072269D01*
X79807557Y-172084623D01*
X79868534Y-172098477D01*
X79940317Y-172111392D01*
X82275131Y-172502107D01*
X82337109Y-172510377D01*
X82398848Y-172520155D01*
X82471329Y-172528285D01*
X84826905Y-172763402D01*
X84889290Y-172767546D01*
X84951544Y-172773211D01*
X85024404Y-172776520D01*
X87103389Y-172845487D01*
X87348708Y-172869649D01*
X333501994Y-172869649D01*
X333520182Y-172867858D01*
X334264048Y-172858769D01*
X334295275Y-172857351D01*
X334326548Y-172857351D01*
X334399408Y-172854042D01*
X336762762Y-172717772D01*
X336824998Y-172712108D01*
X336887403Y-172707963D01*
X336959884Y-172699833D01*
X339309011Y-172407234D01*
X339370738Y-172397457D01*
X339432728Y-172389186D01*
X339504511Y-172376270D01*
X341829082Y-171928628D01*
X341890047Y-171914777D01*
X341951330Y-171902420D01*
X342022089Y-171884778D01*
X342022100Y-171884775D01*
X342022107Y-171884773D01*
X344311893Y-171284059D01*
X344371790Y-171266203D01*
X344432137Y-171249807D01*
X344501581Y-171227511D01*
X346746527Y-170476362D01*
X346805127Y-170454569D01*
X346864236Y-170434216D01*
X346932050Y-170407367D01*
X349122280Y-169509088D01*
X349179310Y-169483458D01*
X349236936Y-169459234D01*
X349302803Y-169427957D01*
X349302822Y-169427949D01*
X349302834Y-169427943D01*
X351428704Y-168386491D01*
X351483913Y-168357136D01*
X351539805Y-168329147D01*
X351603472Y-168293565D01*
X353655659Y-167113505D01*
X353708779Y-167080569D01*
X353762715Y-167048925D01*
X353823884Y-167009201D01*
X355793352Y-165695729D01*
X355844176Y-165659342D01*
X355895892Y-165624196D01*
X355954294Y-165580506D01*
X357832382Y-164139398D01*
X357880683Y-164099723D01*
X357929957Y-164061226D01*
X357985335Y-164013762D01*
X359763788Y-162451353D01*
X359809372Y-162408546D01*
X359855968Y-162366885D01*
X359908078Y-162315855D01*
X361579073Y-160639016D01*
X361621699Y-160593305D01*
X361665451Y-160548627D01*
X361714065Y-160494255D01*
X363270255Y-158710361D01*
X363309763Y-158661919D01*
X363350454Y-158614444D01*
X363395357Y-158556970D01*
X364829901Y-156673863D01*
X364866118Y-156622901D01*
X364903566Y-156572843D01*
X364944562Y-156512520D01*
X366251152Y-154538479D01*
X366283899Y-154485249D01*
X366317961Y-154432798D01*
X366354868Y-154369890D01*
X367527757Y-152313596D01*
X367556903Y-152258314D01*
X367587415Y-152203721D01*
X367620072Y-152138505D01*
X368654104Y-150009000D01*
X368679530Y-149951891D01*
X368706348Y-149895413D01*
X368734612Y-149828177D01*
X369625240Y-147634825D01*
X369646823Y-147576163D01*
X369669842Y-147518024D01*
X369693587Y-147449062D01*
X370436895Y-145201506D01*
X370454540Y-145141553D01*
X370473658Y-145082007D01*
X370492781Y-145011623D01*
X371085500Y-142719747D01*
X371099138Y-142658734D01*
X371114262Y-142598074D01*
X371128678Y-142526578D01*
X371568203Y-140200458D01*
X371577766Y-140138682D01*
X371588838Y-140077147D01*
X371598485Y-140004852D01*
X371882883Y-137654719D01*
X371888334Y-137592417D01*
X371895300Y-137530308D01*
X371900134Y-137457533D01*
X372028153Y-135093717D01*
X372029462Y-135031208D01*
X372032298Y-134968761D01*
X372032298Y-134895826D01*
X372003377Y-132528722D01*
X372000541Y-132466276D01*
X371999232Y-132403765D01*
X371994398Y-132330990D01*
X371808664Y-129971008D01*
X371801698Y-129908909D01*
X371796247Y-129846598D01*
X371786600Y-129774304D01*
X371444868Y-127431820D01*
X371433801Y-127370312D01*
X371424233Y-127308509D01*
X371409817Y-127237012D01*
X370913591Y-124922325D01*
X370898470Y-124861677D01*
X370884829Y-124800652D01*
X370865706Y-124730269D01*
X370217168Y-122453559D01*
X370198056Y-122394033D01*
X370180405Y-122334060D01*
X370156660Y-122265099D01*
X369358662Y-120036374D01*
X369335656Y-119978268D01*
X369314060Y-119919572D01*
X369285796Y-119852335D01*
X368341845Y-117681398D01*
X368315032Y-117624930D01*
X368289601Y-117567811D01*
X368256943Y-117502596D01*
X368256943Y-117502595D01*
X368256936Y-117502583D01*
X367171191Y-115398990D01*
X367140698Y-115344429D01*
X367111534Y-115289115D01*
X367074626Y-115226207D01*
X365851847Y-113199183D01*
X365817798Y-113146752D01*
X365785039Y-113093503D01*
X365744043Y-113033179D01*
X364389614Y-111091651D01*
X364352170Y-111041599D01*
X364315950Y-110990632D01*
X364271046Y-110933158D01*
X362790922Y-109085660D01*
X362750242Y-109038198D01*
X362710723Y-108989743D01*
X362662109Y-108935372D01*
X361062798Y-107190031D01*
X361019071Y-107145379D01*
X360976420Y-107099641D01*
X360924310Y-107048611D01*
X359212844Y-105413099D01*
X359166252Y-105371441D01*
X359120666Y-105328633D01*
X359065288Y-105281169D01*
X357249194Y-103762677D01*
X357199910Y-103724173D01*
X357151619Y-103684506D01*
X357093218Y-103640816D01*
X355180480Y-102246022D01*
X355128776Y-102210884D01*
X355077938Y-102174488D01*
X355016769Y-102134765D01*
X353937228Y-101452308D01*
X354773614Y-101798750D01*
X355727045Y-101988400D01*
X356699155Y-101988400D01*
X357652586Y-101798750D01*
X358550699Y-101426740D01*
X359358979Y-100886665D01*
X360046365Y-100199279D01*
X360586440Y-99390999D01*
X360958450Y-98492886D01*
X361148100Y-97539455D01*
X361148100Y-96567345D01*
X360958450Y-95613914D01*
X360586440Y-94715801D01*
X360046365Y-93907521D01*
X359358979Y-93220135D01*
X358550699Y-92680060D01*
X357652586Y-92308050D01*
X356699155Y-92118400D01*
X355727045Y-92118400D01*
X354773614Y-92308050D01*
X353875501Y-92680060D01*
X353067221Y-93220135D01*
X352379835Y-93907521D01*
X351839760Y-94715801D01*
X351467750Y-95613914D01*
X351278100Y-96567345D01*
X351278100Y-97539455D01*
X351467750Y-98492886D01*
X351839760Y-99390999D01*
X352379835Y-100199279D01*
X353067221Y-100886665D01*
X353501826Y-101177058D01*
X353015797Y-100869804D01*
X352961888Y-100838176D01*
X352908742Y-100805224D01*
X352845075Y-100769642D01*
X350764669Y-99640074D01*
X350708777Y-99612085D01*
X350653569Y-99582731D01*
X350587684Y-99551446D01*
X348436991Y-98562237D01*
X348379345Y-98538005D01*
X348322333Y-98512383D01*
X348254519Y-98485533D01*
X346042996Y-97641035D01*
X345983879Y-97620680D01*
X345925288Y-97598890D01*
X345855844Y-97576594D01*
X343593216Y-96880518D01*
X343532872Y-96864123D01*
X343472972Y-96846266D01*
X343402203Y-96828621D01*
X341098416Y-96284029D01*
X341037148Y-96271675D01*
X340976168Y-96257821D01*
X340904385Y-96244906D01*
X338569571Y-95854192D01*
X338507620Y-95845926D01*
X338445854Y-95836143D01*
X338373373Y-95828013D01*
X336017798Y-95592896D01*
X335955413Y-95588752D01*
X335893159Y-95583087D01*
X335820298Y-95579778D01*
X333551331Y-95504508D01*
X333501994Y-95499649D01*
X87757411Y-95499649D01*
X87723550Y-95495851D01*
X87525818Y-95486872D01*
X87452883Y-95486872D01*
X86580654Y-95497529D01*
X86549427Y-95498947D01*
X86518154Y-95498947D01*
X86445293Y-95502256D01*
X84081940Y-95638526D01*
X84019706Y-95644190D01*
X83957298Y-95648335D01*
X83884817Y-95656465D01*
X81535691Y-95949064D01*
X81473964Y-95958841D01*
X81411974Y-95967112D01*
X81340191Y-95980028D01*
X79015620Y-96427670D01*
X78954648Y-96441523D01*
X78893371Y-96453878D01*
X78822602Y-96471523D01*
X76532809Y-97072239D01*
X76472912Y-97090095D01*
X76412565Y-97106491D01*
X76343121Y-97128787D01*
X74098174Y-97879936D01*
X74039574Y-97901730D01*
X73980466Y-97922082D01*
X73912653Y-97948931D01*
X71722422Y-98847210D01*
X71665392Y-98872840D01*
X71607766Y-98897064D01*
X71541899Y-98928341D01*
X71541880Y-98928349D01*
X71541868Y-98928355D01*
X69415998Y-99969808D01*
X69360816Y-99999149D01*
X69304897Y-100027151D01*
X69241230Y-100062733D01*
X67189043Y-101242793D01*
X67135923Y-101275729D01*
X67081987Y-101307373D01*
X67020819Y-101347097D01*
X65051350Y-102660569D01*
X65000526Y-102696956D01*
X64948810Y-102732102D01*
X64890408Y-102775792D01*
X63012319Y-104216900D01*
X62964004Y-104256587D01*
X62914745Y-104295072D01*
X62859367Y-104342537D01*
X61080914Y-105904945D01*
X61035345Y-105947737D01*
X60988735Y-105989412D01*
X60936624Y-106040443D01*
X59265629Y-107717282D01*
X59223003Y-107762993D01*
X59179251Y-107807671D01*
X59130637Y-107862043D01*
X57574446Y-109645938D01*
X57534931Y-109694389D01*
X57494248Y-109741854D01*
X57449344Y-109799328D01*
X56014801Y-111682436D01*
X55978604Y-111733370D01*
X55941136Y-111783455D01*
X55900140Y-111843779D01*
X54593550Y-113817819D01*
X54560785Y-113871078D01*
X54526742Y-113923500D01*
X54489834Y-113986408D01*
X53316945Y-116042702D01*
X53287787Y-116098005D01*
X53257288Y-116152577D01*
X53224630Y-116217793D01*
X52190598Y-118347298D01*
X52165172Y-118404407D01*
X52138354Y-118460885D01*
X52110090Y-118528122D01*
X51219462Y-120721473D01*
X51197879Y-120780135D01*
X51174860Y-120838274D01*
X51151115Y-120907236D01*
X50407807Y-123154792D01*
X50390159Y-123214757D01*
X50371044Y-123274292D01*
X50351921Y-123344676D01*
X49759202Y-125636551D01*
X49745564Y-125697564D01*
X49730440Y-125758224D01*
X49716024Y-125829720D01*
X49276499Y-128155840D01*
X49266935Y-128217623D01*
X49255864Y-128279152D01*
X49246217Y-128351446D01*
X48961819Y-130701580D01*
X48956369Y-130763877D01*
X48949402Y-130825990D01*
X48944568Y-130898765D01*
X48816549Y-133262581D01*
X48815240Y-133325090D01*
X48812404Y-133387537D01*
X37260599Y-133387537D01*
X37260599Y-96567345D01*
X59615600Y-96567345D01*
X59615600Y-97539455D01*
X59805250Y-98492886D01*
X60177260Y-99390999D01*
X60717335Y-100199279D01*
X61404721Y-100886665D01*
X62213001Y-101426740D01*
X63111114Y-101798750D01*
X64064545Y-101988400D01*
X65036655Y-101988400D01*
X65990086Y-101798750D01*
X66888199Y-101426740D01*
X67696479Y-100886665D01*
X68383865Y-100199279D01*
X68923940Y-99390999D01*
X69295950Y-98492886D01*
X69485600Y-97539455D01*
X69485600Y-96567345D01*
X69295950Y-95613914D01*
X68923940Y-94715801D01*
X68383865Y-93907521D01*
X67696479Y-93220135D01*
X66888199Y-92680060D01*
X65990086Y-92308050D01*
X65036655Y-92118400D01*
X64064545Y-92118400D01*
X63111114Y-92308050D01*
X62213001Y-92680060D01*
X61404721Y-93220135D01*
X60717335Y-93907521D01*
X60177260Y-94715801D01*
X59805250Y-95613914D01*
X59615600Y-96567345D01*
X37260599Y-96567345D01*
X37260600Y-83334177D01*
X37715600Y-83334177D01*
X37715600Y-83892623D01*
X37824548Y-84440339D01*
X38038256Y-84956276D01*
X38348512Y-85420607D01*
X38743393Y-85815488D01*
X39207724Y-86125744D01*
X39723661Y-86339452D01*
X40271377Y-86448400D01*
X40829823Y-86448400D01*
X41377539Y-86339452D01*
X41893476Y-86125744D01*
X42357807Y-85815488D01*
X42752688Y-85420607D01*
X43062944Y-84956276D01*
X43276652Y-84440339D01*
X43385600Y-83892623D01*
X43385600Y-83334177D01*
X131302400Y-83334177D01*
X131302400Y-83892623D01*
X131411348Y-84440339D01*
X131625056Y-84956276D01*
X131935312Y-85420607D01*
X132330193Y-85815488D01*
X132794524Y-86125744D01*
X133310461Y-86339452D01*
X133858177Y-86448400D01*
X134416623Y-86448400D01*
X134964339Y-86339452D01*
X135480276Y-86125744D01*
X135944607Y-85815488D01*
X136339488Y-85420607D01*
X136649744Y-84956276D01*
X136863452Y-84440339D01*
X136972400Y-83892623D01*
X136972400Y-83334177D01*
X283791300Y-83334177D01*
X283791300Y-83892623D01*
X283900248Y-84440339D01*
X284113956Y-84956276D01*
X284424212Y-85420607D01*
X284819093Y-85815488D01*
X285283424Y-86125744D01*
X285799361Y-86339452D01*
X286347077Y-86448400D01*
X286905523Y-86448400D01*
X287453239Y-86339452D01*
X287969176Y-86125744D01*
X288433507Y-85815488D01*
X288828388Y-85420607D01*
X289138644Y-84956276D01*
X289352352Y-84440339D01*
X289461300Y-83892623D01*
X289461300Y-83334177D01*
X377378100Y-83334177D01*
X377378100Y-83892623D01*
X377487048Y-84440339D01*
X377700756Y-84956276D01*
X378011012Y-85420607D01*
X378405893Y-85815488D01*
X378870224Y-86125744D01*
X379386161Y-86339452D01*
X379933877Y-86448400D01*
X380492323Y-86448400D01*
X381040039Y-86339452D01*
X381555976Y-86125744D01*
X382020307Y-85815488D01*
X382415188Y-85420607D01*
X382725444Y-84956276D01*
X382939152Y-84440339D01*
X383048100Y-83892623D01*
X383048100Y-83334177D01*
X382939152Y-82786461D01*
X382725444Y-82270524D01*
X382415188Y-81806193D01*
X382020307Y-81411312D01*
X381555976Y-81101056D01*
X381040039Y-80887348D01*
X380492323Y-80778400D01*
X379933877Y-80778400D01*
X379386161Y-80887348D01*
X378870224Y-81101056D01*
X378405893Y-81411312D01*
X378011012Y-81806193D01*
X377700756Y-82270524D01*
X377487048Y-82786461D01*
X377378100Y-83334177D01*
X289461300Y-83334177D01*
X289352352Y-82786461D01*
X289138644Y-82270524D01*
X288828388Y-81806193D01*
X288433507Y-81411312D01*
X287969176Y-81101056D01*
X287453239Y-80887348D01*
X286905523Y-80778400D01*
X286347077Y-80778400D01*
X285799361Y-80887348D01*
X285283424Y-81101056D01*
X284819093Y-81411312D01*
X284424212Y-81806193D01*
X284113956Y-82270524D01*
X283900248Y-82786461D01*
X283791300Y-83334177D01*
X136972400Y-83334177D01*
X136863452Y-82786461D01*
X136649744Y-82270524D01*
X136339488Y-81806193D01*
X135944607Y-81411312D01*
X135480276Y-81101056D01*
X134964339Y-80887348D01*
X134416623Y-80778400D01*
X133858177Y-80778400D01*
X133310461Y-80887348D01*
X132794524Y-81101056D01*
X132330193Y-81411312D01*
X131935312Y-81806193D01*
X131625056Y-82270524D01*
X131411348Y-82786461D01*
X131302400Y-83334177D01*
X43385600Y-83334177D01*
X43276652Y-82786461D01*
X43062944Y-82270524D01*
X42752688Y-81806193D01*
X42357807Y-81411312D01*
X41893476Y-81101056D01*
X41377539Y-80887348D01*
X40829823Y-80778400D01*
X40271377Y-80778400D01*
X39723661Y-80887348D01*
X39207724Y-81101056D01*
X38743393Y-81411312D01*
X38348512Y-81806193D01*
X38038256Y-82270524D01*
X37824548Y-82786461D01*
X37715600Y-83334177D01*
X37260600Y-83334177D01*
X37260600Y-64584177D01*
X37715600Y-64584177D01*
X37715600Y-65142623D01*
X37824548Y-65690339D01*
X38038256Y-66206276D01*
X38348512Y-66670607D01*
X38743393Y-67065488D01*
X39207724Y-67375744D01*
X39723661Y-67589452D01*
X40271377Y-67698400D01*
X40829823Y-67698400D01*
X41377539Y-67589452D01*
X41893476Y-67375744D01*
X42357807Y-67065488D01*
X42752688Y-66670607D01*
X43062944Y-66206276D01*
X43276652Y-65690339D01*
X43385600Y-65142623D01*
X43385600Y-64584177D01*
X131302400Y-64584177D01*
X131302400Y-65142623D01*
X131411348Y-65690339D01*
X131625056Y-66206276D01*
X131935312Y-66670607D01*
X132330193Y-67065488D01*
X132794524Y-67375744D01*
X133310461Y-67589452D01*
X133858177Y-67698400D01*
X134416623Y-67698400D01*
X134964339Y-67589452D01*
X135480276Y-67375744D01*
X135944607Y-67065488D01*
X136339488Y-66670607D01*
X136649744Y-66206276D01*
X136863452Y-65690339D01*
X136972400Y-65142623D01*
X136972400Y-64584177D01*
X283791300Y-64584177D01*
X283791300Y-65142623D01*
X283900248Y-65690339D01*
X284113956Y-66206276D01*
X284424212Y-66670607D01*
X284819093Y-67065488D01*
X285283424Y-67375744D01*
X285799361Y-67589452D01*
X286347077Y-67698400D01*
X286905523Y-67698400D01*
X287453239Y-67589452D01*
X287969176Y-67375744D01*
X288433507Y-67065488D01*
X288828388Y-66670607D01*
X289138644Y-66206276D01*
X289352352Y-65690339D01*
X289461300Y-65142623D01*
X289461300Y-64584177D01*
X377378100Y-64584177D01*
X377378100Y-65142623D01*
X377487048Y-65690339D01*
X377700756Y-66206276D01*
X378011012Y-66670607D01*
X378405893Y-67065488D01*
X378870224Y-67375744D01*
X379386161Y-67589452D01*
X379933877Y-67698400D01*
X380492323Y-67698400D01*
X381040039Y-67589452D01*
X381555976Y-67375744D01*
X382020307Y-67065488D01*
X382415188Y-66670607D01*
X382725444Y-66206276D01*
X382939152Y-65690339D01*
X383048100Y-65142623D01*
X383048100Y-64584177D01*
X382939152Y-64036461D01*
X382725444Y-63520524D01*
X382415188Y-63056193D01*
X382020307Y-62661312D01*
X381555976Y-62351056D01*
X381040039Y-62137348D01*
X380492323Y-62028400D01*
X379933877Y-62028400D01*
X379386161Y-62137348D01*
X378870224Y-62351056D01*
X378405893Y-62661312D01*
X378011012Y-63056193D01*
X377700756Y-63520524D01*
X377487048Y-64036461D01*
X377378100Y-64584177D01*
X289461300Y-64584177D01*
X289352352Y-64036461D01*
X289138644Y-63520524D01*
X288828388Y-63056193D01*
X288433507Y-62661312D01*
X287969176Y-62351056D01*
X287453239Y-62137348D01*
X286905523Y-62028400D01*
X286347077Y-62028400D01*
X285799361Y-62137348D01*
X285283424Y-62351056D01*
X284819093Y-62661312D01*
X284424212Y-63056193D01*
X284113956Y-63520524D01*
X283900248Y-64036461D01*
X283791300Y-64584177D01*
X136972400Y-64584177D01*
X136863452Y-64036461D01*
X136649744Y-63520524D01*
X136339488Y-63056193D01*
X135944607Y-62661312D01*
X135480276Y-62351056D01*
X134964339Y-62137348D01*
X134416623Y-62028400D01*
X133858177Y-62028400D01*
X133310461Y-62137348D01*
X132794524Y-62351056D01*
X132330193Y-62661312D01*
X131935312Y-63056193D01*
X131625056Y-63520524D01*
X131411348Y-64036461D01*
X131302400Y-64584177D01*
X43385600Y-64584177D01*
X43276652Y-64036461D01*
X43062944Y-63520524D01*
X42752688Y-63056193D01*
X42357807Y-62661312D01*
X41893476Y-62351056D01*
X41377539Y-62137348D01*
X40829823Y-62028400D01*
X40271377Y-62028400D01*
X39723661Y-62137348D01*
X39207724Y-62351056D01*
X38743393Y-62661312D01*
X38348512Y-63056193D01*
X38038256Y-63520524D01*
X37824548Y-64036461D01*
X37715600Y-64584177D01*
X37260600Y-64584177D01*
X37260601Y-64207861D01*
X37312944Y-63668992D01*
X37458812Y-63184268D01*
X37696047Y-62737113D01*
X38015621Y-62344551D01*
X38405355Y-62021538D01*
X38850408Y-61780377D01*
X39333829Y-61630252D01*
X39870067Y-61573400D01*
X380868629Y-61573400D01*
X381407508Y-61625744D01*
G37*
G04 #@! TD.AperFunction*
M02*
