G04 #@! TF.GenerationSoftware,KiCad,Pcbnew,(5.1.4)-1*
G04 #@! TF.CreationDate,2019-10-29T16:25:08-04:00*
G04 #@! TF.ProjectId,mysterium-bottom,6d797374-6572-4697-956d-2d626f74746f,rev?*
G04 #@! TF.SameCoordinates,Original*
G04 #@! TF.FileFunction,Copper,L1,Top*
G04 #@! TF.FilePolarity,Positive*
%FSLAX46Y46*%
G04 Gerber Fmt 4.6, Leading zero omitted, Abs format (unit mm)*
G04 Created by KiCad (PCBNEW (5.1.4)-1) date 2019-10-29 16:25:08*
%MOMM*%
%LPD*%
G04 APERTURE LIST*
%ADD10C,0.150000*%
%ADD11C,8.600000*%
%ADD12C,4.400000*%
%ADD13C,0.254000*%
G04 APERTURE END LIST*
D10*
X384213099Y-204169841D02*
G75*
G02X380909040Y-207479900I-3307059J-3000D01*
G01*
X380903041Y-60863401D02*
G75*
G02X384213100Y-64167460I3000J-3307059D01*
G01*
X36550601Y-64173459D02*
G75*
G02X39854660Y-60863400I3307059J3000D01*
G01*
X39860659Y-207479899D02*
G75*
G02X36550600Y-204175840I-3000J3307059D01*
G01*
X384213100Y-64167460D02*
X384213099Y-204169841D01*
X380909040Y-207479900D02*
X39860659Y-207479899D01*
X36550600Y-204175840D02*
X36550601Y-64173459D01*
X39854660Y-60863400D02*
X380903041Y-60863400D01*
D11*
X356213100Y-97053400D03*
X64550600Y-97053400D03*
D12*
X286626300Y-83613400D03*
X134137400Y-83613400D03*
X286626300Y-64863400D03*
X40550600Y-64863400D03*
X379523512Y-183454800D03*
X327986788Y-183454800D03*
X379523512Y-155219400D03*
X327986788Y-155219400D03*
X77901800Y-178587400D03*
X85763100Y-109702600D03*
X335000600Y-109702600D03*
X210419351Y-197713600D03*
X210419351Y-109702600D03*
X134137400Y-64863400D03*
X380213100Y-64863400D03*
X380213100Y-83613400D03*
X40550600Y-83613400D03*
D13*
G36*
X381407508Y-61625744D02*
G01*
X381892232Y-61771612D01*
X382339387Y-62008847D01*
X382731949Y-62328421D01*
X383054962Y-62718155D01*
X383296123Y-63163208D01*
X383446248Y-63646629D01*
X383503101Y-64182877D01*
X383503099Y-204135438D01*
X383450756Y-204674309D01*
X383304888Y-205159032D01*
X383067652Y-205606188D01*
X382748079Y-205998749D01*
X382358343Y-206321763D01*
X381913292Y-206562923D01*
X381429871Y-206713048D01*
X380893623Y-206769901D01*
X39895062Y-206769899D01*
X39356191Y-206717556D01*
X38871468Y-206571688D01*
X38424312Y-206334452D01*
X38031751Y-206014879D01*
X37708737Y-205625143D01*
X37467577Y-205180092D01*
X37317452Y-204696671D01*
X37260599Y-204160423D01*
X37260599Y-183175577D01*
X325151788Y-183175577D01*
X325151788Y-183734023D01*
X325260736Y-184281739D01*
X325474444Y-184797676D01*
X325784700Y-185262007D01*
X326179581Y-185656888D01*
X326643912Y-185967144D01*
X327159849Y-186180852D01*
X327707565Y-186289800D01*
X328266011Y-186289800D01*
X328813727Y-186180852D01*
X329329664Y-185967144D01*
X329793995Y-185656888D01*
X330188876Y-185262007D01*
X330499132Y-184797676D01*
X330712840Y-184281739D01*
X330821788Y-183734023D01*
X330821788Y-183175577D01*
X376688512Y-183175577D01*
X376688512Y-183734023D01*
X376797460Y-184281739D01*
X377011168Y-184797676D01*
X377321424Y-185262007D01*
X377716305Y-185656888D01*
X378180636Y-185967144D01*
X378696573Y-186180852D01*
X379244289Y-186289800D01*
X379802735Y-186289800D01*
X380350451Y-186180852D01*
X380866388Y-185967144D01*
X381330719Y-185656888D01*
X381725600Y-185262007D01*
X382035856Y-184797676D01*
X382249564Y-184281739D01*
X382358512Y-183734023D01*
X382358512Y-183175577D01*
X382249564Y-182627861D01*
X382035856Y-182111924D01*
X381725600Y-181647593D01*
X381330719Y-181252712D01*
X380866388Y-180942456D01*
X380350451Y-180728748D01*
X379802735Y-180619800D01*
X379244289Y-180619800D01*
X378696573Y-180728748D01*
X378180636Y-180942456D01*
X377716305Y-181252712D01*
X377321424Y-181647593D01*
X377011168Y-182111924D01*
X376797460Y-182627861D01*
X376688512Y-183175577D01*
X330821788Y-183175577D01*
X330712840Y-182627861D01*
X330499132Y-182111924D01*
X330188876Y-181647593D01*
X329793995Y-181252712D01*
X329329664Y-180942456D01*
X328813727Y-180728748D01*
X328266011Y-180619800D01*
X327707565Y-180619800D01*
X327159849Y-180728748D01*
X326643912Y-180942456D01*
X326179581Y-181252712D01*
X325784700Y-181647593D01*
X325474444Y-182111924D01*
X325260736Y-182627861D01*
X325151788Y-183175577D01*
X37260599Y-183175577D01*
X37260599Y-178308177D01*
X75066800Y-178308177D01*
X75066800Y-178866623D01*
X75175748Y-179414339D01*
X75389456Y-179930276D01*
X75699712Y-180394607D01*
X76094593Y-180789488D01*
X76558924Y-181099744D01*
X77074861Y-181313452D01*
X77622577Y-181422400D01*
X78181023Y-181422400D01*
X78728739Y-181313452D01*
X79244676Y-181099744D01*
X79709007Y-180789488D01*
X80103888Y-180394607D01*
X80414144Y-179930276D01*
X80627852Y-179414339D01*
X80736800Y-178866623D01*
X80736800Y-178308177D01*
X80627852Y-177760461D01*
X80414144Y-177244524D01*
X80103888Y-176780193D01*
X79709007Y-176385312D01*
X79244676Y-176075056D01*
X78728739Y-175861348D01*
X78181023Y-175752400D01*
X77622577Y-175752400D01*
X77074861Y-175861348D01*
X76558924Y-176075056D01*
X76094593Y-176385312D01*
X75699712Y-176780193D01*
X75389456Y-177244524D01*
X75175748Y-177760461D01*
X75066800Y-178308177D01*
X37260599Y-178308177D01*
X37260599Y-154940177D01*
X325151788Y-154940177D01*
X325151788Y-155498623D01*
X325260736Y-156046339D01*
X325474444Y-156562276D01*
X325784700Y-157026607D01*
X326179581Y-157421488D01*
X326643912Y-157731744D01*
X327159849Y-157945452D01*
X327707565Y-158054400D01*
X328266011Y-158054400D01*
X328813727Y-157945452D01*
X329329664Y-157731744D01*
X329793995Y-157421488D01*
X330188876Y-157026607D01*
X330499132Y-156562276D01*
X330712840Y-156046339D01*
X330821788Y-155498623D01*
X330821788Y-154940177D01*
X376688512Y-154940177D01*
X376688512Y-155498623D01*
X376797460Y-156046339D01*
X377011168Y-156562276D01*
X377321424Y-157026607D01*
X377716305Y-157421488D01*
X378180636Y-157731744D01*
X378696573Y-157945452D01*
X379244289Y-158054400D01*
X379802735Y-158054400D01*
X380350451Y-157945452D01*
X380866388Y-157731744D01*
X381330719Y-157421488D01*
X381725600Y-157026607D01*
X382035856Y-156562276D01*
X382249564Y-156046339D01*
X382358512Y-155498623D01*
X382358512Y-154940177D01*
X382249564Y-154392461D01*
X382035856Y-153876524D01*
X381725600Y-153412193D01*
X381330719Y-153017312D01*
X380866388Y-152707056D01*
X380350451Y-152493348D01*
X379802735Y-152384400D01*
X379244289Y-152384400D01*
X378696573Y-152493348D01*
X378180636Y-152707056D01*
X377716305Y-153017312D01*
X377321424Y-153412193D01*
X377011168Y-153876524D01*
X376797460Y-154392461D01*
X376688512Y-154940177D01*
X330821788Y-154940177D01*
X330712840Y-154392461D01*
X330499132Y-153876524D01*
X330188876Y-153412193D01*
X329793995Y-153017312D01*
X329329664Y-152707056D01*
X328813727Y-152493348D01*
X328266011Y-152384400D01*
X327707565Y-152384400D01*
X327159849Y-152493348D01*
X326643912Y-152707056D01*
X326179581Y-153017312D01*
X325784700Y-153412193D01*
X325474444Y-153876524D01*
X325260736Y-154392461D01*
X325151788Y-154940177D01*
X37260599Y-154940177D01*
X37260599Y-109423377D01*
X82928100Y-109423377D01*
X82928100Y-109981823D01*
X83037048Y-110529539D01*
X83250756Y-111045476D01*
X83561012Y-111509807D01*
X83955893Y-111904688D01*
X84420224Y-112214944D01*
X84936161Y-112428652D01*
X85483877Y-112537600D01*
X86042323Y-112537600D01*
X86590039Y-112428652D01*
X87105976Y-112214944D01*
X87570307Y-111904688D01*
X87965188Y-111509807D01*
X88275444Y-111045476D01*
X88489152Y-110529539D01*
X88598100Y-109981823D01*
X88598100Y-109423377D01*
X207584351Y-109423377D01*
X207584351Y-109981823D01*
X207693299Y-110529539D01*
X207907007Y-111045476D01*
X208217263Y-111509807D01*
X208612144Y-111904688D01*
X209076475Y-112214944D01*
X209592412Y-112428652D01*
X210140128Y-112537600D01*
X210698574Y-112537600D01*
X211246290Y-112428652D01*
X211762227Y-112214944D01*
X212226558Y-111904688D01*
X212621439Y-111509807D01*
X212931695Y-111045476D01*
X213145403Y-110529539D01*
X213254351Y-109981823D01*
X213254351Y-109423377D01*
X332165600Y-109423377D01*
X332165600Y-109981823D01*
X332274548Y-110529539D01*
X332488256Y-111045476D01*
X332798512Y-111509807D01*
X333193393Y-111904688D01*
X333657724Y-112214944D01*
X334173661Y-112428652D01*
X334721377Y-112537600D01*
X335279823Y-112537600D01*
X335827539Y-112428652D01*
X336343476Y-112214944D01*
X336807807Y-111904688D01*
X337202688Y-111509807D01*
X337512944Y-111045476D01*
X337726652Y-110529539D01*
X337835600Y-109981823D01*
X337835600Y-109423377D01*
X337726652Y-108875661D01*
X337512944Y-108359724D01*
X337202688Y-107895393D01*
X336807807Y-107500512D01*
X336343476Y-107190256D01*
X335827539Y-106976548D01*
X335279823Y-106867600D01*
X334721377Y-106867600D01*
X334173661Y-106976548D01*
X333657724Y-107190256D01*
X333193393Y-107500512D01*
X332798512Y-107895393D01*
X332488256Y-108359724D01*
X332274548Y-108875661D01*
X332165600Y-109423377D01*
X213254351Y-109423377D01*
X213145403Y-108875661D01*
X212931695Y-108359724D01*
X212621439Y-107895393D01*
X212226558Y-107500512D01*
X211762227Y-107190256D01*
X211246290Y-106976548D01*
X210698574Y-106867600D01*
X210140128Y-106867600D01*
X209592412Y-106976548D01*
X209076475Y-107190256D01*
X208612144Y-107500512D01*
X208217263Y-107895393D01*
X207907007Y-108359724D01*
X207693299Y-108875661D01*
X207584351Y-109423377D01*
X88598100Y-109423377D01*
X88489152Y-108875661D01*
X88275444Y-108359724D01*
X87965188Y-107895393D01*
X87570307Y-107500512D01*
X87105976Y-107190256D01*
X86590039Y-106976548D01*
X86042323Y-106867600D01*
X85483877Y-106867600D01*
X84936161Y-106976548D01*
X84420224Y-107190256D01*
X83955893Y-107500512D01*
X83561012Y-107895393D01*
X83250756Y-108359724D01*
X83037048Y-108875661D01*
X82928100Y-109423377D01*
X37260599Y-109423377D01*
X37260599Y-96567345D01*
X59615600Y-96567345D01*
X59615600Y-97539455D01*
X59805250Y-98492886D01*
X60177260Y-99390999D01*
X60717335Y-100199279D01*
X61404721Y-100886665D01*
X62213001Y-101426740D01*
X63111114Y-101798750D01*
X64064545Y-101988400D01*
X65036655Y-101988400D01*
X65990086Y-101798750D01*
X66888199Y-101426740D01*
X67696479Y-100886665D01*
X68383865Y-100199279D01*
X68923940Y-99390999D01*
X69295950Y-98492886D01*
X69485600Y-97539455D01*
X69485600Y-96567345D01*
X351278100Y-96567345D01*
X351278100Y-97539455D01*
X351467750Y-98492886D01*
X351839760Y-99390999D01*
X352379835Y-100199279D01*
X353067221Y-100886665D01*
X353875501Y-101426740D01*
X354773614Y-101798750D01*
X355727045Y-101988400D01*
X356699155Y-101988400D01*
X357652586Y-101798750D01*
X358550699Y-101426740D01*
X359358979Y-100886665D01*
X360046365Y-100199279D01*
X360586440Y-99390999D01*
X360958450Y-98492886D01*
X361148100Y-97539455D01*
X361148100Y-96567345D01*
X360958450Y-95613914D01*
X360586440Y-94715801D01*
X360046365Y-93907521D01*
X359358979Y-93220135D01*
X358550699Y-92680060D01*
X357652586Y-92308050D01*
X356699155Y-92118400D01*
X355727045Y-92118400D01*
X354773614Y-92308050D01*
X353875501Y-92680060D01*
X353067221Y-93220135D01*
X352379835Y-93907521D01*
X351839760Y-94715801D01*
X351467750Y-95613914D01*
X351278100Y-96567345D01*
X69485600Y-96567345D01*
X69295950Y-95613914D01*
X68923940Y-94715801D01*
X68383865Y-93907521D01*
X67696479Y-93220135D01*
X66888199Y-92680060D01*
X65990086Y-92308050D01*
X65036655Y-92118400D01*
X64064545Y-92118400D01*
X63111114Y-92308050D01*
X62213001Y-92680060D01*
X61404721Y-93220135D01*
X60717335Y-93907521D01*
X60177260Y-94715801D01*
X59805250Y-95613914D01*
X59615600Y-96567345D01*
X37260599Y-96567345D01*
X37260600Y-83334177D01*
X37715600Y-83334177D01*
X37715600Y-83892623D01*
X37824548Y-84440339D01*
X38038256Y-84956276D01*
X38348512Y-85420607D01*
X38743393Y-85815488D01*
X39207724Y-86125744D01*
X39723661Y-86339452D01*
X40271377Y-86448400D01*
X40829823Y-86448400D01*
X41377539Y-86339452D01*
X41893476Y-86125744D01*
X42357807Y-85815488D01*
X42752688Y-85420607D01*
X43062944Y-84956276D01*
X43276652Y-84440339D01*
X43385600Y-83892623D01*
X43385600Y-83334177D01*
X131302400Y-83334177D01*
X131302400Y-83892623D01*
X131411348Y-84440339D01*
X131625056Y-84956276D01*
X131935312Y-85420607D01*
X132330193Y-85815488D01*
X132794524Y-86125744D01*
X133310461Y-86339452D01*
X133858177Y-86448400D01*
X134416623Y-86448400D01*
X134964339Y-86339452D01*
X135480276Y-86125744D01*
X135944607Y-85815488D01*
X136339488Y-85420607D01*
X136649744Y-84956276D01*
X136863452Y-84440339D01*
X136972400Y-83892623D01*
X136972400Y-83334177D01*
X283791300Y-83334177D01*
X283791300Y-83892623D01*
X283900248Y-84440339D01*
X284113956Y-84956276D01*
X284424212Y-85420607D01*
X284819093Y-85815488D01*
X285283424Y-86125744D01*
X285799361Y-86339452D01*
X286347077Y-86448400D01*
X286905523Y-86448400D01*
X287453239Y-86339452D01*
X287969176Y-86125744D01*
X288433507Y-85815488D01*
X288828388Y-85420607D01*
X289138644Y-84956276D01*
X289352352Y-84440339D01*
X289461300Y-83892623D01*
X289461300Y-83334177D01*
X377378100Y-83334177D01*
X377378100Y-83892623D01*
X377487048Y-84440339D01*
X377700756Y-84956276D01*
X378011012Y-85420607D01*
X378405893Y-85815488D01*
X378870224Y-86125744D01*
X379386161Y-86339452D01*
X379933877Y-86448400D01*
X380492323Y-86448400D01*
X381040039Y-86339452D01*
X381555976Y-86125744D01*
X382020307Y-85815488D01*
X382415188Y-85420607D01*
X382725444Y-84956276D01*
X382939152Y-84440339D01*
X383048100Y-83892623D01*
X383048100Y-83334177D01*
X382939152Y-82786461D01*
X382725444Y-82270524D01*
X382415188Y-81806193D01*
X382020307Y-81411312D01*
X381555976Y-81101056D01*
X381040039Y-80887348D01*
X380492323Y-80778400D01*
X379933877Y-80778400D01*
X379386161Y-80887348D01*
X378870224Y-81101056D01*
X378405893Y-81411312D01*
X378011012Y-81806193D01*
X377700756Y-82270524D01*
X377487048Y-82786461D01*
X377378100Y-83334177D01*
X289461300Y-83334177D01*
X289352352Y-82786461D01*
X289138644Y-82270524D01*
X288828388Y-81806193D01*
X288433507Y-81411312D01*
X287969176Y-81101056D01*
X287453239Y-80887348D01*
X286905523Y-80778400D01*
X286347077Y-80778400D01*
X285799361Y-80887348D01*
X285283424Y-81101056D01*
X284819093Y-81411312D01*
X284424212Y-81806193D01*
X284113956Y-82270524D01*
X283900248Y-82786461D01*
X283791300Y-83334177D01*
X136972400Y-83334177D01*
X136863452Y-82786461D01*
X136649744Y-82270524D01*
X136339488Y-81806193D01*
X135944607Y-81411312D01*
X135480276Y-81101056D01*
X134964339Y-80887348D01*
X134416623Y-80778400D01*
X133858177Y-80778400D01*
X133310461Y-80887348D01*
X132794524Y-81101056D01*
X132330193Y-81411312D01*
X131935312Y-81806193D01*
X131625056Y-82270524D01*
X131411348Y-82786461D01*
X131302400Y-83334177D01*
X43385600Y-83334177D01*
X43276652Y-82786461D01*
X43062944Y-82270524D01*
X42752688Y-81806193D01*
X42357807Y-81411312D01*
X41893476Y-81101056D01*
X41377539Y-80887348D01*
X40829823Y-80778400D01*
X40271377Y-80778400D01*
X39723661Y-80887348D01*
X39207724Y-81101056D01*
X38743393Y-81411312D01*
X38348512Y-81806193D01*
X38038256Y-82270524D01*
X37824548Y-82786461D01*
X37715600Y-83334177D01*
X37260600Y-83334177D01*
X37260600Y-64584177D01*
X37715600Y-64584177D01*
X37715600Y-65142623D01*
X37824548Y-65690339D01*
X38038256Y-66206276D01*
X38348512Y-66670607D01*
X38743393Y-67065488D01*
X39207724Y-67375744D01*
X39723661Y-67589452D01*
X40271377Y-67698400D01*
X40829823Y-67698400D01*
X41377539Y-67589452D01*
X41893476Y-67375744D01*
X42357807Y-67065488D01*
X42752688Y-66670607D01*
X43062944Y-66206276D01*
X43276652Y-65690339D01*
X43385600Y-65142623D01*
X43385600Y-64584177D01*
X131302400Y-64584177D01*
X131302400Y-65142623D01*
X131411348Y-65690339D01*
X131625056Y-66206276D01*
X131935312Y-66670607D01*
X132330193Y-67065488D01*
X132794524Y-67375744D01*
X133310461Y-67589452D01*
X133858177Y-67698400D01*
X134416623Y-67698400D01*
X134964339Y-67589452D01*
X135480276Y-67375744D01*
X135944607Y-67065488D01*
X136339488Y-66670607D01*
X136649744Y-66206276D01*
X136863452Y-65690339D01*
X136972400Y-65142623D01*
X136972400Y-64584177D01*
X283791300Y-64584177D01*
X283791300Y-65142623D01*
X283900248Y-65690339D01*
X284113956Y-66206276D01*
X284424212Y-66670607D01*
X284819093Y-67065488D01*
X285283424Y-67375744D01*
X285799361Y-67589452D01*
X286347077Y-67698400D01*
X286905523Y-67698400D01*
X287453239Y-67589452D01*
X287969176Y-67375744D01*
X288433507Y-67065488D01*
X288828388Y-66670607D01*
X289138644Y-66206276D01*
X289352352Y-65690339D01*
X289461300Y-65142623D01*
X289461300Y-64584177D01*
X377378100Y-64584177D01*
X377378100Y-65142623D01*
X377487048Y-65690339D01*
X377700756Y-66206276D01*
X378011012Y-66670607D01*
X378405893Y-67065488D01*
X378870224Y-67375744D01*
X379386161Y-67589452D01*
X379933877Y-67698400D01*
X380492323Y-67698400D01*
X381040039Y-67589452D01*
X381555976Y-67375744D01*
X382020307Y-67065488D01*
X382415188Y-66670607D01*
X382725444Y-66206276D01*
X382939152Y-65690339D01*
X383048100Y-65142623D01*
X383048100Y-64584177D01*
X382939152Y-64036461D01*
X382725444Y-63520524D01*
X382415188Y-63056193D01*
X382020307Y-62661312D01*
X381555976Y-62351056D01*
X381040039Y-62137348D01*
X380492323Y-62028400D01*
X379933877Y-62028400D01*
X379386161Y-62137348D01*
X378870224Y-62351056D01*
X378405893Y-62661312D01*
X378011012Y-63056193D01*
X377700756Y-63520524D01*
X377487048Y-64036461D01*
X377378100Y-64584177D01*
X289461300Y-64584177D01*
X289352352Y-64036461D01*
X289138644Y-63520524D01*
X288828388Y-63056193D01*
X288433507Y-62661312D01*
X287969176Y-62351056D01*
X287453239Y-62137348D01*
X286905523Y-62028400D01*
X286347077Y-62028400D01*
X285799361Y-62137348D01*
X285283424Y-62351056D01*
X284819093Y-62661312D01*
X284424212Y-63056193D01*
X284113956Y-63520524D01*
X283900248Y-64036461D01*
X283791300Y-64584177D01*
X136972400Y-64584177D01*
X136863452Y-64036461D01*
X136649744Y-63520524D01*
X136339488Y-63056193D01*
X135944607Y-62661312D01*
X135480276Y-62351056D01*
X134964339Y-62137348D01*
X134416623Y-62028400D01*
X133858177Y-62028400D01*
X133310461Y-62137348D01*
X132794524Y-62351056D01*
X132330193Y-62661312D01*
X131935312Y-63056193D01*
X131625056Y-63520524D01*
X131411348Y-64036461D01*
X131302400Y-64584177D01*
X43385600Y-64584177D01*
X43276652Y-64036461D01*
X43062944Y-63520524D01*
X42752688Y-63056193D01*
X42357807Y-62661312D01*
X41893476Y-62351056D01*
X41377539Y-62137348D01*
X40829823Y-62028400D01*
X40271377Y-62028400D01*
X39723661Y-62137348D01*
X39207724Y-62351056D01*
X38743393Y-62661312D01*
X38348512Y-63056193D01*
X38038256Y-63520524D01*
X37824548Y-64036461D01*
X37715600Y-64584177D01*
X37260600Y-64584177D01*
X37260601Y-64207861D01*
X37312944Y-63668992D01*
X37458812Y-63184268D01*
X37696047Y-62737113D01*
X38015621Y-62344551D01*
X38405355Y-62021538D01*
X38850408Y-61780377D01*
X39333829Y-61630252D01*
X39870067Y-61573400D01*
X380868629Y-61573400D01*
X381407508Y-61625744D01*
X381407508Y-61625744D01*
G37*
X381407508Y-61625744D02*
X381892232Y-61771612D01*
X382339387Y-62008847D01*
X382731949Y-62328421D01*
X383054962Y-62718155D01*
X383296123Y-63163208D01*
X383446248Y-63646629D01*
X383503101Y-64182877D01*
X383503099Y-204135438D01*
X383450756Y-204674309D01*
X383304888Y-205159032D01*
X383067652Y-205606188D01*
X382748079Y-205998749D01*
X382358343Y-206321763D01*
X381913292Y-206562923D01*
X381429871Y-206713048D01*
X380893623Y-206769901D01*
X39895062Y-206769899D01*
X39356191Y-206717556D01*
X38871468Y-206571688D01*
X38424312Y-206334452D01*
X38031751Y-206014879D01*
X37708737Y-205625143D01*
X37467577Y-205180092D01*
X37317452Y-204696671D01*
X37260599Y-204160423D01*
X37260599Y-183175577D01*
X325151788Y-183175577D01*
X325151788Y-183734023D01*
X325260736Y-184281739D01*
X325474444Y-184797676D01*
X325784700Y-185262007D01*
X326179581Y-185656888D01*
X326643912Y-185967144D01*
X327159849Y-186180852D01*
X327707565Y-186289800D01*
X328266011Y-186289800D01*
X328813727Y-186180852D01*
X329329664Y-185967144D01*
X329793995Y-185656888D01*
X330188876Y-185262007D01*
X330499132Y-184797676D01*
X330712840Y-184281739D01*
X330821788Y-183734023D01*
X330821788Y-183175577D01*
X376688512Y-183175577D01*
X376688512Y-183734023D01*
X376797460Y-184281739D01*
X377011168Y-184797676D01*
X377321424Y-185262007D01*
X377716305Y-185656888D01*
X378180636Y-185967144D01*
X378696573Y-186180852D01*
X379244289Y-186289800D01*
X379802735Y-186289800D01*
X380350451Y-186180852D01*
X380866388Y-185967144D01*
X381330719Y-185656888D01*
X381725600Y-185262007D01*
X382035856Y-184797676D01*
X382249564Y-184281739D01*
X382358512Y-183734023D01*
X382358512Y-183175577D01*
X382249564Y-182627861D01*
X382035856Y-182111924D01*
X381725600Y-181647593D01*
X381330719Y-181252712D01*
X380866388Y-180942456D01*
X380350451Y-180728748D01*
X379802735Y-180619800D01*
X379244289Y-180619800D01*
X378696573Y-180728748D01*
X378180636Y-180942456D01*
X377716305Y-181252712D01*
X377321424Y-181647593D01*
X377011168Y-182111924D01*
X376797460Y-182627861D01*
X376688512Y-183175577D01*
X330821788Y-183175577D01*
X330712840Y-182627861D01*
X330499132Y-182111924D01*
X330188876Y-181647593D01*
X329793995Y-181252712D01*
X329329664Y-180942456D01*
X328813727Y-180728748D01*
X328266011Y-180619800D01*
X327707565Y-180619800D01*
X327159849Y-180728748D01*
X326643912Y-180942456D01*
X326179581Y-181252712D01*
X325784700Y-181647593D01*
X325474444Y-182111924D01*
X325260736Y-182627861D01*
X325151788Y-183175577D01*
X37260599Y-183175577D01*
X37260599Y-178308177D01*
X75066800Y-178308177D01*
X75066800Y-178866623D01*
X75175748Y-179414339D01*
X75389456Y-179930276D01*
X75699712Y-180394607D01*
X76094593Y-180789488D01*
X76558924Y-181099744D01*
X77074861Y-181313452D01*
X77622577Y-181422400D01*
X78181023Y-181422400D01*
X78728739Y-181313452D01*
X79244676Y-181099744D01*
X79709007Y-180789488D01*
X80103888Y-180394607D01*
X80414144Y-179930276D01*
X80627852Y-179414339D01*
X80736800Y-178866623D01*
X80736800Y-178308177D01*
X80627852Y-177760461D01*
X80414144Y-177244524D01*
X80103888Y-176780193D01*
X79709007Y-176385312D01*
X79244676Y-176075056D01*
X78728739Y-175861348D01*
X78181023Y-175752400D01*
X77622577Y-175752400D01*
X77074861Y-175861348D01*
X76558924Y-176075056D01*
X76094593Y-176385312D01*
X75699712Y-176780193D01*
X75389456Y-177244524D01*
X75175748Y-177760461D01*
X75066800Y-178308177D01*
X37260599Y-178308177D01*
X37260599Y-154940177D01*
X325151788Y-154940177D01*
X325151788Y-155498623D01*
X325260736Y-156046339D01*
X325474444Y-156562276D01*
X325784700Y-157026607D01*
X326179581Y-157421488D01*
X326643912Y-157731744D01*
X327159849Y-157945452D01*
X327707565Y-158054400D01*
X328266011Y-158054400D01*
X328813727Y-157945452D01*
X329329664Y-157731744D01*
X329793995Y-157421488D01*
X330188876Y-157026607D01*
X330499132Y-156562276D01*
X330712840Y-156046339D01*
X330821788Y-155498623D01*
X330821788Y-154940177D01*
X376688512Y-154940177D01*
X376688512Y-155498623D01*
X376797460Y-156046339D01*
X377011168Y-156562276D01*
X377321424Y-157026607D01*
X377716305Y-157421488D01*
X378180636Y-157731744D01*
X378696573Y-157945452D01*
X379244289Y-158054400D01*
X379802735Y-158054400D01*
X380350451Y-157945452D01*
X380866388Y-157731744D01*
X381330719Y-157421488D01*
X381725600Y-157026607D01*
X382035856Y-156562276D01*
X382249564Y-156046339D01*
X382358512Y-155498623D01*
X382358512Y-154940177D01*
X382249564Y-154392461D01*
X382035856Y-153876524D01*
X381725600Y-153412193D01*
X381330719Y-153017312D01*
X380866388Y-152707056D01*
X380350451Y-152493348D01*
X379802735Y-152384400D01*
X379244289Y-152384400D01*
X378696573Y-152493348D01*
X378180636Y-152707056D01*
X377716305Y-153017312D01*
X377321424Y-153412193D01*
X377011168Y-153876524D01*
X376797460Y-154392461D01*
X376688512Y-154940177D01*
X330821788Y-154940177D01*
X330712840Y-154392461D01*
X330499132Y-153876524D01*
X330188876Y-153412193D01*
X329793995Y-153017312D01*
X329329664Y-152707056D01*
X328813727Y-152493348D01*
X328266011Y-152384400D01*
X327707565Y-152384400D01*
X327159849Y-152493348D01*
X326643912Y-152707056D01*
X326179581Y-153017312D01*
X325784700Y-153412193D01*
X325474444Y-153876524D01*
X325260736Y-154392461D01*
X325151788Y-154940177D01*
X37260599Y-154940177D01*
X37260599Y-109423377D01*
X82928100Y-109423377D01*
X82928100Y-109981823D01*
X83037048Y-110529539D01*
X83250756Y-111045476D01*
X83561012Y-111509807D01*
X83955893Y-111904688D01*
X84420224Y-112214944D01*
X84936161Y-112428652D01*
X85483877Y-112537600D01*
X86042323Y-112537600D01*
X86590039Y-112428652D01*
X87105976Y-112214944D01*
X87570307Y-111904688D01*
X87965188Y-111509807D01*
X88275444Y-111045476D01*
X88489152Y-110529539D01*
X88598100Y-109981823D01*
X88598100Y-109423377D01*
X207584351Y-109423377D01*
X207584351Y-109981823D01*
X207693299Y-110529539D01*
X207907007Y-111045476D01*
X208217263Y-111509807D01*
X208612144Y-111904688D01*
X209076475Y-112214944D01*
X209592412Y-112428652D01*
X210140128Y-112537600D01*
X210698574Y-112537600D01*
X211246290Y-112428652D01*
X211762227Y-112214944D01*
X212226558Y-111904688D01*
X212621439Y-111509807D01*
X212931695Y-111045476D01*
X213145403Y-110529539D01*
X213254351Y-109981823D01*
X213254351Y-109423377D01*
X332165600Y-109423377D01*
X332165600Y-109981823D01*
X332274548Y-110529539D01*
X332488256Y-111045476D01*
X332798512Y-111509807D01*
X333193393Y-111904688D01*
X333657724Y-112214944D01*
X334173661Y-112428652D01*
X334721377Y-112537600D01*
X335279823Y-112537600D01*
X335827539Y-112428652D01*
X336343476Y-112214944D01*
X336807807Y-111904688D01*
X337202688Y-111509807D01*
X337512944Y-111045476D01*
X337726652Y-110529539D01*
X337835600Y-109981823D01*
X337835600Y-109423377D01*
X337726652Y-108875661D01*
X337512944Y-108359724D01*
X337202688Y-107895393D01*
X336807807Y-107500512D01*
X336343476Y-107190256D01*
X335827539Y-106976548D01*
X335279823Y-106867600D01*
X334721377Y-106867600D01*
X334173661Y-106976548D01*
X333657724Y-107190256D01*
X333193393Y-107500512D01*
X332798512Y-107895393D01*
X332488256Y-108359724D01*
X332274548Y-108875661D01*
X332165600Y-109423377D01*
X213254351Y-109423377D01*
X213145403Y-108875661D01*
X212931695Y-108359724D01*
X212621439Y-107895393D01*
X212226558Y-107500512D01*
X211762227Y-107190256D01*
X211246290Y-106976548D01*
X210698574Y-106867600D01*
X210140128Y-106867600D01*
X209592412Y-106976548D01*
X209076475Y-107190256D01*
X208612144Y-107500512D01*
X208217263Y-107895393D01*
X207907007Y-108359724D01*
X207693299Y-108875661D01*
X207584351Y-109423377D01*
X88598100Y-109423377D01*
X88489152Y-108875661D01*
X88275444Y-108359724D01*
X87965188Y-107895393D01*
X87570307Y-107500512D01*
X87105976Y-107190256D01*
X86590039Y-106976548D01*
X86042323Y-106867600D01*
X85483877Y-106867600D01*
X84936161Y-106976548D01*
X84420224Y-107190256D01*
X83955893Y-107500512D01*
X83561012Y-107895393D01*
X83250756Y-108359724D01*
X83037048Y-108875661D01*
X82928100Y-109423377D01*
X37260599Y-109423377D01*
X37260599Y-96567345D01*
X59615600Y-96567345D01*
X59615600Y-97539455D01*
X59805250Y-98492886D01*
X60177260Y-99390999D01*
X60717335Y-100199279D01*
X61404721Y-100886665D01*
X62213001Y-101426740D01*
X63111114Y-101798750D01*
X64064545Y-101988400D01*
X65036655Y-101988400D01*
X65990086Y-101798750D01*
X66888199Y-101426740D01*
X67696479Y-100886665D01*
X68383865Y-100199279D01*
X68923940Y-99390999D01*
X69295950Y-98492886D01*
X69485600Y-97539455D01*
X69485600Y-96567345D01*
X351278100Y-96567345D01*
X351278100Y-97539455D01*
X351467750Y-98492886D01*
X351839760Y-99390999D01*
X352379835Y-100199279D01*
X353067221Y-100886665D01*
X353875501Y-101426740D01*
X354773614Y-101798750D01*
X355727045Y-101988400D01*
X356699155Y-101988400D01*
X357652586Y-101798750D01*
X358550699Y-101426740D01*
X359358979Y-100886665D01*
X360046365Y-100199279D01*
X360586440Y-99390999D01*
X360958450Y-98492886D01*
X361148100Y-97539455D01*
X361148100Y-96567345D01*
X360958450Y-95613914D01*
X360586440Y-94715801D01*
X360046365Y-93907521D01*
X359358979Y-93220135D01*
X358550699Y-92680060D01*
X357652586Y-92308050D01*
X356699155Y-92118400D01*
X355727045Y-92118400D01*
X354773614Y-92308050D01*
X353875501Y-92680060D01*
X353067221Y-93220135D01*
X352379835Y-93907521D01*
X351839760Y-94715801D01*
X351467750Y-95613914D01*
X351278100Y-96567345D01*
X69485600Y-96567345D01*
X69295950Y-95613914D01*
X68923940Y-94715801D01*
X68383865Y-93907521D01*
X67696479Y-93220135D01*
X66888199Y-92680060D01*
X65990086Y-92308050D01*
X65036655Y-92118400D01*
X64064545Y-92118400D01*
X63111114Y-92308050D01*
X62213001Y-92680060D01*
X61404721Y-93220135D01*
X60717335Y-93907521D01*
X60177260Y-94715801D01*
X59805250Y-95613914D01*
X59615600Y-96567345D01*
X37260599Y-96567345D01*
X37260600Y-83334177D01*
X37715600Y-83334177D01*
X37715600Y-83892623D01*
X37824548Y-84440339D01*
X38038256Y-84956276D01*
X38348512Y-85420607D01*
X38743393Y-85815488D01*
X39207724Y-86125744D01*
X39723661Y-86339452D01*
X40271377Y-86448400D01*
X40829823Y-86448400D01*
X41377539Y-86339452D01*
X41893476Y-86125744D01*
X42357807Y-85815488D01*
X42752688Y-85420607D01*
X43062944Y-84956276D01*
X43276652Y-84440339D01*
X43385600Y-83892623D01*
X43385600Y-83334177D01*
X131302400Y-83334177D01*
X131302400Y-83892623D01*
X131411348Y-84440339D01*
X131625056Y-84956276D01*
X131935312Y-85420607D01*
X132330193Y-85815488D01*
X132794524Y-86125744D01*
X133310461Y-86339452D01*
X133858177Y-86448400D01*
X134416623Y-86448400D01*
X134964339Y-86339452D01*
X135480276Y-86125744D01*
X135944607Y-85815488D01*
X136339488Y-85420607D01*
X136649744Y-84956276D01*
X136863452Y-84440339D01*
X136972400Y-83892623D01*
X136972400Y-83334177D01*
X283791300Y-83334177D01*
X283791300Y-83892623D01*
X283900248Y-84440339D01*
X284113956Y-84956276D01*
X284424212Y-85420607D01*
X284819093Y-85815488D01*
X285283424Y-86125744D01*
X285799361Y-86339452D01*
X286347077Y-86448400D01*
X286905523Y-86448400D01*
X287453239Y-86339452D01*
X287969176Y-86125744D01*
X288433507Y-85815488D01*
X288828388Y-85420607D01*
X289138644Y-84956276D01*
X289352352Y-84440339D01*
X289461300Y-83892623D01*
X289461300Y-83334177D01*
X377378100Y-83334177D01*
X377378100Y-83892623D01*
X377487048Y-84440339D01*
X377700756Y-84956276D01*
X378011012Y-85420607D01*
X378405893Y-85815488D01*
X378870224Y-86125744D01*
X379386161Y-86339452D01*
X379933877Y-86448400D01*
X380492323Y-86448400D01*
X381040039Y-86339452D01*
X381555976Y-86125744D01*
X382020307Y-85815488D01*
X382415188Y-85420607D01*
X382725444Y-84956276D01*
X382939152Y-84440339D01*
X383048100Y-83892623D01*
X383048100Y-83334177D01*
X382939152Y-82786461D01*
X382725444Y-82270524D01*
X382415188Y-81806193D01*
X382020307Y-81411312D01*
X381555976Y-81101056D01*
X381040039Y-80887348D01*
X380492323Y-80778400D01*
X379933877Y-80778400D01*
X379386161Y-80887348D01*
X378870224Y-81101056D01*
X378405893Y-81411312D01*
X378011012Y-81806193D01*
X377700756Y-82270524D01*
X377487048Y-82786461D01*
X377378100Y-83334177D01*
X289461300Y-83334177D01*
X289352352Y-82786461D01*
X289138644Y-82270524D01*
X288828388Y-81806193D01*
X288433507Y-81411312D01*
X287969176Y-81101056D01*
X287453239Y-80887348D01*
X286905523Y-80778400D01*
X286347077Y-80778400D01*
X285799361Y-80887348D01*
X285283424Y-81101056D01*
X284819093Y-81411312D01*
X284424212Y-81806193D01*
X284113956Y-82270524D01*
X283900248Y-82786461D01*
X283791300Y-83334177D01*
X136972400Y-83334177D01*
X136863452Y-82786461D01*
X136649744Y-82270524D01*
X136339488Y-81806193D01*
X135944607Y-81411312D01*
X135480276Y-81101056D01*
X134964339Y-80887348D01*
X134416623Y-80778400D01*
X133858177Y-80778400D01*
X133310461Y-80887348D01*
X132794524Y-81101056D01*
X132330193Y-81411312D01*
X131935312Y-81806193D01*
X131625056Y-82270524D01*
X131411348Y-82786461D01*
X131302400Y-83334177D01*
X43385600Y-83334177D01*
X43276652Y-82786461D01*
X43062944Y-82270524D01*
X42752688Y-81806193D01*
X42357807Y-81411312D01*
X41893476Y-81101056D01*
X41377539Y-80887348D01*
X40829823Y-80778400D01*
X40271377Y-80778400D01*
X39723661Y-80887348D01*
X39207724Y-81101056D01*
X38743393Y-81411312D01*
X38348512Y-81806193D01*
X38038256Y-82270524D01*
X37824548Y-82786461D01*
X37715600Y-83334177D01*
X37260600Y-83334177D01*
X37260600Y-64584177D01*
X37715600Y-64584177D01*
X37715600Y-65142623D01*
X37824548Y-65690339D01*
X38038256Y-66206276D01*
X38348512Y-66670607D01*
X38743393Y-67065488D01*
X39207724Y-67375744D01*
X39723661Y-67589452D01*
X40271377Y-67698400D01*
X40829823Y-67698400D01*
X41377539Y-67589452D01*
X41893476Y-67375744D01*
X42357807Y-67065488D01*
X42752688Y-66670607D01*
X43062944Y-66206276D01*
X43276652Y-65690339D01*
X43385600Y-65142623D01*
X43385600Y-64584177D01*
X131302400Y-64584177D01*
X131302400Y-65142623D01*
X131411348Y-65690339D01*
X131625056Y-66206276D01*
X131935312Y-66670607D01*
X132330193Y-67065488D01*
X132794524Y-67375744D01*
X133310461Y-67589452D01*
X133858177Y-67698400D01*
X134416623Y-67698400D01*
X134964339Y-67589452D01*
X135480276Y-67375744D01*
X135944607Y-67065488D01*
X136339488Y-66670607D01*
X136649744Y-66206276D01*
X136863452Y-65690339D01*
X136972400Y-65142623D01*
X136972400Y-64584177D01*
X283791300Y-64584177D01*
X283791300Y-65142623D01*
X283900248Y-65690339D01*
X284113956Y-66206276D01*
X284424212Y-66670607D01*
X284819093Y-67065488D01*
X285283424Y-67375744D01*
X285799361Y-67589452D01*
X286347077Y-67698400D01*
X286905523Y-67698400D01*
X287453239Y-67589452D01*
X287969176Y-67375744D01*
X288433507Y-67065488D01*
X288828388Y-66670607D01*
X289138644Y-66206276D01*
X289352352Y-65690339D01*
X289461300Y-65142623D01*
X289461300Y-64584177D01*
X377378100Y-64584177D01*
X377378100Y-65142623D01*
X377487048Y-65690339D01*
X377700756Y-66206276D01*
X378011012Y-66670607D01*
X378405893Y-67065488D01*
X378870224Y-67375744D01*
X379386161Y-67589452D01*
X379933877Y-67698400D01*
X380492323Y-67698400D01*
X381040039Y-67589452D01*
X381555976Y-67375744D01*
X382020307Y-67065488D01*
X382415188Y-66670607D01*
X382725444Y-66206276D01*
X382939152Y-65690339D01*
X383048100Y-65142623D01*
X383048100Y-64584177D01*
X382939152Y-64036461D01*
X382725444Y-63520524D01*
X382415188Y-63056193D01*
X382020307Y-62661312D01*
X381555976Y-62351056D01*
X381040039Y-62137348D01*
X380492323Y-62028400D01*
X379933877Y-62028400D01*
X379386161Y-62137348D01*
X378870224Y-62351056D01*
X378405893Y-62661312D01*
X378011012Y-63056193D01*
X377700756Y-63520524D01*
X377487048Y-64036461D01*
X377378100Y-64584177D01*
X289461300Y-64584177D01*
X289352352Y-64036461D01*
X289138644Y-63520524D01*
X288828388Y-63056193D01*
X288433507Y-62661312D01*
X287969176Y-62351056D01*
X287453239Y-62137348D01*
X286905523Y-62028400D01*
X286347077Y-62028400D01*
X285799361Y-62137348D01*
X285283424Y-62351056D01*
X284819093Y-62661312D01*
X284424212Y-63056193D01*
X284113956Y-63520524D01*
X283900248Y-64036461D01*
X283791300Y-64584177D01*
X136972400Y-64584177D01*
X136863452Y-64036461D01*
X136649744Y-63520524D01*
X136339488Y-63056193D01*
X135944607Y-62661312D01*
X135480276Y-62351056D01*
X134964339Y-62137348D01*
X134416623Y-62028400D01*
X133858177Y-62028400D01*
X133310461Y-62137348D01*
X132794524Y-62351056D01*
X132330193Y-62661312D01*
X131935312Y-63056193D01*
X131625056Y-63520524D01*
X131411348Y-64036461D01*
X131302400Y-64584177D01*
X43385600Y-64584177D01*
X43276652Y-64036461D01*
X43062944Y-63520524D01*
X42752688Y-63056193D01*
X42357807Y-62661312D01*
X41893476Y-62351056D01*
X41377539Y-62137348D01*
X40829823Y-62028400D01*
X40271377Y-62028400D01*
X39723661Y-62137348D01*
X39207724Y-62351056D01*
X38743393Y-62661312D01*
X38348512Y-63056193D01*
X38038256Y-63520524D01*
X37824548Y-64036461D01*
X37715600Y-64584177D01*
X37260600Y-64584177D01*
X37260601Y-64207861D01*
X37312944Y-63668992D01*
X37458812Y-63184268D01*
X37696047Y-62737113D01*
X38015621Y-62344551D01*
X38405355Y-62021538D01*
X38850408Y-61780377D01*
X39333829Y-61630252D01*
X39870067Y-61573400D01*
X380868629Y-61573400D01*
X381407508Y-61625744D01*
M02*
