%FSLAX45Y45*%
G04 Gerber Fmt 4.5, Leading zero omitted, Abs format (unit mm)*
G04 Created by KiCad (PCBNEW 5.99.0+really5.1.10+dfsg1-1) date 2021-11-12 03:05:25*
%MOMM*%
%LPD*%
G01*
G04 APERTURE LIST*
%TA.AperFunction,Profile*%
%ADD10C,0.150000*%
%TD*%
%ADD11C,0.200000*%
%ADD12C,0.300000*%
G04 APERTURE END LIST*
D10*
X3655060Y-20417584D02*
X3655060Y-6417346D01*
X38421310Y-20416984D02*
G75*
G02*
X38090904Y-20747990I-330706J-300D01*
G01*
X38090304Y-6086340D02*
G75*
G02*
X38421310Y-6416746I300J-330706D01*
G01*
X3655060Y-6417346D02*
G75*
G02*
X3985466Y-6086340I330706J300D01*
G01*
X3986066Y-20747990D02*
G75*
G02*
X3655060Y-20417584I-300J330706D01*
G01*
X38421310Y-6416746D02*
X38421310Y-20416984D01*
X38090904Y-20747990D02*
X3986066Y-20747990D01*
X3985466Y-6086340D02*
X38090304Y-6086340D01*
D11*
X3945060Y-6376340D02*
X4165060Y-6596340D01*
X4165060Y-6376340D02*
X3945060Y-6596340D01*
X3945060Y-8251340D02*
X4165060Y-8471340D01*
X4165060Y-8251340D02*
X3945060Y-8471340D01*
X7830180Y-18648740D02*
X8050180Y-18868740D01*
X8050180Y-18648740D02*
X7830180Y-18868740D01*
X8466310Y-10860260D02*
X8686310Y-11080260D01*
X8686310Y-10860260D02*
X8466310Y-11080260D01*
X13303740Y-6376340D02*
X13523740Y-6596340D01*
X13523740Y-6376340D02*
X13303740Y-6596340D01*
X13303740Y-8251340D02*
X13523740Y-8471340D01*
X13523740Y-8251340D02*
X13303740Y-8471340D01*
X20931935Y-10860260D02*
X21151935Y-11080260D01*
X21151935Y-10860260D02*
X20931935Y-11080260D01*
X20931935Y-19661360D02*
X21151935Y-19881360D01*
X21151935Y-19661360D02*
X20931935Y-19881360D01*
X28552630Y-6376340D02*
X28772630Y-6596340D01*
X28772630Y-6376340D02*
X28552630Y-6596340D01*
X28552630Y-8251340D02*
X28772630Y-8471340D01*
X28772630Y-8251340D02*
X28552630Y-8471340D01*
X33390060Y-10860260D02*
X33610060Y-11080260D01*
X33610060Y-10860260D02*
X33390060Y-11080260D01*
X36405604Y-18647284D02*
X36625604Y-18867284D01*
X36625604Y-18647284D02*
X36405604Y-18867284D01*
X37911310Y-6376340D02*
X38131310Y-6596340D01*
X38131310Y-6376340D02*
X37911310Y-6596340D01*
X37911310Y-8251340D02*
X38131310Y-8471340D01*
X38131310Y-8251340D02*
X37911310Y-8471340D01*
X6670060Y-9705340D02*
G75*
G03*
X6670060Y-9705340I-215000J0D01*
G01*
X35836310Y-9705340D02*
G75*
G03*
X35836310Y-9705340I-215000J0D01*
G01*
D12*
X3933988Y-21221204D02*
X3933988Y-20921204D01*
X4005417Y-20921204D01*
X4048274Y-20935490D01*
X4076846Y-20964062D01*
X4091131Y-20992633D01*
X4105417Y-21049776D01*
X4105417Y-21092633D01*
X4091131Y-21149776D01*
X4076846Y-21178347D01*
X4048274Y-21206919D01*
X4005417Y-21221204D01*
X3933988Y-21221204D01*
X4233988Y-21221204D02*
X4233988Y-21021204D01*
X4233988Y-21078347D02*
X4248274Y-21049776D01*
X4262560Y-21035490D01*
X4291131Y-21021204D01*
X4319703Y-21021204D01*
X4419703Y-21221204D02*
X4419703Y-21021204D01*
X4419703Y-20921204D02*
X4405417Y-20935490D01*
X4419703Y-20949776D01*
X4433988Y-20935490D01*
X4419703Y-20921204D01*
X4419703Y-20949776D01*
X4605417Y-21221204D02*
X4576846Y-21206919D01*
X4562560Y-21178347D01*
X4562560Y-20921204D01*
X4762560Y-21221204D02*
X4733988Y-21206919D01*
X4719703Y-21178347D01*
X4719703Y-20921204D01*
X5105417Y-21221204D02*
X5105417Y-20921204D01*
X5205417Y-21135490D01*
X5305417Y-20921204D01*
X5305417Y-21221204D01*
X5576846Y-21221204D02*
X5576846Y-21064062D01*
X5562560Y-21035490D01*
X5533988Y-21021204D01*
X5476846Y-21021204D01*
X5448274Y-21035490D01*
X5576846Y-21206919D02*
X5548274Y-21221204D01*
X5476846Y-21221204D01*
X5448274Y-21206919D01*
X5433988Y-21178347D01*
X5433988Y-21149776D01*
X5448274Y-21121204D01*
X5476846Y-21106919D01*
X5548274Y-21106919D01*
X5576846Y-21092633D01*
X5719703Y-21021204D02*
X5719703Y-21321204D01*
X5719703Y-21035490D02*
X5748274Y-21021204D01*
X5805417Y-21021204D01*
X5833988Y-21035490D01*
X5848274Y-21049776D01*
X5862560Y-21078347D01*
X5862560Y-21164062D01*
X5848274Y-21192633D01*
X5833988Y-21206919D01*
X5805417Y-21221204D01*
X5748274Y-21221204D01*
X5719703Y-21206919D01*
X5991131Y-21192633D02*
X6005417Y-21206919D01*
X5991131Y-21221204D01*
X5976846Y-21206919D01*
X5991131Y-21192633D01*
X5991131Y-21221204D01*
X5991131Y-21035490D02*
X6005417Y-21049776D01*
X5991131Y-21064062D01*
X5976846Y-21049776D01*
X5991131Y-21035490D01*
X5991131Y-21064062D01*
X3427560Y-21605490D02*
X3647560Y-21825490D01*
X3647560Y-21605490D02*
X3427560Y-21825490D01*
X3919703Y-21579776D02*
X3933988Y-21565490D01*
X3962560Y-21551204D01*
X4033988Y-21551204D01*
X4062560Y-21565490D01*
X4076846Y-21579776D01*
X4091131Y-21608347D01*
X4091131Y-21636919D01*
X4076846Y-21679776D01*
X3905417Y-21851204D01*
X4091131Y-21851204D01*
X4219703Y-21822633D02*
X4233988Y-21836919D01*
X4219703Y-21851204D01*
X4205417Y-21836919D01*
X4219703Y-21822633D01*
X4219703Y-21851204D01*
X4348274Y-21579776D02*
X4362560Y-21565490D01*
X4391131Y-21551204D01*
X4462560Y-21551204D01*
X4491131Y-21565490D01*
X4505417Y-21579776D01*
X4519703Y-21608347D01*
X4519703Y-21636919D01*
X4505417Y-21679776D01*
X4333988Y-21851204D01*
X4519703Y-21851204D01*
X4705417Y-21551204D02*
X4733988Y-21551204D01*
X4762560Y-21565490D01*
X4776846Y-21579776D01*
X4791131Y-21608347D01*
X4805417Y-21665490D01*
X4805417Y-21736919D01*
X4791131Y-21794062D01*
X4776846Y-21822633D01*
X4762560Y-21836919D01*
X4733988Y-21851204D01*
X4705417Y-21851204D01*
X4676846Y-21836919D01*
X4662560Y-21822633D01*
X4648274Y-21794062D01*
X4633988Y-21736919D01*
X4633988Y-21665490D01*
X4648274Y-21608347D01*
X4662560Y-21579776D01*
X4676846Y-21565490D01*
X4705417Y-21551204D01*
X4991131Y-21551204D02*
X5019703Y-21551204D01*
X5048274Y-21565490D01*
X5062560Y-21579776D01*
X5076846Y-21608347D01*
X5091131Y-21665490D01*
X5091131Y-21736919D01*
X5076846Y-21794062D01*
X5062560Y-21822633D01*
X5048274Y-21836919D01*
X5019703Y-21851204D01*
X4991131Y-21851204D01*
X4962560Y-21836919D01*
X4948274Y-21822633D01*
X4933988Y-21794062D01*
X4919703Y-21736919D01*
X4919703Y-21665490D01*
X4933988Y-21608347D01*
X4948274Y-21579776D01*
X4962560Y-21565490D01*
X4991131Y-21551204D01*
X5219703Y-21851204D02*
X5219703Y-21651204D01*
X5219703Y-21679776D02*
X5233988Y-21665490D01*
X5262560Y-21651204D01*
X5305417Y-21651204D01*
X5333988Y-21665490D01*
X5348274Y-21694062D01*
X5348274Y-21851204D01*
X5348274Y-21694062D02*
X5362560Y-21665490D01*
X5391131Y-21651204D01*
X5433988Y-21651204D01*
X5462560Y-21665490D01*
X5476846Y-21694062D01*
X5476846Y-21851204D01*
X5619703Y-21851204D02*
X5619703Y-21651204D01*
X5619703Y-21679776D02*
X5633988Y-21665490D01*
X5662560Y-21651204D01*
X5705417Y-21651204D01*
X5733988Y-21665490D01*
X5748274Y-21694062D01*
X5748274Y-21851204D01*
X5748274Y-21694062D02*
X5762560Y-21665490D01*
X5791131Y-21651204D01*
X5833988Y-21651204D01*
X5862560Y-21665490D01*
X5876846Y-21694062D01*
X5876846Y-21851204D01*
X6462560Y-21536919D02*
X6205417Y-21922633D01*
X6848274Y-21551204D02*
X6876846Y-21551204D01*
X6905417Y-21565490D01*
X6919703Y-21579776D01*
X6933988Y-21608347D01*
X6948274Y-21665490D01*
X6948274Y-21736919D01*
X6933988Y-21794062D01*
X6919703Y-21822633D01*
X6905417Y-21836919D01*
X6876846Y-21851204D01*
X6848274Y-21851204D01*
X6819703Y-21836919D01*
X6805417Y-21822633D01*
X6791131Y-21794062D01*
X6776846Y-21736919D01*
X6776846Y-21665490D01*
X6791131Y-21608347D01*
X6805417Y-21579776D01*
X6819703Y-21565490D01*
X6848274Y-21551204D01*
X7076846Y-21822633D02*
X7091131Y-21836919D01*
X7076846Y-21851204D01*
X7062560Y-21836919D01*
X7076846Y-21822633D01*
X7076846Y-21851204D01*
X7276846Y-21551204D02*
X7305417Y-21551204D01*
X7333988Y-21565490D01*
X7348274Y-21579776D01*
X7362560Y-21608347D01*
X7376846Y-21665490D01*
X7376846Y-21736919D01*
X7362560Y-21794062D01*
X7348274Y-21822633D01*
X7333988Y-21836919D01*
X7305417Y-21851204D01*
X7276846Y-21851204D01*
X7248274Y-21836919D01*
X7233988Y-21822633D01*
X7219703Y-21794062D01*
X7205417Y-21736919D01*
X7205417Y-21665490D01*
X7219703Y-21608347D01*
X7233988Y-21579776D01*
X7248274Y-21565490D01*
X7276846Y-21551204D01*
X7548274Y-21679776D02*
X7519703Y-21665490D01*
X7505417Y-21651204D01*
X7491131Y-21622633D01*
X7491131Y-21608347D01*
X7505417Y-21579776D01*
X7519703Y-21565490D01*
X7548274Y-21551204D01*
X7605417Y-21551204D01*
X7633988Y-21565490D01*
X7648274Y-21579776D01*
X7662560Y-21608347D01*
X7662560Y-21622633D01*
X7648274Y-21651204D01*
X7633988Y-21665490D01*
X7605417Y-21679776D01*
X7548274Y-21679776D01*
X7519703Y-21694062D01*
X7505417Y-21708347D01*
X7491131Y-21736919D01*
X7491131Y-21794062D01*
X7505417Y-21822633D01*
X7519703Y-21836919D01*
X7548274Y-21851204D01*
X7605417Y-21851204D01*
X7633988Y-21836919D01*
X7648274Y-21822633D01*
X7662560Y-21794062D01*
X7662560Y-21736919D01*
X7648274Y-21708347D01*
X7633988Y-21694062D01*
X7605417Y-21679776D01*
X7919703Y-21551204D02*
X7862560Y-21551204D01*
X7833988Y-21565490D01*
X7819703Y-21579776D01*
X7791131Y-21622633D01*
X7776846Y-21679776D01*
X7776846Y-21794062D01*
X7791131Y-21822633D01*
X7805417Y-21836919D01*
X7833988Y-21851204D01*
X7891131Y-21851204D01*
X7919703Y-21836919D01*
X7933988Y-21822633D01*
X7948274Y-21794062D01*
X7948274Y-21722633D01*
X7933988Y-21694062D01*
X7919703Y-21679776D01*
X7891131Y-21665490D01*
X7833988Y-21665490D01*
X7805417Y-21679776D01*
X7791131Y-21694062D01*
X7776846Y-21722633D01*
X8205417Y-21551204D02*
X8148274Y-21551204D01*
X8119703Y-21565490D01*
X8105417Y-21579776D01*
X8076846Y-21622633D01*
X8062560Y-21679776D01*
X8062560Y-21794062D01*
X8076846Y-21822633D01*
X8091131Y-21836919D01*
X8119703Y-21851204D01*
X8176846Y-21851204D01*
X8205417Y-21836919D01*
X8219703Y-21822633D01*
X8233988Y-21794062D01*
X8233988Y-21722633D01*
X8219703Y-21694062D01*
X8205417Y-21679776D01*
X8176846Y-21665490D01*
X8119703Y-21665490D01*
X8091131Y-21679776D01*
X8076846Y-21694062D01*
X8062560Y-21722633D01*
X8348274Y-21551204D02*
X8348274Y-21608347D01*
X8462560Y-21551204D02*
X8462560Y-21608347D01*
X8905417Y-21965490D02*
X8891131Y-21951204D01*
X8862560Y-21908347D01*
X8848274Y-21879776D01*
X8833988Y-21836919D01*
X8819703Y-21765490D01*
X8819703Y-21708347D01*
X8833988Y-21636919D01*
X8848274Y-21594062D01*
X8862560Y-21565490D01*
X8891131Y-21522633D01*
X8905417Y-21508347D01*
X9176846Y-21851204D02*
X9005417Y-21851204D01*
X9091131Y-21851204D02*
X9091131Y-21551204D01*
X9062560Y-21594062D01*
X9033988Y-21622633D01*
X9005417Y-21636919D01*
X9433988Y-21651204D02*
X9433988Y-21851204D01*
X9362560Y-21536919D02*
X9291131Y-21751204D01*
X9476846Y-21751204D01*
X9819703Y-21851204D02*
X9819703Y-21551204D01*
X9948274Y-21851204D02*
X9948274Y-21694062D01*
X9933988Y-21665490D01*
X9905417Y-21651204D01*
X9862560Y-21651204D01*
X9833988Y-21665490D01*
X9819703Y-21679776D01*
X10133988Y-21851204D02*
X10105417Y-21836919D01*
X10091131Y-21822633D01*
X10076846Y-21794062D01*
X10076846Y-21708347D01*
X10091131Y-21679776D01*
X10105417Y-21665490D01*
X10133988Y-21651204D01*
X10176846Y-21651204D01*
X10205417Y-21665490D01*
X10219703Y-21679776D01*
X10233988Y-21708347D01*
X10233988Y-21794062D01*
X10219703Y-21822633D01*
X10205417Y-21836919D01*
X10176846Y-21851204D01*
X10133988Y-21851204D01*
X10405417Y-21851204D02*
X10376846Y-21836919D01*
X10362560Y-21808347D01*
X10362560Y-21551204D01*
X10633988Y-21836919D02*
X10605417Y-21851204D01*
X10548274Y-21851204D01*
X10519703Y-21836919D01*
X10505417Y-21808347D01*
X10505417Y-21694062D01*
X10519703Y-21665490D01*
X10548274Y-21651204D01*
X10605417Y-21651204D01*
X10633988Y-21665490D01*
X10648274Y-21694062D01*
X10648274Y-21722633D01*
X10505417Y-21751204D01*
X10762560Y-21836919D02*
X10791131Y-21851204D01*
X10848274Y-21851204D01*
X10876846Y-21836919D01*
X10891131Y-21808347D01*
X10891131Y-21794062D01*
X10876846Y-21765490D01*
X10848274Y-21751204D01*
X10805417Y-21751204D01*
X10776846Y-21736919D01*
X10762560Y-21708347D01*
X10762560Y-21694062D01*
X10776846Y-21665490D01*
X10805417Y-21651204D01*
X10848274Y-21651204D01*
X10876846Y-21665490D01*
X10991131Y-21965490D02*
X11005417Y-21951204D01*
X11033988Y-21908347D01*
X11048274Y-21879776D01*
X11062560Y-21836919D01*
X11076846Y-21765490D01*
X11076846Y-21708347D01*
X11062560Y-21636919D01*
X11048274Y-21594062D01*
X11033988Y-21565490D01*
X11005417Y-21522633D01*
X10991131Y-21508347D01*
X3647560Y-22111490D02*
G75*
G03*
X3647560Y-22111490I-215000J0D01*
G01*
X4062560Y-22047204D02*
X4062560Y-22247204D01*
X3991131Y-21932919D02*
X3919703Y-22147204D01*
X4105417Y-22147204D01*
X4219703Y-22218633D02*
X4233988Y-22232919D01*
X4219703Y-22247204D01*
X4205417Y-22232919D01*
X4219703Y-22218633D01*
X4219703Y-22247204D01*
X4333988Y-21947204D02*
X4519703Y-21947204D01*
X4419703Y-22061490D01*
X4462560Y-22061490D01*
X4491131Y-22075776D01*
X4505417Y-22090062D01*
X4519703Y-22118633D01*
X4519703Y-22190062D01*
X4505417Y-22218633D01*
X4491131Y-22232919D01*
X4462560Y-22247204D01*
X4376846Y-22247204D01*
X4348274Y-22232919D01*
X4333988Y-22218633D01*
X4705417Y-21947204D02*
X4733988Y-21947204D01*
X4762560Y-21961490D01*
X4776846Y-21975776D01*
X4791131Y-22004347D01*
X4805417Y-22061490D01*
X4805417Y-22132919D01*
X4791131Y-22190062D01*
X4776846Y-22218633D01*
X4762560Y-22232919D01*
X4733988Y-22247204D01*
X4705417Y-22247204D01*
X4676846Y-22232919D01*
X4662560Y-22218633D01*
X4648274Y-22190062D01*
X4633988Y-22132919D01*
X4633988Y-22061490D01*
X4648274Y-22004347D01*
X4662560Y-21975776D01*
X4676846Y-21961490D01*
X4705417Y-21947204D01*
X4991131Y-21947204D02*
X5019703Y-21947204D01*
X5048274Y-21961490D01*
X5062560Y-21975776D01*
X5076846Y-22004347D01*
X5091131Y-22061490D01*
X5091131Y-22132919D01*
X5076846Y-22190062D01*
X5062560Y-22218633D01*
X5048274Y-22232919D01*
X5019703Y-22247204D01*
X4991131Y-22247204D01*
X4962560Y-22232919D01*
X4948274Y-22218633D01*
X4933988Y-22190062D01*
X4919703Y-22132919D01*
X4919703Y-22061490D01*
X4933988Y-22004347D01*
X4948274Y-21975776D01*
X4962560Y-21961490D01*
X4991131Y-21947204D01*
X5219703Y-22247204D02*
X5219703Y-22047204D01*
X5219703Y-22075776D02*
X5233988Y-22061490D01*
X5262560Y-22047204D01*
X5305417Y-22047204D01*
X5333988Y-22061490D01*
X5348274Y-22090062D01*
X5348274Y-22247204D01*
X5348274Y-22090062D02*
X5362560Y-22061490D01*
X5391131Y-22047204D01*
X5433988Y-22047204D01*
X5462560Y-22061490D01*
X5476846Y-22090062D01*
X5476846Y-22247204D01*
X5619703Y-22247204D02*
X5619703Y-22047204D01*
X5619703Y-22075776D02*
X5633988Y-22061490D01*
X5662560Y-22047204D01*
X5705417Y-22047204D01*
X5733988Y-22061490D01*
X5748274Y-22090062D01*
X5748274Y-22247204D01*
X5748274Y-22090062D02*
X5762560Y-22061490D01*
X5791131Y-22047204D01*
X5833988Y-22047204D01*
X5862560Y-22061490D01*
X5876846Y-22090062D01*
X5876846Y-22247204D01*
X6462560Y-21932919D02*
X6205417Y-22318633D01*
X6848274Y-21947204D02*
X6876846Y-21947204D01*
X6905417Y-21961490D01*
X6919703Y-21975776D01*
X6933988Y-22004347D01*
X6948274Y-22061490D01*
X6948274Y-22132919D01*
X6933988Y-22190062D01*
X6919703Y-22218633D01*
X6905417Y-22232919D01*
X6876846Y-22247204D01*
X6848274Y-22247204D01*
X6819703Y-22232919D01*
X6805417Y-22218633D01*
X6791131Y-22190062D01*
X6776846Y-22132919D01*
X6776846Y-22061490D01*
X6791131Y-22004347D01*
X6805417Y-21975776D01*
X6819703Y-21961490D01*
X6848274Y-21947204D01*
X7076846Y-22218633D02*
X7091131Y-22232919D01*
X7076846Y-22247204D01*
X7062560Y-22232919D01*
X7076846Y-22218633D01*
X7076846Y-22247204D01*
X7376846Y-22247204D02*
X7205417Y-22247204D01*
X7291131Y-22247204D02*
X7291131Y-21947204D01*
X7262560Y-21990062D01*
X7233988Y-22018633D01*
X7205417Y-22032919D01*
X7633988Y-21947204D02*
X7576846Y-21947204D01*
X7548274Y-21961490D01*
X7533988Y-21975776D01*
X7505417Y-22018633D01*
X7491131Y-22075776D01*
X7491131Y-22190062D01*
X7505417Y-22218633D01*
X7519703Y-22232919D01*
X7548274Y-22247204D01*
X7605417Y-22247204D01*
X7633988Y-22232919D01*
X7648274Y-22218633D01*
X7662560Y-22190062D01*
X7662560Y-22118633D01*
X7648274Y-22090062D01*
X7633988Y-22075776D01*
X7605417Y-22061490D01*
X7548274Y-22061490D01*
X7519703Y-22075776D01*
X7505417Y-22090062D01*
X7491131Y-22118633D01*
X7805417Y-22247204D02*
X7862560Y-22247204D01*
X7891131Y-22232919D01*
X7905417Y-22218633D01*
X7933988Y-22175776D01*
X7948274Y-22118633D01*
X7948274Y-22004347D01*
X7933988Y-21975776D01*
X7919703Y-21961490D01*
X7891131Y-21947204D01*
X7833988Y-21947204D01*
X7805417Y-21961490D01*
X7791131Y-21975776D01*
X7776846Y-22004347D01*
X7776846Y-22075776D01*
X7791131Y-22104347D01*
X7805417Y-22118633D01*
X7833988Y-22132919D01*
X7891131Y-22132919D01*
X7919703Y-22118633D01*
X7933988Y-22104347D01*
X7948274Y-22075776D01*
X8048274Y-21947204D02*
X8233988Y-21947204D01*
X8133988Y-22061490D01*
X8176846Y-22061490D01*
X8205417Y-22075776D01*
X8219703Y-22090062D01*
X8233988Y-22118633D01*
X8233988Y-22190062D01*
X8219703Y-22218633D01*
X8205417Y-22232919D01*
X8176846Y-22247204D01*
X8091131Y-22247204D01*
X8062560Y-22232919D01*
X8048274Y-22218633D01*
X8348274Y-21947204D02*
X8348274Y-22004347D01*
X8462560Y-21947204D02*
X8462560Y-22004347D01*
X8905417Y-22361490D02*
X8891131Y-22347204D01*
X8862560Y-22304347D01*
X8848274Y-22275776D01*
X8833988Y-22232919D01*
X8819703Y-22161490D01*
X8819703Y-22104347D01*
X8833988Y-22032919D01*
X8848274Y-21990062D01*
X8862560Y-21961490D01*
X8891131Y-21918633D01*
X8905417Y-21904347D01*
X9005417Y-21975776D02*
X9019703Y-21961490D01*
X9048274Y-21947204D01*
X9119703Y-21947204D01*
X9148274Y-21961490D01*
X9162560Y-21975776D01*
X9176846Y-22004347D01*
X9176846Y-22032919D01*
X9162560Y-22075776D01*
X8991131Y-22247204D01*
X9176846Y-22247204D01*
X9533988Y-22247204D02*
X9533988Y-21947204D01*
X9662560Y-22247204D02*
X9662560Y-22090062D01*
X9648274Y-22061490D01*
X9619703Y-22047204D01*
X9576846Y-22047204D01*
X9548274Y-22061490D01*
X9533988Y-22075776D01*
X9848274Y-22247204D02*
X9819703Y-22232919D01*
X9805417Y-22218633D01*
X9791131Y-22190062D01*
X9791131Y-22104347D01*
X9805417Y-22075776D01*
X9819703Y-22061490D01*
X9848274Y-22047204D01*
X9891131Y-22047204D01*
X9919703Y-22061490D01*
X9933988Y-22075776D01*
X9948274Y-22104347D01*
X9948274Y-22190062D01*
X9933988Y-22218633D01*
X9919703Y-22232919D01*
X9891131Y-22247204D01*
X9848274Y-22247204D01*
X10119703Y-22247204D02*
X10091131Y-22232919D01*
X10076846Y-22204347D01*
X10076846Y-21947204D01*
X10348274Y-22232919D02*
X10319703Y-22247204D01*
X10262560Y-22247204D01*
X10233988Y-22232919D01*
X10219703Y-22204347D01*
X10219703Y-22090062D01*
X10233988Y-22061490D01*
X10262560Y-22047204D01*
X10319703Y-22047204D01*
X10348274Y-22061490D01*
X10362560Y-22090062D01*
X10362560Y-22118633D01*
X10219703Y-22147204D01*
X10476846Y-22232919D02*
X10505417Y-22247204D01*
X10562560Y-22247204D01*
X10591131Y-22232919D01*
X10605417Y-22204347D01*
X10605417Y-22190062D01*
X10591131Y-22161490D01*
X10562560Y-22147204D01*
X10519703Y-22147204D01*
X10491131Y-22132919D01*
X10476846Y-22104347D01*
X10476846Y-22090062D01*
X10491131Y-22061490D01*
X10519703Y-22047204D01*
X10562560Y-22047204D01*
X10591131Y-22061490D01*
X10705417Y-22361490D02*
X10719703Y-22347204D01*
X10748274Y-22304347D01*
X10762560Y-22275776D01*
X10776846Y-22232919D01*
X10791131Y-22161490D01*
X10791131Y-22104347D01*
X10776846Y-22032919D01*
X10762560Y-21990062D01*
X10748274Y-21961490D01*
X10719703Y-21918633D01*
X10705417Y-21904347D01*
M02*
