%TF.GenerationSoftware,KiCad,Pcbnew,5.1.7-a382d34a8~88~ubuntu20.04.1*%
%TF.CreationDate,2021-03-29T02:56:27+02:00*%
%TF.ProjectId,mysterium-bottom,6d797374-6572-4697-956d-2d626f74746f,rev?*%
%TF.SameCoordinates,Original*%
%TF.FileFunction,Soldermask,Bot*%
%TF.FilePolarity,Negative*%
%FSLAX46Y46*%
G04 Gerber Fmt 4.6, Leading zero omitted, Abs format (unit mm)*
G04 Created by KiCad (PCBNEW 5.1.7-a382d34a8~88~ubuntu20.04.1) date 2021-03-29 02:56:27*
%MOMM*%
%LPD*%
G01*
G04 APERTURE LIST*
%ADD10C,0.200000*%
%TA.AperFunction,Profile*%
%ADD11C,0.150000*%
%TD*%
%ADD12C,0.010000*%
%ADD13C,8.702000*%
%ADD14C,4.502000*%
G04 APERTURE END LIST*
D10*
X119833114Y-155494704D02*
X119975971Y-155613752D01*
X120261685Y-155613752D01*
X120404542Y-155494704D01*
X120475971Y-155375657D01*
X120547400Y-155137561D01*
X120547400Y-154423276D01*
X120475971Y-154185180D01*
X120404542Y-154066133D01*
X120261685Y-153947085D01*
X119975971Y-153947085D01*
X119833114Y-154066133D01*
X118975971Y-155613752D02*
X119118828Y-155494704D01*
X119190257Y-155375657D01*
X119261685Y-155137561D01*
X119261685Y-154423276D01*
X119190257Y-154185180D01*
X119118828Y-154066133D01*
X118975971Y-153947085D01*
X118761685Y-153947085D01*
X118618828Y-154066133D01*
X118547400Y-154185180D01*
X118475971Y-154423276D01*
X118475971Y-155137561D01*
X118547400Y-155375657D01*
X118618828Y-155494704D01*
X118761685Y-155613752D01*
X118975971Y-155613752D01*
X117904542Y-155494704D02*
X117761685Y-155613752D01*
X117475971Y-155613752D01*
X117333114Y-155494704D01*
X117261685Y-155256609D01*
X117261685Y-155137561D01*
X117333114Y-154899466D01*
X117475971Y-154780419D01*
X117690257Y-154780419D01*
X117833114Y-154661371D01*
X117904542Y-154423276D01*
X117904542Y-154304228D01*
X117833114Y-154066133D01*
X117690257Y-153947085D01*
X117475971Y-153947085D01*
X117333114Y-154066133D01*
X116047400Y-155494704D02*
X116190257Y-155613752D01*
X116475971Y-155613752D01*
X116618828Y-155494704D01*
X116690257Y-155256609D01*
X116690257Y-154304228D01*
X116618828Y-154066133D01*
X116475971Y-153947085D01*
X116190257Y-153947085D01*
X116047400Y-154066133D01*
X115975971Y-154304228D01*
X115975971Y-154542323D01*
X116690257Y-154780419D01*
X115475971Y-153947085D02*
X115118828Y-155613752D01*
X114761685Y-153947085D02*
X115118828Y-155613752D01*
X115261685Y-156208990D01*
X115333114Y-156328038D01*
X115475971Y-156447085D01*
X114404542Y-153947085D02*
X113833114Y-153947085D01*
X114190257Y-155613752D02*
X114190257Y-153470895D01*
X114118828Y-153232800D01*
X113975971Y-153113752D01*
X113833114Y-153113752D01*
X112690257Y-155613752D02*
X112690257Y-154304228D01*
X112761685Y-154066133D01*
X112904542Y-153947085D01*
X113190257Y-153947085D01*
X113333114Y-154066133D01*
X112690257Y-155494704D02*
X112833114Y-155613752D01*
X113190257Y-155613752D01*
X113333114Y-155494704D01*
X113404542Y-155256609D01*
X113404542Y-155018514D01*
X113333114Y-154780419D01*
X113190257Y-154661371D01*
X112833114Y-154661371D01*
X112690257Y-154542323D01*
X111975971Y-153947085D02*
X111975971Y-155613752D01*
X111975971Y-154185180D02*
X111904542Y-154066133D01*
X111761685Y-153947085D01*
X111547400Y-153947085D01*
X111404542Y-154066133D01*
X111333114Y-154304228D01*
X111333114Y-155613752D01*
X110618828Y-153947085D02*
X110618828Y-155613752D01*
X110618828Y-154185180D02*
X110547400Y-154066133D01*
X110404542Y-153947085D01*
X110190257Y-153947085D01*
X110047400Y-154066133D01*
X109975971Y-154304228D01*
X109975971Y-155613752D01*
X109261685Y-155613752D02*
X109261685Y-153947085D01*
X109261685Y-153113752D02*
X109333114Y-153232800D01*
X109261685Y-153351847D01*
X109190257Y-153232800D01*
X109261685Y-153113752D01*
X109261685Y-153351847D01*
X108761685Y-153947085D02*
X108190257Y-153947085D01*
X108547400Y-153113752D02*
X108547400Y-155256609D01*
X108475971Y-155494704D01*
X108333114Y-155613752D01*
X108190257Y-155613752D01*
X107047400Y-153947085D02*
X107047400Y-155613752D01*
X107690257Y-153947085D02*
X107690257Y-155256609D01*
X107618828Y-155494704D01*
X107475971Y-155613752D01*
X107261685Y-155613752D01*
X107118828Y-155494704D01*
X107047400Y-155375657D01*
X106547400Y-153947085D02*
X105975971Y-153947085D01*
X106333114Y-153113752D02*
X106333114Y-155256609D01*
X106261685Y-155494704D01*
X106118828Y-155613752D01*
X105975971Y-155613752D01*
X105690257Y-153947085D02*
X105118828Y-153947085D01*
X105475971Y-153113752D02*
X105475971Y-155256609D01*
X105404542Y-155494704D01*
X105261685Y-155613752D01*
X105118828Y-155613752D01*
X104618828Y-155613752D02*
X104618828Y-153947085D01*
X104618828Y-153113752D02*
X104690257Y-153232800D01*
X104618828Y-153351847D01*
X104547400Y-153232800D01*
X104618828Y-153113752D01*
X104618828Y-153351847D01*
D11*
X384213099Y-204169841D02*
G75*
G02*
X380909040Y-207479900I-3307059J-3000D01*
G01*
X380903041Y-60863401D02*
G75*
G02*
X384213100Y-64167460I3000J-3307059D01*
G01*
X36550601Y-64173459D02*
G75*
G02*
X39854660Y-60863400I3307059J3000D01*
G01*
X39860659Y-207479899D02*
G75*
G02*
X36550600Y-204175840I-3000J3307059D01*
G01*
X384213100Y-64167460D02*
X384213099Y-204169841D01*
X380909040Y-207479900D02*
X39860659Y-207479899D01*
X39854660Y-60863400D02*
X380903041Y-60863400D01*
D12*
G36*
X122749734Y-155928577D02*
G01*
X123319117Y-155926400D01*
X123888500Y-155924224D01*
X123888500Y-155517824D01*
X122749734Y-155513472D01*
X122749734Y-154853191D01*
X123469401Y-154853191D01*
X123469401Y-154421391D01*
X122749734Y-154421391D01*
X122749734Y-153744177D01*
X123319117Y-153742000D01*
X123888500Y-153739824D01*
X123890763Y-153526041D01*
X123893025Y-153312258D01*
X122749734Y-153312258D01*
X122749734Y-152694191D01*
X122309467Y-152694191D01*
X122309467Y-153312258D01*
X121174934Y-153312258D01*
X121174934Y-153744057D01*
X122309467Y-153744057D01*
X122309467Y-154421391D01*
X121598267Y-154421391D01*
X121598267Y-154853191D01*
X122309467Y-154853191D01*
X122309467Y-155513591D01*
X121174934Y-155513591D01*
X121174934Y-155928457D01*
X122309248Y-155928457D01*
X122313700Y-156516891D01*
X122531717Y-156519150D01*
X122749734Y-156521410D01*
X122749734Y-155928577D01*
G37*
X122749734Y-155928577D02*
X123319117Y-155926400D01*
X123888500Y-155924224D01*
X123888500Y-155517824D01*
X122749734Y-155513472D01*
X122749734Y-154853191D01*
X123469401Y-154853191D01*
X123469401Y-154421391D01*
X122749734Y-154421391D01*
X122749734Y-153744177D01*
X123319117Y-153742000D01*
X123888500Y-153739824D01*
X123890763Y-153526041D01*
X123893025Y-153312258D01*
X122749734Y-153312258D01*
X122749734Y-152694191D01*
X122309467Y-152694191D01*
X122309467Y-153312258D01*
X121174934Y-153312258D01*
X121174934Y-153744057D01*
X122309467Y-153744057D01*
X122309467Y-154421391D01*
X121598267Y-154421391D01*
X121598267Y-154853191D01*
X122309467Y-154853191D01*
X122309467Y-155513591D01*
X121174934Y-155513591D01*
X121174934Y-155928457D01*
X122309248Y-155928457D01*
X122313700Y-156516891D01*
X122531717Y-156519150D01*
X122749734Y-156521410D01*
X122749734Y-155928577D01*
D10*
X119833114Y-155494704D02*
X119975971Y-155613752D01*
X120261685Y-155613752D01*
X120404542Y-155494704D01*
X120475971Y-155375657D01*
X120547400Y-155137561D01*
X120547400Y-154423276D01*
X120475971Y-154185180D01*
X120404542Y-154066133D01*
X120261685Y-153947085D01*
X119975971Y-153947085D01*
X119833114Y-154066133D01*
X118975971Y-155613752D02*
X119118828Y-155494704D01*
X119190257Y-155375657D01*
X119261685Y-155137561D01*
X119261685Y-154423276D01*
X119190257Y-154185180D01*
X119118828Y-154066133D01*
X118975971Y-153947085D01*
X118761685Y-153947085D01*
X118618828Y-154066133D01*
X118547400Y-154185180D01*
X118475971Y-154423276D01*
X118475971Y-155137561D01*
X118547400Y-155375657D01*
X118618828Y-155494704D01*
X118761685Y-155613752D01*
X118975971Y-155613752D01*
X117904542Y-155494704D02*
X117761685Y-155613752D01*
X117475971Y-155613752D01*
X117333114Y-155494704D01*
X117261685Y-155256609D01*
X117261685Y-155137561D01*
X117333114Y-154899466D01*
X117475971Y-154780419D01*
X117690257Y-154780419D01*
X117833114Y-154661371D01*
X117904542Y-154423276D01*
X117904542Y-154304228D01*
X117833114Y-154066133D01*
X117690257Y-153947085D01*
X117475971Y-153947085D01*
X117333114Y-154066133D01*
X116047400Y-155494704D02*
X116190257Y-155613752D01*
X116475971Y-155613752D01*
X116618828Y-155494704D01*
X116690257Y-155256609D01*
X116690257Y-154304228D01*
X116618828Y-154066133D01*
X116475971Y-153947085D01*
X116190257Y-153947085D01*
X116047400Y-154066133D01*
X115975971Y-154304228D01*
X115975971Y-154542323D01*
X116690257Y-154780419D01*
X115475971Y-153947085D02*
X115118828Y-155613752D01*
X114761685Y-153947085D02*
X115118828Y-155613752D01*
X115261685Y-156208990D01*
X115333114Y-156328038D01*
X115475971Y-156447085D01*
X114404542Y-153947085D02*
X113833114Y-153947085D01*
X114190257Y-155613752D02*
X114190257Y-153470895D01*
X114118828Y-153232800D01*
X113975971Y-153113752D01*
X113833114Y-153113752D01*
X112690257Y-155613752D02*
X112690257Y-154304228D01*
X112761685Y-154066133D01*
X112904542Y-153947085D01*
X113190257Y-153947085D01*
X113333114Y-154066133D01*
X112690257Y-155494704D02*
X112833114Y-155613752D01*
X113190257Y-155613752D01*
X113333114Y-155494704D01*
X113404542Y-155256609D01*
X113404542Y-155018514D01*
X113333114Y-154780419D01*
X113190257Y-154661371D01*
X112833114Y-154661371D01*
X112690257Y-154542323D01*
X111975971Y-153947085D02*
X111975971Y-155613752D01*
X111975971Y-154185180D02*
X111904542Y-154066133D01*
X111761685Y-153947085D01*
X111547400Y-153947085D01*
X111404542Y-154066133D01*
X111333114Y-154304228D01*
X111333114Y-155613752D01*
X110618828Y-153947085D02*
X110618828Y-155613752D01*
X110618828Y-154185180D02*
X110547400Y-154066133D01*
X110404542Y-153947085D01*
X110190257Y-153947085D01*
X110047400Y-154066133D01*
X109975971Y-154304228D01*
X109975971Y-155613752D01*
X109261685Y-155613752D02*
X109261685Y-153947085D01*
X109261685Y-153113752D02*
X109333114Y-153232800D01*
X109261685Y-153351847D01*
X109190257Y-153232800D01*
X109261685Y-153113752D01*
X109261685Y-153351847D01*
X108761685Y-153947085D02*
X108190257Y-153947085D01*
X108547400Y-153113752D02*
X108547400Y-155256609D01*
X108475971Y-155494704D01*
X108333114Y-155613752D01*
X108190257Y-155613752D01*
X107047400Y-153947085D02*
X107047400Y-155613752D01*
X107690257Y-153947085D02*
X107690257Y-155256609D01*
X107618828Y-155494704D01*
X107475971Y-155613752D01*
X107261685Y-155613752D01*
X107118828Y-155494704D01*
X107047400Y-155375657D01*
X106547400Y-153947085D02*
X105975971Y-153947085D01*
X106333114Y-153113752D02*
X106333114Y-155256609D01*
X106261685Y-155494704D01*
X106118828Y-155613752D01*
X105975971Y-155613752D01*
X105690257Y-153947085D02*
X105118828Y-153947085D01*
X105475971Y-153113752D02*
X105475971Y-155256609D01*
X105404542Y-155494704D01*
X105261685Y-155613752D01*
X105118828Y-155613752D01*
X104618828Y-155613752D02*
X104618828Y-153947085D01*
X104618828Y-153113752D02*
X104690257Y-153232800D01*
X104618828Y-153351847D01*
X104547400Y-153232800D01*
X104618828Y-153113752D01*
X104618828Y-153351847D01*
D11*
X384213099Y-204169841D02*
G75*
G02*
X380909040Y-207479900I-3307059J-3000D01*
G01*
X380903041Y-60863401D02*
G75*
G02*
X384213100Y-64167460I3000J-3307059D01*
G01*
X36550601Y-64173459D02*
G75*
G02*
X39854660Y-60863400I3307059J3000D01*
G01*
X39860659Y-207479899D02*
G75*
G02*
X36550600Y-204175840I-3000J3307059D01*
G01*
X384213100Y-64167460D02*
X384213099Y-204169841D01*
X380909040Y-207479900D02*
X39860659Y-207479899D01*
X39854660Y-60863400D02*
X380903041Y-60863400D01*
D12*
G36*
X122749734Y-155928577D02*
G01*
X123319117Y-155926400D01*
X123888500Y-155924224D01*
X123888500Y-155517824D01*
X122749734Y-155513472D01*
X122749734Y-154853191D01*
X123469401Y-154853191D01*
X123469401Y-154421391D01*
X122749734Y-154421391D01*
X122749734Y-153744177D01*
X123319117Y-153742000D01*
X123888500Y-153739824D01*
X123890763Y-153526041D01*
X123893025Y-153312258D01*
X122749734Y-153312258D01*
X122749734Y-152694191D01*
X122309467Y-152694191D01*
X122309467Y-153312258D01*
X121174934Y-153312258D01*
X121174934Y-153744057D01*
X122309467Y-153744057D01*
X122309467Y-154421391D01*
X121598267Y-154421391D01*
X121598267Y-154853191D01*
X122309467Y-154853191D01*
X122309467Y-155513591D01*
X121174934Y-155513591D01*
X121174934Y-155928457D01*
X122309248Y-155928457D01*
X122313700Y-156516891D01*
X122531717Y-156519150D01*
X122749734Y-156521410D01*
X122749734Y-155928577D01*
G37*
X122749734Y-155928577D02*
X123319117Y-155926400D01*
X123888500Y-155924224D01*
X123888500Y-155517824D01*
X122749734Y-155513472D01*
X122749734Y-154853191D01*
X123469401Y-154853191D01*
X123469401Y-154421391D01*
X122749734Y-154421391D01*
X122749734Y-153744177D01*
X123319117Y-153742000D01*
X123888500Y-153739824D01*
X123890763Y-153526041D01*
X123893025Y-153312258D01*
X122749734Y-153312258D01*
X122749734Y-152694191D01*
X122309467Y-152694191D01*
X122309467Y-153312258D01*
X121174934Y-153312258D01*
X121174934Y-153744057D01*
X122309467Y-153744057D01*
X122309467Y-154421391D01*
X121598267Y-154421391D01*
X121598267Y-154853191D01*
X122309467Y-154853191D01*
X122309467Y-155513591D01*
X121174934Y-155513591D01*
X121174934Y-155928457D01*
X122309248Y-155928457D01*
X122313700Y-156516891D01*
X122531717Y-156519150D01*
X122749734Y-156521410D01*
X122749734Y-155928577D01*
D13*
X356213100Y-97053400D03*
X64550600Y-97053400D03*
D14*
X286626300Y-83613400D03*
X134137400Y-83613400D03*
X286626300Y-64863400D03*
X40550600Y-64863400D03*
X379523512Y-183454800D03*
X327986788Y-183454800D03*
X379523512Y-155219400D03*
X327986788Y-155219400D03*
X79401800Y-187587400D03*
X85763100Y-109702600D03*
X335000600Y-109702600D03*
X210419351Y-197713600D03*
X210419351Y-109702600D03*
X134137400Y-64863400D03*
X380213100Y-64863400D03*
X380213100Y-83613400D03*
X40550600Y-83613400D03*
M02*
