%FSLAX45Y45*%
G04 Gerber Fmt 4.5, Leading zero omitted, Abs format (unit mm)*
G04 Created by KiCad (PCBNEW 5.1.10-88a1d61d58~90~ubuntu21.04.1) date 2021-08-16 11:58:26*
%MOMM*%
%LPD*%
G01*
G04 APERTURE LIST*
%TA.AperFunction,Profile*%
%ADD10C,0.150000*%
%TD*%
%ADD11C,0.200000*%
%ADD12C,0.300000*%
G04 APERTURE END LIST*
D10*
X3655060Y-20417584D02*
X3655060Y-6417346D01*
X38421310Y-20416984D02*
G75*
G02*
X38090904Y-20747990I-330706J-300D01*
G01*
X38090304Y-6086340D02*
G75*
G02*
X38421310Y-6416746I300J-330706D01*
G01*
X3655060Y-6417346D02*
G75*
G02*
X3985466Y-6086340I330706J300D01*
G01*
X3986066Y-20747990D02*
G75*
G02*
X3655060Y-20417584I-300J330706D01*
G01*
X38421310Y-6416746D02*
X38421310Y-20416984D01*
X38090904Y-20747990D02*
X3986066Y-20747990D01*
X3985466Y-6086340D02*
X38090304Y-6086340D01*
D11*
D12*
X3933988Y-21221204D02*
X3933988Y-20921204D01*
X4005417Y-20921204D01*
X4048274Y-20935490D01*
X4076846Y-20964062D01*
X4091131Y-20992633D01*
X4105417Y-21049776D01*
X4105417Y-21092633D01*
X4091131Y-21149776D01*
X4076846Y-21178347D01*
X4048274Y-21206919D01*
X4005417Y-21221204D01*
X3933988Y-21221204D01*
X4233988Y-21221204D02*
X4233988Y-21021204D01*
X4233988Y-21078347D02*
X4248274Y-21049776D01*
X4262560Y-21035490D01*
X4291131Y-21021204D01*
X4319703Y-21021204D01*
X4419703Y-21221204D02*
X4419703Y-21021204D01*
X4419703Y-20921204D02*
X4405417Y-20935490D01*
X4419703Y-20949776D01*
X4433988Y-20935490D01*
X4419703Y-20921204D01*
X4419703Y-20949776D01*
X4605417Y-21221204D02*
X4576846Y-21206919D01*
X4562560Y-21178347D01*
X4562560Y-20921204D01*
X4762560Y-21221204D02*
X4733988Y-21206919D01*
X4719703Y-21178347D01*
X4719703Y-20921204D01*
X5105417Y-21221204D02*
X5105417Y-20921204D01*
X5205417Y-21135490D01*
X5305417Y-20921204D01*
X5305417Y-21221204D01*
X5576846Y-21221204D02*
X5576846Y-21064062D01*
X5562560Y-21035490D01*
X5533988Y-21021204D01*
X5476846Y-21021204D01*
X5448274Y-21035490D01*
X5576846Y-21206919D02*
X5548274Y-21221204D01*
X5476846Y-21221204D01*
X5448274Y-21206919D01*
X5433988Y-21178347D01*
X5433988Y-21149776D01*
X5448274Y-21121204D01*
X5476846Y-21106919D01*
X5548274Y-21106919D01*
X5576846Y-21092633D01*
X5719703Y-21021204D02*
X5719703Y-21321204D01*
X5719703Y-21035490D02*
X5748274Y-21021204D01*
X5805417Y-21021204D01*
X5833988Y-21035490D01*
X5848274Y-21049776D01*
X5862560Y-21078347D01*
X5862560Y-21164062D01*
X5848274Y-21192633D01*
X5833988Y-21206919D01*
X5805417Y-21221204D01*
X5748274Y-21221204D01*
X5719703Y-21206919D01*
X5991131Y-21192633D02*
X6005417Y-21206919D01*
X5991131Y-21221204D01*
X5976846Y-21206919D01*
X5991131Y-21192633D01*
X5991131Y-21221204D01*
X5991131Y-21035490D02*
X6005417Y-21049776D01*
X5991131Y-21064062D01*
X5976846Y-21049776D01*
X5991131Y-21035490D01*
X5991131Y-21064062D01*
M02*
