G04 #@! TF.GenerationSoftware,KiCad,Pcbnew,5.1.10-88a1d61d58~90~ubuntu21.04.1*
G04 #@! TF.CreationDate,2021-08-16T11:58:24+02:00*
G04 #@! TF.ProjectId,mysterium-bottom,6d797374-6572-4697-956d-2d626f74746f,rev?*
G04 #@! TF.SameCoordinates,Original*
G04 #@! TF.FileFunction,Legend,Top*
G04 #@! TF.FilePolarity,Positive*
%FSLAX46Y46*%
G04 Gerber Fmt 4.6, Leading zero omitted, Abs format (unit mm)*
G04 Created by KiCad (PCBNEW 5.1.10-88a1d61d58~90~ubuntu21.04.1) date 2021-08-16 11:58:24*
%MOMM*%
%LPD*%
G01*
G04 APERTURE LIST*
%ADD10C,0.150000*%
%ADD11C,8.702000*%
%ADD12C,4.502000*%
G04 APERTURE END LIST*
D10*
X374426476Y-204984404D02*
X374426476Y-205555833D01*
X374388380Y-205670119D01*
X374312190Y-205746309D01*
X374197904Y-205784404D01*
X374121714Y-205784404D01*
X375188380Y-205784404D02*
X374807428Y-205784404D01*
X374807428Y-204984404D01*
X375912190Y-205708214D02*
X375874095Y-205746309D01*
X375759809Y-205784404D01*
X375683619Y-205784404D01*
X375569333Y-205746309D01*
X375493142Y-205670119D01*
X375455047Y-205593928D01*
X375416952Y-205441547D01*
X375416952Y-205327261D01*
X375455047Y-205174880D01*
X375493142Y-205098690D01*
X375569333Y-205022500D01*
X375683619Y-204984404D01*
X375759809Y-204984404D01*
X375874095Y-205022500D01*
X375912190Y-205060595D01*
X376483619Y-204984404D02*
X376483619Y-205555833D01*
X376445523Y-205670119D01*
X376369333Y-205746309D01*
X376255047Y-205784404D01*
X376178857Y-205784404D01*
X377245523Y-205784404D02*
X376864571Y-205784404D01*
X376864571Y-204984404D01*
X377969333Y-205708214D02*
X377931238Y-205746309D01*
X377816952Y-205784404D01*
X377740761Y-205784404D01*
X377626476Y-205746309D01*
X377550285Y-205670119D01*
X377512190Y-205593928D01*
X377474095Y-205441547D01*
X377474095Y-205327261D01*
X377512190Y-205174880D01*
X377550285Y-205098690D01*
X377626476Y-205022500D01*
X377740761Y-204984404D01*
X377816952Y-204984404D01*
X377931238Y-205022500D01*
X377969333Y-205060595D01*
X378540761Y-204984404D02*
X378540761Y-205555833D01*
X378502666Y-205670119D01*
X378426476Y-205746309D01*
X378312190Y-205784404D01*
X378236000Y-205784404D01*
X379302666Y-205784404D02*
X378921714Y-205784404D01*
X378921714Y-204984404D01*
X380026476Y-205708214D02*
X379988380Y-205746309D01*
X379874095Y-205784404D01*
X379797904Y-205784404D01*
X379683619Y-205746309D01*
X379607428Y-205670119D01*
X379569333Y-205593928D01*
X379531238Y-205441547D01*
X379531238Y-205327261D01*
X379569333Y-205174880D01*
X379607428Y-205098690D01*
X379683619Y-205022500D01*
X379797904Y-204984404D01*
X379874095Y-204984404D01*
X379988380Y-205022500D01*
X380026476Y-205060595D01*
X380597904Y-204984404D02*
X380597904Y-205555833D01*
X380559809Y-205670119D01*
X380483619Y-205746309D01*
X380369333Y-205784404D01*
X380293142Y-205784404D01*
X381359809Y-205784404D02*
X380978857Y-205784404D01*
X380978857Y-204984404D01*
X382083619Y-205708214D02*
X382045523Y-205746309D01*
X381931238Y-205784404D01*
X381855047Y-205784404D01*
X381740761Y-205746309D01*
X381664571Y-205670119D01*
X381626476Y-205593928D01*
X381588380Y-205441547D01*
X381588380Y-205327261D01*
X381626476Y-205174880D01*
X381664571Y-205098690D01*
X381740761Y-205022500D01*
X381855047Y-204984404D01*
X381931238Y-204984404D01*
X382045523Y-205022500D01*
X382083619Y-205060595D01*
%LPC*%
D11*
X356213100Y-97053400D03*
X64550600Y-97053400D03*
D12*
X286626300Y-83613400D03*
X134137400Y-83613400D03*
X286626300Y-64863400D03*
X40550600Y-64863400D03*
X379523512Y-183454800D03*
X327986788Y-183454800D03*
X379523512Y-155219400D03*
X327986788Y-155219400D03*
X79401800Y-187587400D03*
X85763100Y-109702600D03*
X335000600Y-109702600D03*
X210419351Y-197713600D03*
X210419351Y-109702600D03*
X134137400Y-64863400D03*
X380213100Y-64863400D03*
X380213100Y-83613400D03*
X40550600Y-83613400D03*
M02*
