G04 #@! TF.GenerationSoftware,KiCad,Pcbnew,(5.1.4)-1*
G04 #@! TF.CreationDate,2019-10-17T22:48:38-04:00*
G04 #@! TF.ProjectId,mysterium-pcb,6d797374-6572-4697-956d-2d7063622e6b,rev?*
G04 #@! TF.SameCoordinates,Original*
G04 #@! TF.FileFunction,Legend,Top*
G04 #@! TF.FilePolarity,Positive*
%FSLAX46Y46*%
G04 Gerber Fmt 4.6, Leading zero omitted, Abs format (unit mm)*
G04 Created by KiCad (PCBNEW (5.1.4)-1) date 2019-10-17 22:48:38*
%MOMM*%
%LPD*%
G04 APERTURE LIST*
%ADD10C,0.150000*%
%ADD11C,0.120000*%
%ADD12C,0.200000*%
%ADD13C,0.203200*%
G04 APERTURE END LIST*
D10*
X132712442Y-188991361D02*
X132712442Y-186991361D01*
X133212442Y-188419933D01*
X133712442Y-186991361D01*
X133712442Y-188991361D01*
X134712442Y-188038980D02*
X134712442Y-188991361D01*
X134212442Y-186991361D02*
X134712442Y-188038980D01*
X135212442Y-186991361D01*
X135641014Y-188896123D02*
X135855300Y-188991361D01*
X136212442Y-188991361D01*
X136355300Y-188896123D01*
X136426728Y-188800885D01*
X136498157Y-188610409D01*
X136498157Y-188419933D01*
X136426728Y-188229457D01*
X136355300Y-188134219D01*
X136212442Y-188038980D01*
X135926728Y-187943742D01*
X135783871Y-187848504D01*
X135712442Y-187753266D01*
X135641014Y-187562790D01*
X135641014Y-187372314D01*
X135712442Y-187181838D01*
X135783871Y-187086600D01*
X135926728Y-186991361D01*
X136283871Y-186991361D01*
X136498157Y-187086600D01*
X136926728Y-186991361D02*
X137783871Y-186991361D01*
X137355300Y-188991361D02*
X137355300Y-186991361D01*
X138283871Y-187943742D02*
X138783871Y-187943742D01*
X138998157Y-188991361D02*
X138283871Y-188991361D01*
X138283871Y-186991361D01*
X138998157Y-186991361D01*
X140498157Y-188991361D02*
X139998157Y-188038980D01*
X139641014Y-188991361D02*
X139641014Y-186991361D01*
X140212442Y-186991361D01*
X140355300Y-187086600D01*
X140426728Y-187181838D01*
X140498157Y-187372314D01*
X140498157Y-187658028D01*
X140426728Y-187848504D01*
X140355300Y-187943742D01*
X140212442Y-188038980D01*
X139641014Y-188038980D01*
X141141014Y-188991361D02*
X141141014Y-186991361D01*
X141855300Y-186991361D02*
X141855300Y-188610409D01*
X141926728Y-188800885D01*
X141998157Y-188896123D01*
X142141014Y-188991361D01*
X142426728Y-188991361D01*
X142569585Y-188896123D01*
X142641014Y-188800885D01*
X142712442Y-188610409D01*
X142712442Y-186991361D01*
X143426728Y-188991361D02*
X143426728Y-186991361D01*
X143926728Y-188419933D01*
X144426728Y-186991361D01*
X144426728Y-188991361D01*
X133355300Y-192046123D02*
X133212442Y-192141361D01*
X132926728Y-192141361D01*
X132783871Y-192046123D01*
X132712442Y-191950885D01*
X132641014Y-191760409D01*
X132641014Y-191188980D01*
X132712442Y-190998504D01*
X132783871Y-190903266D01*
X132926728Y-190808028D01*
X133212442Y-190808028D01*
X133355300Y-190903266D01*
X134212442Y-192141361D02*
X134069585Y-192046123D01*
X133998157Y-191950885D01*
X133926728Y-191760409D01*
X133926728Y-191188980D01*
X133998157Y-190998504D01*
X134069585Y-190903266D01*
X134212442Y-190808028D01*
X134426728Y-190808028D01*
X134569585Y-190903266D01*
X134641014Y-190998504D01*
X134712442Y-191188980D01*
X134712442Y-191760409D01*
X134641014Y-191950885D01*
X134569585Y-192046123D01*
X134426728Y-192141361D01*
X134212442Y-192141361D01*
X135283871Y-192046123D02*
X135426728Y-192141361D01*
X135712442Y-192141361D01*
X135855300Y-192046123D01*
X135926728Y-191855647D01*
X135926728Y-191760409D01*
X135855300Y-191569933D01*
X135712442Y-191474695D01*
X135498157Y-191474695D01*
X135355300Y-191379457D01*
X135283871Y-191188980D01*
X135283871Y-191093742D01*
X135355300Y-190903266D01*
X135498157Y-190808028D01*
X135712442Y-190808028D01*
X135855300Y-190903266D01*
X137141014Y-192046123D02*
X136998157Y-192141361D01*
X136712442Y-192141361D01*
X136569585Y-192046123D01*
X136498157Y-191855647D01*
X136498157Y-191093742D01*
X136569585Y-190903266D01*
X136712442Y-190808028D01*
X136998157Y-190808028D01*
X137141014Y-190903266D01*
X137212442Y-191093742D01*
X137212442Y-191284219D01*
X136498157Y-191474695D01*
X137712442Y-190808028D02*
X138069585Y-192141361D01*
X138426728Y-190808028D02*
X138069585Y-192141361D01*
X137926728Y-192617552D01*
X137855300Y-192712790D01*
X137712442Y-192808028D01*
X138783871Y-190808028D02*
X139355300Y-190808028D01*
X138998157Y-192141361D02*
X138998157Y-190427076D01*
X139069585Y-190236600D01*
X139212442Y-190141361D01*
X139355300Y-190141361D01*
X140498157Y-192141361D02*
X140498157Y-191093742D01*
X140426728Y-190903266D01*
X140283871Y-190808028D01*
X139998157Y-190808028D01*
X139855300Y-190903266D01*
X140498157Y-192046123D02*
X140355300Y-192141361D01*
X139998157Y-192141361D01*
X139855300Y-192046123D01*
X139783871Y-191855647D01*
X139783871Y-191665171D01*
X139855300Y-191474695D01*
X139998157Y-191379457D01*
X140355300Y-191379457D01*
X140498157Y-191284219D01*
X141212442Y-190808028D02*
X141212442Y-192141361D01*
X141212442Y-190998504D02*
X141283871Y-190903266D01*
X141426728Y-190808028D01*
X141641014Y-190808028D01*
X141783871Y-190903266D01*
X141855300Y-191093742D01*
X141855300Y-192141361D01*
X142569585Y-190808028D02*
X142569585Y-192141361D01*
X142569585Y-190998504D02*
X142641014Y-190903266D01*
X142783871Y-190808028D01*
X142998157Y-190808028D01*
X143141014Y-190903266D01*
X143212442Y-191093742D01*
X143212442Y-192141361D01*
X143926728Y-192141361D02*
X143926728Y-190808028D01*
X143926728Y-190141361D02*
X143855300Y-190236600D01*
X143926728Y-190331838D01*
X143998157Y-190236600D01*
X143926728Y-190141361D01*
X143926728Y-190331838D01*
X144426728Y-190808028D02*
X144998157Y-190808028D01*
X144641014Y-190141361D02*
X144641014Y-191855647D01*
X144712442Y-192046123D01*
X144855300Y-192141361D01*
X144998157Y-192141361D01*
X146141014Y-190808028D02*
X146141014Y-192141361D01*
X145498157Y-190808028D02*
X145498157Y-191855647D01*
X145569585Y-192046123D01*
X145712442Y-192141361D01*
X145926728Y-192141361D01*
X146069585Y-192046123D01*
X146141014Y-191950885D01*
X146641014Y-190808028D02*
X147212442Y-190808028D01*
X146855300Y-190141361D02*
X146855300Y-191855647D01*
X146926728Y-192046123D01*
X147069585Y-192141361D01*
X147212442Y-192141361D01*
X147498157Y-190808028D02*
X148069585Y-190808028D01*
X147712442Y-190141361D02*
X147712442Y-191855647D01*
X147783871Y-192046123D01*
X147926728Y-192141361D01*
X148069585Y-192141361D01*
X148569585Y-192141361D02*
X148569585Y-190808028D01*
X148569585Y-190141361D02*
X148498157Y-190236600D01*
X148569585Y-190331838D01*
X148641014Y-190236600D01*
X148569585Y-190141361D01*
X148569585Y-190331838D01*
X150355300Y-190331838D02*
X150426728Y-190236600D01*
X150569585Y-190141361D01*
X150926728Y-190141361D01*
X151069585Y-190236600D01*
X151141014Y-190331838D01*
X151212442Y-190522314D01*
X151212442Y-190712790D01*
X151141014Y-190998504D01*
X150283871Y-192141361D01*
X151212442Y-192141361D01*
X152141014Y-190141361D02*
X152283871Y-190141361D01*
X152426728Y-190236600D01*
X152498157Y-190331838D01*
X152569585Y-190522314D01*
X152641014Y-190903266D01*
X152641014Y-191379457D01*
X152569585Y-191760409D01*
X152498157Y-191950885D01*
X152426728Y-192046123D01*
X152283871Y-192141361D01*
X152141014Y-192141361D01*
X151998157Y-192046123D01*
X151926728Y-191950885D01*
X151855300Y-191760409D01*
X151783871Y-191379457D01*
X151783871Y-190903266D01*
X151855300Y-190522314D01*
X151926728Y-190331838D01*
X151998157Y-190236600D01*
X152141014Y-190141361D01*
X154069585Y-192141361D02*
X153212442Y-192141361D01*
X153641014Y-192141361D02*
X153641014Y-190141361D01*
X153498157Y-190427076D01*
X153355300Y-190617552D01*
X153212442Y-190712790D01*
X154783871Y-192141361D02*
X155069585Y-192141361D01*
X155212442Y-192046123D01*
X155283871Y-191950885D01*
X155426728Y-191665171D01*
X155498157Y-191284219D01*
X155498157Y-190522314D01*
X155426728Y-190331838D01*
X155355300Y-190236600D01*
X155212442Y-190141361D01*
X154926728Y-190141361D01*
X154783871Y-190236600D01*
X154712442Y-190331838D01*
X154641014Y-190522314D01*
X154641014Y-190998504D01*
X154712442Y-191188980D01*
X154783871Y-191284219D01*
X154926728Y-191379457D01*
X155212442Y-191379457D01*
X155355300Y-191284219D01*
X155426728Y-191188980D01*
X155498157Y-190998504D01*
X133569585Y-195291361D02*
X133069585Y-194338980D01*
X132712442Y-195291361D02*
X132712442Y-193291361D01*
X133283871Y-193291361D01*
X133426728Y-193386600D01*
X133498157Y-193481838D01*
X133569585Y-193672314D01*
X133569585Y-193958028D01*
X133498157Y-194148504D01*
X133426728Y-194243742D01*
X133283871Y-194338980D01*
X132712442Y-194338980D01*
X134212442Y-194243742D02*
X134712442Y-194243742D01*
X134926728Y-195291361D02*
X134212442Y-195291361D01*
X134212442Y-193291361D01*
X134926728Y-193291361D01*
X135355300Y-193291361D02*
X135855300Y-195291361D01*
X136355300Y-193291361D01*
X137926728Y-194719933D02*
X138641014Y-194719933D01*
X137783871Y-195291361D02*
X138283871Y-193291361D01*
X138783871Y-195291361D01*
X139998157Y-195291361D02*
X139283871Y-195291361D01*
X139283871Y-193291361D01*
X140498157Y-195291361D02*
X140498157Y-193291361D01*
X141069585Y-193291361D01*
X141212442Y-193386600D01*
X141283871Y-193481838D01*
X141355300Y-193672314D01*
X141355300Y-193958028D01*
X141283871Y-194148504D01*
X141212442Y-194243742D01*
X141069585Y-194338980D01*
X140498157Y-194338980D01*
X141998157Y-195291361D02*
X141998157Y-193291361D01*
X141998157Y-194243742D02*
X142855300Y-194243742D01*
X142855300Y-195291361D02*
X142855300Y-193291361D01*
X143498157Y-194719933D02*
X144212442Y-194719933D01*
X143355300Y-195291361D02*
X143855300Y-193291361D01*
X144355300Y-195291361D01*
X266881552Y-73239380D02*
X266881552Y-73953666D01*
X266833933Y-74096523D01*
X266738695Y-74191761D01*
X266595838Y-74239380D01*
X266500600Y-74239380D01*
X267833933Y-74239380D02*
X267357742Y-74239380D01*
X267357742Y-73239380D01*
X268738695Y-74144142D02*
X268691076Y-74191761D01*
X268548219Y-74239380D01*
X268452980Y-74239380D01*
X268310123Y-74191761D01*
X268214885Y-74096523D01*
X268167266Y-74001285D01*
X268119647Y-73810809D01*
X268119647Y-73667952D01*
X268167266Y-73477476D01*
X268214885Y-73382238D01*
X268310123Y-73287000D01*
X268452980Y-73239380D01*
X268548219Y-73239380D01*
X268691076Y-73287000D01*
X268738695Y-73334619D01*
X269452980Y-73239380D02*
X269452980Y-73953666D01*
X269405361Y-74096523D01*
X269310123Y-74191761D01*
X269167266Y-74239380D01*
X269072028Y-74239380D01*
X270405361Y-74239380D02*
X269929171Y-74239380D01*
X269929171Y-73239380D01*
X271310123Y-74144142D02*
X271262504Y-74191761D01*
X271119647Y-74239380D01*
X271024409Y-74239380D01*
X270881552Y-74191761D01*
X270786314Y-74096523D01*
X270738695Y-74001285D01*
X270691076Y-73810809D01*
X270691076Y-73667952D01*
X270738695Y-73477476D01*
X270786314Y-73382238D01*
X270881552Y-73287000D01*
X271024409Y-73239380D01*
X271119647Y-73239380D01*
X271262504Y-73287000D01*
X271310123Y-73334619D01*
X272024409Y-73239380D02*
X272024409Y-73953666D01*
X271976790Y-74096523D01*
X271881552Y-74191761D01*
X271738695Y-74239380D01*
X271643457Y-74239380D01*
X272976790Y-74239380D02*
X272500600Y-74239380D01*
X272500600Y-73239380D01*
X273881552Y-74144142D02*
X273833933Y-74191761D01*
X273691076Y-74239380D01*
X273595838Y-74239380D01*
X273452980Y-74191761D01*
X273357742Y-74096523D01*
X273310123Y-74001285D01*
X273262504Y-73810809D01*
X273262504Y-73667952D01*
X273310123Y-73477476D01*
X273357742Y-73382238D01*
X273452980Y-73287000D01*
X273595838Y-73239380D01*
X273691076Y-73239380D01*
X273833933Y-73287000D01*
X273881552Y-73334619D01*
X274595838Y-73239380D02*
X274595838Y-73953666D01*
X274548219Y-74096523D01*
X274452980Y-74191761D01*
X274310123Y-74239380D01*
X274214885Y-74239380D01*
X275548219Y-74239380D02*
X275072028Y-74239380D01*
X275072028Y-73239380D01*
X276452980Y-74144142D02*
X276405361Y-74191761D01*
X276262504Y-74239380D01*
X276167266Y-74239380D01*
X276024409Y-74191761D01*
X275929171Y-74096523D01*
X275881552Y-74001285D01*
X275833933Y-73810809D01*
X275833933Y-73667952D01*
X275881552Y-73477476D01*
X275929171Y-73382238D01*
X276024409Y-73287000D01*
X276167266Y-73239380D01*
X276262504Y-73239380D01*
X276405361Y-73287000D01*
X276452980Y-73334619D01*
D11*
X291021203Y-75291200D02*
X291021203Y-73451200D01*
X291021203Y-73451200D02*
X287181203Y-73451200D01*
X287181203Y-73451200D02*
X287181203Y-75291200D01*
X287181203Y-75291200D02*
X291021203Y-75291200D01*
X291971203Y-74371200D02*
X291021203Y-74371200D01*
X286231203Y-74371200D02*
X287181203Y-74371200D01*
X291021203Y-72802000D02*
X291021203Y-70962000D01*
X291021203Y-70962000D02*
X287181203Y-70962000D01*
X287181203Y-70962000D02*
X287181203Y-72802000D01*
X287181203Y-72802000D02*
X291021203Y-72802000D01*
X291971203Y-71882000D02*
X291021203Y-71882000D01*
X286231203Y-71882000D02*
X287181203Y-71882000D01*
D10*
X339294350Y-165854900D02*
X339294350Y-153854900D01*
X372294350Y-165854900D02*
X372294350Y-153854900D01*
X334294350Y-165854900D02*
X334294350Y-153854900D01*
X334294350Y-165854900D02*
X372294350Y-165854900D01*
X334294350Y-153854900D02*
X372294350Y-153854900D01*
D11*
X310238510Y-77694848D02*
X311318510Y-77694848D01*
X310238510Y-78744848D02*
X311318510Y-78744848D01*
X310768510Y-77804848D02*
X310238510Y-78714848D01*
X310778510Y-77794848D02*
X311318510Y-78744848D01*
X309768510Y-76664848D02*
X311768510Y-76664848D01*
X310778510Y-76404848D02*
X310778510Y-77684848D01*
X310778510Y-79864848D02*
X310778510Y-78744848D01*
X309768510Y-79654848D02*
X311758510Y-79654848D01*
X311768510Y-76664848D02*
X311758510Y-79654848D01*
X309768510Y-76674848D02*
X309768510Y-79644848D01*
X71299966Y-76674848D02*
X71299966Y-79644848D01*
X73299966Y-76664848D02*
X73289966Y-79654848D01*
X71299966Y-79654848D02*
X73289966Y-79654848D01*
X72309966Y-79864848D02*
X72309966Y-78744848D01*
X72309966Y-76404848D02*
X72309966Y-77684848D01*
X71299966Y-76664848D02*
X73299966Y-76664848D01*
X72309966Y-77794848D02*
X72849966Y-78744848D01*
X72299966Y-77804848D02*
X71769966Y-78714848D01*
X71769966Y-78744848D02*
X72849966Y-78744848D01*
X71769966Y-77694848D02*
X72849966Y-77694848D01*
X106933729Y-74194555D02*
X106933729Y-77164555D01*
X108933729Y-74184555D02*
X108923729Y-77174555D01*
X106933729Y-77174555D02*
X108923729Y-77174555D01*
X107943729Y-77384555D02*
X107943729Y-76264555D01*
X107943729Y-73924555D02*
X107943729Y-75204555D01*
X106933729Y-74184555D02*
X108933729Y-74184555D01*
X107943729Y-75314555D02*
X108483729Y-76264555D01*
X107933729Y-75324555D02*
X107403729Y-76234555D01*
X107403729Y-76264555D02*
X108483729Y-76264555D01*
X107403729Y-75214555D02*
X108483729Y-75214555D01*
X320370288Y-76674848D02*
X320370288Y-79644848D01*
X322370288Y-76664848D02*
X322360288Y-79654848D01*
X320370288Y-79654848D02*
X322360288Y-79654848D01*
X321380288Y-79864848D02*
X321380288Y-78744848D01*
X321380288Y-76404848D02*
X321380288Y-77684848D01*
X320370288Y-76664848D02*
X322370288Y-76664848D01*
X321380288Y-77794848D02*
X321920288Y-78744848D01*
X321370288Y-77804848D02*
X320840288Y-78714848D01*
X320840288Y-78744848D02*
X321920288Y-78744848D01*
X320840288Y-77694848D02*
X321920288Y-77694848D01*
X269390400Y-86522800D02*
X262990400Y-86522800D01*
X269390400Y-81472800D02*
X262990400Y-81472800D01*
X269390400Y-81472800D02*
G75*
G02X269390400Y-86522800I0J-2525000D01*
G01*
X262990400Y-81472800D02*
G75*
G03X262990400Y-86522800I0J-2525000D01*
G01*
D10*
X215044351Y-63347600D02*
X205794351Y-63347600D01*
X214894351Y-70007600D02*
X205944351Y-70007600D01*
X205939351Y-61597600D02*
X205944351Y-60837600D01*
X214894351Y-60837600D02*
X205944351Y-60837600D01*
X214894351Y-60837600D02*
X214899351Y-61597600D01*
X210419351Y-63347600D02*
X210419351Y-64617600D01*
D11*
X231689600Y-71415400D02*
G75*
G02X231689600Y-73415400I0J-1000000D01*
G01*
X231689600Y-73415400D02*
X231689600Y-78875400D01*
X231689600Y-78875400D02*
X282609600Y-78875400D01*
X282609600Y-78875400D02*
X282609600Y-65955400D01*
X282609600Y-65955400D02*
X231689600Y-65955400D01*
X231689600Y-65955400D02*
X231689600Y-71415400D01*
X164437697Y-65839600D02*
X164437697Y-64339600D01*
X163187697Y-61839600D02*
X158687697Y-61839600D01*
X157437697Y-64339600D02*
X157437697Y-65839600D01*
X158687697Y-68339600D02*
X163187697Y-68339600D01*
X227497400Y-67290200D02*
X227497400Y-65450200D01*
X227497400Y-65450200D02*
X223657400Y-65450200D01*
X223657400Y-65450200D02*
X223657400Y-67290200D01*
X223657400Y-67290200D02*
X227497400Y-67290200D01*
X228447400Y-66370200D02*
X227497400Y-66370200D01*
X222707400Y-66370200D02*
X223657400Y-66370200D01*
X227497400Y-69801163D02*
X227497400Y-67961163D01*
X227497400Y-67961163D02*
X223657400Y-67961163D01*
X223657400Y-67961163D02*
X223657400Y-69801163D01*
X223657400Y-69801163D02*
X227497400Y-69801163D01*
X228447400Y-68881163D02*
X227497400Y-68881163D01*
X222707400Y-68881163D02*
X223657400Y-68881163D01*
X227497400Y-82355978D02*
X227497400Y-80515978D01*
X227497400Y-80515978D02*
X223657400Y-80515978D01*
X223657400Y-80515978D02*
X223657400Y-82355978D01*
X223657400Y-82355978D02*
X227497400Y-82355978D01*
X228447400Y-81435978D02*
X227497400Y-81435978D01*
X222707400Y-81435978D02*
X223657400Y-81435978D01*
X227497400Y-79845015D02*
X227497400Y-78005015D01*
X227497400Y-78005015D02*
X223657400Y-78005015D01*
X223657400Y-78005015D02*
X223657400Y-79845015D01*
X223657400Y-79845015D02*
X227497400Y-79845015D01*
X228447400Y-78925015D02*
X227497400Y-78925015D01*
X222707400Y-78925015D02*
X223657400Y-78925015D01*
X227497400Y-77334052D02*
X227497400Y-75494052D01*
X227497400Y-75494052D02*
X223657400Y-75494052D01*
X223657400Y-75494052D02*
X223657400Y-77334052D01*
X223657400Y-77334052D02*
X227497400Y-77334052D01*
X228447400Y-76414052D02*
X227497400Y-76414052D01*
X222707400Y-76414052D02*
X223657400Y-76414052D01*
X227497400Y-74823089D02*
X227497400Y-72983089D01*
X227497400Y-72983089D02*
X223657400Y-72983089D01*
X223657400Y-72983089D02*
X223657400Y-74823089D01*
X223657400Y-74823089D02*
X227497400Y-74823089D01*
X228447400Y-73903089D02*
X227497400Y-73903089D01*
X222707400Y-73903089D02*
X223657400Y-73903089D01*
X227497400Y-72312126D02*
X227497400Y-70472126D01*
X227497400Y-70472126D02*
X223657400Y-70472126D01*
X223657400Y-70472126D02*
X223657400Y-72312126D01*
X223657400Y-72312126D02*
X227497400Y-72312126D01*
X228447400Y-71392126D02*
X227497400Y-71392126D01*
X222707400Y-71392126D02*
X223657400Y-71392126D01*
X216708599Y-66154800D02*
X216708599Y-66310800D01*
X216708599Y-63838800D02*
X216708599Y-63994800D01*
X219309729Y-66154637D02*
G75*
G02X217227638Y-66154800I-1041130J1079837D01*
G01*
X219309729Y-63994963D02*
G75*
G03X217227638Y-63994800I-1041130J-1079837D01*
G01*
X219940934Y-66153408D02*
G75*
G02X216708599Y-66310316I-1672335J1078608D01*
G01*
X219940934Y-63996192D02*
G75*
G03X216708599Y-63839284I-1672335J-1078608D01*
G01*
D12*
X186801497Y-61966000D02*
X186801497Y-61166000D01*
X186801497Y-61166000D02*
X184251497Y-61166000D01*
X184251497Y-61166000D02*
X184251497Y-61966000D01*
D13*
X181741497Y-61976000D02*
X189361497Y-61976000D01*
X189361497Y-67056000D02*
X181741497Y-67056000D01*
X181741497Y-67056000D02*
X181741497Y-61976000D01*
X189361497Y-61976000D02*
X189361497Y-67056000D01*
D11*
X217770200Y-77422400D02*
X217770200Y-80392400D01*
X219770200Y-77412400D02*
X219760200Y-80402400D01*
X217770200Y-80402400D02*
X219760200Y-80402400D01*
X218780200Y-80612400D02*
X218780200Y-79492400D01*
X218780200Y-77152400D02*
X218780200Y-78432400D01*
X217770200Y-77412400D02*
X219770200Y-77412400D01*
X218780200Y-78542400D02*
X219320200Y-79492400D01*
X218770200Y-78552400D02*
X218240200Y-79462400D01*
X218240200Y-79492400D02*
X219320200Y-79492400D01*
X218240200Y-78442400D02*
X219320200Y-78442400D01*
X214823800Y-77422400D02*
X214823800Y-80392400D01*
X216823800Y-77412400D02*
X216813800Y-80402400D01*
X214823800Y-80402400D02*
X216813800Y-80402400D01*
X215833800Y-80612400D02*
X215833800Y-79492400D01*
X215833800Y-77152400D02*
X215833800Y-78432400D01*
X214823800Y-77412400D02*
X216823800Y-77412400D01*
X215833800Y-78542400D02*
X216373800Y-79492400D01*
X215823800Y-78552400D02*
X215293800Y-79462400D01*
X215293800Y-79492400D02*
X216373800Y-79492400D01*
X215293800Y-78442400D02*
X216373800Y-78442400D01*
X341573844Y-76674848D02*
X341573844Y-79644848D01*
X343573844Y-76664848D02*
X343563844Y-79654848D01*
X341573844Y-79654848D02*
X343563844Y-79654848D01*
X342583844Y-79864848D02*
X342583844Y-78744848D01*
X342583844Y-76404848D02*
X342583844Y-77684848D01*
X341573844Y-76664848D02*
X343573844Y-76664848D01*
X342583844Y-77794848D02*
X343123844Y-78744848D01*
X342573844Y-77804848D02*
X342043844Y-78714848D01*
X342043844Y-78744848D02*
X343123844Y-78744848D01*
X342043844Y-77694848D02*
X343123844Y-77694848D01*
X338039918Y-76674848D02*
X338039918Y-79644848D01*
X340039918Y-76664848D02*
X340029918Y-79654848D01*
X338039918Y-79654848D02*
X340029918Y-79654848D01*
X339049918Y-79864848D02*
X339049918Y-78744848D01*
X339049918Y-76404848D02*
X339049918Y-77684848D01*
X338039918Y-76664848D02*
X340039918Y-76664848D01*
X339049918Y-77794848D02*
X339589918Y-78744848D01*
X339039918Y-77804848D02*
X338509918Y-78714848D01*
X338509918Y-78744848D02*
X339589918Y-78744848D01*
X338509918Y-77694848D02*
X339589918Y-77694848D01*
X338039918Y-66300399D02*
X338039918Y-69270399D01*
X340039918Y-66290399D02*
X340029918Y-69280399D01*
X338039918Y-69280399D02*
X340029918Y-69280399D01*
X339049918Y-69490399D02*
X339049918Y-68370399D01*
X339049918Y-66030399D02*
X339049918Y-67310399D01*
X338039918Y-66290399D02*
X340039918Y-66290399D01*
X339049918Y-67420399D02*
X339589918Y-68370399D01*
X339039918Y-67430399D02*
X338509918Y-68340399D01*
X338509918Y-68370399D02*
X339589918Y-68370399D01*
X338509918Y-67320399D02*
X339589918Y-67320399D01*
X334505992Y-76674848D02*
X334505992Y-79644848D01*
X336505992Y-76664848D02*
X336495992Y-79654848D01*
X334505992Y-79654848D02*
X336495992Y-79654848D01*
X335515992Y-79864848D02*
X335515992Y-78744848D01*
X335515992Y-76404848D02*
X335515992Y-77684848D01*
X334505992Y-76664848D02*
X336505992Y-76664848D01*
X335515992Y-77794848D02*
X336055992Y-78744848D01*
X335505992Y-77804848D02*
X334975992Y-78714848D01*
X334975992Y-78744848D02*
X336055992Y-78744848D01*
X334975992Y-77694848D02*
X336055992Y-77694848D01*
X323904214Y-76674848D02*
X323904214Y-79644848D01*
X325904214Y-76664848D02*
X325894214Y-79654848D01*
X323904214Y-79654848D02*
X325894214Y-79654848D01*
X324914214Y-79864848D02*
X324914214Y-78744848D01*
X324914214Y-76404848D02*
X324914214Y-77684848D01*
X323904214Y-76664848D02*
X325904214Y-76664848D01*
X324914214Y-77794848D02*
X325454214Y-78744848D01*
X324904214Y-77804848D02*
X324374214Y-78714848D01*
X324374214Y-78744848D02*
X325454214Y-78744848D01*
X324374214Y-77694848D02*
X325454214Y-77694848D01*
X313302436Y-76674848D02*
X313302436Y-79644848D01*
X315302436Y-76664848D02*
X315292436Y-79654848D01*
X313302436Y-79654848D02*
X315292436Y-79654848D01*
X314312436Y-79864848D02*
X314312436Y-78744848D01*
X314312436Y-76404848D02*
X314312436Y-77684848D01*
X313302436Y-76664848D02*
X315302436Y-76664848D01*
X314312436Y-77794848D02*
X314852436Y-78744848D01*
X314302436Y-77804848D02*
X313772436Y-78714848D01*
X313772436Y-78744848D02*
X314852436Y-78744848D01*
X313772436Y-77694848D02*
X314852436Y-77694848D01*
X313772436Y-67320399D02*
X314852436Y-67320399D01*
X313772436Y-68370399D02*
X314852436Y-68370399D01*
X314302436Y-67430399D02*
X313772436Y-68340399D01*
X314312436Y-67420399D02*
X314852436Y-68370399D01*
X313302436Y-66290399D02*
X315302436Y-66290399D01*
X314312436Y-66030399D02*
X314312436Y-67310399D01*
X314312436Y-69490399D02*
X314312436Y-68370399D01*
X313302436Y-69280399D02*
X315292436Y-69280399D01*
X315302436Y-66290399D02*
X315292436Y-69280399D01*
X313302436Y-66300399D02*
X313302436Y-69270399D01*
X149046358Y-76674848D02*
X149046358Y-79644848D01*
X151046358Y-76664848D02*
X151036358Y-79654848D01*
X149046358Y-79654848D02*
X151036358Y-79654848D01*
X150056358Y-79864848D02*
X150056358Y-78744848D01*
X150056358Y-76404848D02*
X150056358Y-77684848D01*
X149046358Y-76664848D02*
X151046358Y-76664848D01*
X150056358Y-77794848D02*
X150596358Y-78744848D01*
X150046358Y-77804848D02*
X149516358Y-78714848D01*
X149516358Y-78744848D02*
X150596358Y-78744848D01*
X149516358Y-77694848D02*
X150596358Y-77694848D01*
X68060533Y-74194555D02*
X68060533Y-77164555D01*
X70060533Y-74184555D02*
X70050533Y-77174555D01*
X68060533Y-77174555D02*
X70050533Y-77174555D01*
X69070533Y-77384555D02*
X69070533Y-76264555D01*
X69070533Y-73924555D02*
X69070533Y-75204555D01*
X68060533Y-74184555D02*
X70060533Y-74184555D01*
X69070533Y-75314555D02*
X69610533Y-76264555D01*
X69060533Y-75324555D02*
X68530533Y-76234555D01*
X68530533Y-76264555D02*
X69610533Y-76264555D01*
X68530533Y-75214555D02*
X69610533Y-75214555D01*
X64821100Y-71714262D02*
X64821100Y-74684262D01*
X66821100Y-71704262D02*
X66811100Y-74694262D01*
X64821100Y-74694262D02*
X66811100Y-74694262D01*
X65831100Y-74904262D02*
X65831100Y-73784262D01*
X65831100Y-71444262D02*
X65831100Y-72724262D01*
X64821100Y-71704262D02*
X66821100Y-71704262D01*
X65831100Y-72834262D02*
X66371100Y-73784262D01*
X65821100Y-72844262D02*
X65291100Y-73754262D01*
X65291100Y-73784262D02*
X66371100Y-73784262D01*
X65291100Y-72734262D02*
X66371100Y-72734262D01*
X61581667Y-76674848D02*
X61581667Y-79644848D01*
X63581667Y-76664848D02*
X63571667Y-79654848D01*
X61581667Y-79654848D02*
X63571667Y-79654848D01*
X62591667Y-79864848D02*
X62591667Y-78744848D01*
X62591667Y-76404848D02*
X62591667Y-77684848D01*
X61581667Y-76664848D02*
X63581667Y-76664848D01*
X62591667Y-77794848D02*
X63131667Y-78744848D01*
X62581667Y-77804848D02*
X62051667Y-78714848D01*
X62051667Y-78744848D02*
X63131667Y-78744848D01*
X62051667Y-77694848D02*
X63131667Y-77694848D01*
X345107770Y-76674848D02*
X345107770Y-79644848D01*
X347107770Y-76664848D02*
X347097770Y-79654848D01*
X345107770Y-79654848D02*
X347097770Y-79654848D01*
X346117770Y-79864848D02*
X346117770Y-78744848D01*
X346117770Y-76404848D02*
X346117770Y-77684848D01*
X345107770Y-76664848D02*
X347107770Y-76664848D01*
X346117770Y-77794848D02*
X346657770Y-78744848D01*
X346107770Y-77804848D02*
X345577770Y-78714848D01*
X345577770Y-78744848D02*
X346657770Y-78744848D01*
X345577770Y-77694848D02*
X346657770Y-77694848D01*
X327438140Y-66300399D02*
X327438140Y-69270399D01*
X329438140Y-66290399D02*
X329428140Y-69280399D01*
X327438140Y-69280399D02*
X329428140Y-69280399D01*
X328448140Y-69490399D02*
X328448140Y-68370399D01*
X328448140Y-66030399D02*
X328448140Y-67310399D01*
X327438140Y-66290399D02*
X329438140Y-66290399D01*
X328448140Y-67420399D02*
X328988140Y-68370399D01*
X328438140Y-67430399D02*
X327908140Y-68340399D01*
X327908140Y-68370399D02*
X328988140Y-68370399D01*
X327908140Y-67320399D02*
X328988140Y-67320399D01*
X316836362Y-66300399D02*
X316836362Y-69270399D01*
X318836362Y-66290399D02*
X318826362Y-69280399D01*
X316836362Y-69280399D02*
X318826362Y-69280399D01*
X317846362Y-69490399D02*
X317846362Y-68370399D01*
X317846362Y-66030399D02*
X317846362Y-67310399D01*
X316836362Y-66290399D02*
X318836362Y-66290399D01*
X317846362Y-67420399D02*
X318386362Y-68370399D01*
X317836362Y-67430399D02*
X317306362Y-68340399D01*
X317306362Y-68370399D02*
X318386362Y-68370399D01*
X317306362Y-67320399D02*
X318386362Y-67320399D01*
X197637883Y-76674848D02*
X197637883Y-79644848D01*
X199637883Y-76664848D02*
X199627883Y-79654848D01*
X197637883Y-79654848D02*
X199627883Y-79654848D01*
X198647883Y-79864848D02*
X198647883Y-78744848D01*
X198647883Y-76404848D02*
X198647883Y-77684848D01*
X197637883Y-76664848D02*
X199637883Y-76664848D01*
X198647883Y-77794848D02*
X199187883Y-78744848D01*
X198637883Y-77804848D02*
X198107883Y-78714848D01*
X198107883Y-78744848D02*
X199187883Y-78744848D01*
X198107883Y-77694848D02*
X199187883Y-77694848D01*
X181440688Y-71714262D02*
X181440688Y-74684262D01*
X183440688Y-71704262D02*
X183430688Y-74694262D01*
X181440688Y-74694262D02*
X183430688Y-74694262D01*
X182450688Y-74904262D02*
X182450688Y-73784262D01*
X182450688Y-71444262D02*
X182450688Y-72724262D01*
X181440688Y-71704262D02*
X183440688Y-71704262D01*
X182450688Y-72834262D02*
X182990688Y-73784262D01*
X182440688Y-72844262D02*
X181910688Y-73754262D01*
X181910688Y-73784262D02*
X182990688Y-73784262D01*
X181910688Y-72734262D02*
X182990688Y-72734262D01*
X162004090Y-71714262D02*
X162004090Y-74684262D01*
X164004090Y-71704262D02*
X163994090Y-74694262D01*
X162004090Y-74694262D02*
X163994090Y-74694262D01*
X163014090Y-74904262D02*
X163014090Y-73784262D01*
X163014090Y-71444262D02*
X163014090Y-72724262D01*
X162004090Y-71704262D02*
X164004090Y-71704262D01*
X163014090Y-72834262D02*
X163554090Y-73784262D01*
X163004090Y-72844262D02*
X162474090Y-73754262D01*
X162474090Y-73784262D02*
X163554090Y-73784262D01*
X162474090Y-72734262D02*
X163554090Y-72734262D01*
X145806925Y-74194555D02*
X145806925Y-77164555D01*
X147806925Y-74184555D02*
X147796925Y-77174555D01*
X145806925Y-77174555D02*
X147796925Y-77174555D01*
X146816925Y-77384555D02*
X146816925Y-76264555D01*
X146816925Y-73924555D02*
X146816925Y-75204555D01*
X145806925Y-74184555D02*
X147806925Y-74184555D01*
X146816925Y-75314555D02*
X147356925Y-76264555D01*
X146806925Y-75324555D02*
X146276925Y-76234555D01*
X146276925Y-76264555D02*
X147356925Y-76264555D01*
X146276925Y-75214555D02*
X147356925Y-75214555D01*
X129609760Y-76674848D02*
X129609760Y-79644848D01*
X131609760Y-76664848D02*
X131599760Y-79654848D01*
X129609760Y-79654848D02*
X131599760Y-79654848D01*
X130619760Y-79864848D02*
X130619760Y-78744848D01*
X130619760Y-76404848D02*
X130619760Y-77684848D01*
X129609760Y-76664848D02*
X131609760Y-76664848D01*
X130619760Y-77794848D02*
X131159760Y-78744848D01*
X130609760Y-77804848D02*
X130079760Y-78714848D01*
X130079760Y-78744848D02*
X131159760Y-78744848D01*
X130079760Y-77694848D02*
X131159760Y-77694848D01*
X113412595Y-71714262D02*
X113412595Y-74684262D01*
X115412595Y-71704262D02*
X115402595Y-74694262D01*
X113412595Y-74694262D02*
X115402595Y-74694262D01*
X114422595Y-74904262D02*
X114422595Y-73784262D01*
X114422595Y-71444262D02*
X114422595Y-72724262D01*
X113412595Y-71704262D02*
X115412595Y-71704262D01*
X114422595Y-72834262D02*
X114962595Y-73784262D01*
X114412595Y-72844262D02*
X113882595Y-73754262D01*
X113882595Y-73784262D02*
X114962595Y-73784262D01*
X113882595Y-72734262D02*
X114962595Y-72734262D01*
X97215430Y-74194555D02*
X97215430Y-77164555D01*
X99215430Y-74184555D02*
X99205430Y-77174555D01*
X97215430Y-77174555D02*
X99205430Y-77174555D01*
X98225430Y-77384555D02*
X98225430Y-76264555D01*
X98225430Y-73924555D02*
X98225430Y-75204555D01*
X97215430Y-74184555D02*
X99215430Y-74184555D01*
X98225430Y-75314555D02*
X98765430Y-76264555D01*
X98215430Y-75324555D02*
X97685430Y-76234555D01*
X97685430Y-76264555D02*
X98765430Y-76264555D01*
X97685430Y-75214555D02*
X98765430Y-75214555D01*
X81018265Y-76674848D02*
X81018265Y-79644848D01*
X83018265Y-76664848D02*
X83008265Y-79654848D01*
X81018265Y-79654848D02*
X83008265Y-79654848D01*
X82028265Y-79864848D02*
X82028265Y-78744848D01*
X82028265Y-76404848D02*
X82028265Y-77684848D01*
X81018265Y-76664848D02*
X83018265Y-76664848D01*
X82028265Y-77794848D02*
X82568265Y-78744848D01*
X82018265Y-77804848D02*
X81488265Y-78714848D01*
X81488265Y-78744848D02*
X82568265Y-78744848D01*
X81488265Y-77694848D02*
X82568265Y-77694848D01*
X58342234Y-74194555D02*
X58342234Y-77164555D01*
X60342234Y-74184555D02*
X60332234Y-77174555D01*
X58342234Y-77174555D02*
X60332234Y-77174555D01*
X59352234Y-77384555D02*
X59352234Y-76264555D01*
X59352234Y-73924555D02*
X59352234Y-75204555D01*
X58342234Y-74184555D02*
X60342234Y-74184555D01*
X59352234Y-75314555D02*
X59892234Y-76264555D01*
X59342234Y-75324555D02*
X58812234Y-76234555D01*
X58812234Y-76264555D02*
X59892234Y-76264555D01*
X58812234Y-75214555D02*
X59892234Y-75214555D01*
X327438140Y-76674848D02*
X327438140Y-79644848D01*
X329438140Y-76664848D02*
X329428140Y-79654848D01*
X327438140Y-79654848D02*
X329428140Y-79654848D01*
X328448140Y-79864848D02*
X328448140Y-78744848D01*
X328448140Y-76404848D02*
X328448140Y-77684848D01*
X327438140Y-76664848D02*
X329438140Y-76664848D01*
X328448140Y-77794848D02*
X328988140Y-78744848D01*
X328438140Y-77804848D02*
X327908140Y-78714848D01*
X327908140Y-78744848D02*
X328988140Y-78744848D01*
X327908140Y-77694848D02*
X328988140Y-77694848D01*
X316836362Y-76674848D02*
X316836362Y-79644848D01*
X318836362Y-76664848D02*
X318826362Y-79654848D01*
X316836362Y-79654848D02*
X318826362Y-79654848D01*
X317846362Y-79864848D02*
X317846362Y-78744848D01*
X317846362Y-76404848D02*
X317846362Y-77684848D01*
X316836362Y-76664848D02*
X318836362Y-76664848D01*
X317846362Y-77794848D02*
X318386362Y-78744848D01*
X317836362Y-77804848D02*
X317306362Y-78714848D01*
X317306362Y-78744848D02*
X318386362Y-78744848D01*
X317306362Y-77694848D02*
X318386362Y-77694848D01*
X309768510Y-66300399D02*
X309768510Y-69270399D01*
X311768510Y-66290399D02*
X311758510Y-69280399D01*
X309768510Y-69280399D02*
X311758510Y-69280399D01*
X310778510Y-69490399D02*
X310778510Y-68370399D01*
X310778510Y-66030399D02*
X310778510Y-67310399D01*
X309768510Y-66290399D02*
X311768510Y-66290399D01*
X310778510Y-67420399D02*
X311318510Y-68370399D01*
X310768510Y-67430399D02*
X310238510Y-68340399D01*
X310238510Y-68370399D02*
X311318510Y-68370399D01*
X310238510Y-67320399D02*
X311318510Y-67320399D01*
X207356200Y-76674848D02*
X207356200Y-79644848D01*
X209356200Y-76664848D02*
X209346200Y-79654848D01*
X207356200Y-79654848D02*
X209346200Y-79654848D01*
X208366200Y-79864848D02*
X208366200Y-78744848D01*
X208366200Y-76404848D02*
X208366200Y-77684848D01*
X207356200Y-76664848D02*
X209356200Y-76664848D01*
X208366200Y-77794848D02*
X208906200Y-78744848D01*
X208356200Y-77804848D02*
X207826200Y-78714848D01*
X207826200Y-78744848D02*
X208906200Y-78744848D01*
X207826200Y-77694848D02*
X208906200Y-77694848D01*
X194398444Y-73993400D02*
X194398444Y-76963400D01*
X196398444Y-73983400D02*
X196388444Y-76973400D01*
X194398444Y-76973400D02*
X196388444Y-76973400D01*
X195408444Y-77183400D02*
X195408444Y-76063400D01*
X195408444Y-73723400D02*
X195408444Y-75003400D01*
X194398444Y-73983400D02*
X196398444Y-73983400D01*
X195408444Y-75113400D02*
X195948444Y-76063400D01*
X195398444Y-75123400D02*
X194868444Y-76033400D01*
X194868444Y-76063400D02*
X195948444Y-76063400D01*
X194868444Y-75013400D02*
X195948444Y-75013400D01*
X178201255Y-76674848D02*
X178201255Y-79644848D01*
X180201255Y-76664848D02*
X180191255Y-79654848D01*
X178201255Y-79654848D02*
X180191255Y-79654848D01*
X179211255Y-79864848D02*
X179211255Y-78744848D01*
X179211255Y-76404848D02*
X179211255Y-77684848D01*
X178201255Y-76664848D02*
X180201255Y-76664848D01*
X179211255Y-77794848D02*
X179751255Y-78744848D01*
X179201255Y-77804848D02*
X178671255Y-78714848D01*
X178671255Y-78744848D02*
X179751255Y-78744848D01*
X178671255Y-77694848D02*
X179751255Y-77694848D01*
X158764657Y-76674848D02*
X158764657Y-79644848D01*
X160764657Y-76664848D02*
X160754657Y-79654848D01*
X158764657Y-79654848D02*
X160754657Y-79654848D01*
X159774657Y-79864848D02*
X159774657Y-78744848D01*
X159774657Y-76404848D02*
X159774657Y-77684848D01*
X158764657Y-76664848D02*
X160764657Y-76664848D01*
X159774657Y-77794848D02*
X160314657Y-78744848D01*
X159764657Y-77804848D02*
X159234657Y-78714848D01*
X159234657Y-78744848D02*
X160314657Y-78744848D01*
X159234657Y-77694848D02*
X160314657Y-77694848D01*
X142567492Y-71714262D02*
X142567492Y-74684262D01*
X144567492Y-71704262D02*
X144557492Y-74694262D01*
X142567492Y-74694262D02*
X144557492Y-74694262D01*
X143577492Y-74904262D02*
X143577492Y-73784262D01*
X143577492Y-71444262D02*
X143577492Y-72724262D01*
X142567492Y-71704262D02*
X144567492Y-71704262D01*
X143577492Y-72834262D02*
X144117492Y-73784262D01*
X143567492Y-72844262D02*
X143037492Y-73754262D01*
X143037492Y-73784262D02*
X144117492Y-73784262D01*
X143037492Y-72734262D02*
X144117492Y-72734262D01*
X126370327Y-74194555D02*
X126370327Y-77164555D01*
X128370327Y-74184555D02*
X128360327Y-77174555D01*
X126370327Y-77174555D02*
X128360327Y-77174555D01*
X127380327Y-77384555D02*
X127380327Y-76264555D01*
X127380327Y-73924555D02*
X127380327Y-75204555D01*
X126370327Y-74184555D02*
X128370327Y-74184555D01*
X127380327Y-75314555D02*
X127920327Y-76264555D01*
X127370327Y-75324555D02*
X126840327Y-76234555D01*
X126840327Y-76264555D02*
X127920327Y-76264555D01*
X126840327Y-75214555D02*
X127920327Y-75214555D01*
X110173162Y-76674848D02*
X110173162Y-79644848D01*
X112173162Y-76664848D02*
X112163162Y-79654848D01*
X110173162Y-79654848D02*
X112163162Y-79654848D01*
X111183162Y-79864848D02*
X111183162Y-78744848D01*
X111183162Y-76404848D02*
X111183162Y-77684848D01*
X110173162Y-76664848D02*
X112173162Y-76664848D01*
X111183162Y-77794848D02*
X111723162Y-78744848D01*
X111173162Y-77804848D02*
X110643162Y-78714848D01*
X110643162Y-78744848D02*
X111723162Y-78744848D01*
X110643162Y-77694848D02*
X111723162Y-77694848D01*
X93975997Y-71714262D02*
X93975997Y-74684262D01*
X95975997Y-71704262D02*
X95965997Y-74694262D01*
X93975997Y-74694262D02*
X95965997Y-74694262D01*
X94985997Y-74904262D02*
X94985997Y-73784262D01*
X94985997Y-71444262D02*
X94985997Y-72724262D01*
X93975997Y-71704262D02*
X95975997Y-71704262D01*
X94985997Y-72834262D02*
X95525997Y-73784262D01*
X94975997Y-72844262D02*
X94445997Y-73754262D01*
X94445997Y-73784262D02*
X95525997Y-73784262D01*
X94445997Y-72734262D02*
X95525997Y-72734262D01*
X77778832Y-74194555D02*
X77778832Y-77164555D01*
X79778832Y-74184555D02*
X79768832Y-77174555D01*
X77778832Y-77174555D02*
X79768832Y-77174555D01*
X78788832Y-77384555D02*
X78788832Y-76264555D01*
X78788832Y-73924555D02*
X78788832Y-75204555D01*
X77778832Y-74184555D02*
X79778832Y-74184555D01*
X78788832Y-75314555D02*
X79328832Y-76264555D01*
X78778832Y-75324555D02*
X78248832Y-76234555D01*
X78248832Y-76264555D02*
X79328832Y-76264555D01*
X78248832Y-75214555D02*
X79328832Y-75214555D01*
X55102801Y-71714262D02*
X55102801Y-74684262D01*
X57102801Y-71704262D02*
X57092801Y-74694262D01*
X55102801Y-74694262D02*
X57092801Y-74694262D01*
X56112801Y-74904262D02*
X56112801Y-73784262D01*
X56112801Y-71444262D02*
X56112801Y-72724262D01*
X55102801Y-71704262D02*
X57102801Y-71704262D01*
X56112801Y-72834262D02*
X56652801Y-73784262D01*
X56102801Y-72844262D02*
X55572801Y-73754262D01*
X55572801Y-73784262D02*
X56652801Y-73784262D01*
X55572801Y-72734262D02*
X56652801Y-72734262D01*
X355709548Y-76674848D02*
X355709548Y-79644848D01*
X357709548Y-76664848D02*
X357699548Y-79654848D01*
X355709548Y-79654848D02*
X357699548Y-79654848D01*
X356719548Y-79864848D02*
X356719548Y-78744848D01*
X356719548Y-76404848D02*
X356719548Y-77684848D01*
X355709548Y-76664848D02*
X357709548Y-76664848D01*
X356719548Y-77794848D02*
X357259548Y-78744848D01*
X356709548Y-77804848D02*
X356179548Y-78714848D01*
X356179548Y-78744848D02*
X357259548Y-78744848D01*
X356179548Y-77694848D02*
X357259548Y-77694848D01*
X352175622Y-76674848D02*
X352175622Y-79644848D01*
X354175622Y-76664848D02*
X354165622Y-79654848D01*
X352175622Y-79654848D02*
X354165622Y-79654848D01*
X353185622Y-79864848D02*
X353185622Y-78744848D01*
X353185622Y-76404848D02*
X353185622Y-77684848D01*
X352175622Y-76664848D02*
X354175622Y-76664848D01*
X353185622Y-77794848D02*
X353725622Y-78744848D01*
X353175622Y-77804848D02*
X352645622Y-78714848D01*
X352645622Y-78744848D02*
X353725622Y-78744848D01*
X352645622Y-77694848D02*
X353725622Y-77694848D01*
X348641696Y-76674848D02*
X348641696Y-79644848D01*
X350641696Y-76664848D02*
X350631696Y-79654848D01*
X348641696Y-79654848D02*
X350631696Y-79654848D01*
X349651696Y-79864848D02*
X349651696Y-78744848D01*
X349651696Y-76404848D02*
X349651696Y-77684848D01*
X348641696Y-76664848D02*
X350641696Y-76664848D01*
X349651696Y-77794848D02*
X350191696Y-78744848D01*
X349641696Y-77804848D02*
X349111696Y-78714848D01*
X349111696Y-78744848D02*
X350191696Y-78744848D01*
X349111696Y-77694848D02*
X350191696Y-77694848D01*
X330972066Y-66300399D02*
X330972066Y-69270399D01*
X332972066Y-66290399D02*
X332962066Y-69280399D01*
X330972066Y-69280399D02*
X332962066Y-69280399D01*
X331982066Y-69490399D02*
X331982066Y-68370399D01*
X331982066Y-66030399D02*
X331982066Y-67310399D01*
X330972066Y-66290399D02*
X332972066Y-66290399D01*
X331982066Y-67420399D02*
X332522066Y-68370399D01*
X331972066Y-67430399D02*
X331442066Y-68340399D01*
X331442066Y-68370399D02*
X332522066Y-68370399D01*
X331442066Y-67320399D02*
X332522066Y-67320399D01*
X323904214Y-66300399D02*
X323904214Y-69270399D01*
X325904214Y-66290399D02*
X325894214Y-69280399D01*
X323904214Y-69280399D02*
X325894214Y-69280399D01*
X324914214Y-69490399D02*
X324914214Y-68370399D01*
X324914214Y-66030399D02*
X324914214Y-67310399D01*
X323904214Y-66290399D02*
X325904214Y-66290399D01*
X324914214Y-67420399D02*
X325454214Y-68370399D01*
X324904214Y-67430399D02*
X324374214Y-68340399D01*
X324374214Y-68370399D02*
X325454214Y-68370399D01*
X324374214Y-67320399D02*
X325454214Y-67320399D01*
X320370288Y-66300399D02*
X320370288Y-69270399D01*
X322370288Y-66290399D02*
X322360288Y-69280399D01*
X320370288Y-69280399D02*
X322360288Y-69280399D01*
X321380288Y-69490399D02*
X321380288Y-68370399D01*
X321380288Y-66030399D02*
X321380288Y-67310399D01*
X320370288Y-66290399D02*
X322370288Y-66290399D01*
X321380288Y-67420399D02*
X321920288Y-68370399D01*
X321370288Y-67430399D02*
X320840288Y-68340399D01*
X320840288Y-68370399D02*
X321920288Y-68370399D01*
X320840288Y-67320399D02*
X321920288Y-67320399D01*
X306234584Y-76674848D02*
X306234584Y-79644848D01*
X308234584Y-76664848D02*
X308224584Y-79654848D01*
X306234584Y-79654848D02*
X308224584Y-79654848D01*
X307244584Y-79864848D02*
X307244584Y-78744848D01*
X307244584Y-76404848D02*
X307244584Y-77684848D01*
X306234584Y-76664848D02*
X308234584Y-76664848D01*
X307244584Y-77794848D02*
X307784584Y-78744848D01*
X307234584Y-77804848D02*
X306704584Y-78714848D01*
X306704584Y-78744848D02*
X307784584Y-78744848D01*
X306704584Y-77694848D02*
X307784584Y-77694848D01*
X191159005Y-71714262D02*
X191159005Y-74684262D01*
X193159005Y-71704262D02*
X193149005Y-74694262D01*
X191159005Y-74694262D02*
X193149005Y-74694262D01*
X192169005Y-74904262D02*
X192169005Y-73784262D01*
X192169005Y-71444262D02*
X192169005Y-72724262D01*
X191159005Y-71704262D02*
X193159005Y-71704262D01*
X192169005Y-72834262D02*
X192709005Y-73784262D01*
X192159005Y-72844262D02*
X191629005Y-73754262D01*
X191629005Y-73784262D02*
X192709005Y-73784262D01*
X191629005Y-72734262D02*
X192709005Y-72734262D01*
X184680127Y-73993400D02*
X184680127Y-76963400D01*
X186680127Y-73983400D02*
X186670127Y-76973400D01*
X184680127Y-76973400D02*
X186670127Y-76973400D01*
X185690127Y-77183400D02*
X185690127Y-76063400D01*
X185690127Y-73723400D02*
X185690127Y-75003400D01*
X184680127Y-73983400D02*
X186680127Y-73983400D01*
X185690127Y-75113400D02*
X186230127Y-76063400D01*
X185680127Y-75123400D02*
X185150127Y-76033400D01*
X185150127Y-76063400D02*
X186230127Y-76063400D01*
X185150127Y-75013400D02*
X186230127Y-75013400D01*
X174961822Y-74194555D02*
X174961822Y-77164555D01*
X176961822Y-74184555D02*
X176951822Y-77174555D01*
X174961822Y-77174555D02*
X176951822Y-77174555D01*
X175971822Y-77384555D02*
X175971822Y-76264555D01*
X175971822Y-73924555D02*
X175971822Y-75204555D01*
X174961822Y-74184555D02*
X176961822Y-74184555D01*
X175971822Y-75314555D02*
X176511822Y-76264555D01*
X175961822Y-75324555D02*
X175431822Y-76234555D01*
X175431822Y-76264555D02*
X176511822Y-76264555D01*
X175431822Y-75214555D02*
X176511822Y-75214555D01*
X155525224Y-74194555D02*
X155525224Y-77164555D01*
X157525224Y-74184555D02*
X157515224Y-77174555D01*
X155525224Y-77174555D02*
X157515224Y-77174555D01*
X156535224Y-77384555D02*
X156535224Y-76264555D01*
X156535224Y-73924555D02*
X156535224Y-75204555D01*
X155525224Y-74184555D02*
X157525224Y-74184555D01*
X156535224Y-75314555D02*
X157075224Y-76264555D01*
X156525224Y-75324555D02*
X155995224Y-76234555D01*
X155995224Y-76264555D02*
X157075224Y-76264555D01*
X155995224Y-75214555D02*
X157075224Y-75214555D01*
X139328059Y-76674848D02*
X139328059Y-79644848D01*
X141328059Y-76664848D02*
X141318059Y-79654848D01*
X139328059Y-79654848D02*
X141318059Y-79654848D01*
X140338059Y-79864848D02*
X140338059Y-78744848D01*
X140338059Y-76404848D02*
X140338059Y-77684848D01*
X139328059Y-76664848D02*
X141328059Y-76664848D01*
X140338059Y-77794848D02*
X140878059Y-78744848D01*
X140328059Y-77804848D02*
X139798059Y-78714848D01*
X139798059Y-78744848D02*
X140878059Y-78744848D01*
X139798059Y-77694848D02*
X140878059Y-77694848D01*
X123130894Y-71714262D02*
X123130894Y-74684262D01*
X125130894Y-71704262D02*
X125120894Y-74694262D01*
X123130894Y-74694262D02*
X125120894Y-74694262D01*
X124140894Y-74904262D02*
X124140894Y-73784262D01*
X124140894Y-71444262D02*
X124140894Y-72724262D01*
X123130894Y-71704262D02*
X125130894Y-71704262D01*
X124140894Y-72834262D02*
X124680894Y-73784262D01*
X124130894Y-72844262D02*
X123600894Y-73754262D01*
X123600894Y-73784262D02*
X124680894Y-73784262D01*
X123600894Y-72734262D02*
X124680894Y-72734262D01*
X90736564Y-76674848D02*
X90736564Y-79644848D01*
X92736564Y-76664848D02*
X92726564Y-79654848D01*
X90736564Y-79654848D02*
X92726564Y-79654848D01*
X91746564Y-79864848D02*
X91746564Y-78744848D01*
X91746564Y-76404848D02*
X91746564Y-77684848D01*
X90736564Y-76664848D02*
X92736564Y-76664848D01*
X91746564Y-77794848D02*
X92286564Y-78744848D01*
X91736564Y-77804848D02*
X91206564Y-78714848D01*
X91206564Y-78744848D02*
X92286564Y-78744848D01*
X91206564Y-77694848D02*
X92286564Y-77694848D01*
X74539399Y-71714262D02*
X74539399Y-74684262D01*
X76539399Y-71704262D02*
X76529399Y-74694262D01*
X74539399Y-74694262D02*
X76529399Y-74694262D01*
X75549399Y-74904262D02*
X75549399Y-73784262D01*
X75549399Y-71444262D02*
X75549399Y-72724262D01*
X74539399Y-71704262D02*
X76539399Y-71704262D01*
X75549399Y-72834262D02*
X76089399Y-73784262D01*
X75539399Y-72844262D02*
X75009399Y-73754262D01*
X75009399Y-73784262D02*
X76089399Y-73784262D01*
X75009399Y-72734262D02*
X76089399Y-72734262D01*
X51863368Y-76674848D02*
X51863368Y-79644848D01*
X53863368Y-76664848D02*
X53853368Y-79654848D01*
X51863368Y-79654848D02*
X53853368Y-79654848D01*
X52873368Y-79864848D02*
X52873368Y-78744848D01*
X52873368Y-76404848D02*
X52873368Y-77684848D01*
X51863368Y-76664848D02*
X53863368Y-76664848D01*
X52873368Y-77794848D02*
X53413368Y-78744848D01*
X52863368Y-77804848D02*
X52333368Y-78714848D01*
X52333368Y-78744848D02*
X53413368Y-78744848D01*
X52333368Y-77694848D02*
X53413368Y-77694848D01*
X366311326Y-76674848D02*
X366311326Y-79644848D01*
X368311326Y-76664848D02*
X368301326Y-79654848D01*
X366311326Y-79654848D02*
X368301326Y-79654848D01*
X367321326Y-79864848D02*
X367321326Y-78744848D01*
X367321326Y-76404848D02*
X367321326Y-77684848D01*
X366311326Y-76664848D02*
X368311326Y-76664848D01*
X367321326Y-77794848D02*
X367861326Y-78744848D01*
X367311326Y-77804848D02*
X366781326Y-78714848D01*
X366781326Y-78744848D02*
X367861326Y-78744848D01*
X366781326Y-77694848D02*
X367861326Y-77694848D01*
X362777400Y-76674848D02*
X362777400Y-79644848D01*
X364777400Y-76664848D02*
X364767400Y-79654848D01*
X362777400Y-79654848D02*
X364767400Y-79654848D01*
X363787400Y-79864848D02*
X363787400Y-78744848D01*
X363787400Y-76404848D02*
X363787400Y-77684848D01*
X362777400Y-76664848D02*
X364777400Y-76664848D01*
X363787400Y-77794848D02*
X364327400Y-78744848D01*
X363777400Y-77804848D02*
X363247400Y-78714848D01*
X363247400Y-78744848D02*
X364327400Y-78744848D01*
X363247400Y-77694848D02*
X364327400Y-77694848D01*
X359243474Y-76674848D02*
X359243474Y-79644848D01*
X361243474Y-76664848D02*
X361233474Y-79654848D01*
X359243474Y-79654848D02*
X361233474Y-79654848D01*
X360253474Y-79864848D02*
X360253474Y-78744848D01*
X360253474Y-76404848D02*
X360253474Y-77684848D01*
X359243474Y-76664848D02*
X361243474Y-76664848D01*
X360253474Y-77794848D02*
X360793474Y-78744848D01*
X360243474Y-77804848D02*
X359713474Y-78714848D01*
X359713474Y-78744848D02*
X360793474Y-78744848D01*
X359713474Y-77694848D02*
X360793474Y-77694848D01*
X330972066Y-76674848D02*
X330972066Y-79644848D01*
X332972066Y-76664848D02*
X332962066Y-79654848D01*
X330972066Y-79654848D02*
X332962066Y-79654848D01*
X331982066Y-79864848D02*
X331982066Y-78744848D01*
X331982066Y-76404848D02*
X331982066Y-77684848D01*
X330972066Y-76664848D02*
X332972066Y-76664848D01*
X331982066Y-77794848D02*
X332522066Y-78744848D01*
X331972066Y-77804848D02*
X331442066Y-78714848D01*
X331442066Y-78744848D02*
X332522066Y-78744848D01*
X331442066Y-77694848D02*
X332522066Y-77694848D01*
X306234584Y-66300399D02*
X306234584Y-69270399D01*
X308234584Y-66290399D02*
X308224584Y-69280399D01*
X306234584Y-69280399D02*
X308224584Y-69280399D01*
X307244584Y-69490399D02*
X307244584Y-68370399D01*
X307244584Y-66030399D02*
X307244584Y-67310399D01*
X306234584Y-66290399D02*
X308234584Y-66290399D01*
X307244584Y-67420399D02*
X307784584Y-68370399D01*
X307234584Y-67430399D02*
X306704584Y-68340399D01*
X306704584Y-68370399D02*
X307784584Y-68370399D01*
X306704584Y-67320399D02*
X307784584Y-67320399D01*
X204116761Y-73993400D02*
X204116761Y-76963400D01*
X206116761Y-73983400D02*
X206106761Y-76973400D01*
X204116761Y-76973400D02*
X206106761Y-76973400D01*
X205126761Y-77183400D02*
X205126761Y-76063400D01*
X205126761Y-73723400D02*
X205126761Y-75003400D01*
X204116761Y-73983400D02*
X206116761Y-73983400D01*
X205126761Y-75113400D02*
X205666761Y-76063400D01*
X205116761Y-75123400D02*
X204586761Y-76033400D01*
X204586761Y-76063400D02*
X205666761Y-76063400D01*
X204586761Y-75013400D02*
X205666761Y-75013400D01*
X187919566Y-76674848D02*
X187919566Y-79644848D01*
X189919566Y-76664848D02*
X189909566Y-79654848D01*
X187919566Y-79654848D02*
X189909566Y-79654848D01*
X188929566Y-79864848D02*
X188929566Y-78744848D01*
X188929566Y-76404848D02*
X188929566Y-77684848D01*
X187919566Y-76664848D02*
X189919566Y-76664848D01*
X188929566Y-77794848D02*
X189469566Y-78744848D01*
X188919566Y-77804848D02*
X188389566Y-78714848D01*
X188389566Y-78744848D02*
X189469566Y-78744848D01*
X188389566Y-77694848D02*
X189469566Y-77694848D01*
X171722389Y-71714262D02*
X171722389Y-74684262D01*
X173722389Y-71704262D02*
X173712389Y-74694262D01*
X171722389Y-74694262D02*
X173712389Y-74694262D01*
X172732389Y-74904262D02*
X172732389Y-73784262D01*
X172732389Y-71444262D02*
X172732389Y-72724262D01*
X171722389Y-71704262D02*
X173722389Y-71704262D01*
X172732389Y-72834262D02*
X173272389Y-73784262D01*
X172722389Y-72844262D02*
X172192389Y-73754262D01*
X172192389Y-73784262D02*
X173272389Y-73784262D01*
X172192389Y-72734262D02*
X173272389Y-72734262D01*
X165243523Y-74194555D02*
X165243523Y-77164555D01*
X167243523Y-74184555D02*
X167233523Y-77174555D01*
X165243523Y-77174555D02*
X167233523Y-77174555D01*
X166253523Y-77384555D02*
X166253523Y-76264555D01*
X166253523Y-73924555D02*
X166253523Y-75204555D01*
X165243523Y-74184555D02*
X167243523Y-74184555D01*
X166253523Y-75314555D02*
X166793523Y-76264555D01*
X166243523Y-75324555D02*
X165713523Y-76234555D01*
X165713523Y-76264555D02*
X166793523Y-76264555D01*
X165713523Y-75214555D02*
X166793523Y-75214555D01*
X152285791Y-71714262D02*
X152285791Y-74684262D01*
X154285791Y-71704262D02*
X154275791Y-74694262D01*
X152285791Y-74694262D02*
X154275791Y-74694262D01*
X153295791Y-74904262D02*
X153295791Y-73784262D01*
X153295791Y-71444262D02*
X153295791Y-72724262D01*
X152285791Y-71704262D02*
X154285791Y-71704262D01*
X153295791Y-72834262D02*
X153835791Y-73784262D01*
X153285791Y-72844262D02*
X152755791Y-73754262D01*
X152755791Y-73784262D02*
X153835791Y-73784262D01*
X152755791Y-72734262D02*
X153835791Y-72734262D01*
X132849193Y-71714262D02*
X132849193Y-74684262D01*
X134849193Y-71704262D02*
X134839193Y-74694262D01*
X132849193Y-74694262D02*
X134839193Y-74694262D01*
X133859193Y-74904262D02*
X133859193Y-73784262D01*
X133859193Y-71444262D02*
X133859193Y-72724262D01*
X132849193Y-71704262D02*
X134849193Y-71704262D01*
X133859193Y-72834262D02*
X134399193Y-73784262D01*
X133849193Y-72844262D02*
X133319193Y-73754262D01*
X133319193Y-73784262D02*
X134399193Y-73784262D01*
X133319193Y-72734262D02*
X134399193Y-72734262D01*
X116652028Y-74194555D02*
X116652028Y-77164555D01*
X118652028Y-74184555D02*
X118642028Y-77174555D01*
X116652028Y-77174555D02*
X118642028Y-77174555D01*
X117662028Y-77384555D02*
X117662028Y-76264555D01*
X117662028Y-73924555D02*
X117662028Y-75204555D01*
X116652028Y-74184555D02*
X118652028Y-74184555D01*
X117662028Y-75314555D02*
X118202028Y-76264555D01*
X117652028Y-75324555D02*
X117122028Y-76234555D01*
X117122028Y-76264555D02*
X118202028Y-76264555D01*
X117122028Y-75214555D02*
X118202028Y-75214555D01*
X100454863Y-76674848D02*
X100454863Y-79644848D01*
X102454863Y-76664848D02*
X102444863Y-79654848D01*
X100454863Y-79654848D02*
X102444863Y-79654848D01*
X101464863Y-79864848D02*
X101464863Y-78744848D01*
X101464863Y-76404848D02*
X101464863Y-77684848D01*
X100454863Y-76664848D02*
X102454863Y-76664848D01*
X101464863Y-77794848D02*
X102004863Y-78744848D01*
X101454863Y-77804848D02*
X100924863Y-78714848D01*
X100924863Y-78744848D02*
X102004863Y-78744848D01*
X100924863Y-77694848D02*
X102004863Y-77694848D01*
X84257698Y-71714262D02*
X84257698Y-74684262D01*
X86257698Y-71704262D02*
X86247698Y-74694262D01*
X84257698Y-74694262D02*
X86247698Y-74694262D01*
X85267698Y-74904262D02*
X85267698Y-73784262D01*
X85267698Y-71444262D02*
X85267698Y-72724262D01*
X84257698Y-71704262D02*
X86257698Y-71704262D01*
X85267698Y-72834262D02*
X85807698Y-73784262D01*
X85257698Y-72844262D02*
X84727698Y-73754262D01*
X84727698Y-73784262D02*
X85807698Y-73784262D01*
X84727698Y-72734262D02*
X85807698Y-72734262D01*
X48623935Y-74194555D02*
X48623935Y-77164555D01*
X50623935Y-74184555D02*
X50613935Y-77174555D01*
X48623935Y-77174555D02*
X50613935Y-77174555D01*
X49633935Y-77384555D02*
X49633935Y-76264555D01*
X49633935Y-73924555D02*
X49633935Y-75204555D01*
X48623935Y-74184555D02*
X50623935Y-74184555D01*
X49633935Y-75314555D02*
X50173935Y-76264555D01*
X49623935Y-75324555D02*
X49093935Y-76234555D01*
X49093935Y-76264555D02*
X50173935Y-76264555D01*
X49093935Y-75214555D02*
X50173935Y-75214555D01*
X373379198Y-76674848D02*
X373379198Y-79644848D01*
X375379198Y-76664848D02*
X375369198Y-79654848D01*
X373379198Y-79654848D02*
X375369198Y-79654848D01*
X374389198Y-79864848D02*
X374389198Y-78744848D01*
X374389198Y-76404848D02*
X374389198Y-77684848D01*
X373379198Y-76664848D02*
X375379198Y-76664848D01*
X374389198Y-77794848D02*
X374929198Y-78744848D01*
X374379198Y-77804848D02*
X373849198Y-78714848D01*
X373849198Y-78744848D02*
X374929198Y-78744848D01*
X373849198Y-77694848D02*
X374929198Y-77694848D01*
X369845252Y-76674848D02*
X369845252Y-79644848D01*
X371845252Y-76664848D02*
X371835252Y-79654848D01*
X369845252Y-79654848D02*
X371835252Y-79654848D01*
X370855252Y-79864848D02*
X370855252Y-78744848D01*
X370855252Y-76404848D02*
X370855252Y-77684848D01*
X369845252Y-76664848D02*
X371845252Y-76664848D01*
X370855252Y-77794848D02*
X371395252Y-78744848D01*
X370845252Y-77804848D02*
X370315252Y-78714848D01*
X370315252Y-78744848D02*
X371395252Y-78744848D01*
X370315252Y-77694848D02*
X371395252Y-77694848D01*
X334505992Y-66300399D02*
X334505992Y-69270399D01*
X336505992Y-66290399D02*
X336495992Y-69280399D01*
X334505992Y-69280399D02*
X336495992Y-69280399D01*
X335515992Y-69490399D02*
X335515992Y-68370399D01*
X335515992Y-66030399D02*
X335515992Y-67310399D01*
X334505992Y-66290399D02*
X336505992Y-66290399D01*
X335515992Y-67420399D02*
X336055992Y-68370399D01*
X335505992Y-67430399D02*
X334975992Y-68340399D01*
X334975992Y-68370399D02*
X336055992Y-68370399D01*
X334975992Y-67320399D02*
X336055992Y-67320399D01*
X295632806Y-66300399D02*
X295632806Y-69270399D01*
X297632806Y-66290399D02*
X297622806Y-69280399D01*
X295632806Y-69280399D02*
X297622806Y-69280399D01*
X296642806Y-69490399D02*
X296642806Y-68370399D01*
X296642806Y-66030399D02*
X296642806Y-67310399D01*
X295632806Y-66290399D02*
X297632806Y-66290399D01*
X296642806Y-67420399D02*
X297182806Y-68370399D01*
X296632806Y-67430399D02*
X296102806Y-68340399D01*
X296102806Y-68370399D02*
X297182806Y-68370399D01*
X296102806Y-67320399D02*
X297182806Y-67320399D01*
X295632806Y-76674848D02*
X295632806Y-79644848D01*
X297632806Y-76664848D02*
X297622806Y-79654848D01*
X295632806Y-79654848D02*
X297622806Y-79654848D01*
X296642806Y-79864848D02*
X296642806Y-78744848D01*
X296642806Y-76404848D02*
X296642806Y-77684848D01*
X295632806Y-76664848D02*
X297632806Y-76664848D01*
X296642806Y-77794848D02*
X297182806Y-78744848D01*
X296632806Y-77804848D02*
X296102806Y-78714848D01*
X296102806Y-78744848D02*
X297182806Y-78744848D01*
X296102806Y-77694848D02*
X297182806Y-77694848D01*
X299166732Y-66300399D02*
X299166732Y-69270399D01*
X301166732Y-66290399D02*
X301156732Y-69280399D01*
X299166732Y-69280399D02*
X301156732Y-69280399D01*
X300176732Y-69490399D02*
X300176732Y-68370399D01*
X300176732Y-66030399D02*
X300176732Y-67310399D01*
X299166732Y-66290399D02*
X301166732Y-66290399D01*
X300176732Y-67420399D02*
X300716732Y-68370399D01*
X300166732Y-67430399D02*
X299636732Y-68340399D01*
X299636732Y-68370399D02*
X300716732Y-68370399D01*
X299636732Y-67320399D02*
X300716732Y-67320399D01*
X299166732Y-76674848D02*
X299166732Y-79644848D01*
X301166732Y-76664848D02*
X301156732Y-79654848D01*
X299166732Y-79654848D02*
X301156732Y-79654848D01*
X300176732Y-79864848D02*
X300176732Y-78744848D01*
X300176732Y-76404848D02*
X300176732Y-77684848D01*
X299166732Y-76664848D02*
X301166732Y-76664848D01*
X300176732Y-77794848D02*
X300716732Y-78744848D01*
X300166732Y-77804848D02*
X299636732Y-78714848D01*
X299636732Y-78744848D02*
X300716732Y-78744848D01*
X299636732Y-77694848D02*
X300716732Y-77694848D01*
X302700658Y-66300399D02*
X302700658Y-69270399D01*
X304700658Y-66290399D02*
X304690658Y-69280399D01*
X302700658Y-69280399D02*
X304690658Y-69280399D01*
X303710658Y-69490399D02*
X303710658Y-68370399D01*
X303710658Y-66030399D02*
X303710658Y-67310399D01*
X302700658Y-66290399D02*
X304700658Y-66290399D01*
X303710658Y-67420399D02*
X304250658Y-68370399D01*
X303700658Y-67430399D02*
X303170658Y-68340399D01*
X303170658Y-68370399D02*
X304250658Y-68370399D01*
X303170658Y-67320399D02*
X304250658Y-67320399D01*
X302700658Y-76674848D02*
X302700658Y-79644848D01*
X304700658Y-76664848D02*
X304690658Y-79654848D01*
X302700658Y-79654848D02*
X304690658Y-79654848D01*
X303710658Y-79864848D02*
X303710658Y-78744848D01*
X303710658Y-76404848D02*
X303710658Y-77684848D01*
X302700658Y-76664848D02*
X304700658Y-76664848D01*
X303710658Y-77794848D02*
X304250658Y-78744848D01*
X303700658Y-77804848D02*
X303170658Y-78714848D01*
X303170658Y-78744848D02*
X304250658Y-78744848D01*
X303170658Y-77694848D02*
X304250658Y-77694848D01*
X200877322Y-71714262D02*
X200877322Y-74684262D01*
X202877322Y-71704262D02*
X202867322Y-74694262D01*
X200877322Y-74694262D02*
X202867322Y-74694262D01*
X201887322Y-74904262D02*
X201887322Y-73784262D01*
X201887322Y-71444262D02*
X201887322Y-72724262D01*
X200877322Y-71704262D02*
X202877322Y-71704262D01*
X201887322Y-72834262D02*
X202427322Y-73784262D01*
X201877322Y-72844262D02*
X201347322Y-73754262D01*
X201347322Y-73784262D02*
X202427322Y-73784262D01*
X201347322Y-72734262D02*
X202427322Y-72734262D01*
X168482956Y-76674848D02*
X168482956Y-79644848D01*
X170482956Y-76664848D02*
X170472956Y-79654848D01*
X168482956Y-79654848D02*
X170472956Y-79654848D01*
X169492956Y-79864848D02*
X169492956Y-78744848D01*
X169492956Y-76404848D02*
X169492956Y-77684848D01*
X168482956Y-76664848D02*
X170482956Y-76664848D01*
X169492956Y-77794848D02*
X170032956Y-78744848D01*
X169482956Y-77804848D02*
X168952956Y-78714848D01*
X168952956Y-78744848D02*
X170032956Y-78744848D01*
X168952956Y-77694848D02*
X170032956Y-77694848D01*
X136088626Y-74194555D02*
X136088626Y-77164555D01*
X138088626Y-74184555D02*
X138078626Y-77174555D01*
X136088626Y-77174555D02*
X138078626Y-77174555D01*
X137098626Y-77384555D02*
X137098626Y-76264555D01*
X137098626Y-73924555D02*
X137098626Y-75204555D01*
X136088626Y-74184555D02*
X138088626Y-74184555D01*
X137098626Y-75314555D02*
X137638626Y-76264555D01*
X137088626Y-75324555D02*
X136558626Y-76234555D01*
X136558626Y-76264555D02*
X137638626Y-76264555D01*
X136558626Y-75214555D02*
X137638626Y-75214555D01*
X119891461Y-76674848D02*
X119891461Y-79644848D01*
X121891461Y-76664848D02*
X121881461Y-79654848D01*
X119891461Y-79654848D02*
X121881461Y-79654848D01*
X120901461Y-79864848D02*
X120901461Y-78744848D01*
X120901461Y-76404848D02*
X120901461Y-77684848D01*
X119891461Y-76664848D02*
X121891461Y-76664848D01*
X120901461Y-77794848D02*
X121441461Y-78744848D01*
X120891461Y-77804848D02*
X120361461Y-78714848D01*
X120361461Y-78744848D02*
X121441461Y-78744848D01*
X120361461Y-77694848D02*
X121441461Y-77694848D01*
X103694296Y-71714262D02*
X103694296Y-74684262D01*
X105694296Y-71704262D02*
X105684296Y-74694262D01*
X103694296Y-74694262D02*
X105684296Y-74694262D01*
X104704296Y-74904262D02*
X104704296Y-73784262D01*
X104704296Y-71444262D02*
X104704296Y-72724262D01*
X103694296Y-71704262D02*
X105694296Y-71704262D01*
X104704296Y-72834262D02*
X105244296Y-73784262D01*
X104694296Y-72844262D02*
X104164296Y-73754262D01*
X104164296Y-73784262D02*
X105244296Y-73784262D01*
X104164296Y-72734262D02*
X105244296Y-72734262D01*
X87497131Y-74194555D02*
X87497131Y-77164555D01*
X89497131Y-74184555D02*
X89487131Y-77174555D01*
X87497131Y-77174555D02*
X89487131Y-77174555D01*
X88507131Y-77384555D02*
X88507131Y-76264555D01*
X88507131Y-73924555D02*
X88507131Y-75204555D01*
X87497131Y-74184555D02*
X89497131Y-74184555D01*
X88507131Y-75314555D02*
X89047131Y-76264555D01*
X88497131Y-75324555D02*
X87967131Y-76234555D01*
X87967131Y-76264555D02*
X89047131Y-76264555D01*
X87967131Y-75214555D02*
X89047131Y-75214555D01*
X45384502Y-71714262D02*
X45384502Y-74684262D01*
X47384502Y-71704262D02*
X47374502Y-74694262D01*
X45384502Y-74694262D02*
X47374502Y-74694262D01*
X46394502Y-74904262D02*
X46394502Y-73784262D01*
X46394502Y-71444262D02*
X46394502Y-72724262D01*
X45384502Y-71704262D02*
X47384502Y-71704262D01*
X46394502Y-72834262D02*
X46934502Y-73784262D01*
X46384502Y-72844262D02*
X45854502Y-73754262D01*
X45854502Y-73784262D02*
X46934502Y-73784262D01*
X45854502Y-72734262D02*
X46934502Y-72734262D01*
X256255400Y-83528800D02*
X256255400Y-83543800D01*
X256255400Y-81403800D02*
X256255400Y-81418800D01*
X251715400Y-83528800D02*
X251715400Y-83543800D01*
X251715400Y-81403800D02*
X251715400Y-81418800D01*
X251715400Y-83543800D02*
X256255400Y-83543800D01*
X251715400Y-81403800D02*
X256255400Y-81403800D01*
X253573400Y-61251200D02*
X253573400Y-61236200D01*
X253573400Y-63376200D02*
X253573400Y-63361200D01*
X258113400Y-61251200D02*
X258113400Y-61236200D01*
X258113400Y-63376200D02*
X258113400Y-63361200D01*
X258113400Y-61236200D02*
X253573400Y-61236200D01*
X258113400Y-63376200D02*
X253573400Y-63376200D01*
X219468559Y-72711444D02*
G75*
G03X219468559Y-72711444I-2120000J0D01*
G01*
X218188559Y-72711444D02*
X219428559Y-72711444D01*
X215268559Y-72711444D02*
X216508559Y-72711444D01*
X218188559Y-72671444D02*
X219428559Y-72671444D01*
X215268559Y-72671444D02*
X216508559Y-72671444D01*
X218188559Y-72631444D02*
X219427559Y-72631444D01*
X215269559Y-72631444D02*
X216508559Y-72631444D01*
X215271559Y-72591444D02*
X216508559Y-72591444D01*
X218188559Y-72591444D02*
X219425559Y-72591444D01*
X215274559Y-72551444D02*
X216508559Y-72551444D01*
X218188559Y-72551444D02*
X219422559Y-72551444D01*
X215277559Y-72511444D02*
X216508559Y-72511444D01*
X218188559Y-72511444D02*
X219419559Y-72511444D01*
X215281559Y-72471444D02*
X216508559Y-72471444D01*
X218188559Y-72471444D02*
X219415559Y-72471444D01*
X215286559Y-72431444D02*
X216508559Y-72431444D01*
X218188559Y-72431444D02*
X219410559Y-72431444D01*
X215292559Y-72391444D02*
X216508559Y-72391444D01*
X218188559Y-72391444D02*
X219404559Y-72391444D01*
X215298559Y-72351444D02*
X216508559Y-72351444D01*
X218188559Y-72351444D02*
X219398559Y-72351444D01*
X215306559Y-72311444D02*
X216508559Y-72311444D01*
X218188559Y-72311444D02*
X219390559Y-72311444D01*
X215314559Y-72271444D02*
X216508559Y-72271444D01*
X218188559Y-72271444D02*
X219382559Y-72271444D01*
X215323559Y-72231444D02*
X216508559Y-72231444D01*
X218188559Y-72231444D02*
X219373559Y-72231444D01*
X215332559Y-72191444D02*
X216508559Y-72191444D01*
X218188559Y-72191444D02*
X219364559Y-72191444D01*
X215343559Y-72151444D02*
X216508559Y-72151444D01*
X218188559Y-72151444D02*
X219353559Y-72151444D01*
X215354559Y-72111444D02*
X216508559Y-72111444D01*
X218188559Y-72111444D02*
X219342559Y-72111444D01*
X215366559Y-72071444D02*
X216508559Y-72071444D01*
X218188559Y-72071444D02*
X219330559Y-72071444D01*
X215380559Y-72031444D02*
X216508559Y-72031444D01*
X218188559Y-72031444D02*
X219316559Y-72031444D01*
X215394559Y-71990444D02*
X216508559Y-71990444D01*
X218188559Y-71990444D02*
X219302559Y-71990444D01*
X215408559Y-71950444D02*
X216508559Y-71950444D01*
X218188559Y-71950444D02*
X219288559Y-71950444D01*
X215424559Y-71910444D02*
X216508559Y-71910444D01*
X218188559Y-71910444D02*
X219272559Y-71910444D01*
X215441559Y-71870444D02*
X216508559Y-71870444D01*
X218188559Y-71870444D02*
X219255559Y-71870444D01*
X215459559Y-71830444D02*
X216508559Y-71830444D01*
X218188559Y-71830444D02*
X219237559Y-71830444D01*
X215478559Y-71790444D02*
X216508559Y-71790444D01*
X218188559Y-71790444D02*
X219218559Y-71790444D01*
X215497559Y-71750444D02*
X216508559Y-71750444D01*
X218188559Y-71750444D02*
X219199559Y-71750444D01*
X215518559Y-71710444D02*
X216508559Y-71710444D01*
X218188559Y-71710444D02*
X219178559Y-71710444D01*
X215540559Y-71670444D02*
X216508559Y-71670444D01*
X218188559Y-71670444D02*
X219156559Y-71670444D01*
X215563559Y-71630444D02*
X216508559Y-71630444D01*
X218188559Y-71630444D02*
X219133559Y-71630444D01*
X215588559Y-71590444D02*
X216508559Y-71590444D01*
X218188559Y-71590444D02*
X219108559Y-71590444D01*
X215613559Y-71550444D02*
X216508559Y-71550444D01*
X218188559Y-71550444D02*
X219083559Y-71550444D01*
X215640559Y-71510444D02*
X216508559Y-71510444D01*
X218188559Y-71510444D02*
X219056559Y-71510444D01*
X215668559Y-71470444D02*
X216508559Y-71470444D01*
X218188559Y-71470444D02*
X219028559Y-71470444D01*
X215698559Y-71430444D02*
X216508559Y-71430444D01*
X218188559Y-71430444D02*
X218998559Y-71430444D01*
X215729559Y-71390444D02*
X216508559Y-71390444D01*
X218188559Y-71390444D02*
X218967559Y-71390444D01*
X215761559Y-71350444D02*
X216508559Y-71350444D01*
X218188559Y-71350444D02*
X218935559Y-71350444D01*
X215796559Y-71310444D02*
X216508559Y-71310444D01*
X218188559Y-71310444D02*
X218900559Y-71310444D01*
X215832559Y-71270444D02*
X216508559Y-71270444D01*
X218188559Y-71270444D02*
X218864559Y-71270444D01*
X215870559Y-71230444D02*
X216508559Y-71230444D01*
X218188559Y-71230444D02*
X218826559Y-71230444D01*
X215910559Y-71190444D02*
X216508559Y-71190444D01*
X218188559Y-71190444D02*
X218786559Y-71190444D01*
X215952559Y-71150444D02*
X216508559Y-71150444D01*
X218188559Y-71150444D02*
X218744559Y-71150444D01*
X215997559Y-71110444D02*
X218699559Y-71110444D01*
X216044559Y-71070444D02*
X218652559Y-71070444D01*
X216094559Y-71030444D02*
X218602559Y-71030444D01*
X216148559Y-70990444D02*
X218548559Y-70990444D01*
X216206559Y-70950444D02*
X218490559Y-70950444D01*
X216268559Y-70910444D02*
X218428559Y-70910444D01*
X216335559Y-70870444D02*
X218361559Y-70870444D01*
X216408559Y-70830444D02*
X218288559Y-70830444D01*
X216489559Y-70790444D02*
X218207559Y-70790444D01*
X216580559Y-70750444D02*
X218116559Y-70750444D01*
X216684559Y-70710444D02*
X218012559Y-70710444D01*
X216811559Y-70670444D02*
X217885559Y-70670444D01*
X216978559Y-70630444D02*
X217718559Y-70630444D01*
X216153559Y-74981245D02*
X216153559Y-74581245D01*
X215953559Y-74781245D02*
X216353559Y-74781245D01*
X259949200Y-85129400D02*
X259949200Y-83871400D01*
X258109200Y-85129400D02*
X258109200Y-83871400D01*
X274274800Y-85129400D02*
X274274800Y-83871400D01*
X272434800Y-85129400D02*
X272434800Y-83871400D01*
X177176297Y-65865000D02*
X177176297Y-64365000D01*
X175926297Y-61865000D02*
X171426297Y-61865000D01*
X170176297Y-64365000D02*
X170176297Y-65865000D01*
X171426297Y-68365000D02*
X175926297Y-68365000D01*
D10*
X202877068Y-66567523D02*
X202877068Y-66900857D01*
X203400877Y-66900857D02*
X202400877Y-66900857D01*
X202400877Y-66424666D01*
X202400877Y-66043714D02*
X203210401Y-66043714D01*
X203305639Y-65996095D01*
X203353258Y-65948476D01*
X203400877Y-65853238D01*
X203400877Y-65662761D01*
X203353258Y-65567523D01*
X203305639Y-65519904D01*
X203210401Y-65472285D01*
X202400877Y-65472285D01*
X203353258Y-65043714D02*
X203400877Y-64900857D01*
X203400877Y-64662761D01*
X203353258Y-64567523D01*
X203305639Y-64519904D01*
X203210401Y-64472285D01*
X203115163Y-64472285D01*
X203019925Y-64519904D01*
X202972306Y-64567523D01*
X202924687Y-64662761D01*
X202877068Y-64853238D01*
X202829449Y-64948476D01*
X202781830Y-64996095D01*
X202686592Y-65043714D01*
X202591354Y-65043714D01*
X202496116Y-64996095D01*
X202448497Y-64948476D01*
X202400877Y-64853238D01*
X202400877Y-64615142D01*
X202448497Y-64472285D01*
X202877068Y-64043714D02*
X202877068Y-63710380D01*
X203400877Y-63567523D02*
X203400877Y-64043714D01*
X202400877Y-64043714D01*
X202400877Y-63567523D01*
M02*
