M48
; DRILL file {KiCad 6.0.10-86aedd382b~118~ubuntu22.10.1} date Wed 22 Feb 2023 16:30:18 CET
; FORMAT={-:-/ absolute / metric / decimal}
; #@! TF.CreationDate,2023-02-22T16:30:18+01:00
; #@! TF.GenerationSoftware,Kicad,Pcbnew,6.0.10-86aedd382b~118~ubuntu22.10.1
; #@! TF.FileFunction,NonPlated,1,2,NPTH
FMAT,2
METRIC
; #@! TA.AperFunction,NonPlated,NPTH,ComponentDrill
T1C1.200
; #@! TA.AperFunction,NonPlated,NPTH,ComponentDrill
T2C1.700
; #@! TA.AperFunction,NonPlated,NPTH,ComponentDrill
T3C3.048
; #@! TA.AperFunction,NonPlated,NPTH,ComponentDrill
T4C3.050
; #@! TA.AperFunction,NonPlated,NPTH,ComponentDrill
T5C3.988
; #@! TA.AperFunction,NonPlated,NPTH,ComponentDrill
T6C4.000
%
G90
G05
T1
X55.048Y-57.33
X55.048Y-64.33
X366.91Y-57.33
X366.91Y-64.33
T2
X41.593Y-92.392
X41.593Y-116.205
X43.974Y-154.305
X43.974Y-173.355
X43.974Y-192.405
X46.355Y-135.255
X46.355Y-192.405
X48.736Y-154.305
X51.752Y-92.392
X51.752Y-116.205
X53.499Y-173.355
X54.134Y-154.305
X54.134Y-173.355
X54.134Y-192.405
X56.515Y-135.255
X56.515Y-192.405
X58.896Y-154.305
X60.642Y-116.205
X63.659Y-173.355
X65.405Y-173.355
X67.786Y-192.405
X70.167Y-135.255
X70.167Y-192.405
X70.802Y-116.205
X74.93Y-154.305
X75.565Y-173.355
X77.946Y-192.405
X79.692Y-92.392
X79.692Y-116.205
X80.328Y-135.255
X80.328Y-192.405
X84.455Y-173.355
X85.09Y-154.305
X89.218Y-135.255
X89.852Y-92.392
X89.852Y-116.205
X91.599Y-192.405
X93.98Y-154.305
X93.98Y-192.405
X94.615Y-173.355
X98.742Y-92.392
X98.742Y-116.205
X99.377Y-135.255
X101.759Y-192.405
X103.505Y-173.355
X104.14Y-154.305
X104.14Y-192.405
X108.267Y-135.255
X108.902Y-92.392
X108.902Y-116.205
X113.03Y-154.305
X113.665Y-173.355
X117.792Y-92.392
X117.792Y-116.205
X118.427Y-135.255
X122.555Y-173.355
X123.19Y-154.305
X127.317Y-135.255
X127.953Y-92.392
X127.953Y-116.205
X132.08Y-154.305
X132.715Y-173.355
X136.843Y-92.392
X136.843Y-116.205
X137.477Y-135.255
X141.605Y-173.355
X142.24Y-154.305
X146.368Y-135.255
X147.002Y-92.392
X147.002Y-116.205
X151.13Y-154.305
X151.765Y-173.355
X155.892Y-116.205
X156.528Y-135.255
X160.655Y-173.355
X161.29Y-154.305
X163.036Y-192.405
X165.417Y-92.392
X165.417Y-135.255
X166.052Y-116.205
X170.18Y-154.305
X170.815Y-173.355
X173.196Y-192.405
X174.942Y-116.205
X174.942Y-192.405
X175.577Y-92.392
X175.577Y-135.255
X179.705Y-173.355
X180.34Y-154.305
X184.468Y-92.392
X184.468Y-135.255
X185.102Y-116.205
X185.102Y-192.405
X189.23Y-154.305
X189.865Y-173.355
X193.992Y-116.205
X194.627Y-92.392
X194.627Y-135.255
X198.755Y-173.355
X199.39Y-154.305
X203.517Y-92.392
X203.517Y-135.255
X204.153Y-116.205
X208.28Y-154.305
X208.915Y-173.355
X213.042Y-116.205
X213.677Y-92.392
X213.677Y-135.255
X217.805Y-173.355
X218.44Y-154.305
X222.567Y-92.392
X222.567Y-135.255
X223.202Y-116.205
X227.33Y-154.305
X227.965Y-173.355
X232.093Y-116.205
X232.727Y-92.392
X232.727Y-135.255
X234.474Y-192.405
X236.855Y-173.355
X237.49Y-154.305
X241.617Y-135.255
X242.252Y-116.205
X244.634Y-192.405
X246.38Y-154.305
X247.015Y-173.355
X251.142Y-92.392
X251.142Y-116.205
X251.777Y-135.255
X255.905Y-173.355
X255.905Y-192.405
X256.54Y-154.305
X258.286Y-192.405
X260.667Y-135.255
X261.303Y-92.392
X261.303Y-116.205
X265.43Y-154.305
X266.065Y-173.355
X266.065Y-192.405
X268.446Y-192.405
X270.192Y-92.392
X270.192Y-116.205
X270.827Y-135.255
X275.59Y-154.305
X279.717Y-135.255
X279.717Y-192.405
X280.352Y-92.392
X280.352Y-116.205
X282.099Y-173.355
X282.099Y-192.405
X284.48Y-154.305
X289.243Y-92.392
X289.243Y-116.205
X289.877Y-135.255
X289.877Y-192.405
X291.624Y-173.361
X292.259Y-173.355
X292.259Y-192.405
X294.64Y-154.305
X296.386Y-154.305
X298.767Y-116.205
X299.402Y-92.392
X299.402Y-116.205
X301.784Y-173.361
X303.53Y-135.255
X303.53Y-192.405
X305.911Y-192.405
X305.912Y-144.78
X306.546Y-154.305
X308.292Y-92.392
X308.292Y-116.205
X308.292Y-173.355
X308.928Y-116.205
X313.69Y-135.255
X313.69Y-192.405
X316.071Y-192.405
X316.072Y-144.78
X318.452Y-92.392
X318.452Y-116.205
X318.452Y-173.355
X332.105Y-92.392
X332.105Y-116.205
X332.105Y-135.255
X332.105Y-192.405
X342.265Y-92.392
X342.265Y-116.205
X342.265Y-135.255
X342.265Y-192.405
X351.155Y-92.392
X351.155Y-116.205
X351.155Y-135.255
X351.155Y-173.355
X351.155Y-192.405
X361.315Y-92.392
X361.315Y-116.205
X361.315Y-135.255
X361.315Y-173.355
X361.315Y-192.405
X370.205Y-92.392
X370.205Y-116.205
X370.205Y-135.255
X370.205Y-192.405
X380.365Y-92.392
X380.365Y-116.205
X380.365Y-135.255
X380.365Y-192.405
T3
X118.11Y-199.403
X122.872Y-199.39
X218.11Y-199.403
X237.172Y-199.39
T4
X46.679Y-166.355
X70.479Y-166.355
X284.804Y-166.361
X289.566Y-147.305
X291.947Y-109.205
X308.604Y-166.361
X313.366Y-147.305
X315.748Y-109.205
X317.992Y-132.88
X317.992Y-156.68
T5
X118.11Y-184.163
X122.872Y-184.15
X218.11Y-184.163
X237.172Y-184.15
T6
X46.672Y-92.392
X46.672Y-116.205
X46.679Y-181.595
X49.054Y-154.305
X49.054Y-173.355
X49.054Y-192.405
X51.435Y-135.255
X51.435Y-192.405
X53.816Y-154.305
X58.579Y-173.355
X65.722Y-116.205
X70.479Y-181.595
X70.485Y-173.355
X72.866Y-192.405
X75.248Y-135.255
X75.248Y-192.405
X80.01Y-154.305
X84.772Y-92.392
X84.772Y-116.205
X89.535Y-173.355
X94.297Y-135.255
X96.679Y-192.405
X99.06Y-154.305
X99.06Y-192.405
X103.822Y-92.392
X103.822Y-116.205
X108.585Y-173.355
X113.347Y-135.255
X118.11Y-154.305
X122.872Y-92.392
X122.872Y-116.205
X127.635Y-173.355
X132.398Y-135.255
X137.16Y-154.305
X141.922Y-92.392
X141.922Y-116.205
X146.685Y-173.355
X151.447Y-135.255
X156.21Y-154.305
X160.972Y-116.205
X165.735Y-173.355
X168.116Y-192.405
X170.498Y-92.392
X170.498Y-135.255
X175.26Y-154.305
X180.022Y-116.205
X180.022Y-192.405
X184.785Y-173.355
X189.547Y-92.392
X189.547Y-135.255
X194.31Y-154.305
X199.072Y-116.205
X203.835Y-173.355
X208.597Y-92.392
X208.597Y-135.255
X213.36Y-154.305
X218.123Y-116.205
X222.885Y-173.355
X227.647Y-92.392
X227.647Y-135.255
X232.41Y-154.305
X237.172Y-116.205
X239.554Y-192.405
X241.935Y-173.355
X246.697Y-135.255
X251.46Y-154.305
X256.222Y-92.392
X256.222Y-116.205
X260.985Y-173.355
X260.985Y-192.405
X263.366Y-192.405
X265.748Y-135.255
X270.51Y-154.305
X275.272Y-92.392
X275.272Y-116.205
X284.798Y-135.255
X284.798Y-192.405
X284.804Y-181.601
X287.179Y-173.355
X287.179Y-192.405
X289.56Y-154.305
X289.566Y-162.545
X291.947Y-124.445
X294.322Y-92.392
X294.322Y-116.205
X296.704Y-173.361
X301.466Y-154.305
X302.752Y-132.88
X302.752Y-156.68
X303.847Y-116.205
X308.604Y-181.601
X308.61Y-135.255
X308.61Y-192.405
X310.991Y-192.405
X310.992Y-144.78
X313.366Y-162.545
X313.373Y-92.392
X313.373Y-116.205
X313.373Y-173.355
X315.748Y-124.445
X337.185Y-92.392
X337.185Y-116.205
X337.185Y-135.255
X337.185Y-192.405
X356.235Y-92.392
X356.235Y-116.205
X356.235Y-135.255
X356.235Y-173.355
X356.235Y-192.405
X375.285Y-92.392
X375.285Y-116.205
X375.285Y-135.255
X375.285Y-192.405
T0
M30
