%TF.GenerationSoftware,KiCad,Pcbnew,6.0.10-86aedd382b~118~ubuntu22.10.1*%
%TF.CreationDate,2023-02-22T16:30:12+01:00*%
%TF.ProjectId,mysterium-pcb,6d797374-6572-4697-956d-2d7063622e6b,rev?*%
%TF.SameCoordinates,Original*%
%TF.FileFunction,Legend,Bot*%
%TF.FilePolarity,Positive*%
%FSLAX46Y46*%
G04 Gerber Fmt 4.6, Leading zero omitted, Abs format (unit mm)*
G04 Created by KiCad (PCBNEW 6.0.10-86aedd382b~118~ubuntu22.10.1) date 2023-02-22 16:30:12*
%MOMM*%
%LPD*%
G01*
G04 APERTURE LIST*
%ADD10C,0.150000*%
G04 APERTURE END LIST*
D10*
X378959452Y-200031404D02*
X378959452Y-200602833D01*
X378997547Y-200717119D01*
X379073738Y-200793309D01*
X379188023Y-200831404D01*
X379264214Y-200831404D01*
X378197547Y-200831404D02*
X378578500Y-200831404D01*
X378578500Y-200031404D01*
X377473738Y-200755214D02*
X377511833Y-200793309D01*
X377626119Y-200831404D01*
X377702309Y-200831404D01*
X377816595Y-200793309D01*
X377892785Y-200717119D01*
X377930880Y-200640928D01*
X377968976Y-200488547D01*
X377968976Y-200374261D01*
X377930880Y-200221880D01*
X377892785Y-200145690D01*
X377816595Y-200069500D01*
X377702309Y-200031404D01*
X377626119Y-200031404D01*
X377511833Y-200069500D01*
X377473738Y-200107595D01*
X376902309Y-200031404D02*
X376902309Y-200602833D01*
X376940404Y-200717119D01*
X377016595Y-200793309D01*
X377130880Y-200831404D01*
X377207071Y-200831404D01*
X376140404Y-200831404D02*
X376521357Y-200831404D01*
X376521357Y-200031404D01*
X375416595Y-200755214D02*
X375454690Y-200793309D01*
X375568976Y-200831404D01*
X375645166Y-200831404D01*
X375759452Y-200793309D01*
X375835642Y-200717119D01*
X375873738Y-200640928D01*
X375911833Y-200488547D01*
X375911833Y-200374261D01*
X375873738Y-200221880D01*
X375835642Y-200145690D01*
X375759452Y-200069500D01*
X375645166Y-200031404D01*
X375568976Y-200031404D01*
X375454690Y-200069500D01*
X375416595Y-200107595D01*
X374845166Y-200031404D02*
X374845166Y-200602833D01*
X374883261Y-200717119D01*
X374959452Y-200793309D01*
X375073738Y-200831404D01*
X375149928Y-200831404D01*
X374083261Y-200831404D02*
X374464214Y-200831404D01*
X374464214Y-200031404D01*
X373359452Y-200755214D02*
X373397547Y-200793309D01*
X373511833Y-200831404D01*
X373588023Y-200831404D01*
X373702309Y-200793309D01*
X373778500Y-200717119D01*
X373816595Y-200640928D01*
X373854690Y-200488547D01*
X373854690Y-200374261D01*
X373816595Y-200221880D01*
X373778500Y-200145690D01*
X373702309Y-200069500D01*
X373588023Y-200031404D01*
X373511833Y-200031404D01*
X373397547Y-200069500D01*
X373359452Y-200107595D01*
X372788023Y-200031404D02*
X372788023Y-200602833D01*
X372826119Y-200717119D01*
X372902309Y-200793309D01*
X373016595Y-200831404D01*
X373092785Y-200831404D01*
X372026119Y-200831404D02*
X372407071Y-200831404D01*
X372407071Y-200031404D01*
X371302309Y-200755214D02*
X371340404Y-200793309D01*
X371454690Y-200831404D01*
X371530880Y-200831404D01*
X371645166Y-200793309D01*
X371721357Y-200717119D01*
X371759452Y-200640928D01*
X371797547Y-200488547D01*
X371797547Y-200374261D01*
X371759452Y-200221880D01*
X371721357Y-200145690D01*
X371645166Y-200069500D01*
X371530880Y-200031404D01*
X371454690Y-200031404D01*
X371340404Y-200069500D01*
X371302309Y-200107595D01*
M02*
