M48
; DRILL file {KiCad 5.1.7-a382d34a8~88~ubuntu20.04.1} date Mon Mar 29 02:48:09 2021
; FORMAT={-:-/ absolute / inch / decimal}
; #@! TF.CreationDate,2021-03-29T02:48:09+02:00
; #@! TF.GenerationSoftware,Kicad,Pcbnew,5.1.7-a382d34a8~88~ubuntu20.04.1
FMAT,2
INCH
T1C0.0157
T2C0.0236
T3C0.0276
T4C0.0315
T5C0.0354
T6C0.0400
T7C0.0433
T8C0.0591
T9C0.0866
T10C0.0669
T11C0.1200
T12C0.1201
T13C0.1570
T14C0.1575
%
G90
G05
T1
X2.4855Y-2.5655
X2.84Y-3.78
X2.8825Y-2.6255
X2.935Y-2.85
X3.125Y-2.775
X3.2395Y-2.6155
X3.52Y-5.58
X3.63Y-4.1
X3.6325Y-2.5655
X3.94Y-7.04
X4.1925Y-2.8415
X4.2Y-5.6
X4.4085Y-2.6465
X4.4745Y-2.8805
X4.6365Y-2.5775
X4.65Y-6.85
X4.7545Y-2.6635
X4.8345Y-2.6755
X4.9855Y-2.7835
X5.4455Y-2.5565
X5.4875Y-2.6365
X5.9395Y-2.5635
X6.0565Y-2.9155
X6.2525Y-2.8615
X6.2605Y-2.5715
X6.4975Y-2.6255
X6.5595Y-2.7595
X6.6505Y-2.6215
X6.7385Y-2.6215
X6.9035Y-2.5975
X7.0565Y-2.6175
X7.1585Y-2.8535
X7.2455Y-3.4125
X7.2875Y-2.9815
X7.3515Y-2.5655
X7.6335Y-2.8465
X7.8055Y-2.3445
X7.8145Y-2.6885
X7.8315Y-2.5775
X8.0185Y-2.9025
X8.2795Y-2.8205
X8.2935Y-2.5645
X8.3095Y-2.7875
X8.327Y-2.5871
X8.3421Y-2.853
X8.3618Y-2.819
X8.3625Y-2.6105
X8.4375Y-2.7065
X8.4445Y-2.6215
X8.9625Y-2.7375
X9.0665Y-3.0855
X9.2349Y-2.6084
X9.2627Y-2.752
X9.2631Y-2.6941
X9.2639Y-2.637
X9.2956Y-2.729
X9.2967Y-2.6719
X9.6065Y-5.7355
X9.7275Y-4.8945
X9.9095Y-2.4675
X9.9685Y-2.8475
X9.9715Y-2.7425
X9.9835Y-2.4625
X10.0615Y-2.8765
X10.1195Y-2.7285
X10.1205Y-2.2195
X10.3015Y-2.2235
X10.3115Y-2.5595
X10.4815Y-2.4565
X10.5485Y-2.5815
X10.5945Y-2.5075
X10.8425Y-2.4735
X10.8955Y-2.7985
X11.0975Y-2.5785
X11.4845Y-2.2645
X11.5655Y-2.4875
X11.7705Y-2.4505
X12.3205Y-2.6885
X12.3255Y-2.5015
X12.3285Y-2.3985
X12.3875Y-2.4855
X12.4865Y-2.4195
X12.5405Y-2.6265
X12.8435Y-2.6695
X13.355Y-3.175
X13.44Y-2.4445
X13.8965Y-2.8605
X14.8015Y-2.8505
X8.1904Y-2.4635
X8.1906Y-2.5157
X8.2239Y-2.4635
X8.2241Y-2.5157
X8.2573Y-2.4635
X8.2575Y-2.5157
X8.2908Y-2.4635
X8.291Y-2.5157
X8.3243Y-2.4635
X8.3245Y-2.5157
X8.3577Y-2.4635
X8.3579Y-2.5157
X8.3912Y-2.4635
X8.3914Y-2.5157
X8.4249Y-2.4635
X8.4249Y-2.5157
T2
X8.5805Y-2.6146
X8.5805Y-2.6737
T3
X8.0124Y-2.2511
X8.0124Y-2.4519
X8.7545Y-2.5922
X9.0545Y-2.5922
X8.7545Y-2.8888
X9.0545Y-2.8888
X8.7545Y-2.9876
X9.0545Y-2.9876
X8.7545Y-2.6911
X9.0545Y-2.6911
X8.7545Y-2.7899
X9.0545Y-2.7899
X8.7545Y-2.4934
X9.0545Y-2.4934
X8.7545Y-2.3945
X9.0545Y-2.3945
T4
X4.6555Y-2.6604
X4.6555Y-2.8604
X14.6237Y-2.7581
X14.6237Y-2.9581
X5.5482Y-2.7581
X5.5482Y-2.9581
X5.1656Y-2.7581
X5.1656Y-2.9581
X7.0787Y-2.7581
X7.0787Y-2.9581
X2.3598Y-2.6604
X2.3598Y-2.8604
X10.2215Y-3.0591
X10.2215Y-3.1575
X12.3976Y-2.3496
X12.3976Y-2.5496
X11.702Y-2.7581
X11.702Y-2.9581
X7.8439Y-2.7581
X7.8439Y-2.9581
X9.9245Y-3.0285
X10.1214Y-3.0285
X12.815Y-2.3496
X12.815Y-2.5496
X2.4873Y-2.7581
X2.4873Y-2.9581
X6.9511Y-2.6604
X6.9511Y-2.8604
X4.783Y-2.7581
X4.783Y-2.9581
X3.5076Y-2.6604
X3.5076Y-2.8604
X6.6961Y-2.7581
X6.6961Y-2.9581
X11.9802Y-2.7581
X11.9802Y-2.9581
X12.1193Y-2.3496
X12.1193Y-2.5496
X3.2526Y-2.7581
X3.2526Y-2.9581
X6.5685Y-2.6604
X6.5685Y-2.8604
X13.7889Y-2.7581
X13.7889Y-2.9581
X13.9281Y-2.7581
X13.9281Y-2.9581
X1.8497Y-2.5628
X1.8497Y-2.7628
X7.5888Y-2.5628
X7.5888Y-2.7628
X13.3715Y-2.3496
X13.3715Y-2.5496
X6.1859Y-2.6604
X6.1859Y-2.8604
X6.441Y-2.5628
X6.441Y-2.7628
X9.1975Y-2.3325
X9.1975Y-2.9325
X9.2975Y-2.3325
X9.2975Y-2.9325
X9.3975Y-2.3325
X9.3975Y-2.9325
X9.4975Y-2.3325
X9.4975Y-2.9325
X9.5975Y-2.3325
X9.5975Y-2.9325
X9.6975Y-2.3325
X9.6975Y-2.9325
X9.7975Y-2.3325
X9.7975Y-2.9325
X9.8975Y-2.3325
X9.8975Y-2.9325
X9.9975Y-2.3325
X9.9975Y-2.9325
X10.0975Y-2.3325
X10.0975Y-2.9325
X10.1975Y-2.3325
X10.1975Y-2.9325
X10.2975Y-2.3325
X10.2975Y-2.9325
X10.3975Y-2.3325
X10.3975Y-2.9325
X10.4975Y-2.3325
X10.4975Y-2.9325
X10.5975Y-2.3325
X10.5975Y-2.9325
X10.6975Y-2.3325
X10.6975Y-2.9325
X10.7975Y-2.3325
X10.7975Y-2.9325
X10.8975Y-2.3325
X10.8975Y-2.9325
X10.9975Y-2.3325
X10.9975Y-2.9325
X11.0975Y-2.3325
X11.0975Y-2.9325
X6.8236Y-2.5628
X6.8236Y-2.7628
X14.7628Y-2.7581
X14.7628Y-2.9581
X7.7164Y-2.6525
X7.7164Y-2.8525
X7.9714Y-2.5628
X7.9714Y-2.7628
X12.3976Y-2.7581
X12.3976Y-2.9581
X10.7855Y-3.0591
X10.7855Y-3.1575
X13.6498Y-2.7581
X13.6498Y-2.9581
X4.9105Y-2.5628
X4.9105Y-2.7628
X3.8902Y-2.6604
X3.8902Y-2.8604
X14.4846Y-2.7581
X14.4846Y-2.9581
X8.2265Y-2.7581
X8.2265Y-2.9581
X4.2729Y-2.6604
X4.2729Y-2.8604
X7.4613Y-2.7581
X7.4613Y-2.9581
X8.6365Y-2.7875
X8.6365Y-2.9875
X10.4074Y-3.0885
X10.5995Y-3.0885
X5.9308Y-2.7581
X5.9308Y-2.9581
X12.6759Y-2.7581
X12.6759Y-2.9581
X5.4207Y-2.6604
X5.4207Y-2.8604
X13.5107Y-2.7581
X13.5107Y-2.9581
X13.5105Y-2.3496
X13.5105Y-2.5496
X4.4004Y-2.7581
X4.4004Y-2.9581
X2.2323Y-2.5628
X2.2323Y-2.7628
X13.3715Y-2.7581
X13.3715Y-2.9581
X5.6758Y-2.5628
X5.6758Y-2.7628
X12.9541Y-2.3496
X12.9541Y-2.5496
X12.2585Y-2.7581
X12.2585Y-2.9581
X2.7424Y-2.6604
X2.7424Y-2.8604
X11.9802Y-2.3496
X11.9802Y-2.5496
X13.0933Y-2.7581
X13.0933Y-2.9581
X3.125Y-2.6604
X3.125Y-2.8604
X13.2324Y-2.3496
X13.2324Y-2.5496
X1.9772Y-2.6604
X1.9772Y-2.8604
X4.5279Y-2.5628
X4.5279Y-2.7628
X5.0381Y-2.6604
X5.0381Y-2.8604
X12.1193Y-2.7581
X12.1193Y-2.9581
X4.1453Y-2.5628
X4.1453Y-2.7628
X5.8033Y-2.6604
X5.8033Y-2.8604
X9.9976Y-2.2345
X10.1945Y-2.2345
X7.3337Y-2.6525
X7.3337Y-2.8525
X14.2063Y-2.7581
X14.2063Y-2.9581
X7.2062Y-2.5628
X7.2062Y-2.7628
X3.3801Y-2.5628
X3.3801Y-2.7628
X4.0178Y-2.7581
X4.0178Y-2.9581
X6.3134Y-2.7581
X6.3134Y-2.9581
X2.87Y-2.7581
X2.87Y-2.9581
X3.7627Y-2.5628
X3.7627Y-2.7628
X11.8411Y-2.3496
X11.8411Y-2.5496
X2.1047Y-2.7581
X2.1047Y-2.9581
X13.0933Y-2.3496
X13.0933Y-2.5496
X13.2324Y-2.7581
X13.2324Y-2.9581
X12.6759Y-2.3496
X12.6759Y-2.5496
X5.2932Y-2.5628
X5.2932Y-2.7628
X11.702Y-2.3496
X11.702Y-2.5496
X2.6149Y-2.5628
X2.6149Y-2.7628
X8.5205Y-2.7875
X8.5205Y-2.9875
X12.815Y-2.7581
X12.815Y-2.9581
X2.9975Y-2.5628
X2.9975Y-2.7628
X12.2585Y-2.3496
X12.2585Y-2.5496
X12.9541Y-2.7581
X12.9541Y-2.9581
X11.8411Y-2.7581
X11.8411Y-2.9581
X3.15Y-6.73
X3.15Y-6.93
X6.0584Y-2.5628
X6.0584Y-2.7628
X14.0672Y-2.7581
X14.0672Y-2.9581
X12.5367Y-2.7581
X12.5367Y-2.9581
X12.5367Y-2.3496
X12.5367Y-2.5496
X8.099Y-2.6525
X8.099Y-2.8525
X3.6352Y-2.7581
X3.6352Y-2.9581
X14.3454Y-2.7581
X14.3454Y-2.9581
T5
X8.5668Y-2.3435
X8.6668Y-2.3435
T6
X7.2287Y-2.2715
X7.2287Y-2.3715
X7.3287Y-2.2715
X7.3287Y-2.3715
X7.4287Y-2.2715
X7.4287Y-2.3715
T7
X6.2317Y-2.2555
X6.2317Y-2.4327
X6.4876Y-2.2555
X6.4876Y-2.4327
X6.7332Y-2.2565
X6.7332Y-2.4337
X6.9891Y-2.2565
X6.9891Y-2.4337
T8
X14.625Y-4.475
X14.875Y-4.375
X1.875Y-7.475
X2.125Y-7.375
X8.4375Y-4.475
X8.6875Y-4.375
X6.5625Y-5.225
X6.8125Y-5.125
X6.9375Y-4.475
X7.1875Y-4.375
X11.0625Y-7.475
X11.3125Y-7.375
X11.5312Y-6.7252
X11.7812Y-6.6252
X13.875Y-3.5375
X14.125Y-3.4375
X1.7812Y-6.725
X2.0312Y-6.625
X8.8125Y-5.225
X9.0625Y-5.125
X13.875Y-5.225
X14.125Y-5.125
X1.875Y-5.225
X2.125Y-5.125
X5.625Y-6.725
X5.875Y-6.625
X6.1875Y-4.475
X6.4375Y-4.375
X13.125Y-3.5375
X13.375Y-3.4375
X11.4375Y-3.5375
X11.6875Y-3.4375
X8.8125Y-3.5375
X9.0625Y-3.4375
X9.9375Y-3.5375
X10.1875Y-3.4375
X3.75Y-7.475
X4.0Y-7.375
X9.75Y-5.975
X10.0Y-5.875
X10.6875Y-4.475
X10.9375Y-4.375
X4.875Y-6.725
X5.125Y-6.625
X2.8125Y-7.475
X3.0625Y-7.375
X5.8125Y-5.225
X6.0625Y-5.125
X3.9375Y-4.475
X4.1875Y-4.375
X7.5Y-5.975
X7.75Y-5.875
X12.0938Y-7.475
X12.3438Y-7.375
X12.0Y-5.225
X12.25Y-5.125
X4.5Y-5.975
X4.75Y-5.875
X10.125Y-6.725
X10.375Y-6.625
X13.125Y-7.475
X13.375Y-7.375
X13.875Y-7.475
X14.125Y-7.375
X10.3125Y-5.225
X10.5625Y-5.125
X9.0Y-5.975
X9.25Y-5.875
X5.4375Y-3.5375
X5.6875Y-3.4375
X8.0625Y-5.225
X8.3125Y-5.125
X13.875Y-6.725
X14.125Y-6.625
X6.0Y-5.975
X6.25Y-5.875
X8.0625Y-3.5375
X8.3125Y-3.4375
X13.875Y-4.475
X14.125Y-4.375
X3.0Y-5.975
X3.25Y-5.875
X2.1562Y-6.725
X2.4062Y-6.625
X6.75Y-5.975
X7.0Y-5.875
X3.5625Y-5.225
X3.8125Y-5.125
X1.6875Y-3.5375
X1.9375Y-3.4375
X12.1875Y-3.5375
X12.4375Y-3.4375
X6.5625Y-3.5375
X6.8125Y-3.4375
X9.9375Y-4.475
X10.1875Y-4.375
X9.375Y-6.725
X9.625Y-6.625
X2.625Y-6.725
X2.875Y-6.625
X1.7812Y-5.975
X2.0312Y-5.875
X7.3125Y-5.225
X7.5625Y-5.125
X10.2188Y-7.475
X10.4688Y-7.375
X12.1875Y-4.475
X12.4375Y-4.375
X8.25Y-5.975
X8.5Y-5.875
X1.9688Y-5.975
X2.2188Y-5.875
X11.8125Y-4.475
X12.0625Y-4.375
X3.9375Y-3.5375
X4.1875Y-3.4375
X9.1875Y-4.475
X9.4375Y-4.375
X7.6875Y-4.475
X7.9375Y-4.375
X3.1875Y-3.5375
X3.4375Y-3.4375
X8.625Y-6.725
X8.875Y-6.625
X7.125Y-6.725
X7.375Y-6.625
X11.7188Y-5.975
X11.9688Y-5.875
X10.5Y-5.975
X10.75Y-5.875
X7.3125Y-3.5375
X7.5625Y-3.4375
X10.125Y-7.475
X10.375Y-7.375
X3.375Y-6.725
X3.625Y-6.625
X1.7812Y-7.475
X2.0312Y-7.375
X13.125Y-4.475
X13.375Y-4.375
X9.5625Y-5.225
X9.8125Y-5.125
X10.6875Y-3.5375
X10.9375Y-3.4375
X2.7188Y-7.475
X2.9688Y-7.375
X4.3125Y-5.225
X4.5625Y-5.125
X9.2812Y-7.475
X9.5312Y-7.375
X11.4375Y-4.475
X11.6875Y-4.375
X4.125Y-6.725
X4.375Y-6.625
X14.625Y-5.225
X14.875Y-5.125
X2.8125Y-5.225
X3.0625Y-5.125
X11.25Y-5.975
X11.5Y-5.875
X6.4688Y-7.475
X6.7188Y-7.375
X5.0625Y-5.225
X5.3125Y-5.125
X6.9375Y-7.475
X7.1875Y-7.375
X7.875Y-6.725
X8.125Y-6.625
X14.625Y-7.475
X14.875Y-7.375
X6.375Y-6.725
X6.625Y-6.625
X4.6875Y-4.475
X4.9375Y-4.375
X12.0938Y-5.6
X12.3438Y-5.5
X3.6562Y-7.475
X3.9062Y-7.375
X11.0625Y-5.225
X11.3125Y-5.125
X4.6875Y-3.5375
X4.9375Y-3.4375
X14.625Y-3.5375
X14.875Y-3.4375
X1.6875Y-4.475
X1.9375Y-4.375
X13.125Y-5.225
X13.375Y-5.125
X2.4375Y-4.475
X2.6875Y-4.375
X12.0Y-7.475
X12.25Y-7.375
X5.4375Y-4.475
X5.6875Y-4.375
X3.1875Y-4.475
X3.4375Y-4.375
X11.1562Y-7.475
X11.4062Y-7.375
X3.75Y-5.975
X4.0Y-5.875
X5.25Y-5.975
X5.5Y-5.875
T9
X5.3045Y-2.3352
X12.9364Y-5.8925
X3.4Y-4.1005
X11.308Y-3.0734
X14.9925Y-2.3352
X14.9925Y-3.0734
X5.3045Y-3.0734
X14.9654Y-7.0041
X1.62Y-3.0734
X11.308Y-2.3352
X3.1496Y-7.1668
X1.62Y-2.3352
X12.9364Y-7.0041
X13.2125Y-4.1005
X8.3077Y-4.1005
X14.9654Y-5.8925
X8.3077Y-7.5655
T10
X2.3875Y-4.575
X2.7875Y-4.575
X11.95Y-7.575
X12.35Y-7.575
X5.3875Y-4.575
X5.7875Y-4.575
X3.1375Y-4.575
X3.5375Y-4.575
X11.1062Y-7.575
X11.5062Y-7.575
X3.7Y-6.075
X4.1Y-6.075
X5.2Y-6.075
X5.6Y-6.075
X14.575Y-4.575
X14.975Y-4.575
X1.825Y-7.575
X2.225Y-7.575
X8.3875Y-4.575
X8.7875Y-4.575
X6.5125Y-5.325
X6.9125Y-5.325
X6.8875Y-4.575
X7.2875Y-4.575
X11.0125Y-7.575
X11.4125Y-7.575
X11.4812Y-6.8252
X11.8812Y-6.8252
X13.825Y-3.6375
X14.225Y-3.6375
X1.7312Y-6.825
X2.1313Y-6.825
X8.7625Y-5.325
X9.1625Y-5.325
X13.825Y-5.325
X14.225Y-5.325
X1.825Y-5.325
X2.225Y-5.325
X5.575Y-6.825
X5.975Y-6.825
X6.1375Y-4.575
X6.5375Y-4.575
X13.075Y-3.6375
X13.475Y-3.6375
X11.3875Y-3.6375
X11.7875Y-3.6375
X8.7625Y-3.6375
X9.1625Y-3.6375
X9.8875Y-3.6375
X10.2875Y-3.6375
X3.7Y-7.575
X4.1Y-7.575
X9.7Y-6.075
X10.1Y-6.075
X10.6375Y-4.575
X11.0375Y-4.575
X4.825Y-6.825
X5.225Y-6.825
X2.7625Y-7.575
X3.1625Y-7.575
X5.7625Y-5.325
X6.1625Y-5.325
X3.8875Y-4.575
X4.2875Y-4.575
X7.45Y-6.075
X7.85Y-6.075
X12.0437Y-7.575
X12.4437Y-7.575
X11.95Y-5.325
X12.35Y-5.325
X4.45Y-6.075
X4.85Y-6.075
X10.075Y-6.825
X10.475Y-6.825
X13.075Y-7.575
X13.475Y-7.575
X13.825Y-7.575
X14.225Y-7.575
X10.2625Y-5.325
X10.6625Y-5.325
X8.95Y-6.075
X9.35Y-6.075
X5.3875Y-3.6375
X5.7875Y-3.6375
X8.0125Y-5.325
X8.4125Y-5.325
X13.825Y-6.825
X14.225Y-6.825
X5.95Y-6.075
X6.35Y-6.075
X8.0125Y-3.6375
X8.4125Y-3.6375
X13.825Y-4.575
X14.225Y-4.575
X2.95Y-6.075
X3.35Y-6.075
X2.1062Y-6.825
X2.5063Y-6.825
X6.7Y-6.075
X7.1Y-6.075
X3.5125Y-5.325
X3.9125Y-5.325
X1.6375Y-3.6375
X2.0375Y-3.6375
X12.1375Y-3.6375
X12.5375Y-3.6375
X6.5125Y-3.6375
X6.9125Y-3.6375
X9.8875Y-4.575
X10.2875Y-4.575
X9.325Y-6.825
X9.725Y-6.825
X2.575Y-6.825
X2.975Y-6.825
X1.7312Y-6.075
X2.1313Y-6.075
X7.2625Y-5.325
X7.6625Y-5.325
X10.1687Y-7.575
X10.5687Y-7.575
X12.1375Y-4.575
X12.5375Y-4.575
X8.2Y-6.075
X8.6Y-6.075
X1.9187Y-6.075
X2.3188Y-6.075
X11.7625Y-4.575
X12.1625Y-4.575
X3.8875Y-3.6375
X4.2875Y-3.6375
X9.1375Y-4.575
X9.5375Y-4.575
X7.6375Y-4.575
X8.0375Y-4.575
X3.1375Y-3.6375
X3.5375Y-3.6375
X8.575Y-6.825
X8.975Y-6.825
X7.075Y-6.825
X7.475Y-6.825
X11.6687Y-6.075
X12.0687Y-6.075
X10.45Y-6.075
X10.85Y-6.075
X7.2625Y-3.6375
X7.6625Y-3.6375
X10.075Y-7.575
X10.475Y-7.575
X3.325Y-6.825
X3.725Y-6.825
X1.7312Y-7.575
X2.1313Y-7.575
X13.075Y-4.575
X13.475Y-4.575
X9.5125Y-5.325
X9.9125Y-5.325
X10.6375Y-3.6375
X11.0375Y-3.6375
X2.6687Y-7.575
X3.0688Y-7.575
X4.2625Y-5.325
X4.6625Y-5.325
X9.2312Y-7.575
X9.6312Y-7.575
X11.3875Y-4.575
X11.7875Y-4.575
X4.075Y-6.825
X4.475Y-6.825
X14.575Y-5.325
X14.975Y-5.325
X2.7625Y-5.325
X3.1625Y-5.325
X11.2Y-6.075
X11.6Y-6.075
X6.4188Y-7.575
X6.8187Y-7.575
X5.0125Y-5.325
X5.4125Y-5.325
X6.8875Y-7.575
X7.2875Y-7.575
X7.825Y-6.825
X8.225Y-6.825
X14.575Y-7.575
X14.975Y-7.575
X6.325Y-6.825
X6.725Y-6.825
X4.6375Y-4.575
X5.0375Y-4.575
X12.0438Y-5.7
X12.4438Y-5.7
X3.6062Y-7.575
X4.0062Y-7.575
X11.0125Y-5.325
X11.4125Y-5.325
X4.6375Y-3.6375
X5.0375Y-3.6375
X14.575Y-3.6375
X14.975Y-3.6375
X1.6375Y-4.575
X2.0375Y-4.575
X13.075Y-5.325
X13.475Y-5.325
T11
X4.65Y-7.8505
X8.587Y-7.8505
X4.8375Y-7.85
X9.3375Y-7.85
T12
X11.2127Y-6.5497
X12.1498Y-6.5497
X1.8377Y-6.5494
X2.7748Y-6.5494
X11.494Y-4.2994
X12.431Y-4.2994
X11.4002Y-5.7994
X12.3373Y-5.7994
X12.5194Y-5.2315
X12.5194Y-6.1685
T13
X4.65Y-7.2505
X8.587Y-7.2505
X4.8375Y-7.25
X9.3375Y-7.25
T14
X7.0875Y-4.575
X11.2125Y-7.575
X11.2127Y-7.1497
X11.6813Y-6.8252
X12.1498Y-7.1497
X14.025Y-3.6375
X1.9312Y-6.825
X8.9625Y-5.325
X14.025Y-5.325
X2.025Y-5.325
X5.775Y-6.825
X6.3375Y-4.575
X13.275Y-3.6375
X11.5875Y-3.6375
X8.9625Y-3.6375
X10.0875Y-3.6375
X3.9Y-7.575
X9.9Y-6.075
X10.8375Y-4.575
X5.025Y-6.825
X2.9625Y-7.575
X5.9625Y-5.325
X4.0875Y-4.575
X7.65Y-6.075
X12.2438Y-7.575
X12.15Y-5.325
X4.65Y-6.075
X10.275Y-6.825
X13.275Y-7.575
X14.025Y-7.575
X10.4625Y-5.325
X9.15Y-6.075
X5.5875Y-3.6375
X8.2125Y-5.325
X14.025Y-6.825
X6.15Y-6.075
X8.2125Y-3.6375
X14.025Y-4.575
X3.15Y-6.075
X1.8377Y-7.1494
X2.3062Y-6.825
X2.7748Y-7.1494
X6.9Y-6.075
X3.7125Y-5.325
X1.8375Y-3.6375
X12.3375Y-3.6375
X6.7125Y-3.6375
X10.0875Y-4.575
X9.525Y-6.825
X2.775Y-6.825
X1.9312Y-6.075
X7.4625Y-5.325
X10.3688Y-7.575
X12.3375Y-4.575
X8.4Y-6.075
X2.1187Y-6.075
X11.494Y-4.8994
X11.9625Y-4.575
X12.431Y-4.8994
X4.0875Y-3.6375
X9.3375Y-4.575
X7.8375Y-4.575
X3.3375Y-3.6375
X8.775Y-6.825
X7.275Y-6.825
X11.4002Y-6.3994
X11.8688Y-6.075
X12.3373Y-6.3994
X10.65Y-6.075
X7.4625Y-3.6375
X10.275Y-7.575
X3.525Y-6.825
X1.9312Y-7.575
X13.275Y-4.575
X9.7125Y-5.325
X10.8375Y-3.6375
X2.8687Y-7.575
X4.4625Y-5.325
X9.4313Y-7.575
X11.5875Y-4.575
X4.275Y-6.825
X14.775Y-5.325
X2.9625Y-5.325
X11.4Y-6.075
X6.6187Y-7.575
X5.2125Y-5.325
X7.0875Y-7.575
X8.025Y-6.825
X14.775Y-7.575
X6.525Y-6.825
X4.8375Y-4.575
X11.9194Y-5.2315
X11.9194Y-6.1685
X12.2438Y-5.7
X3.8062Y-7.575
X11.2125Y-5.325
X4.8375Y-3.6375
X14.775Y-3.6375
X1.8375Y-4.575
X13.275Y-5.325
X2.5875Y-4.575
X12.15Y-7.575
X5.5875Y-4.575
X3.3375Y-4.575
X11.3063Y-7.575
X3.9Y-6.075
X5.4Y-6.075
X14.775Y-4.575
X2.025Y-7.575
X8.5875Y-4.575
X6.7125Y-5.325
T2
G00X8.1375Y-2.3598
M15
G01X8.1375Y-2.3283
M16
G05
G00X8.1375Y-2.5066
M15
G01X8.1375Y-2.4475
M16
G05
G00X8.478Y-2.3598
M15
G01X8.478Y-2.3283
M16
G05
G00X8.478Y-2.5066
M15
G01X8.478Y-2.4475
M16
G05
T0
M30
