M48
; DRILL file {KiCad (5.1.4)-1} date 11/14/2019 12:18:53 PM
; FORMAT={-:-/ absolute / inch / decimal}
; #@! TF.CreationDate,2019-11-14T12:18:53-05:00
; #@! TF.GenerationSoftware,Kicad,Pcbnew,(5.1.4)-1
; #@! TF.FileFunction,Plated,1,2,PTH
FMAT,2
INCH
T1C0.0157
T2C0.0236
T3C0.0276
T4C0.0315
T5C0.0354
T6C0.0400
T7C0.0433
T8C0.0591
T9C0.0866
%
G90
G05
T1
X2.4855Y-2.5655
X2.8825Y-2.6255
X3.1295Y-2.7745
X3.1725Y-2.9855
X3.2395Y-2.6155
X3.6325Y-2.5655
X4.1925Y-2.8415
X4.4085Y-2.6465
X4.4745Y-2.8805
X4.6365Y-2.5775
X4.7545Y-2.6635
X4.8345Y-2.6755
X4.9855Y-2.7835
X5.4455Y-2.5565
X5.4875Y-2.6365
X5.9395Y-2.5635
X6.0565Y-2.9155
X6.2525Y-2.8615
X6.2605Y-2.5715
X6.4975Y-2.6255
X6.5595Y-2.7595
X6.6505Y-2.6215
X6.7385Y-2.6215
X6.9035Y-2.5975
X7.0565Y-2.6175
X7.1585Y-2.8535
X7.2455Y-3.4125
X7.2875Y-2.9815
X7.3515Y-2.5655
X7.6335Y-2.8465
X7.8055Y-2.3445
X7.8145Y-2.6885
X7.8315Y-2.5775
X8.0185Y-2.9025
X8.2795Y-2.8205
X8.2935Y-2.5645
X8.3095Y-2.7875
X8.327Y-2.5871
X8.3421Y-2.853
X8.3618Y-2.819
X8.3625Y-2.6105
X8.4375Y-2.7065
X8.4445Y-2.6215
X8.9625Y-2.7375
X9.0665Y-3.0855
X9.2349Y-2.6084
X9.2627Y-2.752
X9.2631Y-2.6941
X9.2639Y-2.637
X9.2956Y-2.729
X9.2967Y-2.6719
X9.6065Y-5.7355
X9.7275Y-4.8945
X9.9095Y-2.4675
X9.9685Y-2.8475
X9.9715Y-2.7425
X9.9835Y-2.4625
X10.0615Y-2.8765
X10.1195Y-2.7285
X10.1205Y-2.2195
X10.3015Y-2.2235
X10.3115Y-2.5595
X10.4815Y-2.4565
X10.5485Y-2.5815
X10.5945Y-2.5075
X10.8425Y-2.4735
X10.8955Y-2.7985
X11.0975Y-2.5785
X11.4845Y-2.2645
X11.5655Y-2.4875
X11.7705Y-2.4505
X12.3205Y-2.6885
X12.3255Y-2.5015
X12.3285Y-2.3985
X12.3875Y-2.4855
X12.4865Y-2.4195
X12.5405Y-2.6265
X12.8435Y-2.6695
X13.4195Y-2.4445
X13.8965Y-2.8605
X14.8015Y-2.8505
X8.1904Y-2.4635
X8.1906Y-2.5157
X8.2239Y-2.4635
X8.2241Y-2.5157
X8.2573Y-2.4635
X8.2575Y-2.5157
X8.2908Y-2.4635
X8.291Y-2.5157
X8.3243Y-2.4635
X8.3245Y-2.5157
X8.3577Y-2.4635
X8.3579Y-2.5157
X8.3912Y-2.4635
X8.3914Y-2.5157
X8.4249Y-2.4635
X8.4249Y-2.5157
T2
X8.5805Y-2.6146
X8.5805Y-2.6737
T3
X8.7545Y-2.4934
X9.0545Y-2.4934
X8.7545Y-2.9876
X9.0545Y-2.9876
X8.7545Y-2.3945
X9.0545Y-2.3945
X8.7545Y-2.6911
X9.0545Y-2.6911
X8.7545Y-2.5922
X9.0545Y-2.5922
X8.0124Y-2.2511
X8.0124Y-2.4519
X8.7545Y-2.8888
X9.0545Y-2.8888
X8.7545Y-2.7899
X9.0545Y-2.7899
T4
X3.6352Y-2.7581
X3.6352Y-2.9581
X7.8439Y-2.7581
X7.8439Y-2.9581
X13.0933Y-2.7581
X13.0933Y-2.9581
X6.441Y-2.5628
X6.441Y-2.7628
X6.1859Y-2.6604
X6.1859Y-2.8604
X12.2585Y-2.7581
X12.2585Y-2.9581
X12.5367Y-2.7581
X12.5367Y-2.9581
X7.5888Y-2.5628
X7.5888Y-2.7628
X12.3976Y-2.7581
X12.3976Y-2.9581
X8.5205Y-2.7875
X8.5205Y-2.9875
X11.8411Y-2.7581
X11.8411Y-2.9581
X7.2062Y-2.5628
X7.2062Y-2.7628
X12.1193Y-2.7581
X12.1193Y-2.9581
X11.9802Y-2.7581
X11.9802Y-2.9581
X12.2585Y-2.3496
X12.2585Y-2.5496
X9.9245Y-3.0285
X10.1214Y-3.0285
X5.6758Y-2.5628
X5.6758Y-2.7628
X13.5107Y-2.7581
X13.5107Y-2.9581
X7.9714Y-2.5628
X7.9714Y-2.7628
X4.6555Y-2.6604
X4.6555Y-2.8604
X12.815Y-2.3496
X12.815Y-2.5496
X12.3976Y-2.3496
X12.3976Y-2.5496
X6.6961Y-2.7581
X6.6961Y-2.9581
X4.0178Y-2.7581
X4.0178Y-2.9581
X13.0933Y-2.3496
X13.0933Y-2.5496
X2.6149Y-2.5628
X2.6149Y-2.7628
X11.702Y-2.7581
X11.702Y-2.9581
X3.3801Y-2.5628
X3.3801Y-2.7628
X4.1453Y-2.5628
X4.1453Y-2.7628
X14.2063Y-2.7581
X14.2063Y-2.9581
X6.3134Y-2.7581
X6.3134Y-2.9581
X9.1975Y-2.3325
X9.1975Y-2.9325
X9.2975Y-2.3325
X9.2975Y-2.9325
X9.3975Y-2.3325
X9.3975Y-2.9325
X9.4975Y-2.3325
X9.4975Y-2.9325
X9.5975Y-2.3325
X9.5975Y-2.9325
X9.6975Y-2.3325
X9.6975Y-2.9325
X9.7975Y-2.3325
X9.7975Y-2.9325
X9.8975Y-2.3325
X9.8975Y-2.9325
X9.9975Y-2.3325
X9.9975Y-2.9325
X10.0975Y-2.3325
X10.0975Y-2.9325
X10.1975Y-2.3325
X10.1975Y-2.9325
X10.2975Y-2.3325
X10.2975Y-2.9325
X10.3975Y-2.3325
X10.3975Y-2.9325
X10.4975Y-2.3325
X10.4975Y-2.9325
X10.5975Y-2.3325
X10.5975Y-2.9325
X10.6975Y-2.3325
X10.6975Y-2.9325
X10.7975Y-2.3325
X10.7975Y-2.9325
X10.8975Y-2.3325
X10.8975Y-2.9325
X10.9975Y-2.3325
X10.9975Y-2.9325
X11.0975Y-2.3325
X11.0975Y-2.9325
X7.4613Y-2.7581
X7.4613Y-2.9581
X5.1656Y-2.7581
X5.1656Y-2.9581
X7.3337Y-2.6525
X7.3337Y-2.8525
X2.4873Y-2.7581
X2.4873Y-2.9581
X10.4074Y-3.0885
X10.5995Y-3.0885
X10.7855Y-3.0591
X10.7855Y-3.1575
X4.9105Y-2.5628
X4.9105Y-2.7628
X5.8033Y-2.6604
X5.8033Y-2.8604
X5.5482Y-2.7581
X5.5482Y-2.9581
X2.87Y-2.7581
X2.87Y-2.9581
X7.7164Y-2.6525
X7.7164Y-2.8525
X8.6365Y-2.7875
X8.6365Y-2.9875
X5.0381Y-2.6604
X5.0381Y-2.8604
X2.7424Y-2.6604
X2.7424Y-2.8604
X13.2324Y-2.3496
X13.2324Y-2.5496
X2.3598Y-2.6604
X2.3598Y-2.8604
X14.0672Y-2.7581
X14.0672Y-2.9581
X4.2729Y-2.6604
X4.2729Y-2.8604
X10.2215Y-3.0591
X10.2215Y-3.1575
X11.9802Y-2.3496
X11.9802Y-2.5496
X12.5367Y-2.3496
X12.5367Y-2.5496
X2.2323Y-2.5628
X2.2323Y-2.7628
X13.3715Y-2.7581
X13.3715Y-2.9581
X1.9772Y-2.6604
X1.9772Y-2.8604
X2.1047Y-2.7581
X2.1047Y-2.9581
X3.7627Y-2.5628
X3.7627Y-2.7628
X12.6759Y-2.7581
X12.6759Y-2.9581
X5.4207Y-2.6604
X5.4207Y-2.8604
X6.5685Y-2.6604
X6.5685Y-2.8604
X4.783Y-2.7581
X4.783Y-2.9581
X2.9975Y-2.5628
X2.9975Y-2.7628
X3.5076Y-2.6604
X3.5076Y-2.8604
X8.099Y-2.6525
X8.099Y-2.8525
X3.8902Y-2.6604
X3.8902Y-2.8604
X6.0584Y-2.5628
X6.0584Y-2.7628
X12.9541Y-2.7581
X12.9541Y-2.9581
X6.9511Y-2.6604
X6.9511Y-2.8604
X13.3715Y-2.3496
X13.3715Y-2.5496
X9.9976Y-2.2345
X10.1945Y-2.2345
X12.1193Y-2.3496
X12.1193Y-2.5496
X4.5279Y-2.5628
X4.5279Y-2.7628
X12.6759Y-2.3496
X12.6759Y-2.5496
X13.6498Y-2.7581
X13.6498Y-2.9581
X1.8497Y-2.5628
X1.8497Y-2.7628
X12.9541Y-2.3496
X12.9541Y-2.5496
X4.4004Y-2.7581
X4.4004Y-2.9581
X12.815Y-2.7581
X12.815Y-2.9581
X3.2526Y-2.7581
X3.2526Y-2.9581
X13.9281Y-2.7581
X13.9281Y-2.9581
X14.7628Y-2.7581
X14.7628Y-2.9581
X8.2265Y-2.7581
X8.2265Y-2.9581
X5.2932Y-2.5628
X5.2932Y-2.7628
X13.7889Y-2.7581
X13.7889Y-2.9581
X5.9308Y-2.7581
X5.9308Y-2.9581
X11.702Y-2.3496
X11.702Y-2.5496
X6.8236Y-2.5628
X6.8236Y-2.7628
X3.125Y-2.6604
X3.125Y-2.8604
X13.2324Y-2.7581
X13.2324Y-2.9581
X11.8411Y-2.3496
X11.8411Y-2.5496
X14.3454Y-2.7581
X14.3454Y-2.9581
X14.6237Y-2.7581
X14.6237Y-2.9581
X14.4846Y-2.7581
X14.4846Y-2.9581
X7.0787Y-2.7581
X7.0787Y-2.9581
T5
X8.5668Y-2.3435
X8.6668Y-2.3435
T6
X7.2287Y-2.2715
X7.2287Y-2.3715
X7.3287Y-2.2715
X7.3287Y-2.3715
X7.4287Y-2.2715
X7.4287Y-2.3715
T7
X6.7332Y-2.2565
X6.7332Y-2.4337
X6.9891Y-2.2565
X6.9891Y-2.4337
X6.2317Y-2.2555
X6.2317Y-2.4327
X6.4876Y-2.2555
X6.4876Y-2.4327
T8
X1.6875Y-4.475
X1.9375Y-4.375
X13.125Y-5.225
X13.375Y-5.125
X3.6562Y-7.475
X3.9062Y-7.375
X5.4375Y-3.5375
X5.6875Y-3.4375
X10.6875Y-3.5375
X10.9375Y-3.4375
X11.0625Y-5.225
X11.3125Y-5.125
X12.0Y-7.475
X12.25Y-7.375
X3.1875Y-3.5375
X3.4375Y-3.4375
X9.9375Y-3.5375
X10.1875Y-3.4375
X9.5625Y-5.225
X9.8125Y-5.125
X10.2188Y-7.475
X10.4688Y-7.375
X8.8125Y-3.5375
X9.0625Y-3.4375
X7.5Y-5.975
X7.75Y-5.875
X3.75Y-7.475
X4.0Y-7.375
X13.875Y-7.475
X14.125Y-7.375
X13.125Y-3.5375
X13.375Y-3.4375
X6.75Y-5.975
X7.0Y-5.875
X4.875Y-6.725
X5.125Y-6.625
X11.5312Y-6.7252
X11.7812Y-6.6252
X12.0938Y-7.475
X12.3438Y-7.375
X5.8125Y-5.225
X6.0625Y-5.125
X1.9688Y-5.975
X2.2188Y-5.875
X2.1562Y-6.725
X2.4062Y-6.625
X8.8125Y-5.225
X9.0625Y-5.125
X9.75Y-5.975
X10.0Y-5.875
X4.6875Y-3.5375
X4.9375Y-3.4375
X4.6875Y-4.475
X4.9375Y-4.375
X8.0625Y-5.225
X8.3125Y-5.125
X2.8125Y-7.475
X3.0625Y-7.375
X3.9375Y-4.475
X4.1875Y-4.375
X13.875Y-4.475
X14.125Y-4.375
X8.625Y-6.725
X8.875Y-6.625
X3.1875Y-4.475
X3.4375Y-4.375
X6.4688Y-7.475
X6.7188Y-7.375
X12.1875Y-3.5375
X12.4375Y-3.4375
X5.25Y-5.975
X5.5Y-5.875
X14.625Y-3.5375
X14.875Y-3.4375
X3.75Y-5.975
X4.0Y-5.875
X7.3125Y-3.5375
X7.5625Y-3.4375
X14.625Y-5.225
X14.875Y-5.125
X2.4375Y-4.475
X2.6875Y-4.375
X8.25Y-5.975
X8.5Y-5.875
X7.125Y-6.725
X7.375Y-6.625
X10.125Y-7.475
X10.375Y-7.375
X4.3125Y-5.225
X4.5625Y-5.125
X3.0Y-5.975
X3.25Y-5.875
X4.125Y-6.725
X4.375Y-6.625
X9.2812Y-7.475
X9.5312Y-7.375
X7.3125Y-5.225
X7.5625Y-5.125
X4.5Y-5.975
X4.75Y-5.875
X13.875Y-6.725
X14.125Y-6.625
X9.1875Y-4.475
X9.4375Y-4.375
X9.9375Y-4.475
X10.1875Y-4.375
X5.4375Y-4.475
X5.6875Y-4.375
X10.125Y-6.725
X10.375Y-6.625
X3.9375Y-3.5375
X4.1875Y-3.4375
X3.5625Y-5.225
X3.8125Y-5.125
X2.8125Y-5.225
X3.0625Y-5.125
X6.375Y-6.725
X6.625Y-6.625
X6.5625Y-3.5375
X6.8125Y-3.4375
X11.8125Y-4.475
X12.0625Y-4.375
X10.6875Y-4.475
X10.9375Y-4.375
X7.875Y-6.725
X8.125Y-6.625
X6.9375Y-4.475
X7.1875Y-4.375
X13.875Y-5.225
X14.125Y-5.125
X11.0625Y-7.475
X11.3125Y-7.375
X11.4375Y-3.5375
X11.6875Y-3.4375
X12.0Y-5.225
X12.25Y-5.125
X13.125Y-7.475
X13.375Y-7.375
X13.875Y-3.5375
X14.125Y-3.4375
X6.0Y-5.975
X6.25Y-5.875
X11.1562Y-7.475
X11.4062Y-7.375
X6.5625Y-5.225
X6.8125Y-5.125
X10.3125Y-5.225
X10.5625Y-5.125
X5.625Y-6.725
X5.875Y-6.625
X8.0625Y-3.5375
X8.3125Y-3.4375
X1.7812Y-5.975
X2.0312Y-5.875
X1.7812Y-7.475
X2.0312Y-7.375
X14.625Y-7.475
X14.875Y-7.375
X1.875Y-5.225
X2.125Y-5.125
X9.0Y-5.975
X9.25Y-5.875
X3.375Y-6.725
X3.625Y-6.625
X11.7188Y-5.975
X11.9688Y-5.875
X6.9375Y-7.475
X7.1875Y-7.375
X9.375Y-6.725
X9.625Y-6.625
X7.6875Y-4.475
X7.9375Y-4.375
X10.5Y-5.975
X10.75Y-5.875
X6.1875Y-4.475
X6.4375Y-4.375
X5.0625Y-5.225
X5.3125Y-5.125
X2.7188Y-7.475
X2.9688Y-7.375
X8.4375Y-4.475
X8.6875Y-4.375
X14.625Y-4.475
X14.875Y-4.375
X1.875Y-7.475
X2.125Y-7.375
X1.6875Y-3.5375
X1.9375Y-3.4375
X13.125Y-4.475
X13.375Y-4.375
T9
X1.62Y-2.3352
X5.3045Y-3.0734
X14.9654Y-5.8925
X8.3077Y-7.5655
X12.9364Y-7.0041
X13.2125Y-4.1005
X5.3045Y-2.3352
X14.9654Y-7.0041
X3.4Y-4.1005
X8.3077Y-4.1005
X14.9925Y-2.3352
X14.9925Y-3.0734
X11.308Y-3.0734
X12.9364Y-5.8925
X1.62Y-3.0734
X11.308Y-2.3352
X3.0905Y-6.8125
T2
G00X8.1375Y-2.3598
M15
G01X8.1375Y-2.3283
M16
G05
G00X8.1375Y-2.5066
M15
G01X8.1375Y-2.4475
M16
G05
G00X8.478Y-2.3598
M15
G01X8.478Y-2.3283
M16
G05
G00X8.478Y-2.5066
M15
G01X8.478Y-2.4475
M16
G05
T0
M30
