%TF.GenerationSoftware,KiCad,Pcbnew,6.0.10-86aedd382b~118~ubuntu22.10.1*%
%TF.CreationDate,2023-02-22T16:30:12+01:00*%
%TF.ProjectId,mysterium-pcb,6d797374-6572-4697-956d-2d7063622e6b,rev?*%
%TF.SameCoordinates,Original*%
%TF.FileFunction,Soldermask,Bot*%
%TF.FilePolarity,Negative*%
%FSLAX46Y46*%
G04 Gerber Fmt 4.6, Leading zero omitted, Abs format (unit mm)*
G04 Created by KiCad (PCBNEW 6.0.10-86aedd382b~118~ubuntu22.10.1) date 2023-02-22 16:30:12*
%MOMM*%
%LPD*%
G01*
G04 APERTURE LIST*
G04 Aperture macros list*
%AMRoundRect*
0 Rectangle with rounded corners*
0 $1 Rounding radius*
0 $2 $3 $4 $5 $6 $7 $8 $9 X,Y pos of 4 corners*
0 Add a 4 corners polygon primitive as box body*
4,1,4,$2,$3,$4,$5,$6,$7,$8,$9,$2,$3,0*
0 Add four circle primitives for the rounded corners*
1,1,$1+$1,$2,$3*
1,1,$1+$1,$4,$5*
1,1,$1+$1,$6,$7*
1,1,$1+$1,$8,$9*
0 Add four rect primitives between the rounded corners*
20,1,$1+$1,$2,$3,$4,$5,0*
20,1,$1+$1,$4,$5,$6,$7,0*
20,1,$1+$1,$6,$7,$8,$9,0*
20,1,$1+$1,$8,$9,$2,$3,0*%
G04 Aperture macros list end*
%ADD10RoundRect,0.051000X-0.800000X0.800000X-0.800000X-0.800000X0.800000X-0.800000X0.800000X0.800000X0*%
%ADD11O,1.702000X1.702000*%
%ADD12O,1.002000X1.802000*%
%ADD13O,1.002000X2.502000*%
%ADD14O,0.752000X1.102000*%
%ADD15C,4.089800*%
%ADD16C,3.150000*%
%ADD17C,4.102000*%
%ADD18C,1.802000*%
%ADD19C,2.302000*%
%ADD20RoundRect,0.051000X0.600000X-0.600000X0.600000X0.600000X-0.600000X0.600000X-0.600000X-0.600000X0*%
%ADD21C,1.302000*%
%ADD22RoundRect,0.051000X-0.900000X-0.900000X0.900000X-0.900000X0.900000X0.900000X-0.900000X0.900000X0*%
%ADD23C,1.902000*%
%ADD24RoundRect,0.051000X0.800000X-0.800000X0.800000X0.800000X-0.800000X0.800000X-0.800000X-0.800000X0*%
%ADD25C,4.502000*%
%ADD26C,2.102000*%
%ADD27C,1.702000*%
%ADD28C,1.502000*%
%ADD29RoundRect,0.051000X0.850000X0.850000X-0.850000X0.850000X-0.850000X-0.850000X0.850000X-0.850000X0*%
%ADD30O,1.502000X1.502000*%
%ADD31C,3.152000*%
%ADD32C,1.602000*%
%ADD33RoundRect,0.051000X-1.000000X1.000000X-1.000000X-1.000000X1.000000X-1.000000X1.000000X1.000000X0*%
%ADD34RoundRect,0.051000X-1.000000X1.600000X-1.000000X-1.600000X1.000000X-1.600000X1.000000X1.600000X0*%
%ADD35RoundRect,1.051000X0.000000X0.700000X0.000000X-0.700000X0.000000X-0.700000X0.000000X0.700000X0*%
%ADD36RoundRect,0.051000X-0.850000X-0.850000X0.850000X-0.850000X0.850000X0.850000X-0.850000X0.850000X0*%
%ADD37O,1.802000X1.802000*%
%ADD38O,1.802000X2.602000*%
G04 APERTURE END LIST*
D10*
X219367100Y-70802500D03*
D11*
X219367100Y-75882500D03*
D10*
X216420700Y-70802500D03*
D11*
X216420700Y-75882500D03*
D12*
X215341251Y-59537700D03*
D13*
X206691251Y-62917700D03*
X215341251Y-62917700D03*
D12*
X206691251Y-59537700D03*
D14*
X213991251Y-62572700D03*
X213136251Y-62572700D03*
X212286251Y-62572700D03*
X211436251Y-62572700D03*
X210586251Y-62572700D03*
X209736251Y-62572700D03*
X208886251Y-62572700D03*
X208036251Y-62572700D03*
X208041251Y-63897700D03*
X208891251Y-63897700D03*
X209741251Y-63897700D03*
X210591251Y-63897700D03*
X211441251Y-63897700D03*
X212291251Y-63897700D03*
X213141251Y-63897700D03*
X213991251Y-63897700D03*
D10*
X321967188Y-70054948D03*
D11*
X321967188Y-75134948D03*
D10*
X108530629Y-67574655D03*
D11*
X108530629Y-72654655D03*
D10*
X297229706Y-70054948D03*
D11*
X297229706Y-75134948D03*
D10*
X350226818Y-59680499D03*
D11*
X350226818Y-64760499D03*
D10*
X336102892Y-70054948D03*
D11*
X336102892Y-75134948D03*
D10*
X339636818Y-59680499D03*
D11*
X339636818Y-64760499D03*
D10*
X46981402Y-65094362D03*
D11*
X46981402Y-70174362D03*
D10*
X89094031Y-67574655D03*
D11*
X89094031Y-72654655D03*
D10*
X105291196Y-65094362D03*
D11*
X105291196Y-70174362D03*
D10*
X121488361Y-70054948D03*
D11*
X121488361Y-75134948D03*
D10*
X137685526Y-67574655D03*
D11*
X137685526Y-72654655D03*
D10*
X170079856Y-70054948D03*
D11*
X170079856Y-75134948D03*
D10*
X202474222Y-65094362D03*
D11*
X202474222Y-70174362D03*
D10*
X304297558Y-70054948D03*
D11*
X304297558Y-75134948D03*
D10*
X304297558Y-59680499D03*
D11*
X304297558Y-64760499D03*
D10*
X300763632Y-70054948D03*
D11*
X300763632Y-75134948D03*
D10*
X300763632Y-59680499D03*
D11*
X300763632Y-64760499D03*
D10*
X297229706Y-59680499D03*
D11*
X297229706Y-64760499D03*
D10*
X336102892Y-59680499D03*
D11*
X336102892Y-64760499D03*
D10*
X353756818Y-59680499D03*
D11*
X353756818Y-64760499D03*
D10*
X50220835Y-67574655D03*
D11*
X50220835Y-72654655D03*
D10*
X72896866Y-70054948D03*
D11*
X72896866Y-75134948D03*
D10*
X85854598Y-65094362D03*
D11*
X85854598Y-70174362D03*
D10*
X102051763Y-70054948D03*
D11*
X102051763Y-75134948D03*
D10*
X118248928Y-67574655D03*
D11*
X118248928Y-72654655D03*
D10*
X134446093Y-65094362D03*
D11*
X134446093Y-70174362D03*
D10*
X153882691Y-65094362D03*
D11*
X153882691Y-70174362D03*
D10*
X166840423Y-67574655D03*
D11*
X166840423Y-72654655D03*
D10*
X173319289Y-65094362D03*
D11*
X173319289Y-70174362D03*
D10*
X189516466Y-70054948D03*
D11*
X189516466Y-75134948D03*
D10*
X205713661Y-67373500D03*
D11*
X205713661Y-72453500D03*
D10*
X307831484Y-59680499D03*
D11*
X307831484Y-64760499D03*
D10*
X332568966Y-70054948D03*
D11*
X332568966Y-75134948D03*
D10*
X360840374Y-70054948D03*
D11*
X360840374Y-75134948D03*
D10*
X364374300Y-70054948D03*
D11*
X364374300Y-75134948D03*
D10*
X367908226Y-70054948D03*
D11*
X367908226Y-75134948D03*
D10*
X53460268Y-70054948D03*
D11*
X53460268Y-75134948D03*
D10*
X76136299Y-65094362D03*
D11*
X76136299Y-70174362D03*
D10*
X92333464Y-70054948D03*
D11*
X92333464Y-75134948D03*
D10*
X124727794Y-65094362D03*
D11*
X124727794Y-70174362D03*
D10*
X140924959Y-70054948D03*
D11*
X140924959Y-75134948D03*
D10*
X157122124Y-67574655D03*
D11*
X157122124Y-72654655D03*
D10*
X176558722Y-67574655D03*
D11*
X176558722Y-72654655D03*
D10*
X186277027Y-67373500D03*
D11*
X186277027Y-72453500D03*
D10*
X192755905Y-65094362D03*
D11*
X192755905Y-70174362D03*
D10*
X307831484Y-70054948D03*
D11*
X307831484Y-75134948D03*
D10*
X321967188Y-59680499D03*
D11*
X321967188Y-64760499D03*
D10*
X325501114Y-59680499D03*
D11*
X325501114Y-64760499D03*
D10*
X332568966Y-59680499D03*
D11*
X332568966Y-64760499D03*
D10*
X350238596Y-70054948D03*
D11*
X350238596Y-75134948D03*
D10*
X353772522Y-70054948D03*
D11*
X353772522Y-75134948D03*
D10*
X357306448Y-70054948D03*
D11*
X357306448Y-75134948D03*
D10*
X56699701Y-70054948D03*
D11*
X56699701Y-75134948D03*
D10*
X79375732Y-67574655D03*
D11*
X79375732Y-72654655D03*
D10*
X95572897Y-65094362D03*
D11*
X95572897Y-70174362D03*
D10*
X111770062Y-70054948D03*
D11*
X111770062Y-75134948D03*
D10*
X127967227Y-67574655D03*
D11*
X127967227Y-72654655D03*
D10*
X144164392Y-65094362D03*
D11*
X144164392Y-70174362D03*
D10*
X160361557Y-70054948D03*
D11*
X160361557Y-75134948D03*
D10*
X179798155Y-70054948D03*
D11*
X179798155Y-75134948D03*
D10*
X195995344Y-67373500D03*
D11*
X195995344Y-72453500D03*
D10*
X208953100Y-70054948D03*
D11*
X208953100Y-75134948D03*
D10*
X311365410Y-59680499D03*
D11*
X311365410Y-64760499D03*
D10*
X318433262Y-70054948D03*
D11*
X318433262Y-75134948D03*
D10*
X329035040Y-70054948D03*
D11*
X329035040Y-75134948D03*
D10*
X59939134Y-67574655D03*
D11*
X59939134Y-72654655D03*
D10*
X82615165Y-70054948D03*
D11*
X82615165Y-75134948D03*
D10*
X98812330Y-67574655D03*
D11*
X98812330Y-72654655D03*
D10*
X115009495Y-65094362D03*
D11*
X115009495Y-70174362D03*
D10*
X131206660Y-70054948D03*
D11*
X131206660Y-75134948D03*
D10*
X147403825Y-67574655D03*
D11*
X147403825Y-72654655D03*
D10*
X163600990Y-65094362D03*
D11*
X163600990Y-70174362D03*
D10*
X183037588Y-65094362D03*
D11*
X183037588Y-70174362D03*
D10*
X199234783Y-70054948D03*
D11*
X199234783Y-75134948D03*
D10*
X311365410Y-70054948D03*
D11*
X311365410Y-75134948D03*
D10*
X318433262Y-59680499D03*
D11*
X318433262Y-64760499D03*
D10*
X329035040Y-59680499D03*
D11*
X329035040Y-64760499D03*
D10*
X346704670Y-70054948D03*
D11*
X346704670Y-75134948D03*
D10*
X63178567Y-70054948D03*
D11*
X63178567Y-75134948D03*
D10*
X66418000Y-65094362D03*
D11*
X66418000Y-70174362D03*
D10*
X69657433Y-67574655D03*
D11*
X69657433Y-72654655D03*
D10*
X150643258Y-70054948D03*
D11*
X150643258Y-75134948D03*
D10*
X314899336Y-59680499D03*
D11*
X314899336Y-64760499D03*
D10*
X314899336Y-70054948D03*
D11*
X314899336Y-75134948D03*
D10*
X325501114Y-70054948D03*
D11*
X325501114Y-75134948D03*
D10*
X339636818Y-70054948D03*
D11*
X339636818Y-75134948D03*
D10*
X343170744Y-70054948D03*
D11*
X343170744Y-75134948D03*
D10*
X80010000Y-170942000D03*
D11*
X80010000Y-176022000D03*
D10*
X343166818Y-59680499D03*
D11*
X343166818Y-64760499D03*
D10*
X346696818Y-59680499D03*
D11*
X346696818Y-64760499D03*
D15*
X118110000Y-184162700D03*
D16*
X118110000Y-199402700D03*
X218109800Y-199402700D03*
D15*
X218109800Y-184162700D03*
D17*
X65722500Y-116205000D03*
D18*
X60642500Y-116205000D03*
X70802500Y-116205000D03*
D19*
X68262500Y-111125000D03*
X61912500Y-113665000D03*
D18*
X203517500Y-135255000D03*
X213677500Y-135255000D03*
D17*
X208597500Y-135255000D03*
D19*
X211137500Y-130175000D03*
X204787500Y-132715000D03*
D15*
X237172500Y-184150000D03*
D16*
X237172500Y-199390000D03*
X122872500Y-199390000D03*
D15*
X122872500Y-184150000D03*
D20*
X217945459Y-67911544D03*
D21*
X217945459Y-66411544D03*
D22*
X217595499Y-59524900D03*
D23*
X220135499Y-59524900D03*
D24*
X233616500Y-74485500D03*
D11*
X236156500Y-74485500D03*
X238696500Y-74485500D03*
X241236500Y-74485500D03*
X243776500Y-74485500D03*
X246316500Y-74485500D03*
X248856500Y-74485500D03*
X251396500Y-74485500D03*
X253936500Y-74485500D03*
X256476500Y-74485500D03*
X259016500Y-74485500D03*
X261556500Y-74485500D03*
X264096500Y-74485500D03*
X266636500Y-74485500D03*
X269176500Y-74485500D03*
X271716500Y-74485500D03*
X274256500Y-74485500D03*
X276796500Y-74485500D03*
X279336500Y-74485500D03*
X281876500Y-74485500D03*
X281876500Y-59245500D03*
X279336500Y-59245500D03*
X276796500Y-59245500D03*
X274256500Y-59245500D03*
X271716500Y-59245500D03*
X269176500Y-59245500D03*
X266636500Y-59245500D03*
X264096500Y-59245500D03*
X261556500Y-59245500D03*
X259016500Y-59245500D03*
X256476500Y-59245500D03*
X253936500Y-59245500D03*
X251396500Y-59245500D03*
X248856500Y-59245500D03*
X246316500Y-59245500D03*
X243776500Y-59245500D03*
X241236500Y-59245500D03*
X238696500Y-59245500D03*
X236156500Y-59245500D03*
X233616500Y-59245500D03*
D25*
X41147500Y-59313500D03*
X41147500Y-78063500D03*
X380810000Y-78063500D03*
X380810000Y-59313500D03*
X134734300Y-59313500D03*
X211016251Y-104152700D03*
X211016251Y-192163700D03*
X335597500Y-104152700D03*
X86360000Y-104152700D03*
D26*
X177523197Y-57315100D03*
X171023197Y-57315100D03*
X171023197Y-61815100D03*
X177523197Y-61815100D03*
D27*
X273100000Y-79850000D03*
X273100000Y-77350000D03*
X258750000Y-79850000D03*
X258750000Y-77350000D03*
X258940300Y-56756300D03*
X253940300Y-56756300D03*
X256450000Y-76923900D03*
X251450000Y-76923900D03*
D25*
X287223200Y-59313500D03*
D28*
X203515397Y-62278100D03*
X203515397Y-57178100D03*
D29*
X188688397Y-57696100D03*
D18*
X188688397Y-60236100D03*
X186148397Y-57696100D03*
X186148397Y-60236100D03*
X183608397Y-57696100D03*
X183608397Y-60236100D03*
D28*
X229984300Y-65842226D03*
D30*
X222364300Y-65842226D03*
D28*
X222364300Y-68353189D03*
D30*
X229984300Y-68353189D03*
D28*
X229984300Y-70864152D03*
D30*
X222364300Y-70864152D03*
D28*
X229984300Y-73375115D03*
D30*
X222364300Y-73375115D03*
D28*
X229984300Y-75886078D03*
D30*
X222364300Y-75886078D03*
D28*
X229984300Y-63331263D03*
D30*
X222364300Y-63331263D03*
D28*
X222364300Y-60820300D03*
D30*
X229984300Y-60820300D03*
D26*
X164784597Y-57289700D03*
X158284597Y-57289700D03*
X158284597Y-61789700D03*
X164784597Y-61789700D03*
D18*
X41592500Y-92392500D03*
D17*
X46672500Y-92392500D03*
D18*
X51752500Y-92392500D03*
D19*
X49212500Y-87312500D03*
X42862500Y-89852500D03*
D18*
X79692500Y-92392500D03*
X89852500Y-92392500D03*
D17*
X84772500Y-92392500D03*
D19*
X87312500Y-87312500D03*
X80962500Y-89852500D03*
D17*
X103822500Y-92392500D03*
D18*
X108902500Y-92392500D03*
X98742500Y-92392500D03*
D19*
X106362500Y-87312500D03*
X100012500Y-89852500D03*
D17*
X122872500Y-92392500D03*
D18*
X127952500Y-92392500D03*
X117792500Y-92392500D03*
D19*
X125412500Y-87312500D03*
X119062500Y-89852500D03*
D17*
X141922500Y-92392500D03*
D18*
X147002500Y-92392500D03*
X136842500Y-92392500D03*
D19*
X144462500Y-87312500D03*
X138112500Y-89852500D03*
D18*
X165417500Y-92392500D03*
D17*
X170497500Y-92392500D03*
D18*
X175577500Y-92392500D03*
D19*
X173037500Y-87312500D03*
X166687500Y-89852500D03*
D17*
X189547500Y-92392500D03*
D18*
X184467500Y-92392500D03*
X194627500Y-92392500D03*
D19*
X192087500Y-87312500D03*
X185737500Y-89852500D03*
D18*
X203517500Y-92392500D03*
D17*
X208597500Y-92392500D03*
D18*
X213677500Y-92392500D03*
D19*
X211137500Y-87312500D03*
X204787500Y-89852500D03*
D18*
X232727500Y-92392500D03*
X222567500Y-92392500D03*
D17*
X227647500Y-92392500D03*
D19*
X230187500Y-87312500D03*
X223837500Y-89852500D03*
D17*
X256222500Y-92392500D03*
D18*
X261302500Y-92392500D03*
X251142500Y-92392500D03*
D19*
X258762500Y-87312500D03*
X252412500Y-89852500D03*
D18*
X270192500Y-92392500D03*
X280352500Y-92392500D03*
D17*
X275272500Y-92392500D03*
D19*
X277812500Y-87312500D03*
X271462500Y-89852500D03*
D18*
X299402500Y-92392500D03*
X289242500Y-92392500D03*
D17*
X294322500Y-92392500D03*
D19*
X296862500Y-87312500D03*
X290512500Y-89852500D03*
D17*
X313372500Y-92392500D03*
D18*
X308292500Y-92392500D03*
X318452500Y-92392500D03*
D19*
X315912500Y-87312500D03*
X309562500Y-89852500D03*
D17*
X337185000Y-92392500D03*
D18*
X332105000Y-92392500D03*
X342265000Y-92392500D03*
D19*
X339725000Y-87312500D03*
X333375000Y-89852500D03*
D17*
X356235000Y-92392500D03*
D18*
X351155000Y-92392500D03*
X361315000Y-92392500D03*
D19*
X358775000Y-87312500D03*
X352425000Y-89852500D03*
D17*
X375285000Y-92392500D03*
D18*
X380365000Y-92392500D03*
X370205000Y-92392500D03*
D19*
X377825000Y-87312500D03*
X371475000Y-89852500D03*
D18*
X51752500Y-116205000D03*
X41592500Y-116205000D03*
D17*
X46672500Y-116205000D03*
D19*
X49212500Y-111125000D03*
X42862500Y-113665000D03*
D18*
X89852500Y-116205000D03*
D17*
X84772500Y-116205000D03*
D18*
X79692500Y-116205000D03*
D19*
X87312500Y-111125000D03*
X80962500Y-113665000D03*
D18*
X108902500Y-116205000D03*
D17*
X103822500Y-116205000D03*
D18*
X98742500Y-116205000D03*
D19*
X106362500Y-111125000D03*
X100012500Y-113665000D03*
D17*
X122872500Y-116205000D03*
D18*
X117792500Y-116205000D03*
X127952500Y-116205000D03*
D19*
X125412500Y-111125000D03*
X119062500Y-113665000D03*
D17*
X141922500Y-116205000D03*
D18*
X147002500Y-116205000D03*
X136842500Y-116205000D03*
D19*
X144462500Y-111125000D03*
X138112500Y-113665000D03*
D18*
X166052500Y-116205000D03*
X155892500Y-116205000D03*
D17*
X160972500Y-116205000D03*
D19*
X163512500Y-111125000D03*
X157162500Y-113665000D03*
D18*
X174942500Y-116205000D03*
D17*
X180022500Y-116205000D03*
D18*
X185102500Y-116205000D03*
D19*
X182562500Y-111125000D03*
X176212500Y-113665000D03*
D18*
X204152500Y-116205000D03*
D17*
X199072500Y-116205000D03*
D18*
X193992500Y-116205000D03*
D19*
X201612500Y-111125000D03*
X195262500Y-113665000D03*
D18*
X223202500Y-116205000D03*
X213042500Y-116205000D03*
D17*
X218122500Y-116205000D03*
D19*
X220662500Y-111125000D03*
X214312500Y-113665000D03*
D17*
X237172500Y-116205000D03*
D18*
X242252500Y-116205000D03*
X232092500Y-116205000D03*
D19*
X239712500Y-111125000D03*
X233362500Y-113665000D03*
D17*
X256222500Y-116205000D03*
D18*
X251142500Y-116205000D03*
X261302500Y-116205000D03*
D19*
X258762500Y-111125000D03*
X252412500Y-113665000D03*
D18*
X270192500Y-116205000D03*
X280352500Y-116205000D03*
D17*
X275272500Y-116205000D03*
D19*
X277812500Y-111125000D03*
X271462500Y-113665000D03*
D31*
X291947500Y-109205000D03*
D17*
X291947500Y-124445000D03*
X303847500Y-116205000D03*
D18*
X298767500Y-116205000D03*
X308927500Y-116205000D03*
D17*
X315747500Y-124445000D03*
D31*
X315747500Y-109205000D03*
D19*
X306387500Y-111125000D03*
X300037500Y-113665000D03*
D18*
X332105000Y-116205000D03*
X342265000Y-116205000D03*
D17*
X337185000Y-116205000D03*
D19*
X339725000Y-111125000D03*
X333375000Y-113665000D03*
D17*
X356235000Y-116205000D03*
D18*
X351155000Y-116205000D03*
X361315000Y-116205000D03*
D19*
X358775000Y-111125000D03*
X352425000Y-113665000D03*
D17*
X375285000Y-116205000D03*
D18*
X370205000Y-116205000D03*
X380365000Y-116205000D03*
D19*
X377825000Y-111125000D03*
X371475000Y-113665000D03*
D18*
X46355000Y-135255000D03*
X56515000Y-135255000D03*
D17*
X51435000Y-135255000D03*
D19*
X53975000Y-130175000D03*
X47625000Y-132715000D03*
D18*
X80327500Y-135255000D03*
D17*
X75247500Y-135255000D03*
D18*
X70167500Y-135255000D03*
D19*
X77787500Y-130175000D03*
X71437500Y-132715000D03*
D17*
X94297500Y-135255000D03*
D18*
X99377500Y-135255000D03*
X89217500Y-135255000D03*
D19*
X96837500Y-130175000D03*
X90487500Y-132715000D03*
D17*
X113347500Y-135255000D03*
D18*
X118427500Y-135255000D03*
X108267500Y-135255000D03*
D19*
X115887500Y-130175000D03*
X109537500Y-132715000D03*
D17*
X132397500Y-135255000D03*
D18*
X137477500Y-135255000D03*
X127317500Y-135255000D03*
D19*
X134937500Y-130175000D03*
X128587500Y-132715000D03*
D18*
X156527500Y-135255000D03*
X146367500Y-135255000D03*
D17*
X151447500Y-135255000D03*
D19*
X153987500Y-130175000D03*
X147637500Y-132715000D03*
D18*
X175577500Y-135255000D03*
X165417500Y-135255000D03*
D17*
X170497500Y-135255000D03*
D19*
X173037500Y-130175000D03*
X166687500Y-132715000D03*
D17*
X189547500Y-135255000D03*
D18*
X194627500Y-135255000D03*
X184467500Y-135255000D03*
D19*
X192087500Y-130175000D03*
X185737500Y-132715000D03*
D17*
X227647500Y-135255000D03*
D18*
X222567500Y-135255000D03*
X232727500Y-135255000D03*
D19*
X230187500Y-130175000D03*
X223837500Y-132715000D03*
D18*
X251777500Y-135255000D03*
D17*
X246697500Y-135255000D03*
D18*
X241617500Y-135255000D03*
D19*
X249237500Y-130175000D03*
X242887500Y-132715000D03*
D18*
X260667500Y-135255000D03*
D17*
X265747500Y-135255000D03*
D18*
X270827500Y-135255000D03*
D19*
X268287500Y-130175000D03*
X261937500Y-132715000D03*
D17*
X284797500Y-135255000D03*
D18*
X289877500Y-135255000D03*
X279717500Y-135255000D03*
D19*
X287337500Y-130175000D03*
X280987500Y-132715000D03*
D18*
X313690000Y-135255000D03*
X303530000Y-135255000D03*
D17*
X308610000Y-135255000D03*
D19*
X311150000Y-130175000D03*
X304800000Y-132715000D03*
D18*
X342265000Y-135255000D03*
X332105000Y-135255000D03*
D17*
X337185000Y-135255000D03*
D19*
X339725000Y-130175000D03*
X333375000Y-132715000D03*
D18*
X361315000Y-135255000D03*
X351155000Y-135255000D03*
D17*
X356235000Y-135255000D03*
D19*
X358775000Y-130175000D03*
X352425000Y-132715000D03*
D18*
X380365000Y-135255000D03*
D17*
X375285000Y-135255000D03*
D18*
X370205000Y-135255000D03*
D19*
X377825000Y-130175000D03*
X371475000Y-132715000D03*
D17*
X53816250Y-154305000D03*
D18*
X48736250Y-154305000D03*
X58896250Y-154305000D03*
D19*
X56356250Y-149225000D03*
X50006250Y-151765000D03*
D18*
X54133750Y-154305000D03*
X43973750Y-154305000D03*
D17*
X49053750Y-154305000D03*
D19*
X51593750Y-149225000D03*
X45243750Y-151765000D03*
D18*
X85090000Y-154305000D03*
X74930000Y-154305000D03*
D17*
X80010000Y-154305000D03*
D19*
X82550000Y-149225000D03*
X76200000Y-151765000D03*
D18*
X104140000Y-154305000D03*
X93980000Y-154305000D03*
D17*
X99060000Y-154305000D03*
D19*
X101600000Y-149225000D03*
X95250000Y-151765000D03*
D17*
X118110000Y-154305000D03*
D18*
X113030000Y-154305000D03*
X123190000Y-154305000D03*
D19*
X120650000Y-149225000D03*
X114300000Y-151765000D03*
D17*
X137160000Y-154305000D03*
D18*
X142240000Y-154305000D03*
X132080000Y-154305000D03*
D19*
X139700000Y-149225000D03*
X133350000Y-151765000D03*
D17*
X156210000Y-154305000D03*
D18*
X161290000Y-154305000D03*
X151130000Y-154305000D03*
D19*
X158750000Y-149225000D03*
X152400000Y-151765000D03*
D18*
X180340000Y-154305000D03*
D17*
X175260000Y-154305000D03*
D18*
X170180000Y-154305000D03*
D19*
X177800000Y-149225000D03*
X171450000Y-151765000D03*
D18*
X189230000Y-154305000D03*
D17*
X194310000Y-154305000D03*
D18*
X199390000Y-154305000D03*
D19*
X196850000Y-149225000D03*
X190500000Y-151765000D03*
D18*
X208280000Y-154305000D03*
D17*
X213360000Y-154305000D03*
D18*
X218440000Y-154305000D03*
D19*
X215900000Y-149225000D03*
X209550000Y-151765000D03*
D17*
X232410000Y-154305000D03*
D18*
X227330000Y-154305000D03*
X237490000Y-154305000D03*
D19*
X234950000Y-149225000D03*
X228600000Y-151765000D03*
D18*
X246380000Y-154305000D03*
D17*
X251460000Y-154305000D03*
D18*
X256540000Y-154305000D03*
D19*
X254000000Y-149225000D03*
X247650000Y-151765000D03*
D18*
X275590000Y-154305000D03*
X265430000Y-154305000D03*
D17*
X270510000Y-154305000D03*
D19*
X273050000Y-149225000D03*
X266700000Y-151765000D03*
D18*
X296386250Y-154305000D03*
D31*
X313366250Y-147305000D03*
D18*
X306546250Y-154305000D03*
D17*
X301466250Y-154305000D03*
X313366250Y-162545000D03*
X289566250Y-162545000D03*
D31*
X289566250Y-147305000D03*
D19*
X304006250Y-149225000D03*
X297656250Y-151765000D03*
D31*
X70478750Y-166355000D03*
D17*
X70478750Y-181595000D03*
X58578750Y-173355000D03*
D18*
X53498750Y-173355000D03*
D17*
X46678750Y-181595000D03*
D31*
X46678750Y-166355000D03*
D18*
X63658750Y-173355000D03*
D19*
X61118750Y-168275000D03*
X54768750Y-170815000D03*
D18*
X84455000Y-173355000D03*
D17*
X89535000Y-173355000D03*
D18*
X94615000Y-173355000D03*
D19*
X92075000Y-168275000D03*
X85725000Y-170815000D03*
D17*
X108585000Y-173355000D03*
D18*
X103505000Y-173355000D03*
X113665000Y-173355000D03*
D19*
X111125000Y-168275000D03*
X104775000Y-170815000D03*
D17*
X127635000Y-173355000D03*
D18*
X132715000Y-173355000D03*
X122555000Y-173355000D03*
D19*
X130175000Y-168275000D03*
X123825000Y-170815000D03*
D17*
X146685000Y-173355000D03*
D18*
X141605000Y-173355000D03*
X151765000Y-173355000D03*
D19*
X149225000Y-168275000D03*
X142875000Y-170815000D03*
D17*
X165735000Y-173355000D03*
D18*
X160655000Y-173355000D03*
X170815000Y-173355000D03*
D19*
X168275000Y-168275000D03*
X161925000Y-170815000D03*
D18*
X189865000Y-173355000D03*
X179705000Y-173355000D03*
D17*
X184785000Y-173355000D03*
D19*
X187325000Y-168275000D03*
X180975000Y-170815000D03*
D18*
X208915000Y-173355000D03*
D17*
X203835000Y-173355000D03*
D18*
X198755000Y-173355000D03*
D19*
X206375000Y-168275000D03*
X200025000Y-170815000D03*
D18*
X227965000Y-173355000D03*
X217805000Y-173355000D03*
D17*
X222885000Y-173355000D03*
D19*
X225425000Y-168275000D03*
X219075000Y-170815000D03*
D17*
X241935000Y-173355000D03*
D18*
X236855000Y-173355000D03*
X247015000Y-173355000D03*
D19*
X244475000Y-168275000D03*
X238125000Y-170815000D03*
D18*
X255905000Y-173355000D03*
X266065000Y-173355000D03*
D17*
X260985000Y-173355000D03*
D19*
X263525000Y-168275000D03*
X257175000Y-170815000D03*
D18*
X351155000Y-173355000D03*
D17*
X356235000Y-173355000D03*
D18*
X361315000Y-173355000D03*
D19*
X358775000Y-168275000D03*
X352425000Y-170815000D03*
D18*
X56515000Y-192405000D03*
D17*
X51435000Y-192405000D03*
D18*
X46355000Y-192405000D03*
D19*
X53975000Y-187325000D03*
X47625000Y-189865000D03*
D18*
X54133750Y-192405000D03*
X43973750Y-192405000D03*
D17*
X49053750Y-192405000D03*
D19*
X51593750Y-187325000D03*
X45243750Y-189865000D03*
D18*
X77946250Y-192405000D03*
X67786250Y-192405000D03*
D17*
X72866250Y-192405000D03*
D19*
X75406250Y-187325000D03*
X69056250Y-189865000D03*
D17*
X75247500Y-192405000D03*
D18*
X70167500Y-192405000D03*
X80327500Y-192405000D03*
D19*
X77787500Y-187325000D03*
X71437500Y-189865000D03*
D18*
X93980000Y-192405000D03*
X104140000Y-192405000D03*
D17*
X99060000Y-192405000D03*
D19*
X101600000Y-187325000D03*
X95250000Y-189865000D03*
D18*
X101758750Y-192405000D03*
D17*
X96678750Y-192405000D03*
D18*
X91598750Y-192405000D03*
D19*
X99218750Y-187325000D03*
X92868750Y-189865000D03*
D18*
X173196250Y-192405000D03*
X163036250Y-192405000D03*
D17*
X168116250Y-192405000D03*
D19*
X170656250Y-187325000D03*
X164306250Y-189865000D03*
D17*
X180022500Y-192405000D03*
D18*
X185102500Y-192405000D03*
X174942500Y-192405000D03*
D19*
X182562500Y-187325000D03*
X176212500Y-189865000D03*
D18*
X244633750Y-192405000D03*
D17*
X239553750Y-192405000D03*
D18*
X234473750Y-192405000D03*
D19*
X242093750Y-187325000D03*
X235743750Y-189865000D03*
D17*
X260985000Y-192405000D03*
D18*
X266065000Y-192405000D03*
X255905000Y-192405000D03*
D19*
X263525000Y-187325000D03*
X257175000Y-189865000D03*
D18*
X258286250Y-192405000D03*
X268446250Y-192405000D03*
D17*
X263366250Y-192405000D03*
D19*
X265906250Y-187325000D03*
X259556250Y-189865000D03*
D18*
X292258750Y-192405000D03*
D17*
X287178750Y-192405000D03*
D18*
X282098750Y-192405000D03*
D19*
X289718750Y-187325000D03*
X283368750Y-189865000D03*
D17*
X284797500Y-192405000D03*
D18*
X289877500Y-192405000D03*
X279717500Y-192405000D03*
D19*
X287337500Y-187325000D03*
X280987500Y-189865000D03*
D18*
X313690000Y-192405000D03*
X303530000Y-192405000D03*
D17*
X308610000Y-192405000D03*
D19*
X311150000Y-187325000D03*
X304800000Y-189865000D03*
D17*
X310991250Y-192405000D03*
D18*
X305911250Y-192405000D03*
X316071250Y-192405000D03*
D19*
X313531250Y-187325000D03*
X307181250Y-189865000D03*
D17*
X337185000Y-192405000D03*
D18*
X332105000Y-192405000D03*
X342265000Y-192405000D03*
D19*
X339725000Y-187325000D03*
X333375000Y-189865000D03*
D18*
X361315000Y-192405000D03*
D17*
X356235000Y-192405000D03*
D18*
X351155000Y-192405000D03*
D19*
X358775000Y-187325000D03*
X352425000Y-189865000D03*
D17*
X375285000Y-192405000D03*
D18*
X380365000Y-192405000D03*
X370205000Y-192405000D03*
D19*
X377825000Y-187325000D03*
X371475000Y-189865000D03*
D32*
X268377300Y-78447900D03*
X263497300Y-78447900D03*
D31*
X308603750Y-166361350D03*
D17*
X284803750Y-181601350D03*
D18*
X291623750Y-173361350D03*
D17*
X296703750Y-173361350D03*
D18*
X301783750Y-173361350D03*
D31*
X284803750Y-166361350D03*
D17*
X308603750Y-181601350D03*
D19*
X299243750Y-168281350D03*
X292893750Y-170821350D03*
D25*
X134734300Y-78063500D03*
X287223200Y-78063500D03*
D17*
X302751750Y-132880000D03*
D31*
X317991750Y-156680000D03*
D17*
X302751750Y-156680000D03*
X310991750Y-144780000D03*
D18*
X305911750Y-144780000D03*
X316071750Y-144780000D03*
D31*
X317991750Y-132880000D03*
D19*
X313531750Y-139700000D03*
X307181750Y-142240000D03*
D18*
X284480000Y-154305000D03*
D17*
X289560000Y-154305000D03*
D18*
X294640000Y-154305000D03*
D19*
X292100000Y-149225000D03*
X285750000Y-151765000D03*
D18*
X54133750Y-173355000D03*
D17*
X49053750Y-173355000D03*
D18*
X43973750Y-173355000D03*
D19*
X51593750Y-168275000D03*
X45243750Y-170815000D03*
D18*
X65405000Y-173355000D03*
D17*
X70485000Y-173355000D03*
D18*
X75565000Y-173355000D03*
D19*
X73025000Y-168275000D03*
X66675000Y-170815000D03*
D25*
X79998700Y-182037500D03*
D18*
X299402500Y-116205000D03*
D17*
X294322500Y-116205000D03*
D18*
X289242500Y-116205000D03*
D19*
X296862500Y-111125000D03*
X290512500Y-113665000D03*
D18*
X318452500Y-116205000D03*
X308292500Y-116205000D03*
D17*
X313372500Y-116205000D03*
D19*
X315912500Y-111125000D03*
X309562500Y-113665000D03*
D18*
X292258750Y-173355000D03*
D17*
X287178750Y-173355000D03*
D18*
X282098750Y-173355000D03*
D19*
X289718750Y-168275000D03*
X283368750Y-170815000D03*
D18*
X308292500Y-173355000D03*
D17*
X313372500Y-173355000D03*
D18*
X318452500Y-173355000D03*
D19*
X315912500Y-168275000D03*
X309562500Y-170815000D03*
D33*
X377785000Y-84892500D03*
D26*
X372785000Y-84892500D03*
X375285000Y-84892500D03*
D34*
X380885000Y-92392500D03*
D35*
X369685000Y-92392500D03*
D26*
X372785000Y-99392500D03*
X377785000Y-99392500D03*
D28*
X375245400Y-64868400D03*
D30*
X375245400Y-72488400D03*
D28*
X377745400Y-64868400D03*
D30*
X377745400Y-72488400D03*
D36*
X371918000Y-64879600D03*
D37*
X371918000Y-67419600D03*
X371918000Y-69959600D03*
X371918000Y-72499600D03*
D25*
X365758400Y-182016400D03*
D21*
X55048000Y-64330000D03*
X55048000Y-57330000D03*
D38*
X52948000Y-67630000D03*
X57148000Y-59130000D03*
X57148000Y-62130000D03*
X57148000Y-66130000D03*
D21*
X366910000Y-64330000D03*
X366910000Y-57330000D03*
D38*
X364810000Y-67630000D03*
X369010000Y-59130000D03*
X369010000Y-62130000D03*
X369010000Y-66130000D03*
G36*
X259008579Y-192943372D02*
G01*
X259074628Y-193136282D01*
X259074243Y-193138245D01*
X259072351Y-193138893D01*
X259071103Y-193138085D01*
X259031371Y-193081895D01*
X258967160Y-193055940D01*
X258898912Y-193068858D01*
X258894127Y-193071912D01*
X258892129Y-193072001D01*
X258891053Y-193070315D01*
X258891565Y-193068888D01*
X259005201Y-192942682D01*
X259007103Y-192942064D01*
X259008579Y-192943372D01*
G37*
G36*
X47077329Y-192943372D02*
G01*
X47143378Y-193136282D01*
X47142993Y-193138245D01*
X47141101Y-193138893D01*
X47139853Y-193138085D01*
X47100121Y-193081895D01*
X47035910Y-193055940D01*
X46967662Y-193068858D01*
X46962877Y-193071912D01*
X46960879Y-193072001D01*
X46959803Y-193070315D01*
X46960315Y-193068888D01*
X47073951Y-192942682D01*
X47075853Y-192942064D01*
X47077329Y-192943372D01*
G37*
G36*
X306633579Y-192943372D02*
G01*
X306699628Y-193136282D01*
X306699243Y-193138245D01*
X306697351Y-193138893D01*
X306696103Y-193138085D01*
X306656371Y-193081895D01*
X306592160Y-193055940D01*
X306523912Y-193068858D01*
X306519127Y-193071912D01*
X306517129Y-193072001D01*
X306516053Y-193070315D01*
X306516565Y-193068888D01*
X306630201Y-192942682D01*
X306632103Y-192942064D01*
X306633579Y-192943372D01*
G37*
G36*
X70889829Y-192943372D02*
G01*
X70955878Y-193136282D01*
X70955493Y-193138245D01*
X70953601Y-193138893D01*
X70952353Y-193138085D01*
X70912621Y-193081895D01*
X70848410Y-193055940D01*
X70780162Y-193068858D01*
X70775377Y-193071912D01*
X70773379Y-193072001D01*
X70772303Y-193070315D01*
X70772815Y-193068888D01*
X70886451Y-192942682D01*
X70888353Y-192942064D01*
X70889829Y-192943372D01*
G37*
G36*
X282821079Y-192943372D02*
G01*
X282887128Y-193136282D01*
X282886743Y-193138245D01*
X282884851Y-193138893D01*
X282883603Y-193138085D01*
X282843871Y-193081895D01*
X282779660Y-193055940D01*
X282711412Y-193068858D01*
X282706627Y-193071912D01*
X282704629Y-193072001D01*
X282703553Y-193070315D01*
X282704065Y-193068888D01*
X282817701Y-192942682D01*
X282819603Y-192942064D01*
X282821079Y-192943372D01*
G37*
G36*
X94702329Y-192943372D02*
G01*
X94768378Y-193136282D01*
X94767993Y-193138245D01*
X94766101Y-193138893D01*
X94764853Y-193138085D01*
X94725121Y-193081895D01*
X94660910Y-193055940D01*
X94592662Y-193068858D01*
X94587877Y-193071912D01*
X94585879Y-193072001D01*
X94584803Y-193070315D01*
X94585315Y-193068888D01*
X94698951Y-192942682D01*
X94700853Y-192942064D01*
X94702329Y-192943372D01*
G37*
G36*
X77225280Y-192940440D02*
G01*
X77344727Y-193073100D01*
X77345143Y-193075056D01*
X77343657Y-193076394D01*
X77342426Y-193076265D01*
X77293290Y-193054351D01*
X77224829Y-193064816D01*
X77172745Y-193110764D01*
X77163029Y-193130286D01*
X77161362Y-193131391D01*
X77159571Y-193130500D01*
X77159367Y-193128688D01*
X77209042Y-192997228D01*
X77221844Y-192941331D01*
X77223206Y-192939866D01*
X77225280Y-192940440D01*
G37*
G36*
X265344030Y-192940440D02*
G01*
X265463477Y-193073100D01*
X265463893Y-193075056D01*
X265462407Y-193076394D01*
X265461176Y-193076265D01*
X265412040Y-193054351D01*
X265343579Y-193064816D01*
X265291495Y-193110764D01*
X265281779Y-193130286D01*
X265280112Y-193131391D01*
X265278321Y-193130500D01*
X265278117Y-193128688D01*
X265327792Y-192997228D01*
X265340594Y-192941331D01*
X265341956Y-192939866D01*
X265344030Y-192940440D01*
G37*
G36*
X101037780Y-192940440D02*
G01*
X101157227Y-193073100D01*
X101157643Y-193075056D01*
X101156157Y-193076394D01*
X101154926Y-193076265D01*
X101105790Y-193054351D01*
X101037329Y-193064816D01*
X100985245Y-193110764D01*
X100975529Y-193130286D01*
X100973862Y-193131391D01*
X100972071Y-193130500D01*
X100971867Y-193128688D01*
X101021542Y-192997228D01*
X101034344Y-192941331D01*
X101035706Y-192939866D01*
X101037780Y-192940440D01*
G37*
G36*
X289156530Y-192940440D02*
G01*
X289275977Y-193073100D01*
X289276393Y-193075056D01*
X289274907Y-193076394D01*
X289273676Y-193076265D01*
X289224540Y-193054351D01*
X289156079Y-193064816D01*
X289103995Y-193110764D01*
X289094279Y-193130286D01*
X289092612Y-193131391D01*
X289090821Y-193130500D01*
X289090617Y-193128688D01*
X289140292Y-192997228D01*
X289153094Y-192941331D01*
X289154456Y-192939866D01*
X289156530Y-192940440D01*
G37*
G36*
X312969030Y-192940440D02*
G01*
X313088477Y-193073100D01*
X313088893Y-193075056D01*
X313087407Y-193076394D01*
X313086176Y-193076265D01*
X313037040Y-193054351D01*
X312968579Y-193064816D01*
X312916495Y-193110764D01*
X312906779Y-193130286D01*
X312905112Y-193131391D01*
X312903321Y-193130500D01*
X312903117Y-193128688D01*
X312952792Y-192997228D01*
X312965594Y-192941331D01*
X312966956Y-192939866D01*
X312969030Y-192940440D01*
G37*
G36*
X53412780Y-192940440D02*
G01*
X53532227Y-193073100D01*
X53532643Y-193075056D01*
X53531157Y-193076394D01*
X53529926Y-193076265D01*
X53480790Y-193054351D01*
X53412329Y-193064816D01*
X53360245Y-193110764D01*
X53350529Y-193130286D01*
X53348862Y-193131391D01*
X53347071Y-193130500D01*
X53346867Y-193128688D01*
X53396542Y-192997228D01*
X53409344Y-192941331D01*
X53410706Y-192939866D01*
X53412780Y-192940440D01*
G37*
G36*
X174070861Y-192616184D02*
G01*
X174071277Y-192616904D01*
X174121233Y-192770652D01*
X174201251Y-192909248D01*
X174201251Y-192911248D01*
X174199519Y-192912248D01*
X174197952Y-192911490D01*
X174184086Y-192893995D01*
X174183874Y-192893667D01*
X174177638Y-192881533D01*
X174129703Y-192831132D01*
X174062418Y-192814718D01*
X173996871Y-192837311D01*
X173961055Y-192876938D01*
X173933748Y-192925006D01*
X173933523Y-192925325D01*
X173931323Y-192927873D01*
X173929434Y-192928531D01*
X173927920Y-192927223D01*
X173928077Y-192925566D01*
X174017517Y-192770652D01*
X174067473Y-192616904D01*
X174068959Y-192615566D01*
X174070861Y-192616184D01*
G37*
G36*
X174207675Y-191888196D02*
G01*
X174207528Y-191889880D01*
X174121233Y-192039348D01*
X174071277Y-192193096D01*
X174069791Y-192194434D01*
X174067889Y-192193816D01*
X174067473Y-192193096D01*
X174017517Y-192039348D01*
X173934362Y-191895319D01*
X173934362Y-191893319D01*
X173936094Y-191892319D01*
X173937644Y-191893055D01*
X173947763Y-191905462D01*
X173947979Y-191905787D01*
X173961058Y-191930386D01*
X174009693Y-191980113D01*
X174077200Y-191995585D01*
X174142427Y-191972078D01*
X174177684Y-191931957D01*
X174197813Y-191895342D01*
X174198034Y-191895019D01*
X174204264Y-191887594D01*
X174206143Y-191886910D01*
X174207675Y-191888196D01*
G37*
G36*
X47142085Y-191677970D02*
G01*
X47142310Y-191679782D01*
X47086113Y-191833347D01*
X47078610Y-191867759D01*
X47077264Y-191869238D01*
X47075170Y-191868671D01*
X46956490Y-191736864D01*
X46956074Y-191734908D01*
X46957560Y-191733570D01*
X46958765Y-191733688D01*
X47009615Y-191755520D01*
X47077927Y-191744100D01*
X47129364Y-191697428D01*
X47138631Y-191678226D01*
X47140284Y-191677100D01*
X47142085Y-191677970D01*
G37*
G36*
X70954585Y-191677970D02*
G01*
X70954810Y-191679782D01*
X70898613Y-191833347D01*
X70891110Y-191867759D01*
X70889764Y-191869238D01*
X70887670Y-191868671D01*
X70768990Y-191736864D01*
X70768574Y-191734908D01*
X70770060Y-191733570D01*
X70771265Y-191733688D01*
X70822115Y-191755520D01*
X70890427Y-191744100D01*
X70941864Y-191697428D01*
X70951131Y-191678226D01*
X70952784Y-191677100D01*
X70954585Y-191677970D01*
G37*
G36*
X94767085Y-191677970D02*
G01*
X94767310Y-191679782D01*
X94711113Y-191833347D01*
X94703610Y-191867759D01*
X94702264Y-191869238D01*
X94700170Y-191868671D01*
X94581490Y-191736864D01*
X94581074Y-191734908D01*
X94582560Y-191733570D01*
X94583765Y-191733688D01*
X94634615Y-191755520D01*
X94702927Y-191744100D01*
X94754364Y-191697428D01*
X94763631Y-191678226D01*
X94765284Y-191677100D01*
X94767085Y-191677970D01*
G37*
G36*
X306698335Y-191677970D02*
G01*
X306698560Y-191679782D01*
X306642363Y-191833347D01*
X306634860Y-191867759D01*
X306633514Y-191869238D01*
X306631420Y-191868671D01*
X306512740Y-191736864D01*
X306512324Y-191734908D01*
X306513810Y-191733570D01*
X306515015Y-191733688D01*
X306565865Y-191755520D01*
X306634177Y-191744100D01*
X306685614Y-191697428D01*
X306694881Y-191678226D01*
X306696534Y-191677100D01*
X306698335Y-191677970D01*
G37*
G36*
X259073335Y-191677970D02*
G01*
X259073560Y-191679782D01*
X259017363Y-191833347D01*
X259009860Y-191867759D01*
X259008514Y-191869238D01*
X259006420Y-191868671D01*
X258887740Y-191736864D01*
X258887324Y-191734908D01*
X258888810Y-191733570D01*
X258890015Y-191733688D01*
X258940865Y-191755520D01*
X259009177Y-191744100D01*
X259060614Y-191697428D01*
X259069881Y-191678226D01*
X259071534Y-191677100D01*
X259073335Y-191677970D01*
G37*
G36*
X282885835Y-191677970D02*
G01*
X282886060Y-191679782D01*
X282829863Y-191833347D01*
X282822360Y-191867759D01*
X282821014Y-191869238D01*
X282818920Y-191868671D01*
X282700240Y-191736864D01*
X282699824Y-191734908D01*
X282701310Y-191733570D01*
X282702515Y-191733688D01*
X282753365Y-191755520D01*
X282821677Y-191744100D01*
X282873114Y-191697428D01*
X282882381Y-191678226D01*
X282884034Y-191677100D01*
X282885835Y-191677970D01*
G37*
G36*
X100973999Y-191674175D02*
G01*
X101014318Y-191729947D01*
X101078796Y-191755228D01*
X101146904Y-191741595D01*
X101148864Y-191740310D01*
X101150860Y-191740197D01*
X101151957Y-191741870D01*
X101151446Y-191743321D01*
X101039578Y-191867562D01*
X101037676Y-191868180D01*
X101036190Y-191866842D01*
X101036134Y-191866630D01*
X101033516Y-191853985D01*
X100970493Y-191676015D01*
X100970857Y-191674048D01*
X100972742Y-191673380D01*
X100973999Y-191674175D01*
G37*
G36*
X312905249Y-191674175D02*
G01*
X312945568Y-191729947D01*
X313010046Y-191755228D01*
X313078154Y-191741595D01*
X313080114Y-191740310D01*
X313082110Y-191740197D01*
X313083207Y-191741870D01*
X313082696Y-191743321D01*
X312970828Y-191867562D01*
X312968926Y-191868180D01*
X312967440Y-191866842D01*
X312967384Y-191866630D01*
X312964766Y-191853985D01*
X312901743Y-191676015D01*
X312902107Y-191674048D01*
X312903992Y-191673380D01*
X312905249Y-191674175D01*
G37*
G36*
X77161499Y-191674175D02*
G01*
X77201818Y-191729947D01*
X77266296Y-191755228D01*
X77334404Y-191741595D01*
X77336364Y-191740310D01*
X77338360Y-191740197D01*
X77339457Y-191741870D01*
X77338946Y-191743321D01*
X77227078Y-191867562D01*
X77225176Y-191868180D01*
X77223690Y-191866842D01*
X77223634Y-191866630D01*
X77221016Y-191853985D01*
X77157993Y-191676015D01*
X77158357Y-191674048D01*
X77160242Y-191673380D01*
X77161499Y-191674175D01*
G37*
G36*
X53348999Y-191674175D02*
G01*
X53389318Y-191729947D01*
X53453796Y-191755228D01*
X53521904Y-191741595D01*
X53523864Y-191740310D01*
X53525860Y-191740197D01*
X53526957Y-191741870D01*
X53526446Y-191743321D01*
X53414578Y-191867562D01*
X53412676Y-191868180D01*
X53411190Y-191866842D01*
X53411134Y-191866630D01*
X53408516Y-191853985D01*
X53345493Y-191676015D01*
X53345857Y-191674048D01*
X53347742Y-191673380D01*
X53348999Y-191674175D01*
G37*
G36*
X265280249Y-191674175D02*
G01*
X265320568Y-191729947D01*
X265385046Y-191755228D01*
X265453154Y-191741595D01*
X265455114Y-191740310D01*
X265457110Y-191740197D01*
X265458207Y-191741870D01*
X265457696Y-191743321D01*
X265345828Y-191867562D01*
X265343926Y-191868180D01*
X265342440Y-191866842D01*
X265342384Y-191866630D01*
X265339766Y-191853985D01*
X265276743Y-191676015D01*
X265277107Y-191674048D01*
X265278992Y-191673380D01*
X265280249Y-191674175D01*
G37*
G36*
X289092749Y-191674175D02*
G01*
X289133068Y-191729947D01*
X289197546Y-191755228D01*
X289265654Y-191741595D01*
X289267614Y-191740310D01*
X289269610Y-191740197D01*
X289270707Y-191741870D01*
X289270196Y-191743321D01*
X289158328Y-191867562D01*
X289156426Y-191868180D01*
X289154940Y-191866842D01*
X289154884Y-191866630D01*
X289152266Y-191853985D01*
X289089243Y-191676015D01*
X289089607Y-191674048D01*
X289091492Y-191673380D01*
X289092749Y-191674175D01*
G37*
G36*
X283218780Y-191004162D02*
G01*
X283301004Y-191007393D01*
X283302695Y-191008460D01*
X283302616Y-191010458D01*
X283302376Y-191010768D01*
X283218719Y-191098924D01*
X283166133Y-191172106D01*
X283164310Y-191172929D01*
X283162686Y-191171762D01*
X283162622Y-191170277D01*
X283185407Y-191105344D01*
X283169367Y-191037967D01*
X283119313Y-190989830D01*
X283094388Y-190980132D01*
X283093993Y-190980026D01*
X283092578Y-190978613D01*
X283093095Y-190976680D01*
X283094951Y-190976143D01*
X283218780Y-191004162D01*
G37*
G36*
X71287530Y-191004162D02*
G01*
X71369754Y-191007393D01*
X71371445Y-191008460D01*
X71371366Y-191010458D01*
X71371126Y-191010768D01*
X71287469Y-191098924D01*
X71234883Y-191172106D01*
X71233060Y-191172929D01*
X71231436Y-191171762D01*
X71231372Y-191170277D01*
X71254157Y-191105344D01*
X71238117Y-191037967D01*
X71188063Y-190989830D01*
X71163138Y-190980132D01*
X71162743Y-190980026D01*
X71161328Y-190978613D01*
X71161845Y-190976680D01*
X71163701Y-190976143D01*
X71287530Y-191004162D01*
G37*
G36*
X259406280Y-191004162D02*
G01*
X259488504Y-191007393D01*
X259490195Y-191008460D01*
X259490116Y-191010458D01*
X259489876Y-191010768D01*
X259406219Y-191098924D01*
X259353633Y-191172106D01*
X259351810Y-191172929D01*
X259350186Y-191171762D01*
X259350122Y-191170277D01*
X259372907Y-191105344D01*
X259356867Y-191037967D01*
X259306813Y-190989830D01*
X259281888Y-190980132D01*
X259281493Y-190980026D01*
X259280078Y-190978613D01*
X259280595Y-190976680D01*
X259282451Y-190976143D01*
X259406280Y-191004162D01*
G37*
G36*
X307031280Y-191004162D02*
G01*
X307113504Y-191007393D01*
X307115195Y-191008460D01*
X307115116Y-191010458D01*
X307114876Y-191010768D01*
X307031219Y-191098924D01*
X306978633Y-191172106D01*
X306976810Y-191172929D01*
X306975186Y-191171762D01*
X306975122Y-191170277D01*
X306997907Y-191105344D01*
X306981867Y-191037967D01*
X306931813Y-190989830D01*
X306906888Y-190980132D01*
X306906493Y-190980026D01*
X306905078Y-190978613D01*
X306905595Y-190976680D01*
X306907451Y-190976143D01*
X307031280Y-191004162D01*
G37*
G36*
X95100030Y-191004162D02*
G01*
X95182254Y-191007393D01*
X95183945Y-191008460D01*
X95183866Y-191010458D01*
X95183626Y-191010768D01*
X95099969Y-191098924D01*
X95047383Y-191172106D01*
X95045560Y-191172929D01*
X95043936Y-191171762D01*
X95043872Y-191170277D01*
X95066657Y-191105344D01*
X95050617Y-191037967D01*
X95000563Y-190989830D01*
X94975638Y-190980132D01*
X94975243Y-190980026D01*
X94973828Y-190978613D01*
X94974345Y-190976680D01*
X94976201Y-190976143D01*
X95100030Y-191004162D01*
G37*
G36*
X47475030Y-191004162D02*
G01*
X47557254Y-191007393D01*
X47558945Y-191008460D01*
X47558866Y-191010458D01*
X47558626Y-191010768D01*
X47474969Y-191098924D01*
X47422383Y-191172106D01*
X47420560Y-191172929D01*
X47418936Y-191171762D01*
X47418872Y-191170277D01*
X47441657Y-191105344D01*
X47425617Y-191037967D01*
X47375563Y-190989830D01*
X47350638Y-190980132D01*
X47350243Y-190980026D01*
X47348828Y-190978613D01*
X47349345Y-190976680D01*
X47351201Y-190976143D01*
X47475030Y-191004162D01*
G37*
G36*
X308280027Y-190196967D02*
G01*
X308280455Y-190198804D01*
X308277081Y-190211395D01*
X308278736Y-190280931D01*
X308317556Y-190338286D01*
X308381380Y-190365618D01*
X308409792Y-190365449D01*
X308411530Y-190366439D01*
X308411542Y-190368439D01*
X308410065Y-190369432D01*
X308205000Y-190396429D01*
X308197812Y-190398396D01*
X308195877Y-190397889D01*
X308195349Y-190395960D01*
X308195539Y-190395490D01*
X308230906Y-190332338D01*
X308276629Y-190197643D01*
X308278133Y-190196324D01*
X308280027Y-190196967D01*
G37*
G36*
X260655027Y-190196967D02*
G01*
X260655455Y-190198804D01*
X260652081Y-190211395D01*
X260653736Y-190280931D01*
X260692556Y-190338286D01*
X260756380Y-190365618D01*
X260784792Y-190365449D01*
X260786530Y-190366439D01*
X260786542Y-190368439D01*
X260785065Y-190369432D01*
X260580000Y-190396429D01*
X260572812Y-190398396D01*
X260570877Y-190397889D01*
X260570349Y-190395960D01*
X260570539Y-190395490D01*
X260605906Y-190332338D01*
X260651629Y-190197643D01*
X260653133Y-190196324D01*
X260655027Y-190196967D01*
G37*
G36*
X48723777Y-190196967D02*
G01*
X48724205Y-190198804D01*
X48720831Y-190211395D01*
X48722486Y-190280931D01*
X48761306Y-190338286D01*
X48825130Y-190365618D01*
X48853542Y-190365449D01*
X48855280Y-190366439D01*
X48855292Y-190368439D01*
X48853815Y-190369432D01*
X48648750Y-190396429D01*
X48641562Y-190398396D01*
X48639627Y-190397889D01*
X48639099Y-190395960D01*
X48639289Y-190395490D01*
X48674656Y-190332338D01*
X48720379Y-190197643D01*
X48721883Y-190196324D01*
X48723777Y-190196967D01*
G37*
G36*
X96348777Y-190196967D02*
G01*
X96349205Y-190198804D01*
X96345831Y-190211395D01*
X96347486Y-190280931D01*
X96386306Y-190338286D01*
X96450130Y-190365618D01*
X96478542Y-190365449D01*
X96480280Y-190366439D01*
X96480292Y-190368439D01*
X96478815Y-190369432D01*
X96273750Y-190396429D01*
X96266562Y-190398396D01*
X96264627Y-190397889D01*
X96264099Y-190395960D01*
X96264289Y-190395490D01*
X96299656Y-190332338D01*
X96345379Y-190197643D01*
X96346883Y-190196324D01*
X96348777Y-190196967D01*
G37*
G36*
X72536277Y-190196967D02*
G01*
X72536705Y-190198804D01*
X72533331Y-190211395D01*
X72534986Y-190280931D01*
X72573806Y-190338286D01*
X72637630Y-190365618D01*
X72666042Y-190365449D01*
X72667780Y-190366439D01*
X72667792Y-190368439D01*
X72666315Y-190369432D01*
X72461250Y-190396429D01*
X72454062Y-190398396D01*
X72452127Y-190397889D01*
X72451599Y-190395960D01*
X72451789Y-190395490D01*
X72487156Y-190332338D01*
X72532879Y-190197643D01*
X72534383Y-190196324D01*
X72536277Y-190196967D01*
G37*
G36*
X284467527Y-190196967D02*
G01*
X284467955Y-190198804D01*
X284464581Y-190211395D01*
X284466236Y-190280931D01*
X284505056Y-190338286D01*
X284568880Y-190365618D01*
X284597292Y-190365449D01*
X284599030Y-190366439D01*
X284599042Y-190368439D01*
X284597565Y-190369432D01*
X284392500Y-190396429D01*
X284385312Y-190398396D01*
X284383377Y-190397889D01*
X284382849Y-190395960D01*
X284383039Y-190395490D01*
X284418406Y-190332338D01*
X284464129Y-190197643D01*
X284465633Y-190196324D01*
X284467527Y-190196967D01*
G37*
G36*
X46554984Y-189450015D02*
G01*
X46555256Y-189451755D01*
X46501116Y-189626112D01*
X46476402Y-189834920D01*
X46490155Y-190044746D01*
X46541913Y-190248541D01*
X46584361Y-190340618D01*
X46584178Y-190342609D01*
X46582362Y-190343447D01*
X46580732Y-190342300D01*
X46545972Y-190267757D01*
X46500004Y-190215551D01*
X46433400Y-190196567D01*
X46367096Y-190216609D01*
X46322782Y-190267748D01*
X46310875Y-190293284D01*
X46309236Y-190294431D01*
X46307424Y-190293586D01*
X46307168Y-190291796D01*
X46360996Y-190133225D01*
X46391177Y-189925069D01*
X46392748Y-189865072D01*
X46373501Y-189655612D01*
X46319557Y-189464341D01*
X46320049Y-189462402D01*
X46321974Y-189461860D01*
X46322983Y-189462476D01*
X46368746Y-189514449D01*
X46435350Y-189533433D01*
X46501654Y-189513391D01*
X46545968Y-189462252D01*
X46551533Y-189450317D01*
X46553172Y-189449170D01*
X46554984Y-189450015D01*
G37*
G36*
X94179984Y-189450015D02*
G01*
X94180256Y-189451755D01*
X94126116Y-189626112D01*
X94101402Y-189834920D01*
X94115155Y-190044746D01*
X94166913Y-190248541D01*
X94209361Y-190340618D01*
X94209178Y-190342609D01*
X94207362Y-190343447D01*
X94205732Y-190342300D01*
X94170972Y-190267757D01*
X94125004Y-190215551D01*
X94058400Y-190196567D01*
X93992096Y-190216609D01*
X93947782Y-190267748D01*
X93935875Y-190293284D01*
X93934236Y-190294431D01*
X93932424Y-190293586D01*
X93932168Y-190291796D01*
X93985996Y-190133225D01*
X94016177Y-189925069D01*
X94017748Y-189865072D01*
X93998501Y-189655612D01*
X93944557Y-189464341D01*
X93945049Y-189462402D01*
X93946974Y-189461860D01*
X93947983Y-189462476D01*
X93993746Y-189514449D01*
X94060350Y-189533433D01*
X94126654Y-189513391D01*
X94170968Y-189462252D01*
X94176533Y-189450317D01*
X94178172Y-189449170D01*
X94179984Y-189450015D01*
G37*
G36*
X70367484Y-189450015D02*
G01*
X70367756Y-189451755D01*
X70313616Y-189626112D01*
X70288902Y-189834920D01*
X70302655Y-190044746D01*
X70354413Y-190248541D01*
X70396861Y-190340618D01*
X70396678Y-190342609D01*
X70394862Y-190343447D01*
X70393232Y-190342300D01*
X70358472Y-190267757D01*
X70312504Y-190215551D01*
X70245900Y-190196567D01*
X70179596Y-190216609D01*
X70135282Y-190267748D01*
X70123375Y-190293284D01*
X70121736Y-190294431D01*
X70119924Y-190293586D01*
X70119668Y-190291796D01*
X70173496Y-190133225D01*
X70203677Y-189925069D01*
X70205248Y-189865072D01*
X70186001Y-189655612D01*
X70132057Y-189464341D01*
X70132549Y-189462402D01*
X70134474Y-189461860D01*
X70135483Y-189462476D01*
X70181246Y-189514449D01*
X70247850Y-189533433D01*
X70314154Y-189513391D01*
X70358468Y-189462252D01*
X70364033Y-189450317D01*
X70365672Y-189449170D01*
X70367484Y-189450015D01*
G37*
G36*
X282298734Y-189450015D02*
G01*
X282299006Y-189451755D01*
X282244866Y-189626112D01*
X282220152Y-189834920D01*
X282233905Y-190044746D01*
X282285663Y-190248541D01*
X282328111Y-190340618D01*
X282327928Y-190342609D01*
X282326112Y-190343447D01*
X282324482Y-190342300D01*
X282289722Y-190267757D01*
X282243754Y-190215551D01*
X282177150Y-190196567D01*
X282110846Y-190216609D01*
X282066532Y-190267748D01*
X282054625Y-190293284D01*
X282052986Y-190294431D01*
X282051174Y-190293586D01*
X282050918Y-190291796D01*
X282104746Y-190133225D01*
X282134927Y-189925069D01*
X282136498Y-189865072D01*
X282117251Y-189655612D01*
X282063307Y-189464341D01*
X282063799Y-189462402D01*
X282065724Y-189461860D01*
X282066733Y-189462476D01*
X282112496Y-189514449D01*
X282179100Y-189533433D01*
X282245404Y-189513391D01*
X282289718Y-189462252D01*
X282295283Y-189450317D01*
X282296922Y-189449170D01*
X282298734Y-189450015D01*
G37*
G36*
X258486234Y-189450015D02*
G01*
X258486506Y-189451755D01*
X258432366Y-189626112D01*
X258407652Y-189834920D01*
X258421405Y-190044746D01*
X258473163Y-190248541D01*
X258515611Y-190340618D01*
X258515428Y-190342609D01*
X258513612Y-190343447D01*
X258511982Y-190342300D01*
X258477222Y-190267757D01*
X258431254Y-190215551D01*
X258364650Y-190196567D01*
X258298346Y-190216609D01*
X258254032Y-190267748D01*
X258242125Y-190293284D01*
X258240486Y-190294431D01*
X258238674Y-190293586D01*
X258238418Y-190291796D01*
X258292246Y-190133225D01*
X258322427Y-189925069D01*
X258323998Y-189865072D01*
X258304751Y-189655612D01*
X258250807Y-189464341D01*
X258251299Y-189462402D01*
X258253224Y-189461860D01*
X258254233Y-189462476D01*
X258299996Y-189514449D01*
X258366600Y-189533433D01*
X258432904Y-189513391D01*
X258477218Y-189462252D01*
X258482783Y-189450317D01*
X258484422Y-189449170D01*
X258486234Y-189450015D01*
G37*
G36*
X306111234Y-189450015D02*
G01*
X306111506Y-189451755D01*
X306057366Y-189626112D01*
X306032652Y-189834920D01*
X306046405Y-190044746D01*
X306098163Y-190248541D01*
X306140611Y-190340618D01*
X306140428Y-190342609D01*
X306138612Y-190343447D01*
X306136982Y-190342300D01*
X306102222Y-190267757D01*
X306056254Y-190215551D01*
X305989650Y-190196567D01*
X305923346Y-190216609D01*
X305879032Y-190267748D01*
X305867125Y-190293284D01*
X305865486Y-190294431D01*
X305863674Y-190293586D01*
X305863418Y-190291796D01*
X305917246Y-190133225D01*
X305947427Y-189925069D01*
X305948998Y-189865072D01*
X305929751Y-189655612D01*
X305875807Y-189464341D01*
X305876299Y-189462402D01*
X305878224Y-189461860D01*
X305879233Y-189462476D01*
X305924996Y-189514449D01*
X305991600Y-189533433D01*
X306057904Y-189513391D01*
X306102218Y-189462252D01*
X306107783Y-189450317D01*
X306109422Y-189449170D01*
X306111234Y-189450015D01*
G37*
G36*
X264836234Y-186910015D02*
G01*
X264836506Y-186911755D01*
X264782366Y-187086112D01*
X264757652Y-187294920D01*
X264771405Y-187504746D01*
X264823163Y-187708541D01*
X264865611Y-187800618D01*
X264865428Y-187802609D01*
X264863612Y-187803447D01*
X264861982Y-187802300D01*
X264827222Y-187727757D01*
X264781254Y-187675551D01*
X264714650Y-187656567D01*
X264648346Y-187676609D01*
X264604032Y-187727748D01*
X264592125Y-187753284D01*
X264590486Y-187754431D01*
X264588674Y-187753586D01*
X264588418Y-187751796D01*
X264642246Y-187593225D01*
X264672427Y-187385069D01*
X264673998Y-187325072D01*
X264654751Y-187115612D01*
X264600807Y-186924341D01*
X264601299Y-186922402D01*
X264603224Y-186921860D01*
X264604233Y-186922476D01*
X264649996Y-186974449D01*
X264716600Y-186993433D01*
X264782904Y-186973391D01*
X264827218Y-186922252D01*
X264832783Y-186910317D01*
X264834422Y-186909170D01*
X264836234Y-186910015D01*
G37*
G36*
X52904984Y-186910015D02*
G01*
X52905256Y-186911755D01*
X52851116Y-187086112D01*
X52826402Y-187294920D01*
X52840155Y-187504746D01*
X52891913Y-187708541D01*
X52934361Y-187800618D01*
X52934178Y-187802609D01*
X52932362Y-187803447D01*
X52930732Y-187802300D01*
X52895972Y-187727757D01*
X52850004Y-187675551D01*
X52783400Y-187656567D01*
X52717096Y-187676609D01*
X52672782Y-187727748D01*
X52660875Y-187753284D01*
X52659236Y-187754431D01*
X52657424Y-187753586D01*
X52657168Y-187751796D01*
X52710996Y-187593225D01*
X52741177Y-187385069D01*
X52742748Y-187325072D01*
X52723501Y-187115612D01*
X52669557Y-186924341D01*
X52670049Y-186922402D01*
X52671974Y-186921860D01*
X52672983Y-186922476D01*
X52718746Y-186974449D01*
X52785350Y-186993433D01*
X52851654Y-186973391D01*
X52895968Y-186922252D01*
X52901533Y-186910317D01*
X52903172Y-186909170D01*
X52904984Y-186910015D01*
G37*
G36*
X76717484Y-186910015D02*
G01*
X76717756Y-186911755D01*
X76663616Y-187086112D01*
X76638902Y-187294920D01*
X76652655Y-187504746D01*
X76704413Y-187708541D01*
X76746861Y-187800618D01*
X76746678Y-187802609D01*
X76744862Y-187803447D01*
X76743232Y-187802300D01*
X76708472Y-187727757D01*
X76662504Y-187675551D01*
X76595900Y-187656567D01*
X76529596Y-187676609D01*
X76485282Y-187727748D01*
X76473375Y-187753284D01*
X76471736Y-187754431D01*
X76469924Y-187753586D01*
X76469668Y-187751796D01*
X76523496Y-187593225D01*
X76553677Y-187385069D01*
X76555248Y-187325072D01*
X76536001Y-187115612D01*
X76482057Y-186924341D01*
X76482549Y-186922402D01*
X76484474Y-186921860D01*
X76485483Y-186922476D01*
X76531246Y-186974449D01*
X76597850Y-186993433D01*
X76664154Y-186973391D01*
X76708468Y-186922252D01*
X76714033Y-186910317D01*
X76715672Y-186909170D01*
X76717484Y-186910015D01*
G37*
G36*
X100529984Y-186910015D02*
G01*
X100530256Y-186911755D01*
X100476116Y-187086112D01*
X100451402Y-187294920D01*
X100465155Y-187504746D01*
X100516913Y-187708541D01*
X100559361Y-187800618D01*
X100559178Y-187802609D01*
X100557362Y-187803447D01*
X100555732Y-187802300D01*
X100520972Y-187727757D01*
X100475004Y-187675551D01*
X100408400Y-187656567D01*
X100342096Y-187676609D01*
X100297782Y-187727748D01*
X100285875Y-187753284D01*
X100284236Y-187754431D01*
X100282424Y-187753586D01*
X100282168Y-187751796D01*
X100335996Y-187593225D01*
X100366177Y-187385069D01*
X100367748Y-187325072D01*
X100348501Y-187115612D01*
X100294557Y-186924341D01*
X100295049Y-186922402D01*
X100296974Y-186921860D01*
X100297983Y-186922476D01*
X100343746Y-186974449D01*
X100410350Y-186993433D01*
X100476654Y-186973391D01*
X100520968Y-186922252D01*
X100526533Y-186910317D01*
X100528172Y-186909170D01*
X100529984Y-186910015D01*
G37*
G36*
X288648734Y-186910015D02*
G01*
X288649006Y-186911755D01*
X288594866Y-187086112D01*
X288570152Y-187294920D01*
X288583905Y-187504746D01*
X288635663Y-187708541D01*
X288678111Y-187800618D01*
X288677928Y-187802609D01*
X288676112Y-187803447D01*
X288674482Y-187802300D01*
X288639722Y-187727757D01*
X288593754Y-187675551D01*
X288527150Y-187656567D01*
X288460846Y-187676609D01*
X288416532Y-187727748D01*
X288404625Y-187753284D01*
X288402986Y-187754431D01*
X288401174Y-187753586D01*
X288400918Y-187751796D01*
X288454746Y-187593225D01*
X288484927Y-187385069D01*
X288486498Y-187325072D01*
X288467251Y-187115612D01*
X288413307Y-186924341D01*
X288413799Y-186922402D01*
X288415724Y-186921860D01*
X288416733Y-186922476D01*
X288462496Y-186974449D01*
X288529100Y-186993433D01*
X288595404Y-186973391D01*
X288639718Y-186922252D01*
X288645283Y-186910317D01*
X288646922Y-186909170D01*
X288648734Y-186910015D01*
G37*
G36*
X312461234Y-186910015D02*
G01*
X312461506Y-186911755D01*
X312407366Y-187086112D01*
X312382652Y-187294920D01*
X312396405Y-187504746D01*
X312448163Y-187708541D01*
X312490611Y-187800618D01*
X312490428Y-187802609D01*
X312488612Y-187803447D01*
X312486982Y-187802300D01*
X312452222Y-187727757D01*
X312406254Y-187675551D01*
X312339650Y-187656567D01*
X312273346Y-187676609D01*
X312229032Y-187727748D01*
X312217125Y-187753284D01*
X312215486Y-187754431D01*
X312213674Y-187753586D01*
X312213418Y-187751796D01*
X312267246Y-187593225D01*
X312297427Y-187385069D01*
X312298998Y-187325072D01*
X312279751Y-187115612D01*
X312225807Y-186924341D01*
X312226299Y-186922402D01*
X312228224Y-186921860D01*
X312229233Y-186922476D01*
X312274996Y-186974449D01*
X312341600Y-186993433D01*
X312407904Y-186973391D01*
X312452218Y-186922252D01*
X312457783Y-186910317D01*
X312459422Y-186909170D01*
X312461234Y-186910015D01*
G37*
G36*
X64533361Y-173566184D02*
G01*
X64533777Y-173566904D01*
X64583733Y-173720652D01*
X64663751Y-173859248D01*
X64663751Y-173861248D01*
X64662019Y-173862248D01*
X64660452Y-173861490D01*
X64646586Y-173843995D01*
X64646374Y-173843667D01*
X64640138Y-173831533D01*
X64592203Y-173781132D01*
X64524918Y-173764718D01*
X64459371Y-173787311D01*
X64423555Y-173826938D01*
X64396248Y-173875006D01*
X64396023Y-173875325D01*
X64393823Y-173877873D01*
X64391934Y-173878531D01*
X64390420Y-173877223D01*
X64390577Y-173875566D01*
X64480017Y-173720652D01*
X64529973Y-173566904D01*
X64531459Y-173565566D01*
X64533361Y-173566184D01*
G37*
G36*
X64670175Y-172838196D02*
G01*
X64670028Y-172839880D01*
X64583733Y-172989348D01*
X64533777Y-173143096D01*
X64532291Y-173144434D01*
X64530389Y-173143816D01*
X64529973Y-173143096D01*
X64480017Y-172989348D01*
X64396862Y-172845319D01*
X64396862Y-172843319D01*
X64398594Y-172842319D01*
X64400144Y-172843055D01*
X64410263Y-172855462D01*
X64410479Y-172855787D01*
X64423558Y-172880386D01*
X64472193Y-172930113D01*
X64539700Y-172945585D01*
X64604927Y-172922078D01*
X64640184Y-172881957D01*
X64660313Y-172845342D01*
X64660534Y-172845019D01*
X64666764Y-172837594D01*
X64668643Y-172836910D01*
X64670175Y-172838196D01*
G37*
G36*
X295514611Y-154516184D02*
G01*
X295515027Y-154516904D01*
X295564983Y-154670652D01*
X295645001Y-154809248D01*
X295645001Y-154811248D01*
X295643269Y-154812248D01*
X295641702Y-154811490D01*
X295627836Y-154793995D01*
X295627624Y-154793667D01*
X295621388Y-154781533D01*
X295573453Y-154731132D01*
X295506168Y-154714718D01*
X295440621Y-154737311D01*
X295404805Y-154776938D01*
X295377498Y-154825006D01*
X295377273Y-154825325D01*
X295375073Y-154827873D01*
X295373184Y-154828531D01*
X295371670Y-154827223D01*
X295371827Y-154825566D01*
X295461267Y-154670652D01*
X295511223Y-154516904D01*
X295512709Y-154515566D01*
X295514611Y-154516184D01*
G37*
G36*
X295651425Y-153788196D02*
G01*
X295651278Y-153789880D01*
X295564983Y-153939348D01*
X295515027Y-154093096D01*
X295513541Y-154094434D01*
X295511639Y-154093816D01*
X295511223Y-154093096D01*
X295461267Y-153939348D01*
X295378112Y-153795319D01*
X295378112Y-153793319D01*
X295379844Y-153792319D01*
X295381394Y-153793055D01*
X295391513Y-153805462D01*
X295391729Y-153805787D01*
X295404808Y-153830386D01*
X295453443Y-153880113D01*
X295520950Y-153895585D01*
X295586177Y-153872078D01*
X295621434Y-153831957D01*
X295641563Y-153795342D01*
X295641784Y-153795019D01*
X295648014Y-153787594D01*
X295649893Y-153786910D01*
X295651425Y-153788196D01*
G37*
G36*
X311970219Y-146579391D02*
G01*
X311969924Y-146580446D01*
X311963812Y-146590420D01*
X311869294Y-146818608D01*
X311862173Y-146848267D01*
X311860796Y-146849718D01*
X311858851Y-146849251D01*
X311858229Y-146847874D01*
X311855771Y-146781273D01*
X311816205Y-146724431D01*
X311752149Y-146697988D01*
X311692806Y-146706556D01*
X311690949Y-146705814D01*
X311690663Y-146703835D01*
X311691755Y-146702729D01*
X311902805Y-146615310D01*
X311967210Y-146577674D01*
X311969210Y-146577664D01*
X311970219Y-146579391D01*
G37*
G36*
X312868508Y-145605089D02*
G01*
X312868954Y-145606507D01*
X312863751Y-145675128D01*
X312896683Y-145736055D01*
X312957359Y-145769525D01*
X313018629Y-145767529D01*
X313038091Y-145761856D01*
X313038381Y-145761794D01*
X313077686Y-145756445D01*
X313079537Y-145757203D01*
X313079807Y-145759184D01*
X313078423Y-145760372D01*
X312879858Y-145808044D01*
X312730062Y-145870091D01*
X312728079Y-145869830D01*
X312727314Y-145867982D01*
X312727539Y-145867289D01*
X312854770Y-145632957D01*
X312865089Y-145605649D01*
X312866637Y-145604382D01*
X312868508Y-145605089D01*
G37*
G36*
X378095374Y-85942500D02*
G01*
X378095374Y-85944500D01*
X378094205Y-85945419D01*
X378027193Y-85965095D01*
X377981838Y-86017438D01*
X377971981Y-86085991D01*
X378000747Y-86148979D01*
X378062097Y-86187383D01*
X378085515Y-86193658D01*
X378086929Y-86195072D01*
X378086411Y-86197004D01*
X378084607Y-86197552D01*
X377945101Y-86169803D01*
X377734850Y-86167050D01*
X377579743Y-86193702D01*
X377577866Y-86193010D01*
X377577528Y-86191039D01*
X377578886Y-86189799D01*
X377587911Y-86187381D01*
X377647305Y-86151179D01*
X377677566Y-86088882D01*
X377669345Y-86020113D01*
X377625257Y-85966717D01*
X377555768Y-85945412D01*
X377554405Y-85943948D01*
X377554991Y-85942036D01*
X377556354Y-85941500D01*
X378093642Y-85941500D01*
X378095374Y-85942500D01*
G37*
G36*
X217857383Y-67054525D02*
G01*
X218013295Y-67056974D01*
X218161519Y-67023026D01*
X218163431Y-67023615D01*
X218163878Y-67025564D01*
X218163095Y-67026627D01*
X218117595Y-67057738D01*
X218090635Y-67121532D01*
X218102444Y-67189778D01*
X218149284Y-67240813D01*
X218213284Y-67258617D01*
X218214685Y-67260045D01*
X218214149Y-67261972D01*
X218212748Y-67262544D01*
X217679894Y-67262544D01*
X217678162Y-67261544D01*
X217678162Y-67259544D01*
X217679331Y-67258625D01*
X217746343Y-67238949D01*
X217791698Y-67186606D01*
X217801555Y-67118053D01*
X217772768Y-67055019D01*
X217729446Y-67024971D01*
X217728593Y-67023163D01*
X217729733Y-67021519D01*
X217731094Y-67021393D01*
X217857383Y-67054525D01*
G37*
G36*
X210308759Y-63483712D02*
G01*
X210308434Y-63485586D01*
X210263537Y-63542538D01*
X210222821Y-63658478D01*
X210217251Y-63722792D01*
X210217251Y-64072534D01*
X210237441Y-64193836D01*
X210285825Y-64283507D01*
X210285768Y-64285506D01*
X210284007Y-64286456D01*
X210282550Y-64285763D01*
X210263668Y-64263849D01*
X210263067Y-64264367D01*
X210261102Y-64264740D01*
X210260248Y-64264159D01*
X210232476Y-64231998D01*
X210166057Y-64212371D01*
X210099566Y-64231772D01*
X210068615Y-64267051D01*
X210066721Y-64267693D01*
X210066638Y-64267652D01*
X210027138Y-64312376D01*
X210025242Y-64313012D01*
X210023743Y-64311688D01*
X210024068Y-64309814D01*
X210068965Y-64252862D01*
X210109681Y-64136922D01*
X210115251Y-64072608D01*
X210115251Y-63722866D01*
X210095061Y-63601564D01*
X210046677Y-63511893D01*
X210046734Y-63509894D01*
X210048495Y-63508944D01*
X210049952Y-63509637D01*
X210068834Y-63531551D01*
X210069435Y-63531033D01*
X210071400Y-63530660D01*
X210072254Y-63531241D01*
X210100026Y-63563402D01*
X210166445Y-63583029D01*
X210232936Y-63563628D01*
X210263887Y-63528349D01*
X210265781Y-63527707D01*
X210265864Y-63527748D01*
X210305364Y-63483024D01*
X210307260Y-63482388D01*
X210308759Y-63483712D01*
G37*
G36*
X212008759Y-63483712D02*
G01*
X212008434Y-63485586D01*
X211963537Y-63542538D01*
X211922821Y-63658478D01*
X211917251Y-63722792D01*
X211917251Y-64072534D01*
X211937441Y-64193836D01*
X211985825Y-64283507D01*
X211985768Y-64285506D01*
X211984007Y-64286456D01*
X211982550Y-64285763D01*
X211963668Y-64263849D01*
X211963067Y-64264367D01*
X211961102Y-64264740D01*
X211960248Y-64264159D01*
X211932476Y-64231998D01*
X211866057Y-64212371D01*
X211799566Y-64231772D01*
X211768615Y-64267051D01*
X211766721Y-64267693D01*
X211766638Y-64267652D01*
X211727138Y-64312376D01*
X211725242Y-64313012D01*
X211723743Y-64311688D01*
X211724068Y-64309814D01*
X211768965Y-64252862D01*
X211809681Y-64136922D01*
X211815251Y-64072608D01*
X211815251Y-63722866D01*
X211795061Y-63601564D01*
X211746677Y-63511893D01*
X211746734Y-63509894D01*
X211748495Y-63508944D01*
X211749952Y-63509637D01*
X211768834Y-63531551D01*
X211769435Y-63531033D01*
X211771400Y-63530660D01*
X211772254Y-63531241D01*
X211800026Y-63563402D01*
X211866445Y-63583029D01*
X211932936Y-63563628D01*
X211963887Y-63528349D01*
X211965781Y-63527707D01*
X211965864Y-63527748D01*
X212005364Y-63483024D01*
X212007260Y-63482388D01*
X212008759Y-63483712D01*
G37*
G36*
X213708759Y-63483712D02*
G01*
X213708434Y-63485586D01*
X213663537Y-63542538D01*
X213622821Y-63658478D01*
X213617251Y-63722792D01*
X213617251Y-64072534D01*
X213637441Y-64193836D01*
X213685825Y-64283507D01*
X213685768Y-64285506D01*
X213684007Y-64286456D01*
X213682550Y-64285763D01*
X213663668Y-64263849D01*
X213663067Y-64264367D01*
X213661102Y-64264740D01*
X213660248Y-64264159D01*
X213632476Y-64231998D01*
X213566057Y-64212371D01*
X213499566Y-64231772D01*
X213468615Y-64267051D01*
X213466721Y-64267693D01*
X213466638Y-64267652D01*
X213427138Y-64312376D01*
X213425242Y-64313012D01*
X213423743Y-64311688D01*
X213424068Y-64309814D01*
X213468965Y-64252862D01*
X213509681Y-64136922D01*
X213515251Y-64072608D01*
X213515251Y-63722866D01*
X213495061Y-63601564D01*
X213446677Y-63511893D01*
X213446734Y-63509894D01*
X213448495Y-63508944D01*
X213449952Y-63509637D01*
X213468834Y-63531551D01*
X213469435Y-63531033D01*
X213471400Y-63530660D01*
X213472254Y-63531241D01*
X213500026Y-63563402D01*
X213566445Y-63583029D01*
X213632936Y-63563628D01*
X213663887Y-63528349D01*
X213665781Y-63527707D01*
X213665864Y-63527748D01*
X213705364Y-63483024D01*
X213707260Y-63482388D01*
X213708759Y-63483712D01*
G37*
G36*
X211158759Y-63483712D02*
G01*
X211158434Y-63485586D01*
X211113537Y-63542538D01*
X211072821Y-63658478D01*
X211067251Y-63722792D01*
X211067251Y-64072534D01*
X211087441Y-64193836D01*
X211135825Y-64283507D01*
X211135768Y-64285506D01*
X211134007Y-64286456D01*
X211132550Y-64285763D01*
X211113668Y-64263849D01*
X211113067Y-64264367D01*
X211111102Y-64264740D01*
X211110248Y-64264159D01*
X211082476Y-64231998D01*
X211016057Y-64212371D01*
X210949566Y-64231772D01*
X210918615Y-64267051D01*
X210916721Y-64267693D01*
X210916638Y-64267652D01*
X210877138Y-64312376D01*
X210875242Y-64313012D01*
X210873743Y-64311688D01*
X210874068Y-64309814D01*
X210918965Y-64252862D01*
X210959681Y-64136922D01*
X210965251Y-64072608D01*
X210965251Y-63722866D01*
X210945061Y-63601564D01*
X210896677Y-63511893D01*
X210896734Y-63509894D01*
X210898495Y-63508944D01*
X210899952Y-63509637D01*
X210918834Y-63531551D01*
X210919435Y-63531033D01*
X210921400Y-63530660D01*
X210922254Y-63531241D01*
X210950026Y-63563402D01*
X211016445Y-63583029D01*
X211082936Y-63563628D01*
X211113887Y-63528349D01*
X211115781Y-63527707D01*
X211115864Y-63527748D01*
X211155364Y-63483024D01*
X211157260Y-63482388D01*
X211158759Y-63483712D01*
G37*
G36*
X212858759Y-63483712D02*
G01*
X212858434Y-63485586D01*
X212813537Y-63542538D01*
X212772821Y-63658478D01*
X212767251Y-63722792D01*
X212767251Y-64072534D01*
X212787441Y-64193836D01*
X212835825Y-64283507D01*
X212835768Y-64285506D01*
X212834007Y-64286456D01*
X212832550Y-64285763D01*
X212813668Y-64263849D01*
X212813067Y-64264367D01*
X212811102Y-64264740D01*
X212810248Y-64264159D01*
X212782476Y-64231998D01*
X212716057Y-64212371D01*
X212649566Y-64231772D01*
X212618615Y-64267051D01*
X212616721Y-64267693D01*
X212616638Y-64267652D01*
X212577138Y-64312376D01*
X212575242Y-64313012D01*
X212573743Y-64311688D01*
X212574068Y-64309814D01*
X212618965Y-64252862D01*
X212659681Y-64136922D01*
X212665251Y-64072608D01*
X212665251Y-63722866D01*
X212645061Y-63601564D01*
X212596677Y-63511893D01*
X212596734Y-63509894D01*
X212598495Y-63508944D01*
X212599952Y-63509637D01*
X212618834Y-63531551D01*
X212619435Y-63531033D01*
X212621400Y-63530660D01*
X212622254Y-63531241D01*
X212650026Y-63563402D01*
X212716445Y-63583029D01*
X212782936Y-63563628D01*
X212813887Y-63528349D01*
X212815781Y-63527707D01*
X212815864Y-63527748D01*
X212855364Y-63483024D01*
X212857260Y-63482388D01*
X212858759Y-63483712D01*
G37*
G36*
X208608759Y-63483712D02*
G01*
X208608434Y-63485586D01*
X208563537Y-63542538D01*
X208522821Y-63658478D01*
X208517251Y-63722792D01*
X208517251Y-64072534D01*
X208537441Y-64193836D01*
X208585825Y-64283507D01*
X208585768Y-64285506D01*
X208584007Y-64286456D01*
X208582550Y-64285763D01*
X208563668Y-64263849D01*
X208563067Y-64264367D01*
X208561102Y-64264740D01*
X208560248Y-64264159D01*
X208532476Y-64231998D01*
X208466057Y-64212371D01*
X208399566Y-64231772D01*
X208368615Y-64267051D01*
X208366721Y-64267693D01*
X208366638Y-64267652D01*
X208327138Y-64312376D01*
X208325242Y-64313012D01*
X208323743Y-64311688D01*
X208324068Y-64309814D01*
X208368965Y-64252862D01*
X208409681Y-64136922D01*
X208415251Y-64072608D01*
X208415251Y-63722866D01*
X208395061Y-63601564D01*
X208346677Y-63511893D01*
X208346734Y-63509894D01*
X208348495Y-63508944D01*
X208349952Y-63509637D01*
X208368834Y-63531551D01*
X208369435Y-63531033D01*
X208371400Y-63530660D01*
X208372254Y-63531241D01*
X208400026Y-63563402D01*
X208466445Y-63583029D01*
X208532936Y-63563628D01*
X208563887Y-63528349D01*
X208565781Y-63527707D01*
X208565864Y-63527748D01*
X208605364Y-63483024D01*
X208607260Y-63482388D01*
X208608759Y-63483712D01*
G37*
G36*
X209458759Y-63483712D02*
G01*
X209458434Y-63485586D01*
X209413537Y-63542538D01*
X209372821Y-63658478D01*
X209367251Y-63722792D01*
X209367251Y-64072534D01*
X209387441Y-64193836D01*
X209435825Y-64283507D01*
X209435768Y-64285506D01*
X209434007Y-64286456D01*
X209432550Y-64285763D01*
X209413668Y-64263849D01*
X209413067Y-64264367D01*
X209411102Y-64264740D01*
X209410248Y-64264159D01*
X209382476Y-64231998D01*
X209316057Y-64212371D01*
X209249566Y-64231772D01*
X209218615Y-64267051D01*
X209216721Y-64267693D01*
X209216638Y-64267652D01*
X209177138Y-64312376D01*
X209175242Y-64313012D01*
X209173743Y-64311688D01*
X209174068Y-64309814D01*
X209218965Y-64252862D01*
X209259681Y-64136922D01*
X209265251Y-64072608D01*
X209265251Y-63722866D01*
X209245061Y-63601564D01*
X209196677Y-63511893D01*
X209196734Y-63509894D01*
X209198495Y-63508944D01*
X209199952Y-63509637D01*
X209218834Y-63531551D01*
X209219435Y-63531033D01*
X209221400Y-63530660D01*
X209222254Y-63531241D01*
X209250026Y-63563402D01*
X209316445Y-63583029D01*
X209382936Y-63563628D01*
X209413887Y-63528349D01*
X209415781Y-63527707D01*
X209415864Y-63527748D01*
X209455364Y-63483024D01*
X209457260Y-63482388D01*
X209458759Y-63483712D01*
G37*
G36*
X212853759Y-62158712D02*
G01*
X212853434Y-62160586D01*
X212808537Y-62217538D01*
X212767821Y-62333478D01*
X212762251Y-62397792D01*
X212762251Y-62747534D01*
X212782441Y-62868836D01*
X212830825Y-62958507D01*
X212830768Y-62960506D01*
X212829007Y-62961456D01*
X212827550Y-62960763D01*
X212808668Y-62938849D01*
X212808067Y-62939367D01*
X212806102Y-62939740D01*
X212805248Y-62939159D01*
X212777476Y-62906998D01*
X212711057Y-62887371D01*
X212644566Y-62906772D01*
X212613615Y-62942051D01*
X212611721Y-62942693D01*
X212611638Y-62942652D01*
X212572138Y-62987376D01*
X212570242Y-62988012D01*
X212568743Y-62986688D01*
X212569068Y-62984814D01*
X212613965Y-62927862D01*
X212654681Y-62811922D01*
X212660251Y-62747608D01*
X212660251Y-62397866D01*
X212640061Y-62276564D01*
X212591677Y-62186893D01*
X212591734Y-62184894D01*
X212593495Y-62183944D01*
X212594952Y-62184637D01*
X212613834Y-62206551D01*
X212614435Y-62206033D01*
X212616400Y-62205660D01*
X212617254Y-62206241D01*
X212645026Y-62238402D01*
X212711445Y-62258029D01*
X212777936Y-62238628D01*
X212808887Y-62203349D01*
X212810781Y-62202707D01*
X212810864Y-62202748D01*
X212850364Y-62158024D01*
X212852260Y-62157388D01*
X212853759Y-62158712D01*
G37*
G36*
X209453759Y-62158712D02*
G01*
X209453434Y-62160586D01*
X209408537Y-62217538D01*
X209367821Y-62333478D01*
X209362251Y-62397792D01*
X209362251Y-62747534D01*
X209382441Y-62868836D01*
X209430825Y-62958507D01*
X209430768Y-62960506D01*
X209429007Y-62961456D01*
X209427550Y-62960763D01*
X209408668Y-62938849D01*
X209408067Y-62939367D01*
X209406102Y-62939740D01*
X209405248Y-62939159D01*
X209377476Y-62906998D01*
X209311057Y-62887371D01*
X209244566Y-62906772D01*
X209213615Y-62942051D01*
X209211721Y-62942693D01*
X209211638Y-62942652D01*
X209172138Y-62987376D01*
X209170242Y-62988012D01*
X209168743Y-62986688D01*
X209169068Y-62984814D01*
X209213965Y-62927862D01*
X209254681Y-62811922D01*
X209260251Y-62747608D01*
X209260251Y-62397866D01*
X209240061Y-62276564D01*
X209191677Y-62186893D01*
X209191734Y-62184894D01*
X209193495Y-62183944D01*
X209194952Y-62184637D01*
X209213834Y-62206551D01*
X209214435Y-62206033D01*
X209216400Y-62205660D01*
X209217254Y-62206241D01*
X209245026Y-62238402D01*
X209311445Y-62258029D01*
X209377936Y-62238628D01*
X209408887Y-62203349D01*
X209410781Y-62202707D01*
X209410864Y-62202748D01*
X209450364Y-62158024D01*
X209452260Y-62157388D01*
X209453759Y-62158712D01*
G37*
G36*
X210303759Y-62158712D02*
G01*
X210303434Y-62160586D01*
X210258537Y-62217538D01*
X210217821Y-62333478D01*
X210212251Y-62397792D01*
X210212251Y-62747534D01*
X210232441Y-62868836D01*
X210280825Y-62958507D01*
X210280768Y-62960506D01*
X210279007Y-62961456D01*
X210277550Y-62960763D01*
X210258668Y-62938849D01*
X210258067Y-62939367D01*
X210256102Y-62939740D01*
X210255248Y-62939159D01*
X210227476Y-62906998D01*
X210161057Y-62887371D01*
X210094566Y-62906772D01*
X210063615Y-62942051D01*
X210061721Y-62942693D01*
X210061638Y-62942652D01*
X210022138Y-62987376D01*
X210020242Y-62988012D01*
X210018743Y-62986688D01*
X210019068Y-62984814D01*
X210063965Y-62927862D01*
X210104681Y-62811922D01*
X210110251Y-62747608D01*
X210110251Y-62397866D01*
X210090061Y-62276564D01*
X210041677Y-62186893D01*
X210041734Y-62184894D01*
X210043495Y-62183944D01*
X210044952Y-62184637D01*
X210063834Y-62206551D01*
X210064435Y-62206033D01*
X210066400Y-62205660D01*
X210067254Y-62206241D01*
X210095026Y-62238402D01*
X210161445Y-62258029D01*
X210227936Y-62238628D01*
X210258887Y-62203349D01*
X210260781Y-62202707D01*
X210260864Y-62202748D01*
X210300364Y-62158024D01*
X210302260Y-62157388D01*
X210303759Y-62158712D01*
G37*
G36*
X212003759Y-62158712D02*
G01*
X212003434Y-62160586D01*
X211958537Y-62217538D01*
X211917821Y-62333478D01*
X211912251Y-62397792D01*
X211912251Y-62747534D01*
X211932441Y-62868836D01*
X211980825Y-62958507D01*
X211980768Y-62960506D01*
X211979007Y-62961456D01*
X211977550Y-62960763D01*
X211958668Y-62938849D01*
X211958067Y-62939367D01*
X211956102Y-62939740D01*
X211955248Y-62939159D01*
X211927476Y-62906998D01*
X211861057Y-62887371D01*
X211794566Y-62906772D01*
X211763615Y-62942051D01*
X211761721Y-62942693D01*
X211761638Y-62942652D01*
X211722138Y-62987376D01*
X211720242Y-62988012D01*
X211718743Y-62986688D01*
X211719068Y-62984814D01*
X211763965Y-62927862D01*
X211804681Y-62811922D01*
X211810251Y-62747608D01*
X211810251Y-62397866D01*
X211790061Y-62276564D01*
X211741677Y-62186893D01*
X211741734Y-62184894D01*
X211743495Y-62183944D01*
X211744952Y-62184637D01*
X211763834Y-62206551D01*
X211764435Y-62206033D01*
X211766400Y-62205660D01*
X211767254Y-62206241D01*
X211795026Y-62238402D01*
X211861445Y-62258029D01*
X211927936Y-62238628D01*
X211958887Y-62203349D01*
X211960781Y-62202707D01*
X211960864Y-62202748D01*
X212000364Y-62158024D01*
X212002260Y-62157388D01*
X212003759Y-62158712D01*
G37*
G36*
X208603759Y-62158712D02*
G01*
X208603434Y-62160586D01*
X208558537Y-62217538D01*
X208517821Y-62333478D01*
X208512251Y-62397792D01*
X208512251Y-62747534D01*
X208532441Y-62868836D01*
X208580825Y-62958507D01*
X208580768Y-62960506D01*
X208579007Y-62961456D01*
X208577550Y-62960763D01*
X208558668Y-62938849D01*
X208558067Y-62939367D01*
X208556102Y-62939740D01*
X208555248Y-62939159D01*
X208527476Y-62906998D01*
X208461057Y-62887371D01*
X208394566Y-62906772D01*
X208363615Y-62942051D01*
X208361721Y-62942693D01*
X208361638Y-62942652D01*
X208322138Y-62987376D01*
X208320242Y-62988012D01*
X208318743Y-62986688D01*
X208319068Y-62984814D01*
X208363965Y-62927862D01*
X208404681Y-62811922D01*
X208410251Y-62747608D01*
X208410251Y-62397866D01*
X208390061Y-62276564D01*
X208341677Y-62186893D01*
X208341734Y-62184894D01*
X208343495Y-62183944D01*
X208344952Y-62184637D01*
X208363834Y-62206551D01*
X208364435Y-62206033D01*
X208366400Y-62205660D01*
X208367254Y-62206241D01*
X208395026Y-62238402D01*
X208461445Y-62258029D01*
X208527936Y-62238628D01*
X208558887Y-62203349D01*
X208560781Y-62202707D01*
X208560864Y-62202748D01*
X208600364Y-62158024D01*
X208602260Y-62157388D01*
X208603759Y-62158712D01*
G37*
G36*
X211153759Y-62158712D02*
G01*
X211153434Y-62160586D01*
X211108537Y-62217538D01*
X211067821Y-62333478D01*
X211062251Y-62397792D01*
X211062251Y-62747534D01*
X211082441Y-62868836D01*
X211130825Y-62958507D01*
X211130768Y-62960506D01*
X211129007Y-62961456D01*
X211127550Y-62960763D01*
X211108668Y-62938849D01*
X211108067Y-62939367D01*
X211106102Y-62939740D01*
X211105248Y-62939159D01*
X211077476Y-62906998D01*
X211011057Y-62887371D01*
X210944566Y-62906772D01*
X210913615Y-62942051D01*
X210911721Y-62942693D01*
X210911638Y-62942652D01*
X210872138Y-62987376D01*
X210870242Y-62988012D01*
X210868743Y-62986688D01*
X210869068Y-62984814D01*
X210913965Y-62927862D01*
X210954681Y-62811922D01*
X210960251Y-62747608D01*
X210960251Y-62397866D01*
X210940061Y-62276564D01*
X210891677Y-62186893D01*
X210891734Y-62184894D01*
X210893495Y-62183944D01*
X210894952Y-62184637D01*
X210913834Y-62206551D01*
X210914435Y-62206033D01*
X210916400Y-62205660D01*
X210917254Y-62206241D01*
X210945026Y-62238402D01*
X211011445Y-62258029D01*
X211077936Y-62238628D01*
X211108887Y-62203349D01*
X211110781Y-62202707D01*
X211110864Y-62202748D01*
X211150364Y-62158024D01*
X211152260Y-62157388D01*
X211153759Y-62158712D01*
G37*
G36*
X213708757Y-62158714D02*
G01*
X213708432Y-62160588D01*
X213663537Y-62217538D01*
X213622821Y-62333478D01*
X213617251Y-62397792D01*
X213617251Y-62747534D01*
X213637441Y-62868836D01*
X213685825Y-62958507D01*
X213685768Y-62960506D01*
X213684007Y-62961456D01*
X213682550Y-62960763D01*
X213663336Y-62938464D01*
X213662372Y-62938647D01*
X213661517Y-62938066D01*
X213630013Y-62901586D01*
X213563593Y-62881961D01*
X213497103Y-62901364D01*
X213451929Y-62952856D01*
X213451260Y-62954280D01*
X213450949Y-62954754D01*
X213422140Y-62987374D01*
X213420244Y-62988010D01*
X213418745Y-62986686D01*
X213419070Y-62984812D01*
X213463965Y-62927862D01*
X213504681Y-62811922D01*
X213510251Y-62747608D01*
X213510251Y-62397866D01*
X213490061Y-62276564D01*
X213441677Y-62186893D01*
X213441734Y-62184894D01*
X213443495Y-62183944D01*
X213444952Y-62184637D01*
X213464166Y-62206936D01*
X213465130Y-62206753D01*
X213465985Y-62207334D01*
X213497489Y-62243814D01*
X213563909Y-62263439D01*
X213630399Y-62244036D01*
X213675573Y-62192544D01*
X213676242Y-62191120D01*
X213676553Y-62190646D01*
X213705362Y-62158026D01*
X213707258Y-62157390D01*
X213708757Y-62158714D01*
G37*
M02*
