M48
; DRILL file {KiCad 5.99.0+really5.1.10+dfsg1-1} date Fri Nov 12 03:00:29 2021
; FORMAT={-:-/ absolute / metric / decimal}
; #@! TF.CreationDate,2021-11-12T03:00:29+01:00
; #@! TF.GenerationSoftware,Kicad,Pcbnew,5.99.0+really5.1.10+dfsg1-1
FMAT,2
METRIC
T1C0.400
T2C0.600
T3C0.700
T4C0.800
T5C0.900
T6C1.000
T7C1.016
T8C1.100
T9C1.500
T10C2.200
T11C1.700
T12C3.048
T13C3.050
T14C3.988
T15C4.000
%
G90
G05
T1
X62.89Y-66.878
X72.136Y-96.012
X73.215Y-66.688
X74.549Y-72.39
X79.375Y-70.485
X82.283Y-66.434
X89.408Y-141.732
X92.202Y-104.14
X92.265Y-65.164
X100.076Y-178.816
X106.489Y-72.174
X106.68Y-142.24
X111.976Y-67.221
X113.652Y-73.165
X118.11Y-173.99
X118.237Y-65.71
X120.929Y-67.869
X122.796Y-67.958
X126.543Y-71.095
X138.316Y-64.935
X139.382Y-66.967
X150.863Y-65.113
X153.835Y-74.054
X158.814Y-72.682
X159.017Y-65.316
X165.036Y-66.688
X166.611Y-70.091
X168.923Y-66.586
X171.158Y-66.586
X175.349Y-65.977
X179.235Y-66.484
X181.826Y-72.479
X184.036Y-86.677
X185.102Y-75.73
X186.728Y-65.164
X193.891Y-72.301
X198.26Y-59.55
X198.488Y-68.288
X198.92Y-65.468
X203.67Y-73.724
X208.036Y-62.573
X208.041Y-63.898
X208.886Y-62.573
X208.891Y-63.898
X209.736Y-62.573
X209.741Y-63.898
X210.299Y-71.641
X210.586Y-62.573
X210.591Y-63.898
X210.655Y-65.138
X211.061Y-70.802
X211.436Y-62.573
X211.441Y-63.898
X211.507Y-65.713
X211.786Y-72.127
X211.786Y-73.127
X212.286Y-62.573
X212.291Y-63.898
X212.407Y-66.307
X213.136Y-62.573
X213.141Y-63.898
X213.991Y-62.573
X213.991Y-63.898
X214.808Y-66.777
X225.12Y-67.564
X230.289Y-78.372
X235.282Y-68.429
X236.136Y-67.867
X237.118Y-67.417
X238.118Y-66.967
X239.117Y-66.517
X240.078Y-66.067
X244.005Y-145.682
X247.078Y-124.32
X248.877Y-79.977
X249.536Y-78.562
X252.541Y-72.065
X252.919Y-60.413
X254.102Y-62.916
X254.102Y-70.409
X256.413Y-56.832
X259.004Y-69.698
X282.13Y-69.342
X286.741Y-69.823
X287.649Y-69.373
X294.665Y-63.83
X295.656Y-158.496
X298.971Y-62.243
X309.118Y-67.386
X312.941Y-68.288
X313.068Y-63.538
X313.144Y-60.922
X314.642Y-63.132
X317.157Y-61.455
X318.529Y-66.713
X320.04Y-63.246
X323.837Y-67.805
X339.217Y-80.645
X341.122Y-61.392
X341.376Y-71.272
X344.678Y-73.533
X351.968Y-62.281
T2
X217.945Y-66.412
X217.945Y-67.912
T3
X203.515Y-57.178
X203.515Y-62.278
X222.364Y-60.82
X222.364Y-63.331
X222.364Y-65.842
X222.364Y-68.353
X222.364Y-70.864
X222.364Y-73.375
X222.364Y-75.886
X229.984Y-60.82
X229.984Y-63.331
X229.984Y-65.842
X229.984Y-68.353
X229.984Y-70.864
X229.984Y-73.375
X229.984Y-75.886
X375.245Y-64.868
X375.245Y-72.488
X377.745Y-64.868
X377.745Y-72.488
T4
X46.981Y-65.094
X46.981Y-70.174
X50.221Y-67.575
X50.221Y-72.655
X53.46Y-70.055
X53.46Y-75.135
X56.7Y-65.094
X56.7Y-70.174
X59.939Y-67.575
X59.939Y-72.655
X63.179Y-70.055
X63.179Y-75.135
X66.418Y-65.094
X66.418Y-70.174
X69.657Y-67.575
X69.657Y-72.655
X72.897Y-70.055
X72.897Y-75.135
X76.136Y-65.094
X76.136Y-70.174
X79.376Y-67.575
X79.376Y-72.655
X80.01Y-170.942
X80.01Y-176.022
X82.615Y-70.055
X82.615Y-75.135
X85.855Y-65.094
X85.855Y-70.174
X89.094Y-67.575
X89.094Y-72.655
X92.333Y-70.055
X92.333Y-75.135
X95.573Y-65.094
X95.573Y-70.174
X98.812Y-67.575
X98.812Y-72.655
X102.052Y-70.055
X102.052Y-75.135
X105.291Y-65.094
X105.291Y-70.174
X108.531Y-67.575
X108.531Y-72.655
X111.77Y-70.055
X111.77Y-75.135
X115.009Y-65.094
X115.009Y-70.174
X118.249Y-67.575
X118.249Y-72.655
X121.488Y-70.055
X121.488Y-75.135
X124.728Y-65.094
X124.728Y-70.174
X127.967Y-67.575
X127.967Y-72.655
X131.207Y-70.055
X131.207Y-75.135
X134.446Y-65.094
X134.446Y-70.174
X137.686Y-67.575
X137.686Y-72.655
X140.925Y-70.055
X140.925Y-75.135
X144.164Y-65.094
X144.164Y-70.174
X147.404Y-67.575
X147.404Y-72.655
X150.643Y-70.055
X150.643Y-75.135
X153.883Y-65.094
X153.883Y-70.174
X157.122Y-67.575
X157.122Y-72.655
X160.362Y-70.055
X160.362Y-75.135
X163.601Y-65.094
X163.601Y-70.174
X166.84Y-67.575
X166.84Y-72.655
X170.08Y-70.055
X170.08Y-75.135
X173.319Y-65.094
X173.319Y-70.174
X176.559Y-67.575
X176.559Y-72.655
X179.798Y-70.055
X179.798Y-75.135
X183.038Y-65.094
X183.038Y-70.174
X186.277Y-67.373
X186.277Y-72.453
X189.516Y-70.055
X189.516Y-75.135
X192.756Y-65.094
X192.756Y-70.174
X195.995Y-67.373
X195.995Y-72.453
X199.235Y-70.055
X199.235Y-75.135
X202.474Y-65.094
X202.474Y-70.174
X205.714Y-67.373
X205.714Y-72.453
X208.953Y-70.055
X208.953Y-75.135
X216.421Y-70.802
X216.421Y-75.882
X219.367Y-70.802
X219.367Y-75.882
X233.617Y-59.245
X233.617Y-74.486
X236.156Y-59.245
X236.156Y-74.486
X238.696Y-59.245
X238.696Y-74.486
X241.236Y-59.245
X241.236Y-74.486
X243.776Y-59.245
X243.776Y-74.486
X246.316Y-59.245
X246.316Y-74.486
X248.856Y-59.245
X248.856Y-74.486
X251.396Y-59.245
X251.396Y-74.486
X252.082Y-76.924
X253.936Y-59.245
X253.936Y-74.486
X253.94Y-56.756
X256.476Y-59.245
X256.476Y-74.486
X257.082Y-76.924
X258.94Y-56.756
X259.017Y-59.245
X259.017Y-74.486
X259.626Y-77.7
X259.626Y-80.2
X261.556Y-59.245
X261.556Y-74.486
X264.096Y-59.245
X264.096Y-74.486
X264.347Y-78.448
X266.637Y-59.245
X266.637Y-74.486
X269.176Y-59.245
X269.176Y-74.486
X269.227Y-78.448
X271.716Y-59.245
X271.716Y-74.486
X273.952Y-77.7
X273.952Y-80.2
X274.256Y-59.245
X274.256Y-74.486
X276.796Y-59.245
X276.796Y-74.486
X279.337Y-59.245
X279.337Y-74.486
X281.876Y-59.245
X281.876Y-74.486
X297.23Y-59.68
X297.23Y-64.76
X297.23Y-70.055
X297.23Y-75.135
X300.764Y-59.68
X300.764Y-64.76
X300.764Y-70.055
X300.764Y-75.135
X304.298Y-59.68
X304.298Y-64.76
X304.298Y-70.055
X304.298Y-75.135
X307.831Y-59.68
X307.831Y-64.76
X307.831Y-70.055
X307.831Y-75.135
X311.365Y-59.68
X311.365Y-64.76
X311.365Y-70.055
X311.365Y-75.135
X314.899Y-59.68
X314.899Y-64.76
X314.899Y-70.055
X314.899Y-75.135
X318.433Y-59.68
X318.433Y-64.76
X318.433Y-70.055
X318.433Y-75.135
X321.967Y-59.68
X321.967Y-64.76
X321.967Y-70.055
X321.967Y-75.135
X325.501Y-59.68
X325.501Y-64.76
X325.501Y-70.055
X325.501Y-75.135
X329.035Y-59.68
X329.035Y-64.76
X329.035Y-70.055
X329.035Y-75.135
X332.569Y-59.68
X332.569Y-64.76
X332.569Y-70.055
X332.569Y-75.135
X336.103Y-59.68
X336.103Y-64.76
X336.103Y-70.055
X336.103Y-75.135
X339.637Y-59.68
X339.637Y-64.76
X339.637Y-70.055
X339.637Y-75.135
X343.167Y-59.68
X343.167Y-64.76
X343.171Y-70.055
X343.171Y-75.135
X346.697Y-59.68
X346.697Y-64.76
X346.705Y-70.055
X346.705Y-75.135
X350.227Y-59.68
X350.227Y-64.76
X350.239Y-70.055
X350.239Y-75.135
X353.757Y-59.68
X353.757Y-64.76
X353.773Y-70.055
X353.773Y-75.135
X357.306Y-70.055
X357.306Y-75.135
X360.84Y-70.055
X360.84Y-75.135
X364.374Y-70.055
X364.374Y-75.135
X367.908Y-70.055
X367.908Y-75.135
T5
X217.595Y-59.525
X220.135Y-59.525
T6
X371.918Y-64.88
X371.918Y-67.42
X371.918Y-69.96
X371.918Y-72.5
X372.825Y-84.899
X372.825Y-99.399
X375.325Y-84.899
X377.825Y-84.899
X377.825Y-99.399
T7
X183.608Y-57.696
X183.608Y-60.236
X186.148Y-57.696
X186.148Y-60.236
X188.688Y-57.696
X188.688Y-60.236
T8
X158.285Y-57.29
X158.285Y-61.79
X164.785Y-57.29
X164.785Y-61.79
X171.023Y-57.315
X171.023Y-61.815
X177.523Y-57.315
X177.523Y-61.815
T9
X42.862Y-89.852
X42.862Y-113.665
X45.244Y-151.765
X45.244Y-170.815
X45.244Y-189.865
X47.625Y-132.715
X47.625Y-189.865
X49.212Y-87.312
X49.212Y-111.125
X50.006Y-151.765
X51.594Y-149.225
X51.594Y-168.275
X51.594Y-187.325
X53.975Y-130.175
X53.975Y-187.325
X54.769Y-170.815
X56.356Y-149.225
X61.119Y-168.275
X61.912Y-113.665
X66.675Y-170.815
X68.263Y-111.125
X69.056Y-189.865
X71.438Y-132.715
X71.438Y-189.865
X73.025Y-168.275
X75.406Y-187.325
X76.2Y-151.765
X77.787Y-130.175
X77.787Y-187.325
X80.962Y-89.852
X80.962Y-113.665
X82.55Y-149.225
X85.725Y-170.815
X87.312Y-87.312
X87.312Y-111.125
X90.487Y-132.715
X92.075Y-168.275
X92.869Y-189.865
X95.25Y-151.765
X95.25Y-189.865
X96.837Y-130.175
X99.219Y-187.325
X100.012Y-89.852
X100.012Y-113.665
X101.6Y-149.225
X101.6Y-187.325
X104.775Y-170.815
X106.362Y-87.312
X106.362Y-111.125
X109.537Y-132.715
X111.125Y-168.275
X114.3Y-151.765
X115.887Y-130.175
X119.062Y-89.852
X119.062Y-113.665
X120.65Y-149.225
X123.825Y-170.815
X125.412Y-87.312
X125.412Y-111.125
X128.588Y-132.715
X130.175Y-168.275
X133.35Y-151.765
X134.938Y-130.175
X138.112Y-89.852
X138.112Y-113.665
X139.7Y-149.225
X142.875Y-170.815
X144.463Y-87.312
X144.463Y-111.125
X147.637Y-132.715
X149.225Y-168.275
X152.4Y-151.765
X153.987Y-130.175
X157.162Y-113.665
X158.75Y-149.225
X161.925Y-170.815
X163.512Y-111.125
X164.306Y-189.865
X166.688Y-89.852
X166.688Y-132.715
X168.275Y-168.275
X170.656Y-187.325
X171.45Y-151.765
X173.037Y-87.312
X173.037Y-130.175
X176.213Y-113.665
X176.213Y-189.865
X177.8Y-149.225
X180.975Y-170.815
X182.562Y-111.125
X182.562Y-187.325
X185.737Y-89.852
X185.737Y-132.715
X187.325Y-168.275
X190.5Y-151.765
X192.087Y-87.312
X192.087Y-130.175
X195.262Y-113.665
X196.85Y-149.225
X200.025Y-170.815
X201.612Y-111.125
X204.787Y-89.852
X204.787Y-132.715
X206.375Y-168.275
X209.55Y-151.765
X211.137Y-87.312
X211.137Y-130.175
X214.312Y-113.665
X215.9Y-149.225
X219.075Y-170.815
X220.662Y-111.125
X223.837Y-89.852
X223.837Y-132.715
X225.425Y-168.275
X228.6Y-151.765
X230.188Y-87.312
X230.188Y-130.175
X233.362Y-113.665
X234.95Y-149.225
X235.744Y-189.865
X238.125Y-170.815
X239.712Y-111.125
X242.094Y-187.325
X242.887Y-132.715
X244.475Y-168.275
X247.65Y-151.765
X249.237Y-130.175
X252.412Y-89.852
X252.412Y-113.665
X254.0Y-149.225
X257.175Y-170.815
X257.175Y-189.865
X258.762Y-87.312
X258.762Y-111.125
X259.556Y-189.865
X261.938Y-132.715
X263.525Y-168.275
X263.525Y-187.325
X265.906Y-187.325
X266.7Y-151.765
X268.287Y-130.175
X271.462Y-89.852
X271.462Y-113.665
X273.05Y-149.225
X277.812Y-87.312
X277.812Y-111.125
X280.988Y-132.715
X280.988Y-189.865
X283.369Y-170.815
X283.369Y-189.865
X285.75Y-151.765
X287.337Y-130.175
X287.337Y-187.325
X289.719Y-168.275
X289.719Y-187.325
X290.512Y-89.852
X290.512Y-113.665
X292.1Y-149.225
X292.894Y-170.821
X296.863Y-87.312
X296.863Y-111.125
X297.656Y-151.765
X299.244Y-168.281
X300.037Y-113.665
X304.006Y-149.225
X304.8Y-132.715
X304.8Y-189.865
X306.387Y-111.125
X307.181Y-189.865
X307.182Y-142.24
X309.562Y-89.852
X309.562Y-113.665
X309.562Y-170.815
X311.15Y-130.175
X311.15Y-187.325
X313.531Y-187.325
X313.532Y-139.7
X315.912Y-87.312
X315.912Y-111.125
X315.912Y-168.275
X333.375Y-89.852
X333.375Y-113.665
X333.375Y-132.715
X333.375Y-189.865
X339.725Y-87.312
X339.725Y-111.125
X339.725Y-130.175
X339.725Y-187.325
X352.425Y-89.852
X352.425Y-113.665
X352.425Y-132.715
X352.425Y-170.815
X352.425Y-189.865
X358.775Y-87.312
X358.775Y-111.125
X358.775Y-130.175
X358.775Y-168.275
X358.775Y-187.325
X371.475Y-89.852
X371.475Y-113.665
X371.475Y-132.715
X371.475Y-189.865
X377.825Y-87.312
X377.825Y-111.125
X377.825Y-130.175
X377.825Y-187.325
T10
X41.148Y-59.313
X41.148Y-78.063
X79.999Y-182.037
X86.36Y-104.153
X134.734Y-59.313
X134.734Y-78.063
X211.016Y-104.153
X211.016Y-192.164
X287.223Y-59.313
X287.223Y-78.063
X335.597Y-104.153
X365.758Y-182.016
X380.81Y-59.313
X380.81Y-78.063
T11
X41.593Y-92.392
X41.593Y-116.205
X43.974Y-154.305
X43.974Y-173.355
X43.974Y-192.405
X46.355Y-135.255
X46.355Y-192.405
X48.736Y-154.305
X51.752Y-92.392
X51.752Y-116.205
X53.499Y-173.355
X54.134Y-154.305
X54.134Y-173.355
X54.134Y-192.405
X56.515Y-135.255
X56.515Y-192.405
X58.896Y-154.305
X60.642Y-116.205
X63.659Y-173.355
X65.405Y-173.355
X67.786Y-192.405
X70.167Y-135.255
X70.167Y-192.405
X70.802Y-116.205
X74.93Y-154.305
X75.565Y-173.355
X77.946Y-192.405
X79.692Y-92.392
X79.692Y-116.205
X80.328Y-135.255
X80.328Y-192.405
X84.455Y-173.355
X85.09Y-154.305
X89.218Y-135.255
X89.852Y-92.392
X89.852Y-116.205
X91.599Y-192.405
X93.98Y-154.305
X93.98Y-192.405
X94.615Y-173.355
X98.742Y-92.392
X98.742Y-116.205
X99.377Y-135.255
X101.759Y-192.405
X103.505Y-173.355
X104.14Y-154.305
X104.14Y-192.405
X108.267Y-135.255
X108.902Y-92.392
X108.902Y-116.205
X113.03Y-154.305
X113.665Y-173.355
X117.792Y-92.392
X117.792Y-116.205
X118.427Y-135.255
X122.555Y-173.355
X123.19Y-154.305
X127.317Y-135.255
X127.953Y-92.392
X127.953Y-116.205
X132.08Y-154.305
X132.715Y-173.355
X136.843Y-92.392
X136.843Y-116.205
X137.477Y-135.255
X141.605Y-173.355
X142.24Y-154.305
X146.368Y-135.255
X147.002Y-92.392
X147.002Y-116.205
X151.13Y-154.305
X151.765Y-173.355
X155.892Y-116.205
X156.528Y-135.255
X160.655Y-173.355
X161.29Y-154.305
X163.036Y-192.405
X165.417Y-92.392
X165.417Y-135.255
X166.052Y-116.205
X170.18Y-154.305
X170.815Y-173.355
X173.196Y-192.405
X174.942Y-116.205
X174.942Y-192.405
X175.577Y-92.392
X175.577Y-135.255
X179.705Y-173.355
X180.34Y-154.305
X184.468Y-92.392
X184.468Y-135.255
X185.102Y-116.205
X185.102Y-192.405
X189.23Y-154.305
X189.865Y-173.355
X193.992Y-116.205
X194.627Y-92.392
X194.627Y-135.255
X198.755Y-173.355
X199.39Y-154.305
X203.517Y-92.392
X203.517Y-135.255
X204.153Y-116.205
X208.28Y-154.305
X208.915Y-173.355
X213.042Y-116.205
X213.677Y-92.392
X213.677Y-135.255
X217.805Y-173.355
X218.44Y-154.305
X222.567Y-92.392
X222.567Y-135.255
X223.202Y-116.205
X227.33Y-154.305
X227.965Y-173.355
X232.093Y-116.205
X232.727Y-92.392
X232.727Y-135.255
X234.474Y-192.405
X236.855Y-173.355
X237.49Y-154.305
X241.617Y-135.255
X242.252Y-116.205
X244.634Y-192.405
X246.38Y-154.305
X247.015Y-173.355
X251.142Y-92.392
X251.142Y-116.205
X251.777Y-135.255
X255.905Y-173.355
X255.905Y-192.405
X256.54Y-154.305
X258.286Y-192.405
X260.667Y-135.255
X261.303Y-92.392
X261.303Y-116.205
X265.43Y-154.305
X266.065Y-173.355
X266.065Y-192.405
X268.446Y-192.405
X270.192Y-92.392
X270.192Y-116.205
X270.827Y-135.255
X275.59Y-154.305
X279.717Y-135.255
X279.717Y-192.405
X280.352Y-92.392
X280.352Y-116.205
X282.099Y-173.355
X282.099Y-192.405
X284.48Y-154.305
X289.243Y-92.392
X289.243Y-116.205
X289.877Y-135.255
X289.877Y-192.405
X291.624Y-173.361
X292.259Y-173.355
X292.259Y-192.405
X294.64Y-154.305
X296.386Y-154.305
X298.767Y-116.205
X299.402Y-92.392
X299.402Y-116.205
X301.784Y-173.361
X303.53Y-135.255
X303.53Y-192.405
X305.911Y-192.405
X305.912Y-144.78
X306.546Y-154.305
X308.292Y-92.392
X308.292Y-116.205
X308.292Y-173.355
X308.928Y-116.205
X313.69Y-135.255
X313.69Y-192.405
X316.071Y-192.405
X316.072Y-144.78
X318.452Y-92.392
X318.452Y-116.205
X318.452Y-173.355
X332.105Y-92.392
X332.105Y-116.205
X332.105Y-135.255
X332.105Y-192.405
X342.265Y-92.392
X342.265Y-116.205
X342.265Y-135.255
X342.265Y-192.405
X351.155Y-92.392
X351.155Y-116.205
X351.155Y-135.255
X351.155Y-173.355
X351.155Y-192.405
X361.315Y-92.392
X361.315Y-116.205
X361.315Y-135.255
X361.315Y-173.355
X361.315Y-192.405
X370.205Y-92.392
X370.205Y-116.205
X370.205Y-135.255
X370.205Y-192.405
X380.365Y-92.392
X380.365Y-116.205
X380.365Y-135.255
X380.365Y-192.405
T12
X118.11Y-199.403
X122.872Y-199.39
X218.11Y-199.403
X237.172Y-199.39
T13
X46.679Y-166.355
X70.479Y-166.355
X284.804Y-166.361
X289.566Y-147.305
X291.947Y-109.205
X308.604Y-166.361
X313.366Y-147.305
X315.748Y-109.205
X317.992Y-132.88
X317.992Y-156.68
T14
X118.11Y-184.163
X122.872Y-184.15
X218.11Y-184.163
X237.172Y-184.15
T15
X46.672Y-92.392
X46.672Y-116.205
X46.679Y-181.595
X49.054Y-154.305
X49.054Y-173.355
X49.054Y-192.405
X51.435Y-135.255
X51.435Y-192.405
X53.816Y-154.305
X58.579Y-173.355
X65.722Y-116.205
X70.479Y-181.595
X70.485Y-173.355
X72.866Y-192.405
X75.248Y-135.255
X75.248Y-192.405
X80.01Y-154.305
X84.772Y-92.392
X84.772Y-116.205
X89.535Y-173.355
X94.297Y-135.255
X96.679Y-192.405
X99.06Y-154.305
X99.06Y-192.405
X103.822Y-92.392
X103.822Y-116.205
X108.585Y-173.355
X113.347Y-135.255
X118.11Y-154.305
X122.872Y-92.392
X122.872Y-116.205
X127.635Y-173.355
X132.398Y-135.255
X137.16Y-154.305
X141.922Y-92.392
X141.922Y-116.205
X146.685Y-173.355
X151.447Y-135.255
X156.21Y-154.305
X160.972Y-116.205
X165.735Y-173.355
X168.116Y-192.405
X170.498Y-92.392
X170.498Y-135.255
X175.26Y-154.305
X180.022Y-116.205
X180.022Y-192.405
X184.785Y-173.355
X189.547Y-92.392
X189.547Y-135.255
X194.31Y-154.305
X199.072Y-116.205
X203.835Y-173.355
X208.597Y-92.392
X208.597Y-135.255
X213.36Y-154.305
X218.123Y-116.205
X222.885Y-173.355
X227.647Y-92.392
X227.647Y-135.255
X232.41Y-154.305
X237.172Y-116.205
X239.554Y-192.405
X241.935Y-173.355
X246.697Y-135.255
X251.46Y-154.305
X256.222Y-92.392
X256.222Y-116.205
X260.985Y-173.355
X260.985Y-192.405
X263.366Y-192.405
X265.748Y-135.255
X270.51Y-154.305
X275.272Y-92.392
X275.272Y-116.205
X284.798Y-135.255
X284.798Y-192.405
X284.804Y-181.601
X287.179Y-173.355
X287.179Y-192.405
X289.56Y-154.305
X289.566Y-162.545
X291.947Y-124.445
X294.322Y-92.392
X294.322Y-116.205
X296.704Y-173.361
X301.466Y-154.305
X302.752Y-132.88
X302.752Y-156.68
X303.847Y-116.205
X308.604Y-181.601
X308.61Y-135.255
X308.61Y-192.405
X310.991Y-192.405
X310.992Y-144.78
X313.366Y-162.545
X313.373Y-92.392
X313.373Y-116.205
X313.373Y-173.355
X315.748Y-124.445
X337.185Y-92.392
X337.185Y-116.205
X337.185Y-135.255
X337.185Y-192.405
X356.235Y-92.392
X356.235Y-116.205
X356.235Y-135.255
X356.235Y-173.355
X356.235Y-192.405
X375.285Y-92.392
X375.285Y-116.205
X375.285Y-135.255
X375.285Y-192.405
T2
X206.691Y-59.938G85X206.691Y-59.138
G05
X206.691Y-63.668G85X206.691Y-62.168
G05
X215.341Y-59.938G85X215.341Y-59.138
G05
X215.341Y-63.668G85X215.341Y-62.168
G05
T9
X369.725Y-91.749G85X369.725Y-93.049
G05
X380.925Y-91.749G85X380.925Y-93.049
G05
T0
M30
