M48
; DRILL file {KiCad (5.1.4)-1} date 11/4/2019 11:04:35 AM
; FORMAT={-:-/ absolute / inch / decimal}
; #@! TF.CreationDate,2019-11-04T11:04:35-05:00
; #@! TF.GenerationSoftware,Kicad,Pcbnew,(5.1.4)-1
; #@! TF.FileFunction,NonPlated,1,2,NPTH
FMAT,2
INCH
T1C0.0669
T2C0.1200
T3C0.1201
T4C0.1570
T5C0.1575
%
G90
G05
T1
X5.364Y-3.856
X5.764Y-3.856
X6.864Y-4.7935
X7.264Y-4.7935
X6.3952Y-7.7935
X6.7953Y-7.7935
X3.3015Y-7.0435
X3.7015Y-7.0435
X3.114Y-3.856
X3.514Y-3.856
X3.864Y-4.7935
X4.264Y-4.7935
X2.6452Y-7.7935
X3.0452Y-7.7935
X5.9265Y-6.2935
X6.3265Y-6.2935
X1.614Y-4.7935
X2.014Y-4.7935
X4.239Y-5.5435
X4.639Y-5.5435
X3.6765Y-7.7935
X4.0765Y-7.7935
X10.4265Y-6.2935
X10.8265Y-6.2935
X3.6765Y-6.2935
X4.0765Y-6.2935
X10.989Y-7.7935
X11.389Y-7.7935
X6.489Y-5.5435
X6.889Y-5.5435
X10.989Y-5.5435
X11.389Y-5.5435
X9.3015Y-7.0435
X9.7015Y-7.0435
X6.489Y-3.856
X6.889Y-3.856
X13.0515Y-4.7935
X13.4515Y-4.7935
X1.8952Y-6.2935
X2.2952Y-6.2935
X7.239Y-3.856
X7.639Y-3.856
X3.489Y-5.5435
X3.889Y-5.5435
X14.5515Y-5.5435
X14.9515Y-5.5435
X5.5515Y-7.0435
X5.9515Y-7.0435
X2.364Y-4.7935
X2.764Y-4.7935
X13.8015Y-4.7935
X14.2015Y-4.7935
X7.989Y-5.5435
X8.389Y-5.5435
X12.0202Y-7.7935
X12.4202Y-7.7935
X8.9265Y-6.2935
X9.3265Y-6.2935
X11.4577Y-7.0438
X11.8577Y-7.0438
X10.614Y-3.856
X11.014Y-3.856
X11.739Y-4.7935
X12.139Y-4.7935
X6.864Y-7.7935
X7.264Y-7.7935
X7.8015Y-7.0435
X8.2015Y-7.0435
X4.614Y-3.856
X5.014Y-3.856
X6.114Y-4.7935
X6.514Y-4.7935
X11.9265Y-7.7935
X12.3265Y-7.7935
X2.0827Y-7.0435
X2.4827Y-7.0435
X13.8015Y-3.856
X14.2015Y-3.856
X1.8015Y-5.5435
X2.2015Y-5.5435
X1.8015Y-7.7935
X2.2015Y-7.7935
X7.4265Y-6.2935
X7.8265Y-6.2935
X14.5515Y-7.7935
X14.9515Y-7.7935
X6.3015Y-7.0435
X6.7015Y-7.0435
X10.239Y-5.5435
X10.639Y-5.5435
X11.6452Y-6.2935
X12.0452Y-6.2935
X11.0827Y-7.7935
X11.4827Y-7.7935
X11.9265Y-5.5435
X12.3265Y-5.5435
X1.614Y-3.856
X2.014Y-3.856
X7.239Y-5.5435
X7.639Y-5.5435
X3.114Y-4.7935
X3.514Y-4.7935
X14.5515Y-4.7935
X14.9515Y-4.7935
X1.7077Y-6.2935
X2.1077Y-6.2935
X9.6765Y-6.2935
X10.0765Y-6.2935
X14.5515Y-3.856
X14.9515Y-3.856
X4.989Y-5.5435
X5.389Y-5.5435
X13.8015Y-5.5435
X14.2015Y-5.5435
X4.8015Y-7.0435
X5.2015Y-7.0435
X13.0515Y-3.856
X13.4515Y-3.856
X7.614Y-4.7935
X8.014Y-4.7935
X13.0515Y-5.5435
X13.4515Y-5.5435
X9.2077Y-7.7935
X9.6077Y-7.7935
X8.1765Y-6.2935
X8.5765Y-6.2935
X11.364Y-3.856
X11.764Y-3.856
X8.364Y-4.7935
X8.764Y-4.7935
X3.5827Y-7.7935
X3.9827Y-7.7935
X10.0515Y-7.0435
X10.4515Y-7.0435
X3.864Y-3.856
X4.264Y-3.856
X5.364Y-4.7935
X5.764Y-4.7935
X2.739Y-7.7935
X3.139Y-7.7935
X6.6765Y-6.2935
X7.0765Y-6.2935
X12.114Y-3.856
X12.514Y-3.856
X4.614Y-4.7935
X5.014Y-4.7935
X1.7077Y-7.7935
X2.1077Y-7.7935
X7.0515Y-7.0435
X7.4515Y-7.0435
X13.8015Y-7.7935
X14.2015Y-7.7935
X8.739Y-5.5435
X9.139Y-5.5435
X10.0515Y-7.7935
X10.4515Y-7.7935
X9.489Y-5.5435
X9.889Y-5.5435
X2.9265Y-6.2935
X3.3265Y-6.2935
X9.864Y-4.7935
X10.264Y-4.7935
X8.739Y-3.856
X9.139Y-3.856
X10.614Y-4.7935
X11.014Y-4.7935
X4.4265Y-6.2935
X4.8265Y-6.2935
X13.8015Y-7.0435
X14.2015Y-7.0435
X9.864Y-3.856
X10.264Y-3.856
X9.114Y-4.7935
X9.514Y-4.7935
X5.739Y-5.5435
X6.139Y-5.5435
X10.1452Y-7.7935
X10.5452Y-7.7935
X4.0515Y-7.0435
X4.4515Y-7.0435
X7.989Y-3.856
X8.389Y-3.856
X2.739Y-5.5435
X3.139Y-5.5435
X5.1765Y-6.2935
X5.5765Y-6.2935
X13.0515Y-7.7935
X13.4515Y-7.7935
X8.5515Y-7.0435
X8.9515Y-7.0435
T2
X4.814Y-8.0685
X9.314Y-8.0685
X4.6265Y-8.069
X8.5635Y-8.069
T3
X11.1892Y-6.7682
X12.1263Y-6.7682
X11.4705Y-4.5179
X12.4075Y-4.5179
X1.8142Y-6.7679
X2.7513Y-6.7679
X11.3767Y-6.0179
X12.3138Y-6.0179
T4
X4.814Y-7.4685
X9.314Y-7.4685
X4.6265Y-7.469
X8.5635Y-7.469
T5
X11.3767Y-6.6179
X11.8453Y-6.2935
X12.3138Y-6.6179
X11.2828Y-7.7935
X12.1265Y-5.5435
X1.814Y-3.856
X7.439Y-5.5435
X3.314Y-4.7935
X14.7515Y-4.7935
X1.9078Y-6.2935
X9.8765Y-6.2935
X14.7515Y-3.856
X5.189Y-5.5435
X14.0015Y-5.5435
X5.0015Y-7.0435
X13.2515Y-3.856
X7.814Y-4.7935
X13.2515Y-5.5435
X9.4078Y-7.7935
X8.3765Y-6.2935
X11.564Y-3.856
X8.564Y-4.7935
X3.7828Y-7.7935
X10.2515Y-7.0435
X4.064Y-3.856
X5.564Y-4.7935
X2.939Y-7.7935
X6.8765Y-6.2935
X12.314Y-3.856
X4.814Y-4.7935
X1.9078Y-7.7935
X7.2515Y-7.0435
X14.0015Y-7.7935
X8.939Y-5.5435
X10.2515Y-7.7935
X9.689Y-5.5435
X3.1265Y-6.2935
X10.064Y-4.7935
X8.939Y-3.856
X10.814Y-4.7935
X4.6265Y-6.2935
X14.0015Y-7.0435
X10.064Y-3.856
X9.314Y-4.7935
X5.939Y-5.5435
X10.3453Y-7.7935
X4.2515Y-7.0435
X8.189Y-3.856
X2.939Y-5.5435
X5.3765Y-6.2935
X13.2515Y-7.7935
X8.7515Y-7.0435
X5.564Y-3.856
X7.064Y-4.7935
X6.5953Y-7.7935
X3.5015Y-7.0435
X3.314Y-3.856
X4.064Y-4.7935
X2.8453Y-7.7935
X6.1265Y-6.2935
X1.814Y-4.7935
X4.439Y-5.5435
X3.8765Y-7.7935
X10.6265Y-6.2935
X3.8765Y-6.2935
X11.189Y-7.7935
X6.689Y-5.5435
X11.189Y-5.5435
X9.5015Y-7.0435
X6.689Y-3.856
X13.2515Y-4.7935
X2.0953Y-6.2935
X7.439Y-3.856
X3.689Y-5.5435
X14.7515Y-5.5435
X5.7515Y-7.0435
X2.564Y-4.7935
X14.0015Y-4.7935
X8.189Y-5.5435
X12.2203Y-7.7935
X9.1265Y-6.2935
X11.1892Y-7.3682
X11.6578Y-7.0438
X12.1263Y-7.3682
X10.814Y-3.856
X11.4705Y-5.1179
X11.939Y-4.7935
X12.4075Y-5.1179
X7.064Y-7.7935
X8.0015Y-7.0435
X4.814Y-3.856
X6.314Y-4.7935
X12.1265Y-7.7935
X1.8142Y-7.3679
X2.2828Y-7.0435
X2.7513Y-7.3679
X14.0015Y-3.856
X2.0015Y-5.5435
X2.0015Y-7.7935
X7.6265Y-6.2935
X14.7515Y-7.7935
X6.5015Y-7.0435
X10.439Y-5.5435
T0
M30
