M48
; DRILL file {KiCad (5.1.4)-1} date 11/14/2019 12:18:53 PM
; FORMAT={-:-/ absolute / inch / decimal}
; #@! TF.CreationDate,2019-11-14T12:18:53-05:00
; #@! TF.GenerationSoftware,Kicad,Pcbnew,(5.1.4)-1
; #@! TF.FileFunction,NonPlated,1,2,NPTH
FMAT,2
INCH
T1C0.0669
T2C0.1200
T3C0.1201
T4C0.1570
T5C0.1575
%
G90
G05
T1
X8.2Y-6.075
X8.6Y-6.075
X7.075Y-6.825
X7.475Y-6.825
X10.075Y-7.575
X10.475Y-7.575
X4.2625Y-5.325
X4.6625Y-5.325
X2.95Y-6.075
X3.35Y-6.075
X4.075Y-6.825
X4.475Y-6.825
X9.2312Y-7.575
X9.6312Y-7.575
X7.2625Y-5.325
X7.6625Y-5.325
X4.45Y-6.075
X4.85Y-6.075
X13.825Y-6.825
X14.225Y-6.825
X9.1375Y-4.575
X9.5375Y-4.575
X9.8875Y-4.575
X10.2875Y-4.575
X5.3875Y-4.575
X5.7875Y-4.575
X10.075Y-6.825
X10.475Y-6.825
X3.8875Y-3.6375
X4.2875Y-3.6375
X3.5125Y-5.325
X3.9125Y-5.325
X2.7625Y-5.325
X3.1625Y-5.325
X6.325Y-6.825
X6.725Y-6.825
X6.5125Y-3.6375
X6.9125Y-3.6375
X11.7625Y-4.575
X12.1625Y-4.575
X10.6375Y-4.575
X11.0375Y-4.575
X7.825Y-6.825
X8.225Y-6.825
X6.8875Y-4.575
X7.2875Y-4.575
X13.825Y-5.325
X14.225Y-5.325
X11.0125Y-7.575
X11.4125Y-7.575
X11.3875Y-3.6375
X11.7875Y-3.6375
X11.95Y-5.325
X12.35Y-5.325
X13.075Y-7.575
X13.475Y-7.575
X13.825Y-3.6375
X14.225Y-3.6375
X5.95Y-6.075
X6.35Y-6.075
X11.1062Y-7.575
X11.5062Y-7.575
X6.5125Y-5.325
X6.9125Y-5.325
X10.2625Y-5.325
X10.6625Y-5.325
X5.575Y-6.825
X5.975Y-6.825
X8.0125Y-3.6375
X8.4125Y-3.6375
X1.7312Y-6.075
X2.1313Y-6.075
X1.7312Y-7.575
X2.1313Y-7.575
X14.575Y-7.575
X14.975Y-7.575
X1.825Y-5.325
X2.225Y-5.325
X8.95Y-6.075
X9.35Y-6.075
X3.325Y-6.825
X3.725Y-6.825
X11.6687Y-6.075
X12.0687Y-6.075
X6.8875Y-7.575
X7.2875Y-7.575
X9.325Y-6.825
X9.725Y-6.825
X7.6375Y-4.575
X8.0375Y-4.575
X10.45Y-6.075
X10.85Y-6.075
X6.1375Y-4.575
X6.5375Y-4.575
X5.0125Y-5.325
X5.4125Y-5.325
X2.6687Y-7.575
X3.0688Y-7.575
X8.3875Y-4.575
X8.7875Y-4.575
X14.575Y-4.575
X14.975Y-4.575
X1.825Y-7.575
X2.225Y-7.575
X1.6375Y-3.6375
X2.0375Y-3.6375
X13.075Y-4.575
X13.475Y-4.575
X1.6375Y-4.575
X2.0375Y-4.575
X13.075Y-5.325
X13.475Y-5.325
X3.6062Y-7.575
X4.0062Y-7.575
X5.3875Y-3.6375
X5.7875Y-3.6375
X10.6375Y-3.6375
X11.0375Y-3.6375
X11.0125Y-5.325
X11.4125Y-5.325
X11.95Y-7.575
X12.35Y-7.575
X3.1375Y-3.6375
X3.5375Y-3.6375
X9.8875Y-3.6375
X10.2875Y-3.6375
X9.5125Y-5.325
X9.9125Y-5.325
X10.1687Y-7.575
X10.5687Y-7.575
X8.7625Y-3.6375
X9.1625Y-3.6375
X7.45Y-6.075
X7.85Y-6.075
X3.7Y-7.575
X4.1Y-7.575
X13.825Y-7.575
X14.225Y-7.575
X13.075Y-3.6375
X13.475Y-3.6375
X6.7Y-6.075
X7.1Y-6.075
X4.825Y-6.825
X5.225Y-6.825
X11.4812Y-6.8252
X11.8812Y-6.8252
X12.0437Y-7.575
X12.4437Y-7.575
X5.7625Y-5.325
X6.1625Y-5.325
X1.9187Y-6.075
X2.3188Y-6.075
X2.1062Y-6.825
X2.5063Y-6.825
X8.7625Y-5.325
X9.1625Y-5.325
X9.7Y-6.075
X10.1Y-6.075
X4.6375Y-3.6375
X5.0375Y-3.6375
X4.6375Y-4.575
X5.0375Y-4.575
X8.0125Y-5.325
X8.4125Y-5.325
X2.7625Y-7.575
X3.1625Y-7.575
X3.8875Y-4.575
X4.2875Y-4.575
X13.825Y-4.575
X14.225Y-4.575
X8.575Y-6.825
X8.975Y-6.825
X3.1375Y-4.575
X3.5375Y-4.575
X6.4188Y-7.575
X6.8187Y-7.575
X12.1375Y-3.6375
X12.5375Y-3.6375
X5.2Y-6.075
X5.6Y-6.075
X14.575Y-3.6375
X14.975Y-3.6375
X3.7Y-6.075
X4.1Y-6.075
X7.2625Y-3.6375
X7.6625Y-3.6375
X14.575Y-5.325
X14.975Y-5.325
X2.3875Y-4.575
X2.7875Y-4.575
T2
X4.65Y-7.8505
X8.587Y-7.8505
X4.8375Y-7.85
X9.3375Y-7.85
T3
X11.4002Y-5.7994
X12.3373Y-5.7994
X11.2127Y-6.5497
X12.1498Y-6.5497
X1.8377Y-6.5494
X2.7748Y-6.5494
X11.494Y-4.2994
X12.431Y-4.2994
T4
X4.65Y-7.2505
X8.587Y-7.2505
X4.8375Y-7.25
X9.3375Y-7.25
T5
X6.6187Y-7.575
X12.3375Y-3.6375
X5.4Y-6.075
X14.775Y-3.6375
X3.9Y-6.075
X7.4625Y-3.6375
X14.775Y-5.325
X2.5875Y-4.575
X8.4Y-6.075
X7.275Y-6.825
X10.275Y-7.575
X4.4625Y-5.325
X3.15Y-6.075
X4.275Y-6.825
X9.4313Y-7.575
X7.4625Y-5.325
X4.65Y-6.075
X14.025Y-6.825
X9.3375Y-4.575
X10.0875Y-4.575
X5.5875Y-4.575
X10.275Y-6.825
X4.0875Y-3.6375
X3.7125Y-5.325
X2.9625Y-5.325
X6.525Y-6.825
X6.7125Y-3.6375
X11.494Y-4.8994
X11.9625Y-4.575
X12.431Y-4.8994
X10.8375Y-4.575
X8.025Y-6.825
X7.0875Y-4.575
X14.025Y-5.325
X11.2125Y-7.575
X11.5875Y-3.6375
X12.15Y-5.325
X13.275Y-7.575
X14.025Y-3.6375
X6.15Y-6.075
X11.3063Y-7.575
X6.7125Y-5.325
X10.4625Y-5.325
X5.775Y-6.825
X8.2125Y-3.6375
X1.9312Y-6.075
X1.9312Y-7.575
X14.775Y-7.575
X2.025Y-5.325
X9.15Y-6.075
X3.525Y-6.825
X11.4002Y-6.3994
X11.8688Y-6.075
X12.3373Y-6.3994
X7.0875Y-7.575
X9.525Y-6.825
X7.8375Y-4.575
X10.65Y-6.075
X6.3375Y-4.575
X5.2125Y-5.325
X2.8687Y-7.575
X8.5875Y-4.575
X14.775Y-4.575
X2.025Y-7.575
X1.8375Y-3.6375
X13.275Y-4.575
X1.8375Y-4.575
X13.275Y-5.325
X3.8062Y-7.575
X5.5875Y-3.6375
X10.8375Y-3.6375
X11.2125Y-5.325
X12.15Y-7.575
X3.3375Y-3.6375
X10.0875Y-3.6375
X9.7125Y-5.325
X10.3688Y-7.575
X8.9625Y-3.6375
X7.65Y-6.075
X3.9Y-7.575
X14.025Y-7.575
X13.275Y-3.6375
X6.9Y-6.075
X5.025Y-6.825
X11.2127Y-7.1497
X11.6813Y-6.8252
X12.1498Y-7.1497
X12.2438Y-7.575
X5.9625Y-5.325
X2.1187Y-6.075
X1.8377Y-7.1494
X2.3062Y-6.825
X2.7748Y-7.1494
X8.9625Y-5.325
X9.9Y-6.075
X4.8375Y-3.6375
X4.8375Y-4.575
X8.2125Y-5.325
X2.9625Y-7.575
X4.0875Y-4.575
X14.025Y-4.575
X8.775Y-6.825
X3.3375Y-4.575
T0
M30
