M48
; DRILL file {KiCad (5.1.4)-1} date 10/27/2019 3:56:59 AM
; FORMAT={-:-/ absolute / inch / decimal}
; #@! TF.CreationDate,2019-10-27T03:56:59-04:00
; #@! TF.GenerationSoftware,Kicad,Pcbnew,(5.1.4)-1
; #@! TF.FileFunction,Plated,1,2,PTH
FMAT,2
INCH
T1C0.0157
T2C0.0236
T3C0.0276
T4C0.0315
T5C0.0354
T6C0.0400
T7C0.0433
T8C0.0591
T9C0.0866
%
G90
G05
T1
X2.462Y-2.784
X2.859Y-2.844
X3.106Y-2.993
X3.149Y-3.204
X3.216Y-2.834
X3.609Y-2.784
X4.169Y-3.06
X4.385Y-2.865
X4.451Y-3.099
X4.613Y-2.796
X4.731Y-2.882
X4.811Y-2.894
X4.962Y-3.002
X5.422Y-2.775
X5.464Y-2.855
X5.916Y-2.782
X6.033Y-3.134
X6.229Y-3.08
X6.237Y-2.79
X6.474Y-2.844
X6.536Y-2.978
X6.627Y-2.84
X6.715Y-2.84
X6.88Y-2.816
X7.033Y-2.836
X7.135Y-3.072
X7.222Y-3.631
X7.264Y-3.2
X7.328Y-2.784
X7.61Y-3.065
X7.782Y-2.563
X7.791Y-2.907
X7.808Y-2.796
X7.995Y-3.121
X8.256Y-3.039
X8.27Y-2.783
X8.286Y-3.006
X8.3035Y-2.8056
X8.3186Y-3.0715
X8.3383Y-3.0375
X8.339Y-2.829
X8.414Y-2.925
X8.421Y-2.84
X8.939Y-2.956
X9.043Y-3.304
X9.2114Y-2.8269
X9.2392Y-2.9705
X9.2396Y-2.9126
X9.2404Y-2.8555
X9.2721Y-2.9475
X9.2732Y-2.8904
X9.583Y-5.954
X9.704Y-5.113
X9.886Y-2.686
X9.945Y-3.066
X9.948Y-2.961
X9.96Y-2.681
X10.038Y-3.095
X10.096Y-2.947
X10.097Y-2.438
X10.278Y-2.442
X10.288Y-2.778
X10.458Y-2.675
X10.525Y-2.8
X10.571Y-2.726
X10.819Y-2.692
X10.872Y-3.017
X11.074Y-2.797
X11.542Y-2.706
X11.747Y-2.669
X12.297Y-2.907
X12.302Y-2.72
X12.305Y-2.617
X12.364Y-2.704
X12.463Y-2.638
X12.517Y-2.845
X12.82Y-2.888
X13.396Y-2.663
X13.873Y-3.079
X14.778Y-3.069
X8.1669Y-2.682
X8.1671Y-2.7342
X8.2004Y-2.682
X8.2006Y-2.7342
X8.2338Y-2.682
X8.234Y-2.7342
X8.2673Y-2.682
X8.2675Y-2.7342
X8.3008Y-2.682
X8.301Y-2.7342
X8.3342Y-2.682
X8.3344Y-2.7342
X8.3677Y-2.682
X8.3679Y-2.7342
X8.4014Y-2.682
X8.4014Y-2.7342
T2
X8.557Y-2.8331
X8.557Y-2.8922
T3
X8.731Y-3.0084
X9.031Y-3.0084
X7.9889Y-2.4696
X7.9889Y-2.6704
X8.731Y-3.1073
X9.031Y-3.1073
X8.731Y-3.2061
X9.031Y-3.2061
X8.731Y-2.9096
X9.031Y-2.9096
X8.731Y-2.7119
X9.031Y-2.7119
X8.731Y-2.613
X9.031Y-2.613
X8.731Y-2.8107
X9.031Y-2.8107
T4
X3.9943Y-2.9766
X3.9943Y-3.1766
X8.203Y-2.9766
X8.203Y-3.1766
X3.6117Y-2.9766
X3.6117Y-3.1766
X12.5132Y-2.5681
X12.5132Y-2.7681
X12.0958Y-2.5681
X12.0958Y-2.7681
X12.6524Y-2.9766
X12.6524Y-3.1766
X8.613Y-3.006
X8.613Y-3.206
X4.1218Y-2.7813
X4.1218Y-2.9813
X4.3769Y-2.9766
X4.3769Y-3.1766
X12.3741Y-2.9766
X12.3741Y-3.1766
X10.3839Y-3.307
X10.576Y-3.307
X3.1015Y-2.8789
X3.1015Y-3.0789
X5.9073Y-2.9766
X5.9073Y-3.1766
X2.974Y-2.7813
X2.974Y-2.9813
X11.9567Y-2.5681
X11.9567Y-2.7681
X9.174Y-2.551
X9.174Y-3.151
X9.274Y-2.551
X9.274Y-3.151
X9.374Y-2.551
X9.374Y-3.151
X9.474Y-2.551
X9.474Y-3.151
X9.574Y-2.551
X9.574Y-3.151
X9.674Y-2.551
X9.674Y-3.151
X9.774Y-2.551
X9.774Y-3.151
X9.874Y-2.551
X9.874Y-3.151
X9.974Y-2.551
X9.974Y-3.151
X10.074Y-2.551
X10.074Y-3.151
X10.174Y-2.551
X10.174Y-3.151
X10.274Y-2.551
X10.274Y-3.151
X10.374Y-2.551
X10.374Y-3.151
X10.474Y-2.551
X10.474Y-3.151
X10.574Y-2.551
X10.574Y-3.151
X10.674Y-2.551
X10.674Y-3.151
X10.774Y-2.551
X10.774Y-3.151
X10.874Y-2.551
X10.874Y-3.151
X10.974Y-2.551
X10.974Y-3.151
X11.074Y-2.551
X11.074Y-3.151
X12.6524Y-2.5681
X12.6524Y-2.7681
X12.235Y-2.9766
X12.235Y-3.1766
X6.2899Y-2.9766
X6.2899Y-3.1766
X14.4611Y-2.9766
X14.4611Y-3.1766
X11.6785Y-2.5681
X11.6785Y-2.7681
X12.0958Y-2.9766
X12.0958Y-3.1766
X4.5044Y-2.7813
X4.5044Y-2.9813
X6.545Y-2.8789
X6.545Y-3.0789
X11.9567Y-2.9766
X11.9567Y-3.1766
X2.2088Y-2.7813
X2.2088Y-2.9813
X3.8667Y-2.8789
X3.8667Y-3.0789
X4.632Y-2.8789
X4.632Y-3.0789
X14.7393Y-2.9766
X14.7393Y-3.1766
X10.762Y-3.2776
X10.762Y-3.376
X6.9276Y-2.8789
X6.9276Y-3.0789
X12.9306Y-2.5681
X12.9306Y-2.7681
X3.3566Y-2.7813
X3.3566Y-2.9813
X12.9306Y-2.9766
X12.9306Y-3.1766
X14.1828Y-2.9766
X14.1828Y-3.1766
X6.4175Y-2.7813
X6.4175Y-2.9813
X2.8465Y-2.9766
X2.8465Y-3.1766
X13.2089Y-2.9766
X13.2089Y-3.1766
X3.4841Y-2.8789
X3.4841Y-3.0789
X3.7392Y-2.7813
X3.7392Y-2.9813
X4.2494Y-2.8789
X4.2494Y-3.0789
X9.901Y-3.247
X10.0979Y-3.247
X14.6002Y-2.9766
X14.6002Y-3.1766
X13.7654Y-2.9766
X13.7654Y-3.1766
X2.5914Y-2.7813
X2.5914Y-2.9813
X14.3219Y-2.9766
X14.3219Y-3.1766
X6.6726Y-2.9766
X6.6726Y-3.1766
X14.0437Y-2.9766
X14.0437Y-3.1766
X2.7189Y-2.8789
X2.7189Y-3.0789
X7.8204Y-2.9766
X7.8204Y-3.1766
X7.4378Y-2.9766
X7.4378Y-3.1766
X11.6785Y-2.9766
X11.6785Y-3.1766
X7.5653Y-2.7813
X7.5653Y-2.9813
X13.348Y-2.9766
X13.348Y-3.1766
X5.7798Y-2.8789
X5.7798Y-3.0789
X6.0349Y-2.7813
X6.0349Y-2.9813
X7.9479Y-2.7813
X7.9479Y-2.9813
X5.0146Y-2.8789
X5.0146Y-3.0789
X7.6929Y-2.871
X7.6929Y-3.071
X13.0698Y-2.9766
X13.0698Y-3.1766
X4.7595Y-2.9766
X4.7595Y-3.1766
X6.1624Y-2.8789
X6.1624Y-3.0789
X2.3363Y-2.8789
X2.3363Y-3.0789
X4.887Y-2.7813
X4.887Y-2.9813
X7.0552Y-2.9766
X7.0552Y-3.1766
X8.0755Y-2.871
X8.0755Y-3.071
X13.348Y-2.5681
X13.348Y-2.7681
X5.1421Y-2.9766
X5.1421Y-3.1766
X13.4872Y-2.9766
X13.4872Y-3.1766
X13.2089Y-2.5681
X13.2089Y-2.7681
X10.198Y-3.2776
X10.198Y-3.376
X5.5247Y-2.9766
X5.5247Y-3.1766
X12.7915Y-2.9766
X12.7915Y-3.1766
X11.8176Y-2.5681
X11.8176Y-2.7681
X9.9741Y-2.453
X10.171Y-2.453
X5.6523Y-2.7813
X5.6523Y-2.9813
X12.3741Y-2.5681
X12.3741Y-2.7681
X11.8176Y-2.9766
X11.8176Y-3.1766
X13.9046Y-2.9766
X13.9046Y-3.1766
X2.4638Y-2.9766
X2.4638Y-3.1766
X12.5132Y-2.9766
X12.5132Y-3.1766
X2.0812Y-2.9766
X2.0812Y-3.1766
X1.8262Y-2.7813
X1.8262Y-2.9813
X13.0698Y-2.5681
X13.0698Y-2.7681
X13.6263Y-2.9766
X13.6263Y-3.1766
X7.1827Y-2.7813
X7.1827Y-2.9813
X6.8001Y-2.7813
X6.8001Y-2.9813
X1.9537Y-2.8789
X1.9537Y-3.0789
X7.3102Y-2.871
X7.3102Y-3.071
X12.235Y-2.5681
X12.235Y-2.7681
X5.2697Y-2.7813
X5.2697Y-2.9813
X5.3972Y-2.8789
X5.3972Y-3.0789
X8.497Y-3.006
X8.497Y-3.206
X12.7915Y-2.5681
X12.7915Y-2.7681
X3.2291Y-2.9766
X3.2291Y-3.1766
T5
X8.5433Y-2.562
X8.6433Y-2.562
T6
X7.2052Y-2.49
X7.2052Y-2.59
X7.3052Y-2.49
X7.3052Y-2.59
X7.4052Y-2.49
X7.4052Y-2.59
T7
X6.7097Y-2.475
X6.7097Y-2.6522
X6.9656Y-2.475
X6.9656Y-2.6522
X6.2082Y-2.474
X6.2082Y-2.6512
X6.4641Y-2.474
X6.4641Y-2.6512
T8
X6.7265Y-6.1935
X6.9765Y-6.0935
X4.1015Y-6.9435
X4.3515Y-6.8435
X13.8515Y-4.6935
X14.1015Y-4.5935
X9.914Y-4.6935
X10.164Y-4.5935
X14.6015Y-5.4435
X14.8515Y-5.3435
X7.1015Y-6.9435
X7.3515Y-6.8435
X13.8515Y-5.4435
X14.1015Y-5.3435
X6.914Y-7.6935
X7.164Y-7.5935
X2.9765Y-6.1935
X3.2265Y-6.0935
X1.8515Y-7.6935
X2.1015Y-7.5935
X5.9765Y-6.1935
X6.2265Y-6.0935
X10.1952Y-7.6935
X10.4452Y-7.5935
X12.164Y-3.756
X12.414Y-3.656
X10.289Y-5.4435
X10.539Y-5.3435
X3.164Y-3.756
X3.414Y-3.656
X2.1328Y-6.9435
X2.3828Y-6.8435
X4.289Y-5.4435
X4.539Y-5.3435
X12.0702Y-7.6935
X12.3202Y-7.5935
X9.914Y-3.756
X10.164Y-3.656
X8.039Y-5.4435
X8.289Y-5.3435
X2.414Y-4.6935
X2.664Y-4.5935
X3.6327Y-7.6935
X3.8827Y-7.5935
X11.1327Y-7.6935
X11.3827Y-7.5935
X3.914Y-3.756
X4.164Y-3.656
X8.2265Y-6.1935
X8.4765Y-6.0935
X7.8515Y-6.9435
X8.1015Y-6.8435
X14.6015Y-7.6935
X14.8515Y-7.5935
X1.664Y-3.756
X1.914Y-3.656
X1.8515Y-5.4435
X2.1015Y-5.3435
X8.789Y-3.756
X9.039Y-3.656
X13.1015Y-4.6935
X13.3515Y-4.5935
X11.6952Y-6.1935
X11.9452Y-6.0935
X5.414Y-4.6935
X5.664Y-4.5935
X9.164Y-4.6935
X9.414Y-4.5935
X4.664Y-4.6935
X4.914Y-4.5935
X8.9765Y-6.1935
X9.2265Y-6.0935
X13.1015Y-7.6935
X13.3515Y-7.5935
X10.1015Y-6.9435
X10.3515Y-6.8435
X8.414Y-4.6935
X8.664Y-4.5935
X7.289Y-5.4435
X7.539Y-5.3435
X6.539Y-3.756
X6.789Y-3.656
X6.3515Y-6.9435
X6.6015Y-6.8435
X7.4765Y-6.1935
X7.7265Y-6.0935
X1.664Y-4.6935
X1.914Y-4.5935
X11.9765Y-5.4435
X12.2265Y-5.3435
X3.3515Y-6.9435
X3.6015Y-6.8435
X11.039Y-5.4435
X11.289Y-5.3435
X13.8515Y-7.6935
X14.1015Y-7.5935
X11.414Y-3.756
X11.664Y-3.656
X11.5077Y-6.9437
X11.7577Y-6.8438
X9.7265Y-6.1935
X9.9765Y-6.0935
X14.6015Y-3.756
X14.8515Y-3.656
X3.7265Y-7.6935
X3.9765Y-7.5935
X10.1015Y-7.6935
X10.3515Y-7.5935
X3.914Y-4.6935
X4.164Y-4.5935
X3.539Y-5.4435
X3.789Y-5.3435
X2.6953Y-7.6935
X2.9453Y-7.5935
X9.2577Y-7.6935
X9.5077Y-7.5935
X8.039Y-3.756
X8.289Y-3.656
X2.789Y-5.4435
X3.039Y-5.3435
X8.6015Y-6.9435
X8.8515Y-6.8435
X14.6015Y-4.6935
X14.8515Y-4.5935
X7.289Y-3.756
X7.539Y-3.656
X4.4765Y-6.1935
X4.7265Y-6.0935
X13.1015Y-3.756
X13.3515Y-3.656
X6.539Y-5.4435
X6.789Y-5.3435
X4.664Y-3.756
X4.914Y-3.656
X5.6015Y-6.9435
X5.8515Y-6.8435
X1.9452Y-6.1935
X2.1953Y-6.0935
X11.9765Y-7.6935
X12.2265Y-7.5935
X2.789Y-7.6935
X3.039Y-7.5935
X11.789Y-4.6935
X12.039Y-4.5935
X11.039Y-7.6935
X11.289Y-7.5935
X5.2265Y-6.1935
X5.4765Y-6.0935
X4.8515Y-6.9435
X5.1015Y-6.8435
X13.1015Y-5.4435
X13.3515Y-5.3435
X6.164Y-4.6935
X6.414Y-4.5935
X9.3515Y-6.9435
X9.6015Y-6.8435
X3.7265Y-6.1935
X3.9765Y-6.0935
X7.664Y-4.6935
X7.914Y-4.5935
X1.7577Y-7.6935
X2.0078Y-7.5935
X8.789Y-5.4435
X9.039Y-5.3435
X13.8515Y-3.756
X14.1015Y-3.656
X9.539Y-5.4435
X9.789Y-5.3435
X10.4765Y-6.1935
X10.7265Y-6.0935
X6.4452Y-7.6935
X6.6952Y-7.5935
X5.414Y-3.756
X5.664Y-3.656
X5.789Y-5.4435
X6.039Y-5.3435
X13.8515Y-6.9435
X14.1015Y-6.8435
X3.164Y-4.6935
X3.414Y-4.5935
X1.7577Y-6.1935
X2.0078Y-6.0935
X6.914Y-4.6935
X7.164Y-4.5935
X5.039Y-5.4435
X5.289Y-5.3435
X10.664Y-3.756
X10.914Y-3.656
X10.664Y-4.6935
X10.914Y-4.5935
T9
X12.9129Y-7.2226
X8.2842Y-4.319
X14.969Y-3.2919
X14.9419Y-7.2226
X14.9419Y-6.111
X12.9129Y-6.111
X3.067Y-7.031
X5.281Y-2.5537
X3.3765Y-4.319
X11.2845Y-3.2919
X5.281Y-3.2919
X8.2842Y-7.784
X13.189Y-4.319
X14.969Y-2.5537
X1.5965Y-3.2919
X11.2845Y-2.5537
X1.5965Y-2.5537
T2
G00X8.114Y-2.5783
M15
G01X8.114Y-2.5468
M16
G05
G00X8.114Y-2.7251
M15
G01X8.114Y-2.666
M16
G05
G00X8.4545Y-2.5783
M15
G01X8.4545Y-2.5468
M16
G05
G00X8.4545Y-2.7251
M15
G01X8.4545Y-2.666
M16
G05
T0
M30
