M48
; DRILL file {KiCad 6.0.10-86aedd382b~118~ubuntu22.10.1} date Wed 22 Feb 2023 16:30:18 CET
; FORMAT={-:-/ absolute / metric / decimal}
; #@! TF.CreationDate,2023-02-22T16:30:18+01:00
; #@! TF.GenerationSoftware,Kicad,Pcbnew,6.0.10-86aedd382b~118~ubuntu22.10.1
; #@! TF.FileFunction,Plated,1,2,PTH
FMAT,2
METRIC
; #@! TA.AperFunction,Plated,PTH,ViaDrill
T1C0.400
; #@! TA.AperFunction,Plated,PTH,ComponentDrill
T2C0.400
; #@! TA.AperFunction,Plated,PTH,ComponentDrill
T3C0.600
; #@! TA.AperFunction,Plated,PTH,ComponentDrill
T4C0.700
; #@! TA.AperFunction,Plated,PTH,ComponentDrill
T5C0.800
; #@! TA.AperFunction,Plated,PTH,ComponentDrill
T6C0.900
; #@! TA.AperFunction,Plated,PTH,ComponentDrill
T7C1.000
; #@! TA.AperFunction,Plated,PTH,ComponentDrill
T8C1.016
; #@! TA.AperFunction,Plated,PTH,ComponentDrill
T9C1.100
; #@! TA.AperFunction,Plated,PTH,ComponentDrill
T10C1.500
; #@! TA.AperFunction,Plated,PTH,ComponentDrill
T11C2.200
%
G90
G05
T1
X54.6Y-76.0
X55.548Y-76.316
X59.9Y-70.3
X62.89Y-66.878
X72.136Y-96.012
X73.215Y-66.688
X74.549Y-72.39
X79.375Y-70.485
X81.8Y-67.575
X89.408Y-141.732
X92.202Y-104.14
X92.265Y-65.164
X100.076Y-178.816
X106.489Y-72.174
X106.68Y-142.24
X111.976Y-67.221
X113.652Y-73.165
X118.11Y-173.99
X118.237Y-65.71
X120.929Y-67.869
X122.796Y-67.958
X126.543Y-71.095
X130.7Y-67.5
X136.8Y-65.1
X139.382Y-66.967
X150.863Y-65.113
X153.835Y-74.054
X158.814Y-72.682
X159.8Y-65.5
X165.036Y-66.688
X166.611Y-70.091
X168.1Y-61.1
X168.923Y-66.586
X171.158Y-66.586
X175.349Y-65.977
X179.235Y-66.484
X181.826Y-72.479
X184.036Y-86.677
X185.102Y-75.73
X186.2Y-65.1
X189.4Y-67.35
X193.891Y-72.301
X198.05Y-66.0
X198.26Y-59.55
X198.488Y-68.288
X203.67Y-73.724
X210.299Y-71.641
X210.655Y-65.138
X211.061Y-70.802
X211.507Y-65.713
X211.786Y-72.127
X211.786Y-73.127
X212.407Y-66.307
X214.45Y-66.777
X224.0Y-75.85
X235.282Y-68.429
X236.136Y-67.867
X237.118Y-67.417
X237.45Y-69.317
X237.65Y-63.6
X238.118Y-66.967
X238.35Y-69.767
X239.117Y-66.517
X240.078Y-66.067
X244.005Y-145.682
X247.078Y-124.32
X251.956Y-71.275
X252.919Y-60.413
X254.1Y-63.4
X254.2Y-70.5
X256.413Y-56.832
X257.776Y-73.837
X257.789Y-72.803
X259.004Y-69.698
X282.471Y-70.885
X294.665Y-63.83
X295.656Y-158.496
X298.971Y-62.243
X309.118Y-67.386
X312.941Y-68.288
X313.068Y-63.538
X313.144Y-60.922
X314.642Y-63.132
X317.157Y-61.455
X318.529Y-66.713
X320.04Y-63.246
X323.837Y-67.805
X339.217Y-80.645
X341.122Y-61.392
X341.376Y-71.272
X344.678Y-73.533
X351.968Y-62.281
X366.903Y-67.056
T2
X208.036Y-62.573
X208.041Y-63.898
X208.886Y-62.573
X208.891Y-63.898
X209.736Y-62.573
X209.741Y-63.898
X210.586Y-62.573
X210.591Y-63.898
X211.436Y-62.573
X211.441Y-63.898
X212.286Y-62.573
X212.291Y-63.898
X213.136Y-62.573
X213.141Y-63.898
X213.991Y-62.573
X213.991Y-63.898
T3
X217.945Y-66.412
X217.945Y-67.912
T4
X203.515Y-57.178
X203.515Y-62.278
X222.364Y-60.82
X222.364Y-63.331
X222.364Y-65.842
X222.364Y-68.353
X222.364Y-70.864
X222.364Y-73.375
X222.364Y-75.886
X229.984Y-60.82
X229.984Y-63.331
X229.984Y-65.842
X229.984Y-68.353
X229.984Y-70.864
X229.984Y-73.375
X229.984Y-75.886
X375.245Y-64.868
X375.245Y-72.488
X377.745Y-64.868
X377.745Y-72.488
T5
X46.981Y-65.094
X46.981Y-70.174
X50.221Y-67.575
X50.221Y-72.655
X53.46Y-70.055
X53.46Y-75.135
X56.7Y-70.055
X56.7Y-75.135
X59.939Y-67.575
X59.939Y-72.655
X63.179Y-70.055
X63.179Y-75.135
X66.418Y-65.094
X66.418Y-70.174
X69.657Y-67.575
X69.657Y-72.655
X72.897Y-70.055
X72.897Y-75.135
X76.136Y-65.094
X76.136Y-70.174
X79.376Y-67.575
X79.376Y-72.655
X80.01Y-170.942
X80.01Y-176.022
X82.615Y-70.055
X82.615Y-75.135
X85.855Y-65.094
X85.855Y-70.174
X89.094Y-67.575
X89.094Y-72.655
X92.333Y-70.055
X92.333Y-75.135
X95.573Y-65.094
X95.573Y-70.174
X98.812Y-67.575
X98.812Y-72.655
X102.052Y-70.055
X102.052Y-75.135
X105.291Y-65.094
X105.291Y-70.174
X108.531Y-67.575
X108.531Y-72.655
X111.77Y-70.055
X111.77Y-75.135
X115.009Y-65.094
X115.009Y-70.174
X118.249Y-67.575
X118.249Y-72.655
X121.488Y-70.055
X121.488Y-75.135
X124.728Y-65.094
X124.728Y-70.174
X127.967Y-67.575
X127.967Y-72.655
X131.207Y-70.055
X131.207Y-75.135
X134.446Y-65.094
X134.446Y-70.174
X137.686Y-67.575
X137.686Y-72.655
X140.925Y-70.055
X140.925Y-75.135
X144.164Y-65.094
X144.164Y-70.174
X147.404Y-67.575
X147.404Y-72.655
X150.643Y-70.055
X150.643Y-75.135
X153.883Y-65.094
X153.883Y-70.174
X157.122Y-67.575
X157.122Y-72.655
X160.362Y-70.055
X160.362Y-75.135
X163.601Y-65.094
X163.601Y-70.174
X166.84Y-67.575
X166.84Y-72.655
X170.08Y-70.055
X170.08Y-75.135
X173.319Y-65.094
X173.319Y-70.174
X176.559Y-67.575
X176.559Y-72.655
X179.798Y-70.055
X179.798Y-75.135
X183.038Y-65.094
X183.038Y-70.174
X186.277Y-67.373
X186.277Y-72.453
X189.516Y-70.055
X189.516Y-75.135
X192.756Y-65.094
X192.756Y-70.174
X195.995Y-67.373
X195.995Y-72.453
X199.235Y-70.055
X199.235Y-75.135
X202.474Y-65.094
X202.474Y-70.174
X205.714Y-67.373
X205.714Y-72.453
X208.953Y-70.055
X208.953Y-75.135
X216.421Y-70.802
X216.421Y-75.882
X219.367Y-70.802
X219.367Y-75.882
X233.617Y-59.245
X233.617Y-74.486
X236.156Y-59.245
X236.156Y-74.486
X238.696Y-59.245
X238.696Y-74.486
X241.236Y-59.245
X241.236Y-74.486
X243.776Y-59.245
X243.776Y-74.486
X246.316Y-59.245
X246.316Y-74.486
X248.856Y-59.245
X248.856Y-74.486
X251.396Y-59.245
X251.396Y-74.486
X251.45Y-76.924
X253.936Y-59.245
X253.936Y-74.486
X253.94Y-56.756
X256.45Y-76.924
X256.476Y-59.245
X256.476Y-74.486
X258.75Y-77.35
X258.75Y-79.85
X258.94Y-56.756
X259.017Y-59.245
X259.017Y-74.486
X261.556Y-59.245
X261.556Y-74.486
X263.497Y-78.448
X264.096Y-59.245
X264.096Y-74.486
X266.637Y-59.245
X266.637Y-74.486
X268.377Y-78.448
X269.176Y-59.245
X269.176Y-74.486
X271.716Y-59.245
X271.716Y-74.486
X273.1Y-77.35
X273.1Y-79.85
X274.256Y-59.245
X274.256Y-74.486
X276.796Y-59.245
X276.796Y-74.486
X279.337Y-59.245
X279.337Y-74.486
X281.876Y-59.245
X281.876Y-74.486
X297.23Y-59.68
X297.23Y-64.76
X297.23Y-70.055
X297.23Y-75.135
X300.764Y-59.68
X300.764Y-64.76
X300.764Y-70.055
X300.764Y-75.135
X304.298Y-59.68
X304.298Y-64.76
X304.298Y-70.055
X304.298Y-75.135
X307.831Y-59.68
X307.831Y-64.76
X307.831Y-70.055
X307.831Y-75.135
X311.365Y-59.68
X311.365Y-64.76
X311.365Y-70.055
X311.365Y-75.135
X314.899Y-59.68
X314.899Y-64.76
X314.899Y-70.055
X314.899Y-75.135
X318.433Y-59.68
X318.433Y-64.76
X318.433Y-70.055
X318.433Y-75.135
X321.967Y-59.68
X321.967Y-64.76
X321.967Y-70.055
X321.967Y-75.135
X325.501Y-59.68
X325.501Y-64.76
X325.501Y-70.055
X325.501Y-75.135
X329.035Y-59.68
X329.035Y-64.76
X329.035Y-70.055
X329.035Y-75.135
X332.569Y-59.68
X332.569Y-64.76
X332.569Y-70.055
X332.569Y-75.135
X336.103Y-59.68
X336.103Y-64.76
X336.103Y-70.055
X336.103Y-75.135
X339.637Y-59.68
X339.637Y-64.76
X339.637Y-70.055
X339.637Y-75.135
X343.167Y-59.68
X343.167Y-64.76
X343.171Y-70.055
X343.171Y-75.135
X346.697Y-59.68
X346.697Y-64.76
X346.705Y-70.055
X346.705Y-75.135
X350.227Y-59.68
X350.227Y-64.76
X350.239Y-70.055
X350.239Y-75.135
X353.757Y-59.68
X353.757Y-64.76
X353.773Y-70.055
X353.773Y-75.135
X357.306Y-70.055
X357.306Y-75.135
X360.84Y-70.055
X360.84Y-75.135
X364.374Y-70.055
X364.374Y-75.135
X367.908Y-70.055
X367.908Y-75.135
T6
X217.595Y-59.525
X220.135Y-59.525
T7
X371.918Y-64.88
X371.918Y-67.42
X371.918Y-69.96
X371.918Y-72.5
X372.785Y-84.892
X372.785Y-99.392
X375.285Y-84.892
X377.785Y-84.892
X377.785Y-99.392
T8
X183.608Y-57.696
X183.608Y-60.236
X186.148Y-57.696
X186.148Y-60.236
X188.688Y-57.696
X188.688Y-60.236
T9
X158.285Y-57.29
X158.285Y-61.79
X164.785Y-57.29
X164.785Y-61.79
X171.023Y-57.315
X171.023Y-61.815
X177.523Y-57.315
X177.523Y-61.815
T10
X42.862Y-89.852
X42.862Y-113.665
X45.244Y-151.765
X45.244Y-170.815
X45.244Y-189.865
X47.625Y-132.715
X47.625Y-189.865
X49.212Y-87.312
X49.212Y-111.125
X50.006Y-151.765
X51.594Y-149.225
X51.594Y-168.275
X51.594Y-187.325
X53.975Y-130.175
X53.975Y-187.325
X54.769Y-170.815
X56.356Y-149.225
X61.119Y-168.275
X61.912Y-113.665
X66.675Y-170.815
X68.263Y-111.125
X69.056Y-189.865
X71.438Y-132.715
X71.438Y-189.865
X73.025Y-168.275
X75.406Y-187.325
X76.2Y-151.765
X77.787Y-130.175
X77.787Y-187.325
X80.962Y-89.852
X80.962Y-113.665
X82.55Y-149.225
X85.725Y-170.815
X87.312Y-87.312
X87.312Y-111.125
X90.487Y-132.715
X92.075Y-168.275
X92.869Y-189.865
X95.25Y-151.765
X95.25Y-189.865
X96.837Y-130.175
X99.219Y-187.325
X100.012Y-89.852
X100.012Y-113.665
X101.6Y-149.225
X101.6Y-187.325
X104.775Y-170.815
X106.362Y-87.312
X106.362Y-111.125
X109.537Y-132.715
X111.125Y-168.275
X114.3Y-151.765
X115.887Y-130.175
X119.062Y-89.852
X119.062Y-113.665
X120.65Y-149.225
X123.825Y-170.815
X125.412Y-87.312
X125.412Y-111.125
X128.588Y-132.715
X130.175Y-168.275
X133.35Y-151.765
X134.938Y-130.175
X138.112Y-89.852
X138.112Y-113.665
X139.7Y-149.225
X142.875Y-170.815
X144.463Y-87.312
X144.463Y-111.125
X147.637Y-132.715
X149.225Y-168.275
X152.4Y-151.765
X153.987Y-130.175
X157.162Y-113.665
X158.75Y-149.225
X161.925Y-170.815
X163.512Y-111.125
X164.306Y-189.865
X166.688Y-89.852
X166.688Y-132.715
X168.275Y-168.275
X170.656Y-187.325
X171.45Y-151.765
X173.037Y-87.312
X173.037Y-130.175
X176.213Y-113.665
X176.213Y-189.865
X177.8Y-149.225
X180.975Y-170.815
X182.562Y-111.125
X182.562Y-187.325
X185.737Y-89.852
X185.737Y-132.715
X187.325Y-168.275
X190.5Y-151.765
X192.087Y-87.312
X192.087Y-130.175
X195.262Y-113.665
X196.85Y-149.225
X200.025Y-170.815
X201.612Y-111.125
X204.787Y-89.852
X204.787Y-132.715
X206.375Y-168.275
X209.55Y-151.765
X211.137Y-87.312
X211.137Y-130.175
X214.312Y-113.665
X215.9Y-149.225
X219.075Y-170.815
X220.662Y-111.125
X223.837Y-89.852
X223.837Y-132.715
X225.425Y-168.275
X228.6Y-151.765
X230.188Y-87.312
X230.188Y-130.175
X233.362Y-113.665
X234.95Y-149.225
X235.744Y-189.865
X238.125Y-170.815
X239.712Y-111.125
X242.094Y-187.325
X242.887Y-132.715
X244.475Y-168.275
X247.65Y-151.765
X249.237Y-130.175
X252.412Y-89.852
X252.412Y-113.665
X254.0Y-149.225
X257.175Y-170.815
X257.175Y-189.865
X258.762Y-87.312
X258.762Y-111.125
X259.556Y-189.865
X261.938Y-132.715
X263.525Y-168.275
X263.525Y-187.325
X265.906Y-187.325
X266.7Y-151.765
X268.287Y-130.175
X271.462Y-89.852
X271.462Y-113.665
X273.05Y-149.225
X277.812Y-87.312
X277.812Y-111.125
X280.988Y-132.715
X280.988Y-189.865
X283.369Y-170.815
X283.369Y-189.865
X285.75Y-151.765
X287.337Y-130.175
X287.337Y-187.325
X289.719Y-168.275
X289.719Y-187.325
X290.512Y-89.852
X290.512Y-113.665
X292.1Y-149.225
X292.894Y-170.821
X296.863Y-87.312
X296.863Y-111.125
X297.656Y-151.765
X299.244Y-168.281
X300.037Y-113.665
X304.006Y-149.225
X304.8Y-132.715
X304.8Y-189.865
X306.387Y-111.125
X307.181Y-189.865
X307.182Y-142.24
X309.562Y-89.852
X309.562Y-113.665
X309.562Y-170.815
X311.15Y-130.175
X311.15Y-187.325
X313.531Y-187.325
X313.532Y-139.7
X315.912Y-87.312
X315.912Y-111.125
X315.912Y-168.275
X333.375Y-89.852
X333.375Y-113.665
X333.375Y-132.715
X333.375Y-189.865
X339.725Y-87.312
X339.725Y-111.125
X339.725Y-130.175
X339.725Y-187.325
X352.425Y-89.852
X352.425Y-113.665
X352.425Y-132.715
X352.425Y-170.815
X352.425Y-189.865
X358.775Y-87.312
X358.775Y-111.125
X358.775Y-130.175
X358.775Y-168.275
X358.775Y-187.325
X371.475Y-89.852
X371.475Y-113.665
X371.475Y-132.715
X371.475Y-189.865
X377.825Y-87.312
X377.825Y-111.125
X377.825Y-130.175
X377.825Y-187.325
T11
X41.148Y-59.313
X41.148Y-78.063
X79.999Y-182.037
X86.36Y-104.153
X134.734Y-59.313
X134.734Y-78.063
X211.016Y-104.153
X211.016Y-192.164
X287.223Y-59.313
X287.223Y-78.063
X335.597Y-104.153
X365.758Y-182.016
X380.81Y-59.313
X380.81Y-78.063
T3
G00X206.691Y-59.938
M15
G01X206.691Y-59.138
M16
G05
G00X206.691Y-63.668
M15
G01X206.691Y-62.168
M16
G05
G00X215.341Y-59.938
M15
G01X215.341Y-59.138
M16
G05
G00X215.341Y-63.668
M15
G01X215.341Y-62.168
M16
G05
T7
G00X52.948Y-67.38
M15
G01X52.948Y-67.88
M16
G05
G00X57.148Y-58.88
M15
G01X57.148Y-59.38
M16
G05
G00X57.148Y-61.88
M15
G01X57.148Y-62.38
M16
G05
G00X57.148Y-65.88
M15
G01X57.148Y-66.38
M16
G05
G00X364.81Y-67.38
M15
G01X364.81Y-67.88
M16
G05
G00X369.01Y-58.88
M15
G01X369.01Y-59.38
M16
G05
G00X369.01Y-61.88
M15
G01X369.01Y-62.38
M16
G05
G00X369.01Y-65.88
M15
G01X369.01Y-66.38
M16
G05
T10
G00X369.685Y-91.742
M15
G01X369.685Y-93.042
M16
G05
G00X380.885Y-91.742
M15
G01X380.885Y-93.042
M16
G05
T0
M30
