<?xml version="1.0" encoding="UTF-8" standalone="no"?>
<svg
   xmlns:dc="http://purl.org/dc/elements/1.1/"
   xmlns:cc="http://creativecommons.org/ns#"
   xmlns:rdf="http://www.w3.org/1999/02/22-rdf-syntax-ns#"
   xmlns:svg="http://www.w3.org/2000/svg"
   xmlns="http://www.w3.org/2000/svg"
   xmlns:sodipodi="http://sodipodi.sourceforge.net/DTD/sodipodi-0.dtd"
   xmlns:inkscape="http://www.inkscape.org/namespaces/inkscape"
   inkscape:version="1.0 (4035a4f, 2020-05-01)"
   sodipodi:docname="keyboard mini top side cover.svg"
   id="svg869"
   version="1.1"
   height="101.36946"
   width="385.35992">
  <metadata
     id="metadata873">
    <rdf:RDF>
      <cc:Work
         rdf:about="">
        <dc:format>image/svg+xml</dc:format>
        <dc:type
           rdf:resource="http://purl.org/dc/dcmitype/StillImage" />
        <dc:title />
      </cc:Work>
    </rdf:RDF>
  </metadata>
  <sodipodi:namedview
     inkscape:document-rotation="0"
     fit-margin-bottom="0"
     fit-margin-right="0"
     fit-margin-left="0"
     fit-margin-top="0"
     inkscape:object-paths="true"
     inkscape:snap-intersection-paths="true"
     inkscape:snap-bbox-midpoints="true"
     inkscape:snap-bbox-edge-midpoints="true"
     inkscape:bbox-nodes="true"
     inkscape:bbox-paths="true"
     inkscape:snap-bbox="true"
     inkscape:current-layer="g867"
     inkscape:window-maximized="1"
     inkscape:window-y="0"
     inkscape:window-x="0"
     inkscape:cy="-27.991889"
     inkscape:cx="269.20705"
     inkscape:zoom="2.0044192"
     showgrid="false"
     id="namedview871"
     inkscape:window-height="878"
     inkscape:window-width="1440"
     inkscape:pageshadow="2"
     inkscape:pageopacity="0"
     guidetolerance="10"
     gridtolerance="10"
     objecttolerance="10"
     borderopacity="1"
     bordercolor="#666666"
     pagecolor="#ffffff" />
  <desc
     id="desc815">Z:\chrome\mysterium-master (1)\mysterium-master\mysterium-acrylic-guard.dxf - scale = 1.000000, origin = (0.000000, 0.000000), method = file</desc>
  <defs
     id="defs863">
    <marker
       style="overflow:visible"
       refY="0"
       refX="0"
       orient="auto"
       id="DistanceX">
      <path
         inkscape:connector-curvature="0"
         id="path817"
         style="stroke:#000000;stroke-width:0.5"
         d="M 3,-3 -3,3 M 0,-5 V 5" />
    </marker>
    <pattern
       y="0"
       x="0"
       width="8"
       patternUnits="userSpaceOnUse"
       id="Hatch"
       height="8">
      <path
         id="path820"
         stroke-width="0.25"
         stroke="#000000"
         linecap="square"
         d="M8 4 l-4,4" />
      <path
         id="path822"
         stroke-width="0.25"
         stroke="#000000"
         linecap="square"
         d="M6 2 l-4,4" />
      <path
         id="path824"
         stroke-width="0.25"
         stroke="#000000"
         linecap="square"
         d="M4 0 l-4,4" />
    </pattern>
    <symbol
       id="*Model_Space" />
    <symbol
       id="*Paper_Space" />
    <symbol
       id="*Paper_Space0" />
    <symbol
       id="PART__FEATURE">
      <path
         inkscape:connector-curvature="0"
         id="path830"
         style="fill:none;stroke:#000000"
         d="m 157.41959,1367.6727 a 4.1574805,4.1574805 0 1 0 -8.31496,0 4.1574805,4.1574805 0 1 0 8.31496,0 z" />
      <path
         inkscape:connector-curvature="0"
         id="path832"
         style="fill:none;stroke:#000000"
         d="m 511.13348,1367.6727 a 4.15748,4.15748 0 1 0 -8.31496,0 4.15748,4.15748 0 1 0 8.31496,0 z" />
      <path
         inkscape:connector-curvature="0"
         id="path834"
         style="fill:none;stroke:#000000"
         d="m 1087.4695,1367.6727 a 4.15748,4.15748 0 1 0 -8.315,0 4.15748,4.15748 0 1 0 8.315,0 z" />
      <path
         inkscape:connector-curvature="0"
         id="path836"
         style="fill:none;stroke:#000000"
         d="m 511.13348,1438.5388 a 4.15748,4.15748 0 1 0 -8.31496,0 4.15748,4.15748 0 1 0 8.31496,0 z" />
      <path
         inkscape:connector-curvature="0"
         id="path838"
         style="fill:none;stroke:#000000"
         d="m 157.41959,1438.5388 a 4.1574805,4.1574805 0 1 0 -8.31496,0 4.1574805,4.1574805 0 1 0 8.31496,0 z" />
      <path
         inkscape:connector-curvature="0"
         id="path840"
         style="fill:none;stroke:#000000"
         d="m 1441.1834,1367.6727 a 4.1574805,4.1574805 0 1 0 -8.315,0 4.1574805,4.1574805 0 1 0 8.315,0 z" />
      <path
         inkscape:connector-curvature="0"
         id="path842"
         style="fill:none;stroke:#000000"
         d="m 1087.4695,1438.5388 a 4.15748,4.15748 0 1 0 -8.315,0 4.15748,4.15748 0 1 0 8.315,0 z" />
      <path
         inkscape:connector-curvature="0"
         id="path844"
         style="fill:none;stroke:#000000"
         d="m 1441.1834,1438.5388 a 4.1574805,4.1574805 0 1 0 -8.315,0 4.1574805,4.1574805 0 1 0 8.315,0 z" />
      <path
         inkscape:connector-curvature="0"
         id="path846"
         style="fill:none;stroke:#000000"
         d="m 138.144,1365.065 -0.003,76.1097" />
      <path
         inkscape:connector-curvature="0"
         id="path848"
         style="fill:none;stroke:#000000"
         d="M 150.63179,1352.5546 A 12.499126,12.499126 0 0 0 138.144,1365.065" />
      <path
         inkscape:connector-curvature="0"
         id="path850"
         style="fill:none;stroke:#000000"
         d="m 1439.6335,1352.5546 -1289.00171,0" />
      <path
         inkscape:connector-curvature="0"
         id="path852"
         style="fill:none;stroke:#000000"
         d="m 1452.144,1365.0424 a 12.499126,12.499126 0 0 0 -12.5105,-12.4878" />
      <path
         inkscape:connector-curvature="0"
         id="path854"
         style="fill:none;stroke:#000000"
         d="m 1452.1474,1441.1526 -0,-76.1102" />
      <path
         inkscape:connector-curvature="0"
         id="path856"
         style="fill:none;stroke:#000000"
         d="m 1439.6596,1453.6631 a 12.499126,12.499126 0 0 0 12.4878,-12.5105" />
      <path
         inkscape:connector-curvature="0"
         id="path858"
         style="fill:none;stroke:#000000"
         d="m 150.65146,1453.6625 1289.00814,6e-4" />
      <path
         inkscape:connector-curvature="0"
         id="path860"
         style="fill:none;stroke:#000000"
         d="m 138.141,1441.1747 a 12.499126,12.499126 0 0 0 12.51046,12.4878" />
    </symbol>
  </defs>
  <g
     transform="translate(198.93202,-297.51235)"
     id="g867"
     inkscape:label="0"
     inkscape:groupmode="layer">
    <g
       style="stroke:#ff0000;stroke-opacity:1"
       id="g1582">
      <path
         style="fill:none;stroke:#ff0000;stroke-width:1px;stroke-linecap:butt;stroke-linejoin:miter;stroke-opacity:1"
         d="m -198.39412,309.78434 -0.003,76.10969 c 0,0 0.11546,12.48778 12.51046,12.48778 12.39501,0 360.50083,0 360.50083,0"
         id="path1480"
         inkscape:connector-curvature="0" />
      <circle
         style="opacity:1;fill:none;fill-opacity:1;fill-rule:evenodd;stroke:#ff0000;stroke-width:3.70000005;stroke-linecap:round;stroke-linejoin:round;stroke-miterlimit:4;stroke-dasharray:none;stroke-dashoffset:0;stroke-opacity:1;paint-order:stroke fill markers"
         id="path1484"
         cx="-183.26604"
         cy="312.198"
         r="4.1450934" />
      <circle
         style="opacity:1;fill:none;fill-opacity:1;fill-rule:evenodd;stroke:#ff0000;stroke-width:3.70000005;stroke-linecap:round;stroke-linejoin:round;stroke-miterlimit:4;stroke-dasharray:none;stroke-dashoffset:0;stroke-opacity:1;paint-order:stroke fill markers"
         id="path1484-0"
         cx="-183.50359"
         cy="383.08417"
         r="4.1450934" />
      <circle
         style="opacity:1;fill:none;fill-opacity:1;fill-rule:evenodd;stroke:#ff0000;stroke-width:3.70000005;stroke-linecap:round;stroke-linejoin:round;stroke-miterlimit:4;stroke-dasharray:none;stroke-dashoffset:0;stroke-opacity:1;paint-order:stroke fill markers"
         id="path1484-4"
         cx="170.33786"
         cy="312.35754"
         r="4.1450934" />
      <circle
         style="opacity:1;fill:none;fill-opacity:1;fill-rule:evenodd;stroke:#ff0000;stroke-width:3.70000005;stroke-linecap:round;stroke-linejoin:round;stroke-miterlimit:4;stroke-dasharray:none;stroke-dashoffset:0;stroke-opacity:1;paint-order:stroke fill markers"
         id="path1484-4-1"
         cx="170.3898"
         cy="383.28195"
         r="4.1450934" />
      <path
         style="fill:none;stroke:#ff0000;stroke-width:1px;stroke-linecap:butt;stroke-linejoin:miter;stroke-opacity:1"
         d="m 185.89987,386.60982 0.003,-76.10969 c 0,0 -0.11546,-12.48778 -12.51046,-12.48778 -12.39501,0 -360.50083,0 -360.50083,0"
         id="path1480-0-6"
         inkscape:connector-curvature="0" />
      <path
         style="fill:none;stroke:#ff0000;stroke-width:1px;stroke-linecap:butt;stroke-linejoin:miter;stroke-opacity:1"
         d="m -198.39412,309.78434 c 0,0 -1.28783,-11.77199 11.2857,-11.77199"
         id="path1570"
         inkscape:connector-curvature="0" />
      <path
         style="fill:none;stroke:#ff0000;stroke-width:1px;stroke-linecap:butt;stroke-linejoin:miter;stroke-opacity:1"
         d="m 185.89987,386.60982 c 0,0 1.14067,11.77199 -11.2857,11.77199"
         id="path1572"
         inkscape:connector-curvature="0" />
    </g>
  </g>
</svg>
