%FSLAX45Y45*%
G04 Gerber Fmt 4.5, Leading zero omitted, Abs format (unit mm)*
G04 Created by KiCad (PCBNEW 5.1.10-88a1d61d58~90~ubuntu21.04.1) date 2021-08-16 11:56:16*
%MOMM*%
%LPD*%
G01*
G04 APERTURE LIST*
%TA.AperFunction,Profile*%
%ADD10C,0.200000*%
%TD*%
%TA.AperFunction,Profile*%
%ADD11C,0.150000*%
%TD*%
%ADD12C,0.200000*%
%ADD13C,0.300000*%
G04 APERTURE END LIST*
D10*
X28357830Y-14730730D02*
X30300955Y-14730730D01*
X28257830Y-14830730D02*
G75*
G02*
X28357830Y-14730730I100000J0D01*
G01*
X30300955Y-14225730D02*
G75*
G02*
X30400955Y-14325730I0J-100000D01*
G01*
X30162830Y-12925730D02*
X30162830Y-14125730D01*
X30162830Y-12925730D02*
G75*
G02*
X30262830Y-12825730I100000J0D01*
G01*
X28357830Y-16130730D02*
G75*
G02*
X28257830Y-16030730I0J100000D01*
G01*
X28704655Y-16330730D02*
G75*
G02*
X28604655Y-16230730I0J100000D01*
G01*
X30262830Y-14225730D02*
G75*
G02*
X30162830Y-14125730I0J100000D01*
G01*
X28504655Y-16130730D02*
G75*
G02*
X28604655Y-16230730I0J-100000D01*
G01*
X30262830Y-12825730D02*
X31462830Y-12825730D01*
X31462830Y-12825730D02*
G75*
G02*
X31552914Y-12882314I0J-100000D01*
G01*
X28704655Y-16330730D02*
X29205149Y-16330599D01*
X31092750Y-16330599D02*
X31601000Y-16330599D01*
X31700955Y-15251435D02*
G75*
G02*
X31750955Y-15164833I100000J0D01*
G01*
X30300955Y-14225730D02*
X30262830Y-14225730D01*
X31621976Y-12936664D02*
G75*
G02*
X31552914Y-12882314I21021J97766D01*
G01*
X29405149Y-16130599D02*
X30892750Y-16130599D01*
X31700955Y-16230730D02*
G75*
G02*
X31600955Y-16330730I-100000J0D01*
G01*
X28357830Y-16130730D02*
X28504655Y-16130730D01*
X31621976Y-12936664D02*
G75*
G02*
X31700955Y-13034430I-21021J-97766D01*
G01*
X31750955Y-13791628D02*
G75*
G02*
X31800955Y-13878230I-50000J-86603D01*
G01*
X31700955Y-13034430D02*
X31700955Y-13705025D01*
X28604655Y-16230730D02*
X28604655Y-16230730D01*
X28257830Y-14830730D02*
X28257830Y-16030730D01*
X31700955Y-16230730D02*
X31700955Y-15251435D01*
X30892750Y-16130599D02*
G75*
G02*
X30992750Y-16230599I0J-100000D01*
G01*
X31800955Y-15078230D02*
G75*
G02*
X31750955Y-15164833I-100000J0D01*
G01*
X31092750Y-16330599D02*
G75*
G02*
X30992750Y-16230599I0J100000D01*
G01*
X31800955Y-13878230D02*
X31800955Y-15078230D01*
X29305149Y-16230599D02*
G75*
G02*
X29405149Y-16130599I100000J0D01*
G01*
X29305149Y-16230599D02*
G75*
G02*
X29205149Y-16330599I-100000J0D01*
G01*
X30400955Y-14630730D02*
G75*
G02*
X30300955Y-14730730I-100000J0D01*
G01*
X30400955Y-14630730D02*
X30400955Y-14325730D01*
X31750955Y-13791627D02*
G75*
G02*
X31700955Y-13705025I50000J86603D01*
G01*
X4262825Y-18022162D02*
G75*
G02*
X4208475Y-17933190I45650J88972D01*
G01*
X4417175Y-18233190D02*
G75*
G02*
X4317175Y-18133190I0J100000D01*
G01*
X7504775Y-18033190D02*
X7651600Y-18033190D01*
X6804775Y-18233190D02*
X7304775Y-18233190D01*
X7404775Y-18133190D02*
X7404775Y-18133190D01*
X7651600Y-16633190D02*
G75*
G02*
X7751600Y-16733190I0J-100000D01*
G01*
X5117175Y-18033190D02*
X6604775Y-18033190D01*
X7404775Y-18133190D02*
G75*
G02*
X7504775Y-18033190I100000J0D01*
G01*
X7404775Y-18133190D02*
G75*
G02*
X7304775Y-18233190I-100000J0D01*
G01*
X4208475Y-16733190D02*
G75*
G02*
X4308475Y-16633190I100000J0D01*
G01*
X5017175Y-18133190D02*
X5017175Y-18133190D01*
X7751600Y-16733190D02*
X7751600Y-17933190D01*
X4262825Y-18022162D02*
G75*
G02*
X4317175Y-18111135I-45650J-88972D01*
G01*
X6704775Y-18133190D02*
X6704775Y-18133190D01*
X4208475Y-16733190D02*
X4208475Y-17933190D01*
X5017175Y-18133190D02*
G75*
G02*
X4917175Y-18233190I-100000J0D01*
G01*
X4417175Y-18233190D02*
X4917175Y-18233190D01*
X7751600Y-17933190D02*
G75*
G02*
X7651600Y-18033190I-100000J0D01*
G01*
X6804775Y-18233190D02*
G75*
G02*
X6704775Y-18133190I0J100000D01*
G01*
X4308475Y-16633190D02*
X7651600Y-16633190D01*
X5017175Y-18133190D02*
G75*
G02*
X5117175Y-18033190I100000J0D01*
G01*
X4317175Y-18133190D02*
X4317175Y-18111135D01*
X6604775Y-18033190D02*
G75*
G02*
X6704775Y-18133190I0J-100000D01*
G01*
X28828899Y-18135600D02*
G75*
G02*
X28928899Y-18035600I100000J0D01*
G01*
X31939701Y-16635599D02*
G75*
G02*
X32039701Y-16735599I0J-100000D01*
G01*
X30566495Y-16735599D02*
X30445905Y-16735599D01*
X30616500Y-18235600D02*
G75*
G02*
X30516500Y-18135600I0J100000D01*
G01*
X31316501Y-18035600D02*
X31939701Y-18035600D01*
X30616500Y-18235600D02*
X31116500Y-18235600D01*
X28228899Y-18235600D02*
G75*
G02*
X28128899Y-18135600I0J100000D01*
G01*
X32039701Y-17935600D02*
X32039701Y-16735599D01*
X30566495Y-16735599D02*
G75*
G03*
X30653097Y-16685599I0J100000D01*
G01*
X32039701Y-17935600D02*
G75*
G02*
X31939701Y-18035600I-100000J0D01*
G01*
X30653097Y-16685599D02*
G75*
G02*
X30739700Y-16635599I86603J-50000D01*
G01*
X28228899Y-18235600D02*
X28728899Y-18235600D01*
X30272700Y-16635599D02*
G75*
G02*
X30359302Y-16685599I0J-100000D01*
G01*
X28019699Y-16735599D02*
X28019699Y-17935600D01*
X30272700Y-16635599D02*
X28119699Y-16635599D01*
X30416500Y-18035600D02*
G75*
G02*
X30516500Y-18135600I0J-100000D01*
G01*
X28928899Y-18035600D02*
X30416500Y-18035600D01*
X28828899Y-18135600D02*
G75*
G02*
X28728899Y-18235600I-100000J0D01*
G01*
X31216500Y-18135600D02*
G75*
G02*
X31116500Y-18235600I-100000J0D01*
G01*
X28074650Y-18035893D02*
G75*
G02*
X28019699Y-17935600I64049J100293D01*
G01*
X30445905Y-16735599D02*
G75*
G02*
X30359302Y-16685599I0J100000D01*
G01*
X31939701Y-16635599D02*
X30739700Y-16635599D01*
X28019699Y-16735599D02*
G75*
G02*
X28119699Y-16635599I100000J0D01*
G01*
X28074711Y-18035798D02*
G75*
G02*
X28128899Y-18135600I-64812J-99802D01*
G01*
X31316501Y-18035600D02*
G75*
G03*
X31216500Y-18135600I0J-100000D01*
G01*
X31930876Y-12420597D02*
G75*
G02*
X31830876Y-12520597I-100000J0D01*
G01*
X31939075Y-10920596D02*
X28834075Y-10920596D01*
X28788924Y-12309568D02*
G75*
G02*
X28734574Y-12220596I45650J88972D01*
G01*
X31985224Y-12309569D02*
G75*
G03*
X31930874Y-12398541I45650J-88972D01*
G01*
X31330875Y-12520597D02*
X31830876Y-12520597D01*
X32039574Y-12220597D02*
X32039574Y-11020596D01*
X28843274Y-12398541D02*
X28843274Y-12420597D01*
X31985224Y-12309569D02*
G75*
G03*
X32039574Y-12220597I-45650J88972D01*
G01*
X28943274Y-12520597D02*
X29443274Y-12520597D01*
X31130875Y-12320597D02*
G75*
G02*
X31230875Y-12420597I0J-100000D01*
G01*
X29543275Y-12420597D02*
G75*
G02*
X29643275Y-12320597I100000J0D01*
G01*
X28734574Y-11020596D02*
G75*
G02*
X28834574Y-10920596I100000J0D01*
G01*
X29543275Y-12420597D02*
G75*
G02*
X29443274Y-12520597I-100000J0D01*
G01*
X29643275Y-12320597D02*
X31130875Y-12320597D01*
X28788924Y-12309568D02*
G75*
G02*
X28843274Y-12398541I-45650J-88972D01*
G01*
X31930874Y-12398541D02*
X31930876Y-12420597D01*
X31939574Y-10920596D02*
G75*
G02*
X32039574Y-11020596I0J-100000D01*
G01*
X31330875Y-12520597D02*
G75*
G02*
X31230875Y-12420597I0J100000D01*
G01*
X28734574Y-11020596D02*
X28734574Y-12220596D01*
X28943274Y-12520597D02*
G75*
G02*
X28843274Y-12420597I0J100000D01*
G01*
X23357696Y-19940601D02*
G75*
G02*
X23257696Y-19840601I0J100000D01*
G01*
X23369571Y-18440600D02*
G75*
G02*
X23469571Y-18340600I100000J0D01*
G01*
X24657697Y-19840601D02*
G75*
G02*
X24557697Y-19940601I-100000J0D01*
G01*
X23369571Y-18440600D02*
X23369571Y-18461062D01*
X23369571Y-18461062D02*
G75*
G02*
X23313634Y-18550831I-100000J0D01*
G01*
X23357696Y-19940601D02*
X24557697Y-19940601D01*
X24657697Y-19840601D02*
X24657697Y-18640600D01*
X24557697Y-18540600D02*
X24169572Y-18540600D01*
X24557697Y-18540600D02*
G75*
G02*
X24657697Y-18640600I0J-100000D01*
G01*
X23969571Y-18340600D02*
G75*
G02*
X24069572Y-18440600I0J-100000D01*
G01*
X24169572Y-18540600D02*
G75*
G02*
X24069572Y-18440600I0J100000D01*
G01*
X23257696Y-18640600D02*
X23257696Y-19840601D01*
X23257696Y-18640600D02*
G75*
G02*
X23313634Y-18550831I100000J0D01*
G01*
X23969571Y-18340600D02*
X23469571Y-18340600D01*
X22543321Y-14830598D02*
X22543321Y-16030599D01*
X21463945Y-18440600D02*
G75*
G02*
X21563945Y-18340600I100000J0D01*
G01*
X14547066Y-14225598D02*
X15747067Y-14225598D01*
X22167071Y-9939346D02*
X23367071Y-9939346D01*
X6827062Y-12925597D02*
X6827062Y-14125598D01*
X18228318Y-16030599D02*
G75*
G02*
X18128318Y-16130599I-100000J0D01*
G01*
X21562070Y-14125598D02*
G75*
G02*
X21462070Y-14225598I-100000J0D01*
G01*
X22167071Y-14225598D02*
X23367071Y-14225598D01*
X17880818Y-18035600D02*
X19080819Y-18035600D01*
X22890821Y-16635599D02*
X21690820Y-16635599D01*
X11563940Y-19840601D02*
X12539565Y-19840601D01*
X4307686Y-19940601D02*
X5745812Y-19940601D01*
X29182074Y-14125598D02*
G75*
G02*
X29082074Y-14225598I-100000J0D01*
G01*
X25977073Y-14225598D02*
G75*
G02*
X25877073Y-14125598I0J100000D01*
G01*
X19657069Y-14125598D02*
G75*
G02*
X19557069Y-14225598I-100000J0D01*
G01*
X25400822Y-18640600D02*
X25400822Y-19840601D01*
X35025828Y-19940601D02*
X36225828Y-19940601D01*
X9070189Y-19940601D02*
G75*
G02*
X8970188Y-19840601I0J100000D01*
G01*
X25977073Y-14225598D02*
X27177073Y-14225598D01*
X13970816Y-16735599D02*
X13970816Y-17935600D01*
X14923317Y-14830598D02*
X14923317Y-16030599D01*
X23119571Y-12320597D02*
X24319572Y-12320597D01*
X36325828Y-12220597D02*
G75*
G02*
X36225828Y-12320597I-100000J0D01*
G01*
X20609570Y-12220597D02*
G75*
G02*
X20509570Y-12320597I-100000J0D01*
G01*
X33020826Y-8639345D02*
X33020826Y-9839346D01*
X24419572Y-12220597D02*
G75*
G02*
X24319572Y-12320597I-100000J0D01*
G01*
X24895822Y-17935600D02*
G75*
G02*
X24795822Y-18035600I-100000J0D01*
G01*
X16799568Y-12220597D02*
G75*
G02*
X16699568Y-12320597I-100000J0D01*
G01*
X36325828Y-12220597D02*
X36325828Y-11020596D01*
X20162070Y-12925597D02*
X20162070Y-14125598D01*
X38230829Y-9839346D02*
G75*
G02*
X38130829Y-9939346I-100000J0D01*
G01*
X8832063Y-14225598D02*
G75*
G02*
X8732063Y-14125598I0J100000D01*
G01*
X24072072Y-14225598D02*
X25272072Y-14225598D01*
X11460815Y-16635599D02*
X10260814Y-16635599D01*
X35025828Y-14225598D02*
G75*
G02*
X34925828Y-14125598I0J100000D01*
G01*
X19309569Y-12320597D02*
X20509570Y-12320597D01*
X27277073Y-14125598D02*
G75*
G02*
X27177073Y-14225598I-100000J0D01*
G01*
X26324573Y-12220597D02*
G75*
G02*
X26224573Y-12320597I-100000J0D01*
G01*
X26929573Y-12320597D02*
G75*
G02*
X26829573Y-12220597I0J100000D01*
G01*
X10260814Y-18035600D02*
G75*
G02*
X10160814Y-17935600I0J100000D01*
G01*
X35025828Y-18035600D02*
X36225828Y-18035600D01*
X9555814Y-16635599D02*
X8355813Y-16635599D01*
X36830829Y-12925597D02*
X36830829Y-14125598D01*
X4307686Y-16130599D02*
X5983937Y-16130599D01*
X10160814Y-16735599D02*
G75*
G02*
X10260814Y-16635599I100000J0D01*
G01*
X5974562Y-12320597D02*
G75*
G02*
X5874562Y-12220597I0J100000D01*
G01*
X34925828Y-12925597D02*
X34925828Y-14125598D01*
X10608314Y-16030599D02*
X10608314Y-14830598D01*
X35025828Y-12320597D02*
X36225828Y-12320597D01*
X38230829Y-12220597D02*
G75*
G02*
X38130829Y-12320597I-100000J0D01*
G01*
X17275818Y-17935600D02*
G75*
G02*
X17175818Y-18035600I-100000J0D01*
G01*
X35025828Y-19940601D02*
G75*
G02*
X34925828Y-19840601I0J100000D01*
G01*
X14547066Y-14225598D02*
G75*
G02*
X14447066Y-14125598I0J100000D01*
G01*
X21590820Y-16735599D02*
G75*
G02*
X21690820Y-16635599I100000J0D01*
G01*
X33120826Y-19940601D02*
G75*
G02*
X33020826Y-19840601I0J100000D01*
G01*
X17752068Y-9839346D02*
G75*
G02*
X17652068Y-9939346I-100000J0D01*
G01*
X32039576Y-9839346D02*
G75*
G02*
X31939576Y-9939346I-100000J0D01*
G01*
X4545811Y-14225598D02*
G75*
G02*
X4445811Y-14125598I0J100000D01*
G01*
X16452067Y-14225598D02*
G75*
G02*
X16352067Y-14125598I0J100000D01*
G01*
X25500822Y-18035600D02*
X26700823Y-18035600D01*
X6827062Y-12925597D02*
G75*
G02*
X6927062Y-12825597I100000J0D01*
G01*
X6083937Y-16030599D02*
G75*
G02*
X5983937Y-16130599I-100000J0D01*
G01*
X16213942Y-19940601D02*
G75*
G02*
X16113942Y-19840601I0J100000D01*
G01*
X16352067Y-8639345D02*
X16352067Y-9839346D01*
X23495821Y-16735599D02*
X23495821Y-17935600D01*
X6688937Y-19940601D02*
X8127063Y-19940601D01*
X28734574Y-8639345D02*
G75*
G02*
X28834574Y-8539345I100000J0D01*
G01*
X36930829Y-14225598D02*
G75*
G02*
X36830829Y-14125598I0J100000D01*
G01*
X12065815Y-16735599D02*
X12065815Y-17935600D01*
X36930829Y-9939346D02*
X38130829Y-9939346D01*
X29420199Y-19840601D02*
G75*
G02*
X29320199Y-19940601I-100000J0D01*
G01*
X13594566Y-9939346D02*
X14794567Y-9939346D01*
X12889566Y-10920596D02*
X11689565Y-10920596D01*
X19209569Y-11020596D02*
X19209569Y-12220597D01*
X23595821Y-18035600D02*
G75*
G02*
X23495821Y-17935600I0J100000D01*
G01*
X4069561Y-12320597D02*
X5269561Y-12320597D01*
X19657069Y-9839346D02*
G75*
G02*
X19557069Y-9939346I-100000J0D01*
G01*
X28229574Y-9839346D02*
X28229574Y-8639345D01*
X34420827Y-12220597D02*
G75*
G02*
X34320827Y-12320597I-100000J0D01*
G01*
X26353323Y-14830598D02*
X26353323Y-16030599D01*
X11113315Y-14830598D02*
X11113315Y-16030599D01*
X23119571Y-12320597D02*
G75*
G02*
X23019571Y-12220597I0J100000D01*
G01*
X5845812Y-14125598D02*
X5845812Y-12925597D01*
X36325828Y-9839346D02*
X36325828Y-8639345D01*
X9784564Y-9939346D02*
G75*
G02*
X9684564Y-9839346I0J100000D01*
G01*
X20262070Y-9939346D02*
X21462070Y-9939346D01*
X7403313Y-16130599D02*
X8603313Y-16130599D01*
X38230829Y-19840601D02*
G75*
G02*
X38130829Y-19940601I-100000J0D01*
G01*
X23943321Y-16030599D02*
G75*
G02*
X23843321Y-16130599I-100000J0D01*
G01*
X10608314Y-19840601D02*
G75*
G02*
X10508314Y-19940601I-100000J0D01*
G01*
X31801451Y-19840601D02*
G75*
G02*
X31701451Y-19940601I-100000J0D01*
G01*
X12165815Y-18035600D02*
G75*
G02*
X12065815Y-17935600I0J100000D01*
G01*
X13118316Y-16130599D02*
X14318316Y-16130599D01*
X30034575Y-8539345D02*
X28834574Y-8539345D01*
X18833319Y-16130599D02*
X20033319Y-16130599D01*
X15023317Y-16130599D02*
G75*
G02*
X14923317Y-16030599I0J100000D01*
G01*
X22167071Y-9939346D02*
G75*
G02*
X22067071Y-9839346I0J100000D01*
G01*
X8732063Y-12925597D02*
X8732063Y-14125598D01*
X11589565Y-11020596D02*
X11589565Y-12220597D01*
X15499567Y-12320597D02*
G75*
G02*
X15399567Y-12220597I0J100000D01*
G01*
X7403313Y-16130599D02*
G75*
G02*
X7303312Y-16030599I0J100000D01*
G01*
X9070189Y-19940601D02*
X10508314Y-19940601D01*
X11689565Y-9939346D02*
X12889566Y-9939346D01*
X36930829Y-12320597D02*
X38130829Y-12320597D01*
X23972071Y-12925597D02*
X23972071Y-14125598D01*
X21590820Y-16735599D02*
X21590820Y-17935600D01*
X27882074Y-14225598D02*
X29082074Y-14225598D01*
X20262070Y-9939346D02*
G75*
G02*
X20162070Y-9839346I0J100000D01*
G01*
X35025828Y-9939346D02*
X36225828Y-9939346D01*
X8703313Y-16030599D02*
G75*
G02*
X8603313Y-16130599I-100000J0D01*
G01*
X13118316Y-16130599D02*
G75*
G02*
X13018316Y-16030599I0J100000D01*
G01*
X36830829Y-11020596D02*
X36830829Y-12220597D01*
X19785819Y-18035600D02*
X20985820Y-18035600D01*
X36325828Y-19840601D02*
G75*
G02*
X36225828Y-19940601I-100000J0D01*
G01*
X25024572Y-12320597D02*
X26224573Y-12320597D01*
X36325828Y-17935600D02*
G75*
G02*
X36225828Y-18035600I-100000J0D01*
G01*
X21562070Y-9839346D02*
G75*
G02*
X21462070Y-9939346I-100000J0D01*
G01*
X36225828Y-18540600D02*
G75*
G02*
X36325828Y-18640600I0J-100000D01*
G01*
X22167071Y-14225598D02*
G75*
G02*
X22067071Y-14125598I0J100000D01*
G01*
X25024572Y-9939346D02*
X26224573Y-9939346D01*
X36325828Y-19840601D02*
X36325828Y-18640600D01*
X22514571Y-12220597D02*
G75*
G02*
X22414571Y-12320597I-100000J0D01*
G01*
X16928318Y-16130599D02*
X18128318Y-16130599D01*
X4545811Y-14225598D02*
X5745812Y-14225598D01*
X36930829Y-12320597D02*
G75*
G02*
X36830829Y-12220597I0J100000D01*
G01*
X10737064Y-14225598D02*
X11937065Y-14225598D01*
X7779563Y-11020596D02*
X7779563Y-12220597D01*
X16452067Y-14225598D02*
X17652068Y-14225598D01*
X5874562Y-11020596D02*
X5874562Y-12220597D01*
X23595821Y-18035600D02*
X24795822Y-18035600D01*
X20262070Y-14225598D02*
X21462070Y-14225598D01*
X10160814Y-16735599D02*
X10160814Y-17935600D01*
X16223317Y-14730598D02*
X15023317Y-14730598D01*
X22643321Y-16130599D02*
X23843321Y-16130599D01*
X17404568Y-12320597D02*
G75*
G02*
X17304568Y-12220597I0J100000D01*
G01*
X26829573Y-11020596D02*
X26829573Y-12220597D01*
X24548322Y-16130599D02*
X25748322Y-16130599D01*
X5845812Y-19840601D02*
G75*
G02*
X5745812Y-19940601I-100000J0D01*
G01*
X35025828Y-12320597D02*
G75*
G02*
X34925828Y-12220597I0J100000D01*
G01*
X30263325Y-19940601D02*
G75*
G02*
X30163325Y-19840601I0J100000D01*
G01*
X28229574Y-9839346D02*
G75*
G02*
X28129574Y-9939346I-100000J0D01*
G01*
X38230829Y-14125598D02*
G75*
G02*
X38130829Y-14225598I-100000J0D01*
G01*
X17780818Y-16735599D02*
X17780818Y-17935600D01*
X20738320Y-16130599D02*
G75*
G02*
X20638320Y-16030599I0J100000D01*
G01*
X8832063Y-14225598D02*
X10032064Y-14225598D01*
X12513315Y-16030599D02*
G75*
G02*
X12413315Y-16130599I-100000J0D01*
G01*
X36325828Y-9839346D02*
G75*
G02*
X36225828Y-9939346I-100000J0D01*
G01*
X26324573Y-9839346D02*
G75*
G02*
X26224573Y-9939346I-100000J0D01*
G01*
X33120826Y-9939346D02*
G75*
G02*
X33020826Y-9839346I0J100000D01*
G01*
X4069561Y-9939346D02*
X5269561Y-9939346D01*
X16928318Y-16130599D02*
G75*
G02*
X16828318Y-16030599I0J100000D01*
G01*
X25848322Y-16030599D02*
G75*
G02*
X25748322Y-16130599I-100000J0D01*
G01*
X34420827Y-9839346D02*
G75*
G02*
X34320827Y-9939346I-100000J0D01*
G01*
X24924572Y-11020596D02*
X24924572Y-12220597D01*
X25400822Y-16735599D02*
X25400822Y-17935600D01*
X3969561Y-11020596D02*
X3969561Y-12220597D01*
X10132064Y-14125598D02*
G75*
G02*
X10032064Y-14225598I-100000J0D01*
G01*
X9079564Y-10920596D02*
X7879563Y-10920596D01*
X33120826Y-12320597D02*
G75*
G02*
X33020826Y-12220597I0J100000D01*
G01*
X12642065Y-14225598D02*
G75*
G02*
X12542065Y-14125598I0J100000D01*
G01*
X21214570Y-12320597D02*
G75*
G02*
X21114570Y-12220597I0J100000D01*
G01*
X16828318Y-14830598D02*
X16828318Y-16030599D01*
X11084565Y-12220597D02*
G75*
G02*
X10984565Y-12320597I-100000J0D01*
G01*
X17275818Y-17935600D02*
X17275818Y-16735599D01*
X24795822Y-16635599D02*
X23595821Y-16635599D01*
X23495821Y-16735599D02*
G75*
G02*
X23595821Y-16635599I100000J0D01*
G01*
X13465816Y-17935600D02*
X13465816Y-16735599D01*
X13365816Y-16635599D02*
G75*
G02*
X13465816Y-16735599I0J-100000D01*
G01*
X13365816Y-16635599D02*
X12165815Y-16635599D01*
X12065815Y-16735599D02*
G75*
G02*
X12165815Y-16635599I100000J0D01*
G01*
X8127063Y-18540600D02*
X6688937Y-18540600D01*
X18357069Y-14225598D02*
X19557069Y-14225598D01*
X38130829Y-18540600D02*
X36930829Y-18540600D01*
X22990821Y-17935600D02*
G75*
G02*
X22890821Y-18035600I-100000J0D01*
G01*
X22990821Y-17935600D02*
X22990821Y-16735599D01*
X21563945Y-19840601D02*
G75*
G02*
X21463945Y-19740601I0J100000D01*
G01*
X21563945Y-19840601D02*
X22063946Y-19840601D01*
X22163946Y-19740601D02*
G75*
G02*
X22063946Y-19840601I-100000J0D01*
G01*
X22890821Y-16635599D02*
G75*
G02*
X22990821Y-16735599I0J-100000D01*
G01*
X36325828Y-17935600D02*
X36325828Y-16735599D01*
X36225828Y-16635599D02*
G75*
G02*
X36325828Y-16735599I0J-100000D01*
G01*
X36225828Y-16635599D02*
X35025828Y-16635599D01*
X34925828Y-16735599D02*
G75*
G02*
X35025828Y-16635599I100000J0D01*
G01*
X21463945Y-18440600D02*
X21463945Y-19740601D01*
X22643321Y-16130599D02*
G75*
G02*
X22543321Y-16030599I0J100000D01*
G01*
X18604569Y-18540600D02*
X16213942Y-18540600D01*
X36930829Y-19940601D02*
X38130829Y-19940601D01*
X10508314Y-18540600D02*
G75*
G02*
X10608314Y-18640600I0J-100000D01*
G01*
X8127063Y-18540600D02*
G75*
G02*
X8227063Y-18640600I0J-100000D01*
G01*
X16113942Y-18640600D02*
X16113942Y-19840601D01*
X10508314Y-18540600D02*
X9070189Y-18540600D01*
X29420199Y-19840601D02*
X29420199Y-18640600D01*
X27782073Y-18640600D02*
G75*
G02*
X27882074Y-18540600I100000J0D01*
G01*
X6588937Y-18640600D02*
G75*
G02*
X6688937Y-18540600I100000J0D01*
G01*
X6588937Y-18640600D02*
X6588937Y-19840601D01*
X11563940Y-19840601D02*
G75*
G02*
X11463940Y-19740601I0J100000D01*
G01*
X29320199Y-18540600D02*
G75*
G02*
X29420199Y-18640600I0J-100000D01*
G01*
X11463940Y-18440600D02*
X11463940Y-19740601D01*
X12539565Y-18340600D02*
X11563940Y-18340600D01*
X33120826Y-14225598D02*
G75*
G02*
X33020826Y-14125598I0J100000D01*
G01*
X5845812Y-19840601D02*
X5845812Y-18640600D01*
X31801451Y-19840601D02*
X31801451Y-18640600D01*
X31701451Y-18540600D02*
G75*
G02*
X31801451Y-18640600I0J-100000D01*
G01*
X4207686Y-14830598D02*
G75*
G02*
X4307686Y-14730598I100000J0D01*
G01*
X5745812Y-18540600D02*
G75*
G02*
X5845812Y-18640600I0J-100000D01*
G01*
X5745812Y-18540600D02*
X4307686Y-18540600D01*
X36830828Y-18640600D02*
G75*
G02*
X36930829Y-18540600I100000J0D01*
G01*
X35025828Y-18035600D02*
G75*
G02*
X34925828Y-17935600I0J100000D01*
G01*
X4207686Y-18640600D02*
G75*
G02*
X4307686Y-18540600I100000J0D01*
G01*
X38230829Y-19840601D02*
X38230829Y-18640600D01*
X38130829Y-18540600D02*
G75*
G02*
X38230829Y-18640600I0J-100000D01*
G01*
X31701451Y-18540600D02*
X30263325Y-18540600D01*
X24072072Y-14225598D02*
G75*
G02*
X23972071Y-14125598I0J100000D01*
G01*
X30163325Y-18640600D02*
G75*
G02*
X30263325Y-18540600I100000J0D01*
G01*
X7779563Y-8639345D02*
X7779563Y-9839346D01*
X27782074Y-18640600D02*
X27782074Y-19840601D01*
X34320827Y-18540600D02*
G75*
G02*
X34420827Y-18640600I0J-100000D01*
G01*
X34320827Y-18540600D02*
X33120826Y-18540600D01*
X33020826Y-18640600D02*
G75*
G02*
X33120826Y-18540600I100000J0D01*
G01*
X6083937Y-16030599D02*
X6083937Y-14830598D01*
X5983937Y-14730598D02*
X4307686Y-14730598D01*
X8227063Y-19840601D02*
G75*
G02*
X8127063Y-19940601I-100000J0D01*
G01*
X30639575Y-8639345D02*
X30639575Y-9839346D01*
X36225828Y-18540600D02*
X35025828Y-18540600D01*
X8127063Y-12825597D02*
X6927062Y-12825597D01*
X25500822Y-19940601D02*
X26938948Y-19940601D01*
X26929573Y-9939346D02*
X28129574Y-9939346D01*
X27038948Y-19840601D02*
G75*
G02*
X26938948Y-19940601I-100000J0D01*
G01*
X27038948Y-19840601D02*
X27038948Y-18640600D01*
X26938948Y-18540600D02*
G75*
G02*
X27038948Y-18640600I0J-100000D01*
G01*
X34925827Y-18640600D02*
G75*
G02*
X35025828Y-18540600I100000J0D01*
G01*
X4069561Y-12320597D02*
G75*
G02*
X3969561Y-12220597I0J100000D01*
G01*
X13942066Y-14125598D02*
G75*
G02*
X13842066Y-14225598I-100000J0D01*
G01*
X4307686Y-16130599D02*
G75*
G02*
X4207686Y-16030599I0J100000D01*
G01*
X22038321Y-16030599D02*
X22038321Y-14830598D01*
X8355813Y-18035600D02*
G75*
G02*
X8255813Y-17935600I0J100000D01*
G01*
X20162070Y-8639345D02*
X20162070Y-9839346D01*
X13594566Y-12320597D02*
G75*
G02*
X13494566Y-12220597I0J100000D01*
G01*
X21085820Y-17935600D02*
G75*
G02*
X20985820Y-18035600I-100000J0D01*
G01*
X11213315Y-16130599D02*
G75*
G02*
X11113315Y-16030599I0J100000D01*
G01*
X10637064Y-12925597D02*
X10637064Y-14125598D01*
X12037065Y-14125598D02*
G75*
G02*
X11937065Y-14225598I-100000J0D01*
G01*
X18704569Y-19840601D02*
X18704569Y-18640600D01*
X13494566Y-11020596D02*
X13494566Y-12220597D01*
X3969561Y-8639345D02*
X3969561Y-9839346D01*
X14894567Y-9839346D02*
G75*
G02*
X14794567Y-9939346I-100000J0D01*
G01*
X30163325Y-18640600D02*
X30163325Y-19840601D01*
X17304568Y-11020596D02*
X17304568Y-12220597D01*
X9308314Y-16130599D02*
G75*
G02*
X9208314Y-16030599I0J100000D01*
G01*
X4207686Y-18640600D02*
X4207686Y-19840601D01*
X4207686Y-14830598D02*
X4207686Y-16030599D01*
X17404568Y-12320597D02*
X18604569Y-12320597D01*
X13594566Y-9939346D02*
G75*
G02*
X13494566Y-9839346I0J100000D01*
G01*
X33120826Y-12320597D02*
X34320827Y-12320597D01*
X5369562Y-9839346D02*
G75*
G02*
X5269561Y-9939346I-100000J0D01*
G01*
X18357069Y-14225598D02*
G75*
G02*
X18257069Y-14125598I0J100000D01*
G01*
X9684564Y-8639345D02*
X9684564Y-9839346D01*
X26929573Y-12320597D02*
X28129574Y-12320597D01*
X20738320Y-16130599D02*
X21938320Y-16130599D01*
X33020826Y-11020596D02*
X33020826Y-12220597D01*
X28834574Y-9939346D02*
G75*
G02*
X28734574Y-9839346I0J100000D01*
G01*
X22063946Y-18340600D02*
G75*
G02*
X22163946Y-18440600I0J-100000D01*
G01*
X21114570Y-11020596D02*
X21114570Y-12220597D01*
X23467071Y-9839346D02*
G75*
G02*
X23367071Y-9939346I-100000J0D01*
G01*
X30739575Y-9939346D02*
X31939576Y-9939346D01*
X25500822Y-19940601D02*
G75*
G02*
X25400822Y-19840601I0J100000D01*
G01*
X27882074Y-14225598D02*
G75*
G02*
X27782074Y-14125598I0J100000D01*
G01*
X9179564Y-9839346D02*
G75*
G02*
X9079564Y-9939346I-100000J0D01*
G01*
X9784564Y-9939346D02*
X10984565Y-9939346D01*
X5845812Y-14125598D02*
G75*
G02*
X5745812Y-14225598I-100000J0D01*
G01*
X34420827Y-19840601D02*
G75*
G02*
X34320827Y-19940601I-100000J0D01*
G01*
X34925828Y-18640600D02*
X34925828Y-19840601D01*
X11689565Y-12320597D02*
G75*
G02*
X11589565Y-12220597I0J100000D01*
G01*
X11213315Y-16130599D02*
X12413315Y-16130599D01*
X36325828Y-14125598D02*
G75*
G02*
X36225828Y-14225598I-100000J0D01*
G01*
X9784564Y-12320597D02*
G75*
G02*
X9684564Y-12220597I0J100000D01*
G01*
X14070816Y-18035600D02*
X15270817Y-18035600D01*
X9784564Y-12320597D02*
X10984565Y-12320597D01*
X13465816Y-17935600D02*
G75*
G02*
X13365816Y-18035600I-100000J0D01*
G01*
X11589565Y-8639345D02*
X11589565Y-9839346D01*
X11689565Y-9939346D02*
G75*
G02*
X11589565Y-9839346I0J100000D01*
G01*
X4069561Y-9939346D02*
G75*
G02*
X3969561Y-9839346I0J100000D01*
G01*
X33120826Y-9939346D02*
X34320827Y-9939346D01*
X8255813Y-16735599D02*
X8255813Y-17935600D01*
X16452067Y-9939346D02*
G75*
G02*
X16352067Y-9839346I0J100000D01*
G01*
X24924572Y-8639345D02*
X24924572Y-9839346D01*
X36930829Y-14225598D02*
X38130829Y-14225598D01*
X16213942Y-19940601D02*
X18604569Y-19940601D01*
X20133319Y-16030599D02*
G75*
G02*
X20033319Y-16130599I-100000J0D01*
G01*
X7274563Y-12220597D02*
G75*
G02*
X7174562Y-12320597I-100000J0D01*
G01*
X15875817Y-16735599D02*
X15875817Y-17935600D01*
X36830829Y-8639345D02*
X36830829Y-9839346D01*
X22063946Y-18340600D02*
X21563945Y-18340600D01*
X25024572Y-12320597D02*
G75*
G02*
X24924572Y-12220597I0J100000D01*
G01*
X25877073Y-12925597D02*
X25877073Y-14125598D01*
X19785819Y-18035600D02*
G75*
G02*
X19685819Y-17935600I0J100000D01*
G01*
X13594566Y-12320597D02*
X14794567Y-12320597D01*
X7879563Y-12320597D02*
G75*
G02*
X7779563Y-12220597I0J100000D01*
G01*
X18257069Y-12925597D02*
X18257069Y-14125598D01*
X7779563Y-11020596D02*
G75*
G02*
X7879563Y-10920596I100000J0D01*
G01*
X20133320Y-16030599D02*
X20133320Y-14830598D01*
X24548322Y-16130599D02*
G75*
G02*
X24448322Y-16030599I0J100000D01*
G01*
X25024572Y-9939346D02*
G75*
G02*
X24924572Y-9839346I0J100000D01*
G01*
X14923317Y-14830598D02*
G75*
G02*
X15023317Y-14730598I100000J0D01*
G01*
X33020826Y-12925597D02*
X33020826Y-14125598D01*
X35025828Y-9939346D02*
G75*
G02*
X34925828Y-9839346I0J100000D01*
G01*
X17880818Y-18035600D02*
G75*
G02*
X17780818Y-17935600I0J100000D01*
G01*
X18704569Y-12220597D02*
G75*
G02*
X18604569Y-12320597I-100000J0D01*
G01*
X18357069Y-9939346D02*
X19557069Y-9939346D01*
X18357069Y-9939346D02*
G75*
G02*
X18257069Y-9839346I0J100000D01*
G01*
X21690820Y-18035600D02*
G75*
G02*
X21590820Y-17935600I0J100000D01*
G01*
X17752068Y-14125598D02*
G75*
G02*
X17652068Y-14225598I-100000J0D01*
G01*
X18833319Y-16130599D02*
G75*
G02*
X18733319Y-16030599I0J100000D01*
G01*
X30739575Y-9939346D02*
G75*
G02*
X30639575Y-9839346I0J100000D01*
G01*
X15847067Y-14125598D02*
X15847067Y-12925597D01*
X16452067Y-9939346D02*
X17652068Y-9939346D01*
X6688937Y-19940601D02*
G75*
G02*
X6588937Y-19840601I0J100000D01*
G01*
X14894567Y-12220597D02*
G75*
G02*
X14794567Y-12320597I-100000J0D01*
G01*
X22067071Y-8639345D02*
X22067071Y-9839346D01*
X7879563Y-9939346D02*
G75*
G02*
X7779563Y-9839346I0J100000D01*
G01*
X16352067Y-12925597D02*
X16352067Y-14125598D01*
X9308314Y-16130599D02*
X10508314Y-16130599D01*
X10608314Y-16030599D02*
G75*
G02*
X10508314Y-16130599I-100000J0D01*
G01*
X13494566Y-8639345D02*
X13494566Y-9839346D01*
X10737064Y-14225598D02*
G75*
G02*
X10637064Y-14125598I0J100000D01*
G01*
X15399567Y-11020596D02*
X15399567Y-12220597D01*
X36930829Y-9939346D02*
G75*
G02*
X36830829Y-9839346I0J100000D01*
G01*
X12989566Y-9839346D02*
G75*
G02*
X12889566Y-9939346I-100000J0D01*
G01*
X14418316Y-16030599D02*
X14418316Y-14830598D01*
X20262070Y-14225598D02*
G75*
G02*
X20162070Y-14125598I0J100000D01*
G01*
X26453323Y-16130599D02*
X27653323Y-16130599D01*
X6927062Y-14225598D02*
G75*
G02*
X6827062Y-14125598I0J100000D01*
G01*
X14418316Y-16030599D02*
G75*
G02*
X14318316Y-16130599I-100000J0D01*
G01*
X8355813Y-18035600D02*
X9555814Y-18035600D01*
X9655814Y-17935600D02*
X9655814Y-16735599D01*
X22067071Y-12925597D02*
X22067071Y-14125598D01*
X13494566Y-8639345D02*
G75*
G02*
X13594566Y-8539345I100000J0D01*
G01*
X27177073Y-12825597D02*
X25977073Y-12825597D01*
X19657069Y-14125598D02*
X19657069Y-12925597D01*
X19557069Y-12825597D02*
X18357069Y-12825597D01*
X22163946Y-19740601D02*
X22163946Y-18440600D01*
X14318316Y-14730598D02*
G75*
G02*
X14418316Y-14830598I0J-100000D01*
G01*
X13018316Y-14830598D02*
G75*
G02*
X13118316Y-14730598I100000J0D01*
G01*
X15023317Y-16130599D02*
X16223317Y-16130599D01*
X16323317Y-16030599D02*
X16323317Y-14830598D01*
X38230829Y-14125598D02*
X38230829Y-12925597D01*
X3969561Y-11020596D02*
G75*
G02*
X4069561Y-10920596I100000J0D01*
G01*
X31939576Y-8539345D02*
G75*
G02*
X32039576Y-8639345I0J-100000D01*
G01*
X28129574Y-8539345D02*
G75*
G02*
X28229574Y-8639345I0J-100000D01*
G01*
X26829573Y-8639345D02*
G75*
G02*
X26929573Y-8539345I100000J0D01*
G01*
X28834574Y-9939346D02*
X30034575Y-9939346D01*
X23019571Y-11020596D02*
X23019571Y-12220597D01*
X29320199Y-18540600D02*
X27882074Y-18540600D01*
X33120826Y-14225598D02*
X34320827Y-14225598D01*
X16113942Y-18640600D02*
G75*
G02*
X16213942Y-18540600I100000J0D01*
G01*
X8970188Y-18640600D02*
G75*
G02*
X9070189Y-18540600I100000J0D01*
G01*
X18604569Y-18540600D02*
G75*
G02*
X18704569Y-18640600I0J-100000D01*
G01*
X12165815Y-18035600D02*
X13365816Y-18035600D01*
X8255813Y-16735599D02*
G75*
G02*
X8355813Y-16635599I100000J0D01*
G01*
X26700823Y-16635599D02*
X25500822Y-16635599D01*
X19180819Y-17935600D02*
X19180819Y-16735599D01*
X19080819Y-16635599D02*
X17880818Y-16635599D01*
X19685819Y-16735599D02*
G75*
G02*
X19785819Y-16635599I100000J0D01*
G01*
X28129574Y-10920596D02*
G75*
G02*
X28229574Y-11020596I0J-100000D01*
G01*
X34420827Y-19840601D02*
X34420827Y-18640600D01*
X28129574Y-10920596D02*
X26929573Y-10920596D01*
X11589565Y-11020596D02*
G75*
G02*
X11689565Y-10920596I100000J0D01*
G01*
X7879563Y-9939346D02*
X9079564Y-9939346D01*
X38130829Y-10920596D02*
G75*
G02*
X38230829Y-11020596I0J-100000D01*
G01*
X36830828Y-11020596D02*
G75*
G02*
X36930829Y-10920596I100000J0D01*
G01*
X17652068Y-12825597D02*
X16452067Y-12825597D01*
X13842066Y-12825597D02*
X12642065Y-12825597D01*
X23467071Y-14125598D02*
G75*
G02*
X23367071Y-14225598I-100000J0D01*
G01*
X36830829Y-18640600D02*
X36830829Y-19840601D01*
X33020826Y-18640600D02*
X33020826Y-19840601D01*
X5983937Y-14730598D02*
G75*
G02*
X6083937Y-14830598I0J-100000D01*
G01*
X18257069Y-8639345D02*
X18257069Y-9839346D01*
X23467071Y-14125598D02*
X23467071Y-12925597D01*
X28734574Y-8639345D02*
X28734574Y-9839346D01*
X21214570Y-12320597D02*
X22414571Y-12320597D01*
X25400822Y-18640600D02*
G75*
G02*
X25500822Y-18540600I100000J0D01*
G01*
X8227063Y-19840601D02*
X8227063Y-18640600D01*
X5369562Y-12220597D02*
G75*
G02*
X5269561Y-12320597I-100000J0D01*
G01*
X4307686Y-19940601D02*
G75*
G02*
X4207686Y-19840601I0J100000D01*
G01*
X35025828Y-14225598D02*
X36225828Y-14225598D01*
X38130829Y-10920596D02*
X36930829Y-10920596D01*
X25500822Y-18035600D02*
G75*
G02*
X25400822Y-17935600I0J100000D01*
G01*
X17752068Y-14125598D02*
X17752068Y-12925597D01*
X16352067Y-12925597D02*
G75*
G02*
X16452067Y-12825597I100000J0D01*
G01*
X12542065Y-12925597D02*
G75*
G02*
X12642065Y-12825597I100000J0D01*
G01*
X15747067Y-12825597D02*
G75*
G02*
X15847067Y-12925597I0J-100000D01*
G01*
X14447066Y-12925597D02*
G75*
G02*
X14547066Y-12825597I100000J0D01*
G01*
X8703313Y-16030599D02*
X8703313Y-14830598D01*
X22038320Y-16030599D02*
G75*
G02*
X21938320Y-16130599I-100000J0D01*
G01*
X27782074Y-12925597D02*
X27782074Y-14125598D01*
X11084565Y-9839346D02*
G75*
G02*
X10984565Y-9939346I-100000J0D01*
G01*
X25372072Y-14125598D02*
G75*
G02*
X25272072Y-14225598I-100000J0D01*
G01*
X5369562Y-9839346D02*
X5369562Y-8639345D01*
X5269561Y-8539345D02*
G75*
G02*
X5369562Y-8639345I0J-100000D01*
G01*
X5269561Y-8539345D02*
X4069561Y-8539345D01*
X3969561Y-8639345D02*
G75*
G02*
X4069561Y-8539345I100000J0D01*
G01*
X9179564Y-9839346D02*
X9179564Y-8639345D01*
X9079564Y-8539345D02*
G75*
G02*
X9179564Y-8639345I0J-100000D01*
G01*
X9079564Y-8539345D02*
X7879563Y-8539345D01*
X7779563Y-8639345D02*
G75*
G02*
X7879563Y-8539345I100000J0D01*
G01*
X26453323Y-16130599D02*
G75*
G02*
X26353323Y-16030599I0J100000D01*
G01*
X23467071Y-9839346D02*
X23467071Y-8639345D01*
X23367071Y-8539345D02*
G75*
G02*
X23467071Y-8639345I0J-100000D01*
G01*
X23367071Y-8539345D02*
X22167071Y-8539345D01*
X22067071Y-8639345D02*
G75*
G02*
X22167071Y-8539345I100000J0D01*
G01*
X27882074Y-19940601D02*
X29320199Y-19940601D01*
X15370817Y-17935600D02*
G75*
G02*
X15270817Y-18035600I-100000J0D01*
G01*
X12989566Y-9839346D02*
X12989566Y-8639345D01*
X12889566Y-8539345D02*
G75*
G02*
X12989566Y-8639345I0J-100000D01*
G01*
X34420827Y-14125598D02*
G75*
G02*
X34320827Y-14225598I-100000J0D01*
G01*
X15499567Y-12320597D02*
X16699568Y-12320597D01*
X18704569Y-19840601D02*
G75*
G02*
X18604569Y-19940601I-100000J0D01*
G01*
X14070816Y-18035600D02*
G75*
G02*
X13970816Y-17935600I0J100000D01*
G01*
X12889566Y-8539345D02*
X11689565Y-8539345D01*
X11589565Y-8639345D02*
G75*
G02*
X11689565Y-8539345I100000J0D01*
G01*
X19657069Y-9839346D02*
X19657069Y-8639345D01*
X19557069Y-8539345D02*
G75*
G02*
X19657069Y-8639345I0J-100000D01*
G01*
X19557069Y-8539345D02*
X18357069Y-8539345D01*
X18257068Y-8639345D02*
G75*
G02*
X18357069Y-8539345I100000J0D01*
G01*
X11084565Y-9839346D02*
X11084565Y-8639345D01*
X26929573Y-9939346D02*
G75*
G02*
X26829573Y-9839346I0J100000D01*
G01*
X12639565Y-19740601D02*
G75*
G02*
X12539565Y-19840601I-100000J0D01*
G01*
X26800823Y-17935600D02*
G75*
G02*
X26700823Y-18035600I-100000J0D01*
G01*
X10984565Y-8539345D02*
G75*
G02*
X11084565Y-8639345I0J-100000D01*
G01*
X10984565Y-8539345D02*
X9784564Y-8539345D01*
X9684564Y-8639345D02*
G75*
G02*
X9784564Y-8539345I100000J0D01*
G01*
X21562070Y-9839346D02*
X21562070Y-8639345D01*
X21462070Y-8539345D02*
G75*
G02*
X21562070Y-8639345I0J-100000D01*
G01*
X21462070Y-8539345D02*
X20262070Y-8539345D01*
X18604569Y-10920596D02*
G75*
G02*
X18704569Y-11020596I0J-100000D01*
G01*
X17304568Y-11020596D02*
G75*
G02*
X17404568Y-10920596I100000J0D01*
G01*
X20162069Y-8639345D02*
G75*
G02*
X20262070Y-8539345I100000J0D01*
G01*
X14894567Y-9839346D02*
X14894567Y-8639345D01*
X11560815Y-17935600D02*
G75*
G02*
X11460815Y-18035600I-100000J0D01*
G01*
X14794567Y-8539345D02*
G75*
G02*
X14894567Y-8639345I0J-100000D01*
G01*
X14794567Y-8539345D02*
X13594566Y-8539345D01*
X17752068Y-9839346D02*
X17752068Y-8639345D01*
X25877072Y-12925597D02*
G75*
G02*
X25977073Y-12825597I100000J0D01*
G01*
X17652068Y-8539345D02*
G75*
G02*
X17752068Y-8639345I0J-100000D01*
G01*
X17652068Y-8539345D02*
X16452067Y-8539345D01*
X16352067Y-8639345D02*
G75*
G02*
X16452067Y-8539345I100000J0D01*
G01*
X5369562Y-12220597D02*
X5369562Y-11020596D01*
X5269561Y-10920596D02*
G75*
G02*
X5369562Y-11020596I0J-100000D01*
G01*
X5269561Y-10920596D02*
X4069561Y-10920596D01*
X32039576Y-9839346D02*
X32039576Y-8639345D01*
X31939576Y-8539345D02*
X30739575Y-8539345D01*
X30639575Y-8639345D02*
G75*
G02*
X30739575Y-8539345I100000J0D01*
G01*
X28129574Y-8539345D02*
X26929573Y-8539345D01*
X26829573Y-8639345D02*
X26829573Y-9839346D01*
X30134575Y-9839346D02*
G75*
G02*
X30034575Y-9939346I-100000J0D01*
G01*
X30134575Y-9839346D02*
X30134575Y-8639345D01*
X30034575Y-8539345D02*
G75*
G02*
X30134575Y-8639345I0J-100000D01*
G01*
X38230829Y-9839346D02*
X38230829Y-8639345D01*
X38130829Y-8539345D02*
G75*
G02*
X38230829Y-8639345I0J-100000D01*
G01*
X38130829Y-8539345D02*
X36930829Y-8539345D01*
X36830828Y-8639345D02*
G75*
G02*
X36930829Y-8539345I100000J0D01*
G01*
X34420827Y-9839346D02*
X34420827Y-8639345D01*
X34320827Y-8539345D02*
G75*
G02*
X34420827Y-8639345I0J-100000D01*
G01*
X34925828Y-11020596D02*
X34925828Y-12220597D01*
X34320827Y-8539345D02*
X33120826Y-8539345D01*
X33020826Y-8639345D02*
G75*
G02*
X33120826Y-8539345I100000J0D01*
G01*
X26324573Y-9839346D02*
X26324573Y-8639345D01*
X26224573Y-8539345D02*
G75*
G02*
X26324573Y-8639345I0J-100000D01*
G01*
X26224573Y-8539345D02*
X25024572Y-8539345D01*
X24924572Y-8639345D02*
G75*
G02*
X25024572Y-8539345I100000J0D01*
G01*
X36225828Y-8539345D02*
G75*
G02*
X36325828Y-8639345I0J-100000D01*
G01*
X36225828Y-8539345D02*
X35025828Y-8539345D01*
X34925827Y-8639345D02*
G75*
G02*
X35025828Y-8539345I100000J0D01*
G01*
X34925828Y-8639345D02*
X34925828Y-9839346D01*
X7879563Y-12320597D02*
X9079564Y-12320597D01*
X9179564Y-12220597D02*
G75*
G02*
X9079564Y-12320597I-100000J0D01*
G01*
X9179564Y-12220597D02*
X9179564Y-11020596D01*
X9079564Y-10920596D02*
G75*
G02*
X9179564Y-11020596I0J-100000D01*
G01*
X20609570Y-12220597D02*
X20609570Y-11020596D01*
X20509570Y-10920596D02*
G75*
G02*
X20609570Y-11020596I0J-100000D01*
G01*
X20509570Y-10920596D02*
X19309569Y-10920596D01*
X19209569Y-11020596D02*
G75*
G02*
X19309569Y-10920596I100000J0D01*
G01*
X14894567Y-12220597D02*
X14894567Y-11020596D01*
X14794567Y-10920596D02*
G75*
G02*
X14894567Y-11020596I0J-100000D01*
G01*
X14794567Y-10920596D02*
X13594566Y-10920596D01*
X13494566Y-11020596D02*
G75*
G02*
X13594566Y-10920596I100000J0D01*
G01*
X30263325Y-19940601D02*
X31701451Y-19940601D01*
X11689565Y-12320597D02*
X12889566Y-12320597D01*
X12989566Y-12220597D02*
G75*
G02*
X12889566Y-12320597I-100000J0D01*
G01*
X12989566Y-12220597D02*
X12989566Y-11020596D01*
X12889566Y-10920596D02*
G75*
G02*
X12989566Y-11020596I0J-100000D01*
G01*
X16799568Y-12220597D02*
X16799568Y-11020596D01*
X16699568Y-10920596D02*
G75*
G02*
X16799568Y-11020596I0J-100000D01*
G01*
X16699568Y-10920596D02*
X15499567Y-10920596D01*
X27882074Y-19940601D02*
G75*
G02*
X27782074Y-19840601I0J100000D01*
G01*
X15847067Y-14125598D02*
G75*
G02*
X15747067Y-14225598I-100000J0D01*
G01*
X13942066Y-14125598D02*
X13942066Y-12925597D01*
X15399567Y-11020596D02*
G75*
G02*
X15499567Y-10920596I100000J0D01*
G01*
X11084565Y-12220597D02*
X11084565Y-11020596D01*
X10984565Y-10920596D02*
G75*
G02*
X11084565Y-11020596I0J-100000D01*
G01*
X10984565Y-10920596D02*
X9784564Y-10920596D01*
X9684564Y-11020596D02*
G75*
G02*
X9784564Y-10920596I100000J0D01*
G01*
X7274562Y-12220597D02*
X7274562Y-11020596D01*
X8970188Y-18640600D02*
X8970188Y-19840601D01*
X25272072Y-12825597D02*
X24072072Y-12825597D01*
X29182074Y-14125598D02*
X29182074Y-12925597D01*
X29082074Y-12825597D02*
X27882074Y-12825597D01*
X7174562Y-10920596D02*
G75*
G02*
X7274562Y-11020596I0J-100000D01*
G01*
X7174562Y-10920596D02*
X5974562Y-10920596D01*
X5874562Y-11020596D02*
G75*
G02*
X5974562Y-10920596I100000J0D01*
G01*
X18704569Y-12220597D02*
X18704569Y-11020596D01*
X24448322Y-14830598D02*
G75*
G02*
X24548322Y-14730598I100000J0D01*
G01*
X34925828Y-16735599D02*
X34925828Y-17935600D01*
X18604569Y-10920596D02*
X17404568Y-10920596D01*
X36225828Y-10920596D02*
G75*
G02*
X36325828Y-11020596I0J-100000D01*
G01*
X36225828Y-10920596D02*
X35025828Y-10920596D01*
X34925827Y-11020596D02*
G75*
G02*
X35025828Y-10920596I100000J0D01*
G01*
X24419572Y-12220597D02*
X24419572Y-11020596D01*
X24319572Y-10920596D02*
G75*
G02*
X24419572Y-11020596I0J-100000D01*
G01*
X24319572Y-10920596D02*
X23119571Y-10920596D01*
X12539565Y-18340600D02*
G75*
G02*
X12639565Y-18440600I0J-100000D01*
G01*
X23019571Y-11020596D02*
G75*
G02*
X23119571Y-10920596I100000J0D01*
G01*
X28229574Y-12220597D02*
X28229574Y-11020596D01*
X21085820Y-17935600D02*
X21085820Y-16735599D01*
X20985820Y-16635599D02*
G75*
G02*
X21085820Y-16735599I0J-100000D01*
G01*
X15370817Y-17935600D02*
X15370817Y-16735599D01*
X15270817Y-16635599D02*
X14070816Y-16635599D01*
X26829573Y-11020596D02*
G75*
G02*
X26929573Y-10920596I100000J0D01*
G01*
X34420827Y-12220597D02*
X34420827Y-11020596D01*
X12642065Y-14225598D02*
X13842066Y-14225598D01*
X34320827Y-10920596D02*
G75*
G02*
X34420827Y-11020596I0J-100000D01*
G01*
X34320827Y-10920596D02*
X33120826Y-10920596D01*
X33020826Y-11020596D02*
G75*
G02*
X33120826Y-10920596I100000J0D01*
G01*
X26324573Y-12220597D02*
X26324573Y-11020596D01*
X26224573Y-10920596D02*
G75*
G02*
X26324573Y-11020596I0J-100000D01*
G01*
X26224573Y-10920596D02*
X25024572Y-10920596D01*
X24924572Y-11020596D02*
G75*
G02*
X25024572Y-10920596I100000J0D01*
G01*
X33120826Y-19940601D02*
X34320827Y-19940601D01*
X24448322Y-14830598D02*
X24448322Y-16030599D01*
X5974562Y-12320597D02*
X7174562Y-12320597D01*
X22514571Y-12220597D02*
X22514571Y-11020596D01*
X22414571Y-10920596D02*
G75*
G02*
X22514571Y-11020596I0J-100000D01*
G01*
X22414571Y-10920596D02*
X21214570Y-10920596D01*
X21114570Y-11020596D02*
G75*
G02*
X21214570Y-10920596I100000J0D01*
G01*
X10132064Y-14125598D02*
X10132064Y-12925597D01*
X10032064Y-12825597D02*
G75*
G02*
X10132064Y-12925597I0J-100000D01*
G01*
X10032064Y-12825597D02*
X8832063Y-12825597D01*
X8732063Y-12925597D02*
G75*
G02*
X8832063Y-12825597I100000J0D01*
G01*
X12037065Y-14125598D02*
X12037065Y-12925597D01*
X11937065Y-12825597D02*
G75*
G02*
X12037065Y-12925597I0J-100000D01*
G01*
X11937065Y-12825597D02*
X10737064Y-12825597D01*
X9684564Y-11020596D02*
X9684564Y-12220597D01*
X10637064Y-12925597D02*
G75*
G02*
X10737064Y-12825597I100000J0D01*
G01*
X38230829Y-12220597D02*
X38230829Y-11020596D01*
X17652068Y-12825597D02*
G75*
G02*
X17752068Y-12925597I0J-100000D01*
G01*
X13842066Y-12825597D02*
G75*
G02*
X13942066Y-12925597I0J-100000D01*
G01*
X12542065Y-12925597D02*
X12542065Y-14125598D01*
X15747067Y-12825597D02*
X14547066Y-12825597D01*
X14447066Y-12925597D02*
X14447066Y-14125598D01*
X6927062Y-14225598D02*
X8127063Y-14225598D01*
X8227063Y-14125598D02*
G75*
G02*
X8127063Y-14225598I-100000J0D01*
G01*
X8227063Y-14125598D02*
X8227063Y-12925597D01*
X8127063Y-12825597D02*
G75*
G02*
X8227063Y-12925597I0J-100000D01*
G01*
X5745812Y-12825597D02*
G75*
G02*
X5845812Y-12925597I0J-100000D01*
G01*
X5745812Y-12825597D02*
X4545811Y-12825597D01*
X4445811Y-12925597D02*
G75*
G02*
X4545811Y-12825597I100000J0D01*
G01*
X4445811Y-12925597D02*
X4445811Y-14125598D01*
X25372072Y-14125598D02*
X25372072Y-12925597D01*
X25272072Y-12825597D02*
G75*
G02*
X25372072Y-12925597I0J-100000D01*
G01*
X23972071Y-12925597D02*
G75*
G02*
X24072072Y-12825597I100000J0D01*
G01*
X29082074Y-12825597D02*
G75*
G02*
X29182074Y-12925597I0J-100000D01*
G01*
X27782073Y-12925597D02*
G75*
G02*
X27882074Y-12825597I100000J0D01*
G01*
X34420827Y-14125598D02*
X34420827Y-12925597D01*
X34320827Y-12825597D02*
G75*
G02*
X34420827Y-12925597I0J-100000D01*
G01*
X34320827Y-12825597D02*
X33120826Y-12825597D01*
X33020826Y-12925597D02*
G75*
G02*
X33120826Y-12825597I100000J0D01*
G01*
X21562070Y-14125598D02*
X21562070Y-12925597D01*
X21462070Y-12825597D02*
G75*
G02*
X21562070Y-12925597I0J-100000D01*
G01*
X21462070Y-12825597D02*
X20262070Y-12825597D01*
X20162069Y-12925597D02*
G75*
G02*
X20262070Y-12825597I100000J0D01*
G01*
X23367071Y-12825597D02*
G75*
G02*
X23467071Y-12925597I0J-100000D01*
G01*
X23367071Y-12825597D02*
X22167071Y-12825597D01*
X22067071Y-12925597D02*
G75*
G02*
X22167071Y-12825597I100000J0D01*
G01*
X27277073Y-14125598D02*
X27277073Y-12925597D01*
X27177073Y-12825597D02*
G75*
G02*
X27277073Y-12925597I0J-100000D01*
G01*
X19557069Y-12825597D02*
G75*
G02*
X19657069Y-12925597I0J-100000D01*
G01*
X18257068Y-12925597D02*
G75*
G02*
X18357069Y-12825597I100000J0D01*
G01*
X15975817Y-18035600D02*
G75*
G02*
X15875817Y-17935600I0J100000D01*
G01*
X14318316Y-14730598D02*
X13118316Y-14730598D01*
X13018316Y-14830598D02*
X13018316Y-16030599D01*
X16323317Y-16030599D02*
G75*
G02*
X16223317Y-16130599I-100000J0D01*
G01*
X16223317Y-14730598D02*
G75*
G02*
X16323317Y-14830598I0J-100000D01*
G01*
X38130829Y-12825597D02*
G75*
G02*
X38230829Y-12925597I0J-100000D01*
G01*
X38130829Y-12825597D02*
X36930829Y-12825597D01*
X11463940Y-18440600D02*
G75*
G02*
X11563940Y-18340600I100000J0D01*
G01*
X24895822Y-17935600D02*
X24895822Y-16735599D01*
X17175818Y-16635599D02*
G75*
G02*
X17275818Y-16735599I0J-100000D01*
G01*
X36830828Y-12925597D02*
G75*
G02*
X36930829Y-12825597I100000J0D01*
G01*
X8603313Y-14730598D02*
G75*
G02*
X8703313Y-14830598I0J-100000D01*
G01*
X8603313Y-14730598D02*
X7403313Y-14730598D01*
X7303313Y-14830598D02*
G75*
G02*
X7403313Y-14730598I100000J0D01*
G01*
X7303312Y-14830598D02*
X7303312Y-16030599D01*
X36325828Y-14125598D02*
X36325828Y-12925597D01*
X36225828Y-12825597D02*
G75*
G02*
X36325828Y-12925597I0J-100000D01*
G01*
X36225828Y-12825597D02*
X35025828Y-12825597D01*
X34925827Y-12925597D02*
G75*
G02*
X35025828Y-12825597I100000J0D01*
G01*
X12513315Y-16030599D02*
X12513315Y-14830598D01*
X12413315Y-14730598D02*
G75*
G02*
X12513315Y-14830598I0J-100000D01*
G01*
X12413315Y-14730598D02*
X11213315Y-14730598D01*
X11113315Y-14830598D02*
G75*
G02*
X11213315Y-14730598I100000J0D01*
G01*
X10508314Y-14730598D02*
G75*
G02*
X10608314Y-14830598I0J-100000D01*
G01*
X28229574Y-12220597D02*
G75*
G02*
X28129574Y-12320597I-100000J0D01*
G01*
X10508314Y-14730598D02*
X9308314Y-14730598D01*
X9208314Y-14830598D02*
G75*
G02*
X9308314Y-14730598I100000J0D01*
G01*
X9208314Y-14830598D02*
X9208314Y-16030599D01*
X20033319Y-14730598D02*
G75*
G02*
X20133320Y-14830598I0J-100000D01*
G01*
X20033319Y-14730598D02*
X18833319Y-14730598D01*
X19309569Y-12320597D02*
G75*
G02*
X19209569Y-12220597I0J100000D01*
G01*
X18733319Y-14830598D02*
G75*
G02*
X18833319Y-14730598I100000J0D01*
G01*
X27753323Y-16030599D02*
G75*
G02*
X27653323Y-16130599I-100000J0D01*
G01*
X18733319Y-14830598D02*
X18733319Y-16030599D01*
X15975817Y-18035600D02*
X17175818Y-18035600D01*
X18228318Y-16030599D02*
X18228318Y-14830598D01*
X36930829Y-19940601D02*
G75*
G02*
X36830829Y-19840601I0J100000D01*
G01*
X12639565Y-19740601D02*
X12639565Y-18440600D01*
X18128318Y-14730598D02*
G75*
G02*
X18228318Y-14830598I0J-100000D01*
G01*
X18128318Y-14730598D02*
X16928318Y-14730598D01*
X16828318Y-14830598D02*
G75*
G02*
X16928318Y-14730598I100000J0D01*
G01*
X27753324Y-16030599D02*
X27753324Y-14830598D01*
X27653323Y-14730598D02*
G75*
G02*
X27753324Y-14830598I0J-100000D01*
G01*
X27653323Y-14730598D02*
X26453323Y-14730598D01*
X26353323Y-14830598D02*
G75*
G02*
X26453323Y-14730598I100000J0D01*
G01*
X23943321Y-16030599D02*
X23943321Y-14830598D01*
X23843321Y-14730598D02*
G75*
G02*
X23943321Y-14830598I0J-100000D01*
G01*
X23843321Y-14730598D02*
X22643321Y-14730598D01*
X22543321Y-14830598D02*
G75*
G02*
X22643321Y-14730598I100000J0D01*
G01*
X21938320Y-14730598D02*
G75*
G02*
X22038321Y-14830598I0J-100000D01*
G01*
X21938320Y-14730598D02*
X20738320Y-14730598D01*
X20638320Y-14830598D02*
G75*
G02*
X20738320Y-14730598I100000J0D01*
G01*
X20638320Y-14830598D02*
X20638320Y-16030599D01*
X25848322Y-16030599D02*
X25848322Y-14830598D01*
X25748322Y-14730598D02*
G75*
G02*
X25848322Y-14830598I0J-100000D01*
G01*
X25748322Y-14730598D02*
X24548322Y-14730598D01*
X9655814Y-17935600D02*
G75*
G02*
X9555814Y-18035600I-100000J0D01*
G01*
X9555814Y-16635599D02*
G75*
G02*
X9655814Y-16735599I0J-100000D01*
G01*
X10260814Y-18035600D02*
X11460815Y-18035600D01*
X11560815Y-17935600D02*
X11560815Y-16735599D01*
X11460815Y-16635599D02*
G75*
G02*
X11560815Y-16735599I0J-100000D01*
G01*
X26800823Y-17935600D02*
X26800823Y-16735599D01*
X26700823Y-16635599D02*
G75*
G02*
X26800823Y-16735599I0J-100000D01*
G01*
X25400822Y-16735599D02*
G75*
G02*
X25500822Y-16635599I100000J0D01*
G01*
X19080819Y-16635599D02*
G75*
G02*
X19180819Y-16735599I0J-100000D01*
G01*
X17780818Y-16735599D02*
G75*
G02*
X17880818Y-16635599I100000J0D01*
G01*
X20985820Y-16635599D02*
X19785819Y-16635599D01*
X15270817Y-16635599D02*
G75*
G02*
X15370817Y-16735599I0J-100000D01*
G01*
X13970816Y-16735599D02*
G75*
G02*
X14070816Y-16635599I100000J0D01*
G01*
X10608314Y-19840601D02*
X10608314Y-18640600D01*
X24795822Y-16635599D02*
G75*
G02*
X24895822Y-16735599I0J-100000D01*
G01*
X17175818Y-16635599D02*
X15975817Y-16635599D01*
X21690820Y-18035600D02*
X22890821Y-18035600D01*
X15875817Y-16735599D02*
G75*
G02*
X15975817Y-16635599I100000J0D01*
G01*
X19685819Y-16735599D02*
X19685819Y-17935600D01*
X19180819Y-17935600D02*
G75*
G02*
X19080819Y-18035600I-100000J0D01*
G01*
X26938948Y-18540600D02*
X25500822Y-18540600D01*
D11*
X38481000Y-19861994D02*
G75*
G02*
X38150594Y-20193000I-330706J-300D01*
G01*
X38149994Y-8286350D02*
G75*
G02*
X38481000Y-8616756I300J-330706D01*
G01*
X3714750Y-8617356D02*
G75*
G02*
X4045156Y-8286350I330706J300D01*
G01*
X4045756Y-20193000D02*
G75*
G02*
X3714750Y-19862594I-300J330706D01*
G01*
X38481000Y-8616950D02*
X38481000Y-19861994D01*
X38150594Y-20193000D02*
X4045756Y-20193000D01*
X3714750Y-19862594D02*
X3714750Y-8617356D01*
X4045156Y-8286350D02*
X38149994Y-8286350D01*
D12*
D13*
X3993678Y-20666214D02*
X3993678Y-20366214D01*
X4065107Y-20366214D01*
X4107964Y-20380500D01*
X4136536Y-20409072D01*
X4150821Y-20437643D01*
X4165107Y-20494786D01*
X4165107Y-20537643D01*
X4150821Y-20594786D01*
X4136536Y-20623357D01*
X4107964Y-20651929D01*
X4065107Y-20666214D01*
X3993678Y-20666214D01*
X4293678Y-20666214D02*
X4293678Y-20466214D01*
X4293678Y-20523357D02*
X4307964Y-20494786D01*
X4322250Y-20480500D01*
X4350821Y-20466214D01*
X4379393Y-20466214D01*
X4479393Y-20666214D02*
X4479393Y-20466214D01*
X4479393Y-20366214D02*
X4465107Y-20380500D01*
X4479393Y-20394786D01*
X4493678Y-20380500D01*
X4479393Y-20366214D01*
X4479393Y-20394786D01*
X4665107Y-20666214D02*
X4636536Y-20651929D01*
X4622250Y-20623357D01*
X4622250Y-20366214D01*
X4822250Y-20666214D02*
X4793678Y-20651929D01*
X4779393Y-20623357D01*
X4779393Y-20366214D01*
X5165107Y-20666214D02*
X5165107Y-20366214D01*
X5265107Y-20580500D01*
X5365107Y-20366214D01*
X5365107Y-20666214D01*
X5636536Y-20666214D02*
X5636536Y-20509072D01*
X5622250Y-20480500D01*
X5593678Y-20466214D01*
X5536536Y-20466214D01*
X5507964Y-20480500D01*
X5636536Y-20651929D02*
X5607964Y-20666214D01*
X5536536Y-20666214D01*
X5507964Y-20651929D01*
X5493678Y-20623357D01*
X5493678Y-20594786D01*
X5507964Y-20566214D01*
X5536536Y-20551929D01*
X5607964Y-20551929D01*
X5636536Y-20537643D01*
X5779393Y-20466214D02*
X5779393Y-20766214D01*
X5779393Y-20480500D02*
X5807964Y-20466214D01*
X5865107Y-20466214D01*
X5893678Y-20480500D01*
X5907964Y-20494786D01*
X5922250Y-20523357D01*
X5922250Y-20609072D01*
X5907964Y-20637643D01*
X5893678Y-20651929D01*
X5865107Y-20666214D01*
X5807964Y-20666214D01*
X5779393Y-20651929D01*
X6050821Y-20637643D02*
X6065107Y-20651929D01*
X6050821Y-20666214D01*
X6036536Y-20651929D01*
X6050821Y-20637643D01*
X6050821Y-20666214D01*
X6050821Y-20480500D02*
X6065107Y-20494786D01*
X6050821Y-20509072D01*
X6036536Y-20494786D01*
X6050821Y-20480500D01*
X6050821Y-20509072D01*
M02*
