G04 #@! TF.GenerationSoftware,KiCad,Pcbnew,5.1.10-88a1d61d58~90~ubuntu21.04.1*
G04 #@! TF.CreationDate,2021-08-16T11:56:13+02:00*
G04 #@! TF.ProjectId,mysterium-plate,6d797374-6572-4697-956d-2d706c617465,rev?*
G04 #@! TF.SameCoordinates,Original*
G04 #@! TF.FileFunction,Soldermask,Top*
G04 #@! TF.FilePolarity,Negative*
%FSLAX46Y46*%
G04 Gerber Fmt 4.6, Leading zero omitted, Abs format (unit mm)*
G04 Created by KiCad (PCBNEW 5.1.10-88a1d61d58~90~ubuntu21.04.1) date 2021-08-16 11:56:13*
%MOMM*%
%LPD*%
G01*
G04 APERTURE LIST*
%ADD10C,0.010000*%
%ADD11C,0.500000*%
G04 APERTURE END LIST*
D10*
G36*
X351167343Y-152957902D02*
G01*
X351314428Y-152975900D01*
X351449846Y-153006604D01*
X351526256Y-153035151D01*
X351609266Y-153091061D01*
X351641737Y-153161641D01*
X351645601Y-153224761D01*
X351641129Y-153305874D01*
X351618080Y-153342663D01*
X351562003Y-153338647D01*
X351458450Y-153297349D01*
X351419548Y-153279842D01*
X351229366Y-153219238D01*
X351054786Y-153211453D01*
X350907506Y-153253326D01*
X350799224Y-153341694D01*
X350743847Y-153462499D01*
X350737997Y-153568555D01*
X350774686Y-153665801D01*
X350860812Y-153761882D01*
X351003272Y-153864444D01*
X351208963Y-153981132D01*
X351214219Y-153983899D01*
X351403136Y-154090694D01*
X351553709Y-154190888D01*
X351652665Y-154275419D01*
X351668671Y-154294195D01*
X351760277Y-154470049D01*
X351788334Y-154661066D01*
X351756666Y-154852716D01*
X351669095Y-155030470D01*
X351529442Y-155179799D01*
X351416505Y-155252707D01*
X351285802Y-155295570D01*
X351111945Y-155320238D01*
X350923445Y-155325379D01*
X350748816Y-155309658D01*
X350657903Y-155288166D01*
X350489738Y-155214178D01*
X350390608Y-155123398D01*
X350357216Y-155012774D01*
X350357195Y-155009608D01*
X350364856Y-154924722D01*
X350396483Y-154889879D01*
X350465042Y-154901573D01*
X350573345Y-154951158D01*
X350783731Y-155032824D01*
X350982154Y-155064818D01*
X351158685Y-155049990D01*
X351303396Y-154991190D01*
X351406357Y-154891267D01*
X351457640Y-154753069D01*
X351461543Y-154696280D01*
X351440233Y-154579313D01*
X351371266Y-154472421D01*
X351247084Y-154367866D01*
X351060130Y-154257913D01*
X351006715Y-154230677D01*
X350785129Y-154111007D01*
X350625775Y-154000144D01*
X350519841Y-153887582D01*
X350458515Y-153762812D01*
X350432986Y-153615328D01*
X350430818Y-153543986D01*
X350462966Y-153345103D01*
X350559830Y-153180798D01*
X350722037Y-153050093D01*
X350762420Y-153027875D01*
X350874852Y-152978417D01*
X350983217Y-152956154D01*
X351121192Y-152955267D01*
X351167343Y-152957902D01*
G37*
X351167343Y-152957902D02*
X351314428Y-152975900D01*
X351449846Y-153006604D01*
X351526256Y-153035151D01*
X351609266Y-153091061D01*
X351641737Y-153161641D01*
X351645601Y-153224761D01*
X351641129Y-153305874D01*
X351618080Y-153342663D01*
X351562003Y-153338647D01*
X351458450Y-153297349D01*
X351419548Y-153279842D01*
X351229366Y-153219238D01*
X351054786Y-153211453D01*
X350907506Y-153253326D01*
X350799224Y-153341694D01*
X350743847Y-153462499D01*
X350737997Y-153568555D01*
X350774686Y-153665801D01*
X350860812Y-153761882D01*
X351003272Y-153864444D01*
X351208963Y-153981132D01*
X351214219Y-153983899D01*
X351403136Y-154090694D01*
X351553709Y-154190888D01*
X351652665Y-154275419D01*
X351668671Y-154294195D01*
X351760277Y-154470049D01*
X351788334Y-154661066D01*
X351756666Y-154852716D01*
X351669095Y-155030470D01*
X351529442Y-155179799D01*
X351416505Y-155252707D01*
X351285802Y-155295570D01*
X351111945Y-155320238D01*
X350923445Y-155325379D01*
X350748816Y-155309658D01*
X350657903Y-155288166D01*
X350489738Y-155214178D01*
X350390608Y-155123398D01*
X350357216Y-155012774D01*
X350357195Y-155009608D01*
X350364856Y-154924722D01*
X350396483Y-154889879D01*
X350465042Y-154901573D01*
X350573345Y-154951158D01*
X350783731Y-155032824D01*
X350982154Y-155064818D01*
X351158685Y-155049990D01*
X351303396Y-154991190D01*
X351406357Y-154891267D01*
X351457640Y-154753069D01*
X351461543Y-154696280D01*
X351440233Y-154579313D01*
X351371266Y-154472421D01*
X351247084Y-154367866D01*
X351060130Y-154257913D01*
X351006715Y-154230677D01*
X350785129Y-154111007D01*
X350625775Y-154000144D01*
X350519841Y-153887582D01*
X350458515Y-153762812D01*
X350432986Y-153615328D01*
X350430818Y-153543986D01*
X350462966Y-153345103D01*
X350559830Y-153180798D01*
X350722037Y-153050093D01*
X350762420Y-153027875D01*
X350874852Y-152978417D01*
X350983217Y-152956154D01*
X351121192Y-152955267D01*
X351167343Y-152957902D01*
G36*
X363168438Y-153803598D02*
G01*
X363169318Y-154076251D01*
X363171875Y-154286117D01*
X363176897Y-154444024D01*
X363185171Y-154560805D01*
X363197483Y-154647289D01*
X363214622Y-154714306D01*
X363237375Y-154772686D01*
X363239169Y-154776664D01*
X363344353Y-154927477D01*
X363497109Y-155022353D01*
X363696495Y-155060734D01*
X363719804Y-155061459D01*
X363930768Y-155036959D01*
X364096000Y-154954966D01*
X364207232Y-154829992D01*
X364233852Y-154783764D01*
X364254298Y-154734827D01*
X364269555Y-154672900D01*
X364280607Y-154587705D01*
X364288440Y-154468963D01*
X364294037Y-154306395D01*
X364298383Y-154089721D01*
X364302034Y-153840410D01*
X364313684Y-152984540D01*
X364608022Y-152984540D01*
X364584876Y-154775924D01*
X364474113Y-154954956D01*
X364331761Y-155118449D01*
X364141560Y-155239538D01*
X363918921Y-155313479D01*
X363679254Y-155335532D01*
X363437972Y-155300952D01*
X363393171Y-155287574D01*
X363190911Y-155184197D01*
X363027976Y-155023122D01*
X362942927Y-154880338D01*
X362920990Y-154825765D01*
X362904242Y-154762172D01*
X362891989Y-154679300D01*
X362883538Y-154566889D01*
X362878196Y-154414681D01*
X362875272Y-154212416D01*
X362874072Y-153949835D01*
X362873945Y-153858816D01*
X362873137Y-152984540D01*
X363167630Y-152984540D01*
X363168438Y-153803598D01*
G37*
X363168438Y-153803598D02*
X363169318Y-154076251D01*
X363171875Y-154286117D01*
X363176897Y-154444024D01*
X363185171Y-154560805D01*
X363197483Y-154647289D01*
X363214622Y-154714306D01*
X363237375Y-154772686D01*
X363239169Y-154776664D01*
X363344353Y-154927477D01*
X363497109Y-155022353D01*
X363696495Y-155060734D01*
X363719804Y-155061459D01*
X363930768Y-155036959D01*
X364096000Y-154954966D01*
X364207232Y-154829992D01*
X364233852Y-154783764D01*
X364254298Y-154734827D01*
X364269555Y-154672900D01*
X364280607Y-154587705D01*
X364288440Y-154468963D01*
X364294037Y-154306395D01*
X364298383Y-154089721D01*
X364302034Y-153840410D01*
X364313684Y-152984540D01*
X364608022Y-152984540D01*
X364584876Y-154775924D01*
X364474113Y-154954956D01*
X364331761Y-155118449D01*
X364141560Y-155239538D01*
X363918921Y-155313479D01*
X363679254Y-155335532D01*
X363437972Y-155300952D01*
X363393171Y-155287574D01*
X363190911Y-155184197D01*
X363027976Y-155023122D01*
X362942927Y-154880338D01*
X362920990Y-154825765D01*
X362904242Y-154762172D01*
X362891989Y-154679300D01*
X362883538Y-154566889D01*
X362878196Y-154414681D01*
X362875272Y-154212416D01*
X362874072Y-153949835D01*
X362873945Y-153858816D01*
X362873137Y-152984540D01*
X363167630Y-152984540D01*
X363168438Y-153803598D01*
G36*
X344395824Y-153002721D02*
G01*
X344475356Y-153047185D01*
X344476992Y-153048961D01*
X344506225Y-153100030D01*
X344557820Y-153209555D01*
X344627384Y-153367405D01*
X344710524Y-153563445D01*
X344802846Y-153787542D01*
X344876164Y-153969669D01*
X344970196Y-154202039D01*
X345056364Y-154408245D01*
X345130769Y-154579491D01*
X345189507Y-154706979D01*
X345228679Y-154781914D01*
X345243505Y-154797929D01*
X345264170Y-154757317D01*
X345308340Y-154658158D01*
X345371886Y-154510148D01*
X345450680Y-154322982D01*
X345540592Y-154106352D01*
X345608233Y-153941642D01*
X345705356Y-153707247D01*
X345796516Y-153493074D01*
X345877132Y-153309434D01*
X345942621Y-153166632D01*
X345988402Y-153074979D01*
X346005752Y-153047338D01*
X346060954Y-153007395D01*
X346146474Y-152990803D01*
X346269079Y-152992120D01*
X346473572Y-153002946D01*
X346483299Y-154153309D01*
X346493026Y-155303671D01*
X346197485Y-155303671D01*
X346197485Y-154285217D01*
X346196563Y-154021655D01*
X346193961Y-153785327D01*
X346189922Y-153585276D01*
X346184691Y-153430547D01*
X346178512Y-153330182D01*
X346171630Y-153293226D01*
X346170701Y-153293546D01*
X346150645Y-153333417D01*
X346107175Y-153432876D01*
X346043974Y-153583056D01*
X345964726Y-153775091D01*
X345873115Y-154000115D01*
X345772824Y-154249260D01*
X345751412Y-154302797D01*
X345358906Y-155285265D01*
X345225005Y-155296751D01*
X345148025Y-155299362D01*
X345098244Y-155280379D01*
X345057361Y-155224455D01*
X345007075Y-155116244D01*
X345005520Y-155112693D01*
X344967288Y-155021284D01*
X344907813Y-154874039D01*
X344832213Y-154683866D01*
X344745604Y-154463669D01*
X344653104Y-154226358D01*
X344610812Y-154117140D01*
X344301688Y-153317132D01*
X344283282Y-154301198D01*
X344264876Y-155285265D01*
X344134720Y-155296220D01*
X344040914Y-155296761D01*
X343981949Y-155283707D01*
X343978270Y-155280882D01*
X343969346Y-155236083D01*
X343962286Y-155128942D01*
X343957029Y-154970714D01*
X343953516Y-154772656D01*
X343951688Y-154546024D01*
X343951485Y-154302073D01*
X343952846Y-154052059D01*
X343955712Y-153807238D01*
X343960024Y-153578866D01*
X343965721Y-153378199D01*
X343972745Y-153216492D01*
X343981034Y-153105003D01*
X343990084Y-153055744D01*
X344051978Y-153008590D01*
X344157793Y-152983791D01*
X344281189Y-152981712D01*
X344395824Y-153002721D01*
G37*
X344395824Y-153002721D02*
X344475356Y-153047185D01*
X344476992Y-153048961D01*
X344506225Y-153100030D01*
X344557820Y-153209555D01*
X344627384Y-153367405D01*
X344710524Y-153563445D01*
X344802846Y-153787542D01*
X344876164Y-153969669D01*
X344970196Y-154202039D01*
X345056364Y-154408245D01*
X345130769Y-154579491D01*
X345189507Y-154706979D01*
X345228679Y-154781914D01*
X345243505Y-154797929D01*
X345264170Y-154757317D01*
X345308340Y-154658158D01*
X345371886Y-154510148D01*
X345450680Y-154322982D01*
X345540592Y-154106352D01*
X345608233Y-153941642D01*
X345705356Y-153707247D01*
X345796516Y-153493074D01*
X345877132Y-153309434D01*
X345942621Y-153166632D01*
X345988402Y-153074979D01*
X346005752Y-153047338D01*
X346060954Y-153007395D01*
X346146474Y-152990803D01*
X346269079Y-152992120D01*
X346473572Y-153002946D01*
X346483299Y-154153309D01*
X346493026Y-155303671D01*
X346197485Y-155303671D01*
X346197485Y-154285217D01*
X346196563Y-154021655D01*
X346193961Y-153785327D01*
X346189922Y-153585276D01*
X346184691Y-153430547D01*
X346178512Y-153330182D01*
X346171630Y-153293226D01*
X346170701Y-153293546D01*
X346150645Y-153333417D01*
X346107175Y-153432876D01*
X346043974Y-153583056D01*
X345964726Y-153775091D01*
X345873115Y-154000115D01*
X345772824Y-154249260D01*
X345751412Y-154302797D01*
X345358906Y-155285265D01*
X345225005Y-155296751D01*
X345148025Y-155299362D01*
X345098244Y-155280379D01*
X345057361Y-155224455D01*
X345007075Y-155116244D01*
X345005520Y-155112693D01*
X344967288Y-155021284D01*
X344907813Y-154874039D01*
X344832213Y-154683866D01*
X344745604Y-154463669D01*
X344653104Y-154226358D01*
X344610812Y-154117140D01*
X344301688Y-153317132D01*
X344283282Y-154301198D01*
X344264876Y-155285265D01*
X344134720Y-155296220D01*
X344040914Y-155296761D01*
X343981949Y-155283707D01*
X343978270Y-155280882D01*
X343969346Y-155236083D01*
X343962286Y-155128942D01*
X343957029Y-154970714D01*
X343953516Y-154772656D01*
X343951688Y-154546024D01*
X343951485Y-154302073D01*
X343952846Y-154052059D01*
X343955712Y-153807238D01*
X343960024Y-153578866D01*
X343965721Y-153378199D01*
X343972745Y-153216492D01*
X343981034Y-153105003D01*
X343990084Y-153055744D01*
X344051978Y-153008590D01*
X344157793Y-152983791D01*
X344281189Y-152981712D01*
X344395824Y-153002721D01*
G36*
X348172243Y-153343454D02*
G01*
X348253664Y-153517532D01*
X348334275Y-153691119D01*
X348402173Y-153838526D01*
X348430732Y-153901231D01*
X348520643Y-154100095D01*
X348678315Y-153753984D01*
X348759070Y-153578825D01*
X348842419Y-153401503D01*
X348915095Y-153250121D01*
X348941651Y-153196207D01*
X349001035Y-153081804D01*
X349046981Y-153018482D01*
X349098302Y-152991138D01*
X349173810Y-152984669D01*
X349205298Y-152984540D01*
X349301436Y-152988442D01*
X349357441Y-152998265D01*
X349363282Y-153003314D01*
X349347530Y-153040345D01*
X349303490Y-153133239D01*
X349235984Y-153272102D01*
X349149834Y-153447042D01*
X349049864Y-153648163D01*
X349013572Y-153720772D01*
X348663862Y-154419457D01*
X348663862Y-155303671D01*
X348369369Y-155303671D01*
X348369369Y-154419457D01*
X348019659Y-153720772D01*
X347916087Y-153513001D01*
X347824696Y-153328047D01*
X347750308Y-153175804D01*
X347697746Y-153066165D01*
X347671832Y-153009025D01*
X347669948Y-153003314D01*
X347702892Y-152992148D01*
X347786299Y-152985425D01*
X347836806Y-152984540D01*
X348003664Y-152984540D01*
X348172243Y-153343454D01*
G37*
X348172243Y-153343454D02*
X348253664Y-153517532D01*
X348334275Y-153691119D01*
X348402173Y-153838526D01*
X348430732Y-153901231D01*
X348520643Y-154100095D01*
X348678315Y-153753984D01*
X348759070Y-153578825D01*
X348842419Y-153401503D01*
X348915095Y-153250121D01*
X348941651Y-153196207D01*
X349001035Y-153081804D01*
X349046981Y-153018482D01*
X349098302Y-152991138D01*
X349173810Y-152984669D01*
X349205298Y-152984540D01*
X349301436Y-152988442D01*
X349357441Y-152998265D01*
X349363282Y-153003314D01*
X349347530Y-153040345D01*
X349303490Y-153133239D01*
X349235984Y-153272102D01*
X349149834Y-153447042D01*
X349049864Y-153648163D01*
X349013572Y-153720772D01*
X348663862Y-154419457D01*
X348663862Y-155303671D01*
X348369369Y-155303671D01*
X348369369Y-154419457D01*
X348019659Y-153720772D01*
X347916087Y-153513001D01*
X347824696Y-153328047D01*
X347750308Y-153175804D01*
X347697746Y-153066165D01*
X347671832Y-153009025D01*
X347669948Y-153003314D01*
X347702892Y-152992148D01*
X347786299Y-152985425D01*
X347836806Y-152984540D01*
X348003664Y-152984540D01*
X348172243Y-153343454D01*
G36*
X353642630Y-152993065D02*
G01*
X354498499Y-153002946D01*
X354498499Y-153223816D01*
X353829035Y-153244832D01*
X353804958Y-153933744D01*
X353796978Y-154181213D01*
X353790103Y-154430919D01*
X353784809Y-154662616D01*
X353781570Y-154856058D01*
X353780777Y-154963164D01*
X353780673Y-155303671D01*
X353486180Y-155303671D01*
X353486180Y-153242222D01*
X352786760Y-153242222D01*
X352786760Y-152983184D01*
X353642630Y-152993065D01*
G37*
X353642630Y-152993065D02*
X354498499Y-153002946D01*
X354498499Y-153223816D01*
X353829035Y-153244832D01*
X353804958Y-153933744D01*
X353796978Y-154181213D01*
X353790103Y-154430919D01*
X353784809Y-154662616D01*
X353781570Y-154856058D01*
X353780777Y-154963164D01*
X353780673Y-155303671D01*
X353486180Y-155303671D01*
X353486180Y-153242222D01*
X352786760Y-153242222D01*
X352786760Y-152983184D01*
X353642630Y-152993065D01*
G36*
X356939600Y-153104178D02*
G01*
X356928064Y-153223816D01*
X356458717Y-153234119D01*
X355989369Y-153244421D01*
X355989369Y-153976042D01*
X356403499Y-153986451D01*
X356817630Y-153996859D01*
X356817630Y-154180917D01*
X356403499Y-154191326D01*
X355989369Y-154201734D01*
X355989369Y-155045990D01*
X356465220Y-155045990D01*
X356661872Y-155046958D01*
X356796815Y-155050908D01*
X356881949Y-155059403D01*
X356929174Y-155074011D01*
X356950390Y-155096297D01*
X356954880Y-155110410D01*
X356958631Y-155204451D01*
X356953286Y-155239251D01*
X356941306Y-155263286D01*
X356911592Y-155280523D01*
X356853538Y-155292069D01*
X356756536Y-155299032D01*
X356609980Y-155302517D01*
X356403265Y-155303632D01*
X356336081Y-155303671D01*
X356111702Y-155303084D01*
X355949792Y-155300497D01*
X355839202Y-155294668D01*
X355768782Y-155284358D01*
X355727382Y-155268325D01*
X355703853Y-155245329D01*
X355696171Y-155232468D01*
X355686910Y-155179329D01*
X355678740Y-155064222D01*
X355671744Y-154898792D01*
X355666007Y-154694688D01*
X355661613Y-154463556D01*
X355658644Y-154217043D01*
X355657186Y-153966797D01*
X355657322Y-153724465D01*
X355659135Y-153501693D01*
X355662710Y-153310130D01*
X355668131Y-153161422D01*
X355675481Y-153067216D01*
X355680409Y-153042769D01*
X355697742Y-153021148D01*
X355737433Y-153005523D01*
X355809713Y-152994971D01*
X355924813Y-152988571D01*
X356092964Y-152985401D01*
X356324396Y-152984541D01*
X356326944Y-152984540D01*
X356951135Y-152984540D01*
X356939600Y-153104178D01*
G37*
X356939600Y-153104178D02*
X356928064Y-153223816D01*
X356458717Y-153234119D01*
X355989369Y-153244421D01*
X355989369Y-153976042D01*
X356403499Y-153986451D01*
X356817630Y-153996859D01*
X356817630Y-154180917D01*
X356403499Y-154191326D01*
X355989369Y-154201734D01*
X355989369Y-155045990D01*
X356465220Y-155045990D01*
X356661872Y-155046958D01*
X356796815Y-155050908D01*
X356881949Y-155059403D01*
X356929174Y-155074011D01*
X356950390Y-155096297D01*
X356954880Y-155110410D01*
X356958631Y-155204451D01*
X356953286Y-155239251D01*
X356941306Y-155263286D01*
X356911592Y-155280523D01*
X356853538Y-155292069D01*
X356756536Y-155299032D01*
X356609980Y-155302517D01*
X356403265Y-155303632D01*
X356336081Y-155303671D01*
X356111702Y-155303084D01*
X355949792Y-155300497D01*
X355839202Y-155294668D01*
X355768782Y-155284358D01*
X355727382Y-155268325D01*
X355703853Y-155245329D01*
X355696171Y-155232468D01*
X355686910Y-155179329D01*
X355678740Y-155064222D01*
X355671744Y-154898792D01*
X355666007Y-154694688D01*
X355661613Y-154463556D01*
X355658644Y-154217043D01*
X355657186Y-153966797D01*
X355657322Y-153724465D01*
X355659135Y-153501693D01*
X355662710Y-153310130D01*
X355668131Y-153161422D01*
X355675481Y-153067216D01*
X355680409Y-153042769D01*
X355697742Y-153021148D01*
X355737433Y-153005523D01*
X355809713Y-152994971D01*
X355924813Y-152988571D01*
X356092964Y-152985401D01*
X356324396Y-152984541D01*
X356326944Y-152984540D01*
X356951135Y-152984540D01*
X356939600Y-153104178D01*
G36*
X358765464Y-152989343D02*
G01*
X358807338Y-152990493D01*
X359013277Y-152998772D01*
X359162582Y-153011722D01*
X359272211Y-153031892D01*
X359359123Y-153061828D01*
X359394441Y-153078702D01*
X359525759Y-153181500D01*
X359631643Y-153329173D01*
X359695417Y-153494372D01*
X359706531Y-153590529D01*
X359674414Y-153765235D01*
X359590613Y-153930834D01*
X359470259Y-154060432D01*
X359425137Y-154090693D01*
X359284006Y-154171872D01*
X359398822Y-154293540D01*
X359449103Y-154364276D01*
X359513779Y-154479789D01*
X359586217Y-154624976D01*
X359659783Y-154784732D01*
X359727842Y-154943955D01*
X359783762Y-155087539D01*
X359820907Y-155200381D01*
X359832644Y-155267377D01*
X359830356Y-155276062D01*
X359786045Y-155293814D01*
X359697398Y-155303219D01*
X359671574Y-155303671D01*
X359529718Y-155303671D01*
X359429020Y-155036787D01*
X359326089Y-154778005D01*
X359233996Y-154582659D01*
X359145931Y-154442707D01*
X359055083Y-154350107D01*
X358954641Y-154296820D01*
X358837796Y-154274803D01*
X358782086Y-154272946D01*
X358602992Y-154272946D01*
X358602992Y-155303671D01*
X358461881Y-155303671D01*
X358364602Y-155297790D01*
X358302332Y-155283240D01*
X358296229Y-155279130D01*
X358289980Y-155237415D01*
X358284317Y-155131487D01*
X358279452Y-154970757D01*
X358275594Y-154764634D01*
X358272954Y-154522527D01*
X358271743Y-154253846D01*
X358271688Y-154181818D01*
X358272083Y-154015265D01*
X358602992Y-154015265D01*
X358836824Y-154015265D01*
X358992239Y-154007685D01*
X359104316Y-153980392D01*
X359195251Y-153931300D01*
X359315105Y-153817124D01*
X359367861Y-153677234D01*
X359360776Y-153522133D01*
X359309225Y-153393439D01*
X359207356Y-153305904D01*
X359049776Y-153256564D01*
X358851470Y-153242359D01*
X358602992Y-153242222D01*
X358602992Y-154015265D01*
X358272083Y-154015265D01*
X358272472Y-153851312D01*
X358275015Y-153587711D01*
X358279597Y-153384312D01*
X358286502Y-153234410D01*
X358296010Y-153131303D01*
X358308404Y-153068287D01*
X358319585Y-153043544D01*
X358347943Y-153015652D01*
X358393207Y-152997755D01*
X358468879Y-152988383D01*
X358588464Y-152986069D01*
X358765464Y-152989343D01*
G37*
X358765464Y-152989343D02*
X358807338Y-152990493D01*
X359013277Y-152998772D01*
X359162582Y-153011722D01*
X359272211Y-153031892D01*
X359359123Y-153061828D01*
X359394441Y-153078702D01*
X359525759Y-153181500D01*
X359631643Y-153329173D01*
X359695417Y-153494372D01*
X359706531Y-153590529D01*
X359674414Y-153765235D01*
X359590613Y-153930834D01*
X359470259Y-154060432D01*
X359425137Y-154090693D01*
X359284006Y-154171872D01*
X359398822Y-154293540D01*
X359449103Y-154364276D01*
X359513779Y-154479789D01*
X359586217Y-154624976D01*
X359659783Y-154784732D01*
X359727842Y-154943955D01*
X359783762Y-155087539D01*
X359820907Y-155200381D01*
X359832644Y-155267377D01*
X359830356Y-155276062D01*
X359786045Y-155293814D01*
X359697398Y-155303219D01*
X359671574Y-155303671D01*
X359529718Y-155303671D01*
X359429020Y-155036787D01*
X359326089Y-154778005D01*
X359233996Y-154582659D01*
X359145931Y-154442707D01*
X359055083Y-154350107D01*
X358954641Y-154296820D01*
X358837796Y-154274803D01*
X358782086Y-154272946D01*
X358602992Y-154272946D01*
X358602992Y-155303671D01*
X358461881Y-155303671D01*
X358364602Y-155297790D01*
X358302332Y-155283240D01*
X358296229Y-155279130D01*
X358289980Y-155237415D01*
X358284317Y-155131487D01*
X358279452Y-154970757D01*
X358275594Y-154764634D01*
X358272954Y-154522527D01*
X358271743Y-154253846D01*
X358271688Y-154181818D01*
X358272083Y-154015265D01*
X358602992Y-154015265D01*
X358836824Y-154015265D01*
X358992239Y-154007685D01*
X359104316Y-153980392D01*
X359195251Y-153931300D01*
X359315105Y-153817124D01*
X359367861Y-153677234D01*
X359360776Y-153522133D01*
X359309225Y-153393439D01*
X359207356Y-153305904D01*
X359049776Y-153256564D01*
X358851470Y-153242359D01*
X358602992Y-153242222D01*
X358602992Y-154015265D01*
X358272083Y-154015265D01*
X358272472Y-153851312D01*
X358275015Y-153587711D01*
X358279597Y-153384312D01*
X358286502Y-153234410D01*
X358296010Y-153131303D01*
X358308404Y-153068287D01*
X358319585Y-153043544D01*
X358347943Y-153015652D01*
X358393207Y-152997755D01*
X358468879Y-152988383D01*
X358588464Y-152986069D01*
X358765464Y-152989343D01*
G36*
X361400673Y-155303671D02*
G01*
X361106180Y-155303671D01*
X361106180Y-152984540D01*
X361400673Y-152984540D01*
X361400673Y-155303671D01*
G37*
X361400673Y-155303671D02*
X361106180Y-155303671D01*
X361106180Y-152984540D01*
X361400673Y-152984540D01*
X361400673Y-155303671D01*
G36*
X366401045Y-152993930D02*
G01*
X366507042Y-153024936D01*
X366548487Y-153052354D01*
X366580670Y-153104862D01*
X366634463Y-153215709D01*
X366705281Y-153374432D01*
X366788537Y-153570565D01*
X366879645Y-153793643D01*
X366939688Y-153945035D01*
X367031169Y-154176837D01*
X367114833Y-154385913D01*
X367186656Y-154562440D01*
X367242611Y-154696594D01*
X367278674Y-154778549D01*
X367289731Y-154799397D01*
X367310181Y-154774894D01*
X367354012Y-154690661D01*
X367417295Y-154555335D01*
X367496098Y-154377555D01*
X367586493Y-154165961D01*
X367674928Y-153952730D01*
X367774551Y-153712978D01*
X367868149Y-153494653D01*
X367951336Y-153307444D01*
X368019728Y-153161037D01*
X368068939Y-153065118D01*
X368092368Y-153030555D01*
X368170996Y-152999416D01*
X368284749Y-152986043D01*
X368404486Y-152990145D01*
X368501066Y-153011432D01*
X368538170Y-153034996D01*
X368551278Y-153077972D01*
X368561141Y-153174025D01*
X368567873Y-153327222D01*
X368571588Y-153541631D01*
X368572398Y-153821320D01*
X368570418Y-154170359D01*
X368570286Y-154185358D01*
X368560528Y-155285265D01*
X368266035Y-155285265D01*
X368247630Y-154291732D01*
X368229224Y-153298200D01*
X367825731Y-154300935D01*
X367422239Y-155303671D01*
X367149816Y-155303671D01*
X366865217Y-154576642D01*
X366773003Y-154341098D01*
X366683046Y-154111361D01*
X366601284Y-153902589D01*
X366533651Y-153729940D01*
X366486086Y-153608574D01*
X366481374Y-153596556D01*
X366382130Y-153343498D01*
X366357778Y-153906104D01*
X366348647Y-154147687D01*
X366341077Y-154406318D01*
X366335780Y-154653278D01*
X366333471Y-154859846D01*
X366333427Y-154886190D01*
X366333427Y-155303671D01*
X366038934Y-155303671D01*
X366038934Y-154188280D01*
X366039816Y-153843310D01*
X366042596Y-153566714D01*
X366047472Y-153353264D01*
X366054644Y-153197730D01*
X366064311Y-153094882D01*
X366076672Y-153039492D01*
X366083108Y-153028714D01*
X366159376Y-152994311D01*
X366275256Y-152983219D01*
X366401045Y-152993930D01*
G37*
X366401045Y-152993930D02*
X366507042Y-153024936D01*
X366548487Y-153052354D01*
X366580670Y-153104862D01*
X366634463Y-153215709D01*
X366705281Y-153374432D01*
X366788537Y-153570565D01*
X366879645Y-153793643D01*
X366939688Y-153945035D01*
X367031169Y-154176837D01*
X367114833Y-154385913D01*
X367186656Y-154562440D01*
X367242611Y-154696594D01*
X367278674Y-154778549D01*
X367289731Y-154799397D01*
X367310181Y-154774894D01*
X367354012Y-154690661D01*
X367417295Y-154555335D01*
X367496098Y-154377555D01*
X367586493Y-154165961D01*
X367674928Y-153952730D01*
X367774551Y-153712978D01*
X367868149Y-153494653D01*
X367951336Y-153307444D01*
X368019728Y-153161037D01*
X368068939Y-153065118D01*
X368092368Y-153030555D01*
X368170996Y-152999416D01*
X368284749Y-152986043D01*
X368404486Y-152990145D01*
X368501066Y-153011432D01*
X368538170Y-153034996D01*
X368551278Y-153077972D01*
X368561141Y-153174025D01*
X368567873Y-153327222D01*
X368571588Y-153541631D01*
X368572398Y-153821320D01*
X368570418Y-154170359D01*
X368570286Y-154185358D01*
X368560528Y-155285265D01*
X368266035Y-155285265D01*
X368247630Y-154291732D01*
X368229224Y-153298200D01*
X367825731Y-154300935D01*
X367422239Y-155303671D01*
X367149816Y-155303671D01*
X366865217Y-154576642D01*
X366773003Y-154341098D01*
X366683046Y-154111361D01*
X366601284Y-153902589D01*
X366533651Y-153729940D01*
X366486086Y-153608574D01*
X366481374Y-153596556D01*
X366382130Y-153343498D01*
X366357778Y-153906104D01*
X366348647Y-154147687D01*
X366341077Y-154406318D01*
X366335780Y-154653278D01*
X366333471Y-154859846D01*
X366333427Y-154886190D01*
X366333427Y-155303671D01*
X366038934Y-155303671D01*
X366038934Y-154188280D01*
X366039816Y-153843310D01*
X366042596Y-153566714D01*
X366047472Y-153353264D01*
X366054644Y-153197730D01*
X366064311Y-153094882D01*
X366076672Y-153039492D01*
X366083108Y-153028714D01*
X366159376Y-152994311D01*
X366275256Y-152983219D01*
X366401045Y-152993930D01*
D11*
X342322050Y-150175700D02*
X370197050Y-150175700D01*
X342544850Y-158435700D02*
X370419850Y-158435700D01*
X370197050Y-150175700D02*
G75*
G02*
X370419850Y-158435700I111400J-4130000D01*
G01*
X342544850Y-158435700D02*
G75*
G02*
X342322050Y-150175700I-111400J4130000D01*
G01*
D10*
G36*
X351167343Y-152957902D02*
G01*
X351314428Y-152975900D01*
X351449846Y-153006604D01*
X351526256Y-153035151D01*
X351609266Y-153091061D01*
X351641737Y-153161641D01*
X351645601Y-153224761D01*
X351641129Y-153305874D01*
X351618080Y-153342663D01*
X351562003Y-153338647D01*
X351458450Y-153297349D01*
X351419548Y-153279842D01*
X351229366Y-153219238D01*
X351054786Y-153211453D01*
X350907506Y-153253326D01*
X350799224Y-153341694D01*
X350743847Y-153462499D01*
X350737997Y-153568555D01*
X350774686Y-153665801D01*
X350860812Y-153761882D01*
X351003272Y-153864444D01*
X351208963Y-153981132D01*
X351214219Y-153983899D01*
X351403136Y-154090694D01*
X351553709Y-154190888D01*
X351652665Y-154275419D01*
X351668671Y-154294195D01*
X351760277Y-154470049D01*
X351788334Y-154661066D01*
X351756666Y-154852716D01*
X351669095Y-155030470D01*
X351529442Y-155179799D01*
X351416505Y-155252707D01*
X351285802Y-155295570D01*
X351111945Y-155320238D01*
X350923445Y-155325379D01*
X350748816Y-155309658D01*
X350657903Y-155288166D01*
X350489738Y-155214178D01*
X350390608Y-155123398D01*
X350357216Y-155012774D01*
X350357195Y-155009608D01*
X350364856Y-154924722D01*
X350396483Y-154889879D01*
X350465042Y-154901573D01*
X350573345Y-154951158D01*
X350783731Y-155032824D01*
X350982154Y-155064818D01*
X351158685Y-155049990D01*
X351303396Y-154991190D01*
X351406357Y-154891267D01*
X351457640Y-154753069D01*
X351461543Y-154696280D01*
X351440233Y-154579313D01*
X351371266Y-154472421D01*
X351247084Y-154367866D01*
X351060130Y-154257913D01*
X351006715Y-154230677D01*
X350785129Y-154111007D01*
X350625775Y-154000144D01*
X350519841Y-153887582D01*
X350458515Y-153762812D01*
X350432986Y-153615328D01*
X350430818Y-153543986D01*
X350462966Y-153345103D01*
X350559830Y-153180798D01*
X350722037Y-153050093D01*
X350762420Y-153027875D01*
X350874852Y-152978417D01*
X350983217Y-152956154D01*
X351121192Y-152955267D01*
X351167343Y-152957902D01*
G37*
X351167343Y-152957902D02*
X351314428Y-152975900D01*
X351449846Y-153006604D01*
X351526256Y-153035151D01*
X351609266Y-153091061D01*
X351641737Y-153161641D01*
X351645601Y-153224761D01*
X351641129Y-153305874D01*
X351618080Y-153342663D01*
X351562003Y-153338647D01*
X351458450Y-153297349D01*
X351419548Y-153279842D01*
X351229366Y-153219238D01*
X351054786Y-153211453D01*
X350907506Y-153253326D01*
X350799224Y-153341694D01*
X350743847Y-153462499D01*
X350737997Y-153568555D01*
X350774686Y-153665801D01*
X350860812Y-153761882D01*
X351003272Y-153864444D01*
X351208963Y-153981132D01*
X351214219Y-153983899D01*
X351403136Y-154090694D01*
X351553709Y-154190888D01*
X351652665Y-154275419D01*
X351668671Y-154294195D01*
X351760277Y-154470049D01*
X351788334Y-154661066D01*
X351756666Y-154852716D01*
X351669095Y-155030470D01*
X351529442Y-155179799D01*
X351416505Y-155252707D01*
X351285802Y-155295570D01*
X351111945Y-155320238D01*
X350923445Y-155325379D01*
X350748816Y-155309658D01*
X350657903Y-155288166D01*
X350489738Y-155214178D01*
X350390608Y-155123398D01*
X350357216Y-155012774D01*
X350357195Y-155009608D01*
X350364856Y-154924722D01*
X350396483Y-154889879D01*
X350465042Y-154901573D01*
X350573345Y-154951158D01*
X350783731Y-155032824D01*
X350982154Y-155064818D01*
X351158685Y-155049990D01*
X351303396Y-154991190D01*
X351406357Y-154891267D01*
X351457640Y-154753069D01*
X351461543Y-154696280D01*
X351440233Y-154579313D01*
X351371266Y-154472421D01*
X351247084Y-154367866D01*
X351060130Y-154257913D01*
X351006715Y-154230677D01*
X350785129Y-154111007D01*
X350625775Y-154000144D01*
X350519841Y-153887582D01*
X350458515Y-153762812D01*
X350432986Y-153615328D01*
X350430818Y-153543986D01*
X350462966Y-153345103D01*
X350559830Y-153180798D01*
X350722037Y-153050093D01*
X350762420Y-153027875D01*
X350874852Y-152978417D01*
X350983217Y-152956154D01*
X351121192Y-152955267D01*
X351167343Y-152957902D01*
G36*
X363168438Y-153803598D02*
G01*
X363169318Y-154076251D01*
X363171875Y-154286117D01*
X363176897Y-154444024D01*
X363185171Y-154560805D01*
X363197483Y-154647289D01*
X363214622Y-154714306D01*
X363237375Y-154772686D01*
X363239169Y-154776664D01*
X363344353Y-154927477D01*
X363497109Y-155022353D01*
X363696495Y-155060734D01*
X363719804Y-155061459D01*
X363930768Y-155036959D01*
X364096000Y-154954966D01*
X364207232Y-154829992D01*
X364233852Y-154783764D01*
X364254298Y-154734827D01*
X364269555Y-154672900D01*
X364280607Y-154587705D01*
X364288440Y-154468963D01*
X364294037Y-154306395D01*
X364298383Y-154089721D01*
X364302034Y-153840410D01*
X364313684Y-152984540D01*
X364608022Y-152984540D01*
X364584876Y-154775924D01*
X364474113Y-154954956D01*
X364331761Y-155118449D01*
X364141560Y-155239538D01*
X363918921Y-155313479D01*
X363679254Y-155335532D01*
X363437972Y-155300952D01*
X363393171Y-155287574D01*
X363190911Y-155184197D01*
X363027976Y-155023122D01*
X362942927Y-154880338D01*
X362920990Y-154825765D01*
X362904242Y-154762172D01*
X362891989Y-154679300D01*
X362883538Y-154566889D01*
X362878196Y-154414681D01*
X362875272Y-154212416D01*
X362874072Y-153949835D01*
X362873945Y-153858816D01*
X362873137Y-152984540D01*
X363167630Y-152984540D01*
X363168438Y-153803598D01*
G37*
X363168438Y-153803598D02*
X363169318Y-154076251D01*
X363171875Y-154286117D01*
X363176897Y-154444024D01*
X363185171Y-154560805D01*
X363197483Y-154647289D01*
X363214622Y-154714306D01*
X363237375Y-154772686D01*
X363239169Y-154776664D01*
X363344353Y-154927477D01*
X363497109Y-155022353D01*
X363696495Y-155060734D01*
X363719804Y-155061459D01*
X363930768Y-155036959D01*
X364096000Y-154954966D01*
X364207232Y-154829992D01*
X364233852Y-154783764D01*
X364254298Y-154734827D01*
X364269555Y-154672900D01*
X364280607Y-154587705D01*
X364288440Y-154468963D01*
X364294037Y-154306395D01*
X364298383Y-154089721D01*
X364302034Y-153840410D01*
X364313684Y-152984540D01*
X364608022Y-152984540D01*
X364584876Y-154775924D01*
X364474113Y-154954956D01*
X364331761Y-155118449D01*
X364141560Y-155239538D01*
X363918921Y-155313479D01*
X363679254Y-155335532D01*
X363437972Y-155300952D01*
X363393171Y-155287574D01*
X363190911Y-155184197D01*
X363027976Y-155023122D01*
X362942927Y-154880338D01*
X362920990Y-154825765D01*
X362904242Y-154762172D01*
X362891989Y-154679300D01*
X362883538Y-154566889D01*
X362878196Y-154414681D01*
X362875272Y-154212416D01*
X362874072Y-153949835D01*
X362873945Y-153858816D01*
X362873137Y-152984540D01*
X363167630Y-152984540D01*
X363168438Y-153803598D01*
G36*
X344395824Y-153002721D02*
G01*
X344475356Y-153047185D01*
X344476992Y-153048961D01*
X344506225Y-153100030D01*
X344557820Y-153209555D01*
X344627384Y-153367405D01*
X344710524Y-153563445D01*
X344802846Y-153787542D01*
X344876164Y-153969669D01*
X344970196Y-154202039D01*
X345056364Y-154408245D01*
X345130769Y-154579491D01*
X345189507Y-154706979D01*
X345228679Y-154781914D01*
X345243505Y-154797929D01*
X345264170Y-154757317D01*
X345308340Y-154658158D01*
X345371886Y-154510148D01*
X345450680Y-154322982D01*
X345540592Y-154106352D01*
X345608233Y-153941642D01*
X345705356Y-153707247D01*
X345796516Y-153493074D01*
X345877132Y-153309434D01*
X345942621Y-153166632D01*
X345988402Y-153074979D01*
X346005752Y-153047338D01*
X346060954Y-153007395D01*
X346146474Y-152990803D01*
X346269079Y-152992120D01*
X346473572Y-153002946D01*
X346483299Y-154153309D01*
X346493026Y-155303671D01*
X346197485Y-155303671D01*
X346197485Y-154285217D01*
X346196563Y-154021655D01*
X346193961Y-153785327D01*
X346189922Y-153585276D01*
X346184691Y-153430547D01*
X346178512Y-153330182D01*
X346171630Y-153293226D01*
X346170701Y-153293546D01*
X346150645Y-153333417D01*
X346107175Y-153432876D01*
X346043974Y-153583056D01*
X345964726Y-153775091D01*
X345873115Y-154000115D01*
X345772824Y-154249260D01*
X345751412Y-154302797D01*
X345358906Y-155285265D01*
X345225005Y-155296751D01*
X345148025Y-155299362D01*
X345098244Y-155280379D01*
X345057361Y-155224455D01*
X345007075Y-155116244D01*
X345005520Y-155112693D01*
X344967288Y-155021284D01*
X344907813Y-154874039D01*
X344832213Y-154683866D01*
X344745604Y-154463669D01*
X344653104Y-154226358D01*
X344610812Y-154117140D01*
X344301688Y-153317132D01*
X344283282Y-154301198D01*
X344264876Y-155285265D01*
X344134720Y-155296220D01*
X344040914Y-155296761D01*
X343981949Y-155283707D01*
X343978270Y-155280882D01*
X343969346Y-155236083D01*
X343962286Y-155128942D01*
X343957029Y-154970714D01*
X343953516Y-154772656D01*
X343951688Y-154546024D01*
X343951485Y-154302073D01*
X343952846Y-154052059D01*
X343955712Y-153807238D01*
X343960024Y-153578866D01*
X343965721Y-153378199D01*
X343972745Y-153216492D01*
X343981034Y-153105003D01*
X343990084Y-153055744D01*
X344051978Y-153008590D01*
X344157793Y-152983791D01*
X344281189Y-152981712D01*
X344395824Y-153002721D01*
G37*
X344395824Y-153002721D02*
X344475356Y-153047185D01*
X344476992Y-153048961D01*
X344506225Y-153100030D01*
X344557820Y-153209555D01*
X344627384Y-153367405D01*
X344710524Y-153563445D01*
X344802846Y-153787542D01*
X344876164Y-153969669D01*
X344970196Y-154202039D01*
X345056364Y-154408245D01*
X345130769Y-154579491D01*
X345189507Y-154706979D01*
X345228679Y-154781914D01*
X345243505Y-154797929D01*
X345264170Y-154757317D01*
X345308340Y-154658158D01*
X345371886Y-154510148D01*
X345450680Y-154322982D01*
X345540592Y-154106352D01*
X345608233Y-153941642D01*
X345705356Y-153707247D01*
X345796516Y-153493074D01*
X345877132Y-153309434D01*
X345942621Y-153166632D01*
X345988402Y-153074979D01*
X346005752Y-153047338D01*
X346060954Y-153007395D01*
X346146474Y-152990803D01*
X346269079Y-152992120D01*
X346473572Y-153002946D01*
X346483299Y-154153309D01*
X346493026Y-155303671D01*
X346197485Y-155303671D01*
X346197485Y-154285217D01*
X346196563Y-154021655D01*
X346193961Y-153785327D01*
X346189922Y-153585276D01*
X346184691Y-153430547D01*
X346178512Y-153330182D01*
X346171630Y-153293226D01*
X346170701Y-153293546D01*
X346150645Y-153333417D01*
X346107175Y-153432876D01*
X346043974Y-153583056D01*
X345964726Y-153775091D01*
X345873115Y-154000115D01*
X345772824Y-154249260D01*
X345751412Y-154302797D01*
X345358906Y-155285265D01*
X345225005Y-155296751D01*
X345148025Y-155299362D01*
X345098244Y-155280379D01*
X345057361Y-155224455D01*
X345007075Y-155116244D01*
X345005520Y-155112693D01*
X344967288Y-155021284D01*
X344907813Y-154874039D01*
X344832213Y-154683866D01*
X344745604Y-154463669D01*
X344653104Y-154226358D01*
X344610812Y-154117140D01*
X344301688Y-153317132D01*
X344283282Y-154301198D01*
X344264876Y-155285265D01*
X344134720Y-155296220D01*
X344040914Y-155296761D01*
X343981949Y-155283707D01*
X343978270Y-155280882D01*
X343969346Y-155236083D01*
X343962286Y-155128942D01*
X343957029Y-154970714D01*
X343953516Y-154772656D01*
X343951688Y-154546024D01*
X343951485Y-154302073D01*
X343952846Y-154052059D01*
X343955712Y-153807238D01*
X343960024Y-153578866D01*
X343965721Y-153378199D01*
X343972745Y-153216492D01*
X343981034Y-153105003D01*
X343990084Y-153055744D01*
X344051978Y-153008590D01*
X344157793Y-152983791D01*
X344281189Y-152981712D01*
X344395824Y-153002721D01*
G36*
X348172243Y-153343454D02*
G01*
X348253664Y-153517532D01*
X348334275Y-153691119D01*
X348402173Y-153838526D01*
X348430732Y-153901231D01*
X348520643Y-154100095D01*
X348678315Y-153753984D01*
X348759070Y-153578825D01*
X348842419Y-153401503D01*
X348915095Y-153250121D01*
X348941651Y-153196207D01*
X349001035Y-153081804D01*
X349046981Y-153018482D01*
X349098302Y-152991138D01*
X349173810Y-152984669D01*
X349205298Y-152984540D01*
X349301436Y-152988442D01*
X349357441Y-152998265D01*
X349363282Y-153003314D01*
X349347530Y-153040345D01*
X349303490Y-153133239D01*
X349235984Y-153272102D01*
X349149834Y-153447042D01*
X349049864Y-153648163D01*
X349013572Y-153720772D01*
X348663862Y-154419457D01*
X348663862Y-155303671D01*
X348369369Y-155303671D01*
X348369369Y-154419457D01*
X348019659Y-153720772D01*
X347916087Y-153513001D01*
X347824696Y-153328047D01*
X347750308Y-153175804D01*
X347697746Y-153066165D01*
X347671832Y-153009025D01*
X347669948Y-153003314D01*
X347702892Y-152992148D01*
X347786299Y-152985425D01*
X347836806Y-152984540D01*
X348003664Y-152984540D01*
X348172243Y-153343454D01*
G37*
X348172243Y-153343454D02*
X348253664Y-153517532D01*
X348334275Y-153691119D01*
X348402173Y-153838526D01*
X348430732Y-153901231D01*
X348520643Y-154100095D01*
X348678315Y-153753984D01*
X348759070Y-153578825D01*
X348842419Y-153401503D01*
X348915095Y-153250121D01*
X348941651Y-153196207D01*
X349001035Y-153081804D01*
X349046981Y-153018482D01*
X349098302Y-152991138D01*
X349173810Y-152984669D01*
X349205298Y-152984540D01*
X349301436Y-152988442D01*
X349357441Y-152998265D01*
X349363282Y-153003314D01*
X349347530Y-153040345D01*
X349303490Y-153133239D01*
X349235984Y-153272102D01*
X349149834Y-153447042D01*
X349049864Y-153648163D01*
X349013572Y-153720772D01*
X348663862Y-154419457D01*
X348663862Y-155303671D01*
X348369369Y-155303671D01*
X348369369Y-154419457D01*
X348019659Y-153720772D01*
X347916087Y-153513001D01*
X347824696Y-153328047D01*
X347750308Y-153175804D01*
X347697746Y-153066165D01*
X347671832Y-153009025D01*
X347669948Y-153003314D01*
X347702892Y-152992148D01*
X347786299Y-152985425D01*
X347836806Y-152984540D01*
X348003664Y-152984540D01*
X348172243Y-153343454D01*
G36*
X353642630Y-152993065D02*
G01*
X354498499Y-153002946D01*
X354498499Y-153223816D01*
X353829035Y-153244832D01*
X353804958Y-153933744D01*
X353796978Y-154181213D01*
X353790103Y-154430919D01*
X353784809Y-154662616D01*
X353781570Y-154856058D01*
X353780777Y-154963164D01*
X353780673Y-155303671D01*
X353486180Y-155303671D01*
X353486180Y-153242222D01*
X352786760Y-153242222D01*
X352786760Y-152983184D01*
X353642630Y-152993065D01*
G37*
X353642630Y-152993065D02*
X354498499Y-153002946D01*
X354498499Y-153223816D01*
X353829035Y-153244832D01*
X353804958Y-153933744D01*
X353796978Y-154181213D01*
X353790103Y-154430919D01*
X353784809Y-154662616D01*
X353781570Y-154856058D01*
X353780777Y-154963164D01*
X353780673Y-155303671D01*
X353486180Y-155303671D01*
X353486180Y-153242222D01*
X352786760Y-153242222D01*
X352786760Y-152983184D01*
X353642630Y-152993065D01*
G36*
X356939600Y-153104178D02*
G01*
X356928064Y-153223816D01*
X356458717Y-153234119D01*
X355989369Y-153244421D01*
X355989369Y-153976042D01*
X356403499Y-153986451D01*
X356817630Y-153996859D01*
X356817630Y-154180917D01*
X356403499Y-154191326D01*
X355989369Y-154201734D01*
X355989369Y-155045990D01*
X356465220Y-155045990D01*
X356661872Y-155046958D01*
X356796815Y-155050908D01*
X356881949Y-155059403D01*
X356929174Y-155074011D01*
X356950390Y-155096297D01*
X356954880Y-155110410D01*
X356958631Y-155204451D01*
X356953286Y-155239251D01*
X356941306Y-155263286D01*
X356911592Y-155280523D01*
X356853538Y-155292069D01*
X356756536Y-155299032D01*
X356609980Y-155302517D01*
X356403265Y-155303632D01*
X356336081Y-155303671D01*
X356111702Y-155303084D01*
X355949792Y-155300497D01*
X355839202Y-155294668D01*
X355768782Y-155284358D01*
X355727382Y-155268325D01*
X355703853Y-155245329D01*
X355696171Y-155232468D01*
X355686910Y-155179329D01*
X355678740Y-155064222D01*
X355671744Y-154898792D01*
X355666007Y-154694688D01*
X355661613Y-154463556D01*
X355658644Y-154217043D01*
X355657186Y-153966797D01*
X355657322Y-153724465D01*
X355659135Y-153501693D01*
X355662710Y-153310130D01*
X355668131Y-153161422D01*
X355675481Y-153067216D01*
X355680409Y-153042769D01*
X355697742Y-153021148D01*
X355737433Y-153005523D01*
X355809713Y-152994971D01*
X355924813Y-152988571D01*
X356092964Y-152985401D01*
X356324396Y-152984541D01*
X356326944Y-152984540D01*
X356951135Y-152984540D01*
X356939600Y-153104178D01*
G37*
X356939600Y-153104178D02*
X356928064Y-153223816D01*
X356458717Y-153234119D01*
X355989369Y-153244421D01*
X355989369Y-153976042D01*
X356403499Y-153986451D01*
X356817630Y-153996859D01*
X356817630Y-154180917D01*
X356403499Y-154191326D01*
X355989369Y-154201734D01*
X355989369Y-155045990D01*
X356465220Y-155045990D01*
X356661872Y-155046958D01*
X356796815Y-155050908D01*
X356881949Y-155059403D01*
X356929174Y-155074011D01*
X356950390Y-155096297D01*
X356954880Y-155110410D01*
X356958631Y-155204451D01*
X356953286Y-155239251D01*
X356941306Y-155263286D01*
X356911592Y-155280523D01*
X356853538Y-155292069D01*
X356756536Y-155299032D01*
X356609980Y-155302517D01*
X356403265Y-155303632D01*
X356336081Y-155303671D01*
X356111702Y-155303084D01*
X355949792Y-155300497D01*
X355839202Y-155294668D01*
X355768782Y-155284358D01*
X355727382Y-155268325D01*
X355703853Y-155245329D01*
X355696171Y-155232468D01*
X355686910Y-155179329D01*
X355678740Y-155064222D01*
X355671744Y-154898792D01*
X355666007Y-154694688D01*
X355661613Y-154463556D01*
X355658644Y-154217043D01*
X355657186Y-153966797D01*
X355657322Y-153724465D01*
X355659135Y-153501693D01*
X355662710Y-153310130D01*
X355668131Y-153161422D01*
X355675481Y-153067216D01*
X355680409Y-153042769D01*
X355697742Y-153021148D01*
X355737433Y-153005523D01*
X355809713Y-152994971D01*
X355924813Y-152988571D01*
X356092964Y-152985401D01*
X356324396Y-152984541D01*
X356326944Y-152984540D01*
X356951135Y-152984540D01*
X356939600Y-153104178D01*
G36*
X358765464Y-152989343D02*
G01*
X358807338Y-152990493D01*
X359013277Y-152998772D01*
X359162582Y-153011722D01*
X359272211Y-153031892D01*
X359359123Y-153061828D01*
X359394441Y-153078702D01*
X359525759Y-153181500D01*
X359631643Y-153329173D01*
X359695417Y-153494372D01*
X359706531Y-153590529D01*
X359674414Y-153765235D01*
X359590613Y-153930834D01*
X359470259Y-154060432D01*
X359425137Y-154090693D01*
X359284006Y-154171872D01*
X359398822Y-154293540D01*
X359449103Y-154364276D01*
X359513779Y-154479789D01*
X359586217Y-154624976D01*
X359659783Y-154784732D01*
X359727842Y-154943955D01*
X359783762Y-155087539D01*
X359820907Y-155200381D01*
X359832644Y-155267377D01*
X359830356Y-155276062D01*
X359786045Y-155293814D01*
X359697398Y-155303219D01*
X359671574Y-155303671D01*
X359529718Y-155303671D01*
X359429020Y-155036787D01*
X359326089Y-154778005D01*
X359233996Y-154582659D01*
X359145931Y-154442707D01*
X359055083Y-154350107D01*
X358954641Y-154296820D01*
X358837796Y-154274803D01*
X358782086Y-154272946D01*
X358602992Y-154272946D01*
X358602992Y-155303671D01*
X358461881Y-155303671D01*
X358364602Y-155297790D01*
X358302332Y-155283240D01*
X358296229Y-155279130D01*
X358289980Y-155237415D01*
X358284317Y-155131487D01*
X358279452Y-154970757D01*
X358275594Y-154764634D01*
X358272954Y-154522527D01*
X358271743Y-154253846D01*
X358271688Y-154181818D01*
X358272083Y-154015265D01*
X358602992Y-154015265D01*
X358836824Y-154015265D01*
X358992239Y-154007685D01*
X359104316Y-153980392D01*
X359195251Y-153931300D01*
X359315105Y-153817124D01*
X359367861Y-153677234D01*
X359360776Y-153522133D01*
X359309225Y-153393439D01*
X359207356Y-153305904D01*
X359049776Y-153256564D01*
X358851470Y-153242359D01*
X358602992Y-153242222D01*
X358602992Y-154015265D01*
X358272083Y-154015265D01*
X358272472Y-153851312D01*
X358275015Y-153587711D01*
X358279597Y-153384312D01*
X358286502Y-153234410D01*
X358296010Y-153131303D01*
X358308404Y-153068287D01*
X358319585Y-153043544D01*
X358347943Y-153015652D01*
X358393207Y-152997755D01*
X358468879Y-152988383D01*
X358588464Y-152986069D01*
X358765464Y-152989343D01*
G37*
X358765464Y-152989343D02*
X358807338Y-152990493D01*
X359013277Y-152998772D01*
X359162582Y-153011722D01*
X359272211Y-153031892D01*
X359359123Y-153061828D01*
X359394441Y-153078702D01*
X359525759Y-153181500D01*
X359631643Y-153329173D01*
X359695417Y-153494372D01*
X359706531Y-153590529D01*
X359674414Y-153765235D01*
X359590613Y-153930834D01*
X359470259Y-154060432D01*
X359425137Y-154090693D01*
X359284006Y-154171872D01*
X359398822Y-154293540D01*
X359449103Y-154364276D01*
X359513779Y-154479789D01*
X359586217Y-154624976D01*
X359659783Y-154784732D01*
X359727842Y-154943955D01*
X359783762Y-155087539D01*
X359820907Y-155200381D01*
X359832644Y-155267377D01*
X359830356Y-155276062D01*
X359786045Y-155293814D01*
X359697398Y-155303219D01*
X359671574Y-155303671D01*
X359529718Y-155303671D01*
X359429020Y-155036787D01*
X359326089Y-154778005D01*
X359233996Y-154582659D01*
X359145931Y-154442707D01*
X359055083Y-154350107D01*
X358954641Y-154296820D01*
X358837796Y-154274803D01*
X358782086Y-154272946D01*
X358602992Y-154272946D01*
X358602992Y-155303671D01*
X358461881Y-155303671D01*
X358364602Y-155297790D01*
X358302332Y-155283240D01*
X358296229Y-155279130D01*
X358289980Y-155237415D01*
X358284317Y-155131487D01*
X358279452Y-154970757D01*
X358275594Y-154764634D01*
X358272954Y-154522527D01*
X358271743Y-154253846D01*
X358271688Y-154181818D01*
X358272083Y-154015265D01*
X358602992Y-154015265D01*
X358836824Y-154015265D01*
X358992239Y-154007685D01*
X359104316Y-153980392D01*
X359195251Y-153931300D01*
X359315105Y-153817124D01*
X359367861Y-153677234D01*
X359360776Y-153522133D01*
X359309225Y-153393439D01*
X359207356Y-153305904D01*
X359049776Y-153256564D01*
X358851470Y-153242359D01*
X358602992Y-153242222D01*
X358602992Y-154015265D01*
X358272083Y-154015265D01*
X358272472Y-153851312D01*
X358275015Y-153587711D01*
X358279597Y-153384312D01*
X358286502Y-153234410D01*
X358296010Y-153131303D01*
X358308404Y-153068287D01*
X358319585Y-153043544D01*
X358347943Y-153015652D01*
X358393207Y-152997755D01*
X358468879Y-152988383D01*
X358588464Y-152986069D01*
X358765464Y-152989343D01*
G36*
X361400673Y-155303671D02*
G01*
X361106180Y-155303671D01*
X361106180Y-152984540D01*
X361400673Y-152984540D01*
X361400673Y-155303671D01*
G37*
X361400673Y-155303671D02*
X361106180Y-155303671D01*
X361106180Y-152984540D01*
X361400673Y-152984540D01*
X361400673Y-155303671D01*
G36*
X366401045Y-152993930D02*
G01*
X366507042Y-153024936D01*
X366548487Y-153052354D01*
X366580670Y-153104862D01*
X366634463Y-153215709D01*
X366705281Y-153374432D01*
X366788537Y-153570565D01*
X366879645Y-153793643D01*
X366939688Y-153945035D01*
X367031169Y-154176837D01*
X367114833Y-154385913D01*
X367186656Y-154562440D01*
X367242611Y-154696594D01*
X367278674Y-154778549D01*
X367289731Y-154799397D01*
X367310181Y-154774894D01*
X367354012Y-154690661D01*
X367417295Y-154555335D01*
X367496098Y-154377555D01*
X367586493Y-154165961D01*
X367674928Y-153952730D01*
X367774551Y-153712978D01*
X367868149Y-153494653D01*
X367951336Y-153307444D01*
X368019728Y-153161037D01*
X368068939Y-153065118D01*
X368092368Y-153030555D01*
X368170996Y-152999416D01*
X368284749Y-152986043D01*
X368404486Y-152990145D01*
X368501066Y-153011432D01*
X368538170Y-153034996D01*
X368551278Y-153077972D01*
X368561141Y-153174025D01*
X368567873Y-153327222D01*
X368571588Y-153541631D01*
X368572398Y-153821320D01*
X368570418Y-154170359D01*
X368570286Y-154185358D01*
X368560528Y-155285265D01*
X368266035Y-155285265D01*
X368247630Y-154291732D01*
X368229224Y-153298200D01*
X367825731Y-154300935D01*
X367422239Y-155303671D01*
X367149816Y-155303671D01*
X366865217Y-154576642D01*
X366773003Y-154341098D01*
X366683046Y-154111361D01*
X366601284Y-153902589D01*
X366533651Y-153729940D01*
X366486086Y-153608574D01*
X366481374Y-153596556D01*
X366382130Y-153343498D01*
X366357778Y-153906104D01*
X366348647Y-154147687D01*
X366341077Y-154406318D01*
X366335780Y-154653278D01*
X366333471Y-154859846D01*
X366333427Y-154886190D01*
X366333427Y-155303671D01*
X366038934Y-155303671D01*
X366038934Y-154188280D01*
X366039816Y-153843310D01*
X366042596Y-153566714D01*
X366047472Y-153353264D01*
X366054644Y-153197730D01*
X366064311Y-153094882D01*
X366076672Y-153039492D01*
X366083108Y-153028714D01*
X366159376Y-152994311D01*
X366275256Y-152983219D01*
X366401045Y-152993930D01*
G37*
X366401045Y-152993930D02*
X366507042Y-153024936D01*
X366548487Y-153052354D01*
X366580670Y-153104862D01*
X366634463Y-153215709D01*
X366705281Y-153374432D01*
X366788537Y-153570565D01*
X366879645Y-153793643D01*
X366939688Y-153945035D01*
X367031169Y-154176837D01*
X367114833Y-154385913D01*
X367186656Y-154562440D01*
X367242611Y-154696594D01*
X367278674Y-154778549D01*
X367289731Y-154799397D01*
X367310181Y-154774894D01*
X367354012Y-154690661D01*
X367417295Y-154555335D01*
X367496098Y-154377555D01*
X367586493Y-154165961D01*
X367674928Y-153952730D01*
X367774551Y-153712978D01*
X367868149Y-153494653D01*
X367951336Y-153307444D01*
X368019728Y-153161037D01*
X368068939Y-153065118D01*
X368092368Y-153030555D01*
X368170996Y-152999416D01*
X368284749Y-152986043D01*
X368404486Y-152990145D01*
X368501066Y-153011432D01*
X368538170Y-153034996D01*
X368551278Y-153077972D01*
X368561141Y-153174025D01*
X368567873Y-153327222D01*
X368571588Y-153541631D01*
X368572398Y-153821320D01*
X368570418Y-154170359D01*
X368570286Y-154185358D01*
X368560528Y-155285265D01*
X368266035Y-155285265D01*
X368247630Y-154291732D01*
X368229224Y-153298200D01*
X367825731Y-154300935D01*
X367422239Y-155303671D01*
X367149816Y-155303671D01*
X366865217Y-154576642D01*
X366773003Y-154341098D01*
X366683046Y-154111361D01*
X366601284Y-153902589D01*
X366533651Y-153729940D01*
X366486086Y-153608574D01*
X366481374Y-153596556D01*
X366382130Y-153343498D01*
X366357778Y-153906104D01*
X366348647Y-154147687D01*
X366341077Y-154406318D01*
X366335780Y-154653278D01*
X366333471Y-154859846D01*
X366333427Y-154886190D01*
X366333427Y-155303671D01*
X366038934Y-155303671D01*
X366038934Y-154188280D01*
X366039816Y-153843310D01*
X366042596Y-153566714D01*
X366047472Y-153353264D01*
X366054644Y-153197730D01*
X366064311Y-153094882D01*
X366076672Y-153039492D01*
X366083108Y-153028714D01*
X366159376Y-152994311D01*
X366275256Y-152983219D01*
X366401045Y-152993930D01*
D11*
X342322050Y-150175700D02*
X370197050Y-150175700D01*
X342544850Y-158435700D02*
X370419850Y-158435700D01*
X370197050Y-150175700D02*
G75*
G02*
X370419850Y-158435700I111400J-4130000D01*
G01*
X342544850Y-158435700D02*
G75*
G02*
X342322050Y-150175700I-111400J4130000D01*
G01*
M02*
