%TF.GenerationSoftware,KiCad,Pcbnew,5.1.7-a382d34a8~88~ubuntu20.04.1*%
%TF.CreationDate,2021-03-29T02:50:00+02:00*%
%TF.ProjectId,mysterium-plate,6d797374-6572-4697-956d-2d706c617465,rev?*%
%TF.SameCoordinates,Original*%
%TF.FileFunction,Legend,Bot*%
%TF.FilePolarity,Positive*%
%FSLAX46Y46*%
G04 Gerber Fmt 4.6, Leading zero omitted, Abs format (unit mm)*
G04 Created by KiCad (PCBNEW 5.1.7-a382d34a8~88~ubuntu20.04.1) date 2021-03-29 02:50:00*
%MOMM*%
%LPD*%
G01*
G04 APERTURE LIST*
%TA.AperFunction,Profile*%
%ADD10C,0.200000*%
%TD*%
%ADD11C,0.200000*%
%TA.AperFunction,Profile*%
%ADD12C,0.150000*%
%TD*%
G04 APERTURE END LIST*
D10*
X288432738Y-123985408D02*
X288432742Y-124205969D01*
X319308738Y-123985414D02*
X319308759Y-124205969D01*
X319852238Y-123095691D02*
G75*
G03*
X320395738Y-122205968I-456500J889723D01*
G01*
X319852238Y-123095691D02*
G75*
G03*
X319308738Y-123985414I456500J-889723D01*
G01*
X287889238Y-123095685D02*
G75*
G02*
X288432738Y-123985408I-456500J-889723D01*
G01*
X287889238Y-123095685D02*
G75*
G02*
X287345738Y-122205962I456500J889723D01*
G01*
X319395737Y-109205961D02*
G75*
G02*
X320395738Y-110205962I0J-1000001D01*
G01*
X320395738Y-122205968D02*
X320395738Y-110205962D01*
X287345738Y-110205962D02*
X287345738Y-122205962D01*
X287345738Y-110205962D02*
G75*
G02*
X288345738Y-109205962I1000000J0D01*
G01*
X42628250Y-180221624D02*
G75*
G02*
X43171750Y-181111347I-456500J-889723D01*
G01*
X51171750Y-180331900D02*
X66047750Y-180331900D01*
X43084750Y-166331901D02*
X76516000Y-166331901D01*
X66047750Y-180331901D02*
G75*
G02*
X67047750Y-181331901I0J-1000000D01*
G01*
X74047750Y-181331901D02*
X74047750Y-181331901D01*
X67047750Y-181331901D02*
X67047750Y-181331901D01*
X43171749Y-181331901D02*
X43171749Y-181111347D01*
X50171750Y-181331901D02*
X50171750Y-181331901D01*
X75047750Y-180331900D02*
X76516000Y-180331900D01*
X74047750Y-181331901D02*
G75*
G02*
X75047750Y-180331901I1000000J0D01*
G01*
X50171750Y-181331901D02*
G75*
G02*
X51171750Y-180331901I1000000J0D01*
G01*
X44171749Y-182331901D02*
G75*
G02*
X43171749Y-181331901I0J1000000D01*
G01*
X42084750Y-167331900D02*
X42084750Y-179331901D01*
X44171749Y-182331900D02*
X49171750Y-182331900D01*
X77516000Y-179331901D02*
G75*
G02*
X76516000Y-180331901I-1000000J0D01*
G01*
X42628250Y-180221624D02*
G75*
G02*
X42084750Y-179331901I456500J889723D01*
G01*
X42084750Y-167331900D02*
G75*
G02*
X43084750Y-166331900I1000000J0D01*
G01*
X50171750Y-181331901D02*
G75*
G02*
X49171750Y-182331901I-1000000J0D01*
G01*
X77516000Y-167331900D02*
X77516000Y-179331901D01*
X68047750Y-182331901D02*
G75*
G02*
X67047750Y-181331901I0J1000000D01*
G01*
X68047750Y-182331900D02*
X73047750Y-182331900D01*
X76516000Y-166331900D02*
G75*
G02*
X77516000Y-167331900I0J-1000000D01*
G01*
X74047750Y-181331901D02*
G75*
G02*
X73047750Y-182331901I-1000000J0D01*
G01*
X310927504Y-163305990D02*
X316010000Y-163305990D01*
X310927504Y-163305991D02*
G75*
G02*
X309927503Y-162305990I0J1000001D01*
G01*
X308927503Y-161305990D02*
G75*
G02*
X309927503Y-162305990I0J-1000000D01*
G01*
X283578300Y-147307301D02*
X303009550Y-147307301D01*
X283578300Y-161307301D02*
X285046550Y-161307301D01*
X286046550Y-162307301D02*
X286046550Y-162307301D01*
X285046550Y-161307301D02*
G75*
G02*
X286046550Y-162307301I0J-1000000D01*
G01*
X282578300Y-148307301D02*
G75*
G02*
X283578300Y-147307301I1000000J0D01*
G01*
X287046550Y-163307301D02*
G75*
G02*
X286046550Y-162307301I0J1000000D01*
G01*
X282578300Y-148307301D02*
X282578300Y-160307301D01*
X283578300Y-161307301D02*
G75*
G02*
X282578300Y-160307301I0J1000000D01*
G01*
X304009550Y-146307301D02*
X304009550Y-143257301D01*
X317009550Y-162307301D02*
G75*
G02*
X316009550Y-163307301I-1000000J0D01*
G01*
X317509550Y-137916275D02*
G75*
G02*
X317009550Y-137050250I500000J866025D01*
G01*
X316219762Y-129366645D02*
G75*
G02*
X315529137Y-128823145I210213J977656D01*
G01*
X317009550Y-130344301D02*
X317009550Y-137050250D01*
X303009550Y-142257301D02*
G75*
G02*
X304009550Y-143257301I0J-1000000D01*
G01*
X303009550Y-142257301D02*
X302628299Y-142257301D01*
X304009550Y-146307301D02*
G75*
G02*
X303009550Y-147307301I-1000000J0D01*
G01*
X317009550Y-152514351D02*
G75*
G02*
X317509550Y-151648326I1000000J0D01*
G01*
X317009550Y-162307301D02*
X317009550Y-152514351D01*
X316219763Y-129366645D02*
G75*
G02*
X317009550Y-130344301I-210213J-977656D01*
G01*
X318009550Y-150782301D02*
G75*
G02*
X317509550Y-151648326I-1000000J0D01*
G01*
X302628299Y-128257301D02*
X314628300Y-128257301D01*
X318009550Y-138782301D02*
X318009550Y-150782301D01*
X302628299Y-142257301D02*
G75*
G02*
X301628299Y-141257301I0J1000000D01*
G01*
X314628299Y-128257302D02*
G75*
G02*
X315529137Y-128823145I1J-999999D01*
G01*
X317509550Y-137916276D02*
G75*
G02*
X318009550Y-138782301I-500000J-866025D01*
G01*
X301628299Y-129257301D02*
G75*
G02*
X302628299Y-128257301I1000000J0D01*
G01*
X301628299Y-129257301D02*
X301628299Y-141257301D01*
X225433208Y-148305982D02*
X225433208Y-160305989D01*
X214639451Y-184406002D02*
G75*
G02*
X215639452Y-183406001I1000001J0D01*
G01*
X145470664Y-142255979D02*
X157470671Y-142255979D01*
X221670706Y-99393456D02*
X233670712Y-99393456D01*
X68270623Y-129255972D02*
X68270623Y-141255978D01*
X182283184Y-160305989D02*
G75*
G02*
X181283184Y-161305989I-1000000J0D01*
G01*
X215620703Y-141255978D02*
G75*
G02*
X214620702Y-142255979I-1000001J0D01*
G01*
X221670706Y-142255979D02*
X233670712Y-142255979D01*
X178808182Y-180356000D02*
X190808189Y-180356000D01*
X228908210Y-166355992D02*
X216908203Y-166355992D01*
X115639398Y-198406009D02*
X125395654Y-198406009D01*
X43076859Y-199406010D02*
X57458117Y-199406010D01*
X306165001Y-182356001D02*
X311165004Y-182356001D01*
X291820744Y-141255978D02*
G75*
G02*
X290820743Y-142255979I-1000001J0D01*
G01*
X259770726Y-142255978D02*
G75*
G02*
X258770726Y-141255978I0J1000000D01*
G01*
X196570693Y-141255978D02*
G75*
G02*
X195570692Y-142255979I-1000001J0D01*
G01*
X254008223Y-186406003D02*
X254008223Y-198406009D01*
X350258275Y-199406010D02*
X362258282Y-199406010D01*
X281288988Y-168355993D02*
X281288988Y-181356000D01*
X90701885Y-199406010D02*
G75*
G02*
X89701884Y-198406009I0J1000001D01*
G01*
X288288992Y-181356000D02*
G75*
G02*
X289288992Y-180356000I1000000J0D01*
G01*
X259770726Y-142255979D02*
X271770733Y-142255979D01*
X139708161Y-167355992D02*
X139708161Y-179355999D01*
X149233167Y-148305982D02*
X149233167Y-160305989D01*
X231195711Y-123205969D02*
X243195717Y-123205969D01*
X363258283Y-122205968D02*
G75*
G02*
X362258282Y-123205969I-1000001J0D01*
G01*
X206095698Y-122205968D02*
G75*
G02*
X205095697Y-123205969I-1000001J0D01*
G01*
X330208264Y-86393449D02*
X330208264Y-98393455D01*
X244195718Y-122205968D02*
G75*
G02*
X243195717Y-123205969I-1000001J0D01*
G01*
X248958221Y-179355999D02*
G75*
G02*
X247958220Y-180356000I-1000001J0D01*
G01*
X167995677Y-122205968D02*
G75*
G02*
X166995676Y-123205969I-1000001J0D01*
G01*
X363258282Y-122205968D02*
X363258282Y-110205962D01*
X201620695Y-129255972D02*
X201620695Y-141255978D01*
X382308293Y-98393455D02*
G75*
G02*
X381308292Y-99393456I-1000001J0D01*
G01*
X88320634Y-142255979D02*
G75*
G02*
X87320633Y-141255978I0J1000001D01*
G01*
X240720716Y-142255979D02*
X252720722Y-142255979D01*
X114608148Y-166355992D02*
X102608141Y-166355992D01*
X350258275Y-142255978D02*
G75*
G02*
X349258275Y-141255978I0J1000000D01*
G01*
X193095690Y-123205969D02*
X205095697Y-123205969D01*
X272770734Y-141255978D02*
G75*
G02*
X271770733Y-142255979I-1000001J0D01*
G01*
X263245729Y-122205968D02*
G75*
G02*
X262245728Y-123205969I-1000001J0D01*
G01*
X269295731Y-123205968D02*
G75*
G02*
X268295731Y-122205968I0J1000000D01*
G01*
X102608141Y-180355999D02*
G75*
G02*
X101608141Y-179355999I0J1000000D01*
G01*
X350258275Y-180356000D02*
X362258282Y-180356000D01*
X95558138Y-166355992D02*
X83558131Y-166355992D01*
X368308285Y-129255972D02*
X368308285Y-141255978D01*
X43076859Y-161305989D02*
X59839368Y-161305989D01*
X101608141Y-167355992D02*
G75*
G02*
X102608141Y-166355992I1000000J0D01*
G01*
X59745618Y-123205968D02*
G75*
G02*
X58745618Y-122205968I0J1000000D01*
G01*
X349258275Y-129255972D02*
X349258275Y-141255978D01*
X106083143Y-160305989D02*
X106083143Y-148305982D01*
X350258275Y-123205969D02*
X362258282Y-123205969D01*
X382308293Y-122205968D02*
G75*
G02*
X381308292Y-123205969I-1000001J0D01*
G01*
X172758180Y-179355999D02*
G75*
G02*
X171758179Y-180356000I-1000001J0D01*
G01*
X350258275Y-199406009D02*
G75*
G02*
X349258275Y-198406009I0J1000000D01*
G01*
X145470664Y-142255978D02*
G75*
G02*
X144470664Y-141255978I0J1000000D01*
G01*
X215908203Y-167355992D02*
G75*
G02*
X216908203Y-166355992I1000000J0D01*
G01*
X331208265Y-199406010D02*
G75*
G02*
X330208264Y-198406009I0J1000001D01*
G01*
X177520682Y-98393455D02*
G75*
G02*
X176520681Y-99393456I-1000001J0D01*
G01*
X320395759Y-98393455D02*
G75*
G02*
X319395758Y-99393456I-1000001J0D01*
G01*
X45458110Y-142255978D02*
G75*
G02*
X44458110Y-141255978I0J1000000D01*
G01*
X164520675Y-142255979D02*
G75*
G02*
X163520674Y-141255978I0J1000001D01*
G01*
X255008224Y-180356000D02*
X267008230Y-180356000D01*
X68270622Y-129255972D02*
G75*
G02*
X69270623Y-128255971I1000001J0D01*
G01*
X60839368Y-160305989D02*
G75*
G02*
X59839368Y-161305989I-1000000J0D01*
G01*
X162139423Y-199406009D02*
G75*
G02*
X161139423Y-198406009I0J1000000D01*
G01*
X163520674Y-86393449D02*
X163520674Y-98393455D01*
X234958213Y-167355992D02*
X234958213Y-179355999D01*
X66889372Y-199406010D02*
X81270630Y-199406010D01*
X287345741Y-86393449D02*
G75*
G02*
X288345742Y-85393448I1000001J0D01*
G01*
X369308285Y-142255978D02*
G75*
G02*
X368308285Y-141255978I0J1000000D01*
G01*
X232576962Y-186406003D02*
X232576962Y-198406009D01*
X120658151Y-167355992D02*
X120658151Y-179355999D01*
X369308285Y-99393456D02*
X381308292Y-99393456D01*
X294201995Y-198406009D02*
G75*
G02*
X293201994Y-199406010I-1000001J0D01*
G01*
X135945659Y-99393456D02*
X147945666Y-99393456D01*
X128895656Y-109205961D02*
X116895649Y-109205961D01*
X192095690Y-110205962D02*
X192095690Y-122205968D01*
X235958213Y-180355999D02*
G75*
G02*
X234958213Y-179355999I0J1000000D01*
G01*
X40695608Y-123205969D02*
X52695614Y-123205969D01*
X196570693Y-98393455D02*
G75*
G02*
X195570692Y-99393456I-1000001J0D01*
G01*
X282295738Y-98393455D02*
X282295738Y-86393449D01*
X344208272Y-122205968D02*
G75*
G02*
X343208271Y-123205969I-1000001J0D01*
G01*
X263533228Y-148305982D02*
X263533228Y-160305989D01*
X111133146Y-148305982D02*
X111133146Y-160305989D01*
X231195711Y-123205969D02*
G75*
G02*
X230195710Y-122205968I0J1000001D01*
G01*
X58458117Y-141255978D02*
X58458117Y-129255972D01*
X363258282Y-98393455D02*
X363258282Y-86393449D01*
X97845639Y-99393456D02*
G75*
G02*
X96845638Y-98393455I0J1000001D01*
G01*
X202620695Y-99393456D02*
X214620702Y-99393456D01*
X74033126Y-161305989D02*
X86033132Y-161305989D01*
X382308293Y-198406009D02*
G75*
G02*
X381308292Y-199406010I-1000001J0D01*
G01*
X239433215Y-160305989D02*
G75*
G02*
X238433215Y-161305989I-1000000J0D01*
G01*
X106083144Y-198406009D02*
G75*
G02*
X105083143Y-199406010I-1000001J0D01*
G01*
X318014508Y-198406009D02*
G75*
G02*
X317014507Y-199406010I-1000001J0D01*
G01*
X121658152Y-180356000D02*
G75*
G02*
X120658151Y-179355999I0J1000001D01*
G01*
X131183157Y-161305989D02*
X143183163Y-161305989D01*
X300345748Y-85393448D02*
X288345742Y-85393448D01*
X188333188Y-161305989D02*
X200333194Y-161305989D01*
X150233167Y-161305989D02*
G75*
G02*
X149233167Y-160305989I0J1000000D01*
G01*
X221670706Y-99393456D02*
G75*
G02*
X220670705Y-98393455I0J1000001D01*
G01*
X87320633Y-129255972D02*
X87320633Y-141255978D01*
X115895649Y-110205962D02*
X115895649Y-122205968D01*
X319308759Y-124205969D02*
G75*
G02*
X318308758Y-125205970I-1000001J0D01*
G01*
X154995670Y-123205969D02*
G75*
G02*
X153995669Y-122205968I0J1000001D01*
G01*
X74033126Y-161305990D02*
G75*
G02*
X73033125Y-160305989I0J1000001D01*
G01*
X90701885Y-199406010D02*
X105083143Y-199406010D01*
X116895649Y-99393456D02*
X128895656Y-99393456D01*
X369308285Y-123205969D02*
X381308292Y-123205969D01*
X313308755Y-125205970D02*
X318308758Y-125205970D01*
X239720715Y-129255972D02*
X239720715Y-141255978D01*
X215908203Y-167355992D02*
X215908203Y-179355999D01*
X289288992Y-180356000D02*
X304165000Y-180356000D01*
X245576969Y-185406003D02*
G75*
G02*
X246576969Y-186406003I0J-1000000D01*
G01*
X245576969Y-185406002D02*
X241695716Y-185406002D01*
X278820736Y-142255979D02*
X290820743Y-142255979D01*
X202620695Y-99393455D02*
G75*
G02*
X201620695Y-98393455I0J1000000D01*
G01*
X350258275Y-99393456D02*
X362258282Y-99393456D01*
X87033132Y-160305989D02*
G75*
G02*
X86033132Y-161305989I-1000000J0D01*
G01*
X131183157Y-161305990D02*
G75*
G02*
X130183156Y-160305989I0J1000001D01*
G01*
X368308285Y-110205962D02*
X368308285Y-122205968D01*
X197858193Y-180356000D02*
X209858199Y-180356000D01*
X363258283Y-198406009D02*
G75*
G02*
X362258282Y-199406010I-1000001J0D01*
G01*
X246576969Y-198406009D02*
X246576969Y-186406003D01*
X250245721Y-123205969D02*
X262245728Y-123205969D01*
X363258283Y-179355999D02*
G75*
G02*
X362258282Y-180356000I-1000001J0D01*
G01*
X215620703Y-98393455D02*
G75*
G02*
X214620702Y-99393456I-1000001J0D01*
G01*
X362258282Y-185406003D02*
G75*
G02*
X363258282Y-186406003I0J-1000000D01*
G01*
X221670706Y-142255979D02*
G75*
G02*
X220670705Y-141255978I0J1000001D01*
G01*
X250245721Y-99393456D02*
X262245728Y-99393456D01*
X363258282Y-198406009D02*
X363258282Y-186406003D01*
X233576962Y-199406009D02*
G75*
G02*
X232576962Y-198406009I0J1000000D01*
G01*
X225145708Y-122205968D02*
G75*
G02*
X224145707Y-123205969I-1000001J0D01*
G01*
X169283177Y-161305989D02*
X181283184Y-161305989D01*
X45458110Y-142255979D02*
X57458117Y-142255979D01*
X369308285Y-123205968D02*
G75*
G02*
X368308285Y-122205968I0J1000000D01*
G01*
X107370644Y-142255979D02*
X119370650Y-142255979D01*
X77795628Y-110205962D02*
X77795628Y-122205968D01*
X164520675Y-142255979D02*
X176520681Y-142255979D01*
X58745618Y-110205962D02*
X58745618Y-122205968D01*
X235958213Y-180356000D02*
X247958220Y-180356000D01*
X202620695Y-142255979D02*
X214620702Y-142255979D01*
X101608141Y-167355992D02*
X101608141Y-179355999D01*
X162233174Y-147305982D02*
X150233167Y-147305982D01*
X226433208Y-161305989D02*
X238433215Y-161305989D01*
X174045680Y-123205969D02*
G75*
G02*
X173045679Y-122205968I0J1000001D01*
G01*
X268295731Y-110205962D02*
X268295731Y-122205968D01*
X245483218Y-161305989D02*
X257483225Y-161305989D01*
X58458118Y-198406009D02*
G75*
G02*
X57458117Y-199406010I-1000001J0D01*
G01*
X350258275Y-123205968D02*
G75*
G02*
X349258275Y-122205968I0J1000000D01*
G01*
X319390753Y-109205961D02*
X288340747Y-109205961D01*
X302633249Y-199406009D02*
G75*
G02*
X301633249Y-198406009I0J1000000D01*
G01*
X282295739Y-98393455D02*
G75*
G02*
X281295738Y-99393456I-1000001J0D01*
G01*
X382308293Y-141255978D02*
G75*
G02*
X381308292Y-142255979I-1000001J0D01*
G01*
X177808182Y-167355992D02*
X177808182Y-179355999D01*
X207383198Y-161305990D02*
G75*
G02*
X206383197Y-160305989I0J1000001D01*
G01*
X88320634Y-142255979D02*
X100320640Y-142255979D01*
X125133153Y-160305989D02*
G75*
G02*
X124133153Y-161305989I-1000000J0D01*
G01*
X363258283Y-98393455D02*
G75*
G02*
X362258282Y-99393456I-1000001J0D01*
G01*
X263245729Y-98393455D02*
G75*
G02*
X262245728Y-99393456I-1000001J0D01*
G01*
X331208265Y-99393456D02*
G75*
G02*
X330208264Y-98393455I0J1000001D01*
G01*
X40695608Y-99393456D02*
X52695614Y-99393456D01*
X169283177Y-161305989D02*
G75*
G02*
X168283177Y-160305989I0J1000000D01*
G01*
X258483225Y-160305989D02*
G75*
G02*
X257483225Y-161305989I-1000000J0D01*
G01*
X344208272Y-98393455D02*
G75*
G02*
X343208271Y-99393456I-1000001J0D01*
G01*
X249245721Y-110205962D02*
X249245721Y-122205968D01*
X254008223Y-167355992D02*
X254008223Y-179355999D01*
X39695607Y-110205962D02*
X39695607Y-122205968D01*
X101320641Y-141255978D02*
G75*
G02*
X100320640Y-142255979I-1000001J0D01*
G01*
X90795635Y-109205961D02*
X78795628Y-109205961D01*
X331208265Y-123205969D02*
G75*
G02*
X330208264Y-122205968I0J1000001D01*
G01*
X126420654Y-142255978D02*
G75*
G02*
X125420654Y-141255978I0J1000000D01*
G01*
X212145700Y-123205968D02*
G75*
G02*
X211145700Y-122205968I0J1000000D01*
G01*
X168283177Y-148305982D02*
X168283177Y-160305989D01*
X110845646Y-122205968D02*
G75*
G02*
X109845645Y-123205969I-1000001J0D01*
G01*
X172758179Y-179355999D02*
X172758179Y-167355992D01*
X247958220Y-166355992D02*
X235958213Y-166355992D01*
X234958213Y-167355992D02*
G75*
G02*
X235958213Y-166355992I1000000J0D01*
G01*
X134658159Y-179355999D02*
X134658159Y-167355992D01*
X133658158Y-166355991D02*
G75*
G02*
X134658159Y-167355992I0J-1000001D01*
G01*
X133658158Y-166355992D02*
X121658152Y-166355992D01*
X120658152Y-167355992D02*
G75*
G02*
X121658152Y-166355992I1000000J0D01*
G01*
X81270630Y-185406002D02*
X66889372Y-185406002D01*
X183570685Y-142255979D02*
X195570692Y-142255979D01*
X381308292Y-185406002D02*
X369308285Y-185406002D01*
X229908211Y-179355999D02*
G75*
G02*
X228908210Y-180356000I-1000001J0D01*
G01*
X229908210Y-179355999D02*
X229908210Y-167355992D01*
X215639452Y-198406009D02*
G75*
G02*
X214639452Y-197406009I0J1000000D01*
G01*
X215639452Y-198406009D02*
X220639455Y-198406009D01*
X221639455Y-197406009D02*
G75*
G02*
X220639455Y-198406009I-1000000J0D01*
G01*
X228908210Y-166355992D02*
G75*
G02*
X229908210Y-167355992I0J-1000000D01*
G01*
X363258282Y-179355999D02*
X363258282Y-167355992D01*
X362258282Y-166355992D02*
G75*
G02*
X363258282Y-167355992I0J-1000000D01*
G01*
X362258282Y-166355992D02*
X350258275Y-166355992D01*
X349258275Y-167355992D02*
G75*
G02*
X350258275Y-166355992I1000000J0D01*
G01*
X214639452Y-184406002D02*
X214639452Y-197406009D01*
X226433208Y-161305989D02*
G75*
G02*
X225433208Y-160305989I0J1000000D01*
G01*
X186045686Y-185406002D02*
X162139423Y-185406002D01*
X369308285Y-199406010D02*
X381308292Y-199406010D01*
X105083143Y-185406003D02*
G75*
G02*
X106083143Y-186406003I0J-1000000D01*
G01*
X81270630Y-185406003D02*
G75*
G02*
X82270630Y-186406003I0J-1000000D01*
G01*
X161139423Y-186406003D02*
X161139423Y-198406009D01*
X105083143Y-185406002D02*
X90701885Y-185406002D01*
X294201995Y-198406009D02*
X294201995Y-186406003D01*
X277820735Y-186406003D02*
G75*
G02*
X278820736Y-185406002I1000001J0D01*
G01*
X65889371Y-186406003D02*
G75*
G02*
X66889372Y-185406002I1000001J0D01*
G01*
X65889371Y-186406003D02*
X65889371Y-198406009D01*
X115639398Y-198406009D02*
G75*
G02*
X114639398Y-197406009I0J1000000D01*
G01*
X293201994Y-185406002D02*
G75*
G02*
X294201995Y-186406003I0J-1000001D01*
G01*
X114639398Y-184406002D02*
X114639398Y-197406009D01*
X125395654Y-183406001D02*
X115639398Y-183406001D01*
X331208265Y-142255979D02*
G75*
G02*
X330208264Y-141255978I0J1000001D01*
G01*
X58458117Y-198406009D02*
X58458117Y-186406003D01*
X318014508Y-198406009D02*
X318014508Y-186406003D01*
X317014507Y-185406002D02*
G75*
G02*
X318014508Y-186406003I0J-1000001D01*
G01*
X42076859Y-148305982D02*
G75*
G02*
X43076859Y-147305982I1000000J0D01*
G01*
X57458117Y-185406003D02*
G75*
G02*
X58458117Y-186406003I0J-1000000D01*
G01*
X57458117Y-185406002D02*
X43076859Y-185406002D01*
X368308284Y-186406003D02*
G75*
G02*
X369308285Y-185406002I1000001J0D01*
G01*
X350258275Y-180355999D02*
G75*
G02*
X349258275Y-179355999I0J1000000D01*
G01*
X42076858Y-186406003D02*
G75*
G02*
X43076859Y-185406002I1000001J0D01*
G01*
X382308292Y-198406009D02*
X382308292Y-186406003D01*
X381308292Y-185406003D02*
G75*
G02*
X382308292Y-186406003I0J-1000000D01*
G01*
X317014507Y-185406002D02*
X302633249Y-185406002D01*
X240720716Y-142255979D02*
G75*
G02*
X239720715Y-141255978I0J1000001D01*
G01*
X301633248Y-186406003D02*
G75*
G02*
X302633249Y-185406002I1000001J0D01*
G01*
X77795628Y-86393449D02*
X77795628Y-98393455D01*
X277820736Y-186406003D02*
X277820736Y-198406009D01*
X343208271Y-185406002D02*
G75*
G02*
X344208272Y-186406003I0J-1000001D01*
G01*
X343208271Y-185406002D02*
X331208265Y-185406002D01*
X239695715Y-183406001D02*
G75*
G02*
X240695716Y-184406002I0J-1000001D01*
G01*
X330208264Y-186406003D02*
G75*
G02*
X331208265Y-185406002I1000001J0D01*
G01*
X241695716Y-185406002D02*
G75*
G02*
X240695716Y-184406002I0J1000000D01*
G01*
X60839369Y-160305989D02*
X60839369Y-148305982D01*
X59839368Y-147305982D02*
X43076859Y-147305982D01*
X82270631Y-198406009D02*
G75*
G02*
X81270630Y-199406010I-1000001J0D01*
G01*
X306395751Y-86393449D02*
X306395751Y-98393455D01*
X233695712Y-184406002D02*
G75*
G02*
X234695713Y-183406001I1000001J0D01*
G01*
X233695712Y-184406002D02*
X233695712Y-184610619D01*
X233695713Y-184610619D02*
G75*
G02*
X233136337Y-185508311I-1000001J0D01*
G01*
X362258282Y-185406002D02*
X350258275Y-185406002D01*
X81270630Y-128255971D02*
X69270623Y-128255971D01*
X232576961Y-186406003D02*
G75*
G02*
X233136337Y-185508311I1000001J0D01*
G01*
X255008224Y-199406010D02*
X269389481Y-199406010D01*
X269295731Y-99393456D02*
X281295738Y-99393456D01*
X270389482Y-198406009D02*
G75*
G02*
X269389481Y-199406010I-1000001J0D01*
G01*
X270389482Y-198406009D02*
X270389482Y-186406003D01*
X269389481Y-185406002D02*
G75*
G02*
X270389482Y-186406003I0J-1000001D01*
G01*
X349258274Y-186406003D02*
G75*
G02*
X350258275Y-185406002I1000001J0D01*
G01*
X312165004Y-181356000D02*
X312165004Y-168355993D01*
X311165004Y-167355993D02*
G75*
G02*
X312165004Y-168355993I0J-1000000D01*
G01*
X311165004Y-167355992D02*
X304459051Y-167355992D01*
X304459051Y-167355993D02*
G75*
G02*
X303593025Y-166855992I0J1000001D01*
G01*
X302726999Y-166355991D02*
G75*
G02*
X303593025Y-166855992I0J-1000001D01*
G01*
X302726999Y-166355992D02*
X290726993Y-166355992D01*
X289860968Y-166855992D02*
G75*
G02*
X290726993Y-166355992I866025J-500000D01*
G01*
X289860966Y-166855992D02*
G75*
G02*
X288994941Y-167355992I-866025J500000D01*
G01*
X288994941Y-167355992D02*
X282288988Y-167355992D01*
X281288987Y-168355993D02*
G75*
G02*
X282288988Y-167355992I1000001J0D01*
G01*
X40695608Y-123205969D02*
G75*
G02*
X39695607Y-122205968I0J1000001D01*
G01*
X139420662Y-141255978D02*
G75*
G02*
X138420661Y-142255979I-1000001J0D01*
G01*
X43076859Y-161305989D02*
G75*
G02*
X42076859Y-160305989I0J1000000D01*
G01*
X302633249Y-142255978D02*
G75*
G02*
X301633249Y-141255978I0J1000000D01*
G01*
X282288988Y-182356000D02*
G75*
G02*
X281288988Y-181356000I0J1000000D01*
G01*
X220383205Y-160305989D02*
X220383205Y-148305982D01*
X83558131Y-180356000D02*
G75*
G02*
X82558130Y-179355999I0J1000001D01*
G01*
X201620695Y-86393449D02*
X201620695Y-98393455D01*
X135945659Y-123205968D02*
G75*
G02*
X134945659Y-122205968I0J1000000D01*
G01*
X210858200Y-179355999D02*
G75*
G02*
X209858199Y-180356000I-1000001J0D01*
G01*
X282288988Y-182356001D02*
X287288991Y-182356001D01*
X112133146Y-161305989D02*
G75*
G02*
X111133146Y-160305989I0J1000000D01*
G01*
X106370643Y-129255972D02*
X106370643Y-141255978D01*
X120370651Y-141255978D02*
G75*
G02*
X119370650Y-142255979I-1000001J0D01*
G01*
X288288992Y-181356000D02*
G75*
G02*
X287288991Y-182356001I-1000001J0D01*
G01*
X187045687Y-198406009D02*
X187045687Y-186406003D01*
X134945659Y-110205962D02*
X134945659Y-122205968D01*
X39695607Y-86393449D02*
X39695607Y-98393455D01*
X148945667Y-98393455D02*
G75*
G02*
X147945666Y-99393456I-1000001J0D01*
G01*
X301633249Y-186406003D02*
X301633249Y-198406009D01*
X173045679Y-110205962D02*
X173045679Y-122205968D01*
X93083136Y-161305989D02*
G75*
G02*
X92083136Y-160305989I0J1000000D01*
G01*
X42076859Y-186406003D02*
X42076859Y-198406009D01*
X42076859Y-148305982D02*
X42076859Y-160305989D01*
X174045680Y-123205969D02*
X186045686Y-123205969D01*
X135945659Y-99393455D02*
G75*
G02*
X134945659Y-98393455I0J1000000D01*
G01*
X331208265Y-123205969D02*
X343208271Y-123205969D01*
X53695615Y-98393455D02*
G75*
G02*
X52695614Y-99393456I-1000001J0D01*
G01*
X183570685Y-142255978D02*
G75*
G02*
X182570685Y-141255978I0J1000000D01*
G01*
X96845638Y-86393449D02*
X96845638Y-98393455D01*
X269295731Y-123205969D02*
X281295738Y-123205969D01*
X207383198Y-161305989D02*
X219383204Y-161305989D01*
X330208264Y-110205962D02*
X330208264Y-122205968D01*
X288345742Y-99393456D02*
G75*
G02*
X287345741Y-98393455I0J1000001D01*
G01*
X220639455Y-183406001D02*
G75*
G02*
X221639456Y-184406002I0J-1000001D01*
G01*
X211145700Y-110205962D02*
X211145700Y-122205968D01*
X234670713Y-98393455D02*
G75*
G02*
X233670712Y-99393456I-1000001J0D01*
G01*
X307395752Y-99393456D02*
X319395758Y-99393456D01*
X255008224Y-199406010D02*
G75*
G02*
X254008223Y-198406009I0J1000001D01*
G01*
X278820736Y-142255978D02*
G75*
G02*
X277820736Y-141255978I0J1000000D01*
G01*
X91795636Y-98393455D02*
G75*
G02*
X90795635Y-99393456I-1000001J0D01*
G01*
X97845639Y-99393456D02*
X109845645Y-99393456D01*
X58458118Y-141255978D02*
G75*
G02*
X57458117Y-142255979I-1000001J0D01*
G01*
X344208272Y-198406009D02*
G75*
G02*
X343208271Y-199406010I-1000001J0D01*
G01*
X349258275Y-186406003D02*
X349258275Y-198406009D01*
X116895649Y-123205968D02*
G75*
G02*
X115895649Y-122205968I0J1000000D01*
G01*
X112133146Y-161305989D02*
X124133153Y-161305989D01*
X363258283Y-141255978D02*
G75*
G02*
X362258282Y-142255979I-1000001J0D01*
G01*
X97845639Y-123205969D02*
G75*
G02*
X96845638Y-122205968I0J1000001D01*
G01*
X140708162Y-180356000D02*
X152708168Y-180356000D01*
X97845639Y-123205969D02*
X109845645Y-123205969D01*
X134658159Y-179355999D02*
G75*
G02*
X133658158Y-180356000I-1000001J0D01*
G01*
X115895649Y-86393449D02*
X115895649Y-98393455D01*
X116895649Y-99393455D02*
G75*
G02*
X115895649Y-98393455I0J1000000D01*
G01*
X40695608Y-99393456D02*
G75*
G02*
X39695607Y-98393455I0J1000001D01*
G01*
X331208265Y-99393456D02*
X343208271Y-99393456D01*
X82558130Y-167355992D02*
X82558130Y-179355999D01*
X164520675Y-99393456D02*
G75*
G02*
X163520674Y-98393455I0J1000001D01*
G01*
X249245721Y-86393449D02*
X249245721Y-98393455D01*
X369308285Y-142255979D02*
X381308292Y-142255979D01*
X162139423Y-199406010D02*
X186045686Y-199406010D01*
X201333194Y-160305989D02*
G75*
G02*
X200333194Y-161305989I-1000000J0D01*
G01*
X72745626Y-122205968D02*
G75*
G02*
X71745625Y-123205969I-1000001J0D01*
G01*
X158758172Y-167355992D02*
X158758172Y-179355999D01*
X368308285Y-86393449D02*
X368308285Y-98393455D01*
X233576962Y-199406010D02*
X245576969Y-199406010D01*
X220639455Y-183406001D02*
X215639452Y-183406001D01*
X250245721Y-123205968D02*
G75*
G02*
X249245721Y-122205968I0J1000000D01*
G01*
X258770726Y-129255972D02*
X258770726Y-141255978D01*
X197858193Y-180356000D02*
G75*
G02*
X196858192Y-179355999I0J1000001D01*
G01*
X135945659Y-123205969D02*
X147945666Y-123205969D01*
X78795628Y-123205968D02*
G75*
G02*
X77795628Y-122205968I0J1000000D01*
G01*
X182570685Y-129255972D02*
X182570685Y-141255978D01*
X77795627Y-110205962D02*
G75*
G02*
X78795628Y-109205961I1000001J0D01*
G01*
X201333195Y-160305989D02*
X201333195Y-148305982D01*
X245483218Y-161305989D02*
G75*
G02*
X244483218Y-160305989I0J1000000D01*
G01*
X250245721Y-99393455D02*
G75*
G02*
X249245721Y-98393455I0J1000000D01*
G01*
X149233167Y-148305982D02*
G75*
G02*
X150233167Y-147305982I1000000J0D01*
G01*
X330208264Y-129255972D02*
X330208264Y-141255978D01*
X350258275Y-99393455D02*
G75*
G02*
X349258275Y-98393455I0J1000000D01*
G01*
X178808182Y-180355999D02*
G75*
G02*
X177808182Y-179355999I0J1000000D01*
G01*
X187045687Y-122205968D02*
G75*
G02*
X186045686Y-123205969I-1000001J0D01*
G01*
X183570685Y-99393456D02*
X195570692Y-99393456D01*
X183570685Y-99393455D02*
G75*
G02*
X182570685Y-98393455I0J1000000D01*
G01*
X216908203Y-180355999D02*
G75*
G02*
X215908203Y-179355999I0J1000000D01*
G01*
X177520682Y-141255978D02*
G75*
G02*
X176520681Y-142255979I-1000001J0D01*
G01*
X188333188Y-161305990D02*
G75*
G02*
X187333187Y-160305989I0J1000001D01*
G01*
X307395752Y-99393456D02*
G75*
G02*
X306395751Y-98393455I0J1000001D01*
G01*
X158470671Y-141255978D02*
X158470671Y-129255972D01*
X164520675Y-99393456D02*
X176520681Y-99393456D01*
X66889372Y-199406010D02*
G75*
G02*
X65889371Y-198406009I0J1000001D01*
G01*
X246576970Y-198406009D02*
G75*
G02*
X245576969Y-199406010I-1000001J0D01*
G01*
X148945667Y-122205968D02*
G75*
G02*
X147945666Y-123205969I-1000001J0D01*
G01*
X220670705Y-86393449D02*
X220670705Y-98393455D01*
X78795628Y-99393455D02*
G75*
G02*
X77795628Y-98393455I0J1000000D01*
G01*
X163520674Y-129255972D02*
X163520674Y-141255978D01*
X93083136Y-161305989D02*
X105083143Y-161305989D01*
X106083143Y-160305989D02*
G75*
G02*
X105083143Y-161305989I-1000000J0D01*
G01*
X134945659Y-86393449D02*
X134945659Y-98393455D01*
X107370644Y-142255979D02*
G75*
G02*
X106370643Y-141255978I0J1000001D01*
G01*
X153995669Y-110205962D02*
X153995669Y-122205968D01*
X369308285Y-99393455D02*
G75*
G02*
X368308285Y-98393455I0J1000000D01*
G01*
X129895657Y-98393455D02*
G75*
G02*
X128895656Y-99393456I-1000001J0D01*
G01*
X144183164Y-160305989D02*
X144183164Y-148305982D01*
X202620695Y-142255978D02*
G75*
G02*
X201620695Y-141255978I0J1000000D01*
G01*
X264533229Y-161305989D02*
X276533235Y-161305989D01*
X69270623Y-142255978D02*
G75*
G02*
X68270623Y-141255978I0J1000000D01*
G01*
X144183163Y-160305989D02*
G75*
G02*
X143183163Y-161305989I-1000000J0D01*
G01*
X287051491Y-163305990D02*
X292051494Y-163305990D01*
X293051494Y-162305990D02*
G75*
G02*
X294051495Y-161305989I1000001J0D01*
G01*
X83558131Y-180356000D02*
X95558138Y-180356000D01*
X96558138Y-179355999D02*
X96558138Y-167355992D01*
X220670705Y-129255972D02*
X220670705Y-141255978D01*
X134945658Y-86393449D02*
G75*
G02*
X135945659Y-85393448I1000001J0D01*
G01*
X271770733Y-128255971D02*
X259770726Y-128255971D01*
X196570692Y-141255978D02*
X196570692Y-129255972D01*
X195570692Y-128255971D02*
X183570685Y-128255971D01*
X221639456Y-197406009D02*
X221639456Y-184406002D01*
X143183163Y-147305981D02*
G75*
G02*
X144183164Y-148305982I0J-1000001D01*
G01*
X130183157Y-148305982D02*
G75*
G02*
X131183157Y-147305982I1000000J0D01*
G01*
X150233167Y-161305989D02*
X162233174Y-161305989D01*
X163233174Y-160305989D02*
X163233174Y-148305982D01*
X382308292Y-141255978D02*
X382308292Y-129255972D01*
X39695607Y-110205962D02*
G75*
G02*
X40695608Y-109205961I1000001J0D01*
G01*
X319395758Y-85393448D02*
G75*
G02*
X320395759Y-86393449I0J-1000001D01*
G01*
X281295738Y-85393449D02*
G75*
G02*
X282295738Y-86393449I0J-1000000D01*
G01*
X268295730Y-86393449D02*
G75*
G02*
X269295731Y-85393448I1000001J0D01*
G01*
X288345742Y-99393456D02*
X300345748Y-99393456D01*
X230195710Y-110205962D02*
X230195710Y-122205968D01*
X293201994Y-185406002D02*
X278820736Y-185406002D01*
X331208265Y-142255979D02*
X343208271Y-142255979D01*
X161139422Y-186406003D02*
G75*
G02*
X162139423Y-185406002I1000001J0D01*
G01*
X89701884Y-186406003D02*
G75*
G02*
X90701885Y-185406002I1000001J0D01*
G01*
X186045686Y-185406002D02*
G75*
G02*
X187045687Y-186406003I0J-1000001D01*
G01*
X121658152Y-180356000D02*
X133658158Y-180356000D01*
X82558131Y-167355992D02*
G75*
G02*
X83558131Y-166355992I1000000J0D01*
G01*
X267008230Y-166355992D02*
X255008224Y-166355992D01*
X191808189Y-179355999D02*
X191808189Y-167355992D01*
X190808189Y-166355992D02*
X178808182Y-166355992D01*
X196858193Y-167355992D02*
G75*
G02*
X197858193Y-166355992I1000000J0D01*
G01*
X281295738Y-109205962D02*
G75*
G02*
X282295738Y-110205962I0J-1000000D01*
G01*
X344208272Y-198406009D02*
X344208272Y-186406003D01*
X281295738Y-109205961D02*
X269295731Y-109205961D01*
X115895648Y-110205962D02*
G75*
G02*
X116895649Y-109205961I1000001J0D01*
G01*
X78795628Y-99393456D02*
X90795635Y-99393456D01*
X381308292Y-109205962D02*
G75*
G02*
X382308292Y-110205962I0J-1000000D01*
G01*
X368308284Y-110205962D02*
G75*
G02*
X369308285Y-109205961I1000001J0D01*
G01*
X176520681Y-128255971D02*
X164520675Y-128255971D01*
X138420661Y-128255971D02*
X126420654Y-128255971D01*
X234670713Y-141255978D02*
G75*
G02*
X233670712Y-142255979I-1000001J0D01*
G01*
X368308285Y-186406003D02*
X368308285Y-198406009D01*
X330208264Y-186406003D02*
X330208264Y-198406009D01*
X59839368Y-147305981D02*
G75*
G02*
X60839369Y-148305982I0J-1000001D01*
G01*
X182570685Y-86393449D02*
X182570685Y-98393455D01*
X234670713Y-141255978D02*
X234670713Y-129255972D01*
X287345741Y-86393449D02*
X287345741Y-98393455D01*
X212145700Y-123205969D02*
X224145707Y-123205969D01*
X254008223Y-186406003D02*
G75*
G02*
X255008224Y-185406002I1000001J0D01*
G01*
X82270630Y-198406009D02*
X82270630Y-186406003D01*
X53695615Y-122205968D02*
G75*
G02*
X52695614Y-123205969I-1000001J0D01*
G01*
X43076859Y-199406009D02*
G75*
G02*
X42076859Y-198406009I0J1000000D01*
G01*
X350258275Y-142255979D02*
X362258282Y-142255979D01*
X381308292Y-109205961D02*
X369308285Y-109205961D01*
X255008224Y-180356000D02*
G75*
G02*
X254008223Y-179355999I0J1000001D01*
G01*
X177520682Y-141255978D02*
X177520682Y-129255972D01*
X163520674Y-129255972D02*
G75*
G02*
X164520675Y-128255971I1000001J0D01*
G01*
X125420653Y-129255972D02*
G75*
G02*
X126420654Y-128255971I1000001J0D01*
G01*
X157470671Y-128255972D02*
G75*
G02*
X158470671Y-129255972I0J-1000000D01*
G01*
X144470663Y-129255972D02*
G75*
G02*
X145470664Y-128255971I1000001J0D01*
G01*
X87033133Y-160305989D02*
X87033133Y-148305982D01*
X239695715Y-183406001D02*
X234695713Y-183406001D01*
X220383204Y-160305989D02*
G75*
G02*
X219383204Y-161305989I-1000000J0D01*
G01*
X277820736Y-129255972D02*
X277820736Y-141255978D01*
X110845646Y-98393455D02*
G75*
G02*
X109845645Y-99393456I-1000001J0D01*
G01*
X253720723Y-141255978D02*
G75*
G02*
X252720722Y-142255979I-1000001J0D01*
G01*
X53695615Y-98393455D02*
X53695615Y-86393449D01*
X52695614Y-85393448D02*
G75*
G02*
X53695615Y-86393449I0J-1000001D01*
G01*
X52695614Y-85393448D02*
X40695608Y-85393448D01*
X39695607Y-86393449D02*
G75*
G02*
X40695608Y-85393448I1000001J0D01*
G01*
X91795635Y-98393455D02*
X91795635Y-86393449D01*
X90795635Y-85393449D02*
G75*
G02*
X91795635Y-86393449I0J-1000000D01*
G01*
X90795635Y-85393448D02*
X78795628Y-85393448D01*
X77795627Y-86393449D02*
G75*
G02*
X78795628Y-85393448I1000001J0D01*
G01*
X264533229Y-161305990D02*
G75*
G02*
X263533228Y-160305989I0J1000001D01*
G01*
X234670713Y-98393455D02*
X234670713Y-86393449D01*
X233670712Y-85393448D02*
G75*
G02*
X234670713Y-86393449I0J-1000001D01*
G01*
X233670712Y-85393448D02*
X221670706Y-85393448D01*
X220670705Y-86393449D02*
G75*
G02*
X221670706Y-85393448I1000001J0D01*
G01*
X278820736Y-199406010D02*
X293201994Y-199406010D01*
X153708169Y-179355999D02*
G75*
G02*
X152708168Y-180356000I-1000001J0D01*
G01*
X129895656Y-98393455D02*
X129895656Y-86393449D01*
X128895656Y-85393449D02*
G75*
G02*
X129895656Y-86393449I0J-1000000D01*
G01*
X344208272Y-141255978D02*
G75*
G02*
X343208271Y-142255979I-1000001J0D01*
G01*
X154995670Y-123205969D02*
X166995676Y-123205969D01*
X187045687Y-198406009D02*
G75*
G02*
X186045686Y-199406010I-1000001J0D01*
G01*
X140708162Y-180356000D02*
G75*
G02*
X139708161Y-179355999I0J1000001D01*
G01*
X128895656Y-85393448D02*
X116895649Y-85393448D01*
X115895648Y-86393449D02*
G75*
G02*
X116895649Y-85393448I1000001J0D01*
G01*
X196570692Y-98393455D02*
X196570692Y-86393449D01*
X195570692Y-85393449D02*
G75*
G02*
X196570692Y-86393449I0J-1000000D01*
G01*
X195570692Y-85393448D02*
X183570685Y-85393448D01*
X182570684Y-86393449D02*
G75*
G02*
X183570685Y-85393448I1000001J0D01*
G01*
X110845646Y-98393455D02*
X110845646Y-86393449D01*
X269295731Y-99393455D02*
G75*
G02*
X268295731Y-98393455I0J1000000D01*
G01*
X126395654Y-197406009D02*
G75*
G02*
X125395654Y-198406009I-1000000J0D01*
G01*
X268008231Y-179355999D02*
G75*
G02*
X267008230Y-180356000I-1000001J0D01*
G01*
X109845645Y-85393448D02*
G75*
G02*
X110845646Y-86393449I0J-1000001D01*
G01*
X109845645Y-85393448D02*
X97845639Y-85393448D01*
X96845638Y-86393449D02*
G75*
G02*
X97845639Y-85393448I1000001J0D01*
G01*
X215620702Y-98393455D02*
X215620702Y-86393449D01*
X214620702Y-85393449D02*
G75*
G02*
X215620702Y-86393449I0J-1000000D01*
G01*
X214620702Y-85393448D02*
X202620695Y-85393448D01*
X186045686Y-109205961D02*
G75*
G02*
X187045687Y-110205962I0J-1000001D01*
G01*
X173045679Y-110205962D02*
G75*
G02*
X174045680Y-109205961I1000001J0D01*
G01*
X201620694Y-86393449D02*
G75*
G02*
X202620695Y-85393448I1000001J0D01*
G01*
X148945666Y-98393455D02*
X148945666Y-86393449D01*
X115608149Y-179355999D02*
G75*
G02*
X114608148Y-180356000I-1000001J0D01*
G01*
X147945666Y-85393449D02*
G75*
G02*
X148945666Y-86393449I0J-1000000D01*
G01*
X147945666Y-85393448D02*
X135945659Y-85393448D01*
X177520682Y-98393455D02*
X177520682Y-86393449D01*
X258770725Y-129255972D02*
G75*
G02*
X259770726Y-128255971I1000001J0D01*
G01*
X176520681Y-85393448D02*
G75*
G02*
X177520682Y-86393449I0J-1000001D01*
G01*
X176520681Y-85393448D02*
X164520675Y-85393448D01*
X163520674Y-86393449D02*
G75*
G02*
X164520675Y-85393448I1000001J0D01*
G01*
X53695615Y-122205968D02*
X53695615Y-110205962D01*
X52695614Y-109205961D02*
G75*
G02*
X53695615Y-110205962I0J-1000001D01*
G01*
X52695614Y-109205961D02*
X40695608Y-109205961D01*
X320395759Y-98393455D02*
X320395759Y-86393449D01*
X319395758Y-85393448D02*
X307395752Y-85393448D01*
X306395751Y-86393449D02*
G75*
G02*
X307395752Y-85393448I1000001J0D01*
G01*
X281295738Y-85393448D02*
X269295731Y-85393448D01*
X268295731Y-86393449D02*
X268295731Y-98393455D01*
X301345749Y-98393455D02*
G75*
G02*
X300345748Y-99393456I-1000001J0D01*
G01*
X301345749Y-98393455D02*
X301345749Y-86393449D01*
X300345748Y-85393448D02*
G75*
G02*
X301345749Y-86393449I0J-1000001D01*
G01*
X382308292Y-98393455D02*
X382308292Y-86393449D01*
X381308292Y-85393449D02*
G75*
G02*
X382308292Y-86393449I0J-1000000D01*
G01*
X381308292Y-85393448D02*
X369308285Y-85393448D01*
X368308284Y-86393449D02*
G75*
G02*
X369308285Y-85393448I1000001J0D01*
G01*
X344208272Y-98393455D02*
X344208272Y-86393449D01*
X343208271Y-85393448D02*
G75*
G02*
X344208272Y-86393449I0J-1000001D01*
G01*
X349258275Y-110205962D02*
X349258275Y-122205968D01*
X343208271Y-85393448D02*
X331208265Y-85393448D01*
X330208264Y-86393449D02*
G75*
G02*
X331208265Y-85393448I1000001J0D01*
G01*
X263245728Y-98393455D02*
X263245728Y-86393449D01*
X262245728Y-85393449D02*
G75*
G02*
X263245728Y-86393449I0J-1000000D01*
G01*
X262245728Y-85393448D02*
X250245721Y-85393448D01*
X249245720Y-86393449D02*
G75*
G02*
X250245721Y-85393448I1000001J0D01*
G01*
X362258282Y-85393449D02*
G75*
G02*
X363258282Y-86393449I0J-1000000D01*
G01*
X362258282Y-85393448D02*
X350258275Y-85393448D01*
X349258274Y-86393449D02*
G75*
G02*
X350258275Y-85393448I1000001J0D01*
G01*
X349258275Y-86393449D02*
X349258275Y-98393455D01*
X78795628Y-123205969D02*
X90795635Y-123205969D01*
X91795636Y-122205968D02*
G75*
G02*
X90795635Y-123205969I-1000001J0D01*
G01*
X91795635Y-122205968D02*
X91795635Y-110205962D01*
X90795635Y-109205962D02*
G75*
G02*
X91795635Y-110205962I0J-1000000D01*
G01*
X206095697Y-122205968D02*
X206095697Y-110205962D01*
X205095697Y-109205962D02*
G75*
G02*
X206095697Y-110205962I0J-1000000D01*
G01*
X205095697Y-109205961D02*
X193095690Y-109205961D01*
X192095689Y-110205962D02*
G75*
G02*
X193095690Y-109205961I1000001J0D01*
G01*
X148945666Y-122205968D02*
X148945666Y-110205962D01*
X147945666Y-109205962D02*
G75*
G02*
X148945666Y-110205962I0J-1000000D01*
G01*
X147945666Y-109205961D02*
X135945659Y-109205961D01*
X134945658Y-110205962D02*
G75*
G02*
X135945659Y-109205961I1000001J0D01*
G01*
X302633249Y-199406010D02*
X317014507Y-199406010D01*
X116895649Y-123205969D02*
X128895656Y-123205969D01*
X129895657Y-122205968D02*
G75*
G02*
X128895656Y-123205969I-1000001J0D01*
G01*
X129895656Y-122205968D02*
X129895656Y-110205962D01*
X128895656Y-109205962D02*
G75*
G02*
X129895656Y-110205962I0J-1000000D01*
G01*
X167995677Y-122205968D02*
X167995677Y-110205962D01*
X166995676Y-109205961D02*
G75*
G02*
X167995677Y-110205962I0J-1000001D01*
G01*
X166995676Y-109205961D02*
X154995670Y-109205961D01*
X278820736Y-199406009D02*
G75*
G02*
X277820736Y-198406009I0J1000000D01*
G01*
X158470672Y-141255978D02*
G75*
G02*
X157470671Y-142255979I-1000001J0D01*
G01*
X139420661Y-141255978D02*
X139420661Y-129255972D01*
X153995669Y-110205962D02*
G75*
G02*
X154995670Y-109205961I1000001J0D01*
G01*
X110845646Y-122205968D02*
X110845646Y-110205962D01*
X109845645Y-109205961D02*
G75*
G02*
X110845646Y-110205962I0J-1000001D01*
G01*
X109845645Y-109205961D02*
X97845639Y-109205961D01*
X96845638Y-110205962D02*
G75*
G02*
X97845639Y-109205961I1000001J0D01*
G01*
X72745625Y-122205968D02*
X72745625Y-110205962D01*
X89701884Y-186406003D02*
X89701884Y-198406009D01*
X252720722Y-128255971D02*
X240720716Y-128255971D01*
X291820744Y-141255978D02*
X291820744Y-129255972D01*
X290820743Y-128255971D02*
X278820736Y-128255971D01*
X71745625Y-109205962D02*
G75*
G02*
X72745625Y-110205962I0J-1000000D01*
G01*
X71745625Y-109205961D02*
X59745618Y-109205961D01*
X58745617Y-110205962D02*
G75*
G02*
X59745618Y-109205961I1000001J0D01*
G01*
X187045687Y-122205968D02*
X187045687Y-110205962D01*
X244483218Y-148305982D02*
G75*
G02*
X245483218Y-147305982I1000000J0D01*
G01*
X349258275Y-167355992D02*
X349258275Y-179355999D01*
X186045686Y-109205961D02*
X174045680Y-109205961D01*
X362258282Y-109205962D02*
G75*
G02*
X363258282Y-110205962I0J-1000000D01*
G01*
X362258282Y-109205961D02*
X350258275Y-109205961D01*
X349258274Y-110205962D02*
G75*
G02*
X350258275Y-109205961I1000001J0D01*
G01*
X244195718Y-122205968D02*
X244195718Y-110205962D01*
X243195717Y-109205961D02*
G75*
G02*
X244195718Y-110205962I0J-1000001D01*
G01*
X243195717Y-109205961D02*
X231195711Y-109205961D01*
X125395654Y-183406002D02*
G75*
G02*
X126395654Y-184406002I0J-1000000D01*
G01*
X230195710Y-110205962D02*
G75*
G02*
X231195711Y-109205961I1000001J0D01*
G01*
X282295738Y-122205968D02*
X282295738Y-110205962D01*
X210858200Y-179355999D02*
X210858200Y-167355992D01*
X209858199Y-166355991D02*
G75*
G02*
X210858200Y-167355992I0J-1000001D01*
G01*
X153708169Y-179355999D02*
X153708169Y-167355992D01*
X152708168Y-166355992D02*
X140708162Y-166355992D01*
X268295730Y-110205962D02*
G75*
G02*
X269295731Y-109205961I1000001J0D01*
G01*
X344208272Y-122205968D02*
X344208272Y-110205962D01*
X126420654Y-142255979D02*
X138420661Y-142255979D01*
X343208271Y-109205961D02*
G75*
G02*
X344208272Y-110205962I0J-1000001D01*
G01*
X343208271Y-109205961D02*
X331208265Y-109205961D01*
X330208264Y-110205962D02*
G75*
G02*
X331208265Y-109205961I1000001J0D01*
G01*
X263245728Y-122205968D02*
X263245728Y-110205962D01*
X262245728Y-109205962D02*
G75*
G02*
X263245728Y-110205962I0J-1000000D01*
G01*
X262245728Y-109205961D02*
X250245721Y-109205961D01*
X249245720Y-110205962D02*
G75*
G02*
X250245721Y-109205961I1000001J0D01*
G01*
X331208265Y-199406010D02*
X343208271Y-199406010D01*
X244483218Y-148305982D02*
X244483218Y-160305989D01*
X289432742Y-125205969D02*
G75*
G02*
X288432742Y-124205969I0J1000000D01*
G01*
X289432742Y-125205970D02*
X294432745Y-125205970D01*
X59745618Y-123205969D02*
X71745625Y-123205969D01*
X295432746Y-124205969D02*
G75*
G02*
X294432745Y-125205970I-1000001J0D01*
G01*
X295432746Y-124205969D02*
G75*
G02*
X296432746Y-123205969I1000000J0D01*
G01*
X296432746Y-123205969D02*
X311308754Y-123205969D01*
X311308754Y-123205968D02*
G75*
G02*
X312308755Y-124205969I0J-1000001D01*
G01*
X313308755Y-125205969D02*
G75*
G02*
X312308755Y-124205969I0J1000000D01*
G01*
X225145707Y-122205968D02*
X225145707Y-110205962D01*
X224145707Y-109205962D02*
G75*
G02*
X225145707Y-110205962I0J-1000000D01*
G01*
X224145707Y-109205961D02*
X212145700Y-109205961D01*
X211145699Y-110205962D02*
G75*
G02*
X212145700Y-109205961I1000001J0D01*
G01*
X101320641Y-141255978D02*
X101320641Y-129255972D01*
X312165005Y-181356000D02*
G75*
G02*
X311165004Y-182356001I-1000001J0D01*
G01*
X100320640Y-128255971D02*
G75*
G02*
X101320641Y-129255972I0J-1000001D01*
G01*
X100320640Y-128255971D02*
X88320634Y-128255971D01*
X87320633Y-129255972D02*
G75*
G02*
X88320634Y-128255971I1000001J0D01*
G01*
X120370651Y-141255978D02*
X120370651Y-129255972D01*
X119370650Y-128255971D02*
G75*
G02*
X120370651Y-129255972I0J-1000001D01*
G01*
X119370650Y-128255971D02*
X107370644Y-128255971D01*
X96845638Y-110205962D02*
X96845638Y-122205968D01*
X106370643Y-129255972D02*
G75*
G02*
X107370644Y-128255971I1000001J0D01*
G01*
X382308292Y-122205968D02*
X382308292Y-110205962D01*
X176520681Y-128255971D02*
G75*
G02*
X177520682Y-129255972I0J-1000001D01*
G01*
X138420661Y-128255972D02*
G75*
G02*
X139420661Y-129255972I0J-1000000D01*
G01*
X125420654Y-129255972D02*
X125420654Y-141255978D01*
X157470671Y-128255971D02*
X145470664Y-128255971D01*
X144470664Y-129255972D02*
X144470664Y-141255978D01*
X69270623Y-142255979D02*
X81270630Y-142255979D01*
X82270631Y-141255978D02*
G75*
G02*
X81270630Y-142255979I-1000001J0D01*
G01*
X82270630Y-141255978D02*
X82270630Y-129255972D01*
X81270630Y-128255972D02*
G75*
G02*
X82270630Y-129255972I0J-1000000D01*
G01*
X57458117Y-128255972D02*
G75*
G02*
X58458117Y-129255972I0J-1000000D01*
G01*
X57458117Y-128255971D02*
X45458110Y-128255971D01*
X44458109Y-129255972D02*
G75*
G02*
X45458110Y-128255971I1000001J0D01*
G01*
X44458110Y-129255972D02*
X44458110Y-141255978D01*
X253720723Y-141255978D02*
X253720723Y-129255972D01*
X252720722Y-128255971D02*
G75*
G02*
X253720723Y-129255972I0J-1000001D01*
G01*
X239720715Y-129255972D02*
G75*
G02*
X240720716Y-128255971I1000001J0D01*
G01*
X290820743Y-128255971D02*
G75*
G02*
X291820744Y-129255972I0J-1000001D01*
G01*
X277820735Y-129255972D02*
G75*
G02*
X278820736Y-128255971I1000001J0D01*
G01*
X344208272Y-141255978D02*
X344208272Y-129255972D01*
X343208271Y-128255971D02*
G75*
G02*
X344208272Y-129255972I0J-1000001D01*
G01*
X343208271Y-128255971D02*
X331208265Y-128255971D01*
X330208264Y-129255972D02*
G75*
G02*
X331208265Y-128255971I1000001J0D01*
G01*
X215620702Y-141255978D02*
X215620702Y-129255972D01*
X214620702Y-128255972D02*
G75*
G02*
X215620702Y-129255972I0J-1000000D01*
G01*
X214620702Y-128255971D02*
X202620695Y-128255971D01*
X201620694Y-129255972D02*
G75*
G02*
X202620695Y-128255971I1000001J0D01*
G01*
X233670712Y-128255971D02*
G75*
G02*
X234670713Y-129255972I0J-1000001D01*
G01*
X233670712Y-128255971D02*
X221670706Y-128255971D01*
X220670705Y-129255972D02*
G75*
G02*
X221670706Y-128255971I1000001J0D01*
G01*
X272770733Y-141255978D02*
X272770733Y-129255972D01*
X271770733Y-128255972D02*
G75*
G02*
X272770733Y-129255972I0J-1000000D01*
G01*
X195570692Y-128255972D02*
G75*
G02*
X196570692Y-129255972I0J-1000000D01*
G01*
X182570684Y-129255972D02*
G75*
G02*
X183570685Y-128255971I1000001J0D01*
G01*
X159758172Y-180355999D02*
G75*
G02*
X158758172Y-179355999I0J1000000D01*
G01*
X143183163Y-147305982D02*
X131183157Y-147305982D01*
X130183156Y-148305982D02*
X130183156Y-160305989D01*
X163233174Y-160305989D02*
G75*
G02*
X162233174Y-161305989I-1000000J0D01*
G01*
X162233174Y-147305982D02*
G75*
G02*
X163233174Y-148305982I0J-1000000D01*
G01*
X381308292Y-128255972D02*
G75*
G02*
X382308292Y-129255972I0J-1000000D01*
G01*
X381308292Y-128255971D02*
X369308285Y-128255971D01*
X114639397Y-184406002D02*
G75*
G02*
X115639398Y-183406001I1000001J0D01*
G01*
X248958220Y-179355999D02*
X248958220Y-167355992D01*
X171758179Y-166355992D02*
G75*
G02*
X172758179Y-167355992I0J-1000000D01*
G01*
X368308284Y-129255972D02*
G75*
G02*
X369308285Y-128255971I1000001J0D01*
G01*
X86033132Y-147305981D02*
G75*
G02*
X87033133Y-148305982I0J-1000001D01*
G01*
X86033132Y-147305982D02*
X74033126Y-147305982D01*
X73033126Y-148305982D02*
G75*
G02*
X74033126Y-147305982I1000000J0D01*
G01*
X73033125Y-148305982D02*
X73033125Y-160305989D01*
X363258282Y-141255978D02*
X363258282Y-129255972D01*
X362258282Y-128255972D02*
G75*
G02*
X363258282Y-129255972I0J-1000000D01*
G01*
X362258282Y-128255971D02*
X350258275Y-128255971D01*
X349258274Y-129255972D02*
G75*
G02*
X350258275Y-128255971I1000001J0D01*
G01*
X125133153Y-160305989D02*
X125133153Y-148305982D01*
X124133153Y-147305982D02*
G75*
G02*
X125133153Y-148305982I0J-1000000D01*
G01*
X124133153Y-147305982D02*
X112133146Y-147305982D01*
X111133146Y-148305982D02*
G75*
G02*
X112133146Y-147305982I1000000J0D01*
G01*
X105083143Y-147305982D02*
G75*
G02*
X106083143Y-148305982I0J-1000000D01*
G01*
X282295739Y-122205968D02*
G75*
G02*
X281295738Y-123205969I-1000001J0D01*
G01*
X105083143Y-147305982D02*
X93083136Y-147305982D01*
X92083136Y-148305982D02*
G75*
G02*
X93083136Y-147305982I1000000J0D01*
G01*
X92083136Y-148305982D02*
X92083136Y-160305989D01*
X200333194Y-147305981D02*
G75*
G02*
X201333195Y-148305982I0J-1000001D01*
G01*
X200333194Y-147305982D02*
X188333188Y-147305982D01*
X193095690Y-123205968D02*
G75*
G02*
X192095690Y-122205968I0J1000000D01*
G01*
X187333188Y-148305982D02*
G75*
G02*
X188333188Y-147305982I1000000J0D01*
G01*
X277533235Y-160305989D02*
G75*
G02*
X276533235Y-161305989I-1000000J0D01*
G01*
X187333187Y-148305982D02*
X187333187Y-160305989D01*
X159758172Y-180356000D02*
X171758179Y-180356000D01*
X182283184Y-160305989D02*
X182283184Y-148305982D01*
X369308285Y-199406009D02*
G75*
G02*
X368308285Y-198406009I0J1000000D01*
G01*
X126395654Y-197406009D02*
X126395654Y-184406002D01*
X181283184Y-147305982D02*
G75*
G02*
X182283184Y-148305982I0J-1000000D01*
G01*
X181283184Y-147305982D02*
X169283177Y-147305982D01*
X168283177Y-148305982D02*
G75*
G02*
X169283177Y-147305982I1000000J0D01*
G01*
X277533236Y-160305989D02*
X277533236Y-148305982D01*
X276533235Y-147305981D02*
G75*
G02*
X277533236Y-148305982I0J-1000001D01*
G01*
X276533235Y-147305982D02*
X264533229Y-147305982D01*
X263533229Y-148305982D02*
G75*
G02*
X264533229Y-147305982I1000000J0D01*
G01*
X239433215Y-160305989D02*
X239433215Y-148305982D01*
X238433215Y-147305982D02*
G75*
G02*
X239433215Y-148305982I0J-1000000D01*
G01*
X238433215Y-147305982D02*
X226433208Y-147305982D01*
X225433208Y-148305982D02*
G75*
G02*
X226433208Y-147305982I1000000J0D01*
G01*
X219383204Y-147305981D02*
G75*
G02*
X220383205Y-148305982I0J-1000001D01*
G01*
X219383204Y-147305982D02*
X207383198Y-147305982D01*
X206383198Y-148305982D02*
G75*
G02*
X207383198Y-147305982I1000000J0D01*
G01*
X206383197Y-148305982D02*
X206383197Y-160305989D01*
X258483225Y-160305989D02*
X258483225Y-148305982D01*
X257483225Y-147305982D02*
G75*
G02*
X258483225Y-148305982I0J-1000000D01*
G01*
X257483225Y-147305982D02*
X245483218Y-147305982D01*
X293051494Y-162305990D02*
G75*
G02*
X292051494Y-163305990I-1000000J0D01*
G01*
X294051495Y-161305989D02*
X308927503Y-161305989D01*
X96558139Y-179355999D02*
G75*
G02*
X95558138Y-180356000I-1000001J0D01*
G01*
X95558138Y-166355992D02*
G75*
G02*
X96558138Y-167355992I0J-1000000D01*
G01*
X102608141Y-180356000D02*
X114608148Y-180356000D01*
X115608148Y-179355999D02*
X115608148Y-167355992D01*
X114608148Y-166355992D02*
G75*
G02*
X115608148Y-167355992I0J-1000000D01*
G01*
X268008231Y-179355999D02*
X268008231Y-167355992D01*
X267008230Y-166355991D02*
G75*
G02*
X268008231Y-167355992I0J-1000001D01*
G01*
X254008224Y-167355992D02*
G75*
G02*
X255008224Y-166355992I1000000J0D01*
G01*
X190808189Y-166355992D02*
G75*
G02*
X191808189Y-167355992I0J-1000000D01*
G01*
X177808182Y-167355992D02*
G75*
G02*
X178808182Y-166355992I1000000J0D01*
G01*
X209858199Y-166355992D02*
X197858193Y-166355992D01*
X152708168Y-166355991D02*
G75*
G02*
X153708169Y-167355992I0J-1000001D01*
G01*
X139708162Y-167355992D02*
G75*
G02*
X140708162Y-166355992I1000000J0D01*
G01*
X106083143Y-198406009D02*
X106083143Y-186406003D01*
X247958220Y-166355992D02*
G75*
G02*
X248958220Y-167355992I0J-1000000D01*
G01*
X171758179Y-166355992D02*
X159758172Y-166355992D01*
X216908203Y-180356000D02*
X228908210Y-180356000D01*
X158758172Y-167355992D02*
G75*
G02*
X159758172Y-166355992I1000000J0D01*
G01*
X196858192Y-167355992D02*
X196858192Y-179355999D01*
X191808190Y-179355999D02*
G75*
G02*
X190808189Y-180356000I-1000001J0D01*
G01*
X269389481Y-185406002D02*
X255008224Y-185406002D01*
X306165001Y-182356000D02*
G75*
G02*
X305165001Y-181356000I0J1000000D01*
G01*
X304165000Y-180355999D02*
G75*
G02*
X305165001Y-181356000I0J-1000001D01*
G01*
D11*
X155087857Y-189900238D02*
X155087857Y-187700238D01*
X154587857Y-189271666D01*
X154087857Y-187700238D01*
X154087857Y-189900238D01*
X153087857Y-188852619D02*
X153087857Y-189900238D01*
X153587857Y-187700238D02*
X153087857Y-188852619D01*
X152587857Y-187700238D01*
X152159285Y-189795476D02*
X151945000Y-189900238D01*
X151587857Y-189900238D01*
X151445000Y-189795476D01*
X151373571Y-189690714D01*
X151302142Y-189481190D01*
X151302142Y-189271666D01*
X151373571Y-189062142D01*
X151445000Y-188957380D01*
X151587857Y-188852619D01*
X151873571Y-188747857D01*
X152016428Y-188643095D01*
X152087857Y-188538333D01*
X152159285Y-188328809D01*
X152159285Y-188119285D01*
X152087857Y-187909761D01*
X152016428Y-187805000D01*
X151873571Y-187700238D01*
X151516428Y-187700238D01*
X151302142Y-187805000D01*
X150873571Y-187700238D02*
X150016428Y-187700238D01*
X150445000Y-189900238D02*
X150445000Y-187700238D01*
X149516428Y-188747857D02*
X149016428Y-188747857D01*
X148802142Y-189900238D02*
X149516428Y-189900238D01*
X149516428Y-187700238D01*
X148802142Y-187700238D01*
X147302142Y-189900238D02*
X147802142Y-188852619D01*
X148159285Y-189900238D02*
X148159285Y-187700238D01*
X147587857Y-187700238D01*
X147445000Y-187805000D01*
X147373571Y-187909761D01*
X147302142Y-188119285D01*
X147302142Y-188433571D01*
X147373571Y-188643095D01*
X147445000Y-188747857D01*
X147587857Y-188852619D01*
X148159285Y-188852619D01*
X146659285Y-189900238D02*
X146659285Y-187700238D01*
X145945000Y-187700238D02*
X145945000Y-189481190D01*
X145873571Y-189690714D01*
X145802142Y-189795476D01*
X145659285Y-189900238D01*
X145373571Y-189900238D01*
X145230714Y-189795476D01*
X145159285Y-189690714D01*
X145087857Y-189481190D01*
X145087857Y-187700238D01*
X144373571Y-189900238D02*
X144373571Y-187700238D01*
X143873571Y-189271666D01*
X143373571Y-187700238D01*
X143373571Y-189900238D01*
X155087857Y-191933571D02*
X155087857Y-194133571D01*
X155087857Y-192038333D02*
X154945000Y-191933571D01*
X154659285Y-191933571D01*
X154516428Y-192038333D01*
X154445000Y-192143095D01*
X154373571Y-192352619D01*
X154373571Y-192981190D01*
X154445000Y-193190714D01*
X154516428Y-193295476D01*
X154659285Y-193400238D01*
X154945000Y-193400238D01*
X155087857Y-193295476D01*
X153516428Y-193400238D02*
X153659285Y-193295476D01*
X153730714Y-193085952D01*
X153730714Y-191200238D01*
X152302142Y-193400238D02*
X152302142Y-192247857D01*
X152373571Y-192038333D01*
X152516428Y-191933571D01*
X152802142Y-191933571D01*
X152945000Y-192038333D01*
X152302142Y-193295476D02*
X152445000Y-193400238D01*
X152802142Y-193400238D01*
X152945000Y-193295476D01*
X153016428Y-193085952D01*
X153016428Y-192876428D01*
X152945000Y-192666904D01*
X152802142Y-192562142D01*
X152445000Y-192562142D01*
X152302142Y-192457380D01*
X151802142Y-191933571D02*
X151230714Y-191933571D01*
X151587857Y-191200238D02*
X151587857Y-193085952D01*
X151516428Y-193295476D01*
X151373571Y-193400238D01*
X151230714Y-193400238D01*
X150159285Y-193295476D02*
X150302142Y-193400238D01*
X150587857Y-193400238D01*
X150730714Y-193295476D01*
X150802142Y-193085952D01*
X150802142Y-192247857D01*
X150730714Y-192038333D01*
X150587857Y-191933571D01*
X150302142Y-191933571D01*
X150159285Y-192038333D01*
X150087857Y-192247857D01*
X150087857Y-192457380D01*
X150802142Y-192666904D01*
X148302142Y-193400238D02*
X148302142Y-191200238D01*
X148302142Y-192038333D02*
X148159285Y-191933571D01*
X147873571Y-191933571D01*
X147730714Y-192038333D01*
X147659285Y-192143095D01*
X147587857Y-192352619D01*
X147587857Y-192981190D01*
X147659285Y-193190714D01*
X147730714Y-193295476D01*
X147873571Y-193400238D01*
X148159285Y-193400238D01*
X148302142Y-193295476D01*
X147087857Y-191933571D02*
X146730714Y-193400238D01*
X146373571Y-191933571D02*
X146730714Y-193400238D01*
X146873571Y-193924047D01*
X146945000Y-194028809D01*
X147087857Y-194133571D01*
X144659285Y-191933571D02*
X144659285Y-194133571D01*
X144659285Y-192038333D02*
X144516428Y-191933571D01*
X144230714Y-191933571D01*
X144087857Y-192038333D01*
X144016428Y-192143095D01*
X143945000Y-192352619D01*
X143945000Y-192981190D01*
X144016428Y-193190714D01*
X144087857Y-193295476D01*
X144230714Y-193400238D01*
X144516428Y-193400238D01*
X144659285Y-193295476D01*
X143302142Y-193400238D02*
X143302142Y-191933571D01*
X143302142Y-191200238D02*
X143373571Y-191305000D01*
X143302142Y-191409761D01*
X143230714Y-191305000D01*
X143302142Y-191200238D01*
X143302142Y-191409761D01*
X142587857Y-193400238D02*
X142587857Y-191933571D01*
X142587857Y-191200238D02*
X142659285Y-191305000D01*
X142587857Y-191409761D01*
X142516428Y-191305000D01*
X142587857Y-191200238D01*
X142587857Y-191409761D01*
X142087857Y-191933571D02*
X141516428Y-191933571D01*
X141873571Y-191200238D02*
X141873571Y-193085952D01*
X141802142Y-193295476D01*
X141659285Y-193400238D01*
X141516428Y-193400238D01*
X141159285Y-191200238D02*
X140159285Y-191200238D01*
X140802142Y-193400238D01*
X139516428Y-193400238D02*
X139230714Y-193400238D01*
X139087857Y-193295476D01*
X139016428Y-193190714D01*
X138873571Y-192876428D01*
X138802142Y-192457380D01*
X138802142Y-191619285D01*
X138873571Y-191409761D01*
X138945000Y-191305000D01*
X139087857Y-191200238D01*
X139373571Y-191200238D01*
X139516428Y-191305000D01*
X139587857Y-191409761D01*
X139659285Y-191619285D01*
X139659285Y-192143095D01*
X139587857Y-192352619D01*
X139516428Y-192457380D01*
X139373571Y-192562142D01*
X139087857Y-192562142D01*
X138945000Y-192457380D01*
X138873571Y-192352619D01*
X138802142Y-192143095D01*
X137087857Y-191409761D02*
X137016428Y-191305000D01*
X136873571Y-191200238D01*
X136516428Y-191200238D01*
X136373571Y-191305000D01*
X136302142Y-191409761D01*
X136230714Y-191619285D01*
X136230714Y-191828809D01*
X136302142Y-192143095D01*
X137159285Y-193400238D01*
X136230714Y-193400238D01*
X135302142Y-191200238D02*
X135159285Y-191200238D01*
X135016428Y-191305000D01*
X134945000Y-191409761D01*
X134873571Y-191619285D01*
X134802142Y-192038333D01*
X134802142Y-192562142D01*
X134873571Y-192981190D01*
X134945000Y-193190714D01*
X135016428Y-193295476D01*
X135159285Y-193400238D01*
X135302142Y-193400238D01*
X135445000Y-193295476D01*
X135516428Y-193190714D01*
X135587857Y-192981190D01*
X135659285Y-192562142D01*
X135659285Y-192038333D01*
X135587857Y-191619285D01*
X135516428Y-191409761D01*
X135445000Y-191305000D01*
X135302142Y-191200238D01*
X134230714Y-191409761D02*
X134159285Y-191305000D01*
X134016428Y-191200238D01*
X133659285Y-191200238D01*
X133516428Y-191305000D01*
X133445000Y-191409761D01*
X133373571Y-191619285D01*
X133373571Y-191828809D01*
X133445000Y-192143095D01*
X134302142Y-193400238D01*
X133373571Y-193400238D01*
X131945000Y-193400238D02*
X132802142Y-193400238D01*
X132373571Y-193400238D02*
X132373571Y-191200238D01*
X132516428Y-191514523D01*
X132659285Y-191724047D01*
X132802142Y-191828809D01*
X155087857Y-196900238D02*
X155087857Y-195433571D01*
X155087857Y-195852619D02*
X155016428Y-195643095D01*
X154945000Y-195538333D01*
X154802142Y-195433571D01*
X154659285Y-195433571D01*
X153587857Y-196795476D02*
X153730714Y-196900238D01*
X154016428Y-196900238D01*
X154159285Y-196795476D01*
X154230714Y-196585952D01*
X154230714Y-195747857D01*
X154159285Y-195538333D01*
X154016428Y-195433571D01*
X153730714Y-195433571D01*
X153587857Y-195538333D01*
X153516428Y-195747857D01*
X153516428Y-195957380D01*
X154230714Y-196166904D01*
X153016428Y-195433571D02*
X152659285Y-196900238D01*
X152302142Y-195433571D01*
X150945000Y-196900238D02*
X151802142Y-196900238D01*
X151373571Y-196900238D02*
X151373571Y-194700238D01*
X151516428Y-195014523D01*
X151659285Y-195224047D01*
X151802142Y-195328809D01*
D12*
X384809999Y-198619941D02*
G75*
G02*
X381505940Y-201930000I-3307059J-3000D01*
G01*
X381499941Y-82863501D02*
G75*
G02*
X384810000Y-86167560I3000J-3307059D01*
G01*
X37147501Y-86173559D02*
G75*
G02*
X40451560Y-82863500I3307059J3000D01*
G01*
X40457559Y-201929999D02*
G75*
G02*
X37147500Y-198625940I-3000J3307059D01*
G01*
X384810000Y-86173559D02*
X384809999Y-198619941D01*
X381505940Y-201930000D02*
X40457559Y-201929999D01*
X37147500Y-198625940D02*
X37147501Y-86173559D01*
X40451560Y-82863500D02*
X381499941Y-82863500D01*
M02*
