G04 #@! TF.GenerationSoftware,KiCad,Pcbnew,5.1.10-88a1d61d58~90~ubuntu21.04.1*
G04 #@! TF.CreationDate,2021-08-16T11:56:13+02:00*
G04 #@! TF.ProjectId,mysterium-plate,6d797374-6572-4697-956d-2d706c617465,rev?*
G04 #@! TF.SameCoordinates,Original*
G04 #@! TF.FileFunction,Legend,Bot*
G04 #@! TF.FilePolarity,Positive*
%FSLAX46Y46*%
G04 Gerber Fmt 4.6, Leading zero omitted, Abs format (unit mm)*
G04 Created by KiCad (PCBNEW 5.1.10-88a1d61d58~90~ubuntu21.04.1) date 2021-08-16 11:56:13*
%MOMM*%
%LPD*%
G01*
G04 APERTURE LIST*
%ADD10C,0.150000*%
%ADD11C,0.200000*%
G04 APERTURE END LIST*
D10*
X381372452Y-200221904D02*
X381372452Y-200793333D01*
X381410547Y-200907619D01*
X381486738Y-200983809D01*
X381601023Y-201021904D01*
X381677214Y-201021904D01*
X380610547Y-201021904D02*
X380991500Y-201021904D01*
X380991500Y-200221904D01*
X379886738Y-200945714D02*
X379924833Y-200983809D01*
X380039119Y-201021904D01*
X380115309Y-201021904D01*
X380229595Y-200983809D01*
X380305785Y-200907619D01*
X380343880Y-200831428D01*
X380381976Y-200679047D01*
X380381976Y-200564761D01*
X380343880Y-200412380D01*
X380305785Y-200336190D01*
X380229595Y-200260000D01*
X380115309Y-200221904D01*
X380039119Y-200221904D01*
X379924833Y-200260000D01*
X379886738Y-200298095D01*
X379315309Y-200221904D02*
X379315309Y-200793333D01*
X379353404Y-200907619D01*
X379429595Y-200983809D01*
X379543880Y-201021904D01*
X379620071Y-201021904D01*
X378553404Y-201021904D02*
X378934357Y-201021904D01*
X378934357Y-200221904D01*
X377829595Y-200945714D02*
X377867690Y-200983809D01*
X377981976Y-201021904D01*
X378058166Y-201021904D01*
X378172452Y-200983809D01*
X378248642Y-200907619D01*
X378286738Y-200831428D01*
X378324833Y-200679047D01*
X378324833Y-200564761D01*
X378286738Y-200412380D01*
X378248642Y-200336190D01*
X378172452Y-200260000D01*
X378058166Y-200221904D01*
X377981976Y-200221904D01*
X377867690Y-200260000D01*
X377829595Y-200298095D01*
X377258166Y-200221904D02*
X377258166Y-200793333D01*
X377296261Y-200907619D01*
X377372452Y-200983809D01*
X377486738Y-201021904D01*
X377562928Y-201021904D01*
X376496261Y-201021904D02*
X376877214Y-201021904D01*
X376877214Y-200221904D01*
X375772452Y-200945714D02*
X375810547Y-200983809D01*
X375924833Y-201021904D01*
X376001023Y-201021904D01*
X376115309Y-200983809D01*
X376191500Y-200907619D01*
X376229595Y-200831428D01*
X376267690Y-200679047D01*
X376267690Y-200564761D01*
X376229595Y-200412380D01*
X376191500Y-200336190D01*
X376115309Y-200260000D01*
X376001023Y-200221904D01*
X375924833Y-200221904D01*
X375810547Y-200260000D01*
X375772452Y-200298095D01*
X375201023Y-200221904D02*
X375201023Y-200793333D01*
X375239119Y-200907619D01*
X375315309Y-200983809D01*
X375429595Y-201021904D01*
X375505785Y-201021904D01*
X374439119Y-201021904D02*
X374820071Y-201021904D01*
X374820071Y-200221904D01*
X373715309Y-200945714D02*
X373753404Y-200983809D01*
X373867690Y-201021904D01*
X373943880Y-201021904D01*
X374058166Y-200983809D01*
X374134357Y-200907619D01*
X374172452Y-200831428D01*
X374210547Y-200679047D01*
X374210547Y-200564761D01*
X374172452Y-200412380D01*
X374134357Y-200336190D01*
X374058166Y-200260000D01*
X373943880Y-200221904D01*
X373867690Y-200221904D01*
X373753404Y-200260000D01*
X373715309Y-200298095D01*
D11*
X155087857Y-189900238D02*
X155087857Y-187700238D01*
X154587857Y-189271666D01*
X154087857Y-187700238D01*
X154087857Y-189900238D01*
X153087857Y-188852619D02*
X153087857Y-189900238D01*
X153587857Y-187700238D02*
X153087857Y-188852619D01*
X152587857Y-187700238D01*
X152159285Y-189795476D02*
X151945000Y-189900238D01*
X151587857Y-189900238D01*
X151445000Y-189795476D01*
X151373571Y-189690714D01*
X151302142Y-189481190D01*
X151302142Y-189271666D01*
X151373571Y-189062142D01*
X151445000Y-188957380D01*
X151587857Y-188852619D01*
X151873571Y-188747857D01*
X152016428Y-188643095D01*
X152087857Y-188538333D01*
X152159285Y-188328809D01*
X152159285Y-188119285D01*
X152087857Y-187909761D01*
X152016428Y-187805000D01*
X151873571Y-187700238D01*
X151516428Y-187700238D01*
X151302142Y-187805000D01*
X150873571Y-187700238D02*
X150016428Y-187700238D01*
X150445000Y-189900238D02*
X150445000Y-187700238D01*
X149516428Y-188747857D02*
X149016428Y-188747857D01*
X148802142Y-189900238D02*
X149516428Y-189900238D01*
X149516428Y-187700238D01*
X148802142Y-187700238D01*
X147302142Y-189900238D02*
X147802142Y-188852619D01*
X148159285Y-189900238D02*
X148159285Y-187700238D01*
X147587857Y-187700238D01*
X147445000Y-187805000D01*
X147373571Y-187909761D01*
X147302142Y-188119285D01*
X147302142Y-188433571D01*
X147373571Y-188643095D01*
X147445000Y-188747857D01*
X147587857Y-188852619D01*
X148159285Y-188852619D01*
X146659285Y-189900238D02*
X146659285Y-187700238D01*
X145945000Y-187700238D02*
X145945000Y-189481190D01*
X145873571Y-189690714D01*
X145802142Y-189795476D01*
X145659285Y-189900238D01*
X145373571Y-189900238D01*
X145230714Y-189795476D01*
X145159285Y-189690714D01*
X145087857Y-189481190D01*
X145087857Y-187700238D01*
X144373571Y-189900238D02*
X144373571Y-187700238D01*
X143873571Y-189271666D01*
X143373571Y-187700238D01*
X143373571Y-189900238D01*
X155087857Y-191933571D02*
X155087857Y-194133571D01*
X155087857Y-192038333D02*
X154945000Y-191933571D01*
X154659285Y-191933571D01*
X154516428Y-192038333D01*
X154445000Y-192143095D01*
X154373571Y-192352619D01*
X154373571Y-192981190D01*
X154445000Y-193190714D01*
X154516428Y-193295476D01*
X154659285Y-193400238D01*
X154945000Y-193400238D01*
X155087857Y-193295476D01*
X153516428Y-193400238D02*
X153659285Y-193295476D01*
X153730714Y-193085952D01*
X153730714Y-191200238D01*
X152302142Y-193400238D02*
X152302142Y-192247857D01*
X152373571Y-192038333D01*
X152516428Y-191933571D01*
X152802142Y-191933571D01*
X152945000Y-192038333D01*
X152302142Y-193295476D02*
X152445000Y-193400238D01*
X152802142Y-193400238D01*
X152945000Y-193295476D01*
X153016428Y-193085952D01*
X153016428Y-192876428D01*
X152945000Y-192666904D01*
X152802142Y-192562142D01*
X152445000Y-192562142D01*
X152302142Y-192457380D01*
X151802142Y-191933571D02*
X151230714Y-191933571D01*
X151587857Y-191200238D02*
X151587857Y-193085952D01*
X151516428Y-193295476D01*
X151373571Y-193400238D01*
X151230714Y-193400238D01*
X150159285Y-193295476D02*
X150302142Y-193400238D01*
X150587857Y-193400238D01*
X150730714Y-193295476D01*
X150802142Y-193085952D01*
X150802142Y-192247857D01*
X150730714Y-192038333D01*
X150587857Y-191933571D01*
X150302142Y-191933571D01*
X150159285Y-192038333D01*
X150087857Y-192247857D01*
X150087857Y-192457380D01*
X150802142Y-192666904D01*
X148302142Y-193400238D02*
X148302142Y-191200238D01*
X148302142Y-192038333D02*
X148159285Y-191933571D01*
X147873571Y-191933571D01*
X147730714Y-192038333D01*
X147659285Y-192143095D01*
X147587857Y-192352619D01*
X147587857Y-192981190D01*
X147659285Y-193190714D01*
X147730714Y-193295476D01*
X147873571Y-193400238D01*
X148159285Y-193400238D01*
X148302142Y-193295476D01*
X147087857Y-191933571D02*
X146730714Y-193400238D01*
X146373571Y-191933571D02*
X146730714Y-193400238D01*
X146873571Y-193924047D01*
X146945000Y-194028809D01*
X147087857Y-194133571D01*
X144659285Y-191933571D02*
X144659285Y-194133571D01*
X144659285Y-192038333D02*
X144516428Y-191933571D01*
X144230714Y-191933571D01*
X144087857Y-192038333D01*
X144016428Y-192143095D01*
X143945000Y-192352619D01*
X143945000Y-192981190D01*
X144016428Y-193190714D01*
X144087857Y-193295476D01*
X144230714Y-193400238D01*
X144516428Y-193400238D01*
X144659285Y-193295476D01*
X143302142Y-193400238D02*
X143302142Y-191933571D01*
X143302142Y-191200238D02*
X143373571Y-191305000D01*
X143302142Y-191409761D01*
X143230714Y-191305000D01*
X143302142Y-191200238D01*
X143302142Y-191409761D01*
X142587857Y-193400238D02*
X142587857Y-191933571D01*
X142587857Y-191200238D02*
X142659285Y-191305000D01*
X142587857Y-191409761D01*
X142516428Y-191305000D01*
X142587857Y-191200238D01*
X142587857Y-191409761D01*
X142087857Y-191933571D02*
X141516428Y-191933571D01*
X141873571Y-191200238D02*
X141873571Y-193085952D01*
X141802142Y-193295476D01*
X141659285Y-193400238D01*
X141516428Y-193400238D01*
X141159285Y-191200238D02*
X140159285Y-191200238D01*
X140802142Y-193400238D01*
X139516428Y-193400238D02*
X139230714Y-193400238D01*
X139087857Y-193295476D01*
X139016428Y-193190714D01*
X138873571Y-192876428D01*
X138802142Y-192457380D01*
X138802142Y-191619285D01*
X138873571Y-191409761D01*
X138945000Y-191305000D01*
X139087857Y-191200238D01*
X139373571Y-191200238D01*
X139516428Y-191305000D01*
X139587857Y-191409761D01*
X139659285Y-191619285D01*
X139659285Y-192143095D01*
X139587857Y-192352619D01*
X139516428Y-192457380D01*
X139373571Y-192562142D01*
X139087857Y-192562142D01*
X138945000Y-192457380D01*
X138873571Y-192352619D01*
X138802142Y-192143095D01*
X137087857Y-191409761D02*
X137016428Y-191305000D01*
X136873571Y-191200238D01*
X136516428Y-191200238D01*
X136373571Y-191305000D01*
X136302142Y-191409761D01*
X136230714Y-191619285D01*
X136230714Y-191828809D01*
X136302142Y-192143095D01*
X137159285Y-193400238D01*
X136230714Y-193400238D01*
X135302142Y-191200238D02*
X135159285Y-191200238D01*
X135016428Y-191305000D01*
X134945000Y-191409761D01*
X134873571Y-191619285D01*
X134802142Y-192038333D01*
X134802142Y-192562142D01*
X134873571Y-192981190D01*
X134945000Y-193190714D01*
X135016428Y-193295476D01*
X135159285Y-193400238D01*
X135302142Y-193400238D01*
X135445000Y-193295476D01*
X135516428Y-193190714D01*
X135587857Y-192981190D01*
X135659285Y-192562142D01*
X135659285Y-192038333D01*
X135587857Y-191619285D01*
X135516428Y-191409761D01*
X135445000Y-191305000D01*
X135302142Y-191200238D01*
X134230714Y-191409761D02*
X134159285Y-191305000D01*
X134016428Y-191200238D01*
X133659285Y-191200238D01*
X133516428Y-191305000D01*
X133445000Y-191409761D01*
X133373571Y-191619285D01*
X133373571Y-191828809D01*
X133445000Y-192143095D01*
X134302142Y-193400238D01*
X133373571Y-193400238D01*
X131945000Y-193400238D02*
X132802142Y-193400238D01*
X132373571Y-193400238D02*
X132373571Y-191200238D01*
X132516428Y-191514523D01*
X132659285Y-191724047D01*
X132802142Y-191828809D01*
X155087857Y-196900238D02*
X155087857Y-195433571D01*
X155087857Y-195852619D02*
X155016428Y-195643095D01*
X154945000Y-195538333D01*
X154802142Y-195433571D01*
X154659285Y-195433571D01*
X153587857Y-196795476D02*
X153730714Y-196900238D01*
X154016428Y-196900238D01*
X154159285Y-196795476D01*
X154230714Y-196585952D01*
X154230714Y-195747857D01*
X154159285Y-195538333D01*
X154016428Y-195433571D01*
X153730714Y-195433571D01*
X153587857Y-195538333D01*
X153516428Y-195747857D01*
X153516428Y-195957380D01*
X154230714Y-196166904D01*
X153016428Y-195433571D02*
X152659285Y-196900238D01*
X152302142Y-195433571D01*
X150945000Y-196900238D02*
X151802142Y-196900238D01*
X151373571Y-196900238D02*
X151373571Y-194700238D01*
X151516428Y-195014523D01*
X151659285Y-195224047D01*
X151802142Y-195328809D01*
%LPC*%
M02*
